<svg width="70" height="34" viewBox="0 0 70 34" fill="none" xmlns="http://www.w3.org/2000/svg">
<g clip-path="url(#clip0)">
<path d="M36.3228 29.4768C34.9699 29.387 33.41 29.1508 32.1796 28.7959C31.9492 28.7294 30.9949 28.3801 30.7522 28.2692C26.4688 26.2931 23.4848 21.9795 23.4848 16.975C23.4848 10.111 29.0921 4.51987 35.9887 4.51987C42.8242 4.51987 48.3936 10.0156 48.4894 16.8021H53.0066C52.9109 7.53609 45.3161 0.0266075 35.9887 0.0266075C26.6057 0.0266075 18.9686 7.62812 18.9686 16.975C18.9686 23.4189 22.6074 29.0233 27.9352 31.8864C28.8972 32.3932 30.2779 32.9155 30.7466 33.0585C32.2654 33.5088 34.1293 33.8082 35.7883 33.9335C36.3517 33.9756 38.3192 33.9978 38.8926 34H70V29.5189H38.9449C38.5318 29.5189 36.727 29.5034 36.3228 29.4768ZM38.9449 22.4408C38.6165 22.4408 36.8984 22.4297 36.5811 22.4031C36.0433 22.3577 35.2639 22.2778 34.7628 22.1636C34.1972 22.0128 33.6661 21.8132 33.4267 21.6823C31.7487 20.7786 30.6052 19.011 30.6052 16.975C30.6052 14.0132 33.0136 11.6113 35.9887 11.6113C38.9015 11.6113 41.2698 13.9189 41.3644 16.8021H45.7046C45.6133 11.5348 41.3021 7.28991 35.9887 7.28991C30.6164 7.28991 26.2617 11.6257 26.2617 16.975C26.2617 20.7475 28.4329 24.0055 31.5951 25.6012C32.0817 25.8851 32.9969 26.1823 33.2575 26.2499C34.1504 26.4839 35.3496 26.6436 36.3228 26.7145C36.6824 26.7445 38.4439 26.7578 38.8158 26.76V26.7666H69.9989V22.4408H38.9449ZM16.185 33.9834H11.6377V4.52986H4.99268V-3.8147e-06H16.185V33.9834ZM0 6.79312V11.1489H4.99268V33.9834H9.36184V6.79312H0Z" fill="#A0ACE3"/>
<path d="M61.965 0.316417C60.3272 0.316417 58.9688 1.61716 58.9688 3.24946C58.9688 4.88176 60.3272 6.23462 61.965 6.23462C63.653 6.23462 64.9591 4.88176 64.9591 3.24946C64.9591 1.61716 63.653 0.316417 61.965 0.316417ZM61.965 5.75336C60.6122 5.75336 59.4464 4.69436 59.4464 3.24946C59.4464 1.87775 60.6122 0.792135 61.965 0.792135C63.3167 0.792135 64.477 1.87775 64.477 3.24946C64.477 4.69436 63.3167 5.75336 61.965 5.75336Z" fill="#A0ACE3"/>
<path d="M63.1067 4.05307C63.1067 3.72373 63.0577 3.41767 62.6792 3.2968C63.1535 3.13269 63.2003 2.8233 63.2003 2.6359C63.2003 1.87852 62.5099 1.78205 62.226 1.78205H60.9199V4.71509H61.4644V3.51193H61.8931C62.5099 3.51193 62.5611 3.7947 62.5611 4.05307C62.5611 4.55319 62.5611 4.64744 62.6792 4.71509H63.2248C63.1067 4.59644 63.1535 4.5044 63.1067 4.05307ZM62.1069 3.0839H61.4644V2.16018H62.0144C62.3952 2.16018 62.6536 2.27994 62.6536 2.6359C62.6536 2.8233 62.5611 3.0839 62.1069 3.0839Z" fill="#A0ACE3"/>
</g>
<defs>
<clipPath id="clip0">
<rect width="70" height="34" fill="white"/>
</clipPath>
</defs>
</svg>
