<svg width="46" height="46" viewBox="0 0 46 46" fill="none" xmlns="http://www.w3.org/2000/svg">
<circle r="22.5" transform="matrix(-1 0 0 1 23 23)" fill="white" stroke="#BDE3FE"/>
<path d="M31.3802 19.5691L30.1502 21.4191C30.7433 22.6022 31.0337 23.914 30.9954 25.2369C30.957 26.5598 30.591 27.8525 29.9302 28.9991H16.0702C15.2113 27.5092 14.8555 25.7823 15.0553 24.0742C15.2552 22.3662 16.0001 20.768 17.1797 19.5166C18.3592 18.2652 19.9106 17.4272 21.6039 17.1268C23.2972 16.8265 25.0422 17.0798 26.5802 17.8491L28.4302 16.6191C26.5467 15.4114 24.3125 14.8701 22.0851 15.0821C19.8576 15.294 17.7656 16.2468 16.1437 17.7882C14.5217 19.3295 13.4635 21.3702 13.1384 23.584C12.8132 25.7977 13.2399 28.0565 14.3502 29.9991C14.5247 30.3014 14.7753 30.5528 15.077 30.7282C15.3787 30.9036 15.7211 30.997 16.0702 30.9991H29.9202C30.2726 31.0005 30.6191 30.9088 30.9247 30.7332C31.2302 30.5576 31.484 30.3044 31.6602 29.9991C32.5815 28.4031 33.0439 26.5834 32.9963 24.7411C32.9486 22.8988 32.3928 21.1055 31.3902 19.5591L31.3802 19.5691ZM21.5902 26.4091C21.7759 26.5951 21.9965 26.7426 22.2393 26.8433C22.4821 26.9439 22.7423 26.9957 23.0052 26.9957C23.268 26.9957 23.5283 26.9439 23.7711 26.8433C24.0138 26.7426 24.2344 26.5951 24.4202 26.4091L30.0802 17.9191L21.5902 23.5791C21.4042 23.7649 21.2567 23.9855 21.1561 24.2283C21.0554 24.4711 21.0036 24.7313 21.0036 24.9941C21.0036 25.257 21.0554 25.5172 21.1561 25.76C21.2567 26.0028 21.4042 26.2234 21.5902 26.4091Z" fill="#1F40E5"/>
</svg>
