<svg width="46" height="46" viewBox="0 0 46 46" fill="none" xmlns="http://www.w3.org/2000/svg">
<circle r="22.5" transform="matrix(-1 0 0 1 23 23)" fill="white" stroke="#BDE3FE"/>
<path d="M21.5714 30.7143C20.1587 30.7143 18.7777 30.2954 17.6031 29.5105C16.4284 28.7256 15.5129 27.6101 14.9723 26.3049C14.4317 24.9997 14.2902 23.5635 14.5658 22.1779C14.8414 20.7924 15.5217 19.5196 16.5207 18.5207C17.5196 17.5217 18.7924 16.8414 20.1779 16.5658C21.5635 16.2902 22.9997 16.4317 24.3049 16.9723C25.6101 17.5129 26.7256 18.4284 27.5105 19.6031C28.2954 20.7777 28.7143 22.1587 28.7143 23.5714H30.1429C30.1429 21.8762 29.6402 20.219 28.6983 18.8094C27.7565 17.3998 26.4178 16.3012 24.8516 15.6525C23.2854 15.0037 21.5619 14.834 19.8992 15.1647C18.2365 15.4954 16.7093 16.3118 15.5105 17.5105C14.3118 18.7093 13.4954 20.2365 13.1647 21.8992C12.834 23.5619 13.0037 25.2854 13.6525 26.8516C14.3012 28.4178 15.3998 29.7565 16.8094 30.6983C18.219 31.6402 19.8762 32.1429 21.5714 32.1429V30.7143Z" fill="#1F40E5"/>
<path d="M20.1428 24.7077L18.2928 22.8577L17.2856 23.8648L20.1428 26.722L25.1428 21.722L24.1356 20.7148L20.1428 24.7077Z" fill="#1F40E5"/>
<path d="M33.0001 30.7135C33.0001 29.8658 32.7488 29.0372 32.2779 28.3324C31.8069 27.6277 31.1376 27.0783 30.3545 26.754C29.5714 26.4296 28.7097 26.3447 27.8783 26.5101C27.047 26.6755 26.2833 27.0836 25.684 27.683C25.0846 28.2824 24.6764 29.046 24.5111 29.8773C24.3457 30.7087 24.4306 31.5704 24.7549 32.3535C25.0793 33.1366 25.6286 33.806 26.3334 34.2769C27.0382 34.7478 27.8668 34.9992 28.7144 34.9992C29.8507 34.9978 30.94 34.5459 31.7434 33.7424C32.5469 32.939 32.9988 31.8497 33.0001 30.7135ZM31.5716 30.7135C31.5689 31.2219 31.429 31.7201 31.1666 32.1556L27.2723 28.2613C27.7078 27.9989 28.206 27.859 28.7144 27.8563C29.4719 27.8573 30.1981 28.1586 30.7337 28.6942C31.2693 29.2298 31.5706 29.956 31.5716 30.7135ZM25.8573 30.7135C25.8599 30.205 25.9999 29.7068 26.2623 29.2713L30.1566 33.1656C29.7211 33.428 29.2228 33.5679 28.7144 33.5706C27.957 33.5696 27.2308 33.2683 26.6952 32.7327C26.1596 32.1971 25.8582 31.4709 25.8573 30.7135Z" fill="#1F40E5"/>
</svg>
