<svg width="48" height="48" viewBox="0 0 48 48" fill="none" xmlns="http://www.w3.org/2000/svg">
<path opacity="0.3" fill-rule="evenodd" clip-rule="evenodd" d="M8.56066 12.8033C7.97487 12.2175 7.97487 11.2678 8.56066 10.682L10.682 8.56068C11.2678 7.97489 12.2175 7.97489 12.8033 8.56068L17.0459 12.8033C17.6317 13.3891 17.6317 14.3389 17.0459 14.9246L14.9246 17.046C14.3388 17.6317 13.3891 17.6317 12.8033 17.046L8.56066 12.8033ZM3 22.5C3 21.6716 3.67157 21 4.5 21H10.5C11.3284 21 12 21.6716 12 22.5V25.5C12 26.3284 11.3284 27 10.5 27H4.5C3.67157 27 3 26.3284 3 25.5V22.5ZM31.0607 33.182C30.4749 33.7678 30.4749 34.7175 31.0607 35.3033L35.3033 39.546C35.8891 40.1317 36.8388 40.1317 37.4246 39.546L39.5459 37.4246C40.1317 36.8389 40.1317 35.8891 39.5459 35.3033L35.3033 31.0607C34.7175 30.4749 33.7678 30.4749 33.182 31.0607L31.0607 33.182ZM22.5 36C21.6716 36 21 36.6716 21 37.5V43.5C21 44.3284 21.6716 45 22.5 45H25.5C26.3284 45 27 44.3284 27 43.5V37.5C27 36.6716 26.3284 36 25.5 36H22.5ZM8.56066 37.4246C7.97487 36.8389 7.97487 35.8891 8.56066 35.3033L12.8033 31.0607C13.3891 30.4749 14.3388 30.4749 14.9246 31.0607L17.0459 33.182C17.6317 33.7678 17.6317 34.7175 17.0459 35.3033L12.8033 39.546C12.2175 40.1317 11.2678 40.1317 10.682 39.546L8.56066 37.4246Z" fill="#1F40E5"/>
<rect x="36" y="21" width="9" height="6" rx="1.5" fill="#1F40E5"/>
<rect x="30" y="13.8638" width="9" height="6" rx="1.5" transform="rotate(-45 30 13.8638)" fill="#1F40E5"/>
<rect x="21" y="3" width="6" height="9" rx="1.5" fill="#1F40E5"/>
</svg>
