<svg width="48" height="48" viewBox="0 0 48 48" fill="none" xmlns="http://www.w3.org/2000/svg">
<rect width="48" height="48" fill="white"/>
<path fill-rule="evenodd" clip-rule="evenodd" d="M40 9H10C7.23858 9 5 10.9401 5 13.3333V30.6667C5 33.0599 7.23858 35 10 35H40C42.7614 35 45 33.0599 45 30.6667V13.3333C45 10.9401 42.7614 9 40 9ZM9 31V13H41V31H9Z" fill="#1F40E5"/>
<path opacity="0.3" fill-rule="evenodd" clip-rule="evenodd" d="M9 13V31H41V13H9Z" fill="#1F40E5"/>
<rect x="15" y="37" width="20" height="2" rx="1" fill="#1F40E5"/>
<path fill-rule="evenodd" clip-rule="evenodd" d="M6.5001 44.1665C-0.403459 44.1665 1.0001 39.4036 1.0001 32.5C1.0001 25.5964 -0.403459 19.1665 6.5001 19.1665C13.4037 19.1665 19.0001 24.7629 19.0001 31.6665C19.0001 38.5701 13.4037 44.1665 6.5001 44.1665Z" fill="white"/>
<path opacity="0.3" fill-rule="evenodd" clip-rule="evenodd" d="M5.81838 25.1492C5.83841 24.8887 6.05564 24.6875 6.3169 24.6875H6.69306C6.94994 24.6875 7.16502 24.8821 7.19058 25.1377L7.79139 31.1458L12.0603 33.5852C12.2161 33.6742 12.3122 33.8399 12.3122 34.0193V34.3662C12.3122 34.6959 11.9987 34.9353 11.6807 34.8486L5.60672 33.1921C5.37534 33.129 5.22135 32.9105 5.23975 32.6713L5.81838 25.1492Z" fill="#1F40E5"/>
</svg>
