<svg width="48" height="48" viewBox="0 0 48 48" fill="none" xmlns="http://www.w3.org/2000/svg">
<rect width="48" height="48" fill="white"/>
<path d="M26 21C21.5817 21 18 17.4183 18 13C18 8.58172 21.5817 5 26 5C30.4183 5 34 8.58172 34 13C34 17.4183 30.4183 21 26 21Z" fill="#1F40E5"/>
<path d="M8.0013 39.3984C8.77652 29.853 16.5238 25 25.9667 25C35.5424 25 43.4098 29.5864 43.9958 39.4C44.0192 39.7909 43.9958 41 42.4934 41C35.0822 41 24.0694 41 9.455 41C8.95342 41 7.95908 39.9184 8.0013 39.3984Z" fill="#1F40E5"/>
<path d="M26 21C21.5817 21 18 17.4183 18 13C18 8.58172 21.5817 5 26 5C30.4183 5 34 8.58172 34 13C34 17.4183 30.4183 21 26 21Z" fill="#1F40E5"/>
<path d="M8.0013 39.3984C8.77652 29.853 16.5238 25 25.9667 25C35.5424 25 43.4098 29.5864 43.9958 39.4C44.0192 39.7909 43.9958 41 42.4934 41C35.0822 41 24.0694 41 9.455 41C8.95342 41 7.95908 39.9184 8.0013 39.3984Z" fill="#1F40E5"/>
<path fill-rule="evenodd" clip-rule="evenodd" d="M6.5001 47C-0.403459 47 1.0001 45.4036 1.0001 38.5C1.0001 31.5964 -0.403459 26 6.5001 26C13.4037 26 19.0001 31.5964 19.0001 38.5C19.0001 45.4036 13.4037 47 6.5001 47Z" fill="white"/>
<path opacity="0.3" fill-rule="evenodd" clip-rule="evenodd" d="M5.94338 31.9826C5.96341 31.7221 6.18064 31.521 6.4419 31.521H6.81806C7.07494 31.521 7.29002 31.7156 7.31558 31.9712L7.91639 37.9793L12.1853 40.4187C12.3411 40.5077 12.4372 40.6734 12.4372 40.8528V41.1997C12.4372 41.5294 12.1237 41.7688 11.8057 41.6821L5.73172 40.0256C5.50034 39.9625 5.34635 39.7439 5.36475 39.5048L5.94338 31.9826Z" fill="#1F40E5"/>
</svg>
