<svg width="48" height="48" viewBox="0 0 48 48" fill="none" xmlns="http://www.w3.org/2000/svg">
<path opacity="0.3" fill-rule="evenodd" clip-rule="evenodd" d="M24 42C15.1634 42 8 34.8366 8 26C8 17.1634 15.1634 10 24 10C32.8366 10 40 17.1634 40 26C40 34.8366 32.8366 42 24 42Z" fill="#1F40E5"/>
<path fill-rule="evenodd" clip-rule="evenodd" d="M26 10.1238V8H28C29.1046 8 30 7.10457 30 6C30 4.89543 29.1046 4 28 4H20C18.8954 4 18 4.89543 18 6C18 7.10457 18.8954 8 20 8H22V10.1238C22.6552 10.0421 23.3227 10 24 10C24.6773 10 25.3448 10.0421 26 10.1238Z" fill="#1F40E5"/>
<path fill-rule="evenodd" clip-rule="evenodd" d="M36.3344 15.808L38.6067 13.5356C38.9972 13.1451 38.9972 12.5119 38.6067 12.1214L37.1925 10.7072C36.802 10.3167 36.1688 10.3167 35.7783 10.7072L33.4199 13.0656C34.5022 13.8551 35.4817 14.7772 36.3344 15.808Z" fill="#1F40E5"/>
<path fill-rule="evenodd" clip-rule="evenodd" d="M37 26H24V13C31.1797 13 37 18.8203 37 26Z" fill="#1F40E5"/>
</svg>
