<svg width="37" height="37" viewBox="0 0 37 37" fill="none" xmlns="http://www.w3.org/2000/svg">
<g clip-path="url(#clip0_68_11)">
<path d="M2.20609e-07 18.5001C9.87697e-08 28.7173 8.28266 37 18.4999 37C28.7171 37 37.0001 28.7173 37.0001 18.5001C37.0001 8.28288 28.7171 -0.000114098 18.4999 -0.00011422C8.2874 0.0114022 0.0115176 8.28728 2.20609e-07 18.5001H2.20609e-07ZM35.1499 18.5001C35.1499 27.6957 27.6955 35.1501 18.4999 35.1501C9.30431 35.1501 1.84989 27.6957 1.84989 18.5001C1.84989 9.30454 9.30431 1.85011 18.4999 1.85011C27.6911 1.86061 35.1394 9.30894 35.1499 18.5001Z" fill="white"/>
<path d="M11.3283 20.666C10.9919 21.0509 11.0312 21.6352 11.4157 21.9716C11.8005 22.3076 12.3849 22.2683 12.7212 21.8838L18.4995 15.2797L24.2782 21.8842C24.6146 22.269 25.1989 22.3079 25.5834 21.9719C25.9682 21.6355 26.0075 21.0512 25.6711 20.6664L19.196 13.2665C19.0205 13.0656 18.7665 12.9504 18.4995 12.9504C18.2326 12.9504 17.9789 13.0656 17.8031 13.2665L11.3283 20.666Z" fill="white"/>
</g>
<defs>
<clipPath id="clip0_68_11">
<rect width="37" height="37" fill="white" transform="translate(0 37) rotate(-90)"/>
</clipPath>
</defs>
</svg>
