<svg width="34" height="34" viewBox="0 0 34 34" fill="none" xmlns="http://www.w3.org/2000/svg">
<g clip-path="url(#clip0_27_1232)">
<path d="M17 1.99219C20.4628 1.99358 23.8186 3.19206 26.4988 5.38454C29.1791 7.57703 31.0189 10.6287 31.7067 14.0225C32.3944 17.4163 31.8878 20.9434 30.2725 24.0064C28.6573 27.0694 26.0328 29.4797 22.8438 30.8291C19.176 32.379 15.0429 32.4084 11.3535 30.9108C7.66413 29.4133 4.72076 26.5115 3.1709 22.8438C1.62104 19.176 1.59165 15.0429 3.08919 11.3535C4.58674 7.66413 7.48854 4.72076 11.1562 3.1709C13.0049 2.38857 14.9926 1.98765 17 1.99219ZM17 0C7.61148 0 0 7.61148 0 17C0 26.3885 7.61148 34 17 34C26.3885 34 34 26.3885 34 17C34 7.61148 26.3885 0 17 0Z" fill="#1F40E5"/>
<path d="M21.9601 26.1554C20.9726 26.089 19.5807 25.7484 18.222 25.2623C13.4315 23.5477 8.75717 18.9796 7.76373 12.59C7.58709 11.4524 7.77303 10.4132 8.63498 9.56714C8.92385 9.28425 9.18084 8.96949 9.46307 8.67996C10.5256 7.58625 12.0781 7.55836 13.1785 8.6089C13.5271 8.94093 13.8817 9.26832 14.2217 9.61097C14.6873 10.0701 14.9569 10.6918 14.9738 11.3454C14.9908 11.9991 14.7538 12.6339 14.3127 13.1166C14.0471 13.4114 13.7682 13.6916 13.4879 13.9712C13.1818 14.2767 12.8013 14.452 12.3929 14.5795C11.8889 14.7375 11.7953 14.9487 12.0244 15.4302C13.472 18.4623 15.738 20.6455 18.8224 21.9798C19.2347 22.1578 19.4253 22.0774 19.5913 21.6684C19.9553 20.7712 20.6226 20.1171 21.3896 19.5885C22.2576 18.9909 23.5007 19.1237 24.3228 19.8302C24.7735 20.2175 25.2041 20.6276 25.6131 21.0587C26.053 21.5295 26.2975 22.1499 26.2969 22.7943C26.2963 23.4386 26.0506 24.0586 25.6097 24.5285C25.4816 24.6679 25.3494 24.8041 25.2266 24.9475C24.4868 25.8075 23.5485 26.2099 21.9601 26.1554Z" fill="#1F40E5"/>
</g>
<defs>
<clipPath id="clip0_27_1232">
<rect width="34" height="34" fill="white"/>
</clipPath>
</defs>
</svg>
