<svg width="50" height="50" viewBox="0 0 50 50" fill="none" xmlns="http://www.w3.org/2000/svg">
<g clip-path="url(#clip0_27_454)">
<path d="M15.6836 39.2989C15.5874 39.299 15.4923 39.2779 15.4051 39.2372C15.3179 39.1965 15.2407 39.1371 15.179 39.0632C15.1173 38.9893 15.0727 38.9028 15.0482 38.8097C15.0236 38.7167 15.0199 38.6193 15.0372 38.5247C16.3221 31.4885 13.495 27.3074 13.4657 27.266C13.3911 27.1585 13.3503 27.0312 13.3483 26.9004C13.3464 26.7696 13.3835 26.6412 13.4548 26.5315C13.875 25.8887 14.1793 24.0253 14.1949 21.9998C14.2139 19.4946 13.8053 18.2875 13.6158 18.1215C13.3797 17.9603 13.1075 17.8599 12.8233 17.8291C12.5391 17.7984 12.2517 17.8383 11.9866 17.9453C11.7847 18.0246 11.6078 18.1569 11.4747 18.3283C11.3416 18.4996 11.2572 18.7037 11.2303 18.919C11.1027 19.7495 10.7073 20.9262 10.2495 22.2889C9.74455 23.7922 9.17197 25.496 8.90242 26.9459C8.59516 28.6916 8.4475 30.4616 8.46126 32.234C8.4653 32.4007 8.40576 32.5626 8.29473 32.687L5.72387 35.5656C5.66647 35.6299 5.59696 35.6822 5.51933 35.7197C5.44169 35.7571 5.35744 35.7788 5.2714 35.7837C5.18535 35.7886 5.09919 35.7764 5.01784 35.748C4.93648 35.7195 4.86153 35.6754 4.79725 35.618C4.73297 35.5606 4.68063 35.491 4.64321 35.4134C4.60579 35.3358 4.58403 35.2515 4.57917 35.1655C4.57431 35.0794 4.58645 34.9933 4.61488 34.9119C4.64332 34.8306 4.6875 34.7556 4.74491 34.6913L7.14613 32.003C7.14552 30.2272 7.30144 28.4548 7.61207 26.7064C7.89869 25.1659 8.48669 23.4156 9.00545 21.8713C9.42561 20.6203 9.82248 19.4389 9.93322 18.7198C9.99468 18.2825 10.1699 17.869 10.4413 17.5206C10.7127 17.1723 11.0708 16.9012 11.4798 16.7347C11.9531 16.541 12.4674 16.4692 12.9756 16.5261C13.4838 16.583 13.9695 16.7667 14.3882 17.0604C15.9409 18.1817 15.7317 24.6169 14.7586 26.8588C15.4602 28.0537 17.5168 32.2527 16.3284 38.7602C16.3009 38.9113 16.2213 39.0478 16.1035 39.1463C15.9857 39.2447 15.8371 39.2987 15.6836 39.2989Z" fill="#C9CDE3"/>
<path d="M14.5635 45.1961C14.4347 45.1961 14.3088 45.1582 14.2015 45.0872C14.0941 45.0162 14.0099 44.9151 13.9596 44.7967C13.9092 44.6782 13.8948 44.5475 13.9181 44.4209C13.9414 44.2943 14.0015 44.1773 14.0908 44.0846L16.3293 41.7601C16.4048 41.6818 16.4986 41.6234 16.6022 41.5902C16.7058 41.5571 16.8161 41.5503 16.923 41.5703C16.9472 41.5749 19.4988 42.0272 21.6741 40.9397C21.7069 40.9233 23.8991 39.8555 24.6647 37.9956C24.7309 37.8346 24.8584 37.7065 25.0191 37.6395C25.1798 37.5725 25.3605 37.5721 25.5215 37.6383C25.6825 37.7046 25.8106 37.832 25.8776 37.9927C25.9446 38.1534 25.945 38.3341 25.8787 38.4951C24.9178 40.8301 22.3581 42.0679 22.2495 42.1194C20.1813 43.153 17.9092 43.017 17.0415 42.9132L15.0365 44.9951C14.9753 45.0588 14.9018 45.1094 14.8205 45.144C14.7393 45.1785 14.6518 45.1962 14.5635 45.1961Z" fill="#C9CDE3"/>
<path d="M32.8194 23.4467C32.6454 23.4467 32.4785 23.3775 32.3554 23.2544C32.2323 23.1314 32.1632 22.9645 32.1632 22.7904V6.90916C32.1632 6.03963 31.3247 5.33301 30.2938 5.33301H16.529C15.498 5.33301 14.6587 6.04012 14.6587 6.90916V17.5926C14.6587 17.7666 14.5896 17.9335 14.4665 18.0566C14.3434 18.1797 14.1765 18.2488 14.0024 18.2488C13.8284 18.2488 13.6615 18.1797 13.5384 18.0566C13.4153 17.9335 13.3462 17.7666 13.3462 17.5926V6.90867C13.3462 5.31595 14.7735 4.02002 16.529 4.02002H30.2938C32.0483 4.02002 33.4757 5.31611 33.4757 6.90867V22.7899C33.4757 22.8761 33.4588 22.9615 33.4259 23.0412C33.3929 23.1209 33.3446 23.1933 33.2836 23.2543C33.2227 23.3153 33.1503 23.3636 33.0707 23.3967C32.991 23.4297 32.9056 23.4467 32.8194 23.4467Z" fill="#C9CDE3"/>
<path d="M21.4011 38.0405H16.1079C15.9339 38.0405 15.7669 37.9714 15.6439 37.8483C15.5208 37.7252 15.4517 37.5583 15.4517 37.3843C15.4517 37.2102 15.5208 37.0433 15.6439 36.9202C15.7669 36.7972 15.9339 36.728 16.1079 36.728H21.4019C21.5759 36.728 21.7428 36.7972 21.8659 36.9202C21.989 37.0433 22.0581 37.2102 22.0581 37.3843C22.0581 37.5583 21.989 37.7252 21.8659 37.8483C21.7428 37.9714 21.5759 38.0405 21.4019 38.0405H21.4011Z" fill="#C9CDE3"/>
<path d="M32.7157 8.86823H14.0503C13.8762 8.86823 13.7093 8.79908 13.5863 8.67601C13.4632 8.55294 13.394 8.38602 13.394 8.21198C13.394 8.03793 13.4632 7.87101 13.5863 7.74794C13.7093 7.62487 13.8762 7.55573 14.0503 7.55573H32.7157C32.8897 7.55573 33.0567 7.62487 33.1797 7.74794C33.3028 7.87101 33.3719 8.03793 33.3719 8.21198C33.3719 8.38602 33.3028 8.55294 33.1797 8.67601C33.0567 8.79908 32.8897 8.86823 32.7157 8.86823Z" fill="#C9CDE3"/>
<path d="M19.3483 34.3101H16.2524C16.0784 34.3101 15.9115 34.2409 15.7884 34.1178C15.6653 33.9948 15.5962 33.8279 15.5962 33.6538C15.5962 33.4798 15.6653 33.3128 15.7884 33.1898C15.9115 33.0667 16.0784 32.9976 16.2524 32.9976H19.3483C19.5223 32.9976 19.6893 33.0667 19.8123 33.1898C19.9354 33.3128 20.0046 33.4798 20.0046 33.6538C20.0046 33.8279 19.9354 33.9948 19.8123 34.1178C19.6893 34.2409 19.5223 34.3101 19.3483 34.3101Z" fill="#C9CDE3"/>
<path d="M33.3291 45.9801C33.2016 45.9802 33.0768 45.9432 32.97 45.8735C32.8632 45.8038 32.7791 45.7045 32.7278 45.5877L32.1467 44.2647L28.6804 42.6828C28.6049 42.6482 28.5366 42.5998 28.4791 42.5399L21.8595 35.6342C21.8525 35.6268 21.8456 35.6192 21.8388 35.6116C21.7494 35.5092 20.9752 34.5835 21.2844 33.6162C21.4828 32.9951 22.0416 32.5707 22.9448 32.3548C24.5434 31.9727 26.5008 33.0884 27.7913 34.0228L22.4757 21.923C22.217 21.3413 22.1959 20.6815 22.4168 20.0844C22.5242 19.789 22.6904 19.5185 22.9054 19.2893C23.1203 19.06 23.3796 18.8768 23.6675 18.7507C24.2524 18.5031 24.9117 18.4975 25.5008 18.7353C26.0899 18.9731 26.5606 19.4347 26.8097 20.0191C26.8782 20.1782 26.8811 20.3579 26.8176 20.519C26.7542 20.6802 26.6296 20.8097 26.471 20.8794C26.3124 20.9491 26.1327 20.9532 25.9711 20.891C25.8095 20.8287 25.679 20.7051 25.6082 20.547C25.4991 20.2812 25.2893 20.0694 25.0245 19.958C24.7597 19.8465 24.4615 19.8445 24.1952 19.9523C24.069 20.0082 23.9553 20.0891 23.8612 20.1902C23.7671 20.2913 23.6944 20.4104 23.6476 20.5403C23.5456 20.8182 23.5563 21.1249 23.6773 21.3951L29.4577 34.554C29.5121 34.6777 29.527 34.8153 29.5004 34.9478L29.3425 35.7336C29.3196 35.848 29.2666 35.9541 29.189 36.0412C29.1114 36.1283 29.0121 36.1931 28.9011 36.229C28.7901 36.2649 28.6716 36.2705 28.5577 36.2454C28.4439 36.2203 28.3387 36.1653 28.2532 36.086C27.3804 35.2795 24.7785 33.2642 23.2493 33.632C22.7776 33.7447 22.5707 33.904 22.5344 34.0154C22.4762 34.1937 22.6642 34.5525 22.8209 34.7415L29.3391 41.5416L32.9188 43.1752C33.0654 43.2422 33.1822 43.3608 33.2469 43.5084L33.9289 45.0604C33.9728 45.1603 33.9911 45.2695 33.9822 45.3782C33.9733 45.487 33.9374 45.5918 33.8778 45.6831C33.8182 45.7745 33.7367 45.8496 33.6408 45.9015C33.5449 45.9535 33.4375 45.9808 33.3284 45.9808L33.3291 45.9801Z" fill="#C9CDE3"/>
<path d="M31.101 32.0739C30.9735 32.074 30.8487 32.0369 30.7419 31.9672C30.6351 31.8975 30.551 31.7982 30.4997 31.6814L25.6087 20.547C25.5402 20.3879 25.5373 20.2082 25.6008 20.047C25.6643 19.8859 25.7889 19.7563 25.9474 19.6867C26.106 19.617 26.2857 19.6128 26.4473 19.6751C26.609 19.7374 26.7394 19.861 26.8103 20.0191L31.7015 31.1535C31.7454 31.2534 31.7637 31.3626 31.7548 31.4713C31.7458 31.58 31.71 31.6848 31.6503 31.7762C31.5907 31.8676 31.5093 31.9426 31.4134 31.9946C31.3175 32.0466 31.2101 32.0738 31.101 32.0739Z" fill="#C9CDE3"/>
<path d="M29.5089 28.4496C29.3815 28.4496 29.2567 28.4126 29.15 28.3429C29.0432 28.2732 28.9591 28.174 28.9078 28.0573C28.6491 27.4756 28.628 26.8158 28.8489 26.2187C28.9565 25.9234 29.1228 25.6531 29.3377 25.4238C29.5527 25.1946 29.8118 25.0113 30.0995 24.8849C30.3872 24.7585 30.6975 24.6917 31.0117 24.6885C31.3259 24.6852 31.6375 24.7457 31.9277 24.8661C32.5168 25.1075 32.9883 25.5694 33.2417 26.1534C33.2776 26.2324 33.2975 26.3179 33.3001 26.4047C33.3028 26.4915 33.2882 26.578 33.2571 26.6592C33.2261 26.7403 33.1793 26.8145 33.1194 26.8774C33.0594 26.9403 32.9876 26.9906 32.9081 27.0256C32.8286 27.0605 32.7429 27.0793 32.656 27.0809C32.5692 27.0824 32.4829 27.0668 32.4021 27.0347C32.3214 27.0027 32.2478 26.9549 32.1857 26.8942C32.1235 26.8335 32.074 26.7611 32.0401 26.6811C31.9231 26.4093 31.7044 26.1939 31.4308 26.081C31.3035 26.0272 31.1666 26 31.0285 26.001C30.8903 26.0019 30.7538 26.0311 30.6273 26.0867C30.5009 26.1422 30.387 26.223 30.2929 26.3241C30.1987 26.4252 30.1262 26.5445 30.0797 26.6746C29.9777 26.9524 29.9884 27.2591 30.1096 27.5292C30.1535 27.6291 30.1718 27.7383 30.1629 27.8471C30.1539 27.9558 30.118 28.0606 30.0584 28.152C29.9988 28.2433 29.9173 28.3184 29.8214 28.3704C29.7254 28.4223 29.6181 28.4496 29.5089 28.4496Z" fill="#C9CDE3"/>
<path d="M34.3551 30.9745C34.2275 30.9746 34.1028 30.9375 33.996 30.8677C33.8892 30.798 33.805 30.6987 33.7538 30.5819L32.0403 26.6813C31.9718 26.5222 31.969 26.3425 32.0324 26.1813C32.0959 26.0202 32.2205 25.8906 32.3791 25.821C32.5377 25.7513 32.7173 25.7471 32.879 25.8094C33.0406 25.8717 33.1711 25.9953 33.2419 26.1534L34.9555 30.0541C34.9995 30.154 35.0178 30.2632 35.0088 30.3719C34.9999 30.4807 34.964 30.5855 34.9044 30.6768C34.8448 30.7682 34.7634 30.8433 34.6674 30.8952C34.5715 30.9472 34.4642 30.9745 34.3551 30.9745Z" fill="#C9CDE3"/>
<path d="M33.2611 28.484C33.1336 28.4841 33.0088 28.4471 32.902 28.3774C32.7952 28.3077 32.7111 28.2085 32.6598 28.0918C32.4011 27.51 32.38 26.8502 32.6009 26.2531C32.7084 25.9579 32.8747 25.6874 33.0896 25.4582C33.3045 25.2289 33.5637 25.0456 33.8514 24.9192C34.1391 24.7928 34.4494 24.726 34.7636 24.7228C35.0778 24.7196 35.3895 24.7801 35.6797 24.9006C36.2688 25.1419 36.7403 25.6038 36.9936 26.1878C37.0296 26.2669 37.0494 26.3523 37.0521 26.4392C37.0547 26.526 37.0401 26.6125 37.0091 26.6936C36.9781 26.7748 36.9312 26.8489 36.8713 26.9118C36.8114 26.9747 36.7396 27.0251 36.6601 27.06C36.5805 27.095 36.4948 27.1138 36.408 27.1153C36.3211 27.1169 36.2348 27.1012 36.1541 27.0692C36.0733 27.0371 35.9998 26.9894 35.9376 26.9287C35.8755 26.868 35.826 26.7956 35.7921 26.7156C35.675 26.4437 35.4564 26.2283 35.1827 26.1155C35.0555 26.0616 34.9186 26.0344 34.7804 26.0353C34.6422 26.0363 34.5057 26.0654 34.3792 26.121C34.2527 26.1766 34.1389 26.2574 34.0448 26.3585C33.9506 26.4596 33.8781 26.5789 33.8317 26.709C33.7297 26.9869 33.7404 27.2936 33.8615 27.5636C33.9054 27.6635 33.9238 27.7727 33.9148 27.8815C33.9059 27.9902 33.87 28.095 33.8104 28.1864C33.7508 28.2777 33.6694 28.3528 33.5734 28.4048C33.4775 28.4567 33.3702 28.484 33.2611 28.484Z" fill="#C9CDE3"/>
<path d="M37.7958 30.3004C37.6683 30.3004 37.5436 30.2633 37.4368 30.1936C37.3301 30.1239 37.2459 30.0247 37.1947 29.9079L35.7923 26.7158C35.7238 26.5567 35.7209 26.377 35.7844 26.2158C35.8479 26.0546 35.9725 25.9251 36.131 25.8554C36.2896 25.7857 36.4693 25.7816 36.6309 25.8439C36.7926 25.9061 36.923 26.0298 36.9939 26.1878L38.3963 29.38C38.4402 29.4799 38.4585 29.5891 38.4496 29.6978C38.4407 29.8065 38.4048 29.9113 38.3452 30.0027C38.2855 30.0941 38.2041 30.1691 38.1082 30.2211C38.0123 30.2731 37.9049 30.3003 37.7958 30.3004Z" fill="#C9CDE3"/>
<path d="M36.9864 28.4578C36.8589 28.4578 36.7341 28.4207 36.6274 28.351C36.5206 28.2814 36.4365 28.1821 36.3852 28.0653C36.2504 27.7793 36.1742 27.4691 36.1612 27.1531C36.1482 26.8371 36.1986 26.5218 36.3095 26.2256C36.4204 25.9294 36.5895 25.6585 36.8068 25.4287C37.0241 25.199 37.2853 25.0151 37.5749 24.8879C37.8644 24.7608 38.1765 24.6929 38.4927 24.6884C38.809 24.6839 39.1229 24.7427 39.416 24.8615C39.7091 24.9803 39.9754 25.1566 40.1993 25.38C40.4231 25.6034 40.5999 25.8694 40.7193 26.1622C40.7893 26.3216 40.7932 26.5022 40.73 26.6644C40.6668 26.8267 40.5418 26.9571 40.3825 27.0272C40.2231 27.0972 40.0424 27.101 39.8802 27.0379C39.718 26.9747 39.5875 26.8497 39.5175 26.6903C39.467 26.5561 39.3897 26.4335 39.2902 26.3301C39.1907 26.2267 39.0712 26.1446 38.939 26.089C38.8068 26.0333 38.6646 26.0051 38.5211 26.0062C38.3777 26.0073 38.2359 26.0377 38.1046 26.0953C37.9732 26.153 37.855 26.2369 37.7571 26.3418C37.6593 26.4467 37.5838 26.5705 37.5353 26.7055C37.4869 26.8406 37.4665 26.984 37.4753 27.1272C37.4842 27.2704 37.5221 27.4103 37.5868 27.5384C37.6307 27.6382 37.649 27.7475 37.64 27.8562C37.6311 27.9649 37.5952 28.0696 37.5356 28.161C37.476 28.2523 37.3946 28.3274 37.2987 28.3793C37.2028 28.4313 37.0954 28.4585 36.9864 28.4586V28.4578Z" fill="#C9CDE3"/>
<path d="M44.7658 41.2058C44.6383 41.2059 44.5135 41.1688 44.4068 41.0991C44.3 41.0294 44.2158 40.9301 44.1645 40.8133L43.5322 39.3737C43.49 39.2775 43.4714 39.1726 43.4781 39.0677L43.6663 36.1348L39.5173 26.6899C39.4473 26.5305 39.4435 26.3499 39.5067 26.1877C39.5699 26.0255 39.6949 25.8951 39.8543 25.8251C40.0137 25.7551 40.1943 25.7513 40.3565 25.8145C40.5186 25.8777 40.6491 26.0027 40.7191 26.1621L44.9324 35.7536C44.9747 35.8499 44.9932 35.9549 44.9865 36.0598L44.7983 38.9927L45.3663 40.2859C45.4102 40.3857 45.4285 40.495 45.4196 40.6037C45.4107 40.7124 45.3748 40.8172 45.3152 40.9086C45.2556 41 45.1741 41.075 45.0782 41.127C44.9823 41.179 44.8749 41.2062 44.7658 41.2063V41.2058Z" fill="#C9CDE3"/>
</g>
<defs>
<clipPath id="clip0_27_454">
<rect width="42" height="42" fill="white" transform="translate(4 4)"/>
</clipPath>
</defs>
</svg>
