<svg width="50" height="50" viewBox="0 0 50 50" fill="none" xmlns="http://www.w3.org/2000/svg">
<path d="M40.2055 29.2747L30.7954 24.8325C30.6935 24.7841 30.5812 24.7617 30.4686 24.7671C30.3559 24.7726 30.2463 24.8057 30.1495 24.8637C30.1495 24.864 25.6459 27.5523 20.777 30.4446C20.6746 30.5098 20.591 30.6007 20.5345 30.7081C20.4779 30.8156 20.4503 30.9359 20.4545 31.0572C20.4587 31.1786 20.4944 31.2968 20.5582 31.4001C20.6221 31.5034 20.7117 31.5883 20.8183 31.6463L36.9063 39.7899C37.0686 39.869 37.2555 39.8811 37.4267 39.8235C37.5978 39.7659 37.7394 39.6433 37.8209 39.4822C37.9024 39.3211 37.9172 39.1344 37.8621 38.9624C37.8071 38.7905 37.6866 38.6471 37.5266 38.5632L22.5578 30.9859C26.2443 28.7942 29.5339 26.8325 30.5396 26.2323L39.6188 30.5181C39.7831 30.5924 39.9701 30.5991 40.1394 30.5368C40.3087 30.4745 40.4467 30.3481 40.5237 30.185C40.6007 30.0218 40.6105 29.835 40.5509 29.6647C40.4914 29.4944 40.3673 29.3543 40.2055 29.2747Z" fill="#C9CDE3"/>
<path d="M44.1522 17.2459C44.0584 17.0897 43.9065 16.9771 43.7298 16.9328C43.5531 16.8885 43.366 16.9161 43.2096 17.0095L34.1661 22.4303C34.0617 22.4946 33.9762 22.5855 33.9185 22.6937C33.8607 22.8019 33.8328 22.9235 33.8374 23.046C33.8421 23.1686 33.8792 23.2877 33.9449 23.3912C34.0107 23.4947 34.1028 23.5788 34.2118 23.6351L41.9333 27.4955C42.0141 27.5361 42.1021 27.5604 42.1922 27.5669C42.2824 27.5734 42.373 27.5621 42.4588 27.5336C42.5446 27.5051 42.6239 27.46 42.6922 27.4008C42.7605 27.3416 42.8165 27.2695 42.8569 27.1886C42.8974 27.1077 42.9215 27.0197 42.9278 26.9295C42.9342 26.8394 42.9227 26.7488 42.894 26.6631C42.8654 26.5773 42.8201 26.4981 42.7607 26.4299C42.7014 26.3617 42.6292 26.3058 42.5483 26.2655L35.9473 22.9654L43.9159 18.1892C43.9934 18.1428 44.061 18.0816 44.1148 18.0091C44.1687 17.9366 44.2077 17.8541 44.2296 17.7665C44.2516 17.6789 44.2561 17.5878 44.2428 17.4985C44.2295 17.4092 44.1987 17.3233 44.1522 17.2459Z" fill="#C9CDE3"/>
<path d="M35.0935 41.3727L17.3029 32.8619C17.162 32.8074 17.0087 32.7932 16.8601 32.821C13.2952 34.7922 9.31277 37.2845 8.98208 37.4057C8.83725 37.4682 8.71821 37.5785 8.64478 37.7181C8.57134 37.8577 8.54795 38.0183 8.57849 38.173C8.60904 38.3278 8.69167 38.4674 8.81264 38.5686C8.93361 38.6699 9.08561 38.7266 9.24333 38.7294C9.49091 38.7294 9.49883 38.7264 17.0425 34.2613L34.5 42.6127C34.6639 42.6874 34.8505 42.6948 35.0198 42.6333C35.1891 42.5718 35.3275 42.4464 35.4052 42.2839C35.483 42.1215 35.4939 41.935 35.4356 41.7646C35.3773 41.5942 35.2545 41.4535 35.0935 41.3727Z" fill="#C9CDE3"/>
<path d="M23.1947 15.6665C23.1932 14.3535 22.6709 13.0947 21.7425 12.1664C20.814 11.238 19.5553 10.7158 18.2423 10.7143C11.6774 10.9743 11.6793 20.3596 18.2423 20.6186C19.5553 20.6171 20.8141 20.0949 21.7425 19.1665C22.6709 18.2382 23.1932 16.9794 23.1947 15.6665ZM14.6652 15.6665C14.6652 14.959 14.875 14.2674 15.268 13.6791C15.6611 13.0908 16.2197 12.6324 16.8734 12.3616C17.527 12.0909 18.2463 12.02 18.9402 12.1581C19.6341 12.2961 20.2714 12.6368 20.7717 13.137C21.272 13.6373 21.6127 14.2747 21.7507 14.9686C21.8887 15.6625 21.8179 16.3817 21.5471 17.0354C21.2764 17.689 20.8179 18.2477 20.2296 18.6407C19.6413 19.0338 18.9497 19.2436 18.2422 19.2436C17.2939 19.2425 16.3846 18.8653 15.714 18.1947C15.0434 17.5241 14.6662 16.6148 14.6652 15.6665Z" fill="#C9CDE3"/>
<path d="M18.2419 30.7514C18.7585 30.7522 19.2634 30.5973 19.6905 30.3068C20.1177 30.0163 20.4473 29.6037 20.6364 29.1229C20.6364 29.1229 21.1921 27.7227 21.3508 27.3556L32.0153 20.964C32.1172 20.9001 32.2008 20.8107 32.258 20.7048C32.3151 20.5989 32.3438 20.4799 32.3412 20.3596C32.3387 20.2393 32.3049 20.1216 32.2434 20.0182C32.1818 19.9148 32.0944 19.8292 31.9898 19.7696L26.5348 16.8152C26.6591 15.934 26.637 15.0384 26.4694 14.1645L35.3239 18.5564C35.4243 18.6061 35.5353 18.6306 35.6473 18.6277C35.7592 18.6247 35.8688 18.5945 35.9664 18.5396L40.9373 15.7414C41.0902 15.6489 41.2011 15.5006 41.2467 15.3278C41.2921 15.155 41.2686 14.9713 41.181 14.8155C41.0934 14.6598 40.9487 14.5442 40.7774 14.4933C40.6061 14.4424 40.4217 14.4602 40.2633 14.5429L35.6093 17.1629L25.9288 12.3611C23.7097 6.87856 16.0222 5.52002 12.0897 10.0001C11.9674 10.1349 11.9035 10.3127 11.9121 10.4945C11.9206 10.6764 12.001 10.8474 12.1355 10.97C12.27 11.0927 12.4477 11.157 12.6295 11.1488C12.8114 11.1407 12.9825 11.0607 13.1055 10.9265C14.2935 9.63562 15.9235 8.83861 17.6718 8.69364C19.4201 8.54868 21.1591 9.06635 22.5435 10.1439C23.9279 11.2215 24.8565 12.7802 25.1451 14.5106C25.4337 16.2411 25.0611 18.0168 24.1013 19.4853C22.352 22.4397 20.7681 25.489 19.3571 28.6191C19.2659 28.8392 19.1116 29.0274 18.9136 29.1599C18.7157 29.2925 18.4829 29.3635 18.2446 29.364C18.0064 29.3645 17.7733 29.2944 17.5748 29.1627C17.3763 29.031 17.2212 28.8434 17.1291 28.6237C15.829 25.3969 14.2179 22.3043 12.3187 19.3896C11.7305 18.4526 11.372 17.3899 11.2722 16.2881C11.1723 15.1863 11.3341 14.0765 11.7443 13.0491C11.8119 12.8797 11.8095 12.6905 11.7376 12.5229C11.6658 12.3553 11.5303 12.2231 11.3609 12.1555C10.2068 11.7909 10.127 13.8156 9.94289 14.5381C9.6688 16.486 10.0996 18.4678 11.1575 20.1261C12.976 22.919 14.5248 25.8785 15.783 28.9646L6.08789 34.6968C5.93183 34.79 5.81904 34.9412 5.77419 35.1174C5.72934 35.2935 5.75608 35.4803 5.84857 35.6368C5.94105 35.7932 6.09176 35.9067 6.26771 35.9524C6.44366 35.9981 6.63053 35.9722 6.78744 35.8804L16.5455 30.111C17.0139 30.5242 17.6173 30.752 18.2419 30.7514ZM25.2511 20.2389C25.664 19.6087 25.989 18.925 26.217 18.207L30.2744 20.4044L22.4051 25.1205C23.2647 23.443 24.2148 21.8134 25.2511 20.2389Z" fill="#C9CDE3"/>
</svg>
