<svg width="50" height="50" viewBox="0 0 50 50" fill="none" xmlns="http://www.w3.org/2000/svg">
<path d="M40.9256 19.4727L37.4682 17.3118V15.0987C37.4682 14.1697 36.7125 13.4138 35.7833 13.4138H31.2318L25.8932 10.0771C25.3507 9.73797 24.6496 9.73797 24.1071 10.0771L18.7684 13.4138H14.2169C13.2878 13.4138 12.532 14.1696 12.532 15.0987V17.3118L9.07458 19.4727C8.8815 19.5951 8.75683 19.8151 8.75782 20.0445V38.4946V38.4949C8.75817 39.3043 9.40554 40.1791 10.4426 40.1791H39.5573C40.4853 40.1791 41.2422 39.4282 41.2422 38.4942V20.0442C41.2423 20.0123 41.2333 19.6684 40.9256 19.4727ZM14.217 14.7618H35.7833C35.9691 14.7618 36.1203 14.913 36.1203 15.0988V22.0296L31.9642 24.6271H18.0357L13.88 22.0299V15.0988C13.8799 14.913 14.0312 14.7618 14.217 14.7618ZM24.8216 11.2201C24.93 11.1523 25.0702 11.1522 25.1787 11.2201L28.6886 13.4138H21.3116L24.8216 11.2201ZM39.8944 38.1513L27.6589 28.9073L39.8944 21.2602V38.1513ZM26.5072 28.0376L26.0162 27.6667C25.4179 27.2138 24.5824 27.2137 23.9848 27.6662L23.493 28.0377L20.1924 25.9749H29.8075L26.5072 28.0376ZM37.4682 21.187V18.9012L39.2968 20.0441L37.4682 21.187ZM12.5321 21.187L10.7035 20.0442L12.5321 18.9012L12.5321 21.187ZM15.0014 35.2975C14.9277 35.2 14.8326 35.1288 14.7278 35.0842C14.513 34.9929 14.2569 35.0152 14.0574 35.1661L10.1058 38.1516V21.2606L22.3413 28.9076L18.0909 32.1191C17.8075 32.3333 17.7416 32.7277 17.9311 33.0214C17.9402 33.0355 17.9492 33.0496 17.9595 33.0632C18.184 33.3602 18.6066 33.419 18.9035 33.1946L24.7976 28.7415C24.9168 28.6513 25.0834 28.6511 25.2031 28.7419L38.5579 38.8313H11.4423L14.8699 36.2416C15.1669 36.0171 15.2257 35.5944 15.0014 35.2975Z" fill="#C9CDE3"/>
<path d="M33.256 21.2573H16.7443C16.372 21.2573 16.0703 21.559 16.0703 21.9312C16.0703 22.3034 16.372 22.6052 16.7443 22.6052H33.256C33.6282 22.6052 33.93 22.3034 33.93 21.9312C33.93 21.559 33.6282 21.2573 33.256 21.2573Z" fill="#C9CDE3"/>
<path d="M16.0703 18.5615C16.0703 18.9338 16.372 19.2355 16.7443 19.2355H25.0001C25.3723 19.2355 25.6741 18.9338 25.6741 18.5615C25.6741 18.1893 25.3723 17.8876 25.0001 17.8876H16.7443C16.372 17.8876 16.0703 18.1893 16.0703 18.5615Z" fill="#C9CDE3"/>
<path d="M16.4812 33.506C16.109 33.506 15.8076 33.8078 15.8076 34.18C15.8076 34.2464 15.8176 34.3103 15.8355 34.371C15.918 34.6501 16.1761 34.8539 16.4819 34.8539C16.8541 34.8539 17.1559 34.5522 17.1559 34.18C17.1559 33.9765 17.0652 33.7945 16.9226 33.6709C16.8044 33.5684 16.6506 33.506 16.4819 33.506H16.4812Z" fill="#C9CDE3"/>
</svg>
