<svg width="615" height="713" viewBox="0 0 615 713" fill="none" xmlns="http://www.w3.org/2000/svg">
<g opacity="0.5">
<mask id="path-1-inside-1" fill="white">
<path fill-rule="evenodd" clip-rule="evenodd" d="M0 -2.64392C0 -174.448 137.845 -313 307.5 -313C477.155 -313 615 -174.448 615 -3.33649C615 44.4639 604.397 89.4929 585.31 129.673C559.155 185.094 516.741 231.509 465.138 262.683C419.19 290.393 365.466 307.02 307.5 307.02C249.534 307.02 195.81 290.393 149.862 262.683V263.376C97.5518 232.202 55.8449 185.787 29.6897 130.366C10.6035 90.1859 0 45.1565 0 -2.64392ZM307.5 176.781C348.5 176.781 385.259 158.769 413.534 129.673C445.345 96.4205 465.138 49.313 465.138 -4.02951C465.138 -103.094 394.448 -183.454 307.5 -183.454C220.552 -183.454 149.862 -103.094 149.862 -4.02951V-3.33649C149.862 49.3132 169.655 97.1133 201.466 129.673C229.741 158.769 266.5 176.781 307.5 176.781ZM309.619 581.352C382.429 581.352 443.222 525.932 462.308 450.421H614.998C590.963 599.364 463.722 712.977 309.619 712.977C155.515 712.977 28.2738 599.364 4.23931 450.421H156.929C176.015 525.932 237.515 581.352 309.619 581.352Z"/>
</mask>
<path d="M585.31 129.673L584.407 129.244L584.406 129.246L585.31 129.673ZM465.138 262.683L465.654 263.539L465.655 263.539L465.138 262.683ZM149.862 262.683L150.379 261.826L148.862 260.912V262.683H149.862ZM149.862 263.376L149.35 264.235L150.862 265.136V263.376H149.862ZM29.6897 130.366L30.5941 129.939L30.593 129.937L29.6897 130.366ZM413.534 129.673L414.252 130.37L414.257 130.364L413.534 129.673ZM201.466 129.673L202.183 128.976L202.181 128.974L201.466 129.673ZM462.308 450.421V449.421H461.53L461.339 450.176L462.308 450.421ZM614.998 450.421L615.985 450.58L616.172 449.421H614.998V450.421ZM4.23931 450.421V449.421H3.06501L3.25208 450.58L4.23931 450.421ZM156.929 450.421L157.899 450.176L157.708 449.421H156.929V450.421ZM307.5 -314C137.285 -314 -1 -174.993 -1 -2.64392H1C1 -173.903 138.405 -312 307.5 -312V-314ZM616 -3.33649C616 -174.994 477.714 -314 307.5 -314V-312C476.597 -312 614 -173.902 614 -3.33649H616ZM586.214 130.102C605.363 89.7889 616 44.6135 616 -3.33649H614C614 44.3143 603.43 89.1969 584.407 129.244L586.214 130.102ZM465.655 263.539C517.425 232.264 559.974 185.701 586.215 130.1L584.406 129.246C558.336 184.486 516.058 230.753 464.621 261.827L465.655 263.539ZM307.5 308.02C365.66 308.02 419.562 291.337 465.654 263.539L464.622 261.826C418.818 289.45 365.271 306.02 307.5 306.02V308.02ZM149.346 263.539C195.438 291.337 249.34 308.02 307.5 308.02V306.02C249.729 306.02 196.182 289.45 150.379 261.826L149.346 263.539ZM150.862 263.376V262.683H148.862V263.376H150.862ZM28.7854 130.793C55.0236 186.389 96.8653 232.957 149.35 264.235L150.374 262.517C98.2383 231.447 56.6662 185.184 30.5941 129.939L28.7854 130.793ZM-1 -2.64392C-1 45.3061 9.63707 90.4819 28.7865 130.795L30.593 129.937C11.57 89.8899 1 45.0069 1 -2.64392H-1ZM412.817 128.976C384.701 157.908 348.191 175.781 307.5 175.781V177.781C348.809 177.781 385.817 159.629 414.252 130.37L412.817 128.976ZM464.138 -4.02951C464.138 49.0634 444.439 95.9211 412.812 128.982L414.257 130.364C446.251 96.92 466.138 49.5625 466.138 -4.02951H464.138ZM307.5 -182.454C393.779 -182.454 464.138 -102.667 464.138 -4.02951H466.138C466.138 -103.521 395.118 -184.454 307.5 -184.454V-182.454ZM150.862 -4.02951C150.862 -102.667 221.221 -182.454 307.5 -182.454V-184.454C219.882 -184.454 148.862 -103.521 148.862 -4.02951H150.862ZM150.862 -3.33649V-4.02951H148.862V-3.33649H150.862ZM202.181 128.974C170.564 96.6122 150.862 49.0678 150.862 -3.33649H148.862C148.862 49.5586 168.747 97.6143 200.75 130.372L202.181 128.974ZM307.5 175.781C266.809 175.781 230.299 157.908 202.183 128.976L200.748 130.37C229.183 159.629 266.191 177.781 307.5 177.781V175.781ZM461.339 450.176C442.341 525.338 381.88 580.352 309.619 580.352V582.352C382.978 582.352 444.103 526.526 463.278 450.666L461.339 450.176ZM614.998 449.421H462.308V451.421H614.998V449.421ZM309.619 713.977C464.231 713.977 591.875 599.99 615.985 450.58L614.011 450.262C590.051 598.739 463.213 711.977 309.619 711.977V713.977ZM3.25208 450.58C27.3619 599.99 155.006 713.977 309.619 713.977V711.977C156.024 711.977 29.1857 598.739 5.22654 450.262L3.25208 450.58ZM156.929 449.421H4.23931V451.421H156.929V449.421ZM309.619 580.352C238.062 580.352 176.896 525.335 157.899 450.176L155.959 450.666C175.135 526.529 236.969 582.352 309.619 582.352V580.352Z" fill="#BDE3FE" mask="url(#path-1-inside-1)"/>
</g>
</svg>
