<svg width="46" height="46" viewBox="0 0 46 46" fill="none" xmlns="http://www.w3.org/2000/svg">
<rect width="46" height="46" fill="white"/>
<circle r="22.5" transform="matrix(-1 0 0 1 23 23)" fill="white" stroke="#BDE3FE"/>
<path d="M29.0665 17.8C29.5451 17.8 29.9331 17.412 29.9331 16.9334C29.9331 16.4548 29.5451 16.0668 29.0665 16.0668C28.5879 16.0668 28.2 16.4548 28.2 16.9334C28.2 17.412 28.5879 17.8 29.0665 17.8Z" fill="#1F40E5"/>
<path d="M26.0333 17.8C26.5119 17.8 26.8999 17.412 26.8999 16.9334C26.8999 16.4548 26.5119 16.0668 26.0333 16.0668C25.5547 16.0668 25.1667 16.4548 25.1667 16.9334C25.1667 17.412 25.5547 17.8 26.0333 17.8Z" fill="#1F40E5"/>
<path d="M23.0001 17.8C23.4787 17.8 23.8667 17.412 23.8667 16.9334C23.8667 16.4548 23.4787 16.0668 23.0001 16.0668C22.5215 16.0668 22.1335 16.4548 22.1335 16.9334C22.1335 17.412 22.5215 17.8 23.0001 17.8Z" fill="#1F40E5"/>
<path d="M31.6667 12.6H14.3335C13.3804 12.6 12.6001 13.3802 12.6001 14.3334V20.4C12.6001 21.3537 13.3804 22.1334 14.3335 22.1334H31.6667C32.6198 22.1334 33.4001 21.3537 33.4001 20.4V14.3334C33.4001 13.3802 32.6198 12.6 31.6667 12.6ZM31.6667 20.4H20.8335V16.0666H19.1001V20.4H17.8001V16.0666H16.0667V20.4H14.3335V14.3334H31.6667V20.4Z" fill="#1F40E5"/>
<path d="M29.0665 29.0666C29.5451 29.0666 29.9331 28.6786 29.9331 28.2C29.9331 27.7214 29.5451 27.3334 29.0665 27.3334C28.5879 27.3334 28.2 27.7214 28.2 28.2C28.2 28.6786 28.5879 29.0666 29.0665 29.0666Z" fill="#1F40E5"/>
<path d="M26.0333 29.0666C26.5119 29.0666 26.8999 28.6786 26.8999 28.2C26.8999 27.7214 26.5119 27.3334 26.0333 27.3334C25.5547 27.3334 25.1667 27.7214 25.1667 28.2C25.1667 28.6786 25.5547 29.0666 26.0333 29.0666Z" fill="#1F40E5"/>
<path d="M23.0001 29.0666C23.4787 29.0666 23.8667 28.6786 23.8667 28.2C23.8667 27.7214 23.4787 27.3334 23.0001 27.3334C22.5215 27.3334 22.1335 27.7214 22.1335 28.2C22.1335 28.6786 22.5215 29.0666 23.0001 29.0666Z" fill="#1F40E5"/>
<path d="M31.6667 23.8666H14.3335C13.3804 23.8666 12.6001 24.6468 12.6001 25.6V31.6666C12.6001 32.6197 13.3804 33.4 14.3335 33.4H31.6667C32.6198 33.4 33.4001 32.6197 33.4001 31.6666V25.6C33.4001 24.6468 32.6198 23.8666 31.6667 23.8666ZM31.6667 31.6666H20.8335V27.3332H19.1001V31.6666H17.8001V27.3332H16.0667V31.6666H14.3335V25.6H31.6667V31.6666Z" fill="#1F40E5"/>
</svg>
