<svg width="46" height="46" viewBox="0 0 46 46" fill="none" xmlns="http://www.w3.org/2000/svg">
<rect width="46" height="46" fill="white"/>
<circle r="22.5" transform="matrix(-1 0 0 1 23 23)" fill="white" stroke="#BDE3FE"/>
<path d="M31.6667 13.4666H14.3335C13.3804 13.4666 12.6001 14.2468 12.6001 15.2V30.8C12.6001 31.7529 13.3804 32.5334 14.3335 32.5334H31.6667C32.6198 32.5334 33.4001 31.7529 33.4001 30.8V15.2C33.4001 14.2468 32.6198 13.4666 31.6667 13.4666ZM19.5335 30.8H14.3335V15.2H19.5335V30.8ZM31.6667 30.8H21.2667V15.2H31.6667V30.8Z" fill="#1F40E5"/>
<path d="M17.8001 16.9332H16.0667V18.6666H17.8001V16.9332Z" fill="#1F40E5"/>
<path d="M17.8001 20.4H16.0667V22.1332H17.8001V20.4Z" fill="#1F40E5"/>
<path d="M17.8001 23.8666H16.0667V25.6H17.8001V23.8666Z" fill="#1F40E5"/>
<path d="M17.8001 27.3334H16.0667V29.0666H17.8001V27.3334Z" fill="#1F40E5"/>
<path d="M28.2 16.9332H23V18.6666H28.2V16.9332Z" fill="#1F40E5"/>
<path d="M29.9334 20.4H24.7334V22.1332H29.9334V20.4Z" fill="#1F40E5"/>
<path d="M29.9334 23.8666H26.4666V25.6H29.9334V23.8666Z" fill="#1F40E5"/>
<path d="M28.2 27.3334H23V29.0666H28.2V27.3334Z" fill="#1F40E5"/>
</svg>
