<svg width="46" height="46" viewBox="0 0 46 46" fill="none" xmlns="http://www.w3.org/2000/svg">
<circle r="22.5" transform="matrix(-1 0 0 1 23 23)" fill="white" stroke="#BDE3FE"/>
<path d="M32.1666 9.79004H13.8334C12.8253 9.79004 12 10.7048 12 11.8222V28.0788C12 29.1959 12.8253 30.111 13.8334 30.111H22.0834V32.1429H19.3334C18.3209 32.1429 17.5 33.0527 17.5 34.175L28.5 34.1741C28.5 33.0518 27.6791 32.1419 26.6666 32.1419H23.9166V30.111H32.1666C33.1747 30.111 34 29.1959 34 28.0788V11.8222C34 10.7048 33.1747 9.79004 32.1666 9.79004ZM32.1666 28.0788H13.8334V11.8222H32.1666V28.0788Z" fill="#1F40E5"/>
<path d="M28.5 20.9665V18.9343H26.5368C26.4507 18.5652 26.3184 18.219 26.1482 17.8986L27.5378 16.3588L26.2406 14.9222L24.851 16.4612C24.562 16.2716 24.2493 16.1259 23.9166 16.0305V13.8545H22.0834V16.0305C21.7504 16.1259 21.4369 16.2716 21.149 16.4612L19.7594 14.9222L18.4633 16.3588L19.8518 17.8986C19.6807 18.2181 19.549 18.5652 19.4632 18.9343H17.5V20.9665H19.4632C19.5493 21.3356 19.6807 21.6818 19.8518 22.0022L18.4633 23.5421L19.7594 24.9798L21.149 23.4396C21.438 23.6295 21.7507 23.7755 22.0834 23.8706V26.0466H23.9166V23.8706C24.2496 23.7752 24.5623 23.6295 24.851 23.4396L26.2406 24.9798L27.5378 23.5421L26.1482 22.0022C26.3193 21.6818 26.451 21.3353 26.5368 20.9665H28.5ZM23 21.9824C21.9875 21.9824 21.1666 21.0725 21.1666 19.9503C21.1666 18.828 21.9875 17.9181 23 17.9181C24.0126 17.9181 24.8334 18.828 24.8334 19.9503C24.8334 21.0725 24.0126 21.9824 23 21.9824Z" fill="#1F40E5"/>
</svg>
