<svg width="46" height="46" viewBox="0 0 46 46" fill="none" xmlns="http://www.w3.org/2000/svg">
<rect width="46" height="46" fill="white"/>
<circle r="22.5" transform="matrix(-1 0 0 1 23 23)" fill="white" stroke="#BDE3FE"/>
<path d="M28.1999 23.0938H23.8665V24.8272H28.1999V23.0938Z" fill="#1F40E5"/>
<path d="M22.1333 23.0938H20.3999V24.8272H22.1333V23.0938Z" fill="#1F40E5"/>
<path d="M33.4001 26.5603H31.6667V12.6937H14.3335V26.5603H12.6001V28.2937H18.2335L16.9335 33.4937H18.72L19.1534 31.7603H26.8468L27.2802 33.4937H29.0667L27.7667 28.2937H33.4001V26.5603ZM29.2157 14.4269L24.7335 18.9093L22.1335 16.3093L16.0667 22.3759V14.4269H29.2157ZM19.5868 30.0271L20.02 28.2937H25.9802L26.4134 30.0271H19.5868ZM16.0667 26.5603V24.8271L22.1335 18.7603L24.7335 21.3603L29.9335 16.1603V26.5603H16.0667Z" fill="#1F40E5"/>
</svg>
