<svg width="48" height="48" viewBox="0 0 48 48" fill="none" xmlns="http://www.w3.org/2000/svg">
<path d="M9.5999 35.2009H38.3999V38.4011H9.5999V35.2009Z" fill="#1F40E5"/>
<path d="M25.5997 30.4006V11.1987C25.5997 10.3194 26.3202 9.59888 27.2 9.59888H33.5999C34.4797 9.59888 35.1997 10.3194 35.1997 11.1987V30.4006C35.1997 31.28 34.4797 32.0005 33.5999 32.0005H27.2C26.3202 32.0005 25.5997 31.28 25.5997 30.4006ZM32 28.8003V12.799H28.7999V28.8003H32Z" fill="#1F40E5"/>
<path opacity="0.3" d="M20.7998 32.0005C21.6797 32.0005 22.4001 31.2801 22.4001 30.4007V17.5991C22.4001 16.7193 21.6797 15.9988 20.7998 15.9988H14.4C13.5201 15.9988 12.8001 16.7193 12.8001 17.5991V30.4007C12.8001 31.2801 13.5201 32.0005 14.4 32.0005H20.7998Z" fill="#1F40E5"/>
</svg>
