<svg width="1920" height="218" viewBox="0 0 1920 218" fill="none" xmlns="http://www.w3.org/2000/svg">
<path d="M184.71 40.76H116.39V214H67.59V40.76H-0.425V0.499985H184.71V40.76ZM354.91 132.565C354.91 133.175 354.605 137.445 353.995 145.375H229.86C232.096 155.542 237.383 163.573 245.72 169.47C254.056 175.367 264.426 178.315 276.83 178.315C285.37 178.315 292.893 177.095 299.4 174.655C306.11 172.012 312.311 167.945 318.005 162.455L343.32 189.905C327.866 207.595 305.296 216.44 275.61 216.44C257.106 216.44 240.738 212.882 226.505 205.765C212.271 198.445 201.291 188.38 193.565 175.57C185.838 162.76 181.975 148.222 181.975 131.955C181.975 115.892 185.736 101.455 193.26 88.645C200.986 75.6317 211.458 65.5667 224.675 58.45C238.095 51.13 253.04 47.47 269.51 47.47C285.573 47.47 300.111 50.9267 313.125 57.84C326.138 64.7533 336.305 74.7167 343.625 87.73C351.148 100.54 354.91 115.485 354.91 132.565ZM269.815 83.46C259.038 83.46 249.99 86.51 242.67 92.61C235.35 98.71 230.876 107.047 229.25 117.62H310.075C308.448 107.25 303.975 99.015 296.655 92.915C289.335 86.6117 280.388 83.46 269.815 83.46ZM490.003 214L454.013 163.675L416.803 214H364.953L428.088 131.345L367.088 49.91H420.463L455.233 97.795L490.918 49.91H541.548L480.548 130.125L543.988 214H490.003ZM567.411 49.91H614.686V113.96H686.056V49.91H733.636V214H686.056V152.695H614.686V214H567.411V49.91ZM856.044 216.44C838.76 216.44 823.205 212.882 809.379 205.765C795.755 198.445 785.08 188.38 777.354 175.57C769.627 162.76 765.764 148.222 765.764 131.955C765.764 115.688 769.627 101.15 777.354 88.34C785.08 75.53 795.755 65.5667 809.379 58.45C823.205 51.13 838.76 47.47 856.044 47.47C873.327 47.47 888.78 51.13 902.404 58.45C916.027 65.5667 926.702 75.53 934.429 88.34C942.155 101.15 946.019 115.688 946.019 131.955C946.019 148.222 942.155 162.76 934.429 175.57C926.702 188.38 916.027 198.445 902.404 205.765C888.78 212.882 873.327 216.44 856.044 216.44ZM856.044 177.4C868.244 177.4 878.207 173.333 885.934 165.2C893.864 156.863 897.829 145.782 897.829 131.955C897.829 118.128 893.864 107.148 885.934 99.015C878.207 90.6783 868.244 86.51 856.044 86.51C843.844 86.51 833.779 90.6783 825.849 99.015C817.919 107.148 813.954 118.128 813.954 131.955C813.954 145.782 817.919 156.863 825.849 165.2C833.779 173.333 843.844 177.4 856.044 177.4ZM1133.74 49.91V214H1086.16V88.95H1034.31L1032.79 117.925C1031.97 139.478 1029.94 157.372 1026.69 171.605C1023.43 185.838 1018.15 197.022 1010.83 205.155C1003.51 213.288 993.34 217.355 980.326 217.355C973.413 217.355 965.178 216.135 955.621 213.695L958.061 174.655C961.315 175.062 963.653 175.265 965.076 175.265C972.193 175.265 977.48 172.723 980.936 167.64C984.596 162.353 987.036 155.745 988.256 147.815C989.476 139.682 990.391 129.007 991.001 115.79L993.441 49.91H1133.74ZM1256.36 216.44C1239.07 216.44 1223.52 212.882 1209.69 205.765C1196.07 198.445 1185.39 188.38 1177.67 175.57C1169.94 162.76 1166.08 148.222 1166.08 131.955C1166.08 115.688 1169.94 101.15 1177.67 88.34C1185.39 75.53 1196.07 65.5667 1209.69 58.45C1223.52 51.13 1239.07 47.47 1256.36 47.47C1273.64 47.47 1289.09 51.13 1302.72 58.45C1316.34 65.5667 1327.01 75.53 1334.74 88.34C1342.47 101.15 1346.33 115.688 1346.33 131.955C1346.33 148.222 1342.47 162.76 1334.74 175.57C1327.01 188.38 1316.34 198.445 1302.72 205.765C1289.09 212.882 1273.64 216.44 1256.36 216.44ZM1256.36 177.4C1268.56 177.4 1278.52 173.333 1286.25 165.2C1294.18 156.863 1298.14 145.782 1298.14 131.955C1298.14 118.128 1294.18 107.148 1286.25 99.015C1278.52 90.6783 1268.56 86.51 1256.36 86.51C1244.16 86.51 1234.09 90.6783 1226.16 99.015C1218.23 107.148 1214.27 118.128 1214.27 131.955C1214.27 145.782 1218.23 156.863 1226.16 165.2C1234.09 173.333 1244.16 177.4 1256.36 177.4ZM1510.51 88.95H1426.33V214H1379.06V49.91H1510.51V88.95ZM1535.73 49.91H1583V147.51L1662.91 49.91H1706.53V214H1659.25V116.4L1579.65 214H1535.73V49.91ZM1752.26 49.91H1799.54V147.51L1879.45 49.91H1923.06V214H1875.79V116.4L1796.18 214H1752.26V49.91Z" fill="#ECF7FF"/>
</svg>
