<svg width="48" height="49" viewBox="0 0 48 49" fill="none" xmlns="http://www.w3.org/2000/svg">
<path fill-rule="evenodd" clip-rule="evenodd" d="M24.384 14.0068H18.0002V28.1118H15.8092C15.6199 28.1118 15.4467 28.2188 15.362 28.3882L14.612 29.8882C14.4458 30.2206 14.6875 30.6118 15.0592 30.6118H18.0002V34.3618H21.3652V30.6118H27.6912C27.8806 30.6118 28.0537 30.5048 28.1384 30.3354L28.8884 28.8354C29.0546 28.5029 28.8129 28.1118 28.4412 28.1118H21.3652V25.9381H24.154C25.2273 25.9381 26.2431 25.8327 27.2015 25.6218C28.1598 25.411 28.9984 25.0708 29.7171 24.6012C30.4359 24.1316 31.0061 23.5135 31.4277 22.7468C31.8494 21.9802 32.0602 21.0314 32.0602 19.9006C32.0602 18.8464 31.8781 17.9456 31.514 17.1981C31.1498 16.4506 30.6323 15.8373 29.9615 15.3581C29.2906 14.8789 28.4857 14.5339 27.5465 14.3231C26.6073 14.1123 25.5532 14.0068 24.384 14.0068ZM25.5915 22.7612C25.0548 22.8474 24.4894 22.8906 23.8952 22.8906H21.3652V17.0543H24.0102C24.5661 17.0543 25.1075 17.0879 25.6346 17.1549C26.1617 17.222 26.6313 17.361 27.0434 17.5718C27.4554 17.7827 27.7861 18.0749 28.0352 18.4487C28.2844 18.8225 28.409 19.3064 28.409 19.9006C28.409 20.5139 28.2844 21.0122 28.0352 21.3956C27.7861 21.7789 27.4507 22.0808 27.029 22.3012C26.6073 22.5216 26.1282 22.6749 25.5915 22.7612Z" fill="#BCC6F7"/>
<path fill-rule="evenodd" clip-rule="evenodd" d="M8.97867 37.5667C5.87955 34.0441 4 29.4224 4 24.3618C4 13.3161 12.9543 4.36182 24 4.36182C29.0606 4.36182 33.6822 6.24135 37.2048 9.34042C36.8257 9.13454 36.3414 9.19191 36.0208 9.51255L33.8113 11.7221C31.1019 9.61597 27.6974 8.36182 24 8.36182C15.1634 8.36182 8 15.5253 8 24.3618C8 28.0592 9.25416 31.4637 11.3603 34.1731L9.15075 36.3826C8.83009 36.7033 8.77273 37.1875 8.97867 37.5667ZM9.84345 38.4895L9.15075 37.7968C9.08089 37.727 9.02353 37.6493 8.97867 37.5667C9.25723 37.8834 9.54565 38.1911 9.84345 38.4895ZM9.87228 38.5184L10.565 39.211C10.6348 39.2809 10.7124 39.3382 10.795 39.3831C14.3177 42.4822 18.9394 44.3618 24 44.3618C35.0457 44.3618 44 35.4075 44 24.3618C44 19.3012 42.1205 14.6796 39.0214 11.1569C38.9765 11.0743 38.9191 10.9966 38.8492 10.9268L37.435 9.51255C37.3651 9.44266 37.2875 9.38529 37.2048 9.34042C37.8484 9.90656 38.4552 10.5134 39.0214 11.1569C39.2272 11.5361 39.1699 12.0203 38.8492 12.341L36.6397 14.5505C35.8185 13.4941 34.8677 12.5433 33.8113 11.7221L11.3603 34.1731C12.1815 35.2295 13.1322 36.1803 14.1887 37.0015L11.9792 39.211C11.6585 39.5317 11.1742 39.5891 10.795 39.3831C10.4784 39.1046 10.1707 38.8161 9.87228 38.5184ZM36.6397 14.5505C38.7458 17.2599 40 20.6644 40 24.3618C40 33.1984 32.8366 40.3618 24 40.3618C20.3026 40.3618 16.8981 39.1076 14.1887 37.0015L36.6397 14.5505Z" fill="#1F40E5"/>
</svg>
