<svg width="80" height="80" viewBox="0 0 80 80" fill="none" xmlns="http://www.w3.org/2000/svg">
<path opacity="0.3" fill-rule="evenodd" clip-rule="evenodd" d="M40.5 73C47.4648 73 53.9332 70.8745 59.292 67.2369L55.7081 61.9574C51.2548 64.9805 46.0079 66.619 40.5 66.619C25.5226 66.619 13.3809 54.4774 13.3809 39.5C13.3809 24.5226 25.5226 12.381 40.5 12.381C55.4774 12.381 67.619 24.5226 67.619 39.5C67.619 42.0143 67.2786 44.4769 66.6147 46.8438L72.7585 48.5672C73.5674 45.6834 74 42.6422 74 39.5C74 20.9985 59.0015 6 40.5 6C21.9985 6 6.99999 20.9985 6.99999 39.5C6.99999 58.0015 21.9985 73 40.5 73Z" fill="#D8E8F5"/>
<path fill-rule="evenodd" clip-rule="evenodd" d="M72.8793 46.0174C73.1268 46.1094 73.2602 46.3779 73.1839 46.6307L72.1038 50.2087C72.0275 50.4614 71.7678 50.6113 71.5108 50.5509L35.988 42.2055C35.7072 42.1395 35.5403 41.8504 35.6237 41.5743L38.0191 33.6385C38.1025 33.3624 38.4015 33.2139 38.6719 33.3143L72.8793 46.0174Z" fill="white"/>
</svg>
