<svg width="26" height="26" viewBox="0 0 26 26" fill="none" xmlns="http://www.w3.org/2000/svg">
<path fill-rule="evenodd" clip-rule="evenodd" d="M12.916 18.334C12.3637 18.334 11.916 18.7817 11.916 19.334V22.6673H9.16602C8.88987 22.6673 8.66602 22.8912 8.66602 23.1673V23.2507C8.66602 23.5268 8.88987 23.7507 9.16602 23.7507H12.916H13.0827H16.8327C17.1088 23.7507 17.3327 23.5268 17.3327 23.2507V23.1673C17.3327 22.8912 17.1088 22.6673 16.8327 22.6673H14.0827V19.334C14.0827 18.7817 13.635 18.334 13.0827 18.334H12.916Z" fill="#1F40E5"/>
<path d="M3.16602 6.41602H22.8327V4.41602H3.16602V6.41602ZM22.8327 6.41602V17.416H24.8327V6.41602H22.8327ZM22.8327 17.416H3.16601V19.416H22.8327V17.416ZM3.16602 17.416V6.41602H1.16602V17.416H3.16602ZM3.16601 17.416H3.16602H1.16602C1.16602 18.5206 2.06144 19.416 3.16601 19.416V17.416ZM22.8327 17.416V19.416C23.9373 19.416 24.8327 18.5206 24.8327 17.416H22.8327ZM22.8327 6.41602H22.8327H24.8327C24.8327 5.31145 23.9373 4.41602 22.8327 4.41602V6.41602ZM3.16602 4.41602C2.06145 4.41602 1.16602 5.31145 1.16602 6.41602H3.16602V6.41602V4.41602Z" fill="#1F40E5"/>
<rect x="4.33398" y="8.66602" width="10.8333" height="1.08333" rx="0.541667" fill="#1F40E5"/>
<rect x="4.33398" y="10.834" width="4.33333" height="1.08333" rx="0.541667" fill="#1F40E5"/>
</svg>
