<svg width="80" height="80" viewBox="0 0 80 80" fill="none" xmlns="http://www.w3.org/2000/svg">
<path d="M56.6653 61.334L51.3325 53.334L45.9989 61.334H48.8997C47.7469 65.1812 44.2229 68.0012 39.9989 68.0012C37.7229 68.0012 35.6685 67.154 34.0485 65.8028L31.8301 69.134C34.0925 70.9012 36.9053 72.0012 39.9989 72.0012C46.4493 72.0012 51.8269 67.4196 53.0637 61.334H56.6653Z" fill="#5672EA"/>
<path d="M39.9984 45.332C33.548 45.332 28.1704 49.9136 26.9336 55.9992H23.332L28.6648 63.9992L33.9984 55.9992H31.0976C32.2504 52.152 35.7776 49.332 39.9984 49.332C42.2744 49.332 44.3288 50.1792 45.9488 51.5304L48.1672 48.1992C45.9072 46.4312 43.0944 45.332 39.9984 45.332Z" fill="#5672EA"/>
<path d="M39.9984 8C25.272 8 13.332 12.776 13.332 18.6664V45.3328C13.332 48.5752 16.9592 51.4736 22.6648 53.4296V47.7704C20.5296 46.8904 19.1808 45.9848 18.6648 45.3328V38.38C23.5296 40.9792 31.2616 42.6664 39.9984 42.6664C48.7384 42.6664 56.4672 40.9792 61.332 38.38V45.3328C60.816 45.984 59.4672 46.8904 57.332 47.7704V53.4296C63.0376 51.4736 66.6648 48.5752 66.6648 45.3328V18.6664C66.6648 12.776 54.7272 8 39.9984 8ZM61.332 32C59.9512 33.7448 52.5976 37.3328 39.9984 37.3328C27.3992 37.3328 20.048 33.7448 18.6648 32V25.0472C23.5296 27.6456 31.2616 29.3328 39.9984 29.3328C48.7384 29.3328 56.4672 27.6456 61.332 25.0472V32ZM39.9984 24C27.3992 24 20.048 20.4112 18.6648 18.6664C20.048 16.9216 27.3992 13.3328 39.9984 13.3328C52.5976 13.3328 59.9512 16.9216 61.332 18.6664C59.9512 20.4112 52.5976 24 39.9984 24Z" fill="white"/>
</svg>
