<svg width="46" height="46" viewBox="0 0 46 46" fill="none" xmlns="http://www.w3.org/2000/svg">
<rect width="46" height="46" fill="white"/>
<circle r="22.5" transform="matrix(-1 0 0 1 23 23)" fill="white" stroke="#BDE3FE"/>
<path fill-rule="evenodd" clip-rule="evenodd" d="M22.917 28.333C22.3647 28.333 21.917 28.7807 21.917 29.333V32.6663H19.167C18.8908 32.6663 18.667 32.8902 18.667 33.1663V33.2497C18.667 33.5258 18.8909 33.7497 19.167 33.7497H22.917H23.0837H26.8337C27.1098 33.7497 27.3337 33.5258 27.3337 33.2497V33.1663C27.3337 32.8902 27.1098 32.6663 26.8337 32.6663H24.0837V29.333C24.0837 28.7807 23.6359 28.333 23.0837 28.333H22.917Z" fill="#1F40E5"/>
<path d="M12.9995 16.001H32.6662V14.001H12.9995V16.001ZM32.6662 16.001V27.001H34.6662V16.001H32.6662ZM32.6662 27.001H12.9995V29.001H32.6662V27.001ZM12.9995 27.001V16.001H10.9995V27.001H12.9995ZM12.9995 27.001H12.9995H10.9995C10.9995 28.1055 11.8949 29.001 12.9995 29.001V27.001ZM32.6662 27.001V29.001C33.7707 29.001 34.6662 28.1055 34.6662 27.001H32.6662ZM32.6662 16.001H32.6662H34.6662C34.6662 14.8964 33.7708 14.001 32.6662 14.001V16.001ZM12.9995 14.001C11.8949 14.001 10.9995 14.8964 10.9995 16.001H12.9995V16.001V14.001Z" fill="#1F40E5"/>
<rect x="14" y="19" width="7" height="1" rx="0.5" fill="#1F40E5"/>
<rect x="32" y="23.918" width="7" height="1" rx="0.5" transform="rotate(-180 32 23.918)" fill="#1F40E5"/>
<rect x="14.334" y="20.834" width="4.33333" height="1.08333" rx="0.541667" fill="#1F40E5"/>
<rect x="31.666" y="22.084" width="4.33333" height="1.08333" rx="0.541667" transform="rotate(-180 31.666 22.084)" fill="#1F40E5"/>
<rect x="23" y="18" width="0.5" height="7" fill="#1F40E5"/>
</svg>
