<svg width="46" height="46" viewBox="0 0 46 46" fill="none" xmlns="http://www.w3.org/2000/svg">
<circle r="22.5" transform="matrix(-1 0 0 1 23 23)" fill="white" stroke="#BDE3FE"/>
<path d="M23.0001 29.9328H14.3335V17.7996H31.6667V22.9996H33.4001V14.333C33.4001 13.3799 32.6198 12.5996 31.6667 12.5996H14.3335C13.3804 12.5996 12.6001 13.3799 12.6001 14.333V29.933C12.6001 30.8862 13.3804 31.6667 14.3335 31.6667H23.0001V29.9328ZM14.3335 14.333H31.6667V16.0664H14.3335V14.333Z" fill="#1F40E5"/>
<path d="M22.1332 19.5332H16.0664V21.2669H22.1332V19.5332Z" fill="#1F40E5"/>
<path d="M27.3335 19.5332H23.8667V21.2669H27.3335V19.5332Z" fill="#1F40E5"/>
<path d="M25.5998 23H17.7998V24.7332H25.5998V23Z" fill="#1F40E5"/>
<path d="M22.9998 26.4668H19.5332V28.2H22.9998V26.4668Z" fill="#1F40E5"/>
<path d="M17.7998 26.4668H16.0664V28.2H17.7998V26.4668Z" fill="#1F40E5"/>
<path d="M33.4 29.9334V28.2002H31.9596C31.8995 28.0021 31.8215 27.8134 31.7251 27.635L32.7443 26.6158L31.5178 25.3904L30.4986 26.4086C30.32 26.3121 30.1315 26.2339 29.9334 26.1741V24.7334H28.2V26.1741C28.0019 26.2339 27.8134 26.3121 27.6345 26.4086L26.6155 25.3894L25.3899 26.6158L26.4081 27.635C26.3116 27.8134 26.2339 28.0021 26.1738 28.2002H24.7334V29.9334H26.1738C26.2339 30.1315 26.3116 30.3203 26.4081 30.4992L25.3899 31.5178L26.6155 32.7437L27.6337 31.7256C27.8131 31.822 28.0019 31.8998 28.2 31.9596V33.4002H29.9334V31.9596C30.1315 31.8998 30.32 31.822 30.4997 31.7256L31.5178 32.7437L32.7443 31.5178L31.7251 30.4992C31.8215 30.3195 31.8995 30.1315 31.9596 29.9334H33.4ZM29.0666 30.3671C28.349 30.3671 27.7666 29.7847 27.7666 29.0671C27.7666 28.349 28.349 27.7671 29.0666 27.7671C29.7844 27.7671 30.3666 28.349 30.3666 29.0671C30.3666 29.7847 29.7844 30.3671 29.0666 30.3671Z" fill="#1F40E5"/>
</svg>
