<svg width="410" height="271" viewBox="0 0 410 271" fill="none" xmlns="http://www.w3.org/2000/svg">
<path d="M205.858 179.713C201.423 179.713 196.989 178.71 193.555 176.634L147.491 149.211C143.843 147.063 141.84 144.056 141.84 140.834C141.84 137.612 143.843 134.677 147.419 132.529L193.197 105.178C200.064 101.096 210.865 101.096 217.732 105.178L263.868 132.529C267.516 134.677 269.519 137.684 269.519 140.906C269.519 144.128 267.516 147.063 263.939 149.211L218.161 176.562C214.728 178.639 210.293 179.713 205.858 179.713Z" fill="#D8E8F5"/>
<path d="M206.002 205.847C198.706 205.847 191.338 204.128 185.616 200.763L109.295 155.441C103.286 151.861 99.9961 146.992 99.9961 141.622C99.9961 136.324 103.286 131.383 109.223 127.875L185.044 82.5522C196.417 75.7502 214.299 75.7502 225.744 82.5522L302.065 127.875C308.073 131.455 311.364 136.324 311.364 141.693C311.364 146.992 308.073 151.932 302.136 155.441L226.316 200.763C220.594 204.128 213.298 205.847 206.002 205.847Z" stroke="#A8D6F8" stroke-miterlimit="10"/>
<path d="M148.493 178.639L72.0283 224.319" stroke="#A8D6F8" stroke-miterlimit="10"/>
<path d="M339.259 64.6521L267.659 107.397" stroke="#A8D6F8" stroke-miterlimit="10"/>
<path d="M262.867 178.71L339.259 224.319" stroke="#A8D6F8" stroke-miterlimit="10"/>
<path d="M72.0283 64.6521L143.342 107.182" stroke="#A8D6F8" stroke-miterlimit="10"/>
<path d="M235.9 54.0554V67.6594H175.458V54.0554H155.788V140.691C155.86 143.125 157.433 145.417 160.151 147.063L196.202 168.472C198.92 170.047 202.353 170.906 205.787 170.906C209.22 170.906 212.725 170.118 215.372 168.472L251.136 147.063C253.926 145.417 255.428 143.125 255.499 140.691V54.0554H235.9Z" fill="url(#paint0_linear)"/>
<path d="M204.5 164.678C204.5 164.678 204.5 164.605 204.5 164.678C204.5 164.605 204.428 164.605 204.5 164.678C204.428 164.678 204.5 164.678 204.5 164.678Z" fill="#00E7FF"/>
<path d="M205.787 84.1988C202.354 84.1988 198.849 83.4112 196.202 81.7644L160.152 60.4277C157.29 58.7093 155.788 56.4181 155.717 53.9121C155.717 51.4062 157.29 49.115 160.08 47.3966L195.844 25.9883C201.209 22.7663 209.649 22.7663 215.014 25.9883L251.065 47.3966C253.926 49.115 255.428 51.4062 255.499 53.9121C255.499 56.4181 253.926 58.7093 251.136 60.4277L215.372 81.836C212.725 83.4112 209.292 84.1988 205.787 84.1988Z" fill="url(#paint1_linear)"/>
<path d="M226.173 49.974C228.462 51.3344 228.462 53.4824 226.173 54.8428L209.649 64.7236C207.361 66.084 203.713 66.084 201.424 64.7236L184.829 54.8428C182.54 53.4824 182.54 51.3344 184.829 49.974L201.281 40.0933C203.57 38.7329 207.217 38.7329 209.506 40.0933L226.173 49.974Z" fill="url(#paint2_linear)"/>
<path d="M209.649 64.7235L221.881 57.4204L209.506 50.1172C207.217 48.7568 203.569 48.7568 201.28 50.1172L189.121 57.4204L201.424 64.7235C203.712 66.0839 207.36 66.0839 209.649 64.7235Z" fill="white"/>
<path d="M22.101 30.7139L9.36891 38.3034C7.00846 39.7354 5.64941 41.7402 5.64941 43.8882C5.64941 46.1078 7.00846 48.1126 9.44044 49.5446L40.4839 68.0173C42.8444 69.3777 45.777 70.0937 48.7813 70.0937C51.7855 70.0937 54.7897 69.3777 57.0786 68.0173L87.979 49.5446C90.3395 48.1126 91.6985 46.1078 91.6985 43.9598C91.6985 41.7402 90.3395 39.7354 87.9075 38.3034L76.8205 31.7163L76.1768 31.2867" stroke="#A8D6F8" stroke-miterlimit="10"/>
<path d="M5.64941 49.7593V44.2461" stroke="#A8D6F8" stroke-miterlimit="10"/>
<path d="M91.77 49.7593V44.2461" stroke="#A8D6F8" stroke-miterlimit="10"/>
<path d="M38.2661 1.28638L22.959 10.4511" stroke="#A8D6F8" stroke-miterlimit="10"/>
<path d="M43.8455 8.51782L40.5552 10.451" stroke="#A8D6F8" stroke-miterlimit="10"/>
<path d="M71.0266 53.9837L41.986 36.585C40.8415 35.869 39.9116 34.2222 39.9116 32.7902V11.9547C39.9116 10.5227 40.8415 9.94991 41.986 10.6659L71.0266 28.0646C72.1711 28.7806 73.101 30.4274 73.101 31.8594V52.6949C73.101 54.0553 72.1711 54.6997 71.0266 53.9837Z" stroke="#A8D6F8" stroke-miterlimit="10"/>
<path d="M43.8457 8.51793C44.2033 8.30313 44.7756 8.30313 45.3478 8.66113L74.3169 26.0598C75.4614 26.7758 76.3913 28.4226 76.3913 29.8546V50.6901C76.3913 51.3345 76.2482 51.7641 75.8906 52.0505" stroke="#A8D6F8" stroke-miterlimit="10"/>
<path d="M76.105 51.9072L72.457 54.1984" stroke="#A8D6F8" stroke-miterlimit="10"/>
<path d="M40.0547 29.5684L73.101 49.4015" stroke="#A8D6F8" stroke-miterlimit="10"/>
<path d="M54.3604 44.0315V47.1819L57.6507 49.1151V45.9647L54.3604 44.0315Z" stroke="#A8D6F8" stroke-miterlimit="10"/>
<path d="M54.4318 44.6756L49.4963 47.6112C49.0671 47.826 48.8525 48.184 48.8525 48.542C48.8525 48.9 49.0671 49.258 49.4963 49.4728L54.7179 52.5516C55.0755 52.7664 55.5762 52.9096 56.0769 52.9096C56.5776 52.9096 57.0783 52.7664 57.436 52.5516L62.6576 49.4728C62.8722 49.3296 62.9437 49.258 63.0868 49.1148L55.0755 44.3176" stroke="#A8D6F8" stroke-miterlimit="10"/>
<path d="M22.1724 11.9547V32.7902C22.1724 34.079 22.9592 35.5826 23.9606 36.3702L30.2551 40.165C31.3996 40.881 32.3294 40.2366 32.3294 38.8762V18.0407C32.3294 16.7519 31.5426 15.2483 30.5412 14.4607L24.2467 10.6659C23.1022 9.94991 22.1724 10.5227 22.1724 11.9547Z" stroke="#A8D6F8" stroke-miterlimit="10"/>
<path d="M47.4935 9.73505V9.01905C47.4935 7.73026 46.7067 6.22666 45.7053 5.43907L39.4108 1.64428C38.8386 1.28628 38.3379 1.28628 37.9087 1.50108" stroke="#A8D6F8" stroke-miterlimit="10"/>
<path d="M40.7697 34.9382L31.8286 40.2366" stroke="#A8D6F8" stroke-miterlimit="10"/>
<path d="M25.4629 18.3987C25.4629 17.4679 26.1066 17.1099 26.8219 17.5395C27.6088 17.9691 28.181 19.0431 28.181 19.9739C28.181 20.9047 27.5372 21.2627 26.8219 20.8331C26.1066 20.4035 25.4629 19.2579 25.4629 18.3987Z" stroke="#A8D6F8" stroke-miterlimit="10"/>
<path d="M32.1864 29.8547L22.1724 23.8403" stroke="#A8D6F8" stroke-miterlimit="10" stroke-linecap="round"/>
<path d="M32.1864 35.7257L22.1724 29.783" stroke="#A8D6F8" stroke-miterlimit="10" stroke-linecap="round"/>
<path d="M87.478 242.792C87.478 244.94 86.119 246.945 83.7585 248.377L52.8581 266.849C50.5692 268.21 47.565 268.926 44.5608 268.926C41.5566 268.926 38.6239 268.21 36.2635 266.849L5.14845 248.448C2.71647 247.016 1.35742 245.012 1.35742 242.792" stroke="#A8D6F8" stroke-miterlimit="10"/>
<path d="M17.809 224.033L5.07692 231.623C2.71647 233.055 1.35742 235.059 1.35742 237.207C1.35742 239.427 2.71647 241.432 5.14845 242.864L36.1919 261.336C38.5524 262.697 41.4851 263.413 44.4893 263.413C47.4935 263.413 50.4977 262.697 52.7866 261.336L83.687 242.864C86.0475 241.432 87.4065 239.427 87.4065 237.279C87.4065 235.059 86.0475 233.055 83.6155 231.623L72.5285 225.035L71.8848 224.606" stroke="#A8D6F8" stroke-miterlimit="10"/>
<path d="M1.35742 243.078V237.565" stroke="#A8D6F8" stroke-miterlimit="10"/>
<path d="M87.478 243.078V237.565" stroke="#A8D6F8" stroke-miterlimit="10"/>
<path d="M33.9741 194.605L18.667 203.77" stroke="#A8D6F8" stroke-miterlimit="10"/>
<path d="M39.5535 201.837L36.2632 203.77" stroke="#A8D6F8" stroke-miterlimit="10"/>
<path d="M66.7346 247.303L37.694 229.904C36.5495 229.188 35.6196 227.541 35.6196 226.109V205.274C35.6196 203.842 36.5495 203.269 37.694 203.985L66.7346 221.384C67.8791 222.1 68.809 223.747 68.809 225.179V246.014C68.809 247.374 67.8791 248.019 66.7346 247.303Z" stroke="#A8D6F8" stroke-miterlimit="10"/>
<path d="M39.5537 201.837C39.9114 201.622 40.4836 201.622 41.0558 201.98L70.025 219.379C71.1694 220.095 72.0993 221.742 72.0993 223.174V244.009C72.0993 244.654 71.9562 245.083 71.5986 245.37" stroke="#A8D6F8" stroke-miterlimit="10"/>
<path d="M71.813 245.227L68.165 247.518" stroke="#A8D6F8" stroke-miterlimit="10"/>
<path d="M35.7627 222.887L68.809 242.72" stroke="#A8D6F8" stroke-miterlimit="10"/>
<path d="M50.0684 237.351V240.501L53.3587 242.434V239.284L50.0684 237.351Z" stroke="#A8D6F8" stroke-miterlimit="10"/>
<path d="M50.1398 237.995L45.2043 240.931C44.7751 241.145 44.5605 241.503 44.5605 241.861C44.5605 242.219 44.7751 242.577 45.2043 242.792L50.4259 245.871C50.7835 246.086 51.2842 246.229 51.7849 246.229C52.2857 246.229 52.7864 246.086 53.144 245.871L58.3656 242.792C58.5802 242.649 58.6517 242.577 58.7948 242.434L50.7835 237.637" stroke="#A8D6F8" stroke-miterlimit="10"/>
<path d="M17.8804 205.274V226.109C17.8804 227.398 18.6672 228.902 19.6686 229.689L25.9631 233.484C27.1076 234.2 28.0375 233.556 28.0375 232.195V211.36C28.0375 210.071 27.2506 208.567 26.2492 207.78L19.9547 203.985C18.8102 203.269 17.8804 203.842 17.8804 205.274Z" stroke="#A8D6F8" stroke-miterlimit="10"/>
<path d="M43.2016 203.054V202.338C43.2016 201.049 42.4147 199.546 41.4133 198.758L35.1188 194.963C34.5466 194.605 34.0459 194.605 33.6167 194.82" stroke="#A8D6F8" stroke-miterlimit="10"/>
<path d="M36.4777 228.257L27.5366 233.556" stroke="#A8D6F8" stroke-miterlimit="10"/>
<path d="M21.1709 211.718C21.1709 210.787 21.8147 210.429 22.5299 210.859C23.3168 211.288 23.889 212.362 23.889 213.293C23.889 214.224 23.2452 214.582 22.5299 214.152C21.8147 213.723 21.1709 212.577 21.1709 211.718Z" stroke="#A8D6F8" stroke-miterlimit="10"/>
<path d="M27.8944 223.174L17.8804 217.159" stroke="#A8D6F8" stroke-miterlimit="10" stroke-linecap="round"/>
<path d="M27.8944 229.045L17.8804 223.102" stroke="#A8D6F8" stroke-miterlimit="10" stroke-linecap="round"/>
<path d="M408.642 244.072C408.642 246.22 407.283 248.224 404.923 249.656L374.022 268.129C371.733 269.489 368.729 270.205 365.725 270.205C362.721 270.205 359.788 269.489 357.427 268.129L326.312 249.656C323.881 248.224 322.521 246.22 322.521 244" stroke="#A8D6F8" stroke-miterlimit="10"/>
<path d="M338.902 224.749L326.17 232.339C323.809 233.771 322.45 235.775 322.45 237.923C322.45 240.143 323.809 242.148 326.241 243.58L357.356 262.052C359.717 263.413 362.649 264.129 365.654 264.129C368.658 264.129 371.662 263.413 373.951 262.052L404.851 243.58C407.212 242.148 408.571 240.143 408.571 237.995C408.571 235.775 407.212 233.771 404.78 232.339L393.693 225.751L393.049 225.322" stroke="#A8D6F8" stroke-miterlimit="10"/>
<path d="M322.521 243.794V238.281" stroke="#A8D6F8" stroke-miterlimit="10"/>
<path d="M408.643 243.794V238.281" stroke="#A8D6F8" stroke-miterlimit="10"/>
<path d="M355.139 195.322L339.832 204.486" stroke="#A8D6F8" stroke-miterlimit="10"/>
<path d="M360.718 202.553L357.428 204.486" stroke="#A8D6F8" stroke-miterlimit="10"/>
<path d="M387.899 248.019L358.859 230.62C357.714 229.904 356.784 228.257 356.784 226.825V205.99C356.784 204.558 357.714 203.985 358.859 204.701L387.899 222.1C389.044 222.816 389.974 224.463 389.974 225.895V246.73C389.974 248.09 389.044 248.735 387.899 248.019Z" stroke="#A8D6F8" stroke-miterlimit="10"/>
<path d="M360.718 202.553C361.076 202.338 361.648 202.338 362.22 202.696L391.261 220.095C392.405 220.811 393.335 222.458 393.335 223.89V244.725C393.335 245.37 393.192 245.799 392.835 246.086" stroke="#A8D6F8" stroke-miterlimit="10"/>
<path d="M392.978 245.943L389.33 248.234" stroke="#A8D6F8" stroke-miterlimit="10"/>
<path d="M356.927 223.604L389.974 243.437" stroke="#A8D6F8" stroke-miterlimit="10"/>
<path d="M371.233 238.067V241.217L374.523 243.15V240L371.233 238.067Z" stroke="#A8D6F8" stroke-miterlimit="10"/>
<path d="M371.304 238.711L366.369 241.646C365.94 241.861 365.725 242.219 365.725 242.577C365.725 242.935 365.94 243.293 366.369 243.508L371.59 246.587C371.948 246.802 372.449 246.945 372.95 246.945C373.45 246.945 373.951 246.802 374.309 246.587L379.53 243.508C379.745 243.365 379.816 243.293 379.959 243.15L371.948 238.353" stroke="#A8D6F8" stroke-miterlimit="10"/>
<path d="M339.045 205.99V226.825C339.045 228.114 339.832 229.618 340.833 230.405L347.128 234.2C348.272 234.916 349.202 234.272 349.202 232.911V212.076C349.202 210.787 348.415 209.283 347.414 208.496L341.119 204.701C339.975 203.985 339.045 204.558 339.045 205.99Z" stroke="#A8D6F8" stroke-miterlimit="10"/>
<path d="M364.366 203.77V203.054C364.366 201.765 363.579 200.262 362.578 199.474L356.283 195.679C355.711 195.321 355.21 195.321 354.781 195.536" stroke="#A8D6F8" stroke-miterlimit="10"/>
<path d="M357.642 228.973L348.701 234.272" stroke="#A8D6F8" stroke-miterlimit="10"/>
<path d="M342.335 212.434C342.335 211.503 342.979 211.145 343.694 211.575C344.481 212.004 345.054 213.078 345.054 214.009C345.054 214.94 344.41 215.298 343.694 214.868C342.979 214.439 342.335 213.293 342.335 212.434Z" stroke="#A8D6F8" stroke-miterlimit="10"/>
<path d="M349.059 223.89L339.045 217.875" stroke="#A8D6F8" stroke-miterlimit="10" stroke-linecap="round"/>
<path d="M349.059 229.761L339.045 223.818" stroke="#A8D6F8" stroke-miterlimit="10" stroke-linecap="round"/>
<path d="M405.781 49.473C405.781 51.621 404.422 53.6257 402.062 55.0577L371.161 73.5305C368.872 74.8909 365.868 75.6068 362.864 75.6068C359.86 75.6068 356.927 74.8909 354.567 73.5305L323.452 55.0577C321.02 53.6257 319.661 51.621 319.661 49.4014" stroke="#A8D6F8" stroke-miterlimit="10"/>
<path d="M336.04 30.7139L323.308 38.3034C320.948 39.7354 319.589 41.7402 319.589 43.8882C319.589 46.1078 320.948 48.1126 323.38 49.5446L354.495 68.0173C356.855 69.3777 359.788 70.0937 362.792 70.0937C365.796 70.0937 368.801 69.3777 371.09 68.0173L401.99 49.5446C404.35 48.1126 405.71 46.1078 405.71 43.9598C405.71 41.7402 404.35 39.7354 401.918 38.3034L390.832 31.7163L390.188 31.2867" stroke="#A8D6F8" stroke-miterlimit="10"/>
<path d="M319.661 49.7593V44.2461" stroke="#A8D6F8" stroke-miterlimit="10"/>
<path d="M405.781 49.7593V44.2461" stroke="#A8D6F8" stroke-miterlimit="10"/>
<path d="M352.277 1.28638L336.97 10.4511" stroke="#A8D6F8" stroke-miterlimit="10"/>
<path d="M357.857 8.51782L354.566 10.451" stroke="#A8D6F8" stroke-miterlimit="10"/>
<path d="M385.038 53.9837L355.997 36.585C354.853 35.869 353.923 34.2222 353.923 32.7902V11.9547C353.923 10.5227 354.853 9.94991 355.997 10.6659L385.038 28.0646C386.182 28.7806 387.112 30.4274 387.112 31.8594V52.6949C387.112 54.0553 386.182 54.6997 385.038 53.9837Z" stroke="#A8D6F8" stroke-miterlimit="10"/>
<path d="M357.857 8.51793C358.215 8.30313 358.787 8.30313 359.359 8.66113L388.328 26.0598C389.473 26.7758 390.403 28.4226 390.403 29.8546V50.6901C390.403 51.3345 390.259 51.7641 389.902 52.0505" stroke="#A8D6F8" stroke-miterlimit="10"/>
<path d="M390.116 51.9072L386.468 54.1984" stroke="#A8D6F8" stroke-miterlimit="10"/>
<path d="M354.066 29.5684L387.112 49.4015" stroke="#A8D6F8" stroke-miterlimit="10"/>
<path d="M368.372 44.0315V47.1819L371.662 49.1151V45.9647L368.372 44.0315Z" stroke="#A8D6F8" stroke-miterlimit="10"/>
<path d="M368.443 44.6756L363.508 47.6112C363.078 47.826 362.864 48.184 362.864 48.542C362.864 48.9 363.078 49.258 363.508 49.4728L368.729 52.5516C369.087 52.7664 369.587 52.9096 370.088 52.9096C370.589 52.9096 371.09 52.7664 371.447 52.5516L376.669 49.4728C376.883 49.3296 376.955 49.258 377.098 49.1148L369.087 44.3176" stroke="#A8D6F8" stroke-miterlimit="10"/>
<path d="M336.184 11.9547V32.7902C336.184 34.079 336.97 35.5826 337.972 36.3702L344.266 40.165C345.411 40.881 346.341 40.2366 346.341 38.8762V18.0407C346.341 16.7519 345.554 15.2483 344.552 14.4607L338.258 10.6659C337.113 9.94991 336.184 10.5227 336.184 11.9547Z" stroke="#A8D6F8" stroke-miterlimit="10"/>
<path d="M361.505 9.73505V9.01905C361.505 7.73026 360.718 6.22666 359.717 5.43907L353.422 1.64428C352.85 1.28628 352.349 1.28628 351.92 1.50108" stroke="#A8D6F8" stroke-miterlimit="10"/>
<path d="M354.781 34.9382L345.84 40.2366" stroke="#A8D6F8" stroke-miterlimit="10"/>
<path d="M339.474 18.3987C339.474 17.4679 340.118 17.1099 340.833 17.5395C341.62 17.9691 342.192 19.0431 342.192 19.9739C342.192 20.9047 341.548 21.2627 340.833 20.8331C340.118 20.4035 339.474 19.2579 339.474 18.3987Z" stroke="#A8D6F8" stroke-miterlimit="10"/>
<path d="M346.198 29.8547L336.184 23.8403" stroke="#A8D6F8" stroke-miterlimit="10" stroke-linecap="round"/>
<path d="M346.198 35.7257L336.184 29.783" stroke="#A8D6F8" stroke-miterlimit="10" stroke-linecap="round"/>
<path opacity="0.4" d="M165.302 78.9003C165.302 78.0411 164.729 76.9671 163.943 76.5375C163.227 76.1079 162.583 76.4659 162.583 77.3251C162.583 78.1843 163.156 79.2583 163.943 79.6879C164.729 80.0459 165.302 79.7595 165.302 78.9003Z" fill="white"/>
<path opacity="0.4" d="M195.773 95.7978L169.737 80.7619C169.379 80.5471 169.093 80.7619 169.093 81.2631C169.093 81.7643 169.379 82.3371 169.737 82.5519L195.773 97.5878C196.131 97.8026 196.417 97.5878 196.417 97.0866C196.417 96.5138 196.131 95.941 195.773 95.7978Z" fill="white"/>
<path opacity="0.4" d="M165.302 107.898C165.302 107.039 164.729 105.965 163.943 105.536C163.227 105.106 162.583 105.464 162.583 106.323C162.583 107.182 163.156 108.256 163.943 108.686C164.729 109.044 165.302 108.758 165.302 107.898Z" fill="white"/>
<path opacity="0.4" d="M195.773 124.796L169.737 109.76C169.379 109.545 169.093 109.76 169.093 110.261C169.093 110.762 169.379 111.335 169.737 111.55L195.773 126.586C196.131 126.801 196.417 126.586 196.417 126.085C196.417 125.512 196.131 124.939 195.773 124.796Z" fill="white"/>
<path opacity="0.4" d="M165.302 136.896C165.302 136.037 164.729 134.963 163.943 134.533C163.227 134.104 162.583 134.462 162.583 135.321C162.583 136.18 163.156 137.254 163.943 137.684C164.729 138.042 165.302 137.755 165.302 136.896Z" fill="white"/>
<path opacity="0.4" d="M195.773 153.794L169.737 138.758C169.379 138.543 169.093 138.758 169.093 139.259C169.093 139.76 169.379 140.333 169.737 140.548L195.773 155.584C196.131 155.798 196.417 155.584 196.417 155.082C196.417 154.51 196.131 153.937 195.773 153.794Z" fill="white"/>
<path opacity="0.4" d="M219.806 95.082L245.843 80.0461C246.2 79.8313 246.487 80.0461 246.487 80.5473C246.487 81.0485 246.2 81.6213 245.843 81.8361L219.806 96.872C219.449 97.0868 219.163 96.872 219.163 96.3708C219.091 95.798 219.449 95.2252 219.806 95.082Z" fill="white"/>
<path opacity="0.4" d="M219.806 124.08L245.843 109.044C246.2 108.829 246.487 109.044 246.487 109.545C246.487 110.046 246.2 110.619 245.843 110.834L219.806 125.87C219.449 126.085 219.163 125.87 219.163 125.369C219.091 124.796 219.449 124.223 219.806 124.08Z" fill="white"/>
<path opacity="0.4" d="M219.806 153.078L245.843 138.042C246.2 137.827 246.487 138.042 246.487 138.543C246.487 139.044 246.2 139.617 245.843 139.832L219.806 154.868C219.449 155.082 219.163 154.868 219.163 154.366C219.091 153.794 219.449 153.221 219.806 153.078Z" fill="white"/>
<path opacity="0.4" d="M255.571 115.273C254.927 115.989 254.069 116.705 253.067 117.278L215.729 139.617C213.083 141.192 209.578 142.051 205.93 142.051C202.282 142.051 198.777 141.192 196.059 139.617L158.363 117.349C157.29 116.705 156.432 116.061 155.788 115.273V116.275C156.432 116.848 157.147 117.421 158.005 117.922L195.63 140.261C198.419 141.908 202.067 142.839 205.858 142.839C209.649 142.839 213.297 141.908 216.087 140.261L253.425 117.922C254.283 117.421 254.998 116.848 255.571 116.275V115.273Z" fill="white"/>
<path opacity="0.4" d="M255.571 86.848C254.927 87.564 254.069 88.28 253.067 88.8528L215.729 111.192C213.083 112.767 209.578 113.626 205.93 113.626C202.282 113.626 198.777 112.767 196.059 111.192L158.363 88.8528C157.29 88.2084 156.432 87.564 155.788 86.7764V87.7788C156.432 88.3516 157.147 88.9244 158.005 89.4256L195.63 111.765C198.419 113.411 202.067 114.342 205.858 114.342C209.649 114.342 213.297 113.411 216.087 111.765L253.425 89.4256C254.283 88.9244 254.998 88.3516 255.571 87.7788V86.848Z" fill="white"/>
<defs>
<linearGradient id="paint0_linear" x1="273.932" y1="26.4963" x2="171.609" y2="118.36" gradientUnits="userSpaceOnUse">
<stop offset="0.0980392" stop-color="#88EDF2"/>
<stop offset="0.2775" stop-color="#65B4EE"/>
<stop offset="0.4929" stop-color="#4076E9"/>
<stop offset="0.651" stop-color="#284FE6"/>
<stop offset="0.7333" stop-color="#1F40E5"/>
</linearGradient>
<linearGradient id="paint1_linear" x1="273.945" y1="9.27295" x2="227.695" y2="89.3598" gradientUnits="userSpaceOnUse">
<stop offset="0.0980392" stop-color="#88EDF2"/>
<stop offset="0.2775" stop-color="#65B4EE"/>
<stop offset="0.4929" stop-color="#4076E9"/>
<stop offset="0.651" stop-color="#284FE6"/>
<stop offset="0.7333" stop-color="#1F40E5"/>
</linearGradient>
<linearGradient id="paint2_linear" x1="221.5" y1="16" x2="222.443" y2="81.5475" gradientUnits="userSpaceOnUse">
<stop offset="0.0980392" stop-color="#88EDF2"/>
<stop offset="0.2775" stop-color="#65B4EE"/>
<stop offset="0.4929" stop-color="#4076E9"/>
<stop offset="0.651" stop-color="#284FE6"/>
<stop offset="0.7333" stop-color="#1F40E5"/>
</linearGradient>
</defs>
</svg>
