<svg width="472" height="263" viewBox="0 0 472 263" fill="none" xmlns="http://www.w3.org/2000/svg">
<g clip-path="url(#clip0)">
<path d="M228.293 224.112V230.897L240.505 237.944L240.557 231.158L228.293 224.112Z" stroke="#A8D6F8" stroke-miterlimit="10" stroke-linecap="round" stroke-linejoin="round"/>
<path d="M223.262 183.657V192.427L226.25 194.097L226.302 194.201V198.847L230.39 201.196L230.442 201.04L230.862 199.682L230.809 199.578L227.298 197.594V185.954L223.262 183.657Z" stroke="#A8D6F8" stroke-miterlimit="10" stroke-linecap="round" stroke-linejoin="round"/>
<path d="M232.643 198.534L237.832 180.055L236.574 179.325L231.176 198.43L230.809 199.578L230.861 199.682L232.119 200.413L232.643 198.534Z" stroke="#A8D6F8" stroke-miterlimit="10" stroke-linecap="round" stroke-linejoin="round"/>
<path d="M249.415 188.93L249.467 188.355L249.415 186.789L237.78 180.056L232.591 198.586L243.283 192.531L243.44 192.427L249.415 188.93Z" stroke="#A8D6F8" stroke-miterlimit="10" stroke-linecap="round" stroke-linejoin="round"/>
<path d="M420.586 47.261L270.169 134.329L321.269 163.822L471.685 76.8057L420.586 47.261Z" stroke="#A8D6F8" stroke-miterlimit="10" stroke-linecap="round" stroke-linejoin="round"/>
<path d="M263.985 244.73L263.932 251.464L276.196 258.511L276.144 251.725L263.985 244.73Z" stroke="#A8D6F8" stroke-miterlimit="10" stroke-linecap="round" stroke-linejoin="round"/>
<path d="M363.406 218.526L363.511 218.579L363.616 218.631L364.297 219.101L366.761 219.414L369.748 218.631L372.473 217.065L375.146 214.611L377.348 211.845L379.339 208.348L380.807 204.38L381.383 200.518L381.173 197.751L380.754 196.603L380.02 194.985L378.605 193.523L378.291 193.419L376.404 192.74L374.151 192.897L373.626 193.001L370.901 194.149L367.704 196.603L365.503 199.056L363.302 202.345L361.729 205.894L360.734 209.496L360.524 212.837L361.048 215.655L362.358 217.796L363.406 218.526ZM364.612 208.243L365.188 205.946L366.184 203.754L367.652 201.614L369.224 199.891L370.954 198.586L372.631 197.908L374.255 197.803L374.727 198.012L375.566 198.273L376.561 199.369L377.138 200.935L377.243 202.762L376.928 205.163L376.09 207.46L375.146 209.131L373.26 211.584L371.792 212.889L370.063 213.933L368.228 214.35L366.813 214.142L365.66 213.359L364.822 212.106L364.507 210.383L364.612 208.243Z" stroke="#A8D6F8" stroke-miterlimit="10" stroke-linecap="round" stroke-linejoin="round"/>
<path d="M297.894 256.318L298.051 256.423L298.156 256.475L298.837 256.945L301.51 257.258L303.974 256.579L307.013 254.857L309.739 252.404L312.045 249.428L314.036 245.826L315.347 242.172L315.923 238.466L315.766 236.013L315.504 234.969L314.77 233.09L313.25 231.472L312.988 231.367L312.883 231.315L310.892 230.636L308.324 230.845L305.389 232.098L302.663 234.134L300.043 236.9L297.947 240.137L296.217 243.947L295.326 247.392L295.064 250.838L295.745 253.865L296.951 255.849L297.894 256.318ZM299.204 246.087L299.781 243.895L300.777 241.598L302.087 239.719L303.816 237.736L305.441 236.535L307.275 235.752L308.848 235.648L309.267 235.856L310.106 236.117L311.154 237.214L311.73 238.78L311.835 240.189L311.521 242.955L310.787 245.043L309.739 246.923L307.747 249.48L306.28 250.785L304.603 251.777L303.083 252.195L301.51 252.038L300.2 251.203L299.414 250.002L298.995 248.28L299.204 246.087Z" stroke="#A8D6F8" stroke-miterlimit="10" stroke-linecap="round" stroke-linejoin="round"/>
<path d="M444.956 171.391L445.061 171.443L445.847 171.913L448.258 172.226L451.141 171.495L454.39 169.511L456.696 167.423L458.897 164.657L460.994 161.003L462.409 157.192L462.933 153.904L462.776 150.824L462.409 149.78L461.78 148.058L460.155 146.335L459.946 146.283L459.841 146.231L457.954 145.604L455.753 145.761L455.176 145.865L452.451 147.014L449.673 149.102L447 152.025L444.904 155.261L443.174 159.176L442.336 162.517L442.074 165.805L442.65 168.624L443.908 170.764L444.956 171.391ZM446.162 161.107L446.738 158.915L447.786 156.514L449.202 154.426L450.774 152.703L452.503 151.398L454.233 150.72L455.858 150.615L456.277 150.824L457.115 151.085L458.059 152.129L458.635 153.539L458.793 155.47L458.426 157.923L457.64 160.116L456.644 161.838L454.652 164.396L453.185 165.701L451.665 166.588L449.778 167.058L448.311 166.849L447.158 166.066L446.371 164.814L445.952 163.091L446.162 161.107Z" stroke="#A8D6F8" stroke-miterlimit="10" stroke-linecap="round" stroke-linejoin="round"/>
<path d="M464.191 150.615L464.505 150.459L465.763 149.624L465.134 145.291L463.195 142.107L460.208 140.437L456.277 140.541L452.661 141.95L451.979 142.263L448.206 145.134L444.432 149.571L441.445 154.635L439.558 160.063L438.877 165.127L440.659 164.187L441.131 159.959L442.493 156.201L442.703 155.313L445.271 150.929L445.323 150.615L448.678 146.805L452.242 143.986L454.652 143.099L455.858 142.577H459.107L461.308 143.777L461.413 143.829L461.466 143.882L461.571 143.986L461.937 144.195L463.457 146.857L464.086 150.459L463.981 150.615H464.191Z" stroke="#A8D6F8" stroke-miterlimit="10" stroke-linecap="round" stroke-linejoin="round"/>
<path d="M357.117 206.521L358.742 201.979L358.69 200.413L344.015 208.817L343.962 219.518H344.277L355.021 213.254L357.17 211.949L356.488 211.584V211.271L357.117 206.521Z" stroke="#A8D6F8" stroke-miterlimit="10" stroke-linecap="round" stroke-linejoin="round"/>
<path d="M382.955 197.594L384.475 196.655L383.846 192.322L381.802 189.034L378.92 187.468H375.199L370.901 189.138L366.761 192.322L362.987 196.811L360.157 201.666L358.27 207.042L357.589 212.158L357.746 212.21L359.371 211.218L359.843 206.938L361.52 202.136L364.035 197.647L367.652 193.575L370.953 191.017L372.997 190.287L374.57 189.608H377.872L380.073 190.809L380.178 190.913L380.282 190.965L380.387 191.017L380.492 191.07L382.169 193.836L382.798 197.438L382.693 197.594H382.955Z" stroke="#A8D6F8" stroke-miterlimit="10" stroke-linecap="round" stroke-linejoin="round"/>
<path d="M327.296 215.029L330.179 216.647L330.283 216.804L315.609 225.26L315.556 234.865L315.766 235.909L330.283 227.557V218.526L336.258 215.133L338.931 213.568V208.295" stroke="#A8D6F8" stroke-miterlimit="10" stroke-linecap="round" stroke-linejoin="round"/>
<path d="M443.122 159.072L444.852 155.157L446.948 151.92L449.621 148.997L452.399 146.961L455.124 145.813L455.7 145.709L457.902 145.552L459.788 146.178L454.652 143.099L452.241 143.986L448.678 146.805L445.323 150.615L445.271 150.929L442.703 155.313L442.493 156.201L441.131 159.959L440.659 164.187L438.877 165.127L435.47 163.195L435.785 164.709L436.99 166.693L444.956 171.391L443.856 170.66L442.598 168.52L442.021 165.701L442.284 162.36L443.122 159.072Z" stroke="#A8D6F8" stroke-miterlimit="10" stroke-linecap="round" stroke-linejoin="round"/>
<path d="M361.677 205.894L363.249 202.292L365.451 199.004L367.652 196.551L370.849 194.097L373.574 192.949L374.151 192.844L376.352 192.688L378.239 193.366L372.998 190.287L370.954 191.017L367.652 193.575L364.036 197.647L361.52 202.136L359.843 206.938L359.371 211.218L357.746 212.21L357.589 212.158L357.17 211.949L355.021 213.254L355.598 213.933L363.407 218.526L362.306 217.796L360.996 215.655L360.472 212.889L360.681 209.496L361.677 205.894Z" stroke="#A8D6F8" stroke-miterlimit="10" stroke-linecap="round" stroke-linejoin="round"/>
<path d="M319.958 217.013L321.216 217.691L321.269 163.822L270.169 134.329V153.695L316.08 180.317L316.185 214.82L319.958 217.013Z" stroke="#A8D6F8" stroke-miterlimit="10" stroke-linecap="round" stroke-linejoin="round"/>
<path d="M379.968 194.932L380.754 196.55L382.693 197.594L382.798 197.438L382.169 193.836L380.492 191.069L380.387 191.017L380.283 190.965L380.178 190.913L380.073 190.808L377.872 189.608H374.57L372.998 190.286L378.239 193.366L378.553 193.471L379.968 194.932Z" stroke="#A8D6F8" stroke-miterlimit="10" stroke-linecap="round" stroke-linejoin="round"/>
<path d="M460.103 146.283L461.728 148.005L462.357 149.728L463.981 150.615L464.086 150.459L463.457 146.857L461.937 144.195L461.57 143.986L461.466 143.882L461.413 143.829L461.308 143.777L459.107 142.577H455.858L454.652 143.099L459.789 146.178L459.893 146.231L460.103 146.283Z" stroke="#A8D6F8" stroke-miterlimit="10" stroke-linecap="round" stroke-linejoin="round"/>
<path d="M439.558 160.063L441.445 154.635L444.433 149.571L448.206 145.134L451.98 142.263L452.661 141.95L456.277 140.541L460.208 140.436L457.692 139.027L456.696 139.445L444.485 146.544L443.961 146.961L425.722 157.506L435.47 163.195L438.877 165.127L439.558 160.063Z" stroke="#A8D6F8" stroke-miterlimit="10" stroke-linecap="round" stroke-linejoin="round"/>
<path d="M301.458 200.205V217.065L309.477 212.471L309.424 195.507L301.458 200.205Z" stroke="#A8D6F8" stroke-miterlimit="10" stroke-linecap="round" stroke-linejoin="round"/>
<path d="M284.844 229.54V230.898L281.28 228.862V229.018V230.741L285.787 233.246L285.892 228.653L288.827 230.271L288.879 221.502L284.844 219.309V229.54Z" stroke="#A8D6F8" stroke-miterlimit="10" stroke-linecap="round" stroke-linejoin="round"/>
<path d="M281.542 228.601L284.582 226.878" stroke="#A8D6F8" stroke-miterlimit="10" stroke-linecap="round" stroke-linejoin="round"/>
<path d="M227.036 212.262V233.664L277.402 262.687L277.454 241.285L227.036 212.262ZM240.505 237.944L228.293 230.898V224.059L240.557 231.159L240.505 237.944ZM263.932 251.464L263.985 244.73L276.144 251.673L276.196 258.511L263.932 251.464Z" stroke="#A8D6F8" stroke-miterlimit="10" stroke-linecap="round" stroke-linejoin="round"/>
<path d="M285.735 207.721L282.066 220.614L280.022 228.131L281.28 228.862L286.993 208.4L285.735 207.721Z" stroke="#A8D6F8" stroke-miterlimit="10" stroke-linecap="round" stroke-linejoin="round"/>
<path d="M285.997 219.831L288.67 209.913L299.729 201.092L299.833 218.057L290.033 223.642" stroke="#A8D6F8" stroke-miterlimit="10" stroke-linecap="round" stroke-linejoin="round"/>
<path d="M288.88 221.502L288.827 230.271L285.892 228.653L285.787 233.247L281.28 230.741V229.018L277.402 241.285V262.687L277.507 262.739L289.194 256.005L294.173 236.796L294.645 234.552L295.588 232.777V232.725L301.458 229.332L302.035 229.071L316.185 220.875V219.153V214.82L316.08 180.317L306.647 187.468L301.458 196.655L286.993 208.4L281.28 228.862L284.006 227.087" stroke="#A8D6F8" stroke-miterlimit="10" stroke-linecap="round" stroke-linejoin="round"/>
<path d="M301.458 200.205L309.424 195.507L309.477 212.471L301.458 217.065V200.205Z" stroke="#A8D6F8" stroke-miterlimit="10" stroke-linecap="round" stroke-linejoin="round"/>
<path d="M338.931 208.295V213.567L336.258 215.133L343.963 219.518L344.015 208.817L340.975 207.147" stroke="#A8D6F8" stroke-miterlimit="10" stroke-linecap="round" stroke-linejoin="round"/>
<path d="M281.28 228.862L280.022 228.131L267.182 220.614L259.897 216.386L259.687 216.282L256.857 214.664L256.542 214.455L253.293 212.576L243.859 207.147L232.119 200.413L230.862 199.682L230.442 201.04L230.39 201.196L227.036 212.262L277.402 241.285L281.28 229.018V228.862Z" stroke="#A8D6F8" stroke-miterlimit="10" stroke-linecap="round" stroke-linejoin="round"/>
<path d="M251.039 167.476L236.574 179.325L237.832 180.056L249.415 186.789L251.092 187.729L251.301 187.833L261.888 193.941L271.951 199.787L274.781 201.405L285.735 207.721L286.993 208.4L301.458 196.655L251.039 167.476Z" stroke="#A8D6F8" stroke-miterlimit="10" stroke-linecap="round" stroke-linejoin="round"/>
<path d="M270.169 153.695L265.819 151.137L265.662 151.189L256.281 158.341L251.04 167.476L301.458 196.655L306.647 187.468L316.08 180.317L270.169 153.695Z" stroke="#A8D6F8" stroke-miterlimit="10" stroke-linecap="round" stroke-linejoin="round"/>
<path d="M374.884 186.789L409.475 166.849L423.678 158.654L444.485 146.544L456.696 139.445L469.956 131.771L471.738 130.727L471.685 76.8057L321.269 163.822L321.216 217.691H321.426L364.769 192.688L374.884 186.789Z" stroke="#A8D6F8" stroke-miterlimit="10" stroke-linecap="round" stroke-linejoin="round"/>
<path d="M309.424 195.507L301.458 200.205V217.065L309.477 212.576L309.529 212.21L309.424 195.507Z" stroke="#A8D6F8" stroke-miterlimit="10" stroke-linecap="round" stroke-linejoin="round"/>
<path d="M315.556 225.208L298.575 234.865" stroke="#A8D6F8" stroke-miterlimit="10" stroke-linecap="round" stroke-linejoin="round"/>
<path d="M289.089 224.216L291.552 222.807" stroke="#A8D6F8" stroke-miterlimit="10" stroke-linecap="round" stroke-linejoin="round"/>
<path d="M292.601 257.832L298.523 234.865" stroke="#A8D6F8" stroke-miterlimit="10" stroke-linecap="round" stroke-linejoin="round"/>
<path d="M289.351 255.953L292.6 257.832" stroke="#A8D6F8" stroke-miterlimit="10" stroke-linecap="round" stroke-linejoin="round"/>
<path d="M293.806 253.917L297.213 255.901" stroke="#A8D6F8" stroke-miterlimit="10" stroke-linecap="round" stroke-linejoin="round"/>
<path d="M309.267 228.914L312.936 231.054" stroke="#A8D6F8" stroke-miterlimit="10" stroke-linecap="round" stroke-linejoin="round"/>
<path d="M345.744 162.83L345.692 192.583" stroke="#A8D6F8" stroke-miterlimit="10" stroke-linecap="round" stroke-linejoin="round"/>
<path d="M372.002 148.475L371.949 178.229" stroke="#A8D6F8" stroke-miterlimit="10" stroke-linecap="round" stroke-linejoin="round"/>
<path d="M424.569 117.156L424.517 146.909" stroke="#A8D6F8" stroke-miterlimit="10" stroke-linecap="round" stroke-linejoin="round"/>
<path d="M450.774 101.496L450.722 131.249" stroke="#A8D6F8" stroke-miterlimit="10" stroke-linecap="round" stroke-linejoin="round"/>
<path d="M398.364 132.815L398.312 162.569" stroke="#A8D6F8" stroke-miterlimit="10" stroke-linecap="round" stroke-linejoin="round"/>
<path d="M376.876 186.006L380.125 187.886" stroke="#A8D6F8" stroke-miterlimit="10" stroke-linecap="round" stroke-linejoin="round"/>
</g>
<path d="M226.782 63.575L161.753 102.397" stroke="#A8D6F8" stroke-miterlimit="10" stroke-linecap="round"/>
<path d="M52.7681 157.121L1 188" stroke="#A8D6F8" stroke-miterlimit="10" stroke-linecap="round"/>
<path d="M4.63281 60.8503L53.6763 89.9131" stroke="#A8D6F8" stroke-miterlimit="10" stroke-linecap="round"/>
<path d="M71.0482 144.406C68.5029 144.406 66.0733 143.834 64.1065 142.689L37.8435 127.243C35.761 126.098 34.604 124.382 34.604 122.551C34.604 120.721 35.761 119.119 37.7278 117.86L63.7594 102.528C67.693 100.239 73.8249 100.239 77.7586 102.528L104.022 117.975C106.104 119.233 107.261 120.835 107.261 122.666C107.261 124.497 106.104 126.098 104.137 127.357L77.99 142.689C76.0231 143.834 73.4778 144.406 71.0482 144.406Z" fill="#D8E8F5"/>
<path d="M164.594 144.406C162.049 144.406 159.619 143.834 157.652 142.689L131.389 127.243C129.307 126.098 128.15 124.382 128.15 122.551C128.15 120.721 129.307 119.119 131.274 117.86L157.305 102.528C161.239 100.239 167.371 100.239 171.304 102.528L197.567 117.975C199.65 119.233 200.807 120.835 200.807 122.666C200.807 124.497 199.65 126.098 197.683 127.357L171.536 142.689C169.569 143.834 167.024 144.406 164.594 144.406Z" fill="#D8E8F5"/>
<path d="M118.275 168.019C115.73 168.019 113.3 167.447 111.334 166.303L85.0705 150.856C82.988 149.712 81.8311 147.996 81.8311 146.165C81.8311 144.334 82.988 142.732 84.9548 141.474L110.986 126.141C114.92 123.853 121.052 123.853 124.986 126.141L151.249 141.588C153.331 142.847 154.488 144.449 154.488 146.279C154.488 148.11 153.331 149.712 151.364 150.971L125.217 166.303C123.25 167.447 120.705 168.019 118.275 168.019Z" fill="#D8E8F5"/>
<path d="M115.761 188C108.363 188 100.892 186.25 95.0889 182.822L17.6951 136.657C11.6022 133.01 8.26562 128.051 8.26562 122.581C8.26562 117.184 11.6022 112.152 17.6225 108.579L94.5086 62.4136C106.042 55.4852 124.175 55.4852 135.781 62.4136L213.174 108.579C219.267 112.225 222.604 117.184 222.604 122.654C222.604 128.051 219.267 133.083 213.247 136.657L136.361 182.822C130.558 186.25 123.16 188 115.761 188Z" stroke="#A8D6F8" stroke-miterlimit="10"/>
<g clip-path="url(#clip1)">
<path d="M135.779 17.3469V25.0667H101.267V17.3469H90.0049V44.6841V66.7537V94.0909C90.0049 95.4532 90.9131 96.8155 92.5479 97.7237L113.164 109.894C114.708 110.802 116.706 111.256 118.614 111.256C120.612 111.256 122.519 110.802 124.063 109.894L144.498 97.8146C146.042 96.9063 146.95 95.544 146.95 94.1817V66.8445V44.7749V17.3469H135.779Z" fill="url(#paint0_linear)"/>
<path d="M118.614 34.6029C116.616 34.6029 114.708 34.1488 113.164 33.2406L92.5479 20.9797C90.9131 20.0715 90.0049 18.7092 90.0049 17.256C90.0049 15.8029 90.9131 14.5314 92.4571 13.5324L112.892 1.36232C115.98 -0.454106 120.793 -0.454106 123.881 1.36232L144.498 13.6232C146.132 14.6222 147.041 15.8937 147.041 17.3469C147.041 18.8 146.132 20.0715 144.588 21.0705L124.063 33.2406C122.519 34.1488 120.521 34.6029 118.614 34.6029Z" fill="url(#paint1_linear)"/>
<path d="M130.239 15.0762C131.51 15.8028 131.51 17.0743 130.239 17.8917L120.793 23.5226C119.522 24.2492 117.433 24.2492 116.07 23.5226L106.534 17.8917C105.263 17.1651 105.263 15.8936 106.534 15.0762L115.98 9.44532C117.251 8.71875 119.34 8.71875 120.702 9.44532L130.239 15.0762Z" fill="url(#paint2_linear)"/>
<path d="M120.793 23.432L127.786 19.2542L120.702 15.0764C119.431 14.3499 117.342 14.3499 115.98 15.0764L109.077 19.2542L116.161 23.432C117.342 24.2494 119.522 24.2494 120.793 23.432Z" fill="white"/>
<path d="M118.614 85.9169C121.338 85.9169 123.881 85.2812 125.879 84.1005L147.041 71.4763V70.3865L125.425 83.3739C123.609 84.4638 121.157 85.0995 118.614 85.0995C116.071 85.0995 113.618 84.4638 111.802 83.3739L90.0049 70.3865V71.4763L111.348 84.1005C113.346 85.2812 115.889 85.9169 118.614 85.9169Z" fill="#ED7180"/>
<path opacity="0.4" d="M118.614 60.5778C121.338 60.5778 123.881 59.942 125.879 58.7614L147.041 46.1372V45.0474L125.425 57.944C123.609 59.0338 121.157 59.6696 118.614 59.6696C116.071 59.6696 113.618 59.0338 111.802 57.944L90.0049 45.0474V46.1372L111.348 58.7614C113.346 59.942 115.889 60.5778 118.614 60.5778Z" fill="white"/>
</g>
<g clip-path="url(#clip2)">
<path d="M88.5517 43.6851V51.4049H54.0397V43.6851H42.7778V71.0223V93.0918V120.429C42.7778 121.791 43.686 123.154 45.3208 124.062L65.9373 136.232C67.4812 137.14 69.4793 137.594 71.3865 137.594C73.3846 137.594 75.2918 137.14 76.8358 136.232L97.2706 124.153C98.8145 123.244 99.7228 121.882 99.7228 120.52V93.1826V71.1131V43.6851H88.5517Z" fill="url(#paint3_linear)"/>
<path d="M71.3865 60.941C69.3885 60.941 67.4812 60.4869 65.9373 59.5787L45.3208 47.3178C43.686 46.4096 42.7778 45.0473 42.7778 43.5942C42.7778 42.141 43.686 40.8695 45.23 39.8705L65.6648 27.7005C68.7527 25.884 73.5662 25.884 76.6542 27.7005L97.2706 39.9613C98.9054 40.9604 99.8136 42.2319 99.8136 43.685C99.8136 45.1381 98.9054 46.4096 97.3614 47.4087L76.8358 59.5787C75.2918 60.4869 73.2938 60.941 71.3865 60.941Z" fill="url(#paint4_linear)"/>
<path d="M83.0115 41.4144C84.283 42.1409 84.283 43.4124 83.0115 44.2298L73.5661 49.8607C72.2946 50.5873 70.2057 50.5873 68.8434 49.8607L59.3071 44.2298C58.0356 43.5033 58.0356 42.2318 59.3071 41.4144L68.7525 35.7835C70.024 35.0569 72.1129 35.0569 73.4753 35.7835L83.0115 41.4144Z" fill="url(#paint5_linear)"/>
<path d="M73.566 49.7701L80.5593 45.5923L73.4752 41.4146C72.2037 40.688 70.1148 40.688 68.7525 41.4146L61.8501 45.5923L68.9342 49.7701C70.1148 50.5875 72.2945 50.5875 73.566 49.7701Z" fill="white"/>
<path opacity="0.4" d="M71.3865 112.255C74.1112 112.255 76.6542 111.619 78.6522 110.439L99.8136 97.8145V96.7246L78.1981 109.712C76.3817 110.802 73.9295 111.438 71.3865 111.438C68.8435 111.438 66.3914 110.802 64.5749 109.712L42.7778 96.7246V97.8145L64.1208 110.439C66.1189 111.619 68.6619 112.255 71.3865 112.255Z" fill="white"/>
<path opacity="0.4" d="M71.3865 86.9159C74.1112 86.9159 76.6542 86.2802 78.6522 85.0995L99.8136 72.4754V71.3855L78.1981 84.2821C76.3817 85.372 73.9295 86.0077 71.3865 86.0077C68.8435 86.0077 66.3914 85.372 64.5749 84.2821L42.7778 71.3855V72.4754L64.1208 85.0995C66.1189 86.2802 68.6619 86.9159 71.3865 86.9159Z" fill="white"/>
</g>
<g clip-path="url(#clip3)">
<path d="M183.006 43.6851V51.4049H148.494V43.6851H137.232V71.0223V93.0918V120.429C137.232 121.791 138.14 123.154 139.775 124.062L160.391 136.232C161.935 137.14 163.933 137.594 165.841 137.594C167.839 137.594 169.746 137.14 171.29 136.232L191.725 124.153C193.269 123.244 194.177 121.882 194.177 120.52V93.1826V71.1131V43.6851H183.006Z" fill="url(#paint6_linear)"/>
<path d="M165.841 60.941C163.843 60.941 161.935 60.4869 160.391 59.5787L139.775 47.3178C138.14 46.4096 137.232 45.0473 137.232 43.5942C137.232 42.141 138.14 40.8695 139.684 39.8705L160.119 27.7005C163.207 25.884 168.02 25.884 171.108 27.7005L191.725 39.9613C193.359 40.9604 194.268 42.2319 194.268 43.685C194.268 45.1381 193.359 46.4096 191.816 47.4087L171.29 59.5787C169.746 60.4869 167.748 60.941 165.841 60.941Z" fill="url(#paint7_linear)"/>
<path d="M177.466 41.4144C178.737 42.1409 178.737 43.4124 177.466 44.2298L168.02 49.8607C166.749 50.5873 164.66 50.5873 163.297 49.8607L153.761 44.2298C152.49 43.5033 152.49 42.2318 153.761 41.4144L163.207 35.7835C164.478 35.0569 166.567 35.0569 167.929 35.7835L177.466 41.4144Z" fill="url(#paint8_linear)"/>
<path d="M168.02 49.7701L175.013 45.5923L167.929 41.4146C166.658 40.688 164.569 40.688 163.207 41.4146L156.304 45.5923L163.388 49.7701C164.569 50.5875 166.749 50.5875 168.02 49.7701Z" fill="white"/>
<path opacity="0.4" d="M165.841 112.255C168.565 112.255 171.108 111.619 173.106 110.439L194.268 97.8145V96.7246L172.652 109.712C170.836 110.802 168.384 111.438 165.841 111.438C163.298 111.438 160.845 110.802 159.029 109.712L137.232 96.7246V97.8145L158.575 110.439C160.573 111.619 163.116 112.255 165.841 112.255Z" fill="white"/>
<path opacity="0.4" d="M165.841 86.9159C168.565 86.9159 171.108 86.2802 173.106 85.0995L194.268 72.4754V71.3855L172.652 84.2821C170.836 85.372 168.384 86.0077 165.841 86.0077C163.298 86.0077 160.845 85.372 159.029 84.2821L137.232 71.3855V72.4754L158.575 85.0995C160.573 86.2802 163.116 86.9159 165.841 86.9159Z" fill="white"/>
</g>
<g clip-path="url(#clip4)">
<path d="M135.779 68.2068V75.9266H101.267V68.2068H90.0049V95.544V117.614V144.951C90.0049 146.313 90.9131 147.675 92.5479 148.584L113.164 160.754C114.708 161.662 116.706 162.116 118.614 162.116C120.612 162.116 122.519 161.662 124.063 160.754L144.498 148.674C146.042 147.766 146.95 146.404 146.95 145.042V117.704V95.6348V68.2068H135.779Z" fill="url(#paint9_linear)"/>
<path d="M118.614 85.4628C116.616 85.4628 114.708 85.0087 113.164 84.1004L92.5479 71.8396C90.9131 70.9314 90.0049 69.569 90.0049 68.1159C90.0049 66.6628 90.9131 65.3913 92.4571 64.3922L112.892 52.2222C115.98 50.4058 120.793 50.4058 123.881 52.2222L144.498 64.4831C146.132 65.4821 147.041 66.7536 147.041 68.2067C147.041 69.6599 146.132 70.9314 144.588 71.9304L124.063 84.1004C122.519 85.0087 120.521 85.4628 118.614 85.4628Z" fill="url(#paint10_linear)"/>
<path d="M130.239 65.9361C131.51 66.6627 131.51 67.9342 130.239 68.7516L120.793 74.3825C119.522 75.109 117.433 75.109 116.07 74.3825L106.534 68.7516C105.263 68.025 105.263 66.7535 106.534 65.9361L115.98 60.3052C117.251 59.5786 119.34 59.5786 120.702 60.3052L130.239 65.9361Z" fill="url(#paint11_linear)"/>
<path d="M120.793 74.2918L127.786 70.1141L120.702 65.9363C119.431 65.2097 117.342 65.2097 115.98 65.9363L109.077 70.1141L116.161 74.2918C117.342 75.1092 119.522 75.1092 120.793 74.2918Z" fill="white"/>
<path opacity="0.4" d="M118.614 136.777C121.338 136.777 123.881 136.141 125.879 134.96L147.041 122.336V121.246L125.425 134.234C123.609 135.324 121.157 135.959 118.614 135.959C116.071 135.959 113.618 135.324 111.802 134.234L90.0049 121.246V122.336L111.348 134.96C113.346 136.141 115.889 136.777 118.614 136.777Z" fill="white"/>
<path opacity="0.4" d="M118.614 111.438C121.338 111.438 123.881 110.802 125.879 109.621L147.041 96.9971V95.9072L125.425 108.804C123.609 109.894 121.157 110.529 118.614 110.529C116.071 110.529 113.618 109.894 111.802 108.804L90.0049 95.9072V96.9971L111.348 109.621C113.346 110.802 115.889 111.438 118.614 111.438Z" fill="white"/>
</g>
<defs>
<linearGradient id="paint0_linear" x1="157.477" y1="-4.80147" x2="82.4691" y2="43.0521" gradientUnits="userSpaceOnUse">
<stop offset="0.0980392" stop-color="#88EDF2"/>
<stop offset="0.2775" stop-color="#65B4EE"/>
<stop offset="0.4929" stop-color="#4076E9"/>
<stop offset="0.651" stop-color="#284FE6"/>
<stop offset="0.7333" stop-color="#1F40E5"/>
</linearGradient>
<linearGradient id="paint1_linear" x1="157.584" y1="-8.16106" x2="131.207" y2="37.5825" gradientUnits="userSpaceOnUse">
<stop offset="0.0980392" stop-color="#88EDF2"/>
<stop offset="0.2775" stop-color="#65B4EE"/>
<stop offset="0.4929" stop-color="#4076E9"/>
<stop offset="0.651" stop-color="#284FE6"/>
<stop offset="0.7333" stop-color="#1F40E5"/>
</linearGradient>
<linearGradient id="paint2_linear" x1="127.538" y1="-4.22072" x2="128.071" y2="33.0548" gradientUnits="userSpaceOnUse">
<stop offset="0.0980392" stop-color="#88EDF2"/>
<stop offset="0.2775" stop-color="#65B4EE"/>
<stop offset="0.4929" stop-color="#4076E9"/>
<stop offset="0.651" stop-color="#284FE6"/>
<stop offset="0.7333" stop-color="#1F40E5"/>
</linearGradient>
<linearGradient id="paint3_linear" x1="110.25" y1="21.5367" x2="35.242" y2="69.3902" gradientUnits="userSpaceOnUse">
<stop offset="0.0980392" stop-color="#88EDF2"/>
<stop offset="0.2775" stop-color="#65B4EE"/>
<stop offset="0.4929" stop-color="#4076E9"/>
<stop offset="0.651" stop-color="#284FE6"/>
<stop offset="0.7333" stop-color="#1F40E5"/>
</linearGradient>
<linearGradient id="paint4_linear" x1="110.357" y1="18.1771" x2="83.9797" y2="63.9207" gradientUnits="userSpaceOnUse">
<stop offset="0.0980392" stop-color="#88EDF2"/>
<stop offset="0.2775" stop-color="#65B4EE"/>
<stop offset="0.4929" stop-color="#4076E9"/>
<stop offset="0.651" stop-color="#284FE6"/>
<stop offset="0.7333" stop-color="#1F40E5"/>
</linearGradient>
<linearGradient id="paint5_linear" x1="80.3106" y1="22.1174" x2="80.844" y2="59.3929" gradientUnits="userSpaceOnUse">
<stop offset="0.0980392" stop-color="#88EDF2"/>
<stop offset="0.2775" stop-color="#65B4EE"/>
<stop offset="0.4929" stop-color="#4076E9"/>
<stop offset="0.651" stop-color="#284FE6"/>
<stop offset="0.7333" stop-color="#1F40E5"/>
</linearGradient>
<linearGradient id="paint6_linear" x1="204.704" y1="21.5367" x2="129.696" y2="69.3902" gradientUnits="userSpaceOnUse">
<stop offset="0.0980392" stop-color="#88EDF2"/>
<stop offset="0.2775" stop-color="#65B4EE"/>
<stop offset="0.4929" stop-color="#4076E9"/>
<stop offset="0.651" stop-color="#284FE6"/>
<stop offset="0.7333" stop-color="#1F40E5"/>
</linearGradient>
<linearGradient id="paint7_linear" x1="204.811" y1="18.1771" x2="178.434" y2="63.9207" gradientUnits="userSpaceOnUse">
<stop offset="0.0980392" stop-color="#88EDF2"/>
<stop offset="0.2775" stop-color="#65B4EE"/>
<stop offset="0.4929" stop-color="#4076E9"/>
<stop offset="0.651" stop-color="#284FE6"/>
<stop offset="0.7333" stop-color="#1F40E5"/>
</linearGradient>
<linearGradient id="paint8_linear" x1="174.765" y1="22.1174" x2="175.298" y2="59.3929" gradientUnits="userSpaceOnUse">
<stop offset="0.0980392" stop-color="#88EDF2"/>
<stop offset="0.2775" stop-color="#65B4EE"/>
<stop offset="0.4929" stop-color="#4076E9"/>
<stop offset="0.651" stop-color="#284FE6"/>
<stop offset="0.7333" stop-color="#1F40E5"/>
</linearGradient>
<linearGradient id="paint9_linear" x1="157.477" y1="46.0584" x2="82.4691" y2="93.912" gradientUnits="userSpaceOnUse">
<stop offset="0.0980392" stop-color="#88EDF2"/>
<stop offset="0.2775" stop-color="#65B4EE"/>
<stop offset="0.4929" stop-color="#4076E9"/>
<stop offset="0.651" stop-color="#284FE6"/>
<stop offset="0.7333" stop-color="#1F40E5"/>
</linearGradient>
<linearGradient id="paint10_linear" x1="157.584" y1="42.6988" x2="131.207" y2="88.4424" gradientUnits="userSpaceOnUse">
<stop offset="0.0980392" stop-color="#88EDF2"/>
<stop offset="0.2775" stop-color="#65B4EE"/>
<stop offset="0.4929" stop-color="#4076E9"/>
<stop offset="0.651" stop-color="#284FE6"/>
<stop offset="0.7333" stop-color="#1F40E5"/>
</linearGradient>
<linearGradient id="paint11_linear" x1="127.538" y1="46.6391" x2="128.071" y2="83.9147" gradientUnits="userSpaceOnUse">
<stop offset="0.0980392" stop-color="#88EDF2"/>
<stop offset="0.2775" stop-color="#65B4EE"/>
<stop offset="0.4929" stop-color="#4076E9"/>
<stop offset="0.651" stop-color="#284FE6"/>
<stop offset="0.7333" stop-color="#1F40E5"/>
</linearGradient>
<clipPath id="clip0">
<rect width="249" height="216" fill="white" transform="translate(223 47)"/>
</clipPath>
<clipPath id="clip1">
<rect width="56.9449" height="111.438" fill="white" transform="translate(90.0049)"/>
</clipPath>
<clipPath id="clip2">
<rect width="56.9449" height="111.438" fill="white" transform="translate(42.7778 26.3381)"/>
</clipPath>
<clipPath id="clip3">
<rect width="56.9449" height="111.438" fill="white" transform="translate(137.232 26.3381)"/>
</clipPath>
<clipPath id="clip4">
<rect width="56.9449" height="111.438" fill="white" transform="translate(90.0049 50.8599)"/>
</clipPath>
</defs>
</svg>
