<svg width="46" height="46" viewBox="0 0 46 46" fill="none" xmlns="http://www.w3.org/2000/svg">
<circle r="22.5" transform="matrix(-1 0 0 1 23 23)" fill="white" stroke="#BDE3FE"/>
<path d="M30 12L25 17V28L30 23.5V12ZM32 16V29.5C30.9 29.15 29.7 29 28.5 29C26.8 29 24.35 29.65 23 30.5V17C21.55 15.9 19.45 15.5 17.5 15.5C15.55 15.5 13.45 15.9 12 17V31.65C12 31.9 12.25 32.15 12.5 32.15C12.6 32.15 12.65 32.1 12.75 32.1C14.1 31.45 16.05 31 17.5 31C19.45 31 21.55 31.4 23 32.5C24.35 31.65 26.8 31 28.5 31C30.15 31 31.85 31.3 33.25 32.05C33.35 32.1 33.4 32.1 33.5 32.1C33.75 32.1 34 31.85 34 31.6V17C33.4 16.55 32.75 16.25 32 16ZM21 29.41C19.75 29.09 18.5 29 17.5 29C16.44 29 15.18 29.19 14 29.5V18.13C14.91 17.73 16.14 17.5 17.5 17.5C18.86 17.5 20.09 17.73 21 18.13V29.41Z" fill="#1F40E5"/>
</svg>
