<svg width="46" height="46" viewBox="0 0 46 46" fill="none" xmlns="http://www.w3.org/2000/svg">
<circle r="22.5" transform="matrix(-1 0 0 1 23 23)" fill="white" stroke="#BDE3FE"/>
<path d="M31.9298 17.8001C31.9298 17.4798 31.8726 17.1751 31.7912 16.8794L33.3999 15.9507L32.5338 14.4495L30.9351 15.373C30.5016 14.931 29.9478 14.6164 29.3301 14.4557V12.6001H27.5961V14.4565C26.9792 14.6164 26.4261 14.931 25.9927 15.373L24.3932 14.4495L23.5264 15.9507L25.1358 16.88C25.0544 17.1751 24.9964 17.4798 24.9964 17.8001C24.9964 18.1209 25.0544 18.4257 25.1358 18.7197L23.5264 19.649L24.3932 21.151L25.9927 20.2269C26.4261 20.6679 26.9792 20.9841 27.5961 21.144V22.9993H29.3301V21.144C29.9478 20.9841 30.5016 20.6687 30.9351 20.2269L32.5338 21.151L33.3999 19.649L31.791 18.7197C31.8726 18.4259 31.9298 18.1212 31.9298 17.8001ZM28.463 19.5333C27.5062 19.5333 26.7301 18.7569 26.7301 17.8001C26.7301 16.8428 27.5062 16.0664 28.463 16.0664C29.4216 16.0664 30.1969 16.8428 30.1969 17.8001C30.1969 18.7569 29.4213 19.5333 28.463 19.5333Z" fill="#1F40E5"/>
<path d="M14.333 24.0319V20.3999H12.6001V18.6663H16.0667V22.6827C16.641 22.8679 17.1933 23.1024 17.7234 23.3738L20.5678 20.5302L25.4696 25.4333L22.6262 28.2759C22.899 28.807 23.1319 29.3585 23.3186 29.9334H27.3335V33.3999H25.5998V31.6665H21.9687C21.7219 30.3249 21.1978 29.0813 20.4529 27.9992L23.0183 25.4335L20.5678 22.9815L18.0016 25.5485C16.9197 24.8028 15.6751 24.2786 14.333 24.0319Z" fill="#1F40E5"/>
<path d="M12.6001 27.3313C15.9518 27.3313 18.6667 30.0501 18.6667 33.4H20.4004C20.4004 29.0926 16.9075 25.5979 12.6001 25.5979V27.3313Z" fill="#1F40E5"/>
<path d="M12.6001 30.7986C14.0358 30.7986 15.1998 31.9636 15.1998 33.3999H16.9335C16.9335 31.0073 14.9934 29.0659 12.6001 29.0659V30.7986Z" fill="#1F40E5"/>
</svg>
