<svg width="46" height="46" viewBox="0 0 46 46" fill="none" xmlns="http://www.w3.org/2000/svg">
<circle r="22.5" transform="matrix(-1 0 0 1 23 23)" fill="white" stroke="#BDE3FE"/>
<path d="M31 19.1998H20.6019V16.7998C20.6018 16.1864 20.8366 15.5963 21.2579 15.1506C21.6793 14.7049 22.2553 14.4374 22.8677 14.4031C23.4801 14.3688 24.0824 14.5702 24.5509 14.966C25.0194 15.3619 25.3186 15.922 25.3871 16.5316C25.4221 16.8479 25.5812 17.1374 25.8297 17.3364C26.0781 17.5354 26.3953 17.6275 26.7117 17.5926C27.028 17.5576 27.3176 17.3984 27.5165 17.15C27.7155 16.9016 27.8077 16.5843 27.7727 16.268C27.6367 15.0486 27.0389 13.9276 26.1021 13.1353C25.1654 12.3429 23.9608 11.9393 22.7358 12.0074C21.5108 12.0755 20.3583 12.61 19.5151 13.5013C18.6719 14.3925 18.202 15.5728 18.2019 16.7998V19.1998H15C14.4697 19.2003 13.9614 19.4112 13.5864 19.7862C13.2115 20.1611 13.0006 20.6695 13 21.1998V32.3998C13.0006 32.93 13.2115 33.4384 13.5864 33.8133C13.9614 34.1883 14.4697 34.3992 15 34.3998H31C31.5303 34.3992 32.0386 34.1883 32.4136 33.8133C32.7885 33.4384 32.9994 32.93 33 32.3998V21.1998C32.9994 20.6695 32.7885 20.1611 32.4136 19.7862C32.0386 19.4112 31.5303 19.2003 31 19.1998ZM30.6 31.9998H15.4V21.5998H30.6V31.9998Z" fill="#1F40E5"/>
</svg>
