<svg id="Capa_1" enable-background="new 0 0 512 512" height="80" viewBox="0 0 512 512" width="80" xmlns="http://www.w3.org/2000/svg"><g><path d="m498.778 174.983v-55.312h-37.345c-2.698-10.805-6.935-21.044-12.647-30.567l26.396-26.397-39.11-39.111-26.397 26.397c-9.525-5.714-19.765-9.951-30.567-12.648v-37.345h-55.312v37.346c-10.805 2.698-21.044 6.935-30.566 12.647l-26.398-26.397-39.111 39.11 26.398 26.398c-5.713 9.524-9.951 19.763-12.648 30.566h-37.345v31.66c-3.394-.189-6.798-.293-10.188-.293-51.911 0-101.38 22.356-135.721 61.337l11.255 9.916c6.833-7.756 14.32-14.792 22.34-21.059l8.741 12.257c-16.681 13.185-30.51 29.814-40.405 48.801l-13.728-6.258c4.035-7.826 8.72-15.371 14.039-22.576l-12.067-8.909c-23.009 31.163-35.17 68.154-35.17 106.973 0 99.518 81.068 180.481 180.715 180.481 99.646 0 180.714-80.963 180.714-180.481 0-12.418-1.292-24.775-3.807-36.865h8.263v-37.345c10.802-2.697 21.043-6.935 30.566-12.649l26.398 26.398 39.11-39.11-26.397-26.398c5.713-9.523 9.951-19.765 12.648-30.567zm-294.653-8.624v8.623h37.344c1.328 5.321 3.034 10.505 5.103 15.534-16.764-6.229-34.621-9.479-52.634-9.479-2.322 0-4.629.061-6.925.165l-1.438-14.948c2.779-.14 5.567-.217 8.363-.217 3.39.001 6.795.117 10.187.322zm-100.083 26.189c20.078-12.952 42.794-21.47 66.602-24.853l1.436 14.93c-21.583 3.144-41.699 10.864-59.317 22.151zm-63.874 77.12 13.719 6.254c-6.877 17.208-10.665 35.969-10.665 55.597 0 2.329.061 4.644.167 6.948l-14.954 1.439c-.14-2.778-.212-5.574-.212-8.387-.001-21.5 4.074-42.385 11.945-61.851zm26.95 143.081-12.216 8.712c-12.839-19.723-21.582-42.334-25.028-66.625l14.945-1.438c3.166 21.603 10.939 41.732 22.299 59.351zm-3.481 20.906 12.228-8.72c13.221 16.624 29.882 30.402 48.9 40.253l-6.231 13.669c-21.412-10.972-40.134-26.462-54.897-45.202zm68.547 51.419 6.226-13.659c17.192 6.827 35.928 10.585 55.527 10.585 2.314 0 4.622-.063 6.925-.17l1.439 14.96c-2.771.138-5.559.21-8.364.21-21.817 0-42.659-4.241-61.753-11.926zm142.921-26.822 8.719 12.226c-19.723 12.766-42.32 21.455-66.592 24.88l-1.44-14.975c21.129-3.118 41.373-10.697 59.313-22.131zm20.934 3.52-8.697-12.196c6.071-4.779 11.798-10.041 17.111-15.76l-10.988-10.21c-25.622 27.578-61.899 43.394-99.528 43.394-74.834 0-135.716-60.776-135.716-135.481s60.882-135.481 135.716-135.481c19.758 0 39.304 4.336 57.111 12.582l-23.328 23.328 39.111 39.111 26.397-26.397c2.791 1.674 5.651 3.206 8.561 4.625 9.958 12.982 17.349 27.345 22.006 42.608v2.759h.81c3.335 11.845 5.046 24.206 5.046 36.865 0 29.549-9.358 57.625-27.063 81.191l11.992 9.01c5.014-6.674 9.421-13.674 13.212-20.942l13.603 6.201c-11.016 21.379-26.558 40.067-45.356 54.793zm51.605-68.429-13.595-6.197c6.989-17.516 10.602-36.287 10.602-55.627 0-2.326-.057-4.642-.16-6.948l14.939-1.437c.14 2.79.221 5.586.221 8.385 0 21.847-4.271 42.713-12.007 61.824zm10.366-85.141-14.921 1.435c-.731-5.062-1.718-10.059-2.954-14.983h15.38c1.02 4.476 1.851 8.996 2.495 13.548zm90.039-142.139c-2.527 13.101-7.585 25.324-15.034 36.331l-3.471 5.128 24.426 24.427-17.897 17.897-24.427-24.427-5.129 3.471c-11.006 7.449-23.229 12.508-36.33 15.035l-6.079 1.173v34.557h-25.312v-34.555l-6.079-1.173c-13.103-2.528-25.326-7.587-36.332-15.035l-5.128-3.471-24.426 24.426-17.898-17.898 24.425-24.426-3.471-5.128c-7.45-11.007-12.508-23.231-15.034-36.331l-1.172-6.08h-34.557v-25.312h34.557l1.173-6.079c2.528-13.101 7.586-25.325 15.035-36.331l3.471-5.128-24.426-24.427 17.898-17.897 24.428 24.427 5.128-3.471c11.003-7.448 23.227-12.506 36.33-15.034l6.079-1.173v-34.559h25.312v34.558l6.08 1.172c13.1 2.526 25.323 7.584 36.331 15.034l5.128 3.471 24.426-24.426 17.897 17.898-24.425 24.425 3.471 5.128c7.447 11.004 12.506 23.228 15.034 36.332l1.173 6.079h34.556v25.312h-34.557z" fill="white"/><path d="m351.451 70.328c-17.512 0-34.653 6.039-48.268 17.005l9.41 11.682c11.115-8.954 24.553-13.687 38.857-13.687 34.187 0 62 27.813 62 62s-27.813 62-62 62-62-27.813-62-62c0-14.305 4.733-27.742 13.688-38.858l-11.682-9.409c-10.967 13.614-17.006 30.756-17.006 48.268 0 42.458 34.542 77 77 77s77-34.542 77-77c.001-42.459-34.541-77.001-76.999-77.001z" fill="white"/><path d="m193.936 285.542c10.553 0 19.138 8.63 19.138 19.237h15c0-16.294-11.411-29.956-26.637-33.394v-23.343h-15v23.343c-15.226 3.438-26.638 17.101-26.638 33.395 0 18.88 15.313 34.24 34.137 34.24 10.553 0 19.138 8.631 19.138 19.24 0 10.608-8.585 19.238-19.138 19.238-10.552 0-19.137-8.63-19.137-19.238h-15c0 16.295 11.411 29.957 26.638 33.395v21.556h15v-21.556c15.226-3.438 26.637-17.101 26.637-33.395 0-18.88-15.314-34.24-34.138-34.24-10.552 0-19.137-8.631-19.137-19.24s8.585-19.238 19.137-19.238z" fill="white"/><path d="m251.672 324.02h15v15h-15z" fill="white"/><path d="m116.874 324.02h15v15h-15z" fill="white"/><path d="m361.919 101.499-3.328 14.626c11.108 2.528 20.094 10.871 23.449 21.773l14.336-4.412c-4.929-16.015-18.132-28.272-34.457-31.987z" fill="white"/><path d="m393.473 168.4c2.716-5.408 4.34-11.215 4.825-17.261l-14.951-1.201c-.33 4.11-1.434 8.056-3.278 11.729z" fill="white"/><path d="m295.103 361.541c-4.805 16.211-13.607 31.232-25.458 43.44l10.762 10.448c13.533-13.94 23.588-31.1 29.077-49.626z" fill="white"/><path d="m245.098 423.792 7.284 13.112c5.641-3.134 11.079-6.757 16.162-10.769l-9.295-11.773c-4.451 3.514-9.212 6.687-14.151 9.43z" fill="white"/></g></svg>