<svg width="29" height="37" viewBox="0 0 29 37" fill="none" xmlns="http://www.w3.org/2000/svg">
<path fill-rule="evenodd" clip-rule="evenodd" d="M7 0C6.44772 0 6 0.447714 6 0.999999V31V32V32.0281H2C0.895431 32.0281 0 32.9235 0 34.0281V36.0281H7H9H16V34.0281C16 32.9235 15.1046 32.0281 14 32.0281H10V32V31V1C10 0.447715 9.55228 0 9 0H7Z" fill="#AFC0F7"/>
<path fill-rule="evenodd" clip-rule="evenodd" d="M6 4C4.89543 4 4 4.89543 4 6V17C4 18.1046 4.89543 19 6 19H14.8663C14.9381 19.0047 15.0091 19.0071 15.0791 19.0071H27.7296C28.8817 19.0071 29.3322 18.3617 28.734 17.5674L24.1331 11.5036L28.734 5.43972C29.3322 4.65248 28.8817 4 27.7296 4H18H15.0791H6Z" fill="#1F40E5"/>
</svg>
