<svg width="48" height="48" viewBox="0 0 48 48" fill="none" xmlns="http://www.w3.org/2000/svg">
<rect width="48" height="48" fill="white"/>
<path opacity="0.3" fill-rule="evenodd" clip-rule="evenodd" d="M36.9298 12.7998H30.3332V27.375H28.0589C27.8695 27.375 27.6964 27.482 27.6117 27.6514L26.82 29.2347C26.6538 29.5672 26.8956 29.9583 27.2672 29.9583H30.3332V33.8333H33.8104V29.9583H40.3575C40.5469 29.9583 40.7201 29.8513 40.8048 29.6819L41.5964 28.0986C41.7627 27.7662 41.5209 27.375 41.1492 27.375H33.8104V25.1288H36.6921C37.8012 25.1288 38.8509 25.0198 39.8412 24.802C40.8315 24.5841 41.698 24.2326 42.4407 23.7473C43.1834 23.2621 43.7726 22.6234 44.2083 21.8311C44.644 21.0389 44.8619 20.0585 44.8619 18.89C44.8619 17.8007 44.6737 16.8699 44.2974 16.0974C43.9211 15.325 43.3864 14.6912 42.6932 14.1961C42 13.701 41.1682 13.3445 40.1977 13.1266C39.2272 12.9087 38.1379 12.7998 36.9298 12.7998ZM36.4247 21.9797C37.0387 21.9797 37.623 21.9351 38.1775 21.846C38.7321 21.7569 39.2272 21.5984 39.663 21.3707C40.0987 21.1429 40.4453 20.831 40.7027 20.4348C40.9602 20.0387 41.089 19.5238 41.089 18.89C41.089 18.276 40.9602 17.7759 40.7027 17.3897C40.4453 17.0035 40.1036 16.7015 39.6778 16.4836C39.252 16.2658 38.7668 16.1222 38.2221 16.0529C37.6774 15.9835 37.1179 15.9489 36.5436 15.9489H33.8104V21.9797H36.4247Z" fill="#1F40E5"/>
<path d="M18.4142 13.4142C19.1953 12.6332 19.1953 11.3668 18.4142 10.5858C17.6332 9.80474 16.3668 9.80474 15.5858 10.5858L3.58579 22.5858C2.82863 23.3429 2.80214 24.5621 3.52569 25.3514L14.5257 37.3514C15.2721 38.1657 16.5372 38.2207 17.3515 37.4743C18.1657 36.7279 18.2207 35.4628 17.4743 34.6486L7.76828 24.0602L18.4142 13.4142Z" fill="#1F40E5"/>
</svg>
