<svg width="52" height="49" viewBox="0 0 52 49" fill="none" xmlns="http://www.w3.org/2000/svg">
<path d="M41.245 19.5H41.5C43.9853 19.5 46 21.5147 46 24C46 26.4853 43.9853 28.5 41.5 28.5L41.371 28.5C40.9824 28.5015 40.6318 28.7337 40.4787 29.0909C40.3114 29.4703 40.3886 29.8962 40.6557 30.1693L40.7451 30.2588C41.5901 31.1028 42.0649 32.2482 42.0649 33.4425C42.0649 34.6368 41.5901 35.7822 40.7463 36.6251C39.9022 37.4701 38.7568 37.9449 37.5625 37.9449C36.3682 37.9449 35.2228 37.4701 34.3793 36.6257L34.3011 36.5473C34.0162 36.2686 33.5903 36.1914 33.2109 36.3587C32.8537 36.5118 32.6215 36.8624 32.62 37.245V37.5C32.62 39.9853 30.6053 42 28.12 42C25.6347 42 23.62 39.9853 23.62 37.5C23.611 36.9998 23.358 36.646 22.8944 36.4723C22.5297 36.3114 22.1038 36.3886 21.8307 36.6557L21.7413 36.7451C20.8972 37.5901 19.7518 38.0649 18.5575 38.0649C17.3632 38.0649 16.2178 37.5901 15.3749 36.7463C14.5299 35.9022 14.0551 34.7568 14.0551 33.5625C14.0551 32.3682 14.5299 31.2228 15.3743 30.3793L15.4527 30.3011C15.7314 30.0162 15.8086 29.5903 15.6413 29.2109C15.4882 28.8537 15.1376 28.6215 14.755 28.62H14.5C12.0147 28.62 10 26.6053 10 24.12C10 21.6347 12.0147 19.62 14.5 19.62C15.0002 19.611 15.354 19.358 15.5277 18.8944C15.6886 18.5297 15.6114 18.1038 15.3443 17.8307L15.2549 17.7413C14.4099 16.8972 13.9351 15.7518 13.9351 14.5575C13.9351 13.3632 14.4099 12.2178 15.2537 11.3749C16.0978 10.5299 17.2432 10.0551 18.4375 10.0551C19.6318 10.0551 20.7772 10.5299 21.6207 11.3743L21.6989 11.4527C21.9838 11.7314 22.4097 11.8086 22.7744 11.6477L22.9897 11.6023C23.3008 11.4338 23.4986 11.108 23.5 10.755V10.5C23.5 8.01472 25.5147 6 28 6C30.4853 6 32.5 8.01472 32.5 10.5L32.5 10.629C32.5015 11.0176 32.7337 11.3682 33.1056 11.5277C33.4703 11.6886 33.8962 11.6114 34.1693 11.3443L34.2588 11.2549C35.1028 10.4099 36.2482 9.93514 37.4425 9.93514C38.6368 9.93514 39.7822 10.4099 40.6251 11.2537C41.4701 12.0978 41.9449 13.2432 41.9449 14.4375C41.9449 15.6318 41.4701 16.7772 40.6257 17.6207L40.5473 17.6989C40.2686 17.9838 40.1914 18.4097 40.3523 18.7744L40.3977 18.9897C40.5662 19.3008 40.892 19.4986 41.245 19.5Z" fill="#1F40E5"/>
<path fill-rule="evenodd" clip-rule="evenodd" d="M28 30C31.3137 30 34 27.3137 34 24C34 20.6863 31.3137 18 28 18C24.6863 18 22 20.6863 22 24C22 27.3137 24.6863 30 28 30Z" fill="white"/>
<path d="M18.4884 39.423C18.4881 39.4227 18.4879 39.4224 18.4876 39.4221L18.4884 39.423ZM10.7104 27.907L12.6184 29.5225L10.7104 27.907L3.69572 36.1921C2.04508 38.1417 3.43079 41.1307 5.9853 41.1307H8.47672V43.146C8.47672 44.8029 9.81987 46.146 11.4767 46.146H14.5233C16.1802 46.146 17.5233 44.8029 17.5233 43.146V41.1307H20.0147C22.5692 41.1307 23.955 38.1417 22.3043 36.1921L15.2896 27.907C14.0913 26.4917 11.9087 26.4917 10.7104 27.907Z" fill="white" stroke="white" stroke-width="5"/>
<path opacity="0.3" d="M5.6037 37.8076C5.32859 38.1325 5.55955 38.6307 5.9853 38.6307H10.9767V43.146C10.9767 43.4221 11.2006 43.646 11.4767 43.646H14.5233C14.7995 43.646 15.0233 43.4221 15.0233 43.146V38.6307H20.0147C20.4405 38.6307 20.6714 38.1325 20.3963 37.8076L13.3816 29.5225C13.1819 29.2866 12.8181 29.2866 12.6184 29.5225L5.6037 37.8076Z" fill="#1F40E5"/>
</svg>
