<svg width="48" height="48" viewBox="0 0 48 48" fill="none" xmlns="http://www.w3.org/2000/svg">
<path fill-rule="evenodd" clip-rule="evenodd" d="M34.9142 14.9142L23.8284 26L8 26C6.89543 26 6 25.1046 6 24C6 22.8954 6.89543 22 8 22L22.1716 22L32.0858 12.0858L26.8536 6.85355C26.5386 6.53857 26.7617 6 27.2071 6L39.5 6C39.7761 6 40 6.22386 40 6.5V18.7929C40 19.2383 39.4614 19.4614 39.1464 19.1464L34.9142 14.9142Z" fill="#1F40E5"/>
<path opacity="0.3" fill-rule="evenodd" clip-rule="evenodd" d="M26.3264 30.2916L29.38 27.7079L34.2896 33.5102L39.1465 28.6533C39.4614 28.3383 40 28.5614 40 29.0069V41.4419C40 41.718 39.7762 41.9419 39.5 41.9419H27.065C26.6195 41.9419 26.3965 41.4033 26.7114 41.0883L31.4514 36.3484L26.3264 30.2916Z" fill="#1F40E5"/>
</svg>
