<svg width="48" height="48" viewBox="0 0 48 48" fill="none" xmlns="http://www.w3.org/2000/svg">
<path opacity="0.3" d="M33.9997 36.7995L30.8001 31.9995L27.5999 36.7995H29.3404C28.6487 39.1078 26.5343 40.7998 23.9999 40.7998C22.6343 40.7998 21.4017 40.2915 20.4297 39.4808L19.0986 41.4795C20.4561 42.5398 22.1438 43.1998 23.9999 43.1998C27.8701 43.1998 31.0967 40.4509 31.8388 36.7995H33.9997Z" fill="#1F40E5"/>
<path opacity="0.3" d="M23.9998 27.1997C20.1296 27.1997 16.903 29.9487 16.161 33.6H14L17.1997 38.4L20.3998 33.6H18.6594C19.351 31.2917 21.4674 29.5997 23.9998 29.5997C25.3654 29.5997 26.5981 30.108 27.5701 30.9187L28.9011 28.92C27.5451 27.8592 25.8574 27.1997 23.9998 27.1997Z" fill="#1F40E5"/>
<path d="M23.9998 4.7998C15.164 4.7998 8 7.66541 8 11.1996V27.1995C8 29.1449 10.1763 30.884 13.5997 32.0576V28.662C12.3186 28.134 11.5093 27.5907 11.1997 27.1995V23.0278C14.1186 24.5873 18.7578 25.5996 23.9998 25.5996C29.2438 25.5996 33.8811 24.5873 36.8 23.0278V27.1995C36.4904 27.5902 35.6811 28.134 34.4 28.662V32.0576C37.8234 30.884 39.9997 29.1449 39.9997 27.1995V11.1996C39.9997 7.66541 32.8371 4.7998 23.9998 4.7998ZM36.8 19.1998C35.9715 20.2467 31.5594 22.3995 23.9998 22.3995C16.4403 22.3995 12.0296 20.2467 11.1997 19.1998V15.0281C14.1186 16.5872 18.7578 17.5995 23.9998 17.5995C29.2438 17.5995 33.8811 16.5872 36.8 15.0281V19.1998ZM23.9998 14.3998C16.4403 14.3998 12.0296 12.2465 11.1997 11.1996C12.0296 10.1528 16.4403 7.99949 23.9998 7.99949C31.5594 7.99949 35.9715 10.1528 36.8 11.1996C35.9715 12.2465 31.5594 14.3998 23.9998 14.3998Z" fill="#1F40E5"/>
</svg>
