<svg width="48" height="49" viewBox="0 0 48 49" fill="none" xmlns="http://www.w3.org/2000/svg">
<path opacity="0.3" fill-rule="evenodd" clip-rule="evenodd" d="M37 16.3613C39.7614 16.3613 42 14.1228 42 11.3613C42 8.5999 39.7614 6.36133 37 6.36133C34.2386 6.36133 32 8.5999 32 11.3613C32 14.1228 34.2386 16.3613 37 16.3613ZM37 42.3613C39.7614 42.3613 42 40.1228 42 37.3613C42 34.5999 39.7614 32.3613 37 32.3613C34.2386 32.3613 32 34.5999 32 37.3613C32 40.1228 34.2386 42.3613 37 42.3613ZM16 37.3613C16 40.1228 13.7614 42.3613 11 42.3613C8.23858 42.3613 6 40.1228 6 37.3613C6 34.5999 8.23858 32.3613 11 32.3613C13.7614 32.3613 16 34.5999 16 37.3613Z" fill="#1F40E5"/>
<path fill-rule="evenodd" clip-rule="evenodd" d="M11 16.3613C13.7614 16.3613 16 14.1228 16 11.3613C16 8.5999 13.7614 6.36133 11 6.36133C8.23858 6.36133 6 8.5999 6 11.3613C6 14.1228 8.23858 16.3613 11 16.3613ZM20 9.36133C20 8.80904 20.4477 8.36133 21 8.36133H27C27.5523 8.36133 28 8.80904 28 9.36133V11.3613C28 11.9136 27.5523 12.3613 27 12.3613H21C20.4477 12.3613 20 11.9136 20 11.3613V9.36133ZM21 36.3613C20.4477 36.3613 20 36.809 20 37.3613V39.3613C20 39.9136 20.4477 40.3613 21 40.3613H27C27.5523 40.3613 28 39.9136 28 39.3613V37.3613C28 36.809 27.5523 36.3613 27 36.3613H21ZM8 21.3613C8 20.809 8.44772 20.3613 9 20.3613H11C11.5523 20.3613 12 20.809 12 21.3613V27.3613C12 27.9136 11.5523 28.3613 11 28.3613H9C8.44772 28.3613 8 27.9136 8 27.3613V21.3613ZM37 20.3613C36.4477 20.3613 36 20.809 36 21.3613V27.3613C36 27.9136 36.4477 28.3613 37 28.3613H39C39.5523 28.3613 40 27.9136 40 27.3613V21.3613C40 20.809 39.5523 20.3613 39 20.3613H37Z" fill="#1F40E5"/>
</svg>
