<svg width="46" height="46" viewBox="0 0 46 46" fill="none" xmlns="http://www.w3.org/2000/svg">
<circle r="22.5" transform="matrix(-1 0 0 1 23 23)" fill="white" stroke="#BDE3FE"/>
<path d="M31.6666 13.4666H14.3334C13.3802 13.4666 12.6 14.2468 12.6 15.2V30.8C12.6 31.7531 13.3802 32.5331 14.3334 32.5331H31.6666C32.6197 32.5331 33.4 31.7531 33.4 30.8V15.2C33.4 14.2468 32.6197 13.4666 31.6666 13.4666ZM31.6666 15.2V16.9342H14.3334V15.2H31.6666ZM14.3334 30.8V18.6658H31.6666V30.8H14.3334Z" fill="#1F40E5"/>
<path d="M24.6562 22.4075L26.0968 21.1371C25.1632 20.6694 24.1146 20.4 23 20.4C19.1709 20.4 16.0665 23.5042 16.0665 27.3332H17.7999C17.7999 24.4615 20.1282 22.1332 23 22.1332C23.5795 22.1334 24.1356 22.2322 24.6562 22.4075Z" fill="#1F40E5"/>
<path d="M27.9265 25.6777C28.101 26.1982 28.2 26.7538 28.2 27.3331H29.9335C29.9335 26.2195 29.6644 25.1699 29.1971 24.2375L27.9265 25.6777Z" fill="#1F40E5"/>
<path d="M28.2094 22.7377L27.5966 22.1251L23.5476 25.6965C23.3739 25.639 23.1929 25.6 23 25.6C22.0427 25.6 21.2666 26.3753 21.2666 27.3332C21.2666 28.2915 22.0427 29.0669 23 29.0669C23.9573 29.0669 24.7334 28.2915 24.7334 27.3332C24.7334 27.1403 24.6944 26.9593 24.637 26.7859L28.2094 22.7377Z" fill="#1F40E5"/>
</svg>
