<svg width="46" height="46" viewBox="0 0 46 46" fill="none" xmlns="http://www.w3.org/2000/svg">
<circle r="22.5" transform="matrix(-1 0 0 1 23 23)" fill="white" stroke="#BDE3FE"/>
<path d="M33.0382 28.3618L27.833 23.1553C28.32 22.1377 28.6 21.0025 28.6 19.8C28.6 15.4921 25.1079 12 20.8 12C16.4921 12 13 15.4921 13 19.8C13 24.1077 16.4921 27.6 20.8 27.6C22.0035 27.6 23.1377 27.3192 24.1558 26.8333L29.3618 32.0382C30.3766 33.0538 32.0234 33.0538 33.0385 32.0382C34.054 31.0226 34.054 29.3758 33.0382 28.3618ZM14.7334 19.8C14.7334 16.4494 17.4491 13.7334 20.8 13.7334C24.1509 13.7334 26.8666 16.4494 26.8666 19.8C26.8666 21.4518 26.2049 22.9473 25.1334 24.0416V17.2H23.4V25.2753C22.861 25.5317 22.2794 25.7101 21.6666 25.7985V15.4666H19.9334V25.7982C19.3206 25.7098 18.739 25.5317 18.2 25.2751V18.9334H16.4666V24.0419C15.3951 22.9473 14.7334 21.4518 14.7334 19.8ZM31.8126 30.8128C31.4748 31.1511 30.9249 31.1511 30.5872 30.8128L25.6654 25.89C26.1173 25.5278 26.5286 25.1165 26.891 24.6646L31.8126 29.5869C32.1513 29.9241 32.1513 30.4743 31.8126 30.8128Z" fill="#1F40E5"/>
</svg>
