<svg width="46" height="46" viewBox="0 0 46 46" fill="none" xmlns="http://www.w3.org/2000/svg">
<circle r="22.5" transform="matrix(-1 0 0 1 23 23)" fill="white" stroke="#BDE3FE"/>
<path d="M30.7335 28.9324H15.1335V30.6658H30.7335V28.9324Z" fill="#1F40E5"/>
<path d="M22.0671 26.3323V15.9313C22.0671 15.455 21.6768 15.0647 21.2002 15.0647H17.7336C17.2571 15.0647 16.8671 15.455 16.8671 15.9313V26.3323C16.8671 26.8086 17.2571 27.1989 17.7336 27.1989H21.2002C21.6768 27.1989 22.0671 26.8086 22.0671 26.3323ZM18.6002 25.4655V16.7981H20.3336V25.4655H18.6002Z" fill="#1F40E5"/>
<path d="M24.667 27.1989C24.1904 27.1989 23.8002 26.8086 23.8002 26.3323V19.3981C23.8002 18.9215 24.1904 18.5312 24.667 18.5312H28.1336C28.6102 18.5312 29.0002 18.9215 29.0002 19.3981V26.3323C29.0002 26.8086 28.6102 27.1989 28.1336 27.1989H24.667Z" fill="#1F40E5"/>
</svg>
