<svg width="46" height="46" viewBox="0 0 46 46" fill="none" xmlns="http://www.w3.org/2000/svg">
<rect width="46" height="46" fill="white"/>
<circle r="22.5" transform="matrix(-1 0 0 1 23 23)" fill="white" stroke="#BDE3FE"/>
<path fill-rule="evenodd" clip-rule="evenodd" d="M22.9167 28.3333C22.3645 28.3333 21.9167 28.781 21.9167 29.3333V32.6666H19.1667C18.8906 32.6666 18.6667 32.8904 18.6667 33.1666V33.2499C18.6667 33.5261 18.8906 33.7499 19.1667 33.7499H22.9167H23.0834H26.8334C27.1096 33.7499 27.3334 33.5261 27.3334 33.2499V33.1666C27.3334 32.8904 27.1096 32.6666 26.8334 32.6666H24.0834V29.3333C24.0834 28.781 23.6357 28.3333 23.0834 28.3333H22.9167Z" fill="#1F40E5"/>
<path d="M13.1666 16.4167H32.8333V14.4167H13.1666V16.4167ZM32.8333 16.4167V27.4167H34.8333V16.4167H32.8333ZM32.8333 27.4167H13.1666V29.4167H32.8333V27.4167ZM13.1666 27.4167V16.4167H11.1666V27.4167H13.1666ZM13.1666 27.4167H13.1666H11.1666C11.1666 28.5213 12.0621 29.4167 13.1666 29.4167V27.4167ZM32.8333 27.4167V29.4167C33.9379 29.4167 34.8333 28.5213 34.8333 27.4167H32.8333ZM32.8333 16.4167H32.8333H34.8333C34.8333 15.3122 33.9379 14.4167 32.8333 14.4167V16.4167ZM13.1666 14.4167C12.0621 14.4167 11.1666 15.3122 11.1666 16.4167H13.1666V16.4167V14.4167Z" fill="#1F40E5"/>
<rect x="14.3335" y="18.6667" width="10.8333" height="1.08333" rx="0.541667" fill="#1F40E5"/>
<rect x="14.3335" y="20.8335" width="4.33333" height="1.08333" rx="0.541667" fill="#1F40E5"/>
</svg>
