<svg width="46" height="46" viewBox="0 0 46 46" fill="none" xmlns="http://www.w3.org/2000/svg">
<circle r="22.5" transform="matrix(-1 0 0 1 23 23)" fill="white" stroke="#BDE3FE"/>
<path d="M31.6666 13.4666H14.3334C13.3802 13.4666 12.6 14.2468 12.6 15.2V30.8C12.6 31.7529 13.3802 32.5334 14.3334 32.5334H31.6666C32.6197 32.5334 33.4 31.7529 33.4 30.8V15.2C33.4 14.2468 32.6197 13.4666 31.6666 13.4666ZM19.5334 30.8H14.3334V15.2H19.5334V30.8ZM31.6666 30.8H21.2666V15.2H31.6666V30.8Z" fill="#1F40E5"/>
<path d="M17.7999 16.9331H16.0665V18.6665H17.7999V16.9331Z" fill="#1F40E5"/>
<path d="M17.7999 20.3999H16.0665V22.1331H17.7999V20.3999Z" fill="#1F40E5"/>
<path d="M17.7999 23.8665H16.0665V25.5999H17.7999V23.8665Z" fill="#1F40E5"/>
<path d="M17.7999 27.3335H16.0665V29.0667H17.7999V27.3335Z" fill="#1F40E5"/>
<path d="M28.2 16.9331H23V18.6665H28.2V16.9331Z" fill="#1F40E5"/>
<path d="M29.9334 20.3999H24.7334V22.1331H29.9334V20.3999Z" fill="#1F40E5"/>
<path d="M29.9334 23.8665H26.4666V25.5999H29.9334V23.8665Z" fill="#1F40E5"/>
<path d="M28.2 27.3335H23V29.0667H28.2V27.3335Z" fill="#1F40E5"/>
</svg>
