<svg width="46" height="46" viewBox="0 0 46 46" fill="none" xmlns="http://www.w3.org/2000/svg">
<rect width="46" height="46" fill="white"/>
<circle r="22.5" transform="matrix(-1 0 0 1 23 23)" fill="white" stroke="#BDE3FE"/>
<path fill-rule="evenodd" clip-rule="evenodd" d="M22.917 28.3333C22.3647 28.3333 21.917 28.781 21.917 29.3333V32.6666H19.167C18.8908 32.6666 18.667 32.8904 18.667 33.1666V33.2499C18.667 33.5261 18.8909 33.7499 19.167 33.7499H22.917H23.0837H26.8337C27.1098 33.7499 27.3337 33.5261 27.3337 33.2499V33.1666C27.3337 32.8904 27.1098 32.6666 26.8337 32.6666H24.0837V29.3333C24.0837 28.781 23.6359 28.3333 23.0837 28.3333H22.917Z" fill="#1F40E5"/>
<path d="M13.1665 16.4167H32.8332V14.4167H13.1665V16.4167ZM32.8332 16.4167V27.4167H34.8332V16.4167H32.8332ZM32.8332 27.4167H13.1665V29.4167H32.8332V27.4167ZM13.1665 27.4167V16.4167H11.1665V27.4167H13.1665ZM13.1665 27.4167H13.1665H11.1665C11.1665 28.5213 12.0619 29.4167 13.1665 29.4167V27.4167ZM32.8332 27.4167V29.4167C33.9377 29.4167 34.8332 28.5213 34.8332 27.4167H32.8332ZM32.8332 16.4167H32.8332H34.8332C34.8332 15.3122 33.9377 14.4167 32.8332 14.4167V16.4167ZM13.1665 14.4167C12.0619 14.4167 11.1665 15.3122 11.1665 16.4167H13.1665V16.4167V14.4167Z" fill="#1F40E5"/>
<rect x="14.3335" y="18.6667" width="10.8333" height="1.08333" rx="0.541667" fill="#1F40E5"/>
<rect x="14.3335" y="20.8335" width="4.33333" height="1.08333" rx="0.541667" fill="#1F40E5"/>
</svg>
