<svg width="46" height="46" viewBox="0 0 46 46" fill="none" xmlns="http://www.w3.org/2000/svg">
<circle r="22.5" transform="matrix(-1 0 0 1 23 23)" fill="white" stroke="#BDE3FE"/>
<path d="M28.4165 30.9333L26.6834 28.3333L24.95 30.9333H25.8927C25.5181 32.1836 24.3728 33.1001 23 33.1001C22.2603 33.1001 21.5926 32.8248 21.0661 32.3856L20.3451 33.4683C21.0804 34.0426 21.9945 34.4001 23 34.4001C25.0963 34.4001 26.8441 32.9111 27.246 30.9333H28.4165Z" fill="#1F40E5"/>
<path d="M23 25.7332C20.9036 25.7332 19.1559 27.2222 18.7539 29.2H17.5834L19.3165 31.8L21.05 29.2H20.1072C20.4819 27.9497 21.6282 27.0332 23 27.0332C23.7397 27.0332 24.4073 27.3085 24.9338 27.7476L25.6548 26.665C24.9203 26.0904 24.0062 25.7332 23 25.7332Z" fill="#1F40E5"/>
<path d="M23 13.6001C18.2139 13.6001 14.3334 15.1523 14.3334 17.0667V25.7333C14.3334 26.787 15.5122 27.729 17.3665 28.3647V26.5255C16.6726 26.2395 16.2342 25.9452 16.0665 25.7333V23.4736C17.6476 24.3183 20.1605 24.8667 23 24.8667C25.8405 24.8667 28.3523 24.3183 29.9334 23.4736V25.7333C29.7657 25.9449 29.3273 26.2395 28.6334 26.5255V28.3647C30.4877 27.729 31.6665 26.787 31.6665 25.7333V17.0667C31.6665 15.1523 27.7868 13.6001 23 13.6001ZM29.9334 21.4001C29.4846 21.9672 27.0947 23.1333 23 23.1333C18.9052 23.1333 16.5161 21.9672 16.0665 21.4001V19.1404C17.6476 19.9849 20.1605 20.5333 23 20.5333C25.8405 20.5333 28.3523 19.9849 29.9334 19.1404V21.4001ZM23 18.8001C18.9052 18.8001 16.5161 17.6337 16.0665 17.0667C16.5161 16.4996 18.9052 15.3333 23 15.3333C27.0947 15.3333 29.4846 16.4996 29.9334 17.0667C29.4846 17.6337 27.0947 18.8001 23 18.8001Z" fill="#1F40E5"/>
</svg>
