<svg width="46" height="46" viewBox="0 0 46 46" fill="none" xmlns="http://www.w3.org/2000/svg">
<circle r="22.5" transform="matrix(-1 0 0 1 23 23)" fill="white" stroke="#BDE3FE"/>
<path d="M32.5334 13.6001H25.6C25.1234 13.6001 24.7334 13.9904 24.7334 14.4667V19.6667C24.7334 20.1433 25.1234 20.5335 25.6 20.5335H28.2V26.6001H21.2666V24.8667C21.2666 24.3904 20.8766 24.0001 20.4 24.0001H17.8V20.5335H20.4C20.8766 20.5335 21.2666 20.1433 21.2666 19.6667V14.4667C21.2666 13.9904 20.8766 13.6001 20.4 13.6001H13.4666C12.9902 13.6001 12.6 13.9904 12.6 14.4667V19.6667C12.6 20.1433 12.9902 20.5335 13.4666 20.5335H16.0666V24.0001H13.4666C12.9902 24.0001 12.6 24.3904 12.6 24.8667V30.0667C12.6 30.5433 12.9902 30.9335 13.4666 30.9335H20.4C20.8766 30.9335 21.2666 30.5433 21.2666 30.0667V28.3335H28.2V34.4001H29.9334V20.5335H32.5334C33.0097 20.5335 33.4 20.1433 33.4 19.6667V14.4667C33.4 13.9904 33.0097 13.6001 32.5334 13.6001ZM14.3334 18.8001V15.3335H19.5334V18.8001H14.3334ZM19.5334 29.2001H14.3334V25.7335H19.5334V29.2001ZM31.6666 18.8001H26.4666V15.3335H31.6666V18.8001Z" fill="#1F40E5"/>
</svg>
