<svg width="46" height="46" viewBox="0 0 46 46" fill="none" xmlns="http://www.w3.org/2000/svg">
<circle cx="23" cy="23" r="22.5" fill="white" stroke="#BDE3FE"/>
<path d="M14.3334 13.4668H31.6666C32.6198 13.4668 33.4 14.2471 33.4 15.2002V30.8002C33.4 31.7534 32.6198 32.5334 31.6666 32.5334H14.3334C13.3803 32.5334 12.6 31.7534 12.6 30.8002V15.2002C12.6 14.2471 13.3803 13.4668 14.3334 13.4668ZM14.3334 15.2002V16.9344H31.6666V15.2002H14.3334ZM31.6666 30.8002V18.666H14.3334V30.8002H31.6666Z" fill="#1F40E5"/>
<path d="M21.3438 22.4074L19.9032 21.137C20.8368 20.6693 21.8854 20.3999 23 20.3999C26.8291 20.3999 29.9335 23.504 29.9335 27.3331H28.2001C28.2001 24.4614 25.8718 22.1331 23 22.1331C22.4205 22.1333 21.8644 22.2321 21.3438 22.4074Z" fill="#1F40E5"/>
<path d="M18.0735 25.6779C17.899 26.1985 17.8 26.7541 17.8 27.3334H16.0665C16.0665 26.2198 16.3356 25.1702 16.8029 24.2378L18.0735 25.6779Z" fill="#1F40E5"/>
<path d="M17.7906 22.7376L18.4034 22.125L22.4524 25.6964C22.6261 25.6389 22.8071 25.5999 23 25.5999C23.9573 25.5999 24.7334 26.3752 24.7334 27.3331C24.7334 28.2914 23.9573 29.0667 23 29.0667C22.0427 29.0667 21.2666 28.2914 21.2666 27.3331C21.2666 27.1401 21.3056 26.9592 21.363 26.7858L17.7906 22.7376Z" fill="#1F40E5"/>
</svg>
