<svg width="46" height="46" viewBox="0 0 46 46" fill="none" xmlns="http://www.w3.org/2000/svg">
<circle r="22.5" transform="matrix(-1 0 0 1 23 23)" fill="white" stroke="#BDE3FE"/>
<path d="M31.6666 13.4668H14.3334C13.3802 13.4668 12.6 14.2471 12.6 15.2002V30.8002C12.6 31.7534 13.3802 32.5334 14.3334 32.5334H31.6666C32.6197 32.5334 33.4 31.7534 33.4 30.8002V15.2002C33.4 14.2471 32.6197 13.4668 31.6666 13.4668ZM31.6666 15.2002V16.9344H14.3334V15.2002H31.6666ZM14.3334 30.8002V18.666H31.6666V30.8002H14.3334Z" fill="#1F40E5"/>
<path d="M24.6562 22.4074L26.0968 21.137C25.1632 20.6693 24.1146 20.3999 23 20.3999C19.1709 20.3999 16.0665 23.504 16.0665 27.3331H17.7999C17.7999 24.4614 20.1282 22.1331 23 22.1331C23.5795 22.1333 24.1356 22.2321 24.6562 22.4074Z" fill="#1F40E5"/>
<path d="M27.9265 25.6779C28.101 26.1985 28.2 26.7541 28.2 27.3334H29.9335C29.9335 26.2198 29.6644 25.1702 29.1971 24.2378L27.9265 25.6779Z" fill="#1F40E5"/>
<path d="M28.2094 22.7376L27.5966 22.125L23.5476 25.6964C23.3739 25.6389 23.1929 25.5999 23 25.5999C22.0427 25.5999 21.2666 26.3752 21.2666 27.3331C21.2666 28.2914 22.0427 29.0667 23 29.0667C23.9573 29.0667 24.7334 28.2914 24.7334 27.3331C24.7334 27.1401 24.6944 26.9592 24.637 26.7858L28.2094 22.7376Z" fill="#1F40E5"/>
</svg>
