<svg width="48" height="48" viewBox="0 0 48 48" fill="none" xmlns="http://www.w3.org/2000/svg">
<path fill-rule="evenodd" clip-rule="evenodd" d="M24.798 19.3604C24.4681 19.6053 24 19.3698 24 18.9589V16H16C11.5817 16 8 19.5817 8 24V26C8 29.3137 10.6863 32 14 32V36C8.47715 36 4 31.5229 4 26V24C4 17.3726 9.37258 12 16 12H24V8.45849C24 8.04692 24.4695 7.8116 24.7992 8.05789L31.8505 13.3246C32.1187 13.525 32.1181 13.9272 31.8493 14.1267L24.798 19.3604Z" fill="#1F40E5"/>
<path opacity="0.3" fill-rule="evenodd" clip-rule="evenodd" d="M34.0001 12V16C37.3138 16 40.0001 18.6863 40.0001 22V24C40.0001 28.4183 36.4184 32 32.0001 32H24.1167V28.4585C24.1167 28.0469 23.6473 27.8116 23.3175 28.0579L16.2662 33.3246C15.998 33.5249 15.9986 33.9271 16.2674 34.1267L23.3187 39.3604C23.6486 39.6053 24.1167 39.3698 24.1167 38.9589V36H32.0001C38.6275 36 44.0001 30.6274 44.0001 24V22C44.0001 16.4772 39.523 12 34.0001 12Z" fill="#1F40E5"/>
</svg>
