<svg width="46" height="46" viewBox="0 0 46 46" fill="none" xmlns="http://www.w3.org/2000/svg">
<circle r="22.5" transform="matrix(-1 0 0 1 23 23)" fill="white" stroke="#BDE3FE"/>
<path d="M28.4152 30.9333L26.682 28.3333L24.9486 30.9333H25.8914C25.5167 32.1836 24.3714 33.1001 22.9986 33.1001C22.2589 33.1001 21.5912 32.8248 21.0647 32.3856L20.3438 33.4683C21.079 34.0426 21.9932 34.4001 22.9986 34.4001C25.095 34.4001 26.8427 32.9111 27.2447 30.9333H28.4152Z" fill="#1F40E5"/>
<path d="M22.9986 25.7332C20.9022 25.7332 19.1545 27.2222 18.7526 29.2H17.582L19.3152 31.8L21.0486 29.2H20.1059C20.4805 27.9497 21.6269 27.0332 22.9986 27.0332C23.7383 27.0332 24.406 27.3085 24.9325 27.7476L25.6535 26.665C24.919 26.0904 24.0048 25.7332 22.9986 25.7332Z" fill="#1F40E5"/>
<path d="M22.9986 13.6001C18.2125 13.6001 14.332 15.1523 14.332 17.0667V25.7333C14.332 26.787 15.5109 27.729 17.3652 28.3647V26.5255C16.6713 26.2395 16.2329 25.9452 16.0652 25.7333V23.4736C17.6463 24.3183 20.1592 24.8667 22.9986 24.8667C25.8391 24.8667 28.351 24.3183 29.932 23.4736V25.7333C29.7643 25.9449 29.326 26.2395 28.632 26.5255V28.3647C30.4864 27.729 31.6652 26.787 31.6652 25.7333V17.0667C31.6652 15.1523 27.7855 13.6001 22.9986 13.6001ZM29.932 21.4001C29.4833 21.9672 27.0934 23.1333 22.9986 23.1333C18.9039 23.1333 16.5147 21.9672 16.0652 21.4001V19.1404C17.6463 19.9849 20.1592 20.5333 22.9986 20.5333C25.8391 20.5333 28.351 19.9849 29.932 19.1404V21.4001ZM22.9986 18.8001C18.9039 18.8001 16.5147 17.6337 16.0652 17.0667C16.5147 16.4996 18.9039 15.3333 22.9986 15.3333C27.0934 15.3333 29.4833 16.4996 29.932 17.0667C29.4833 17.6337 27.0934 18.8001 22.9986 18.8001Z" fill="#1F40E5"/>
</svg>
