<svg width="40" height="41" viewBox="0 0 40 41" fill="none" xmlns="http://www.w3.org/2000/svg">
<g clip-path="url(#clip0)">
<path d="M36.3314 25.3697L34.8222 1.622C34.7663 0.731978 34.1934 0 33.5576 0H32.9916H32.0903H31.5244C30.8886 0 30.3156 0.731978 30.2597 1.622L28.7506 25.3697C28.6947 26.2597 29.1698 26.9917 29.8056 26.9917H31.2728C31.9087 26.9917 32.4816 26.2597 32.5375 25.3697V25.3447V25.3697C32.5934 26.2597 33.1663 26.9917 33.8021 26.9917H35.2694C35.9122 27 36.3873 26.268 36.3314 25.3697Z" fill="#1F40E5"/>
</g>
<g clip-path="url(#clip1)">
<path d="M23.6849 25.3697L22.1757 1.622C22.1198 0.731978 21.5469 0 20.9111 0H20.3451H19.4438H18.8779C18.2421 0 17.6691 0.731978 17.6133 1.622L16.1041 25.3697C16.0482 26.2597 16.5233 26.9917 17.1591 26.9917H18.6264C19.2622 26.9917 19.8351 26.2597 19.891 25.3697V25.3447V25.3697C19.9469 26.2597 20.5198 26.9917 21.1556 26.9917H22.6229C23.2657 27 23.7408 26.268 23.6849 25.3697Z" fill="#1F40E5"/>
</g>
<g clip-path="url(#clip2)">
<path d="M37.9568 20.9689H27.0978V18.8781V12.4578C27.0978 11.3068 26.3134 10.7155 25.3526 11.1379L15.1018 15.6891C14.952 15.7525 14.811 15.8369 14.6787 15.9425V12.4578C14.6787 11.3068 13.8943 10.7155 12.9335 11.1379L2.66511 15.6891C1.70438 16.1115 0.919922 17.3998 0.919922 18.5613V18.8781V38.1284V38.9098C0.919922 40.0608 1.70438 41.0006 2.66511 41.0006H8.06816H12.9247H15.1018H25.3526H37.9568C38.9175 41.0006 39.702 40.0608 39.702 38.9098V23.0597C39.702 21.9087 38.9175 20.9689 37.9568 20.9689Z" fill="#AFC0F7"/>
<rect x="5.97852" y="25" width="22.7634" height="3" rx="1" fill="#ECF7FF"/>
<rect x="5.97852" y="31" width="22.7634" height="3" rx="1" fill="#ECF7FF"/>
</g>
<defs>
<clipPath id="clip0">
<rect width="7.5878" height="27" fill="white" transform="translate(28.7422)"/>
</clipPath>
<clipPath id="clip1">
<rect width="7.5878" height="27" fill="white" transform="translate(16.0957)"/>
</clipPath>
<clipPath id="clip2">
<rect width="38.7821" height="30" fill="white" transform="translate(0.919922 11)"/>
</clipPath>
</defs>
</svg>
