<svg width="28" height="46" viewBox="0 0 28 46" fill="none" xmlns="http://www.w3.org/2000/svg">
<path opacity="0.3" fill-rule="evenodd" clip-rule="evenodd" d="M8.68383 0.000488281C6.62433 0.000488281 4.95477 1.67004 4.95477 3.72954V27.5997C2.29874 29.2104 0.480469 32.4879 0.480469 36.2691C0.480469 41.6433 4.1535 45.9999 8.6844 45.9999C13.2153 45.9999 16.8883 41.6433 16.8883 36.2691C16.8883 32.4874 15.0695 29.2095 12.4129 27.599V3.72955C12.4129 1.67005 10.7433 0.000488281 8.68383 0.000488281Z" fill="#1F40E5"/>
<rect x="16.8887" y="3.53857" width="3.53848" height="10.4414" rx="1.76924" transform="rotate(-90 16.8887 3.53857)" fill="#AFC0F7"/>
<rect x="16.8887" y="21.2314" width="3.53848" height="10.4414" rx="1.76924" transform="rotate(-90 16.8887 21.2314)" fill="#AFC0F7"/>
<rect x="16.8887" y="12.3857" width="3.53848" height="6.71231" rx="1.76924" transform="rotate(-90 16.8887 12.3857)" fill="#AFC0F7"/>
<path fill-rule="evenodd" clip-rule="evenodd" d="M8.68373 2.6543C7.85993 2.6543 7.1921 3.32212 7.1921 4.14592V30.3335C5.03552 31.0947 3.46289 33.4643 3.46289 36.2695C3.46289 39.6894 5.80027 42.4618 8.68358 42.4618C11.5669 42.4618 13.9043 39.6894 13.9043 36.2695C13.9043 33.4644 12.3318 31.095 10.1754 30.3336V4.14592C10.1754 3.32212 9.50753 2.6543 8.68373 2.6543Z" fill="#1F40E5"/>
</svg>
