<svg width="40" height="41" viewBox="0 0 40 41" fill="none" xmlns="http://www.w3.org/2000/svg">
<path d="M25.5558 19.3895L16.6555 10.4894C16.4497 10.2834 16.1749 10.1699 15.8819 10.1699C15.5889 10.1699 15.3141 10.2834 15.1082 10.4894L14.4528 11.1447C14.0263 11.5717 14.0263 12.2657 14.4528 12.692L21.9266 20.1658L14.4445 27.6478C14.2387 27.8538 14.125 28.1285 14.125 28.4213C14.125 28.7145 14.2387 28.9891 14.4445 29.1953L15.1 29.8504C15.306 30.0564 15.5806 30.1699 15.8736 30.1699C16.1666 30.1699 16.4414 30.0564 16.6473 29.8504L25.5558 20.9422C25.7621 20.7355 25.8755 20.4596 25.8748 20.1663C25.8755 19.8718 25.7621 19.596 25.5558 19.3895Z" fill="white"/>
</svg>
