<svg width="80" height="80" viewBox="0 0 80 80" fill="none" xmlns="http://www.w3.org/2000/svg">
<rect x="36.485" y="42.4863" width="6.03" height="20.1" fill="white"/>
<path d="M29.4501 68.6152V67.5852C29.4501 64.8238 31.6886 62.5852 34.4501 62.5852H44.5501C47.3115 62.5852 49.5501 64.8238 49.5501 67.5852V68.6152H29.4501Z" fill="white"/>
<path d="M6 13C6 12.4477 6.44772 12 7 12H72C72.5523 12 73 12.4477 73 13V51.2C73 51.7523 72.5523 52.2 72 52.2H7C6.44771 52.2 6 51.7523 6 51.2V13Z" fill="#5672EA"/>
<rect x="12.6997" y="28.75" width="13.4" height="3.35" rx="1" fill="white"/>
<rect x="57.5901" y="47.9414" width="17.2671" height="3.35" rx="1" transform="rotate(-45 57.5901 47.9414)" fill="white"/>
<rect x="52.9237" y="38.4648" width="13.4" height="3.35" rx="1" transform="rotate(45 52.9237 38.4648)" fill="white"/>
<rect x="12.6997" y="22.0508" width="33.5" height="3.35" rx="1" fill="white"/>
</svg>
