<svg width="1920" height="914" viewBox="0 0 1920 914" fill="none" xmlns="http://www.w3.org/2000/svg">
 <style>
  path {
   stroke-dashoffset: 0;
   animation: anim-1 4s;
  }
  @keyframes anim-1 {
   from {
    stroke-dashoffset: 1000;
    stroke-dasharray: 1000; 
   }
   to {
    stroke-dashoffset: 0;
   }
   }
 </style>
<path d="M703.329 115.121C727.236 128.927 727.349 151.299 703.591 165.067L529.548 266.231C505.828 280.036 467.218 280.036 443.311 266.231L268.108 165.067C244.201 151.262 244.089 128.927 267.809 115.121L441.852 13.9575C465.572 0.152197 504.219 0.152197 528.089 13.9575L703.329 115.121Z" stroke="#A8D6F8" stroke-miterlimit="10"/>
<path d="M330 717L-7 913" stroke="#A8D6F8" stroke-miterlimit="10" stroke-linecap="round"/>
<path d="M335.55 719.89C335.55 716.523 333.193 712.407 330.275 710.724C327.357 709.04 325 710.387 325 713.792C325 717.196 327.357 721.274 330.275 722.958C333.193 724.641 335.55 723.257 335.55 719.89Z" stroke="#A8D6F8" stroke-miterlimit="10"/>
<path d="M721.325 687.834C721.362 696.888 715.489 705.905 703.591 712.826L529.547 813.99C505.828 827.795 467.218 827.795 443.311 813.99L268.108 712.826C256.173 705.942 250.15 696.888 250.112 687.834" stroke="#A8D6F8" stroke-miterlimit="10"/>
<path d="M586.265 124.774C597.302 131.134 597.377 141.497 586.378 147.858L505.94 194.586C494.979 200.946 477.133 200.946 466.096 194.586L385.172 147.858C374.136 141.497 374.061 131.134 385.06 124.774L465.497 78.0455C476.459 71.6854 494.305 71.6854 505.342 78.0455L586.265 124.774Z" stroke="#A8D6F8" stroke-miterlimit="10"/>
<path d="M408.854 161.812L465.46 128.926C476.422 122.566 494.268 122.566 505.304 128.926L562.546 161.962" stroke="#A8D6F8" stroke-miterlimit="10"/>
<path d="M250.112 689.406V138.691" stroke="#A8D6F8" stroke-miterlimit="10"/>
<path d="M721.325 689.406V138.691" stroke="#A8D6F8" stroke-miterlimit="10"/>
<path d="M721.325 400.692C721.362 409.746 715.489 418.763 703.591 425.684L529.547 526.848C505.828 540.653 467.218 540.653 443.311 526.848L268.108 425.646C256.173 418.763 250.15 409.709 250.112 400.655" stroke="#A8D6F8" stroke-miterlimit="10"/>
<path d="M721.325 531.15C721.362 540.204 715.489 549.221 703.591 556.142L529.547 657.306C505.828 671.111 467.218 671.111 443.311 657.306L268.108 556.142C256.173 549.258 250.15 540.204 250.112 531.15" stroke="#A8D6F8" stroke-miterlimit="10"/>
<path d="M721.325 270.197C721.362 279.251 715.489 288.267 703.591 295.188L529.547 396.352C505.828 410.158 467.218 410.158 443.311 396.352L268.108 295.188C256.173 288.305 250.15 279.251 250.112 270.197" stroke="#A8D6F8" stroke-miterlimit="10"/>
<path d="M387.754 149.766L465.46 104.608C476.422 98.2483 494.268 98.2483 505.305 104.608L583.085 149.541" stroke="#A8D6F8" stroke-miterlimit="10"/>
<path d="M480.088 663.666C480.088 663.591 480.051 663.516 479.976 663.479C479.901 663.441 479.864 663.479 479.864 663.553C479.864 663.628 479.901 663.703 479.976 663.741C480.051 663.778 480.088 663.741 480.088 663.666Z" fill="#A8D6F8"/>
<path d="M291.192 245.355C291.192 241.988 288.834 237.872 285.916 236.189C282.998 234.505 280.641 235.852 280.641 239.257C280.641 242.624 282.998 246.739 285.916 248.423C288.834 250.106 291.192 248.722 291.192 245.355Z" stroke="#A8D6F8" stroke-miterlimit="10"/>
<path d="M308.401 255.119C308.401 251.752 306.044 247.637 303.126 245.953C300.208 244.27 297.851 245.617 297.851 249.021C297.851 252.388 300.208 256.504 303.126 258.187C306.044 259.871 308.401 258.487 308.401 255.119Z" stroke="#A8D6F8" stroke-miterlimit="10"/>
<path d="M324.339 264.51C324.339 261.143 321.982 257.028 319.064 255.344C316.146 253.66 313.789 255.007 313.789 258.412C313.789 261.779 316.146 265.894 319.064 267.578C321.945 269.224 324.339 267.877 324.339 264.51Z" stroke="#A8D6F8" stroke-miterlimit="10"/>
<path d="M443.386 330.506L341.624 271.768C340.165 270.945 339.005 271.806 339.005 273.751C339.005 275.659 340.165 277.904 341.624 278.764L443.386 337.502C444.845 338.325 446.005 337.465 446.005 335.519C446.005 333.574 444.845 331.329 443.386 330.506Z" stroke="#A8D6F8" stroke-miterlimit="10"/>
<path d="M291.192 377.235C291.192 373.868 288.834 369.752 285.916 368.069C282.998 366.385 280.641 367.732 280.641 371.136C280.641 374.504 282.998 378.619 285.916 380.303C288.834 381.986 291.192 380.602 291.192 377.235Z" stroke="#A8D6F8" stroke-miterlimit="10"/>
<path d="M308.401 386.999C308.401 383.632 306.044 379.517 303.126 377.833C300.208 376.15 297.851 377.497 297.851 380.901C297.851 384.268 300.208 388.384 303.126 390.067C306.044 391.751 308.401 390.366 308.401 386.999Z" stroke="#A8D6F8" stroke-miterlimit="10"/>
<path d="M324.339 396.39C324.339 393.023 321.982 388.907 319.064 387.224C316.146 385.54 313.789 386.887 313.789 390.292C313.789 393.659 316.146 397.774 319.064 399.458C321.945 401.104 324.339 399.757 324.339 396.39Z" stroke="#A8D6F8" stroke-miterlimit="10"/>
<path d="M443.386 462.386L341.624 403.648C340.165 402.825 339.005 403.686 339.005 405.631C339.005 407.539 340.165 409.784 341.624 410.644L443.386 469.382C444.845 470.205 446.005 469.345 446.005 467.399C446.005 465.454 444.845 463.209 443.386 462.386Z" stroke="#A8D6F8" stroke-miterlimit="10"/>
<path d="M291.192 509.114C291.192 505.747 288.834 501.632 285.916 499.948C282.998 498.264 280.641 499.611 280.641 503.016C280.641 506.42 282.998 510.498 285.916 512.182C288.834 513.865 291.192 512.481 291.192 509.114Z" stroke="#A8D6F8" stroke-miterlimit="10"/>
<path d="M308.401 518.879C308.401 515.512 306.044 511.396 303.126 509.713C300.208 508.029 297.851 509.376 297.851 512.78C297.851 516.185 300.208 520.263 303.126 521.947C306.044 523.63 308.401 522.246 308.401 518.879Z" stroke="#A8D6F8" stroke-miterlimit="10"/>
<path d="M324.339 528.269C324.339 524.902 321.982 520.787 319.064 519.103C316.146 517.42 313.789 518.767 313.789 522.171C313.789 525.538 316.146 529.654 319.064 531.337C321.945 532.983 324.339 531.637 324.339 528.269Z" stroke="#A8D6F8" stroke-miterlimit="10"/>
<path d="M443.386 594.265L341.624 535.527C340.165 534.704 339.005 535.565 339.005 537.51C339.005 539.418 340.165 541.663 341.624 542.524L443.386 601.262C444.845 602.085 446.005 601.224 446.005 599.279C446.005 597.333 444.845 595.088 443.386 594.265Z" stroke="#A8D6F8" stroke-miterlimit="10"/>
<path d="M524.011 325.829L699.214 224.666" stroke="#A8D6F8" stroke-miterlimit="10" stroke-linecap="round"/>
<path d="M524.011 348.277L699.214 247.113" stroke="#A8D6F8" stroke-miterlimit="10" stroke-linecap="round"/>
<path d="M524.011 456.026L699.214 354.862" stroke="#A8D6F8" stroke-miterlimit="10" stroke-linecap="round"/>
<path d="M524.011 478.473L699.214 377.309" stroke="#A8D6F8" stroke-miterlimit="10" stroke-linecap="round"/>
<path d="M524.011 586.221L699.214 485.058" stroke="#A8D6F8" stroke-miterlimit="10" stroke-linecap="round"/>
<path d="M524.011 608.669L699.214 507.505" stroke="#A8D6F8" stroke-miterlimit="10" stroke-linecap="round"/>
<path d="M316.483 706.69L268.071 678.743C256.136 671.859 250.113 662.805 250.075 653.751" stroke="#A8D6F8" stroke-miterlimit="10"/>
<path d="M721.325 653.789C721.362 662.843 715.489 671.859 703.591 678.781L529.548 779.945C505.828 793.75 467.218 793.75 443.311 779.945L345.814 723.676" stroke="#A8D6F8" stroke-miterlimit="10" stroke-linecap="round"/>
<path d="M291.192 634.073C291.192 630.705 288.834 626.59 285.916 624.906C282.998 623.223 280.641 624.57 280.641 627.974C280.641 631.379 282.998 635.457 285.916 637.14C288.834 638.824 291.192 637.44 291.192 634.073Z" stroke="#A8D6F8" stroke-miterlimit="10"/>
<path d="M308.401 643.837C308.401 640.47 306.044 636.355 303.126 634.671C300.208 632.988 297.851 634.334 297.851 637.739C297.851 641.144 300.208 645.221 303.126 646.905C306.044 648.589 308.401 647.204 308.401 643.837Z" stroke="#A8D6F8" stroke-miterlimit="10"/>
<path d="M324.339 653.228C324.339 649.861 321.982 645.745 319.064 644.062C316.146 642.378 313.789 643.725 313.789 647.13C313.789 650.497 316.146 654.612 319.064 656.296C321.945 657.942 324.339 656.595 324.339 653.228Z" stroke="#A8D6F8" stroke-miterlimit="10"/>
<path d="M443.386 719.224L341.624 660.486C340.165 659.663 339.005 660.523 339.005 662.469C339.005 664.377 340.165 666.622 341.624 667.482L443.386 726.22C444.845 727.043 446.005 726.183 446.005 724.237C446.005 722.292 444.845 720.047 443.386 719.224Z" stroke="#A8D6F8" stroke-miterlimit="10"/>
<path d="M524.011 711.18L699.214 610.016" stroke="#A8D6F8" stroke-miterlimit="10" stroke-linecap="round"/>
<path d="M524.011 733.628L699.214 632.464" stroke="#A8D6F8" stroke-miterlimit="10" stroke-linecap="round"/>
<path d="M2159.33 115.121C2183.24 128.927 2183.35 151.299 2159.59 165.067L1985.55 266.231C1961.83 280.036 1923.22 280.036 1899.31 266.231L1724.11 165.067C1700.2 151.262 1700.09 128.927 1723.81 115.121L1897.85 13.9575C1921.57 0.152197 1960.22 0.152197 1984.09 13.9575L2159.33 115.121Z" stroke="#A8D6F8" stroke-miterlimit="10"/>
<path d="M2177.32 687.834C2177.36 696.888 2171.49 705.905 2159.59 712.826L1985.55 813.99C1961.83 827.795 1923.22 827.795 1899.31 813.99L1724.11 712.826C1712.17 705.942 1706.15 696.888 1706.11 687.834" stroke="#A8D6F8" stroke-miterlimit="10"/>
<path d="M2042.27 124.774C2053.3 131.134 2053.38 141.497 2042.38 147.858L1961.94 194.586C1950.98 200.946 1933.13 200.946 1922.1 194.586L1841.17 147.858C1830.14 141.497 1830.06 131.134 1841.06 124.774L1921.5 78.0455C1932.46 71.6854 1950.31 71.6854 1961.34 78.0455L2042.27 124.774Z" stroke="#A8D6F8" stroke-miterlimit="10"/>
<path d="M1864.85 161.812L1921.46 128.926C1932.42 122.566 1950.27 122.566 1961.3 128.926L2018.55 161.962" stroke="#A8D6F8" stroke-miterlimit="10"/>
<path d="M1706.11 689.406V138.691" stroke="#A8D6F8" stroke-miterlimit="10"/>
<path d="M2177.32 400.692C2177.36 409.746 2171.49 418.763 2159.59 425.684L1985.55 526.848C1961.83 540.653 1923.22 540.653 1899.31 526.848L1724.11 425.646C1712.17 418.763 1706.15 409.709 1706.11 400.655" stroke="#A8D6F8" stroke-miterlimit="10"/>
<path d="M2177.32 531.15C2177.36 540.204 2171.49 549.221 2159.59 556.142L1985.55 657.306C1961.83 671.111 1923.22 671.111 1899.31 657.306L1724.11 556.142C1712.17 549.258 1706.15 540.204 1706.11 531.15" stroke="#A8D6F8" stroke-miterlimit="10"/>
<path d="M2177.32 270.197C2177.36 279.251 2171.49 288.267 2159.59 295.188L1985.55 396.352C1961.83 410.158 1923.22 410.158 1899.31 396.352L1724.11 295.188C1712.17 288.305 1706.15 279.251 1706.11 270.197" stroke="#A8D6F8" stroke-miterlimit="10"/>
<path d="M1843.75 149.766L1921.46 104.608C1932.42 98.2483 1950.27 98.2483 1961.3 104.608L2039.09 149.541" stroke="#A8D6F8" stroke-miterlimit="10"/>
<path d="M1747.19 245.355C1747.19 241.988 1744.83 237.872 1741.92 236.189C1739 234.505 1736.64 235.852 1736.64 239.257C1736.64 242.624 1739 246.739 1741.92 248.423C1744.83 250.106 1747.19 248.722 1747.19 245.355Z" stroke="#A8D6F8" stroke-miterlimit="10"/>
<path d="M1764.4 255.119C1764.4 251.752 1762.04 247.637 1759.13 245.953C1756.21 244.27 1753.85 245.617 1753.85 249.021C1753.85 252.388 1756.21 256.504 1759.13 258.187C1762.04 259.871 1764.4 258.487 1764.4 255.119Z" stroke="#A8D6F8" stroke-miterlimit="10"/>
<path d="M1780.34 264.51C1780.34 261.143 1777.98 257.028 1775.06 255.344C1772.15 253.66 1769.79 255.007 1769.79 258.412C1769.79 261.779 1772.15 265.894 1775.06 267.578C1777.95 269.224 1780.34 267.877 1780.34 264.51Z" stroke="#A8D6F8" stroke-miterlimit="10"/>
<path d="M1899.39 330.506L1797.62 271.768C1796.16 270.945 1795 271.806 1795 273.751C1795 275.659 1796.16 277.904 1797.62 278.764L1899.39 337.502C1900.85 338.325 1902.01 337.465 1902.01 335.519C1902.01 333.574 1900.85 331.329 1899.39 330.506Z" stroke="#A8D6F8" stroke-miterlimit="10"/>
<path d="M1747.19 377.235C1747.19 373.868 1744.83 369.752 1741.92 368.069C1739 366.385 1736.64 367.732 1736.64 371.136C1736.64 374.504 1739 378.619 1741.92 380.303C1744.83 381.986 1747.19 380.602 1747.19 377.235Z" stroke="#A8D6F8" stroke-miterlimit="10"/>
<path d="M1764.4 386.999C1764.4 383.632 1762.04 379.517 1759.13 377.833C1756.21 376.15 1753.85 377.497 1753.85 380.901C1753.85 384.268 1756.21 388.384 1759.13 390.067C1762.04 391.751 1764.4 390.366 1764.4 386.999Z" stroke="#A8D6F8" stroke-miterlimit="10"/>
<path d="M1780.34 396.39C1780.34 393.023 1777.98 388.907 1775.06 387.224C1772.15 385.54 1769.79 386.887 1769.79 390.292C1769.79 393.659 1772.15 397.774 1775.06 399.458C1777.95 401.104 1780.34 399.757 1780.34 396.39Z" stroke="#A8D6F8" stroke-miterlimit="10"/>
<path d="M1899.39 462.386L1797.62 403.648C1796.16 402.825 1795 403.686 1795 405.631C1795 407.539 1796.16 409.784 1797.62 410.644L1899.39 469.382C1900.85 470.205 1902.01 469.345 1902.01 467.399C1902.01 465.454 1900.85 463.209 1899.39 462.386Z" stroke="#A8D6F8" stroke-miterlimit="10"/>
<path d="M1747.19 509.114C1747.19 505.747 1744.83 501.632 1741.92 499.948C1739 498.264 1736.64 499.611 1736.64 503.016C1736.64 506.42 1739 510.498 1741.92 512.182C1744.83 513.865 1747.19 512.481 1747.19 509.114Z" stroke="#A8D6F8" stroke-miterlimit="10"/>
<path d="M1764.4 518.879C1764.4 515.512 1762.04 511.396 1759.13 509.713C1756.21 508.029 1753.85 509.376 1753.85 512.78C1753.85 516.185 1756.21 520.263 1759.13 521.947C1762.04 523.63 1764.4 522.246 1764.4 518.879Z" stroke="#A8D6F8" stroke-miterlimit="10"/>
<path d="M1780.34 528.269C1780.34 524.902 1777.98 520.787 1775.06 519.103C1772.15 517.42 1769.79 518.767 1769.79 522.171C1769.79 525.538 1772.15 529.654 1775.06 531.337C1777.95 532.983 1780.34 531.637 1780.34 528.269Z" stroke="#A8D6F8" stroke-miterlimit="10"/>
<path d="M1899.39 594.265L1797.62 535.527C1796.17 534.704 1795.01 535.565 1795.01 537.51C1795.01 539.418 1796.17 541.663 1797.62 542.524L1899.39 601.262C1900.85 602.085 1902.01 601.224 1902.01 599.279C1902.01 597.333 1900.85 595.088 1899.39 594.265Z" stroke="#A8D6F8" stroke-miterlimit="10"/>
<path d="M1772.48 706.69L1724.07 678.743C1712.14 671.859 1706.11 662.805 1706.08 653.751" stroke="#A8D6F8" stroke-miterlimit="10"/>
<path d="M2177.33 653.789C2177.36 662.843 2171.49 671.859 2159.59 678.781L1985.55 779.945C1961.83 793.75 1923.22 793.75 1899.31 779.945L1769 704.5" stroke="#A8D6F8" stroke-miterlimit="10" stroke-linecap="round"/>
<path d="M1747.19 634.073C1747.19 630.705 1744.83 626.59 1741.92 624.906C1739 623.223 1736.64 624.57 1736.64 627.974C1736.64 631.379 1739 635.457 1741.92 637.14C1744.83 638.824 1747.19 637.44 1747.19 634.073Z" stroke="#A8D6F8" stroke-miterlimit="10"/>
<path d="M1764.4 643.837C1764.4 640.47 1762.04 636.355 1759.13 634.671C1756.21 632.988 1753.85 634.334 1753.85 637.739C1753.85 641.144 1756.21 645.221 1759.13 646.905C1762.04 648.589 1764.4 647.204 1764.4 643.837Z" stroke="#A8D6F8" stroke-miterlimit="10"/>
<path d="M1780.34 653.228C1780.34 649.861 1777.98 645.745 1775.06 644.062C1772.15 642.378 1769.79 643.725 1769.79 647.13C1769.79 650.497 1772.15 654.612 1775.06 656.296C1777.95 657.942 1780.34 656.595 1780.34 653.228Z" stroke="#A8D6F8" stroke-miterlimit="10"/>
<path d="M1899.39 719.224L1797.62 660.486C1796.17 659.663 1795.01 660.523 1795.01 662.469C1795.01 664.377 1796.17 666.622 1797.62 667.482L1899.39 726.22C1900.85 727.043 1902.01 726.183 1902.01 724.237C1902.01 722.292 1900.85 720.047 1899.39 719.224Z" stroke="#A8D6F8" stroke-miterlimit="10"/>
<path d="M1795.25 601.666C1795.25 601.591 1795.28 601.516 1795.36 601.479C1795.43 601.442 1795.47 601.479 1795.47 601.554C1795.47 601.629 1795.43 601.704 1795.36 601.741C1795.28 601.778 1795.25 601.741 1795.25 601.666Z" fill="#A8D6F8"/>
<path d="M1447.32 284.231C1447.36 293.285 1441.49 302.301 1429.59 309.223L1255.55 410.386C1231.83 424.192 1193.22 424.192 1169.31 410.386L994.108 309.223C982.173 302.339 976.15 293.285 976.112 284.231" stroke="#A8D6F8" stroke-miterlimit="10"/>
<path d="M976 285.802V-264.912" stroke="#A8D6F8" stroke-miterlimit="10"/>
<path d="M1447.33 285.802V-264.912" stroke="#A8D6F8" stroke-miterlimit="10"/>
<path d="M1206.09 260.062C1206.09 259.987 1206.05 259.912 1205.98 259.875C1205.9 259.838 1205.86 259.875 1205.86 259.95C1205.86 260.025 1205.9 260.1 1205.98 260.137C1206.05 260.174 1206.09 260.137 1206.09 260.062Z" fill="#A8D6F8"/>
<path d="M1157.83 317.94L1018.16 238.213C1008.4 232.639 1000.43 218.16 1000.43 206.039V-158.398C1000.43 -170.52 1008.4 -175.87 1018.16 -170.333L1157.83 -90.6065C1167.59 -85.032 1175.56 -70.5533 1175.56 -58.4316V306.005C1175.56 318.164 1167.59 323.514 1157.83 317.94Z" stroke="#A8D6F8" stroke-miterlimit="10"/>
<path d="M1175.86 305.257L1038.55 226.877C1028.49 221.116 1020.22 206.188 1020.22 193.655V-168.911" stroke="#A8D6F8" stroke-miterlimit="10"/>
<path d="M1175.52 12.8393L1019.7 -77.1382" stroke="#A8D6F8" stroke-miterlimit="10"/>
<path d="M1175.52 221.602L1019.7 131.625" stroke="#A8D6F8" stroke-miterlimit="10"/>
<path d="M1175.52 117.221L1019.7 27.2432" stroke="#A8D6F8" stroke-miterlimit="10"/>
<path d="M1143.27 246.781C1143.27 243.413 1140.91 239.298 1138 237.614C1135.08 235.931 1132.72 237.278 1132.72 240.682C1132.72 244.087 1135.08 248.165 1138 249.848C1140.91 251.532 1143.27 250.148 1143.27 246.781Z" stroke="#A8D6F8" stroke-miterlimit="10"/>
<path d="M1058 312L721 508" stroke="#A8D6F8" stroke-miterlimit="10"/>
<path d="M1042.48 302.939L994.071 274.992C982.136 268.108 976.113 259.054 976.075 250" stroke="#A8D6F8" stroke-miterlimit="10"/>
<path d="M1062.55 314.742C1062.55 311.375 1060.19 307.259 1057.28 305.576C1054.36 303.892 1052 305.239 1052 308.644C1052 312.048 1054.36 316.126 1057.28 317.81C1060.19 319.493 1062.55 318.109 1062.55 314.742Z" stroke="#A8D6F8" stroke-miterlimit="10"/>
<path d="M1902 -159.345L1447 85.8522" stroke="#A8D6F8" stroke-miterlimit="10" stroke-linecap="round"/>
<path d="M1367 312L1706 510" stroke="#A8D6F8" stroke-miterlimit="10" stroke-linecap="round"/>
<path d="M574 -147L975 87" stroke="#A8D6F8" stroke-miterlimit="10" stroke-linecap="round"/>
<path d="M-135 281L250 506" stroke="#A8D6F8" stroke-miterlimit="10" stroke-linecap="round"/>
<path d="M1381.07 302.939L1429.48 274.992C1441.41 268.108 1447.44 259.054 1447.48 250" stroke="#A8D6F8" stroke-miterlimit="10"/>
<path d="M1361 314.742C1361 311.375 1363.36 307.259 1366.28 305.576C1369.19 303.892 1371.55 305.239 1371.55 308.644C1371.55 312.048 1369.19 316.126 1366.28 317.81C1363.36 319.493 1361 318.109 1361 314.742Z" stroke="#A8D6F8" stroke-miterlimit="10"/>
<path d="M1159.21 256.171C1159.21 252.804 1156.85 248.689 1153.93 247.005C1151.02 245.322 1148.66 246.668 1148.66 250.073C1148.66 253.44 1151.02 257.555 1153.93 259.239C1156.82 260.885 1159.21 259.538 1159.21 256.171Z" stroke="#A8D6F8" stroke-miterlimit="10"/>
<path d="M1159.21 58.6327C1159.21 55.2655 1156.85 51.1501 1153.93 49.4665C1151.02 47.783 1148.66 49.1298 1148.66 52.5344C1148.66 55.9015 1151.02 60.0169 1153.93 61.7005C1156.82 63.3466 1159.21 61.9998 1159.21 58.6327Z" stroke="#A8D6F8" stroke-miterlimit="10"/>
<path d="M1126.06 144.233C1126.06 140.866 1123.71 136.75 1120.79 135.067C1117.87 133.383 1115.51 134.73 1115.51 138.134C1115.51 141.539 1117.87 145.617 1120.79 147.301C1123.71 148.984 1126.06 147.6 1126.06 144.233Z" stroke="#A8D6F8" stroke-miterlimit="10"/>
<path d="M1143.27 153.997C1143.27 150.63 1140.91 146.515 1138 144.831C1135.08 143.148 1132.72 144.495 1132.72 147.899C1132.72 151.304 1135.08 155.382 1138 157.065C1140.91 158.749 1143.27 157.365 1143.27 153.997Z" stroke="#A8D6F8" stroke-miterlimit="10"/>
<path d="M1159.21 163.388C1159.21 160.021 1156.85 155.905 1153.93 154.222C1151.02 152.538 1148.66 153.885 1148.66 157.29C1148.66 160.657 1151.02 164.772 1153.93 166.456C1156.82 168.102 1159.21 166.755 1159.21 163.388Z" stroke="#A8D6F8" stroke-miterlimit="10"/>
<path d="M1218.55 260.062C1218.55 259.987 1218.58 259.912 1218.66 259.875C1218.73 259.838 1218.77 259.875 1218.77 259.95C1218.77 260.025 1218.73 260.1 1218.66 260.137C1218.58 260.174 1218.55 260.137 1218.55 260.062Z" fill="#A8D6F8"/>
<path d="M1266.81 317.94L1406.47 238.213C1416.23 232.639 1424.2 218.16 1424.2 206.039V-158.398C1424.2 -170.52 1416.23 -175.87 1406.47 -170.333L1266.81 -90.5691C1257.04 -84.9946 1249.08 -70.5159 1249.08 -58.3942V306.043C1249.08 318.164 1257.04 323.514 1266.81 317.94Z" stroke="#A8D6F8" stroke-miterlimit="10"/>
<path d="M1248.78 305.257L1386.08 226.877C1396.14 221.116 1404.41 206.188 1404.41 193.655V-168.911" stroke="#A8D6F8" stroke-miterlimit="10"/>
<path d="M1249.11 12.8393L1404.94 -77.1382" stroke="#A8D6F8" stroke-miterlimit="10"/>
<path d="M1249.11 221.602L1404.94 131.625" stroke="#A8D6F8" stroke-miterlimit="10"/>
<path d="M1249.11 117.221L1404.94 27.2432" stroke="#A8D6F8" stroke-miterlimit="10"/>
<path d="M1373.77 192.869C1373.77 189.502 1376.13 185.387 1379.05 183.703C1381.96 182.02 1384.32 183.367 1384.32 186.771C1384.32 190.176 1381.96 194.254 1379.05 195.937C1376.13 197.621 1373.77 196.237 1373.77 192.869Z" stroke="#A8D6F8" stroke-miterlimit="10"/>
<path d="M1356.56 202.634C1356.56 199.267 1358.92 195.152 1361.84 193.468C1364.76 191.784 1367.11 193.131 1367.11 196.536C1367.11 199.94 1364.76 204.018 1361.84 205.702C1358.92 207.386 1356.56 206.001 1356.56 202.634Z" stroke="#A8D6F8" stroke-miterlimit="10"/>
<path d="M1340.66 212.025C1340.66 208.658 1343.02 204.542 1345.94 202.859C1348.86 201.175 1351.21 202.522 1351.21 205.926C1351.21 209.294 1348.86 213.409 1345.94 215.093C1343.02 216.739 1340.66 215.392 1340.66 212.025Z" stroke="#A8D6F8" stroke-miterlimit="10"/>
<path d="M1356.56 5.09505C1356.56 1.72791 1358.92 -2.38749 1361.84 -4.07106C1364.76 -5.75463 1367.11 -4.40774 1367.11 -1.00319C1367.11 2.36395 1364.76 6.47934 1361.84 8.16291C1358.92 9.84648 1356.56 8.46219 1356.56 5.09505Z" stroke="#A8D6F8" stroke-miterlimit="10"/>
<path d="M1340.66 14.4857C1340.66 11.1185 1343.02 7.00315 1345.94 5.31958C1348.86 3.63601 1351.21 4.98284 1351.21 8.3874C1351.21 11.7545 1348.86 15.8699 1345.94 17.5535C1343.02 19.1997 1340.66 17.8528 1340.66 14.4857Z" stroke="#A8D6F8" stroke-miterlimit="10"/>
<path d="M1373.77 100.086C1373.77 96.7186 1376.13 92.6032 1379.05 90.9197C1381.96 89.2361 1384.32 90.5829 1384.32 93.9875C1384.32 97.392 1381.96 101.47 1379.05 103.154C1376.13 104.837 1373.77 103.453 1373.77 100.086Z" stroke="#A8D6F8" stroke-miterlimit="10"/>
<path fill-rule="evenodd" clip-rule="evenodd" d="M1353 319.443L1254.69 376.588L1254.69 376.588C1242.73 383.546 1227.06 387.01 1211.39 387.01C1195.72 387.01 1180 383.545 1167.95 376.589L1069 319.455V318.3L1168.45 375.723C1180.31 382.571 1195.85 386.01 1211.39 386.01C1226.93 386.01 1242.42 382.571 1254.18 375.724L1254.18 375.723L1353 318.286V319.443Z" fill="#A8D6F8"/>
<mask id="mask0" mask-type="alpha" maskUnits="userSpaceOnUse" x="734" y="-234" width="452" height="755">
<path fill-rule="evenodd" clip-rule="evenodd" d="M734 -5.90089C734 -132.17 835.31 -234 960 -234C1084.69 -234 1186 -132.17 1186 -6.40991C1186 28.7214 1178.21 61.8159 1164.18 91.3466C1144.96 132.079 1113.78 166.192 1075.86 189.103C1042.09 209.469 1002.6 221.689 960 221.689C917.398 221.689 877.913 209.469 844.143 189.103V189.613C805.697 166.701 775.044 132.588 755.821 91.856C741.793 62.3253 734 29.2305 734 -5.90089ZM960 125.969C990.133 125.969 1017.15 112.731 1037.93 91.3466C1061.31 66.9074 1075.86 32.2853 1075.86 -6.91925C1075.86 -79.7277 1023.9 -138.789 960 -138.789C896.097 -138.789 844.143 -79.7277 844.143 -6.91925V-6.40991C844.143 32.2855 858.69 67.4166 882.069 91.3466C902.851 112.731 929.867 125.969 960 125.969ZM961.557 423.313C1015.07 423.313 1059.75 382.581 1073.78 327.083H1186C1168.33 436.551 1074.82 520.051 961.557 520.051C848.297 520.051 754.78 436.551 737.116 327.083H849.337C863.364 382.581 908.564 423.313 961.557 423.313Z" fill="#E6E6E6"/>
</mask>
<g mask="url(#mask0)">
<path d="M1289 -98H721V554H1289V-98Z" fill="url(#paint0_linear)"/>
</g>
<defs>
<linearGradient id="paint0_linear" x1="1231.89" y1="-143.921" x2="690.568" y2="529.566" gradientUnits="userSpaceOnUse">
<stop offset="0.0980392" stop-color="#88EDF2"/>
<stop offset="0.2775" stop-color="#65B4EE"/>
<stop offset="0.4929" stop-color="#4076E9"/>
<stop offset="0.651" stop-color="#284FE6"/>
<stop offset="0.7333" stop-color="#1F40E5"/>
</linearGradient>
</defs>
</svg>
