<svg width="80" height="80" viewBox="0 0 80 80" fill="none" xmlns="http://www.w3.org/2000/svg">
<path fill-rule="evenodd" clip-rule="evenodd" d="M59.2709 27.3333C63.4705 27.3333 66.875 23.9288 66.875 19.7292C66.875 15.5295 63.4705 12.125 59.2709 12.125C55.0712 12.125 51.6667 15.5295 51.6667 19.7292C51.6667 23.9288 55.0712 27.3333 59.2709 27.3333ZM59.2709 66.8756C63.4705 66.8756 66.875 63.4711 66.875 59.2714C66.875 55.0718 63.4705 51.6673 59.2709 51.6673C55.0712 51.6673 51.6667 55.0718 51.6667 59.2714C51.6667 63.4711 55.0712 66.8756 59.2709 66.8756ZM27.3333 59.2714C27.3333 63.4711 23.9288 66.8756 19.7292 66.8756C15.5295 66.8756 12.125 63.4711 12.125 59.2714C12.125 55.0718 15.5295 51.6673 19.7292 51.6673C23.9288 51.6673 27.3333 55.0718 27.3333 59.2714Z" fill="white"/>
<path fill-rule="evenodd" clip-rule="evenodd" d="M19.7292 27.3333C23.9288 27.3333 27.3333 23.9288 27.3333 19.7292C27.3333 15.5295 23.9288 12.125 19.7292 12.125C15.5295 12.125 12.125 15.5295 12.125 19.7292C12.125 23.9288 15.5295 27.3333 19.7292 27.3333ZM33.4167 16.1673C33.4167 15.615 33.8644 15.1673 34.4167 15.1673H44.5834C45.1357 15.1673 45.5834 15.615 45.5834 16.1673V20.2506C45.5834 20.8029 45.1357 21.2506 44.5834 21.2506H34.4167C33.8644 21.2506 33.4167 20.8029 33.4167 20.2506V16.1673ZM34.4167 57.75C33.8644 57.75 33.4167 58.1977 33.4167 58.75V62.8333C33.4167 63.3856 33.8644 63.8333 34.4167 63.8333H44.5834C45.1357 63.8333 45.5834 63.3856 45.5834 62.8333V58.75C45.5834 58.1977 45.1357 57.75 44.5834 57.75H34.4167ZM15.1667 34.4173C15.1667 33.865 15.6144 33.4173 16.1667 33.4173H20.25C20.8023 33.4173 21.25 33.865 21.25 34.4173V44.5839C21.25 45.1362 20.8023 45.5839 20.25 45.5839H16.1667C15.6144 45.5839 15.1667 45.1362 15.1667 44.5839V34.4173ZM58.75 33.4173C58.1977 33.4173 57.75 33.865 57.75 34.4173V44.5839C57.75 45.1362 58.1977 45.5839 58.75 45.5839H62.8333C63.3856 45.5839 63.8333 45.1362 63.8333 44.5839V34.4173C63.8333 33.865 63.3856 33.4173 62.8333 33.4173H58.75Z" fill="#5672EA"/>
</svg>
