<svg width="46" height="46" viewBox="0 0 46 46" fill="none" xmlns="http://www.w3.org/2000/svg">
<circle r="22.5" transform="matrix(-1 0 0 1 23 23)" fill="white" stroke="#BDE3FE"/>
<path fill-rule="evenodd" clip-rule="evenodd" d="M13 12.8314L22.6314 11.0255C22.875 10.9799 23.125 10.9799 23.3686 11.0255L33 12.8314V24.2347C33 28.0274 31.0462 31.5526 27.83 33.5627L23.53 36.2502C23.2057 36.4528 22.7943 36.4528 22.47 36.2502L18.17 33.5627C14.9538 31.5526 13 28.0274 13 24.2347L13 12.8314Z" fill="#1F40E5"/>
<path fill-rule="evenodd" clip-rule="evenodd" d="M15 15.4445L22.6364 14.0328C22.8768 13.9884 23.1232 13.9884 23.3636 14.0328L31 15.4445V23.1047C31 26.9222 29.0207 30.4668 25.7706 32.4695L23.5246 33.8535C23.2029 34.0517 22.7971 34.0517 22.4754 33.8535L20.2294 32.4695C16.9793 30.4668 15 26.9222 15 23.1047L15 15.4445Z" fill="white"/>
<path d="M19.624 22.584C19.3943 22.2393 18.9286 22.1462 18.584 22.376C18.2393 22.6057 18.1462 23.0714 18.376 23.416L19.624 22.584ZM22 27.5L21.376 27.916C21.5087 28.1151 21.7284 28.2389 21.9675 28.2493C22.2065 28.2597 22.4362 28.1554 22.5857 27.9685L22 27.5ZM28.5857 20.4685C28.8444 20.1451 28.792 19.6731 28.4685 19.4143C28.1451 19.1556 27.6731 19.208 27.4143 19.5315L28.5857 20.4685ZM18.376 23.416L21.376 27.916L22.624 27.084L19.624 22.584L18.376 23.416ZM22.5857 27.9685L28.5857 20.4685L27.4143 19.5315L21.4143 27.0315L22.5857 27.9685Z" fill="#1F40E5"/>
</svg>
