<svg width="46" height="46" viewBox="0 0 46 46" fill="none" xmlns="http://www.w3.org/2000/svg">
<circle r="22.5" transform="matrix(-1 0 0 1 23 23)" fill="white" stroke="#BDE3FE"/>
<path d="M18.1875 17.5C18.5672 17.5 18.875 17.1922 18.875 16.8125C18.875 16.4328 18.5672 16.125 18.1875 16.125C17.8078 16.125 17.5 16.4328 17.5 16.8125C17.5 17.1922 17.8078 17.5 18.1875 17.5Z" fill="#1F40E5"/>
<path d="M30.5625 27.2212V24.375C30.5625 24.0103 30.4176 23.6606 30.1598 23.4027C29.9019 23.1449 29.5522 23 29.1875 23H23.6875V20.25H29.875C30.2397 20.25 30.5894 20.1051 30.8473 19.8473C31.1051 19.5894 31.25 19.2397 31.25 18.875V14.75C31.25 14.3853 31.1051 14.0356 30.8473 13.7777C30.5894 13.5199 30.2397 13.375 29.875 13.375H16.125C15.7603 13.375 15.4106 13.5199 15.1527 13.7777C14.8949 14.0356 14.75 14.3853 14.75 14.75V18.875C14.75 19.2397 14.8949 19.5894 15.1527 19.8473C15.4106 20.1051 15.7603 20.25 16.125 20.25H22.3125V23H16.8125C16.4478 23 16.0981 23.1449 15.8402 23.4027C15.5824 23.6606 15.4375 24.0103 15.4375 24.375V27.2212C14.7894 27.3886 14.2246 27.7865 13.849 28.3405C13.4733 28.8945 13.3126 29.5664 13.3969 30.2304C13.4813 30.8944 13.8049 31.5049 14.3071 31.9473C14.8093 32.3898 15.4557 32.6339 16.125 32.6339C16.7943 32.6339 17.4407 32.3898 17.9429 31.9473C18.4451 31.5049 18.7687 30.8944 18.8531 30.2304C18.9374 29.5664 18.7767 28.8945 18.401 28.3405C18.0254 27.7865 17.4606 27.3886 16.8125 27.2212V24.375H22.3125V27.125H20.25V32.625H25.75V27.125H23.6875V24.375H29.1875V27.2212C28.5394 27.3886 27.9746 27.7865 27.599 28.3405C27.2233 28.8945 27.0626 29.5664 27.1469 30.2304C27.2313 30.8944 27.5549 31.5049 28.0571 31.9473C28.5593 32.3898 29.2057 32.6339 29.875 32.6339C30.5443 32.6339 31.1907 32.3898 31.6929 31.9473C32.1951 31.5049 32.5187 30.8944 32.6031 30.2304C32.6874 29.5664 32.5267 28.8945 32.151 28.3405C31.7754 27.7865 31.2106 27.3886 30.5625 27.2212ZM17.5 29.875C17.5 30.1469 17.4194 30.4128 17.2683 30.6389C17.1172 30.865 16.9024 31.0413 16.6512 31.1453C16.3999 31.2494 16.1235 31.2766 15.8568 31.2236C15.59 31.1705 15.345 31.0396 15.1527 30.8473C14.9604 30.655 14.8295 30.41 14.7764 30.1432C14.7234 29.8765 14.7506 29.6001 14.8547 29.3488C14.9587 29.0976 15.135 28.8828 15.3611 28.7317C15.5872 28.5806 15.8531 28.5 16.125 28.5C16.4897 28.5 16.8394 28.6449 17.0973 28.9027C17.3551 29.1606 17.5 29.5103 17.5 29.875ZM24.375 28.5V31.25H21.625V28.5H24.375ZM16.125 18.875V14.75H29.875V18.875H16.125ZM29.875 31.25C29.6031 31.25 29.3372 31.1694 29.1111 31.0183C28.885 30.8672 28.7087 30.6524 28.6047 30.4012C28.5006 30.1499 28.4734 29.8735 28.5264 29.6067C28.5795 29.34 28.7104 29.095 28.9027 28.9027C29.095 28.7104 29.34 28.5795 29.6068 28.5264C29.8735 28.4734 30.1499 28.5006 30.4012 28.6047C30.6524 28.7087 30.8672 28.885 31.0183 29.1111C31.1694 29.3372 31.25 29.6031 31.25 29.875C31.25 30.2397 31.1051 30.5894 30.8473 30.8473C30.5894 31.1051 30.2397 31.25 29.875 31.25Z" fill="#1F40E5"/>
</svg>
