<svg width="47" height="47" viewBox="0 0 47 47" fill="none" xmlns="http://www.w3.org/2000/svg">
<circle r="22.5" transform="matrix(-1 0 0 1 24 24)" fill="white" stroke="#BDE3FE"/>
<path fill-rule="evenodd" clip-rule="evenodd" d="M14 13.8314L23.6314 12.0255C23.875 11.9799 24.125 11.9799 24.3686 12.0255L34 13.8314V25.2347C34 29.0274 32.0462 32.5526 28.83 34.5627L24.53 37.2502C24.2057 37.4528 23.7943 37.4528 23.47 37.2502L19.17 34.5627C15.9538 32.5526 14 29.0274 14 25.2347L14 13.8314Z" fill="#1F40E5"/>
<path fill-rule="evenodd" clip-rule="evenodd" d="M16 16.4445L23.6364 15.0328C23.8768 14.9884 24.1232 14.9884 24.3636 15.0328L32 16.4445V24.1047C32 27.9222 30.0207 31.4668 26.7706 33.4695L24.5246 34.8535C24.2029 35.0517 23.7971 35.0517 23.4754 34.8535L21.2294 33.4695C17.9793 31.4668 16 27.9222 16 24.1047L16 16.4445Z" fill="white"/>
<path d="M20.624 23.584C20.3943 23.2393 19.9286 23.1462 19.584 23.376C19.2393 23.6057 19.1462 24.0714 19.376 24.416L20.624 23.584ZM23 28.5L22.376 28.916C22.5087 29.1151 22.7284 29.2389 22.9675 29.2493C23.2065 29.2597 23.4362 29.1554 23.5857 28.9685L23 28.5ZM29.5857 21.4685C29.8444 21.1451 29.792 20.6731 29.4685 20.4143C29.1451 20.1556 28.6731 20.208 28.4143 20.5315L29.5857 21.4685ZM19.376 24.416L22.376 28.916L23.624 28.084L20.624 23.584L19.376 24.416ZM23.5857 28.9685L29.5857 21.4685L28.4143 20.5315L22.4143 28.0315L23.5857 28.9685Z" fill="#1F40E5"/>
</svg>
