<svg width="46" height="46" viewBox="0 0 46 46" fill="none" xmlns="http://www.w3.org/2000/svg">
<circle r="22.5" transform="matrix(-1 0 0 1 23 23)" fill="white" stroke="#BDE3FE"/>
<path d="M15.3834 28.5731C15.1476 28.9137 15.2325 29.3809 15.5731 29.6166C15.9137 29.8524 16.3809 29.7675 16.6166 29.4269L15.3834 28.5731ZM20.5 22.5L21.1144 22.0699L19.8834 22.0731L20.5 22.5ZM24 27.5L23.3856 27.9301L24.6197 27.9225L24 27.5ZM32.1197 16.9225C32.353 16.5803 32.2647 16.1137 31.9225 15.8803C31.5803 15.647 31.1137 15.7353 30.8803 16.0775L32.1197 16.9225ZM16.6166 29.4269L21.1166 22.9269L19.8834 22.0731L15.3834 28.5731L16.6166 29.4269ZM19.8856 22.9301L23.3856 27.9301L24.6144 27.0699L21.1144 22.0699L19.8856 22.9301ZM24.6197 27.9225L32.1197 16.9225L30.8803 16.0775L23.3803 27.0775L24.6197 27.9225Z" fill="#1F40E5"/>
</svg>
