<svg width="46" height="46" viewBox="0 0 46 46" fill="none" xmlns="http://www.w3.org/2000/svg">
<circle r="22.5" transform="matrix(-1 0 0 1 23 23)" fill="white" stroke="#BDE3FE"/>
<path d="M33.4001 24.3002V21.7002L31.395 21.1987C31.2317 20.6727 30.9938 20.1797 30.7018 19.7255L31.61 17.8605L29.6187 16.189L27.9445 17.4035C27.4791 17.2085 26.9823 17.0764 26.4667 17.0023V15.2002C26.4667 14.2468 25.6864 13.4668 24.7335 13.4668H14.3335C13.3804 13.4668 12.6001 14.2468 12.6001 15.2002V30.8002C12.6001 31.7534 13.3804 32.5334 14.3335 32.5334H24.7335C25.6864 32.5334 26.4667 31.7534 26.4667 30.8002V28.9974C26.982 28.9238 27.4791 28.7917 27.9445 28.5962L29.6187 29.8109L31.61 28.1402L30.7018 26.2744C30.9938 25.8199 31.2309 25.3272 31.3942 24.8012L33.4001 24.3002ZM24.7335 30.8002H14.3335V15.2002H24.7335V30.8002ZM26.4667 26.3441V19.6558C27.9596 20.0425 29.0667 21.3861 29.0667 23.0002C29.0667 24.6135 27.9596 25.9572 26.4667 26.3441Z" fill="#1F40E5"/>
<path d="M19.5332 16.9336H16.0664V18.667H19.5332V16.9336Z" fill="#1F40E5"/>
<path d="M22.9998 20.4004H16.0664V22.1338H22.9998V20.4004Z" fill="#1F40E5"/>
<path d="M21.2664 23.8672H16.0664V25.6003H21.2664V23.8672Z" fill="#1F40E5"/>
<path d="M22.9998 27.333H16.0664V29.0667H22.9998V27.333Z" fill="#1F40E5"/>
</svg>
