<svg width="46" height="46" viewBox="0 0 46 46" fill="none" xmlns="http://www.w3.org/2000/svg">
<circle r="22.5" transform="matrix(-1 0 0 1 23 23)" fill="white" stroke="#BDE3FE"/>
<path d="M23.8665 12.5996H22.1333V14.333H23.8665V12.5996Z" fill="#1F40E5"/>
<path d="M23.8665 31.667H22.1333V33.4004H23.8665V31.667Z" fill="#1F40E5"/>
<path d="M32.1918 15.0335L30.9663 13.8076L28.5149 16.2583L29.7405 17.4842L32.1918 15.0335Z" fill="#1F40E5"/>
<path d="M17.4846 29.741L16.2593 28.5156L13.8082 30.9667L15.0336 32.192L17.4846 29.741Z" fill="#1F40E5"/>
<path d="M15.0345 13.8078L13.8081 15.0332L16.2579 17.4851L17.4843 16.2597L15.0345 13.8078Z" fill="#1F40E5"/>
<path d="M29.7405 28.5159L28.5151 29.7412L30.9662 32.1922L32.1915 30.9669L29.7405 28.5159Z" fill="#1F40E5"/>
<path d="M14.333 22.1328H12.5996V23.8665H14.333V22.1328Z" fill="#1F40E5"/>
<path d="M33.4004 22.1328H31.667V23.8665H33.4004V22.1328Z" fill="#1F40E5"/>
<path d="M22.9998 16.0664C19.1708 16.0664 16.0664 19.1713 16.0664 22.9998C16.0664 26.8294 19.1708 29.9332 22.9998 29.9332C26.8294 29.9332 29.9333 26.8294 29.9333 22.9998C29.9333 19.1713 26.8294 16.0664 22.9998 16.0664ZM23.8664 28.1218V26.4664L25.8539 24.479C26.1908 24.1423 26.4664 23.4761 26.4664 22.9998V22.133H24.9498V19.533H23.6498V22.133H22.3498V19.533H21.0498V22.133H19.5332V22.9998C19.5332 23.4761 19.8091 24.1425 20.1458 24.479L22.1332 26.4664V28.1218C19.6755 27.7089 17.7998 25.5762 17.7998 22.9998C17.7998 20.1281 20.1281 17.7998 22.9998 17.7998C25.8723 17.7998 28.1998 20.1281 28.1998 22.9998C28.1998 25.5762 26.3252 27.7089 23.8664 28.1218Z" fill="#1F40E5"/>
</svg>
