<svg width="80" height="80" viewBox="0 0 80 80" fill="none" xmlns="http://www.w3.org/2000/svg">
<path d="M63.3333 63.3333H13.3333C11.4924 63.3333 10 64.8257 10 66.6667C10 68.5076 11.4924 70 13.3333 70H66.6667C68.5076 70 70 68.5076 70 66.6667V13.3333C70 11.4924 68.5076 10 66.6667 10C64.8257 10 63.3333 11.4924 63.3333 13.3333V63.3333Z" fill="white"/>
<path opacity="0.3" d="M50.9009 22.7201C52.16 21.377 54.2694 21.309 55.6125 22.5681C56.9555 23.8272 57.0236 25.9366 55.7645 27.2797L43.2645 40.613C42.0468 41.9119 40.0233 42.0245 38.6689 40.8688L28.8032 32.45L15.9489 48.732C14.8082 50.1769 12.7121 50.4235 11.2672 49.2828C9.82226 48.1421 9.57566 46.046 10.7164 44.601L25.7164 25.6011C26.888 24.117 29.0581 23.9036 30.4964 25.1309L40.5766 33.7327L50.9009 22.7201Z" fill="#D8E8F5"/>
</svg>
