<svg width="80" height="80" viewBox="0 0 80 80" fill="none" xmlns="http://www.w3.org/2000/svg">
<path opacity="0.3" fill-rule="evenodd" clip-rule="evenodd" d="M39.9997 69.9993C25.2721 69.9993 13.333 58.0603 13.333 43.3327C13.333 28.6051 25.2721 16.666 39.9997 16.666C54.7273 16.666 66.6663 28.6051 66.6663 43.3327C66.6663 58.0603 54.7273 69.9993 39.9997 69.9993Z" fill="#D8E8F5"/>
<path fill-rule="evenodd" clip-rule="evenodd" d="M43.3333 16.8723V13.3327H46.6667C48.5076 13.3327 50 11.8403 50 9.99935C50 8.1584 48.5076 6.66602 46.6667 6.66602H33.3333C31.4924 6.66602 30 8.1584 30 9.99935C30 11.8403 31.4924 13.3327 33.3333 13.3327H36.6667V16.8723C37.7586 16.7362 38.8711 16.666 40 16.666C41.1289 16.666 42.2413 16.7362 43.3333 16.8723Z" fill="white"/>
<path fill-rule="evenodd" clip-rule="evenodd" d="M60.5576 26.3456L64.8162 22.087C65.2067 21.6965 65.2067 21.0633 64.8162 20.6728L61.5164 17.373C61.1258 16.9824 60.4927 16.9824 60.1022 17.373L55.7002 21.7749C57.504 23.0909 59.1364 24.6277 60.5576 26.3456Z" fill="white"/>
<path fill-rule="evenodd" clip-rule="evenodd" d="M60 43.334C60 32.2883 51.0457 23.334 40 23.334V43.334L60 43.334Z" fill="white"/>
</svg>
