<svg width="80" height="80" viewBox="0 0 80 80" fill="none" xmlns="http://www.w3.org/2000/svg">
<path opacity="0.3" fill-rule="evenodd" clip-rule="evenodd" d="M38.334 73.334C31.0573 73.334 24.2993 71.1134 18.7006 67.3128L22.4449 61.797C27.0977 64.9554 32.5795 66.6673 38.334 66.6673C53.9821 66.6673 66.6673 53.9821 66.6673 38.334C66.6673 22.6859 53.9821 10.0007 38.334 10.0007C22.6859 10.0007 10.0007 22.6859 10.0007 38.334C10.0007 40.9609 10.3564 43.5338 11.05 46.0066L4.6311 47.8071C3.78597 44.7942 3.33398 41.6169 3.33398 38.334C3.33398 19.004 19.004 3.33399 38.334 3.33399C57.6639 3.33399 73.334 19.004 73.334 38.334C73.334 57.664 57.6639 73.334 38.334 73.334Z" fill="#D8E8F5"/>
<path fill-rule="evenodd" clip-rule="evenodd" d="M4.48548 45.1507C4.23796 45.2426 4.10458 45.5111 4.18088 45.7639L5.32144 49.5424C5.39774 49.7952 5.65743 49.945 5.91446 49.8847L43.0715 41.1553C43.3523 41.0893 43.5192 40.8002 43.4358 40.5241L40.9193 32.1874C40.836 31.9113 40.537 31.7627 40.2666 31.8631L4.48548 45.1507Z" fill="white"/>
</svg>
