<svg width="46" height="47" viewBox="0 0 46 47" fill="none" xmlns="http://www.w3.org/2000/svg">
<circle r="22.5" transform="matrix(-1 0 0 1 23 23.9065)" fill="white" stroke="#BDE3FE"/>
<path d="M33.0382 29.2683L27.833 24.0618C28.32 23.0442 28.6 21.909 28.6 20.7065C28.6 16.3986 25.1079 12.9065 20.8 12.9065C16.4921 12.9065 13 16.3986 13 20.7065C13 25.0142 16.4921 28.5065 20.8 28.5065C22.0035 28.5065 23.1377 28.2257 24.1558 27.7398L29.3618 32.9447C30.3766 33.9603 32.0234 33.9603 33.0385 32.9447C34.054 31.9291 34.054 30.2823 33.0382 29.2683ZM14.7334 20.7065C14.7334 17.3559 17.4491 14.6399 20.8 14.6399C24.1509 14.6399 26.8666 17.3559 26.8666 20.7065C26.8666 22.3583 26.2049 23.8538 25.1334 24.9481V18.1065H23.4V26.1818C22.861 26.4382 22.2794 26.6166 21.6666 26.705V16.3731H19.9334V26.7047C19.3206 26.6163 18.739 26.4382 18.2 26.1816V19.8399H16.4666V24.9484C15.3951 23.8538 14.7334 22.3583 14.7334 20.7065ZM31.8126 31.7193C31.4748 32.0576 30.9249 32.0576 30.5872 31.7193L25.6654 26.7965C26.1173 26.4343 26.5286 26.023 26.891 25.5711L31.8126 30.4934C32.1513 30.8306 32.1513 31.3808 31.8126 31.7193Z" fill="#1F40E5"/>
</svg>
