<svg width="46" height="47" viewBox="0 0 46 47" fill="none" xmlns="http://www.w3.org/2000/svg">
<circle r="22.5" transform="matrix(-1 0 0 1 23 23.9062)" fill="white" stroke="#BDE3FE"/>
<path d="M17.7666 18.3938C15.1336 18.3938 13 19.5583 13 20.9938V31.3938C13 32.83 15.1336 33.9938 17.7666 33.9938C20.3988 33.9938 22.5334 32.83 22.5334 31.3938V20.9938C22.5334 19.5583 20.3988 18.3938 17.7666 18.3938ZM17.7666 20.1272C19.4119 20.1272 20.4667 20.6857 20.7511 20.9938C20.4667 21.3027 19.4121 21.8604 17.7666 21.8604C16.1205 21.8604 15.066 21.3027 14.7823 20.9938C15.0667 20.6857 16.1205 20.1272 17.7666 20.1272ZM20.8 31.6663C19.9755 32.037 18.9194 32.2604 17.7666 32.2604C16.6137 32.2604 15.5576 32.0381 14.7334 31.6663V29.9331C15.5576 30.3047 16.6137 30.5272 17.7666 30.5272C18.9194 30.5272 19.9755 30.3039 20.8 29.9331V31.6663ZM20.8 28.1997C19.9755 28.5705 18.9194 28.7938 17.7666 28.7938C16.6137 28.7938 15.5576 28.5712 14.7334 28.1997V26.4663C15.5576 26.8381 16.6137 27.0604 17.7666 27.0604C18.9194 27.0604 19.9755 26.837 20.8 26.4663V28.1997ZM20.8 24.7331C19.9755 25.1039 18.9194 25.3272 17.7666 25.3272C16.6137 25.3272 15.5576 25.1047 14.7334 24.7331V22.9997C15.5576 23.3712 16.6137 23.5938 17.7666 23.5938C18.9194 23.5938 19.9755 23.3705 20.8 22.9997V24.7331Z" fill="#1F40E5"/>
<path d="M29.0344 13.1938C26.4014 13.1938 24.2676 14.3584 24.2676 15.7938V29.6604C24.2676 31.0967 26.4014 32.2604 29.0344 32.2604C31.6664 32.2604 33.801 31.0967 33.801 29.6604V15.7938C33.801 14.3584 31.6664 13.1938 29.0344 13.1938ZM29.0344 14.9273C30.6797 14.9273 31.7343 15.4857 32.0187 15.7938C31.7343 16.1027 30.68 16.6604 29.0344 16.6604C27.3881 16.6604 26.3335 16.1027 26.0499 15.7938C26.3343 15.4857 27.3881 14.9273 29.0344 14.9273ZM32.0676 29.9332C31.2434 30.3039 30.1873 30.5273 29.0344 30.5273C27.8816 30.5273 26.8255 30.3047 26.001 29.9332V28.1997C26.8255 28.5713 27.8816 28.7938 29.0344 28.7938C30.1873 28.7938 31.2434 28.5705 32.0676 28.1997V29.9332ZM32.0676 26.4663C31.2434 26.8371 30.1873 27.0604 29.0344 27.0604C27.8816 27.0604 26.8255 26.8381 26.001 26.4663V24.7332C26.8255 25.1047 27.8816 25.3273 29.0344 25.3273C30.1873 25.3273 31.2434 25.1039 32.0676 24.7332V26.4663ZM32.0676 22.9997C31.2434 23.3705 30.1873 23.5938 29.0344 23.5938C27.8816 23.5938 26.8255 23.3713 26.001 22.9997V21.2663C26.8255 21.6381 27.8816 21.8604 29.0344 21.8604C30.1873 21.8604 31.2434 21.6371 32.0676 21.2663V22.9997ZM32.0676 19.5332C31.2434 19.9039 30.1873 20.1273 29.0344 20.1273C27.8816 20.1273 26.8255 19.9047 26.001 19.5332V17.7997C26.8255 18.1713 27.8816 18.3938 29.0344 18.3938C30.1873 18.3938 31.2434 18.1705 32.0676 17.7997V19.5332Z" fill="#1F40E5"/>
</svg>
