<svg width="48" height="48" viewBox="0 0 48 48" fill="none" xmlns="http://www.w3.org/2000/svg">
<rect x="6" y="26" width="36" height="14" rx="2" fill="#1F40E5"/>
<path opacity="0.3" fill-rule="evenodd" clip-rule="evenodd" d="M37.8581 16.5124L40.936 13.9578C36.783 8.95385 30.6305 6 23.9997 6C17.3782 6 11.2333 8.94564 7.08008 13.9377L10.155 16.4959C13.5561 12.4079 18.5792 10 23.9997 10C29.4277 10 34.4571 12.4146 37.8581 16.5124ZM31.7195 21.643L34.8056 19.0982C32.1637 15.8943 28.2344 14 23.9997 14C19.7789 14 15.8612 15.8818 13.219 19.0678L16.2979 21.6212C18.1881 19.3421 20.9821 18 23.9997 18C27.0272 18 29.8295 19.351 31.7195 21.643Z" fill="#1F40E5"/>
</svg>
