<svg width="46" height="46" viewBox="0 0 46 46" fill="none" xmlns="http://www.w3.org/2000/svg">
<circle r="22.5" transform="matrix(-1 0 0 1 23 23)" fill="white" stroke="#BDE3FE"/>
<path d="M23.7499 20.7958C23.7499 25.2225 20.2243 28.8103 15.8749 28.8103H15V27.0295H15.8749C19.2572 27.0295 22.0001 24.2391 22.0001 20.7958V19.0149C22.0001 18.5229 22.3912 18.1243 22.875 18.1243C23.3588 18.1243 23.7499 18.5229 23.7499 19.0149V20.7958Z" fill="#1F40E5"/>
<path d="M18.4999 19.014C18.4999 16.5546 20.4584 14.5613 22.875 14.5613C25.2905 14.5613 27.2501 16.5546 27.2501 19.014V20.7949C27.2501 27.1892 22.1573 32.3721 15.8749 32.3721H15V30.5912H15.8749C21.19 30.5912 25.5 26.2055 25.5 20.7949V19.014C25.5 17.5391 24.3243 16.3424 22.875 16.3424C21.4257 16.3424 20.25 17.5391 20.25 19.014V20.7949C20.25 23.2547 18.2915 25.248 15.8749 25.248H15V23.4665H15.8749C17.3242 23.4665 18.4999 22.2699 18.4999 20.7949V19.014Z" fill="#1F40E5"/>
<path d="M30.75 20.7954C30.75 25.4419 28.6883 29.595 25.4506 32.3721H22.4041C26.3416 30.0668 28.9999 25.7507 28.9999 20.7954V19.0145C28.9999 15.5726 26.257 12.7811 22.875 12.7811C19.4929 12.7811 16.7501 15.5726 16.7501 19.0145V20.7954C16.7501 21.288 16.3587 21.686 15.8749 21.686C15.3914 21.686 15 21.288 15 20.7954V19.0145C15 14.5881 18.5256 11 22.875 11C27.2233 11 30.75 14.5881 30.75 19.0145V20.7954Z" fill="#1F40E5"/>
<path d="M30.7501 28.3181V32.3721H27.9766C29.0856 31.1721 30.0214 29.8087 30.7501 28.3181Z" fill="#1F40E5"/>
</svg>
