<svg width="46" height="46" viewBox="0 0 46 46" fill="none" xmlns="http://www.w3.org/2000/svg">
<circle r="22.5" transform="matrix(-1 0 0 1 23 23)" fill="white" stroke="#BDE3FE"/>
<path d="M31.6662 13.4666H14.333C13.3799 13.4666 12.5996 14.2468 12.5996 15.2V30.8C12.5996 31.7529 13.3799 32.5334 14.333 32.5334H31.6662C32.6193 32.5334 33.3996 31.7529 33.3996 30.8V15.2C33.3996 14.2468 32.6193 13.4666 31.6662 13.4666ZM19.533 30.8H14.333V15.2H19.533V30.8ZM31.6662 30.8H21.2662V15.2H31.6662V30.8Z" fill="#1F40E5"/>
<path d="M17.7998 16.9331H16.0664V18.6665H17.7998V16.9331Z" fill="#1F40E5"/>
<path d="M17.7998 20.3999H16.0664V22.1331H17.7998V20.3999Z" fill="#1F40E5"/>
<path d="M17.7998 23.8665H16.0664V25.5999H17.7998V23.8665Z" fill="#1F40E5"/>
<path d="M17.7998 27.3335H16.0664V29.0667H17.7998V27.3335Z" fill="#1F40E5"/>
<path d="M28.2 16.9331H23V18.6665H28.2V16.9331Z" fill="#1F40E5"/>
<path d="M29.9344 20.3999H24.7344V22.1331H29.9344V20.3999Z" fill="#1F40E5"/>
<path d="M29.9336 23.8665H26.4668V25.5999H29.9336V23.8665Z" fill="#1F40E5"/>
<path d="M28.2 27.3335H23V29.0667H28.2V27.3335Z" fill="#1F40E5"/>
</svg>
