<svg xmlns="http://www.w3.org/2000/svg" viewBox="0 0 409.67 37.79"><title>Ресурс 1</title><g id="Слой_2" data-name="Слой 2"><g id="Слой_1-2" data-name="Слой 1"><path d="M408.82,13.35c-.21,0-1.1.07-1.33-.22s.31-.41.67-.64.59-.35.47-.42-1.37.26-1.93.29a6.06,6.06,0,0,1-3.35-1.23c-1.31-.88-3.07-2.71-5.9-1.64-1,.37-1.09.87-1.42.09C394.24,5.21,388.3,0,373.64,0H357.23l-.71,2.05H357c8.25,0,23.39-.08,26.13,1.14,3,1.34,3.81,2.16,2.73,4.52-.82,1.79-2.22-.45-4.12-.45a4.72,4.72,0,0,0-3,.49,1.93,1.93,0,0,1-2.18-.33,2.41,2.41,0,0,0-1.88-.51c-1.92.32.74.57,1.08,1.08s-1.6.34-2.62.7-.33.81.75.81,1.6.75.15,1.13-.46.69.67.54,1.4,0,1.37,1.18.89.35,1-.43.89.61,1.5.8-.23-1.16-.16-1.63,2.34-.87,3.08-.3,2.37,1.19,1.64,2.61c-.29.55.13,1-2.94,2.87s-5.56,0-7.68-.62a10.82,10.82,0,0,0-7,.58,20.16,20.16,0,0,0-2,1.68h18.5s9.76.51,9.76-7.85a8.66,8.66,0,0,0-3.22-6.37s4.84,2.26,4.84,7S390.5,20,381.91,20H359.35a5,5,0,0,0-2.13,2.32s-.64,2.57.84,3.95c3.36,3.13,9,2.95,13.16,2.83s8.66-3.28,14.38-2.16c5.06,1,9.33,3.14,10.45,4.82.66,1-.82,1.9-1.91,2.55-.74.45-1.3.79-.86.94,1.1.41,2.45-.7,3.14-.57s-1.31,3.34-.29,3.15,2.33-2.54,3-3,2.9,2,3.8,1.69c.43-.16.05-1-.37-1.75s-.95-1.66-.51-1.61c.85.1,3.08.11,3.24-.19s-2-1.4-2.69-1.58c-.45-.11.41-.33,1.29-.56s1.74-.47,1.46-.65a6.79,6.79,0,0,0-2.58-.28c-1.45.12-2.69.34-3.4-1.48a5.72,5.72,0,0,0-1.2-2.15c-1.15-1-3.06-1.4-2.56-2.3a14.56,14.56,0,0,0,1.9-8.85c-.31-1.88,3.7-1.69,3.7-1.69a3.12,3.12,0,0,1,2.71,1.33c.3.37-.92,1.35-1.09,2.23-.1.5.38.12.9-.29s.83-.64,1.07-.63c.39.18.38,1.39,1,1.59.46-.5.1-2.2.67-1.86.29.11,1.72,1,2.07.58.1-.22-.58-1.4-1-1.82-.17-.19.9-.53,1.36-.56,1.36-.07.67-.51-.07-.6" style="fill:#005484"/><path d="M96,5.54C96.43,1.85,94.1,0,89,0H64.45Q55.36,0,52.81,7.76l-.47,1.4H81.59c.49,0,.72.19.67.57l0,.17-4,12a1.13,1.13,0,0,1-1.13.79H61.19c-.49,0-.72-.18-.67-.53a.58.58,0,0,1,.07-.26l3.6-10.73H51.66L47.34,24.12a10.82,10.82,0,0,0-.53,2.19q-.68,5.58,7,5.58H78.38q9,0,11.59-7.77L95.44,7.76A10.46,10.46,0,0,0,96,5.54" style="fill:#005484"/><polygon points="200.35 0 197.3 9.16 209.81 9.16 212.86 0 200.35 0" style="fill:#005484"/><polygon points="196.62 11.21 189.72 31.89 202.23 31.89 209.12 11.21 196.62 11.21" style="fill:#005484"/><path d="M257.11,5.89a8.14,8.14,0,0,0,.19-1Q257.9,0,251,0H226.28a12,12,0,0,0-6.7,1.72,9.66,9.66,0,0,0-3.79,5.17L215,9.16h27.67c.49,0,.71.19.67.57l0,.17L241.64,15h-16l1.27-3.8H214.36l-6.88,20.68H220l3-9.16h16l-3,9.16h12.51l8.31-25c.1-.35.19-.68.27-1" style="fill:#005484"/><polygon points="253.65 31.89 264.68 31.89 271.58 11.21 260.55 11.21 253.65 31.89" style="fill:#005484"/><path d="M282.17,2.53A3.77,3.77,0,0,0,280.32.61,6.94,6.94,0,0,0,277.27,0H271c-4.48,0-7.44,2.12-8.85,6.37l-.93,2.79H285Z" style="fill:#005484"/><path d="M296.77,0l-6.86,20.59-4-9.38H271.58l7.7,18.15a3.81,3.81,0,0,0,1.83,1.92,6.93,6.93,0,0,0,3.08.61h6.25q6.69,0,8.81-6.37L307.76,0Z" style="fill:#005484"/><polygon points="314.07 31.89 326.58 31.89 333.45 11.21 320.94 11.21 314.07 31.89" style="fill:#005484"/><polygon points="309.89 0 306.81 9.16 308.47 9.16 340.79 9.16 348.94 9.16 352.02 0 309.89 0" style="fill:#005484"/><path d="M144.7,5.54q.68-5.53-7-5.54h-37.2L97.48,9.16h33c.49,0,.72.19.67.57a.16.16,0,0,1,0,.09.28.28,0,0,0,0,.12l-1,2.89a1.05,1.05,0,0,1-1.14.78H114l.81-2.4H102.29L95.4,31.89h12.51l3.56-10.69h7.12l5.26,10.69H137.7l.14-.44-5.29-10.34a11.53,11.53,0,0,0,6.16-2.29,11.2,11.2,0,0,0,3.55-5.38l1.91-5.68a10.46,10.46,0,0,0,.53-2.22" style="fill:#005484"/><path d="M193.24,5.54c.46-3.69-1.87-5.54-7-5.54h-36.8l-3.06,9.16h32.44c.49,0,.72.19.67.57l0,.17-4,12a1.13,1.13,0,0,1-1.13.79H159.22l3.84-11.52H150.58l-6.9,20.68h32q9,0,11.59-7.77l5.47-16.36a10.46,10.46,0,0,0,.53-2.22" style="fill:#005484"/><path d="M31.34,22.73H14.63c-.49,0-.71-.18-.67-.53a.74.74,0,0,1,.07-.26l3.6-10.73H5.1L.5,25q-.15.53-.27,1a7.1,7.1,0,0,0-.18.94q-.61,5,6.34,5H33.78A9.74,9.74,0,0,0,43,25.23l2.14-6.38H32.64Z" style="fill:#005484"/><path d="M34,9.16h1.81L34.52,13H47l1.3-3.88h0l.55-1.62s0,0,0-.06l0-.14A5.56,5.56,0,0,0,43.69,0H17Q8.82,0,6.54,6.89L5.78,9.16H34Z" style="fill:#005484"/></g></g></svg>