<svg width="100" height="98" viewBox="0 0 100 98" fill="none" xmlns="http://www.w3.org/2000/svg">
<path d="M100 0H0V98H100V0Z" fill="url(#paint0_linear)"/>
<path d="M33.7441 74.904V58.7998H36.5114V74.904H33.7441Z" fill="white"/>
<path d="M52.1182 74.904V58.7998H54.8854V74.904H52.1182Z" fill="white"/>
<path d="M79.082 74.904V58.7998H81.8492V74.904H79.082Z" fill="white"/>
<path d="M45.5213 18.6748H50.5311V49.1608H44.4984V32.504L37.3377 44.881H32.918L25.7049 32.7225V49.1608H19.7246V18.6748H24.7869L35.2 36.8739L45.5213 18.6748Z" fill="white"/>
<path d="M65.5739 49.1608V24.1114H55.4756V18.6748H81.8625V24.1114H71.751V49.1608H65.5739Z" fill="white"/>
<path d="M44.3802 63.5811C41.2327 63.5811 38.6753 66.1515 38.6753 69.339C38.6753 72.5135 41.2327 75.0969 44.3802 75.0969C47.5278 75.0969 50.0851 72.5264 50.0851 69.339C50.0851 66.1515 47.5278 63.5811 44.3802 63.5811ZM44.3802 72.6677C42.7671 72.6677 41.4556 71.1769 41.4556 69.3261C41.4556 67.4754 42.7671 65.9845 44.3802 65.9845C45.9933 65.9845 47.3048 67.4754 47.3048 69.3261C47.3048 71.1769 45.9933 72.6677 44.3802 72.6677Z" fill="white"/>
<path d="M57.8363 63.5811C54.6887 63.5811 52.1313 66.1515 52.1313 69.339C52.1313 72.5135 54.6887 75.0969 57.8363 75.0969C60.9838 75.0969 63.5412 72.5264 63.5412 69.339C63.5412 66.1515 60.9969 63.5811 57.8363 63.5811ZM57.8363 72.6677C56.2231 72.6677 54.9117 71.1769 54.9117 69.3261C54.9117 67.4754 56.2231 65.9845 57.8363 65.9845C59.4494 65.9845 60.7608 67.4754 60.7608 69.3261C60.7608 71.1769 59.4494 72.6677 57.8363 72.6677Z" fill="white"/>
<path d="M76.6164 69.3263C76.6164 69.3006 76.6164 69.2749 76.6164 69.2492V69.1977C76.5508 66.0746 74.0197 63.5684 70.9115 63.5684C67.7639 63.5684 65.2065 66.1389 65.2065 69.3263C65.2065 72.5008 67.7639 75.0842 70.9115 75.0842C71.9869 75.0842 72.9836 74.7886 73.8492 74.2616V74.9042H76.6164V69.4034C76.6164 69.3777 76.6164 69.352 76.6164 69.3263ZM70.9115 72.6679C69.2983 72.6679 67.9869 71.177 67.9869 69.3263C67.9869 67.4884 69.2983 65.9846 70.9115 65.9846C72.5246 65.9846 73.8361 67.4755 73.8361 69.3263C73.8361 71.177 72.5246 72.6679 70.9115 72.6679Z" fill="white"/>
<path d="M25.4295 63.5811C22.282 63.5811 19.7246 66.1515 19.7246 69.339C19.7246 70.2258 19.9213 71.0612 20.2754 71.8066C20.7607 72.8348 21.5344 73.6959 22.5049 74.2743C22.5049 74.2743 22.5049 74.2743 22.5049 74.2614C23.3574 74.7755 24.3541 75.084 25.4295 75.084C26.5049 75.084 27.5017 74.7755 28.3541 74.2614C29.3115 73.6831 30.0984 72.822 30.5836 71.7938C30.9377 71.0483 31.1344 70.2129 31.1344 69.3261C31.1344 66.1515 28.5771 63.5811 25.4295 63.5811ZM27.3967 71.7938C26.8721 72.3336 26.1902 72.6677 25.4295 72.6677C24.6689 72.6677 23.9869 72.3336 23.4623 71.7938C22.8721 71.1897 22.5049 70.3029 22.5049 69.3261C22.5049 69.3261 22.5049 69.3261 22.5049 69.3132C22.5049 67.4753 23.8164 65.9845 25.4295 65.9845C27.0426 65.9845 28.3541 67.4753 28.3541 69.3132C28.3541 70.3029 27.9869 71.1769 27.3967 71.7938Z" fill="white"/>
<path d="M28.3016 77.7446C27.9475 79.1455 26.8196 80.1737 25.4688 80.1737C24.1311 80.1737 22.9901 79.1455 22.636 77.7446H19.8032C20.2491 80.5079 22.6098 82.6157 25.4688 82.6157C28.3278 82.6157 30.6885 80.5079 31.1344 77.7446H28.3016Z" fill="white"/>
<defs>
<linearGradient id="paint0_linear" x1="89.9453" y1="-6.90223" x2="12.2094" y2="106.382" gradientUnits="userSpaceOnUse">
<stop offset="0.0980392" stop-color="#88EDF2"/>
<stop offset="0.2775" stop-color="#65B4EE"/>
<stop offset="0.4929" stop-color="#4076E9"/>
<stop offset="0.651" stop-color="#284FE6"/>
<stop offset="0.7333" stop-color="#1F40E5"/>
</linearGradient>
</defs>
</svg>
