<svg width="46" height="46" viewBox="0 0 46 46" fill="none" xmlns="http://www.w3.org/2000/svg">
<circle r="22.5" transform="matrix(-1 0 0 1 23 23)" fill="white" stroke="#BDE3FE"/>
<path d="M31.233 28.0662C30.3451 28.0662 29.5841 28.6013 29.249 29.3662H28.1996V25.4662H29.933C31.8474 25.4662 33.3996 23.914 33.3996 21.9996C33.3996 20.0852 31.8474 18.533 29.933 18.533C29.933 16.8178 28.6863 15.4042 27.052 15.1239C26.3544 13.0756 24.4189 11.5996 22.133 11.5996C19.2603 11.5996 16.933 13.9271 16.933 16.7996C14.5395 16.7996 12.5996 18.7395 12.5996 21.133C12.5996 23.5266 14.5395 25.4664 16.933 25.4664H17.7996V29.3664H16.7502C16.4151 28.6015 15.6533 28.0664 14.7662 28.0664C13.5694 28.0664 12.5996 29.0362 12.5996 30.2333C12.5996 31.4298 13.5694 32.3996 14.7662 32.3996C15.6533 32.3996 16.4151 31.8637 16.7502 31.0996H17.7996C18.7569 31.0996 19.533 30.3235 19.533 29.3662V25.4662H22.133V28.249C21.3689 28.5841 20.833 29.3451 20.833 30.233C20.833 31.4298 21.8036 32.3996 22.9996 32.3996C24.1964 32.3996 25.1662 31.4298 25.1662 30.233C25.1662 29.3451 24.6314 28.5833 23.8662 28.249V25.4662H26.4662V29.3662C26.4662 30.3235 27.2423 31.0996 28.1996 31.0996H29.249C29.5841 31.8637 30.3451 32.3996 31.233 32.3996C32.4298 32.3996 33.3996 31.4298 33.3996 30.233C33.3996 29.036 32.4298 28.0662 31.233 28.0662ZM14.333 21.133C14.333 19.696 15.4976 18.533 16.933 18.533H18.6662V16.7996C18.6662 14.8842 20.2186 13.333 22.133 13.333C24.0474 13.333 25.5996 14.8842 25.5996 16.7996H26.4672C27.4245 16.7996 28.1996 17.5744 28.1996 18.533V20.2664H29.933C30.8903 20.2664 31.6662 21.0415 31.6662 21.9999C31.6662 22.9561 30.8903 23.7333 29.933 23.7333H16.933C15.4976 23.733 14.333 22.5685 14.333 21.133Z" fill="#1F40E5"/>
</svg>
