<svg width="46" height="46" viewBox="0 0 46 46" fill="none" xmlns="http://www.w3.org/2000/svg">
<circle r="22.5" transform="matrix(-1 0 0 1 23 23)" fill="white" stroke="#BDE3FE"/>
<path d="M25.0625 20.9375H29.1875V22.3125H25.0625V20.9375Z" fill="#1F40E5"/>
<path d="M20.9375 26.4375H19.5625V25.0625H18.1875V26.4375H16.8125V27.8125H18.1875V29.1875H19.5625V27.8125H20.9375V26.4375Z" fill="#1F40E5"/>
<path d="M16.8125 18.1875H20.9375V19.5625H16.8125V18.1875Z" fill="#1F40E5"/>
<path d="M25.0625 23.6875H29.1875V25.0625H25.0625V23.6875Z" fill="#1F40E5"/>
<path d="M30.5625 14.0625H15.4375C15.0729 14.0629 14.7234 14.2078 14.4656 14.4656C14.2078 14.7234 14.0629 15.0729 14.0625 15.4375V30.5625C14.0629 30.9271 14.2078 31.2766 14.4656 31.5344C14.7234 31.7922 15.0729 31.9371 15.4375 31.9375H30.5625C30.9271 31.9371 31.2766 31.7922 31.5344 31.5344C31.7922 31.2766 31.9371 30.9271 31.9375 30.5625V15.4375C31.9371 15.0729 31.7922 14.7234 31.5344 14.4656C31.2766 14.2078 30.9271 14.0629 30.5625 14.0625ZM22.3125 15.4375V22.3125H15.4375V15.4375H22.3125ZM15.4375 23.6875H22.3125V30.5625H15.4375V23.6875ZM23.6875 30.5625V15.4375H30.5625V30.5625H23.6875Z" fill="#1F40E5"/>
</svg>
