<svg width="48" height="48" viewBox="0 0 48 48" fill="none" xmlns="http://www.w3.org/2000/svg">
<path fill-rule="evenodd" clip-rule="evenodd" d="M24.3837 13.645H18V27.7499H15.809C15.6196 27.7499 15.4465 27.8569 15.3618 28.0263L14.6118 29.5263C14.4456 29.8588 14.6873 30.2499 15.059 30.2499H18V34H21.365V30.2499H27.691C27.8803 30.2499 28.0535 30.1429 28.1382 29.9736L28.8882 28.4736C29.0544 28.1411 28.8127 27.7499 28.441 27.7499H21.365V25.5763H24.1537C25.2271 25.5763 26.2429 25.4709 27.2012 25.26C28.1596 25.0492 28.9981 24.709 29.7169 24.2394C30.4356 23.7698 31.0058 23.1517 31.4275 22.385C31.8492 21.6184 32.06 20.6696 32.06 19.5388C32.06 18.4846 31.8779 17.5838 31.5137 16.8363C31.1496 16.0888 30.6321 15.4754 29.9612 14.9963C29.2904 14.5171 28.4854 14.1721 27.5462 13.9613C26.6071 13.7504 25.5529 13.645 24.3837 13.645ZM25.5912 22.3994C25.0546 22.4856 24.4892 22.5288 23.895 22.5288H21.365V16.6925H24.01C24.5658 16.6925 25.1073 16.726 25.6344 16.7931C26.1615 16.8602 26.631 16.9992 27.0431 17.21C27.4552 17.4208 27.7858 17.7131 28.035 18.0869C28.2842 18.4606 28.4087 18.9446 28.4087 19.5388C28.4087 20.1521 28.2842 20.6504 28.035 21.0338C27.7858 21.4171 27.4504 21.719 27.0287 21.9394C26.6071 22.1598 26.1279 22.3131 25.5912 22.3994Z" fill="#BCC6F7"/>
<path fill-rule="evenodd" clip-rule="evenodd" d="M8.97867 37.2049C5.87955 33.6823 4 29.0606 4 24C4 12.9543 12.9543 4 24 4C29.0606 4 33.6822 5.87953 37.2048 8.9786C36.8257 8.77273 36.3414 8.8301 36.0208 9.15073L33.8113 11.3603C31.1019 9.25416 27.6974 8 24 8C15.1634 8 8 15.1634 8 24C8 27.6974 9.25416 31.1019 11.3603 33.8113L9.15075 36.0208C8.83009 36.3415 8.77273 36.8257 8.97867 37.2049ZM9.84345 38.1277L9.15075 37.435C9.08089 37.3651 9.02353 37.2875 8.97867 37.2049C9.25723 37.5215 9.54565 37.8293 9.84345 38.1277ZM9.87228 38.1565L10.565 38.8492C10.6348 38.9191 10.7124 38.9764 10.795 39.0213C14.3177 42.1204 18.9394 44 24 44C35.0457 44 44 35.0457 44 24C44 18.9394 42.1205 14.3178 39.0214 10.7951C38.9765 10.7125 38.9191 10.6348 38.8492 10.5649L37.435 9.15073C37.3651 9.08085 37.2875 9.02348 37.2048 8.9786C37.8484 9.54475 38.4552 10.1516 39.0214 10.7951C39.2272 11.1743 39.1699 11.6585 38.8492 11.9792L36.6397 14.1887C35.8185 13.1322 34.8677 12.1815 33.8113 11.3603L11.3603 33.8113C12.1815 34.8677 13.1322 35.8185 14.1887 36.6397L11.9792 38.8492C11.6585 39.1699 11.1742 39.2272 10.795 39.0213C10.4784 38.7427 10.1707 38.4543 9.87228 38.1565ZM36.6397 14.1887C38.7458 16.8981 40 20.3026 40 24C40 32.8366 32.8366 40 24 40C20.3026 40 16.8981 38.7458 14.1887 36.6397L36.6397 14.1887Z" fill="#1F40E5"/>
</svg>
