<svg width="48" height="48" viewBox="0 0 48 48" fill="none" xmlns="http://www.w3.org/2000/svg">
<path fill-rule="evenodd" clip-rule="evenodd" d="M16 18.2976L22.3356 17.1097C22.5792 17.0641 22.8291 17.0641 23.0727 17.1097L29.4083 18.2976V23.9332C29.4083 27.7259 27.4545 31.2511 24.2383 33.2612L23.2342 33.8888C22.9099 34.0915 22.4984 34.0915 22.1742 33.8888L21.17 33.2612C17.9538 31.2511 16 27.7259 16 23.9332L16 18.2976Z" fill="#1F40E5"/>
<path opacity="0.3" fill-rule="evenodd" clip-rule="evenodd" d="M11.7632 2.07516C11.4991 1.76041 10.9892 1.88089 10.8939 2.28055L8.25048 13.3627C8.1728 13.6883 8.43088 13.9968 8.76513 13.9779L20.1655 13.3319C20.5764 13.3086 20.7847 12.8266 20.5202 12.5113L17.4974 8.90891C19.2447 8.31184 21.0975 7.99998 23 7.99998C32.3888 7.99998 40 15.6111 40 25C40 34.3888 32.3888 42 23 42C13.6112 42 6 34.3888 6 25C6 23.4238 6.21344 21.8801 6.62962 20.3964L2.77827 19.3161C2.27119 21.1238 2 23.0302 2 25C2 36.598 11.402 46 23 46C34.598 46 44 36.598 44 25C44 13.402 34.598 3.99998 23 3.99998C20.0827 3.99998 17.3043 4.59485 14.7796 5.6699L11.7632 2.07516Z" fill="#1F40E5"/>
</svg>
