<svg width="46" height="46" viewBox="0 0 46 46" fill="none" xmlns="http://www.w3.org/2000/svg">
<circle r="22.5" transform="matrix(-1 0 0 1 23 23)" fill="white" stroke="#BDE3FE"/>
<path d="M25.0833 21.5827C25.0833 22.4377 24.5683 23.1711 23.8333 23.4927V25.3394C23.8333 25.5604 23.7455 25.7724 23.5892 25.9287C23.4329 26.0849 23.221 26.1727 23 26.1727C22.7789 26.1727 22.567 26.0849 22.4107 25.9287C22.2544 25.7724 22.1666 25.5604 22.1666 25.3394V23.4927C21.8224 23.3425 21.5252 23.102 21.3064 22.7967C21.0877 22.4914 20.9556 22.1327 20.924 21.7584C20.8924 21.3842 20.9626 21.0083 21.1272 20.6707C21.2917 20.3331 21.5444 20.0462 21.8586 19.8405C22.1728 19.6347 22.5368 19.5177 22.9121 19.5019C23.2873 19.486 23.6598 19.5719 23.9903 19.7504C24.3207 19.929 24.5967 20.1935 24.7891 20.516C24.9816 20.8386 25.0832 21.2072 25.0833 21.5827Z" fill="#1F40E5"/>
<path d="M21.5717 12.904C20.6771 13.4996 19.7161 13.989 18.7083 14.3624C17.2647 14.9053 15.7479 15.2289 14.2083 15.3224C14.114 15.3278 14.0195 15.3317 13.925 15.334H13.8417C13.7315 15.3329 13.6223 15.3537 13.5202 15.395C13.4181 15.4364 13.3253 15.4976 13.247 15.5751C13.1687 15.6526 13.1066 15.7449 13.0642 15.8465C13.0218 15.9482 13 16.0572 13 16.1674V20.759C13.0001 22.9319 13.5665 25.0672 14.6435 26.9544C15.7206 28.8416 17.2709 30.4154 19.1417 31.5207L22.5783 33.5524C22.7068 33.6283 22.8533 33.6684 23.0025 33.6684C23.1517 33.6684 23.2982 33.6283 23.4267 33.5524L26.86 31.5224C28.7305 30.4169 30.2805 28.8429 31.3572 26.9558C32.4339 25.0686 33.0001 22.9334 33 20.7607V16.1674C33 16.0568 32.978 15.9473 32.9353 15.8453C32.8926 15.7434 32.83 15.6509 32.7512 15.5733C32.6724 15.4958 32.579 15.4347 32.4763 15.3936C32.3737 15.3525 32.2639 15.3323 32.1533 15.334H32.07C31.6218 15.3213 31.1746 15.2857 30.73 15.2274C29.5605 15.0752 28.4131 14.7855 27.3117 14.364C26.3023 13.9836 25.3385 13.4917 24.4383 12.8974C24.2082 12.7433 23.9857 12.5781 23.7717 12.4024C23.7081 12.3501 23.6464 12.2956 23.5867 12.239C23.4294 12.0844 23.2172 11.9985 22.9966 12C22.776 12.0016 22.5651 12.0905 22.41 12.2474L22.2283 12.409C22.0917 12.5257 21.8733 12.6974 21.5717 12.904ZM14.6667 20.759V16.9624C16.2521 16.8317 17.8116 16.4805 19.3 15.919C20.4301 15.4996 21.5073 14.9497 22.51 14.2807C22.7017 14.1507 22.8667 14.0307 23.0067 13.9224C23.1483 14.029 23.315 14.149 23.5067 14.279C24.2133 14.754 25.27 15.3624 26.71 15.9174C28.1931 16.4863 29.75 16.8399 31.3333 16.9674V20.7624C31.3334 22.6454 30.8426 24.4959 29.9094 26.1314C28.9762 27.767 27.6328 29.131 26.0117 30.089L23.0017 31.8674L19.99 30.0874C18.3683 29.1294 17.0245 27.7652 16.0909 26.1293C15.1574 24.4935 14.6665 22.6425 14.6667 20.759Z" fill="#1F40E5"/>
</svg>
