<svg width="46" height="46" viewBox="0 0 46 46" fill="none" xmlns="http://www.w3.org/2000/svg">
<circle r="22.5" transform="matrix(-1 0 0 1 23 23)" fill="white" stroke="#BDE3FE"/>
<path d="M23 29.9333H14.3334V17.8001H31.6666V23.0001H33.4V14.3335C33.4 13.3804 32.6197 12.6001 31.6666 12.6001H14.3334C13.3802 12.6001 12.6 13.3804 12.6 14.3335V29.9335C12.6 30.8867 13.3802 31.6672 14.3334 31.6672H23V29.9333ZM14.3334 14.3335H31.6666V16.0669H14.3334V14.3335Z" fill="#1F40E5"/>
<path d="M22.1334 19.5332H16.0665V21.2669H22.1334V19.5332Z" fill="#1F40E5"/>
<path d="M27.3334 19.5332H23.8666V21.2669H27.3334V19.5332Z" fill="#1F40E5"/>
<path d="M25.6 23H17.8V24.7332H25.6V23Z" fill="#1F40E5"/>
<path d="M23 26.4668H19.5334V28.2H23V26.4668Z" fill="#1F40E5"/>
<path d="M17.7999 26.4668H16.0665V28.2H17.7999V26.4668Z" fill="#1F40E5"/>
<path d="M33.4 29.9332V28.2H31.9596C31.8995 28.0019 31.8215 27.8131 31.7251 27.6348L32.7443 26.6156L31.5178 25.3902L30.4986 26.4083C30.32 26.3119 30.1315 26.2336 29.9334 26.1738V24.7332H28.2V26.1738C28.0019 26.2336 27.8134 26.3119 27.6345 26.4083L26.6155 25.3891L25.3899 26.6156L26.4081 27.6348C26.3116 27.8131 26.2339 28.0019 26.1738 28.2H24.7334V29.9332H26.1738C26.2339 30.1313 26.3116 30.32 26.4081 30.4989L25.3899 31.5176L26.6155 32.7435L27.6337 31.7253C27.8131 31.8218 28.0019 31.8995 28.2 31.9593V33.4H29.9334V31.9593C30.1315 31.8995 30.32 31.8218 30.4997 31.7253L31.5178 32.7435L32.7443 31.5176L31.7251 30.4989C31.8215 30.3193 31.8995 30.1313 31.9596 29.9332H33.4ZM29.0666 30.3668C28.349 30.3668 27.7666 29.7844 27.7666 29.0668C27.7666 28.3487 28.349 27.7668 29.0666 27.7668C29.7844 27.7668 30.3666 28.3487 30.3666 29.0668C30.3666 29.7844 29.7844 30.3668 29.0666 30.3668Z" fill="#1F40E5"/>
</svg>
