<svg width="46" height="46" viewBox="0 0 46 46" fill="none" xmlns="http://www.w3.org/2000/svg">
<circle r="22.5" transform="matrix(-1 0 0 1 23 23)" fill="white" stroke="#BDE3FE"/>
<path d="M23.7499 24.3929C23.7499 29.2141 20.2243 33.1216 15.8749 33.1216H15V31.1821H15.8749C19.2572 31.1821 22.0001 28.1431 22.0001 24.3929V22.4534C22.0001 21.9175 22.3912 21.4834 22.875 21.4834C23.3588 21.4834 23.7499 21.9175 23.7499 22.4534V24.3929Z" fill="#1F40E5"/>
<path d="M18.4999 22.4525C18.4999 19.7739 20.4584 17.603 22.875 17.603C25.2905 17.603 27.2501 19.7739 27.2501 22.4525V24.392C27.2501 31.3559 22.1573 37.0005 15.8749 37.0005H15V35.0609H15.8749C21.19 35.0609 25.5 30.2845 25.5 24.392V22.4525C25.5 20.8461 24.3243 19.5429 22.875 19.5429C21.4257 19.5429 20.25 20.8461 20.25 22.4525V24.392C20.25 27.0709 18.2915 29.2417 15.8749 29.2417H15V27.3016H15.8749C17.3242 27.3016 18.4999 25.9984 18.4999 24.392V22.4525Z" fill="#1F40E5"/>
<path d="M30.75 24.3925C30.75 29.453 28.6883 33.9761 25.4506 37.0005H22.4041C26.3416 34.4899 28.9999 29.7893 28.9999 24.3925V22.4531C28.9999 18.7045 26.257 15.6644 22.875 15.6644C19.4929 15.6644 16.7501 18.7045 16.7501 22.4531V24.3925C16.7501 24.929 16.3587 25.3625 15.8749 25.3625C15.3914 25.3625 15 24.929 15 24.3925V22.4531C15 17.6323 18.5256 13.7246 22.875 13.7246C27.2233 13.7246 30.75 17.6323 30.75 22.4531V24.3925Z" fill="#1F40E5"/>
<path d="M30.75 32.5854V37.0005H27.9764C29.0855 35.6937 30.0213 34.2088 30.75 32.5854Z" fill="#1F40E5"/>
</svg>
