<svg width="46" height="46" viewBox="0 0 46 46" fill="none" xmlns="http://www.w3.org/2000/svg">
<circle r="22.5" transform="matrix(-1 0 0 1 23 23)" fill="white" stroke="#BDE3FE"/>
<path d="M31.2335 28.0667C30.3456 28.0667 29.5846 28.6018 29.2495 29.3667H28.2001V25.4667H29.9335C31.8479 25.4667 33.4001 23.9145 33.4001 22.0001C33.4001 20.0857 31.8479 18.5335 29.9335 18.5335C29.9335 16.8183 28.6868 15.4047 27.0525 15.1244C26.3549 13.0761 24.4194 11.6001 22.1335 11.6001C19.2608 11.6001 16.9335 13.9276 16.9335 16.8001C14.54 16.8001 12.6001 18.74 12.6001 21.1335C12.6001 23.5271 14.54 25.4669 16.9335 25.4669H17.8001V29.3669H16.7507C16.4156 28.602 15.6538 28.0669 14.7667 28.0669C13.5699 28.0669 12.6001 29.0367 12.6001 30.2338C12.6001 31.4303 13.5699 32.4001 14.7667 32.4001C15.6538 32.4001 16.4156 31.8642 16.7507 31.1001H17.8001C18.7574 31.1001 19.5335 30.324 19.5335 29.3667V25.4667H22.1335V28.2495C21.3694 28.5846 20.8335 29.3456 20.8335 30.2335C20.8335 31.4303 21.8041 32.4001 23.0001 32.4001C24.1969 32.4001 25.1667 31.4303 25.1667 30.2335C25.1667 29.3456 24.6319 28.5838 23.8667 28.2495V25.4667H26.4667V29.3667C26.4667 30.324 27.2428 31.1001 28.2001 31.1001H29.2495C29.5846 31.8642 30.3456 32.4001 31.2335 32.4001C32.4303 32.4001 33.4001 31.4303 33.4001 30.2335C33.4001 29.0365 32.4303 28.0667 31.2335 28.0667ZM14.3335 21.1335C14.3335 19.6965 15.4981 18.5335 16.9335 18.5335H18.6667V16.8001C18.6667 14.8847 20.2191 13.3335 22.1335 13.3335C24.0479 13.3335 25.6001 14.8847 25.6001 16.8001H26.4677C27.425 16.8001 28.2001 17.5749 28.2001 18.5335V20.2669H29.9335C30.8908 20.2669 31.6667 21.042 31.6667 22.0004C31.6667 22.9566 30.8908 23.7338 29.9335 23.7338H16.9335C15.4981 23.7335 14.3335 22.569 14.3335 21.1335Z" fill="#1F40E5"/>
</svg>
