<svg width="46" height="46" viewBox="0 0 46 46" fill="none" xmlns="http://www.w3.org/2000/svg">
<circle r="22.5" transform="matrix(-1 0 0 1 23 23)" fill="white" stroke="#BDE3FE"/>
<path d="M29.0665 17.8001C29.5451 17.8001 29.9331 17.4121 29.9331 16.9335C29.9331 16.4549 29.5451 16.0669 29.0665 16.0669C28.5879 16.0669 28.2 16.4549 28.2 16.9335C28.2 17.4121 28.5879 17.8001 29.0665 17.8001Z" fill="#1F40E5"/>
<path d="M26.0335 17.8001C26.5121 17.8001 26.9 17.4121 26.9 16.9335C26.9 16.4549 26.5121 16.0669 26.0335 16.0669C25.5549 16.0669 25.1669 16.4549 25.1669 16.9335C25.1669 17.4121 25.5549 17.8001 26.0335 17.8001Z" fill="#1F40E5"/>
<path d="M23 17.8001C23.4786 17.8001 23.8666 17.4121 23.8666 16.9335C23.8666 16.4549 23.4786 16.0669 23 16.0669C22.5214 16.0669 22.1334 16.4549 22.1334 16.9335C22.1334 17.4121 22.5214 17.8001 23 17.8001Z" fill="#1F40E5"/>
<path d="M31.6666 12.6001H14.3334C13.3802 12.6001 12.6 13.3804 12.6 14.3335V20.4001C12.6 21.3538 13.3802 22.1335 14.3334 22.1335H31.6666C32.6197 22.1335 33.4 21.3538 33.4 20.4001V14.3335C33.4 13.3804 32.6197 12.6001 31.6666 12.6001ZM31.6666 20.4001H20.8334V16.0667H19.1V20.4001H17.8V16.0667H16.0666V20.4001H14.3334V14.3335H31.6666V20.4001Z" fill="#1F40E5"/>
<path d="M29.0665 29.0667C29.5451 29.0667 29.9331 28.6787 29.9331 28.2001C29.9331 27.7215 29.5451 27.3335 29.0665 27.3335C28.5879 27.3335 28.2 27.7215 28.2 28.2001C28.2 28.6787 28.5879 29.0667 29.0665 29.0667Z" fill="#1F40E5"/>
<path d="M26.0335 29.0667C26.5121 29.0667 26.9 28.6787 26.9 28.2001C26.9 27.7215 26.5121 27.3335 26.0335 27.3335C25.5549 27.3335 25.1669 27.7215 25.1669 28.2001C25.1669 28.6787 25.5549 29.0667 26.0335 29.0667Z" fill="#1F40E5"/>
<path d="M23 29.0667C23.4786 29.0667 23.8666 28.6787 23.8666 28.2001C23.8666 27.7215 23.4786 27.3335 23 27.3335C22.5214 27.3335 22.1334 27.7215 22.1334 28.2001C22.1334 28.6787 22.5214 29.0667 23 29.0667Z" fill="#1F40E5"/>
<path d="M31.6666 23.8665H14.3334C13.3802 23.8665 12.6 24.6467 12.6 25.5999V31.6665C12.6 32.6196 13.3802 33.3999 14.3334 33.3999H31.6666C32.6197 33.3999 33.4 32.6196 33.4 31.6665V25.5999C33.4 24.6467 32.6197 23.8665 31.6666 23.8665ZM31.6666 31.6665H20.8334V27.333H19.1V31.6665H17.8V27.333H16.0666V31.6665H14.3334V25.5999H31.6666V31.6665Z" fill="#1F40E5"/>
</svg>
