<svg width="46" height="46" viewBox="0 0 46 46" fill="none" xmlns="http://www.w3.org/2000/svg">
<circle r="22.5" transform="matrix(-1 0 0 1 23 23)" fill="white" stroke="#BDE3FE"/>
<path d="M28.2 23.0938H23.8666V24.8272H28.2V23.0938Z" fill="#1F40E5"/>
<path d="M22.1334 23.0938H20.4V24.8272H22.1334V23.0938Z" fill="#1F40E5"/>
<path d="M33.3996 26.5599H31.6662V12.6934H14.333V26.5599H12.5996V28.2934H18.233L16.933 33.4934H18.7195L19.1529 31.7599H26.8463L27.2797 33.4934H29.0662L27.7662 28.2934H33.3996V26.5599ZM29.2152 14.4265L24.733 18.9089L22.133 16.3089L16.0662 22.3755V14.4265H29.2152ZM19.5863 30.0268L20.0195 28.2934H25.9797L26.4129 30.0268H19.5863ZM16.0662 26.5599V24.8268L22.133 18.7599L24.733 21.3599L29.933 16.1599V26.5599H16.0662Z" fill="#1F40E5"/>
</svg>
