<svg width="46" height="46" viewBox="0 0 46 46" fill="none" xmlns="http://www.w3.org/2000/svg">
<circle r="22.5" transform="matrix(-1 0 0 1 23 23)" fill="white" stroke="#BDE3FE"/>
<path d="M23.8666 12.6001H22.1334V14.3335H23.8666V12.6001Z" fill="#1F40E5"/>
<path d="M23.8666 31.6665H22.1334V33.3999H23.8666V31.6665Z" fill="#1F40E5"/>
<path d="M32.1917 15.034L30.9662 13.8081L28.5148 16.2588L29.7403 17.4847L32.1917 15.034Z" fill="#1F40E5"/>
<path d="M17.4844 29.741L16.259 28.5156L13.808 30.9667L15.0333 32.192L17.4844 29.741Z" fill="#1F40E5"/>
<path d="M15.0345 13.8073L13.8081 15.0327L16.2579 17.4846L17.4843 16.2592L15.0345 13.8073Z" fill="#1F40E5"/>
<path d="M29.7406 28.5159L28.5153 29.7412L30.9663 32.1922L32.1916 30.9669L29.7406 28.5159Z" fill="#1F40E5"/>
<path d="M14.3333 22.1333H12.5999V23.867H14.3333V22.1333Z" fill="#1F40E5"/>
<path d="M33.4002 22.1333H31.6667V23.867H33.4002V22.1333Z" fill="#1F40E5"/>
<path d="M22.9997 16.0664C19.1707 16.0664 16.0663 19.1713 16.0663 22.9998C16.0663 26.8294 19.1707 29.9332 22.9997 29.9332C26.8292 29.9332 29.9331 26.8294 29.9331 22.9998C29.9331 19.1713 26.8292 16.0664 22.9997 16.0664ZM23.8663 28.1218V26.4664L25.8537 24.479C26.1907 24.1423 26.4663 23.4761 26.4663 22.9998V22.133H24.9497V19.533H23.6497V22.133H22.3497V19.533H21.0497V22.133H19.5331V22.9998C19.5331 23.4761 19.809 24.1425 20.1457 24.479L22.1331 26.4664V28.1218C19.6753 27.7089 17.7997 25.5762 17.7997 22.9998C17.7997 20.1281 20.128 17.7998 22.9997 17.7998C25.8722 17.7998 28.1997 20.1281 28.1997 22.9998C28.1997 25.5762 26.3251 27.7089 23.8663 28.1218Z" fill="#1F40E5"/>
</svg>
