<svg width="46" height="46" viewBox="0 0 46 46" fill="none" xmlns="http://www.w3.org/2000/svg">
<circle r="22.5" transform="matrix(-1 0 0 1 23 23)" fill="white" stroke="#BDE3FE"/>
<path d="M31.2334 28.0667C30.3455 28.0667 29.5845 28.6018 29.2493 29.3667H28.2V25.4667H29.9334C31.8478 25.4667 33.4 23.9145 33.4 22.0001C33.4 20.0857 31.8478 18.5335 29.9334 18.5335C29.9334 16.8183 28.6867 15.4047 27.0523 15.1244C26.3548 13.0761 24.4193 11.6001 22.1334 11.6001C19.2607 11.6001 16.9334 13.9276 16.9334 16.8001C14.5398 16.8001 12.6 18.74 12.6 21.1335C12.6 23.5271 14.5398 25.4669 16.9334 25.4669H17.8V29.3669H16.7506C16.4155 28.602 15.6537 28.0669 14.7666 28.0669C13.5698 28.0669 12.6 29.0367 12.6 30.2338C12.6 31.4303 13.5698 32.4001 14.7666 32.4001C15.6537 32.4001 16.4155 31.8642 16.7506 31.1001H17.8C18.7573 31.1001 19.5334 30.324 19.5334 29.3667V25.4667H22.1334V28.2495C21.3693 28.5846 20.8334 29.3456 20.8334 30.2335C20.8334 31.4303 21.804 32.4001 23 32.4001C24.1968 32.4001 25.1666 31.4303 25.1666 30.2335C25.1666 29.3456 24.6317 28.5838 23.8666 28.2495V25.4667H26.4666V29.3667C26.4666 30.324 27.2427 31.1001 28.2 31.1001H29.2493C29.5845 31.8642 30.3455 32.4001 31.2334 32.4001C32.4302 32.4001 33.4 31.4303 33.4 30.2335C33.4 29.0365 32.4302 28.0667 31.2334 28.0667ZM14.3334 21.1335C14.3334 19.6965 15.4979 18.5335 16.9334 18.5335H18.6666V16.8001C18.6666 14.8847 20.219 13.3335 22.1334 13.3335C24.0478 13.3335 25.6 14.8847 25.6 16.8001H26.4676C27.4249 16.8001 28.2 17.5749 28.2 18.5335V20.2669H29.9334C30.8907 20.2669 31.6666 21.042 31.6666 22.0004C31.6666 22.9566 30.8907 23.7338 29.9334 23.7338H16.9334C15.4979 23.7335 14.3334 22.569 14.3334 21.1335Z" fill="#1F40E5"/>
</svg>
