<svg width="80" height="80" viewBox="0 0 80 80" fill="none" xmlns="http://www.w3.org/2000/svg">
<path opacity="0.3" fill-rule="evenodd" clip-rule="evenodd" d="M41.6665 73.3335C48.9432 73.3335 55.7012 71.1129 61.2999 67.3123L57.5556 61.7965C52.9028 64.9549 47.421 66.6668 41.6665 66.6668C26.0184 66.6668 13.3332 53.9816 13.3332 38.3335C13.3332 22.6854 26.0184 10.0002 41.6665 10.0002C57.3146 10.0002 69.9998 22.6854 69.9998 38.3335C69.9998 40.9604 69.6441 43.5333 68.9505 46.0061L75.3694 47.8066C76.2145 44.7937 76.6665 41.6164 76.6665 38.3335C76.6665 19.0035 60.9965 3.3335 41.6665 3.3335C22.3365 3.3335 6.6665 19.0035 6.6665 38.3335C6.6665 57.6635 22.3365 73.3335 41.6665 73.3335Z" fill="#D8E8F5"/>
<path fill-rule="evenodd" clip-rule="evenodd" d="M75.5148 45.1502C75.7623 45.2421 75.8957 45.5106 75.8194 45.7634L74.6788 49.5419C74.6025 49.7947 74.3428 49.9445 74.0858 49.8842L36.9287 41.1548C36.648 41.0889 36.4811 40.7997 36.5644 40.5236L39.0809 32.1869C39.1643 31.9108 39.4633 31.7622 39.7336 31.8626L75.5148 45.1502Z" fill="white"/>
</svg>
