<svg width="46" height="46" viewBox="0 0 46 46" fill="none" xmlns="http://www.w3.org/2000/svg">
<circle r="22.5" transform="matrix(-1 0 0 1 23 23)" fill="white" stroke="#BDE3FE"/>
<path d="M28.2001 23.0938H23.8667V24.8272H28.2001V23.0938Z" fill="#1F40E5"/>
<path d="M22.1333 23.0938H20.3999V24.8272H22.1333V23.0938Z" fill="#1F40E5"/>
<path d="M33.4001 26.5599H31.6667V12.6934H14.3335V26.5599H12.6001V28.2934H18.2335L16.9335 33.4934H18.72L19.1534 31.7599H26.8468L27.2802 33.4934H29.0667L27.7667 28.2934H33.4001V26.5599ZM29.2157 14.4265L24.7335 18.9089L22.1335 16.3089L16.0667 22.3755V14.4265H29.2157ZM19.5868 30.0268L20.02 28.2934H25.9802L26.4134 30.0268H19.5868ZM16.0667 26.5599V24.8268L22.1335 18.7599L24.7335 21.3599L29.9335 16.1599V26.5599H16.0667Z" fill="#1F40E5"/>
</svg>
