<svg width="46" height="46" viewBox="0 0 46 46" fill="none" xmlns="http://www.w3.org/2000/svg">
<circle r="22.5" transform="matrix(-1 0 0 1 23 23)" fill="white" stroke="#BDE3FE"/>
<path d="M25 14.269C25 13.568 24.432 13 23.731 13H22.27C21.568 13 21 13.568 21 14.269C21 14.847 20.604 15.343 20.065 15.555C19.98 15.589 19.895 15.625 19.812 15.661C19.281 15.891 18.65 15.821 18.24 15.412C18.002 15.1742 17.6794 15.0406 17.343 15.0406C17.0066 15.0406 16.684 15.1742 16.446 15.412L15.412 16.446C15.1742 16.684 15.0406 17.0066 15.0406 17.343C15.0406 17.6794 15.1742 18.002 15.412 18.24V18.24C15.822 18.65 15.892 19.28 15.66 19.812C15.6235 19.8957 15.5885 19.9801 15.555 20.065C15.343 20.604 14.847 21 14.269 21C13.568 21 13 21.568 13 22.269V23.731C13 24.432 13.568 25 14.269 25C14.847 25 15.343 25.396 15.555 25.935C15.589 26.02 15.625 26.105 15.66 26.188C15.891 26.719 15.821 27.35 15.412 27.76C15.1742 27.998 15.0406 28.3206 15.0406 28.657C15.0406 28.9934 15.1742 29.316 15.412 29.554L16.446 30.588C16.684 30.8258 17.0066 30.9594 17.343 30.9594C17.6794 30.9594 18.002 30.8258 18.24 30.588C18.65 30.178 19.28 30.108 19.812 30.339C19.895 30.376 19.98 30.411 20.065 30.445C20.604 30.657 21 31.153 21 31.731C21 32.432 21.568 33 22.269 33H23.731C24.432 33 25 32.432 25 31.731C25 31.153 25.396 30.657 25.935 30.444C26.02 30.411 26.105 30.376 26.188 30.34C26.719 30.108 27.35 30.179 27.759 30.588C27.8768 30.7059 28.0168 30.7994 28.1708 30.8632C28.3248 30.927 28.4898 30.9599 28.6565 30.9599C28.8232 30.9599 28.9882 30.927 29.1422 30.8632C29.2962 30.7994 29.4362 30.7059 29.554 30.588L30.588 29.554C30.8258 29.316 30.9594 28.9934 30.9594 28.657C30.9594 28.3206 30.8258 27.998 30.588 27.76V27.76C30.178 27.35 30.108 26.72 30.339 26.188C30.376 26.105 30.411 26.02 30.445 25.935C30.657 25.396 31.153 25 31.731 25C32.432 25 33 24.432 33 23.731V22.27C33 21.569 32.432 21.001 31.731 21.001C31.153 21.001 30.657 20.605 30.444 20.066C30.4105 19.9811 30.3755 19.8967 30.339 19.813C30.109 19.282 30.179 18.651 30.588 18.241C30.8258 18.003 30.9594 17.6804 30.9594 17.344C30.9594 17.0076 30.8258 16.685 30.588 16.447L29.554 15.413C29.316 15.1752 28.9934 15.0416 28.657 15.0416C28.3206 15.0416 27.998 15.1752 27.76 15.413V15.413C27.35 15.823 26.72 15.893 26.188 15.662C26.1043 15.6252 26.0199 15.5899 25.935 15.556C25.396 15.343 25 14.847 25 14.27V14.269Z" stroke="#1F40E5" stroke-width="2"/>
<path d="M27 23C27 24.0609 26.5786 25.0783 25.8284 25.8284C25.0783 26.5786 24.0609 27 23 27C21.9391 27 20.9217 26.5786 20.1716 25.8284C19.4214 25.0783 19 24.0609 19 23C19 21.9391 19.4214 20.9217 20.1716 20.1716C20.9217 19.4214 21.9391 19 23 19C24.0609 19 25.0783 19.4214 25.8284 20.1716C26.5786 20.9217 27 21.9391 27 23V23Z" stroke="#1F40E5" stroke-width="2"/>
</svg>
