<svg width="48" height="48" viewBox="0 0 48 48" fill="none" xmlns="http://www.w3.org/2000/svg">
<path d="M24 22C19.5817 22 16 18.4183 16 14C16 9.58172 19.5817 6 24 6C28.4183 6 32 9.58172 32 14C32 18.4183 28.4183 22 24 22Z" fill="#1F40E5"/>
<path fill-rule="evenodd" clip-rule="evenodd" d="M9 46C8.58333 46 8.16667 45.8333 7.83333 45.5L4.5 42.1667C3.83333 41.5 3.83333 40.5 4.5 39.8333C5.16667 39.1667 6.25 39.1667 6.83333 39.8333L9 42L14.5 36.5C15.1667 35.8333 16.1667 35.8333 16.8333 36.5C17.5 37.1667 17.5 38.1667 16.8333 38.8333L10.1667 45.5C9.83333 45.8333 9.41667 46 9 46Z" fill="#BCC6F7"/>
<path fill-rule="evenodd" clip-rule="evenodd" d="M13.6406 28.3979C19.024 29.791 22.9999 34.6812 22.9999 40.5C22.9999 41.0076 22.9696 41.5082 22.9108 42H40.4933C41.9957 42 42.019 40.7909 41.9957 40.4C41.4096 30.5864 33.5423 26 23.9665 26C20.1257 26 16.5654 26.8029 13.6406 28.3979Z" fill="#1F40E5"/>
</svg>
