<svg width="46" height="46" viewBox="0 0 46 46" fill="none" xmlns="http://www.w3.org/2000/svg">
<circle r="22.5" transform="matrix(-1 0 0 1 23 23)" fill="white" stroke="#BDE3FE"/>
<path d="M13.6667 32.3333H33.6667C34.403 32.3333 35 32.9303 35 33.6667C35 34.403 34.403 35 33.6667 35H12.3333C11.597 35 11 34.403 11 33.6667V12.3333C11 11.597 11.597 11 12.3333 11C13.0697 11 13.6667 11.597 13.6667 12.3333V32.3333Z" fill="#1F40E5"/>
<path d="M18.3472 16.409C17.8346 15.8876 16.9757 15.8612 16.4289 16.35C15.8821 16.8388 15.8544 17.6578 16.3671 18.1792L21.4563 23.3557C21.9521 23.8599 22.776 23.9037 23.3274 23.455L27.3441 20.1865L32.5776 26.5077C33.0421 27.0687 33.8955 27.1644 34.4838 26.7216C35.072 26.2787 35.1724 25.4649 34.708 24.9039L28.6009 17.5275C28.1239 16.9514 27.2403 16.8685 26.6547 17.345L22.5507 20.6845L18.3472 16.409Z" fill="#1F40E5"/>
</svg>
