<svg width="80" height="80" viewBox="0 0 80 80" fill="none" xmlns="http://www.w3.org/2000/svg">
<path fill-rule="evenodd" clip-rule="evenodd" d="M39.5 73C32.5352 73 26.0668 70.8745 20.708 67.2369L24.2919 61.9574C28.7452 64.9805 33.9921 66.619 39.5 66.619C54.4774 66.619 66.619 54.4774 66.619 39.5C66.619 24.5226 54.4774 12.381 39.5 12.381C24.5226 12.381 12.381 24.5226 12.381 39.5C12.381 42.0143 12.7214 44.4769 13.3853 46.8438L7.24152 48.5672C6.43261 45.6834 6 42.6422 6 39.5C6 20.9985 20.9985 6.00001 39.5 6.00001C58.0015 6.00001 73 20.9985 73 39.5C73 58.0015 58.0015 73 39.5 73Z" fill="white"/>
<path fill-rule="evenodd" clip-rule="evenodd" d="M7.12072 46.0174C6.87321 46.1094 6.73982 46.3779 6.81612 46.6307L7.89617 50.2087C7.97247 50.4614 8.23216 50.6113 8.48919 50.5509L44.012 42.2055C44.2928 42.1395 44.4597 41.8504 44.3763 41.5743L41.9808 33.6385C41.8975 33.3624 41.5985 33.2139 41.3281 33.3143L7.12072 46.0174Z" fill="#5672EA"/>
</svg>
