<svg width="46" height="46" viewBox="0 0 46 46" fill="none" xmlns="http://www.w3.org/2000/svg">
<circle r="22.5" transform="matrix(-1 0 0 1 23 23)" fill="white" stroke="#BDE3FE"/>
<path d="M31.6662 13.4668H14.333C13.3799 13.4668 12.5996 14.2471 12.5996 15.2002V30.8002C12.5996 31.7531 13.3799 32.5336 14.333 32.5336H31.6662C32.6193 32.5336 33.3996 31.7531 33.3996 30.8002V15.2002C33.3996 14.2471 32.6193 13.4668 31.6662 13.4668ZM19.533 30.8002H14.333V15.2002H19.533V30.8002ZM31.6662 30.8002H21.2662V15.2002H31.6662V30.8002Z" fill="#1F40E5"/>
<path d="M17.7998 16.9336H16.0664V18.667H17.7998V16.9336Z" fill="#1F40E5"/>
<path d="M17.7998 20.4004H16.0664V22.1335H17.7998V20.4004Z" fill="#1F40E5"/>
<path d="M17.7998 23.8672H16.0664V25.6006H17.7998V23.8672Z" fill="#1F40E5"/>
<path d="M17.7998 27.334H16.0664V29.0671H17.7998V27.334Z" fill="#1F40E5"/>
<path d="M28.2 16.9336H23V18.667H28.2V16.9336Z" fill="#1F40E5"/>
<path d="M29.9334 20.4004H24.7334V22.1335H29.9334V20.4004Z" fill="#1F40E5"/>
<path d="M29.9336 23.8672H26.4668V25.6006H29.9336V23.8672Z" fill="#1F40E5"/>
<path d="M28.2 27.334H23V29.0671H28.2V27.334Z" fill="#1F40E5"/>
</svg>
