<svg width="46" height="46" viewBox="0 0 46 46" fill="none" xmlns="http://www.w3.org/2000/svg">
<circle r="22.5" transform="matrix(-1 0 0 1 23 23)" fill="white" stroke="#BDE3FE"/>
<path d="M31.6662 13.4668H14.333C13.3799 13.4668 12.5996 14.2471 12.5996 15.2002V30.8002C12.5996 31.7534 13.3799 32.5334 14.333 32.5334H31.6662C32.6193 32.5334 33.3996 31.7534 33.3996 30.8002V15.2002C33.3996 14.2471 32.6193 13.4668 31.6662 13.4668ZM31.6662 15.2002V16.9344H14.333V15.2002H31.6662ZM14.333 30.8002V18.666H31.6662V30.8002H14.333Z" fill="#1F40E5"/>
<path d="M24.656 22.4079L26.0967 21.1375C25.163 20.6698 24.1144 20.4004 22.9998 20.4004C19.1708 20.4004 16.0664 23.5045 16.0664 27.3336H17.7998C17.7998 24.4619 20.1281 22.1336 22.9998 22.1336C23.5794 22.1338 24.1355 22.2326 24.656 22.4079Z" fill="#1F40E5"/>
<path d="M27.9268 25.6784C28.1012 26.1989 28.2003 26.7546 28.2003 27.3338H29.9337C29.9337 26.2203 29.6646 25.1706 29.1974 24.2383L27.9268 25.6784Z" fill="#1F40E5"/>
<path d="M28.2094 22.7376L27.5966 22.125L23.5476 25.6964C23.3739 25.6389 23.1929 25.5999 23 25.5999C22.0427 25.5999 21.2666 26.3752 21.2666 27.3331C21.2666 28.2914 22.0427 29.0667 23 29.0667C23.9573 29.0667 24.7334 28.2914 24.7334 27.3331C24.7334 27.1401 24.6944 26.9592 24.637 26.7858L28.2094 22.7376Z" fill="#1F40E5"/>
</svg>
