<svg width="81" height="81" viewBox="0 0 81 81" fill="none" xmlns="http://www.w3.org/2000/svg">
<g clip-path="url(#clip0)">
<path fill-rule="evenodd" clip-rule="evenodd" d="M17.7398 18.5625H7.10027V42.0708H3.24261C3.05322 42.0708 2.88009 42.1778 2.7954 42.3472L1.21206 45.5139C1.04584 45.8463 1.28758 46.2375 1.65927 46.2375H7.10027V52.4875H12.7086V46.2375H23.4579C23.6473 46.2375 23.8204 46.1305 23.9051 45.9611L25.4885 42.7944C25.6547 42.462 25.4129 42.0708 25.0412 42.0708H12.7086V38.4479H17.3565C19.1454 38.4479 20.8385 38.2722 22.4357 37.9208C24.0329 37.5694 25.4305 37.0024 26.6284 36.2198C27.8263 35.4372 28.7767 34.407 29.4794 33.1292C30.1822 31.8514 30.5336 30.2702 30.5336 28.3854C30.5336 26.6285 30.2301 25.1271 29.6232 23.8813C29.0162 22.6354 28.1537 21.6132 27.0357 20.8146C25.9176 20.016 24.576 19.441 23.0107 19.0896C21.4454 18.7382 19.6885 18.5625 17.7398 18.5625ZM19.7525 33.153C18.858 33.2968 17.9157 33.3686 16.9254 33.3686H12.7087V23.6416H17.117C18.0434 23.6416 18.9459 23.6975 19.8243 23.8093C20.7028 23.9211 21.4854 24.1527 22.1722 24.5041C22.8591 24.8554 23.4101 25.3426 23.8254 25.9655C24.2406 26.5884 24.4483 27.395 24.4483 28.3853C24.4483 29.4075 24.2406 30.2381 23.8254 30.877C23.4101 31.5159 22.8511 32.019 22.1483 32.3863C21.4455 32.7537 20.6469 33.0093 19.7525 33.153Z" fill="#BCC6F7"/>
<path opacity="0.3" d="M48.0779 56.5107C46.7761 55.2089 46.7761 53.0984 48.0779 51.7966C49.3796 50.4949 51.4902 50.4949 52.7919 51.7966L66.1253 65.13C67.427 66.4317 67.427 68.5423 66.1253 69.844C64.8235 71.1457 62.713 71.1457 61.4112 69.844L48.0779 56.5107Z" fill="#D8E8F5"/>
<path fill-rule="evenodd" clip-rule="evenodd" d="M13.7676 37.4876C13.7676 50.3743 24.2143 60.821 37.1009 60.821C49.9876 60.821 60.4342 50.3743 60.4342 37.4876C60.4342 24.601 49.9876 14.1543 37.1009 14.1543C24.2143 14.1543 13.7676 24.601 13.7676 37.4876ZM53.7676 37.4876C53.7676 46.6924 46.3057 54.1543 37.1009 54.1543C27.8962 54.1543 20.4343 46.6924 20.4343 37.4876C20.4343 28.2829 27.8962 20.821 37.1009 20.821C46.3057 20.821 53.7676 28.2829 53.7676 37.4876Z" fill="white"/>
</g>
<defs>
<clipPath id="clip0">
<rect width="80" height="80" fill="white" transform="translate(0.433594 0.820312)"/>
</clipPath>
</defs>
</svg>
