<svg width="48" height="48" viewBox="0 0 48 48" fill="none" xmlns="http://www.w3.org/2000/svg">
<path fill-rule="evenodd" clip-rule="evenodd" d="M45.1926 37.1421C45.5081 37.4577 46.0477 37.2331 46.0461 36.7868L46.0084 26.2105V11.0526C46.0084 8.26214 43.7463 6 40.9558 6H17.3769C14.5864 6 12.3242 8.26214 12.3242 11.0526V18H29.0005C30.6574 18 32.0005 19.3431 32.0005 21V31.2632H39.3136L45.1926 37.1421Z" fill="#1F40E5"/>
<path opacity="0.3" fill-rule="evenodd" clip-rule="evenodd" d="M3.9707 36V26C3.9707 23.7909 5.76156 22 7.9707 22H23.9707C26.1798 22 27.9707 23.7909 27.9707 26V36C27.9707 38.2091 26.1798 40 23.9707 40H8.20216L4.86873 43.1905C4.55073 43.4949 4.02301 43.2695 4.02301 42.8293V36.6485C3.98859 36.4374 3.9707 36.2208 3.9707 36ZM12.0005 28.5C12.0005 28.2239 12.2244 28 12.5005 28H23.5005C23.7767 28 24.0005 28.2239 24.0005 28.5V29.5C24.0005 29.7761 23.7767 30 23.5005 30H12.5005C12.2244 30 12.0005 29.7761 12.0005 29.5V28.5ZM18.5005 32C18.2244 32 18.0005 32.2239 18.0005 32.5V33.5C18.0005 33.7761 18.2244 34 18.5005 34H23.5005C23.7767 34 24.0005 33.7761 24.0005 33.5V32.5C24.0005 32.2239 23.7767 32 23.5005 32H18.5005Z" fill="#1F40E5"/>
</svg>
