<svg width="52" height="49" viewBox="0 0 52 49" fill="none" xmlns="http://www.w3.org/2000/svg">
<path d="M28 22C23.5817 22 20 18.4183 20 14C20 9.58172 23.5817 6 28 6C32.4183 6 36 9.58172 36 14C36 18.4183 32.4183 22 28 22Z" fill="#1F40E5"/>
<path d="M10.0013 40.3984C10.7765 30.853 18.5238 26 27.9667 26C37.5424 26 45.4098 30.5864 45.9958 40.4C46.0192 40.7909 45.9958 42 44.4934 42C37.0822 42 26.0694 42 11.455 42C10.9534 42 9.95908 40.9184 10.0013 40.3984Z" fill="#1F40E5"/>
<path d="M28 22C23.5817 22 20 18.4183 20 14C20 9.58172 23.5817 6 28 6C32.4183 6 36 9.58172 36 14C36 18.4183 32.4183 22 28 22Z" fill="#1F40E5"/>
<path d="M10.0013 40.3984C10.7765 30.853 18.5238 26 27.9667 26C37.5424 26 45.4098 30.5864 45.9958 40.4C46.0192 40.7909 45.9958 42 44.4934 42C37.0822 42 26.0694 42 11.455 42C10.9534 42 9.95908 40.9184 10.0013 40.3984Z" fill="#1F40E5"/>
<path d="M18.4884 39.423C18.4881 39.4227 18.4879 39.4224 18.4876 39.4221L18.4884 39.423ZM10.7104 27.907L12.6184 29.5225L10.7104 27.907L3.69572 36.1921C2.04508 38.1417 3.43079 41.1307 5.9853 41.1307H8.47672V43.146C8.47672 44.8029 9.81987 46.146 11.4767 46.146H14.5233C16.1802 46.146 17.5233 44.8029 17.5233 43.146V41.1307H20.0147C22.5692 41.1307 23.955 38.1417 22.3043 36.1921L15.2896 27.907C14.0913 26.4917 11.9087 26.4917 10.7104 27.907Z" fill="white" stroke="white" stroke-width="5"/>
<path opacity="0.3" d="M5.6037 37.8076C5.32859 38.1325 5.55955 38.6307 5.9853 38.6307H10.9767V43.146C10.9767 43.4221 11.2006 43.646 11.4767 43.646H14.5233C14.7995 43.646 15.0233 43.4221 15.0233 43.146V38.6307H20.0147C20.4405 38.6307 20.6714 38.1325 20.3963 37.8076L13.3816 29.5225C13.1819 29.2866 12.8181 29.2866 12.6184 29.5225L5.6037 37.8076Z" fill="#1F40E5"/>
</svg>
