<svg width="48" height="48" viewBox="0 0 48 48" fill="none" xmlns="http://www.w3.org/2000/svg">
<rect width="48" height="48" fill="white"/>
<path opacity="0.3" fill-rule="evenodd" clip-rule="evenodd" d="M1.80902 34C1.43733 34 1.19558 33.6088 1.3618 33.2764L2.8618 30.2764C2.9465 30.107 3.11963 30 3.30902 30H24.191C24.5627 30 24.8044 30.3912 24.6382 30.7236L23.1382 33.7236C23.0535 33.893 22.8804 34 22.691 34H1.80902Z" fill="#1F40E5"/>
<path fill-rule="evenodd" clip-rule="evenodd" d="M7 7.43213H17.214C19.0847 7.43213 20.7713 7.60079 22.274 7.93813C23.7767 8.27546 25.0647 8.82746 26.138 9.59413C27.2113 10.3608 28.0393 11.3421 28.622 12.5381C29.2047 13.7341 29.496 15.1755 29.496 16.8621C29.496 18.6715 29.1587 20.1895 28.484 21.4161C27.8093 22.6428 26.897 23.6318 25.747 24.3831C24.597 25.1345 23.2553 25.6788 21.722 26.0161C20.1887 26.3535 18.5633 26.5221 16.846 26.5221H12.384V40.0001H7V7.43213ZM16.432 21.6461C17.3827 21.6461 18.2873 21.5771 19.146 21.4391C20.0047 21.3011 20.7713 21.0558 21.446 20.7031C22.1207 20.3504 22.6573 19.8675 23.056 19.2541C23.4547 18.6408 23.654 17.8435 23.654 16.8621C23.654 15.9114 23.4547 15.1371 23.056 14.5391C22.6573 13.9411 22.1284 13.4735 21.469 13.1361C20.8097 12.7988 20.0584 12.5765 19.215 12.4691C18.3717 12.3618 17.5054 12.3081 16.616 12.3081H12.384V21.6461H16.432Z" fill="#1F40E5"/>
<rect opacity="0.3" width="4" height="24" rx="1" transform="matrix(-1 0 0 1 41 17)" fill="#1F40E5"/>
<path d="M43.5858 22.4142C44.3668 23.1953 45.6332 23.1953 46.4142 22.4142C47.1953 21.6332 47.1953 20.3668 46.4142 19.5858L40.4142 13.5858C39.6332 12.8047 38.3668 12.8047 37.5858 13.5858L31.5858 19.5858C30.8047 20.3668 30.8047 21.6332 31.5858 22.4142C32.3668 23.1953 33.6332 23.1953 34.4142 22.4142L39 17.8284L43.5858 22.4142Z" fill="#1F40E5"/>
</svg>
