<svg width="48" height="48" viewBox="0 0 48 48" fill="none" xmlns="http://www.w3.org/2000/svg">
<rect width="48" height="48" fill="white"/>
<path opacity="0.3" fill-rule="evenodd" clip-rule="evenodd" d="M16.8449 10.1934H8.33323V29.0001H5.30891C5.11953 29.0001 4.9464 29.1071 4.8617 29.2765L3.69503 31.6098C3.52881 31.9422 3.77056 32.3334 4.14225 32.3334H8.33323V37.3334H12.8199V32.3334H21.3575C21.5469 32.3334 21.7201 32.2264 21.8048 32.057L22.9714 29.7237C23.1377 29.3912 22.8959 29.0001 22.5242 29.0001H12.8199V26.1017H16.5382C17.9693 26.1017 19.3238 25.9611 20.6016 25.68C21.8793 25.3989 22.9974 24.9453 23.9557 24.3192C24.9141 23.6931 25.6743 22.8689 26.2366 21.8467C26.7988 20.8245 27.0799 19.5595 27.0799 18.0517C27.0799 16.6461 26.8371 15.445 26.3516 14.4484C25.866 13.4517 25.176 12.6339 24.2816 11.995C23.3871 11.3561 22.3138 10.8961 21.0616 10.615C19.8093 10.3339 18.4038 10.1934 16.8449 10.1934ZM16.1934 22.0383C16.9856 22.0383 17.7395 21.9808 18.455 21.8658C19.1706 21.7508 19.8095 21.5464 20.3717 21.2525C20.9339 20.9586 21.3811 20.5561 21.7134 20.045C22.0456 19.5339 22.2117 18.8695 22.2117 18.0517C22.2117 17.2594 22.0456 16.6142 21.7134 16.1158C21.3811 15.6175 20.9403 15.2278 20.3909 14.9467C19.8414 14.6656 19.2153 14.4803 18.5125 14.3908C17.8097 14.3014 17.0878 14.2567 16.3467 14.2567H12.82V22.0383H16.1934Z" fill="#1F40E5"/>
<rect x="33.5386" y="20" width="3.92308" height="17" rx="1.5" fill="#1F40E5"/>
<rect x="27" y="26.5386" width="3.92308" height="10.4615" rx="1.5" fill="#1F40E5"/>
<rect x="40.0769" y="29.1538" width="3.92308" height="7.84615" rx="1.5" fill="#1F40E5"/>
</svg>
