<svg width="100" height="19" viewBox="0 0 100 19" fill="none" xmlns="http://www.w3.org/2000/svg">
<g clip-path="url(#clip0)">
<path d="M18.3283 0.648219C17.5208 0.208627 16.5293 0.543099 16.1136 1.39361L10.1815 14.1657C10.043 14.4404 9.9235 14.6292 9.60814 14.6292C9.29279 14.6292 9.17094 14.4404 9.03476 14.1657L3.10505 1.39122C2.68935 0.54071 1.69788 0.208627 0.890367 0.645829C0.0828558 1.08542 -0.232504 2.12945 0.183198 2.97758L5.97673 14.7988L6.63612 16.1414C7.21189 17.3193 8.35149 18.0503 9.61053 18.0503C10.8672 18.0503 12.0068 17.3193 12.5849 16.1414L13.2443 14.7988L19.0379 2.97758C19.4512 2.13184 19.1334 1.08781 18.3283 0.648219Z" fill="#A0ACE3"/>
<path d="M97.0376 0.45469C95.9219 0.449912 94.9447 1.14753 94.4765 2.10555C92.9689 5.1803 88.5372 14.3281 88.5181 14.3592C88.4846 14.4165 88.3914 14.6291 88.2003 14.6291C88.0211 14.6291 87.916 14.4285 87.8826 14.3568C86.4133 11.3203 83.5153 5.32365 81.9935 2.22022C81.4081 1.02329 80.4262 0.452301 79.3655 0.452301H79.3631C77.7313 0.452301 76.4102 1.8308 76.4102 3.70624V16.28C76.4102 17.0445 76.8474 17.7517 77.5187 17.9739C78.6129 18.3322 79.5518 17.3766 79.5518 16.2465L79.3225 3.99054C79.3225 3.86392 79.4754 3.81852 79.5327 3.92842L85.5843 16.1773C86.1457 17.3503 87.1204 18.0503 88.2003 18.0503C89.2778 18.0503 90.2525 17.3503 90.8164 16.1773L96.8703 3.93081C96.93 3.81613 97.0877 3.86153 97.0877 3.99532L96.856 16.3206C96.856 17.2954 97.5847 18.0814 98.4758 18.0503C99.3359 18.0216 99.9976 17.195 99.9976 16.2465C99.9976 16.2465 99.9976 6.84311 99.9976 3.71101C100 1.81647 98.6741 0.461857 97.0376 0.45469Z" fill="#A0ACE3"/>
<path d="M74.4007 15.4964L67.7327 2.34209C67.1546 1.17144 66.0173 0.44516 64.7655 0.44516C63.9795 0.44516 63.2412 0.729461 62.6559 1.23117C62.3047 1.52981 62.0085 1.90728 61.7934 2.34448L55.159 15.4367C55.1518 15.451 55.147 15.4653 55.1398 15.4773L55.1303 15.4964C54.8221 16.1056 54.8962 16.8223 55.2617 17.3432C55.2712 17.3575 55.2808 17.3694 55.2903 17.3838C55.2999 17.3981 55.3119 17.4125 55.3238 17.4268C55.4433 17.5821 55.5866 17.7159 55.761 17.821C56.3224 18.1602 56.9866 18.1101 57.4883 17.7613C57.4955 17.7565 57.5026 17.7517 57.5074 17.7469C57.5433 17.7206 57.5791 17.6944 57.6125 17.6657C57.6412 17.6418 57.6675 17.6155 57.6938 17.5892C57.7057 17.5773 57.7177 17.5677 57.7296 17.5558C57.8491 17.434 57.9518 17.293 58.033 17.1305L58.2791 16.6097L59.6672 13.6998C59.703 13.6257 59.7747 13.578 59.8535 13.578H65.9815C65.9815 13.578 65.9815 13.578 65.9839 13.578C66.8034 13.578 67.4699 12.8756 67.4699 12.0131C67.4699 11.1483 66.8034 10.4483 65.9839 10.4483H62.3071H61.4064C61.3085 10.4483 61.2463 10.3431 61.2822 10.25L61.6238 9.52608L64.13 4.47555L64.1395 4.45405C64.1443 4.44449 64.1491 4.43493 64.1539 4.42538C64.1539 4.42538 64.1539 4.42777 64.1539 4.42538C64.1945 4.34176 64.3283 3.98101 64.572 3.90695C64.7057 3.86633 64.8467 3.87111 64.9423 3.89978C65.1955 3.97623 65.3102 4.2892 65.4201 4.51855C65.4201 4.52094 65.4201 4.51855 65.4201 4.51855L71.4979 17.1377C71.7942 17.7206 72.3628 18.0551 72.9505 18.0551C73.1368 18.0551 73.3256 18.0193 73.5095 17.95C73.5215 17.9452 73.5334 17.9428 73.543 17.9381C73.5884 17.9189 73.6314 17.8974 73.6744 17.8735C73.6911 17.8664 73.7078 17.8592 73.7222 17.8497C73.7317 17.8449 73.7389 17.8377 73.7484 17.8329C73.7604 17.8258 73.7747 17.821 73.7867 17.8114C73.8058 17.7995 73.8225 17.7851 73.8416 17.7732C73.8583 17.7613 73.8727 17.7517 73.887 17.7398C73.9109 17.7206 73.9348 17.7039 73.9587 17.6848C73.985 17.6633 74.0112 17.6394 74.0375 17.6155C74.0447 17.6084 74.0519 17.6036 74.0566 17.5964C74.6013 17.066 74.7614 16.2084 74.4007 15.4964Z" fill="#A0ACE3"/>
<path d="M22.8025 11.1578H34.0241C34.2367 11.1554 35.9736 11.0144 35.9736 9.05061C35.9759 4.2151 32.237 0.280273 27.6428 0.280273C23.051 0.280273 19.3145 4.2151 19.3145 9.053C19.3145 9.1629 19.3216 9.4687 19.3216 9.51409C19.3145 15.0377 22.8646 18.0097 27.5616 18.2844C27.7862 18.2964 28.0059 18.3035 28.221 18.3035C30.0271 18.3035 31.5514 17.8353 33.207 16.7889C33.3766 16.6837 34.0384 16.2418 34.7145 15.3697C35.252 14.6769 35.2998 13.6377 34.7145 13.0977C33.8712 12.3189 33.0039 12.7394 32.2299 13.3987C31.0138 14.4332 30.0725 15.2407 27.6476 15.2431C25.3612 15.2431 23.1991 13.9387 22.6855 11.3322C22.6663 11.2414 22.7189 11.1578 22.8025 11.1578ZM22.6783 7.92057C22.9913 5.38814 24.7329 3.1424 27.638 3.1424C30.5432 3.1424 32.3828 5.34275 32.6742 7.92057C32.6838 8.01375 32.6241 8.10214 32.5333 8.10214H22.8192C22.7285 8.10214 22.6663 8.01614 22.6783 7.92057Z" fill="#A0ACE3"/>
<path d="M41.2639 11.1578H52.4854C52.6981 11.1554 54.4349 11.0144 54.4349 9.05061C54.4349 4.2151 50.696 0.280273 46.1042 0.280273C41.51 0.280273 37.7734 4.2151 37.7734 9.053C37.7734 9.1629 37.7806 9.4687 37.7806 9.51409C37.7734 15.0377 41.3236 18.0097 46.0206 18.2844C46.2451 18.2964 46.4649 18.3035 46.68 18.3035C48.4861 18.3035 50.0103 17.8353 51.666 16.7889C51.8356 16.6837 52.4974 16.2418 53.1735 15.3697C53.711 14.6769 53.7588 13.6377 53.1735 13.0977C52.3301 12.3189 51.4629 12.7394 50.6888 13.3987C49.4728 14.4332 48.5315 15.2407 46.1066 15.2431C43.8202 15.2431 41.6581 13.9387 41.1444 11.3322C41.1253 11.2414 41.1779 11.1578 41.2639 11.1578ZM41.1373 7.92057C41.4502 5.38814 43.1919 3.1424 46.097 3.1424C49.0021 3.1424 50.8417 5.34275 51.1332 7.92057C51.1428 8.01375 51.083 8.10214 50.9923 8.10214H41.2758C41.1874 8.10214 41.1253 8.01614 41.1373 7.92057Z" fill="#A0ACE3"/>
</g>
<defs>
<clipPath id="clip0">
<rect width="100" height="18.0233" fill="white" transform="translate(0 0.280273)"/>
</clipPath>
</defs>
</svg>
