<svg width="100" height="22" viewBox="0 0 100 22" fill="none" xmlns="http://www.w3.org/2000/svg">
<g clip-path="url(#clip0)">
<path d="M41.9937 4.9462C40.206 4.9462 38.173 5.77489 36.9308 7.43395L36.9316 7.43059L36.9308 7.43143L36.9316 5.20674H32.668V20.7333H36.9308V11.8985C36.9308 10.3083 38.1637 8.61816 40.4464 8.61816C42.2105 8.61816 44.036 9.84522 44.036 11.8985V20.7333H48.2996V11.1084C48.2996 7.53733 45.7446 4.9462 41.9937 4.9462Z" fill="#A0ACE3"/>
<path d="M78.6026 5.20737L74.7482 15.7837L70.8939 5.20737H66.0234L72.4118 20.7289H77.0839L83.4722 5.20737H78.6026Z" fill="#A0ACE3"/>
<path d="M19.9389 9.88477C20.665 8.90984 21.8215 8.33749 23.2183 8.33749C24.7547 8.33749 25.9204 9.21493 26.523 10.5101L19.074 13.6004C18.8706 12.0145 19.2766 10.774 19.9389 9.88477ZM28.13 15.9596C26.3356 17.2875 25.3102 17.6044 23.6739 17.6044C22.2014 17.6044 21.0483 17.1472 20.2355 16.3454L31.1354 11.8237C30.8976 10.1386 30.258 8.63333 29.2738 7.48863C27.8417 5.82536 25.722 4.9454 23.141 4.9454C18.4529 4.9454 14.918 8.40389 14.918 12.9718C14.918 17.6582 18.4613 20.9973 23.6108 20.9973C26.4961 20.9973 29.4461 19.6299 30.8261 18.0322L28.13 15.9596Z" fill="#A0ACE3"/>
<path d="M14.5121 16.8185H4.82163V0.563202H0.5V20.7333H14.5121V16.8185Z" fill="#A0ACE3"/>
<path d="M91.1269 8.59896C88.7459 8.59896 87.017 10.4034 87.017 12.9702C87.017 15.421 88.8484 17.3414 91.184 17.3414C93.5659 17.3414 95.2939 15.4874 95.2939 12.9702C95.2939 10.5194 93.4633 8.59896 91.1269 8.59896ZM91.1269 20.9949C86.464 20.9949 82.8105 17.5213 82.8105 12.9702C82.8105 8.47037 86.4892 4.9455 91.184 4.9455C95.8469 4.9455 99.4995 8.41911 99.4995 12.9702C99.4995 17.4692 95.8217 20.9949 91.1269 20.9949Z" fill="#A0ACE3"/>
<path d="M58.3018 8.59896C55.9208 8.59896 54.1928 10.4034 54.1928 12.9702C54.1928 15.421 56.0233 17.3414 58.3598 17.3414C60.7408 17.3414 62.4688 15.4874 62.4688 12.9702C62.4688 10.5194 60.6383 8.59896 58.3018 8.59896ZM58.3018 20.9949C53.639 20.9949 49.9863 17.5213 49.9863 12.9702C49.9863 8.47037 53.6642 4.9455 58.3598 4.9455C63.0218 4.9455 66.6753 8.41911 66.6753 12.9702C66.6753 17.4692 62.9966 20.9949 58.3018 20.9949Z" fill="#A0ACE3"/>
</g>
<defs>
<clipPath id="clip0">
<rect width="100" height="21" fill="white" transform="translate(0 0.280273)"/>
</clipPath>
</defs>
</svg>
