<svg width="100" height="19" viewBox="0 0 100 19" fill="none" xmlns="http://www.w3.org/2000/svg">
<g clip-path="url(#clip0)">
<path d="M39.4624 9.25609C39.4624 12.5968 41.9379 15.0623 46.0701 15.0623C47.8132 15.0623 49.4598 14.7866 51.1614 13.9919L52.7066 16.1052C50.5685 17.236 48.5101 17.8269 45.3471 17.8269C38.7521 17.8269 33.9023 14.6512 33.9023 9.25744V9.25544C33.9023 3.86304 38.7521 0.685934 45.3471 0.685934C48.5101 0.685934 50.3277 1.14938 52.5564 2.10445L50.9689 4.5324C49.2834 3.63434 47.8132 3.45055 46.0701 3.45055C41.9379 3.45055 39.4624 5.91068 39.4624 9.25208" fill="#A0ACE3"/>
<path d="M64.6307 0.682621C58.245 0.682621 53.6387 3.86105 53.6387 9.25479C53.6387 14.6505 58.245 17.8263 64.6307 17.8263C71.0164 17.8263 75.6214 14.6505 75.6214 9.25479C75.6214 3.86105 71.0164 0.682621 64.6307 0.682621ZM64.6307 15.1596C61.1169 15.1596 59.1773 12.5198 59.1773 9.25212C59.1773 5.9845 61.1169 3.34665 64.6307 3.34665C68.1424 3.34665 70.0821 5.9845 70.0821 9.25212C70.0821 12.5198 68.1424 15.1596 64.6307 15.1596Z" fill="#A0ACE3"/>
<path d="M92.2234 10.4949V17.3937H97.5004V1.11457H92.2234V7.31916H84.1569V1.11457H78.8906V17.3937H84.1569V10.4949H92.2234Z" fill="#A0ACE3"/>
<path d="M25.1641 17.3937H30.7221V1.11457H25.1641V17.3937Z" fill="#A0ACE3"/>
<path d="M9.22439 8.56533L9.22304 10.1227C11.8381 12.1435 14.5014 14.8303 16.4551 17.3937H22.6752C20.5102 14.8517 17.1916 11.8296 14.7462 10.3105C17.6154 10.1904 20.8173 9.02944 20.8173 5.73498C20.8173 1.50423 16.2975 0.732925 11.7294 0.732925C7.99768 0.732925 4.55702 0.903294 2.5 1.07298V17.3937H7.68313V3.52771C8.6429 3.42509 9.67441 3.31108 11.7542 3.31108C14.4256 3.31108 15.7771 4.19238 15.7771 5.73498C15.7771 7.0482 15.2177 8.62234 9.22439 8.56533Z" fill="#A0ACE3"/>
</g>
<defs>
<clipPath id="clip0">
<rect width="100" height="18.0467" fill="white" transform="translate(0 0.280273)"/>
</clipPath>
</defs>
</svg>
