<svg width="150" height="81" viewBox="0 0 150 81" fill="none" xmlns="http://www.w3.org/2000/svg">
<g clip-path="url(#clip0)">
<path d="M60.3398 16.3194C60.3398 14.4917 58.8731 13.0054 57.0752 13.0054C55.2752 13.0054 53.8086 14.4917 53.8086 16.3194V32.4228C53.8086 34.2611 55.2752 35.7432 57.0752 35.7432C58.8731 35.7432 60.3398 34.2611 60.3398 32.4228V16.3194Z" fill="#CDD6FE"/>
<path d="M6.53125 25.4583C6.53125 23.6306 5.06459 22.1484 3.26667 22.1484C1.46875 22.1484 0 23.6306 0 25.4583V32.4215C0 34.2599 1.46875 35.7441 3.26667 35.7441C5.06459 35.7441 6.53125 34.2599 6.53125 32.4215V25.4583Z" fill="#CDD6FE"/>
<path d="M24.4668 16.3194C24.4668 14.4917 23.0001 13.0054 21.2022 13.0054C19.4022 13.0054 17.9355 14.4917 17.9355 16.3194V32.4228C17.9355 34.2611 19.4022 35.7432 21.2022 35.7432C23.0001 35.7432 24.4668 34.2611 24.4668 32.4228V16.3194Z" fill="#CDD6FE"/>
<path d="M42.4023 3.81484C42.4023 1.98715 40.9357 0.50293 39.1378 0.50293C37.3378 0.50293 35.8711 1.98715 35.8711 3.81484V39.0393C35.8711 40.8776 37.3378 42.3618 39.1378 42.3618C40.9357 42.3618 42.4023 40.8776 42.4023 39.0393V3.81484Z" fill="#CDD6FE"/>
<path d="M78.2545 25.4583C78.2545 23.6306 76.7983 22.1484 75.0087 22.1484C73.2108 22.1484 71.7441 23.6306 71.7441 25.4583V32.4215C71.7441 34.2599 73.2108 35.7441 75.0087 35.7441C76.7983 35.7441 78.2545 34.2599 78.2545 32.4215V25.4583Z" fill="#CDD6FE"/>
<path d="M96.1999 16.3194C96.1999 14.4917 94.7436 13.0054 92.9436 13.0054C91.1499 13.0054 89.6895 14.4917 89.6895 16.3194V32.4228C89.6895 34.2611 91.1499 35.7432 92.9436 35.7432C94.7436 35.7432 96.1999 34.2611 96.1999 32.4228V16.3194Z" fill="#CDD6FE"/>
<path d="M114.147 3.81484C114.147 1.98715 112.691 0.50293 110.891 0.50293C109.093 0.50293 107.637 1.98715 107.637 3.81484V39.0393C107.637 40.8776 109.093 42.3618 110.891 42.3618C112.691 42.3618 114.147 40.8776 114.147 39.0393V3.81484Z" fill="##CDD6FE"/>
<path d="M132.093 16.3194C132.093 14.4917 130.637 13.0054 128.797 13.0054C126.999 13.0054 125.541 14.4917 125.541 16.3194V32.4228C125.541 34.2611 126.999 35.7432 128.797 35.7432C130.637 35.7432 132.093 34.2611 132.093 32.4228V16.3194Z" fill="#CDD6FE"/>
<path d="M150.001 25.4583C150.001 23.6306 148.54 22.1484 146.745 22.1484C144.947 22.1484 143.486 23.6306 143.486 25.4583V32.4215C143.486 34.2599 144.947 35.7441 146.745 35.7441C148.54 35.7441 150.001 34.2599 150.001 32.4215V25.4583Z" fill="#CDD6FE"/>
<path d="M102.036 61.5677C101.767 61.4277 99.6483 60.1513 96.5024 60.1513C92.2504 60.1513 89.3004 63.1643 89.3004 67.2268C89.3004 71.1685 92.1233 74.3087 96.5024 74.3087C99.5941 74.3087 101.746 73.0598 102.036 72.9008V80.0208C101.211 80.2562 98.9629 80.9644 96.042 80.9644C88.6441 80.9644 82.1504 75.7738 82.1504 67.2268C82.1504 59.3053 88.0254 53.4956 96.042 53.4956C99.1274 53.4956 101.413 54.261 102.036 54.4476V61.5677Z" fill="#CDD6FE"/>
<path d="M33.3829 61.5677C33.1183 61.4277 31.0016 60.1513 27.8579 60.1513C23.5975 60.1513 20.6496 63.1643 20.6496 67.2268C20.6496 71.1685 23.4746 74.3087 27.8579 74.3087C30.9495 74.3087 33.0995 73.0598 33.3829 72.9008V80.0208C32.5641 80.2562 30.3225 80.9644 27.385 80.9644C19.9913 80.9644 13.5059 75.7738 13.5059 67.2268C13.5059 59.3053 19.3808 53.4956 27.385 53.4956C30.4787 53.4956 32.7641 54.261 33.3829 54.4476V61.5677Z" fill="#CDD6FE"/>
<path d="M136.5 67.2273C136.5 74.8159 130.742 80.9648 122.728 80.9648C114.711 80.9648 108.961 74.8159 108.961 67.2273C108.961 59.6514 114.711 53.4961 122.728 53.4961C130.742 53.4961 136.5 59.6514 136.5 67.2273ZM122.728 60.2514C118.825 60.2514 115.928 63.3768 115.928 67.2273C115.928 71.0863 118.825 74.2095 122.728 74.2095C126.625 74.2095 129.53 71.0863 129.53 67.2273C129.53 63.3768 126.625 60.2514 122.728 60.2514Z" fill="#CDD6FE"/>
<path d="M73.9451 59.9965C73.8472 59.9647 71.0785 59.1865 68.8035 59.1865C66.1681 59.1865 64.7347 60.0855 64.7347 61.362C64.7347 62.9755 66.6681 63.5395 67.7493 63.8872L69.5639 64.4746C73.8326 65.857 75.7784 68.8318 75.7784 72.0631C75.7784 78.7273 70.0201 80.9663 64.9868 80.9663C61.4889 80.9663 58.2118 80.3111 57.8889 80.2412V74.1368C58.4681 74.2852 61.2264 75.1227 64.0993 75.1227C67.3722 75.1227 68.8764 74.1495 68.8764 72.6462C68.8764 71.302 67.5743 70.5259 65.9431 70.0043C65.5452 69.8686 64.9472 69.6778 64.5389 69.5421C60.8764 68.3632 57.8223 66.1729 57.8223 61.7818C57.8223 56.8203 61.4722 53.4893 67.5347 53.4893C70.7368 53.4893 73.7493 54.2801 73.9451 54.3331V59.9965Z" fill="#CDD6FE"/>
<path d="M48.9989 80.4961H42.4219V53.9688H48.9989V80.4961Z" fill="#CDD6FE"/>
<path d="M146.236 77V77.4156H145.074V80.4922H144.596V77.4156H143.428V77H146.236Z" fill="#CDD6FE"/>
<path d="M146.236 77H146.984L148.011 79.8646H148.028L149.022 77H149.755V80.4922H149.265V77.6297H149.249L148.207 80.4922H147.753L146.738 77.6297H146.715V80.4922H146.236V77Z" fill="#CDD6FE"/>
</g>
<defs>
<clipPath id="clip0">
<rect width="150" height="80.0676" fill="white" transform="translate(0 0.700806)"/>
</clipPath>
</defs>
</svg>
