<svg width="100" height="23" viewBox="0 0 100 23" fill="none" xmlns="http://www.w3.org/2000/svg">
<path d="M44.2127 14.2618L43.4569 9.7139C43.2413 8.40304 42.9658 6.35439 42.7558 4.93529H42.6738C42.4529 6.36512 42.1445 8.47184 41.918 9.72495L41.1047 14.2618H44.2127ZM40.6987 17.2253L39.7165 22.2725H36.0879L40.6142 1.27441H45.0614L49.173 22.2725H45.5255L44.565 17.2253H40.6987Z" fill="#A0ACE3"/>
<path d="M57.4321 12.8929C57.4321 12.613 57.4321 12.2858 57.3774 11.9863C57.233 10.9497 56.69 10.0159 55.8168 10.0159C54.3188 10.0159 53.7678 12.2081 53.7678 14.7721C53.7678 17.7182 54.5534 19.395 55.7649 19.395C56.3188 19.395 56.9571 19.1066 57.3038 17.8703C57.3883 17.6238 57.4321 17.294 57.4321 16.9087V12.8929ZM61.1564 0.717285V17.9179C61.1564 19.2811 61.2247 20.9583 61.2794 22.2692H58.0627L57.8527 20.52H57.7763C57.2361 21.5986 56.0603 22.5156 54.655 22.5156C51.5746 22.5156 50.0469 19.0624 50.0469 14.7023C50.0469 9.38953 52.3248 6.80604 54.8078 6.80604C56.1066 6.80604 56.9469 7.452 57.37 8.38637H57.4327V0.717285H61.1564Z" fill="#A0ACE3"/>
<path d="M68.9137 19.6137C70.3352 19.6137 70.6871 16.892 70.6871 14.6386C70.6871 12.4963 70.3352 9.70488 68.8512 9.70488C67.2794 9.70488 66.9492 12.4963 66.9492 14.6386C66.9492 17.2246 67.3639 19.6137 68.8808 19.6137H68.9137ZM68.8429 22.5156C65.4106 22.5156 63.2578 19.7163 63.2578 14.7055C63.2578 9.2369 66.0216 6.80615 68.9302 6.80615C72.3162 6.80615 74.4388 9.74179 74.4388 14.6169C74.4388 20.8807 71.113 22.5156 68.873 22.5156H68.8429Z" fill="#A0ACE3"/>
<path d="M80.2443 16.8368C80.2443 17.2164 80.3127 17.5714 80.3919 17.8093C80.7656 19.082 81.3987 19.395 81.906 19.395C83.3467 19.395 83.9279 17.5405 83.9279 14.5748C83.9279 11.8752 83.3138 10.0159 81.8895 10.0159C81.1831 10.0159 80.5882 10.7951 80.3835 11.6319C80.3124 11.8951 80.2443 12.305 80.2443 12.5878V16.8368ZM76.5197 0.717285H80.244V8.64387H80.304C81.0377 7.47408 82.0147 6.80604 83.4334 6.80604C86.241 6.80604 87.6516 10.0491 87.6516 14.2896C87.6516 19.6475 85.5479 22.5156 82.822 22.5156C81.5232 22.5156 80.6584 21.9306 79.8781 20.4484H79.7995L79.5923 22.2692H76.3945C76.4492 21.0082 76.5197 19.2811 76.5197 17.9179V0.717285Z" fill="#A0ACE3"/>
<path d="M96.5762 13.211C96.5954 11.0742 95.9785 9.57671 94.7971 9.57671C93.4492 9.57671 92.8761 11.5813 92.8354 13.211H96.5762ZM92.8217 15.8863C92.8655 18.6386 94.2898 19.5342 96.0577 19.5342C97.1788 19.5342 98.1393 19.2814 98.8488 19.0103L99.3508 21.7323C98.363 22.1643 96.8377 22.436 95.3752 22.436C91.3782 22.436 89.1953 19.6611 89.1953 14.9215C89.1953 9.83518 91.7274 6.78027 95.0341 6.78027C98.2291 6.78027 99.9998 9.48013 99.9998 13.8873C99.9998 14.8963 99.9588 15.4647 99.8932 15.9078L92.8217 15.8863Z" fill="#A0ACE3"/>
<path d="M15.6562 0.305298H24.8384V22.6364L15.6562 0.305298Z" fill="#CDD6FE"/>
<path d="M9.18738 0.305176H0V22.6362L9.18738 0.305176Z" fill="#CDD6FE"/>
<path d="M8.40625 18.1438L12.4222 8.53369L18.2719 22.6357H14.439L12.6892 18.1438H8.40625Z" fill="#CDD6FE"/>
</svg>
