<svg width="100" height="21" viewBox="0 0 100 21" fill="none" xmlns="http://www.w3.org/2000/svg">
<path d="M0 0.21051V16.628L4.03266 12.5067V4.31488H18.8635V0.21051H0Z" fill="#A0ACE3"/>
<path d="M8.06445 8.40192H16.1964V12.5059H8.06445V8.40192Z" fill="#A0ACE3"/>
<path d="M0 16.6094L4.03266 20.731H18.8635V16.6094H0Z" fill="#A0ACE3"/>
<path d="M26.9453 4.31451H35.6938V5.58653H28.3117V9.79266H34.9106V11.0647H28.3117V15.3726H35.7771V16.6446H26.9453V4.31451Z" fill="#A0ACE3"/>
<path d="M41.0092 11.9969L37.6264 7.52008H39.1595L41.8091 11.0473L44.4587 7.52008H45.9418L42.5423 11.9461L46.0751 16.6094H44.5253L41.7591 12.8957L38.9929 16.6094H37.5098L41.0092 11.9969Z" fill="#A0ACE3"/>
<path d="M48.7088 14.2019V8.70688H47.459V7.51968H48.7088V4.78912H50.0419V7.53665H52.8914V8.72385H50.0419V14.0323C50.0419 15.1347 50.6584 15.5418 51.5416 15.5418C51.9915 15.5418 52.3748 15.457 52.8414 15.2195V16.3898C52.3748 16.6272 51.8582 16.7798 51.225 16.7798C49.7919 16.7629 48.7088 16.0506 48.7088 14.2019Z" fill="#A0ACE3"/>
<path d="M55.2246 7.5196H56.5577V9.89423C57.2243 8.38464 58.5074 7.28214 60.2072 7.36695V8.82564H60.1072C58.1575 8.82564 56.5577 10.2504 56.5577 12.9982V16.628H55.2246V7.5196Z" fill="#A0ACE3"/>
<path d="M68.3888 11.5221C68.2388 9.8601 67.3057 8.4525 65.5393 8.4525C63.9895 8.4525 62.8231 9.74139 62.6398 11.5221H68.3888ZM65.7892 15.6431C67.0224 15.6431 67.8889 15.1344 68.6054 14.3712L69.4386 15.1344C68.5388 16.1519 67.439 16.8472 65.7559 16.8472C63.2896 16.8472 61.3066 14.9309 61.3066 12.0987C61.3066 9.47004 63.123 7.35016 65.5893 7.35016C68.2388 7.35016 69.7552 9.487 69.7552 12.1665C69.7552 12.3022 69.7552 12.4209 69.7386 12.6414H62.6564C62.8397 14.5408 64.2062 15.6431 65.7892 15.6431Z" fill="#A0ACE3"/>
<path d="M72.088 7.51951H73.4211V9.04594C74.0044 8.14704 74.8042 7.31598 76.304 7.31598C77.7537 7.31598 78.6869 8.11312 79.1701 9.13074C79.8034 8.13008 80.7532 7.31598 82.3029 7.31598C84.3526 7.31598 85.619 8.72369 85.619 10.9625V16.5933H84.2859V11.2847C84.2859 9.53779 83.4194 8.53713 81.9697 8.53713C80.6199 8.53713 79.4867 9.55476 79.4867 11.3526V16.5933H78.1703V11.2338C78.1703 9.52083 77.2871 8.53713 75.8707 8.53713C74.4543 8.53713 73.3878 9.72436 73.3878 11.4034V16.5764H72.0547L72.088 7.51951Z" fill="#A0ACE3"/>
<path d="M95.0012 11.5221C94.8512 9.8601 93.918 8.4525 92.1516 8.4525C90.6019 8.4525 89.4354 9.74139 89.2521 11.5221C89.2355 11.5221 95.0012 11.5221 95.0012 11.5221ZM92.3849 15.6431C93.6181 15.6431 94.4846 15.1344 95.2011 14.3712L96.0343 15.1344C95.1345 16.1519 94.0347 16.8472 92.3516 16.8472C89.902 16.8472 87.9023 14.9309 87.9023 12.0987C87.9023 9.47004 89.7187 7.35016 92.185 7.35016C94.8345 7.35016 96.351 9.487 96.351 12.1665C96.351 12.3022 96.3509 12.4209 96.3343 12.6414H89.2521C89.4188 14.5408 90.8185 15.6431 92.3849 15.6431Z" fill="#A0ACE3"/>
<path d="M97.2998 6.55322H96.7832V6.2818H98.083V6.55322H97.5664V7.92731H97.2831V6.55322H97.2998Z" fill="#A0ACE3"/>
<path d="M98.3995 6.2818H98.6994L99.1994 7.06214L99.6993 6.2818H99.9993V7.92731H99.716V6.73983L99.1994 7.52017H99.1827L98.6661 6.75679V7.92731H98.3828L98.3995 6.2818Z" fill="#A0ACE3"/>
</svg>
