<svg width="151" height="19" viewBox="0 0 151 19" fill="none" xmlns="http://www.w3.org/2000/svg">
<g clip-path="url(#clip0)">
<path d="M97.63 18.1188H93.5285V1.3822L106.721 1.39307C106.721 1.39307 109.137 1.30298 110.672 2.82073C110.672 2.82073 112.241 4.13062 112.241 7.33084V18.1152H108.15V7.05204C108.15 7.05204 108.2 5.92361 107.816 5.52704C107.816 5.52704 107.476 5.09682 106.829 5.09682H97.6216L97.6302 18.1188L97.63 18.1188ZM115.087 18.1159V2.44045V1.38893H131.551V5.1083L119.171 5.10734V7.95065H127.773V11.5426H119.171V14.3956H131.633V18.1161H115.087L115.087 18.1159ZM86.3834 18.1159V2.44045V1.38893H90.4669V18.1159H86.3834ZM138.477 4.05643V3.49282V4.05643ZM137.424 18.1155V5.10795H133.569V1.38858H148.899V5.10795H141.508V18.1155H137.424ZM73.9403 4.0564V3.49279V4.0564ZM72.8876 18.1155V5.10792H69.0324V1.38855H84.3629V5.10792H76.9711V18.1155H72.8876ZM60.5688 7.94775C61.5662 7.94006 62.1635 7.94871 62.4039 7.80234C62.4039 7.80234 62.8233 7.5704 62.8281 7.07288L62.829 5.9793C62.829 5.47938 62.4048 5.24985 62.4048 5.24985C62.0863 5.0768 61.5468 5.10925 60.2657 5.10805H52.309V7.94775H60.7512H60.5686H60.5688ZM62.7692 18.1156V12.4074C62.7692 11.8942 62.3402 11.6791 62.3402 11.6791C62.1467 11.559 61.5674 11.5373 60.7142 11.5373H60.9125H52.3093V18.1156H48.2258V2.44019V1.38867H60.9738C63.1754 1.3954 64.6956 1.71915 65.7423 2.73582C66.771 3.78373 66.908 5.15491 66.9128 6.58137V7.77229C66.926 8.98485 66.2891 10.0904 65.5296 10.7346L65.6822 10.8103C65.9922 10.9605 66.1617 11.1733 66.1617 11.1733C66.7397 11.9111 66.7325 12.5456 66.7313 13.3268V18.1157H62.7692V18.1156ZM1.01172 1.38723V2.43995V18.1142H5.09522V11.5419H17.4671V7.94871H5.09522V5.1066H19.4788V1.38723H1.01172Z" fill="#A0ACE3"/>
<path d="M147.496 15.1547V15.9226H148.211C148.404 15.9226 148.591 15.8698 148.62 15.5825C148.661 15.2016 148.386 15.1547 148.211 15.1547H147.496ZM147.208 14.9024H148.205C148.551 14.9024 148.885 14.9673 148.914 15.4708C148.926 15.7592 148.838 15.8637 148.62 16.0284C148.85 16.175 148.856 16.2098 148.891 16.5968C148.914 16.89 148.873 16.9369 148.996 17.1304H148.656L148.61 16.8492C148.563 16.5848 148.691 16.175 148.229 16.175H147.496V17.1304H147.208V14.9024H147.208ZM147.958 14.2871C146.974 14.2871 146.171 15.0898 146.177 16.0813C146.177 17.0655 146.974 17.8682 147.964 17.8634C148.95 17.8634 149.752 17.0655 149.752 16.0753C149.752 15.0898 148.95 14.2871 147.958 14.2871ZM147.964 18.0966C146.845 18.0966 145.941 17.1941 145.941 16.0753C145.937 14.9612 146.845 14.0527 147.964 14.0527C149.078 14.0527 149.986 14.9612 149.986 16.0753C149.986 17.1941 149.078 18.0918 147.964 18.0966Z" fill="#CBD0E9"/>
<path d="M42.618 18.275C43.9447 17.8244 44.977 16.297 45.2257 14.3754V13.8202H38.4239V18.275H42.618ZM45.2261 5.65115V5.14882C44.9653 3.14433 43.8561 1.56525 42.4417 1.19391H38.4243V5.65115H45.2261ZM21.2833 13.8204V14.3708C21.5297 16.2936 22.562 17.8246 23.8923 18.2753H28.0647V13.8204H21.2833ZM24.0668 1.1945C22.6547 1.56584 21.5419 3.14612 21.2836 5.15302V5.65174H28.065V1.1945H24.0668ZM45.2266 7.50711H38.4248V11.9643H45.2266V7.50711ZM29.9177 18.2747H36.5717V13.8198H29.9177V18.2747ZM36.5717 1.19439H29.9177V5.65163H36.5717V1.19439ZM21.2832 11.9643H28.0646V7.50711H21.2832V11.9643Z" fill="#CDD6FE"/>
</g>
<defs>
<clipPath id="clip0">
<rect width="150" height="18.1641" fill="white" transform="translate(0.5 0.652588)"/>
</clipPath>
</defs>
</svg>
