<svg width="150" height="33" viewBox="0 0 150 33" fill="none" xmlns="http://www.w3.org/2000/svg">
<g clip-path="url(#clip0)">
<path d="M52.9475 19.2871L52.0535 21.8202H51.979C51.83 21.249 51.5568 20.3798 51.1098 19.3368L46.3168 7.29207H41.623V26.4891H44.7274V14.6431C44.7274 13.898 44.7273 13.0537 44.7025 12.0106C44.6777 11.4891 44.628 11.0917 44.6032 10.7937H44.6777C44.8267 11.5388 45.0005 12.0851 45.1247 12.4328L50.8863 26.4394H53.0717L58.7836 12.3086C58.9078 11.9858 59.032 11.3401 59.1562 10.7937H59.2307C59.1562 12.2093 59.1065 13.4758 59.0816 14.2457V26.4146H62.3846V7.24241H57.8648L52.9475 19.2871ZM65.5138 12.6563H68.7422V26.4146H65.5138V12.6563ZM67.1528 6.84506C66.6065 6.84506 66.1595 7.04373 65.7869 7.39141C65.4144 7.73909 65.2158 8.18611 65.2158 8.73247C65.2158 9.25399 65.4144 9.70101 65.7869 10.0487C66.1595 10.3964 66.6065 10.5702 67.1528 10.5702C67.6992 10.5702 68.1711 10.3715 68.5187 10.0487C68.8913 9.70101 69.0899 9.25399 69.0899 8.73247C69.0899 8.21095 68.8913 7.76393 68.5187 7.39141C68.1959 7.04373 67.724 6.84506 67.1528 6.84506ZM80.1909 12.5321C79.5949 12.408 78.974 12.3335 78.378 12.3335C76.9128 12.3335 75.5717 12.6563 74.4542 13.302C73.3366 13.9477 72.4426 14.8417 71.8714 15.9593C71.2754 17.1017 70.9773 18.4179 70.9773 19.9328C70.9773 21.249 71.2754 22.4162 71.8465 23.4841C72.4177 24.5272 73.2124 25.3715 74.2803 25.9427C75.2985 26.5139 76.4906 26.8119 77.8316 26.8119C79.3714 26.8119 80.6876 26.4891 81.7307 25.8931L81.7555 25.8682V22.8881L81.6313 22.9874C81.1595 23.3351 80.6131 23.6331 80.0667 23.807C79.4956 24.0056 78.974 24.105 78.527 24.105C77.2356 24.105 76.2174 23.7325 75.4972 22.9129C74.7522 22.1182 74.3797 21.0255 74.3797 19.6596C74.3797 18.2441 74.7522 17.1265 75.522 16.307C76.2919 15.4874 77.3101 15.0653 78.5518 15.0653C79.5949 15.0653 80.6628 15.4129 81.6313 16.1083L81.7555 16.2076V13.0537L81.7307 13.0288C81.3085 12.855 80.8366 12.6563 80.1909 12.5321ZM90.8449 12.4328C90.0502 12.4328 89.3052 12.6811 88.6595 13.2027C88.1131 13.6497 87.7406 14.2954 87.4177 15.0653H87.3929V12.6563H84.1644V26.4146H87.3929V19.3864C87.3929 18.1944 87.6413 17.201 88.1876 16.4808C88.734 15.7358 89.4293 15.3633 90.2737 15.3633C90.5717 15.3633 90.8697 15.4378 91.2422 15.4874C91.5899 15.5868 91.8383 15.6861 92.0121 15.8103L92.1363 15.9096V12.6811L92.0618 12.6563C91.8383 12.5073 91.3912 12.4328 90.8449 12.4328ZM99.6363 12.3583C97.3763 12.3583 95.5634 13.0288 94.2969 14.3451C93.0055 15.6613 92.3846 17.4742 92.3846 19.759C92.3846 21.8947 93.0303 23.6331 94.272 24.8997C95.5138 26.1414 97.2025 26.7871 99.3134 26.7871C101.524 26.7871 103.287 26.1166 104.553 24.7755C105.845 23.4345 106.466 21.6464 106.466 19.4361C106.466 17.2507 105.87 15.5123 104.653 14.2457C103.486 12.9792 101.772 12.3583 99.6363 12.3583ZM102.219 22.9378C101.623 23.7076 100.679 24.0802 99.5121 24.0802C98.3449 24.0802 97.4012 23.7076 96.7306 22.8881C96.0601 22.1182 95.7373 21.0007 95.7373 19.5851C95.7373 18.1199 96.085 17.0023 96.7306 16.2076C97.4012 15.4129 98.3201 15.0156 99.4873 15.0156C100.63 15.0156 101.524 15.3881 102.169 16.158C102.815 16.9278 103.163 18.0454 103.163 19.5106C103.113 21.0007 102.84 22.1679 102.219 22.9378ZM113.668 18.3682C112.65 17.946 112.004 17.6232 111.706 17.35C111.457 17.1017 111.333 16.754 111.333 16.307C111.333 15.9345 111.482 15.5619 111.855 15.3136C112.227 15.0653 112.65 14.9411 113.27 14.9411C113.817 14.9411 114.388 15.0404 114.934 15.1894C115.481 15.3384 115.977 15.5619 116.375 15.86L116.499 15.9593V12.9295L116.424 12.9047C116.052 12.7557 115.555 12.6066 114.959 12.4825C114.363 12.3831 113.817 12.3335 113.37 12.3335C111.83 12.3335 110.563 12.706 109.57 13.5255C108.577 14.2954 108.105 15.3384 108.105 16.5553C108.105 17.201 108.204 17.7722 108.428 18.2441C108.651 18.7159 108.974 19.1629 109.421 19.5355C109.868 19.8831 110.514 20.2805 111.408 20.653C112.153 20.9758 112.724 21.2242 113.072 21.4229C113.419 21.6215 113.643 21.8451 113.817 22.0189C113.941 22.2176 114.015 22.4659 114.015 22.7888C114.015 23.7076 113.32 24.1547 111.904 24.1547C111.358 24.1547 110.787 24.0553 110.116 23.8318C109.446 23.6083 108.825 23.2855 108.303 22.9129L108.179 22.8136V25.9676L108.254 25.9924C108.726 26.2159 109.297 26.3649 109.992 26.5388C110.688 26.6629 111.308 26.7623 111.855 26.7623C113.519 26.7623 114.885 26.3898 115.853 25.5702C116.847 24.7755 117.368 23.7573 117.368 22.4411C117.368 21.5222 117.12 20.7027 116.573 20.0818C115.853 19.4858 114.959 18.8649 113.668 18.3682ZM125.886 12.3583C123.626 12.3583 121.813 13.0288 120.547 14.3451C119.28 15.6613 118.635 17.4742 118.635 19.759C118.635 21.8947 119.28 23.6331 120.522 24.8997C121.764 26.1414 123.452 26.7871 125.563 26.7871C127.774 26.7871 129.537 26.1166 130.803 24.7755C132.095 23.4345 132.716 21.6464 132.716 19.4361C132.716 17.2507 132.12 15.5123 130.903 14.2457C129.736 12.9792 128.022 12.3583 125.886 12.3583ZM128.444 22.9378C127.848 23.7076 126.904 24.0802 125.737 24.0802C124.545 24.0802 123.626 23.7076 122.956 22.8881C122.285 22.1182 121.962 21.0007 121.962 19.5851C121.962 18.1199 122.31 17.0023 122.956 16.2076C123.626 15.4129 124.545 15.0156 125.712 15.0156C126.83 15.0156 127.749 15.3881 128.395 16.158C129.04 16.9278 129.388 18.0454 129.388 19.5106C129.388 21.0007 129.065 22.1679 128.444 22.9378ZM149.976 15.3136V12.6563H146.722V8.58347L146.623 8.6083L143.544 9.52717L143.469 9.55201V12.6563H138.601V10.9179C138.601 10.1232 138.8 9.50234 139.148 9.10499C139.496 8.70764 140.017 8.50896 140.663 8.50896C141.11 8.50896 141.582 8.6083 142.103 8.83181L142.227 8.90631V6.10002L142.153 6.07519C141.706 5.92618 141.11 5.82684 140.34 5.82684C139.371 5.82684 138.527 6.05035 137.757 6.42287C136.987 6.84505 136.416 7.41625 135.994 8.18611C135.572 8.93115 135.348 9.77552 135.348 10.7441V12.6563H133.088V15.2888H135.348V26.4146H138.601V15.3136H143.469V22.3914C143.469 25.297 144.835 26.7623 147.567 26.7623C148.014 26.7623 148.486 26.6878 148.933 26.6133C149.404 26.5139 149.752 26.3898 149.951 26.2904L149.976 26.2656V23.6083L149.852 23.7076C149.653 23.8318 149.479 23.9311 149.181 24.0057C148.933 24.0802 148.709 24.105 148.535 24.105C147.89 24.105 147.443 23.956 147.12 23.5835C146.822 23.2358 146.673 22.6646 146.673 21.8202V15.3136H149.976Z" fill="#CDD6FE"/>
<path d="M0 0.835083H15.2235V16.0586H0V0.835083Z" fill="#A0ACE3"/>
<path d="M16.8125 0.835083H32.036V16.0586H16.8125V0.835083Z" fill="#A0ACE3"/>
<path d="M0 17.648H15.2235V32.8715H0V17.648Z" fill="#A0ACE3"/>
<path d="M16.8125 17.648H32.036V32.8715H16.8125V17.648Z" fill="#A0ACE3"/>
</g>
<defs>
<clipPath id="clip0">
<rect width="150" height="32.0364" fill="white" transform="translate(0 0.835083)"/>
</clipPath>
</defs>
</svg>
