<svg width="150" height="26" viewBox="0 0 150 26" fill="none" xmlns="http://www.w3.org/2000/svg">
<g clip-path="url(#clip0)">
<path d="M148.563 18.1599H148.119V17.366H148.605C148.817 17.366 149.044 17.4092 149.044 17.749C149.044 18.1291 148.789 18.1599 148.563 18.1599ZM149.068 17.2767C148.942 17.1481 148.795 17.1481 148.657 17.1481H147.902V19.4241H148.119V18.3778H148.5L148.984 19.4241H149.237L148.725 18.3778C149.023 18.3749 149.264 18.2059 149.264 17.7596V17.7433C149.264 17.5599 149.187 17.366 149.068 17.2767Z" fill="#A0ACE3"/>
<path d="M148.473 20.0156C147.752 20.0156 147.17 19.2553 147.17 18.2935C147.17 17.3365 147.752 16.5695 148.473 16.5695C149.198 16.5695 149.772 17.3365 149.772 18.2935C149.772 19.2553 149.198 20.0156 148.473 20.0156ZM148.473 16.271C147.627 16.271 146.943 17.1685 146.943 18.2868C146.943 19.4147 147.627 20.316 148.473 20.316C149.317 20.316 150 19.4147 150 18.2868C150 17.1685 149.317 16.271 148.473 16.271Z" fill="#A0ACE3"/>
<path d="M81.7309 8.97441C81.7309 8.05193 82.3418 7.30128 83.066 7.30128H87.4609C88.188 7.30128 88.7953 8.05193 88.7953 8.97441V15.9943C88.7953 16.9292 88.1974 17.6856 87.4609 17.6856H83.066C82.3288 17.6856 81.7309 16.9292 81.7309 15.9943V8.97441ZM81.4747 20.119H89.0696C90.8292 20.119 92.5938 18.5457 92.5938 15.5373V9.52444C92.5938 6.51991 90.8081 4.94661 89.0486 4.94661H81.4747C79.7159 4.94661 77.9316 6.51991 77.9316 9.52444V15.5373C77.9316 18.5457 79.7159 20.119 81.4747 20.119Z" fill="#A0ACE3"/>
<path d="M51.2195 4.94899H40.7578V20.1214H44.396V7.30174H49.9439C50.5853 7.30174 51.1281 7.92665 51.1281 8.78673V20.1214H54.759V9.51722C54.759 6.99553 53.1728 4.94899 51.2195 4.94899Z" fill="#A0ACE3"/>
<path d="M105.575 4.94899H95.1113V20.1214H98.7509V7.30174H104.299C104.938 7.30174 105.484 7.92665 105.484 8.78673V20.1214H109.113V9.51722C109.113 6.99553 107.528 4.94899 105.575 4.94899Z" fill="#A0ACE3"/>
<path d="M17.4688 5.48453V20.1232H19.1645H21.1025V7.55123V0.0216618H19.0607H17.4688V5.48453Z" fill="#A0ACE3"/>
<path d="M71.3779 20.1211V8.8133C71.3779 7.97146 71.9141 7.30144 72.5744 7.30144H76.5463V4.94677H71.2807C69.3259 4.94677 67.7383 6.99522 67.7383 9.51692V20.1211H71.3779Z" fill="#A0ACE3"/>
<path d="M3.63525 7.30157H9.75641C10.4936 7.30157 11.0922 8.0647 11.0922 9.00254V15.9917C11.0922 16.9247 10.4936 17.6859 9.75641 17.6859H3.63525V7.30157ZM3.63525 20.1164L11.1379 20.1193C13.0905 20.1193 14.6644 18.0603 14.6644 15.5338V9.52473C14.6644 6.9992 13.0746 4.9469 11.122 4.9469H0.00217699L0 25.6859H3.63525V20.1164Z" fill="#A0ACE3"/>
<path d="M57.5078 15.5644C57.5078 18.1159 59.0591 20.123 61.0313 20.123H65.4923V17.6858H62.2068C61.6082 17.6858 61.1452 17.0484 61.1452 16.2316V7.30147H65.4923V4.9468H61.1489L61.1467 0.0214787H57.5078V15.5644Z" fill="#A0ACE3"/>
<path d="M115.533 9.61978V4.95076H113.841H111.926V10.7218V20.1232H113.111H115.533V9.61978Z" fill="#A0ACE3"/>
<path d="M111.926 1.90375V3.01245H113.424H115.533V2.04198V0.707696C115.533 0.706737 113.632 0.706737 113.632 0.706737C113.632 0.706737 111.926 0.706737 111.926 0.707696V1.90375Z" fill="#A0ACE3"/>
<path d="M121.773 15.4444V9.62444C121.773 7.62494 122.588 7.30145 123.562 7.30145H130.236V4.9487H121.692C119.739 4.9487 118.152 7.00004 118.152 9.52461V15.5442C118.152 18.0726 119.739 20.1182 121.692 20.1182H130.236V17.6858H123.562C122.44 17.6858 121.773 17.4449 121.773 15.4444Z" fill="#A0ACE3"/>
<path d="M142.41 11.2204H137.645C136.358 11.2156 135.965 10.4486 135.965 9.25642C135.965 7.96437 136.46 7.29723 137.645 7.30203H144.867V4.94928H135.704C133.83 4.94928 132.354 6.76064 132.297 9.25642C132.238 11.7138 133.83 13.5549 135.704 13.5549H140.744C141.446 13.5559 142.146 14.3497 142.138 15.6206C142.133 16.8791 141.446 17.6595 140.744 17.6854H132.213V20.1207H142.405C144.038 20.0747 145.817 19.0255 145.817 15.6206C145.817 12.7822 144.251 11.2626 142.41 11.2204Z" fill="#A0ACE3"/>
<path d="M34.3533 12.3307V17.6861H28.4469C27.7612 17.6995 27.2642 17.0583 27.2642 16.2309V13.8628C27.2642 13.019 27.7953 12.3307 28.4469 12.3307H34.3533ZM27.2453 20.1185H37.99V9.55178C37.99 7.01473 36.4575 4.94707 34.465 4.94707H25.1607V7.30174H33.151C34.055 7.30174 34.3533 7.61755 34.3547 8.51699V9.94438H27.2402C25.1607 9.94438 23.7465 12.3307 23.7037 14.1901C23.6797 15.1942 23.6971 15.245 23.7037 15.5311C23.7813 19.4955 26.4413 20.1732 27.2453 20.1185Z" fill="#A0ACE3"/>
</g>
<defs>
<clipPath id="clip0">
<rect width="150" height="25.6633" fill="white" transform="translate(0 0.0216675)"/>
</clipPath>
</defs>
</svg>
