<svg width="149" height="50" viewBox="0 0 149 50" fill="none" xmlns="http://www.w3.org/2000/svg">
<path d="M78.3485 30.0666C78.3485 32.4707 76.3745 34.4446 73.9704 34.4446C71.5663 34.4446 69.5923 32.4707 69.5923 30.0666V19.6402H66.8086V30.0666C66.8086 34.0144 70.0225 37.2284 73.9704 37.2284C77.9183 37.2284 81.1322 34.0144 81.1322 30.0666V19.6402H78.3485" fill="#A0ACE3"/>
<path d="M92.3423 22.2721C94.2909 22.2721 96.113 23.2084 97.2518 24.7775L99.8584 23.6893C98.2388 21.0574 95.4297 19.5136 92.3423 19.4883H92.2664C92.1905 19.4883 92.1146 19.4883 92.0386 19.4883H91.9627C87.3063 19.792 83.6621 23.6893 83.6621 28.3457C83.6621 33.0021 87.3063 36.8994 91.9627 37.2031H92.0386H92.1652C92.1905 37.2031 92.2411 37.2031 92.2664 37.2031H92.3423C95.4297 37.2031 98.2135 35.6341 99.8584 33.0022L97.2518 31.914C96.113 33.483 94.2656 34.4193 92.3423 34.4193C92.2917 34.4193 92.2411 34.4193 92.1905 34.4193H92.1399C88.9512 34.1916 86.4712 31.5344 86.4712 28.3457C86.4712 25.0558 89.0524 22.3733 92.3423 22.2721Z" fill="#A0ACE3"/>
<path d="M105.629 19.5389H102.82V36.9247H105.629V19.5389Z" fill="#A0ACE3"/>
<path d="M130.632 30.0666C130.632 32.4707 128.658 34.4446 126.254 34.4446C123.849 34.4446 121.876 32.4707 121.876 30.0666V19.5643H119.092V30.0666C119.092 34.0144 122.306 37.2284 126.254 37.2284C130.201 37.2284 133.415 34.0144 133.415 30.0666V19.5643H130.632" fill="#A0ACE3"/>
<path d="M63.5692 24.575C63.5439 21.361 60.9626 19.5643 57.7233 19.5643H49.6758V36.8994H52.4848V30.8258C52.4848 30.8258 52.5101 27.2575 52.5101 27.2828V24.5497V22.1456H57.7486C59.7226 22.1456 61.1904 22.8795 61.1904 24.5497C61.1904 26.5236 59.7226 27.2575 57.7486 27.2575H52.5101L54.9143 30.269L60.2793 36.9247H64.05L58.2295 30.0413C61.4181 30.0666 63.5692 27.789 63.5692 24.575Z" fill="#A0ACE3"/>
<path d="M143.032 27.0044C141.691 26.6248 140.729 26.1946 140.147 25.7644C139.565 25.3342 139.287 24.7775 139.287 24.1195C139.287 23.3856 139.54 22.7782 140.071 22.3227C140.603 21.8672 141.362 21.6394 142.349 21.6394C143.361 21.6394 144.171 21.9178 144.778 22.4492C145.385 22.9807 145.689 23.7146 145.689 24.6256H148.473L148.498 24.5497C148.549 23.0566 147.992 21.8166 146.879 20.8043C145.74 19.792 144.247 19.2859 142.374 19.2859C140.628 19.2859 139.185 19.7414 138.072 20.6525C136.958 21.5635 136.402 22.7276 136.402 24.1195C136.402 25.4607 136.908 26.5742 137.92 27.4094C138.932 28.2445 140.375 28.9278 142.247 29.4339C143.563 29.8135 144.474 30.2184 144.981 30.6739C145.487 31.1294 145.74 31.7368 145.74 32.4454C145.74 33.1793 145.461 33.7867 144.879 34.2169C144.297 34.6471 143.513 34.8748 142.475 34.8748C141.438 34.8748 140.552 34.6218 139.843 34.0903C139.109 33.5589 138.755 32.7744 138.755 31.7368H135.971L135.946 31.8127C135.895 33.5336 136.553 34.8495 137.869 35.7859C139.185 36.7222 140.729 37.2031 142.501 37.2031C144.348 37.2031 145.816 36.7729 146.955 35.9124C148.093 35.052 148.65 33.8879 148.65 32.4454C148.65 31.0788 148.169 29.94 147.208 29.0796C146.246 28.2192 144.854 27.5106 143.032 27.0044Z" fill="#A0ACE3"/>
<path d="M30.6699 14.8572C30.8977 15.1102 31.1001 15.338 31.3279 15.5405C31.1001 15.338 30.8977 15.1102 30.6699 14.8572Z" fill="#221E1F"/>
<path d="M56.5599 8.53056L57.471 7.99912C57.8506 7.77136 57.9771 7.26523 57.7493 6.88563C57.5216 6.50602 57.0407 6.4048 56.6611 6.60725L55.7248 7.164C55.6995 7.164 55.6742 7.18931 55.6742 7.18931L48.7148 12.0988L56.5093 8.55587C56.5093 8.55587 56.5346 8.55587 56.5599 8.53056Z" fill="#CDD6FE"/>
<path d="M57.3695 10.9599L49.2207 13.3641L57.7238 12.5037C57.7491 12.5037 57.7744 12.5037 57.7997 12.5037L58.8373 12.2759C59.2675 12.1747 59.5712 11.7444 59.4446 11.3142C59.3434 10.884 58.9132 10.6309 58.5083 10.7069L57.4201 10.9346C57.3948 10.9346 57.3948 10.9346 57.3695 10.9599Z" fill="#CDD6FE"/>
<path d="M58.6594 15.0597L57.5712 14.9332C57.5459 14.9332 57.5206 14.9332 57.4952 14.9332L48.9922 14.5789L57.3181 16.5528C57.3434 16.5528 57.3687 16.5528 57.394 16.5782L58.4316 16.7047C58.8871 16.7553 59.292 16.4263 59.3426 15.9961C59.4186 15.5153 59.1149 15.1104 58.6594 15.0597Z" fill="#CDD6FE"/>
<path d="M44.5379 10.0996C44.5379 10.0996 46.7143 9.06199 48.8907 7.89787C51.0671 6.73376 49.7764 5.06352 49.1184 4.93699C48.4605 4.81045 45.6514 5.31659 45.6514 5.31659C45.6514 5.31659 42.7411 5.82272 40.5142 5.87334C38.2872 5.92395 37.5786 4.30432 37.5786 4.30432C37.5786 4.30432 36.5663 2.43162 36.1361 1.52058C35.7059 0.609533 35.5034 0.432383 34.7695 0.786677C34.1875 1.06505 35.0732 3.1149 35.0732 3.1149C35.0732 3.1149 35.6046 4.40554 35.8577 4.96229C36.1108 5.54435 36.1867 5.99987 35.6299 6.25294C35.0985 6.506 34.7189 5.49373 34.7189 5.49373L33.8332 3.74757C33.8332 3.74757 33.3017 2.83653 33.1499 2.60877C32.6944 2.0014 30.0625 3.16551 29.8347 3.8488C29.6829 4.27901 30.2396 5.92395 31.7074 4.608C31.8592 4.45616 31.8845 4.73453 31.9352 4.81045C32.1629 5.31659 32.3907 5.87334 32.5172 6.20232C32.6184 6.45539 32.3401 7.26521 32.8968 8.65708C32.7703 9.01137 32.1629 9.23913 31.8339 9.54281C31.5809 9.77057 31.2266 9.99833 30.7964 10.2767L30.2396 10.6057C30.2143 10.6057 30.2143 10.6057 30.189 10.631C30.1637 10.6563 30.1384 10.6563 30.1131 10.6816C29.6576 11.1624 30.7457 12.9845 32.5425 14.756C34.0356 16.2238 35.6046 17.2361 36.3385 17.2614C36.4904 17.2614 36.6169 17.2361 36.6928 17.1348C36.7181 17.1095 36.7434 17.0842 36.7434 17.0336C36.7434 17.0083 36.7688 16.983 36.7688 16.9577C36.7688 16.9324 36.7941 16.9071 36.7941 16.8818C36.8194 16.8312 36.8194 16.7805 36.8447 16.7299C36.9206 16.5528 36.9965 16.3756 37.0977 16.1985C37.2496 15.9454 38.1606 15.1356 39.0464 15.4393C41.1974 16.1985 44.4367 18.9822 44.8922 19.0582C45.4996 19.1594 46.1829 18.9063 46.4612 18.2736C46.689 17.7675 46.2841 17.2108 46.1829 17.0336C46.0057 16.7299 45.4237 16.0213 45.4237 16.0213L43.8799 14.2752C43.8799 14.2752 42.3362 12.7821 42.3109 11.8963C42.3615 11.3143 44.5379 10.0996 44.5379 10.0996Z" fill="#A0ACE3"/>
<path d="M31.5559 15.7936C31.4799 15.7177 31.404 15.6418 31.3028 15.5405C31.1003 15.3381 30.8726 15.1103 30.6448 14.8573C30.6448 14.8573 30.6195 14.8319 30.6195 14.8066C30.5689 14.756 30.5183 14.7054 30.493 14.6548C30.4424 14.6042 30.4171 14.5536 30.3664 14.503L30.3411 14.4777C29.506 13.4907 28.7215 12.3519 28.5697 11.3143V11.289C27.937 11.5421 25.71 12.0988 24.9761 12.3519C24.141 12.6556 22.901 12.8327 21.7875 12.9086C20.5221 12.9846 18.0168 12.7062 16.6755 12.605C15.9163 12.5543 15.0306 12.5543 14.1195 12.7062C12.6264 12.9592 10.5513 14.0474 10.3235 14.1487C9.36185 14.503 7.16016 15.2875 4.70541 14.2499C1.16246 12.9846 1.64329 8.58118 1.33961 8.73302C0.960007 8.91017 0.377952 11.1625 1.11185 13.0858C1.36491 13.7691 1.79513 14.3764 2.25065 14.9079C2.63025 15.3634 3.46537 15.8948 4.37642 16.2238C4.78133 16.3757 5.21154 16.4769 5.56584 16.5781C5.76829 16.6287 6.57811 16.9071 7.13485 17.3879C7.59038 17.7675 7.86875 18.3243 7.79283 18.5267C6.45157 22.4493 7.312 25.3089 7.312 25.5367C7.41323 28.4723 5.4393 46.1364 5.48992 46.3389C5.51522 46.3895 5.4393 46.5919 5.54053 46.7691C5.66706 47.0221 5.94544 47.2752 6.07197 47.4777C6.29973 47.8066 6.37565 48.2369 6.75525 48.2875C8.27366 48.4899 9.08347 48.3128 8.95694 47.174C8.93163 46.9968 8.83041 46.6678 8.52673 46.4907C8.24835 46.3135 7.76752 46.2882 7.56507 46.0352C7.18547 45.5797 7.23608 44.8204 7.28669 44.4662C7.53976 42.8212 7.99528 39.835 8.29896 37.8611C8.47611 36.7223 9.21001 34.6977 9.48838 34.1663C11.1586 30.9777 12.1203 28.4723 12.6517 27.0045C12.8036 26.549 13.4362 26.7261 13.4109 27.1816C13.3856 27.6625 13.006 28.5229 12.9554 28.5988C12.8542 28.7254 12.8036 28.9025 12.8036 29.0543C12.8542 30.8764 13.4868 38.8734 13.4362 40.3918C13.3856 42.3404 13.335 43.6057 13.2338 44.2637C13.2085 44.5421 13.6893 45.0988 14.0436 45.3772C14.3726 45.6303 14.4991 46.0605 14.6257 46.0858C14.8028 46.1111 15.4355 46.1617 15.9922 46.1111C16.5237 46.0605 16.9539 45.9086 17.0045 45.7568C17.0298 45.6556 16.9286 44.9217 16.7008 44.7192C16.3971 44.4155 15.8151 44.1372 15.6126 44.0359C15.0306 43.7829 15.1065 40.6701 15.1065 40.6701L16.2959 31.914C16.2959 31.914 18.9531 26.3971 20.5474 25.6632C23.483 24.9547 26.0643 25.4355 26.0643 25.4355C26.0643 25.4355 29.0758 26.2959 29.835 29.6364C30.5436 32.7238 31.5053 42.391 31.8089 45.529C31.8595 46.1364 31.9608 46.6172 32.0367 46.6678C32.2138 46.7944 32.7453 46.9715 32.8212 47.3511C32.8971 47.7307 32.973 48.1609 33.378 48.3381C33.6563 48.3381 34.1119 48.414 34.7698 48.414C35.1747 48.414 35.6049 48.4393 35.8074 48.2116C35.9086 48.1103 35.858 47.3511 35.858 47.3511C35.858 47.3005 35.8074 47.1993 35.7568 47.0727C35.6303 46.845 35.4025 46.5666 35.1241 46.4654C34.8964 46.3642 34.5168 46.3389 34.3143 46.2376C34.2384 46.2123 34.0612 45.9593 34.0106 45.858C33.3526 44.6433 33.1755 42.9478 33.049 42.1885C32.4416 38.6962 33.8082 27.131 33.8841 26.3212C33.8841 26.3212 34.1625 26.0428 34.4661 25.6379C34.5168 25.5873 34.5927 25.4861 34.5927 25.4861C34.7698 26.4478 34.5927 27.8396 34.8457 29.4086C35.0229 30.674 35.276 32.0659 35.5037 33.3818C36.0605 36.4692 36.7691 44.5168 37.3511 44.9723C37.3764 44.9976 37.756 45.0482 37.756 45.0988C37.8319 45.3519 37.756 45.9339 37.9332 46.0099C38.9707 46.2629 40.0842 46.2882 40.4638 45.858C40.6157 45.7062 40.5398 45.2 40.5651 44.9217C40.5651 44.8204 40.5398 44.5674 40.2108 44.3396C39.9577 44.1625 39.4516 44.2384 39.1985 44.0359C39.0214 43.8841 38.9961 43.7323 38.8948 43.4286C38.1609 41.404 38.0597 37.3803 37.8573 35.381C37.6548 33.3312 37.5283 31.003 37.5789 28.7254C37.6295 26.2959 37.9585 24.2208 37.6295 22.4999C37.1487 20.0705 36.4401 18.8304 36.4401 18.8304C36.4401 18.8304 36.4401 18.7798 36.4401 18.7292C36.3895 18.7292 36.3642 18.7292 36.3135 18.7292C34.618 18.628 32.4163 16.6287 31.5559 15.7936Z" fill="#A0ACE3"/>
<path d="M36.8444 16.8817C36.8444 16.907 36.8444 16.9323 36.8191 16.9576C36.8191 16.9829 36.7938 17.0082 36.7938 17.0335C36.7685 17.0589 36.7685 17.1095 36.7432 17.1348C36.6673 17.2107 36.5408 17.2613 36.3889 17.2613C35.655 17.236 34.086 16.2237 32.5929 14.7559C30.7961 12.9845 29.7079 11.1624 30.1635 10.6816C30.1888 10.6562 30.2141 10.6562 30.2394 10.6309C30.2394 10.6309 30.2647 10.6309 30.29 10.6056L30.8467 10.2766C30.5684 10.1248 30.3406 10.0489 30.1381 10.0742C30.0369 10.0742 29.2018 10.5297 28.9993 10.6816C28.6957 10.9093 28.5438 11.1118 28.5691 11.2889C28.5691 11.2889 28.5691 11.2889 28.5691 11.3142C28.5691 11.3142 28.5691 11.3142 28.5691 11.3395C28.721 12.3771 29.5055 13.5159 30.3406 14.5029L30.3659 14.5282C30.4165 14.5788 30.4671 14.6294 30.4924 14.68C30.5431 14.7306 30.5937 14.7812 30.619 14.8319L30.6443 14.8572C30.872 15.1102 31.0745 15.338 31.3023 15.5404C31.3782 15.6164 31.4541 15.6923 31.5553 15.7935C32.4158 16.6539 34.6174 18.6279 36.313 18.6785C36.3636 18.6785 36.3889 18.6785 36.4395 18.6785C36.4648 18.6785 36.4901 18.6785 36.5155 18.6785C36.5408 18.6785 36.5661 18.6785 36.5914 18.6785C36.8444 18.5773 36.8697 18.4254 36.8697 18.4254C36.8697 18.4254 37.0975 17.4385 37.0975 17.1601C37.0975 17.0082 36.9963 16.8564 36.9204 16.7805C36.8951 16.7805 36.8697 16.8311 36.8444 16.8817Z" fill="#CDD6FE"/>
<path d="M52.2322 47.1234L52.0551 46.516H52.0298C51.8273 46.7691 51.5995 46.9715 51.3971 47.0475C51.1946 47.1487 50.9163 47.1993 50.5873 47.1993C50.1571 47.1993 49.8281 47.0728 49.575 46.845C49.3219 46.6172 49.2207 46.2883 49.2207 45.858C49.2207 45.4025 49.3979 45.0735 49.7268 44.8458C50.0558 44.618 50.562 44.4915 51.2452 44.4662L52.0044 44.4409V44.2131C52.0044 43.9347 51.9285 43.7323 51.802 43.5804C51.6755 43.4539 51.473 43.378 51.1946 43.378C50.9669 43.378 50.7644 43.4033 50.562 43.4792C50.3595 43.5551 50.1571 43.631 49.9799 43.707L49.6762 43.049C49.904 42.9224 50.1824 42.8212 50.4607 42.7706C50.7391 42.6947 51.0175 42.6694 51.2705 42.6694C51.8273 42.6694 52.2575 42.7959 52.5359 43.0237C52.8143 43.2767 52.9661 43.6563 52.9661 44.1625V47.1234H52.2322ZM50.8403 46.4907C51.1693 46.4907 51.4477 46.3895 51.6502 46.2123C51.8526 46.0352 51.9538 45.7568 51.9538 45.4278V45.0482L51.3971 45.0735C50.9669 45.0988 50.6379 45.1494 50.4354 45.3013C50.233 45.4278 50.1317 45.6303 50.1317 45.9087C50.1317 46.1111 50.1824 46.2629 50.3089 46.3642C50.4354 46.4401 50.6126 46.4907 50.8403 46.4907Z" fill="#CDD6FE"/>
<path d="M59.8231 47.1234H58.8867V44.4408C58.8867 44.1119 58.8108 43.8588 58.6843 43.6816C58.5578 43.5045 58.33 43.4286 58.0263 43.4286C57.6467 43.4286 57.343 43.5551 57.1659 43.7829C56.9887 44.0106 56.8875 44.3902 56.8875 44.947V47.1234H55.9512V42.7453H56.6851L56.8116 43.3273H56.8622C56.9887 43.1249 57.1659 42.9477 57.419 42.8465C57.672 42.72 57.9251 42.6694 58.2288 42.6694C59.2664 42.6694 59.7978 43.2008 59.7978 44.2637" fill="#CDD6FE"/>
<path d="M70.4525 47.1233L69.8704 45.529H67.6687L67.112 47.1233H66.125L68.2761 41.3281H69.3137L71.4647 47.1233H70.4525ZM69.6173 44.6939L69.0859 43.1248C69.0353 43.0236 68.9847 42.8465 68.9341 42.6187C68.8581 42.391 68.8075 42.2391 68.7822 42.1126C68.7063 42.4416 68.6051 42.7959 68.4785 43.1755L67.9471 44.6686H69.6173V44.6939Z" fill="#CDD6FE"/>
<path d="M74.9324 44.8204V47.1233H73.9961V41.3534H75.641C76.3749 41.3534 76.9317 41.4799 77.286 41.7836C77.6403 42.062 77.8174 42.4922 77.8174 43.0489C77.8174 43.7575 77.4378 44.289 76.7039 44.5927L78.3489 47.1486H77.2607L75.8688 44.8457L74.9324 44.8204ZM74.9324 44.0359H75.5904C76.0206 44.0359 76.3496 43.96 76.5521 43.7828C76.7545 43.631 76.8558 43.3779 76.8558 43.0489C76.8558 42.72 76.7545 42.4922 76.5268 42.3404C76.3243 42.1885 75.9953 42.1379 75.5651 42.1379H74.9324V44.0359Z" fill="#CDD6FE"/>
<path d="M81.8914 44.8204V47.1233H80.9551V41.3534H82.6C83.3339 41.3534 83.8906 41.4799 84.2449 41.7836C84.5992 42.062 84.7764 42.4922 84.7764 43.0489C84.7764 43.7575 84.3968 44.289 83.6629 44.5927L85.3078 47.1486H84.2196L82.8278 44.8457L81.8914 44.8204ZM81.8914 44.0359H82.5494C82.9796 44.0359 83.3086 43.96 83.5111 43.7828C83.7135 43.631 83.8147 43.3779 83.8147 43.0489C83.8147 42.72 83.7135 42.4922 83.4857 42.3404C83.2833 42.1885 82.9543 42.1379 82.5241 42.1379H81.8914V44.0359Z" fill="#CDD6FE"/>
<path d="M88.825 41.3534H87.8887V47.1233H88.825V41.3534Z" fill="#CDD6FE"/>
<path d="M95.4799 45.5543C95.4799 46.0605 95.3028 46.4654 94.9232 46.7691C94.5436 47.0727 94.0375 47.1993 93.3795 47.1993C92.7215 47.1993 92.1901 47.098 91.7852 46.8956V46.0099C92.0382 46.1364 92.3166 46.2376 92.6203 46.3135C92.924 46.3895 93.2023 46.4148 93.4554 46.4148C93.835 46.4148 94.1134 46.3388 94.2905 46.2123C94.4677 46.0605 94.5689 45.8833 94.5689 45.6303C94.5689 45.4025 94.493 45.2253 94.3158 45.0735C94.164 44.9217 93.8097 44.7445 93.3036 44.5421C92.7721 44.3396 92.3925 44.0865 92.1901 43.8082C91.9876 43.5298 91.8611 43.2008 91.8611 42.8212C91.8611 42.3404 92.0382 41.9608 92.3672 41.6824C92.6962 41.404 93.177 41.2775 93.7338 41.2775C94.2905 41.2775 94.8473 41.404 95.3787 41.6318L95.075 42.391C94.5689 42.1632 94.1134 42.062 93.7085 42.062C93.4048 42.062 93.177 42.1379 93.0252 42.2644C92.8733 42.391 92.7974 42.5681 92.7974 42.7959C92.7974 42.9477 92.8227 43.0743 92.8987 43.1755C92.9493 43.2767 93.0758 43.3779 93.2023 43.4792C93.3542 43.5804 93.6072 43.7069 93.9868 43.8588C94.4171 44.0359 94.7207 44.2131 94.9232 44.3396C95.1256 44.4914 95.2775 44.6686 95.3534 44.8457C95.4293 45.0735 95.4799 45.3013 95.4799 45.5543Z" fill="#CDD6FE"/>
<path d="M103.907 47.1993C103.249 47.1993 102.743 47.0222 102.414 46.6172C102.06 46.2376 101.908 45.6809 101.908 44.947C101.908 44.2131 102.085 43.6563 102.44 43.2514C102.794 42.8465 103.325 42.6694 104.009 42.6694C104.464 42.6694 104.894 42.7453 105.249 42.9224L104.97 43.6563C104.591 43.5045 104.262 43.4286 104.009 43.4286C103.249 43.4286 102.87 43.9347 102.87 44.9217C102.87 45.4025 102.971 45.7821 103.148 46.0352C103.351 46.2883 103.604 46.4148 103.983 46.4148C104.388 46.4148 104.793 46.3136 105.147 46.1111V46.9209C104.97 47.0222 104.793 47.0981 104.616 47.1234C104.414 47.174 104.186 47.1993 103.907 47.1993Z" fill="#CDD6FE"/>
<path d="M111.828 44.9217C111.828 45.6303 111.651 46.187 111.271 46.5919C110.917 46.9968 110.386 47.1993 109.753 47.1993C109.348 47.1993 108.994 47.0981 108.665 46.9209C108.361 46.7438 108.108 46.4654 107.931 46.1364C107.754 45.7821 107.678 45.4025 107.678 44.947C107.678 44.2384 107.855 43.6816 108.234 43.2767C108.589 42.8718 109.12 42.6694 109.778 42.6694C110.411 42.6694 110.917 42.8718 111.271 43.2767C111.626 43.6816 111.828 44.2384 111.828 44.9217ZM108.639 44.9217C108.639 45.934 109.019 46.4401 109.753 46.4401C110.487 46.4401 110.866 45.934 110.866 44.9217C110.866 43.9347 110.487 43.4286 109.753 43.4286C109.373 43.4286 109.07 43.5551 108.892 43.8082C108.715 44.0866 108.639 44.4408 108.639 44.9217Z" fill="#CDD6FE"/>
<path d="M118.359 47.1234H117.423V44.4155C117.423 44.0865 117.372 43.8335 117.245 43.6816C117.119 43.5045 116.916 43.4286 116.663 43.4286C116.309 43.4286 116.031 43.5551 115.879 43.7829C115.702 44.0106 115.626 44.3902 115.626 44.947V47.1234H114.689V42.7453H115.423L115.55 43.3273H115.6C115.727 43.1249 115.904 42.9477 116.132 42.8465C116.36 42.72 116.613 42.6694 116.891 42.6694C117.574 42.6694 118.005 42.8971 118.232 43.3527H118.283C118.41 43.1249 118.587 42.9731 118.84 42.8465C119.068 42.72 119.346 42.6694 119.65 42.6694C120.181 42.6694 120.561 42.7959 120.788 43.0743C121.016 43.3273 121.143 43.7323 121.143 44.289V47.1234H120.206V44.4155C120.206 44.0865 120.13 43.8335 120.004 43.6816C119.877 43.5045 119.675 43.4286 119.397 43.4286C119.042 43.4286 118.764 43.5298 118.612 43.7576C118.435 43.9853 118.359 44.3396 118.359 44.7951" fill="#CDD6FE"/>
<path d="M126.405 47.1993C125.848 47.1993 125.418 46.9968 125.114 46.5919H125.063C125.089 46.9715 125.114 47.174 125.114 47.2752V49.072H124.178V42.7453H124.937C124.962 42.8212 124.988 43.0237 125.063 43.3274H125.114C125.392 42.8971 125.848 42.6694 126.405 42.6694C126.961 42.6694 127.366 42.8718 127.67 43.2514C127.974 43.6563 128.126 44.1878 128.126 44.9217C128.126 45.6303 127.974 46.187 127.67 46.5919C127.366 46.9968 126.936 47.1993 126.405 47.1993ZM126.177 43.4286C125.797 43.4286 125.544 43.5298 125.367 43.7576C125.19 43.9853 125.114 44.3143 125.114 44.7951V44.9217C125.114 45.4531 125.19 45.8327 125.367 46.0858C125.544 46.3136 125.797 46.4401 126.202 46.4401C126.531 46.4401 126.759 46.3136 126.936 46.0352C127.113 45.7821 127.189 45.4025 127.189 44.9217C127.189 44.4408 127.113 44.0612 126.936 43.8082C126.759 43.5551 126.506 43.4286 126.177 43.4286Z" fill="#CDD6FE"/>
<path d="M133.744 47.1234L133.567 46.516H133.541C133.339 46.7691 133.111 46.9715 132.909 47.0475C132.706 47.1487 132.428 47.1993 132.099 47.1993C131.669 47.1993 131.34 47.0728 131.087 46.845C130.834 46.6172 130.732 46.2883 130.732 45.858C130.732 45.4025 130.91 45.0735 131.239 44.8458C131.568 44.618 132.074 44.4915 132.757 44.4662L133.516 44.4409V44.2131C133.516 43.9347 133.466 43.7323 133.314 43.5804C133.187 43.4539 132.985 43.378 132.706 43.378C132.479 43.378 132.276 43.4033 132.074 43.4792C131.871 43.5551 131.669 43.631 131.492 43.707L131.188 43.049C131.416 42.9224 131.694 42.8212 131.972 42.7706C132.251 42.6947 132.529 42.6694 132.782 42.6694C133.339 42.6694 133.769 42.7959 134.048 43.0237C134.326 43.2767 134.478 43.6563 134.478 44.1625V47.1234H133.744ZM132.352 46.4907C132.681 46.4907 132.959 46.3895 133.162 46.2123C133.364 46.0352 133.466 45.7568 133.466 45.4278V45.0482L132.909 45.0735C132.479 45.0988 132.15 45.1494 131.947 45.3013C131.745 45.4278 131.643 45.6303 131.643 45.9087C131.643 46.1111 131.694 46.2629 131.821 46.3642C131.947 46.4401 132.124 46.4907 132.352 46.4907Z" fill="#CDD6FE"/>
<path d="M141.312 47.1234H140.375V44.4408C140.375 44.1119 140.299 43.8588 140.173 43.6816C140.046 43.5045 139.818 43.4286 139.515 43.4286C139.135 43.4286 138.831 43.5551 138.654 43.7829C138.477 44.0106 138.376 44.3902 138.376 44.947V47.1234H137.49V42.7453H138.224L138.351 43.3273H138.401C138.528 43.1249 138.73 42.9477 138.958 42.8465C139.211 42.72 139.464 42.6694 139.768 42.6694C140.805 42.6694 141.337 43.2008 141.337 44.2637" fill="#CDD6FE"/>
<path d="M143.74 42.7453H144.753L145.638 45.2254C145.765 45.5796 145.866 45.9086 145.917 46.2123H145.942C145.967 46.0605 146.018 45.8833 146.068 45.6809C146.119 45.4784 146.473 44.4915 147.081 42.7453H148.093L146.22 47.7054C145.891 48.6164 145.309 49.072 144.525 49.072C144.322 49.072 144.12 49.0467 143.917 48.996V48.2622C144.044 48.2875 144.221 48.3128 144.398 48.3128C144.854 48.3128 145.157 48.0597 145.335 47.5283L145.486 47.1234" fill="#CDD6FE"/>
</svg>
