<svg width="150" height="27" viewBox="0 0 150 27" fill="none" xmlns="http://www.w3.org/2000/svg">
<g clip-path="url(#clip0)">
<path d="M33.7125 0.875244L20.5667 10.9919C19.2146 5.93358 14.8333 2.22108 9.43958 2.22108H0V25.4857H9.43958C14.8354 25.4857 19.5542 21.7773 20.5646 16.719L33.7104 26.8315L46.8625 16.719V25.4836H61.6958V20.7648H51.9208V2.22316H46.525V10.9877L34.05 21.1044L31.3521 18.7502L37.4229 14.0252L43.8271 8.97108L40.1187 5.93983L27.6458 15.7148L24.9479 13.3544L37.4229 3.91483L33.7125 0.881494V0.875244ZM5.05833 6.94191H9.10208C9.94583 6.94191 10.7687 7.13149 11.5271 7.47941C12.2875 7.82733 12.9812 8.33358 13.5708 8.96483C14.1604 9.59608 14.6458 10.3523 14.9833 11.2065C15.3208 12.0607 15.5083 13.0107 15.5083 14.0232C15.5083 14.9502 15.3375 15.8544 15.0292 16.6898C14.7247 17.5188 14.273 18.286 13.6958 18.9544C13.1321 19.6071 12.4418 20.1387 11.6667 20.5169C10.8917 20.8919 10.0312 21.0982 9.10417 21.0982H5.05625L5.05833 6.94191ZM78.5521 20.7648V25.4857H63.7187V2.22316H69.1125V20.7648H78.5521Z" fill="#A0ACE3"/>
<path d="M141.014 25.9126C145.576 25.9126 149.285 23.6314 149.999 18.6397L149.714 18.3543H148.431L148.145 18.6397C147.431 22.2043 145.149 24.2022 141.158 24.2022C136.166 24.2022 132.599 20.4939 132.599 13.9314C132.599 7.36887 136.308 3.6647 141.155 3.6647C145.149 3.6647 147.433 5.66262 148.145 8.94178L148.431 9.2272H149.714L149.999 8.94178C149.287 4.37928 145.72 1.95428 141.014 1.95428C135.451 1.95428 130.46 5.94803 130.46 13.7918C130.46 21.9209 135.451 25.9126 141.014 25.9126ZM126.468 25.2001V2.66678L126.183 2.38137H123.899L123.616 2.66678L115.058 22.7751H114.772L105.93 2.66678L105.645 2.38137H103.364L103.078 2.66678V25.2001L103.364 25.4855H104.647L104.932 25.2001V6.0897H105.218L113.489 25.2001L113.774 25.4855H115.487L115.772 25.2001L124.043 6.0897H124.47V25.2001L124.755 25.4855H126.039L126.468 25.2001ZM98.6595 25.2001V24.2001L98.3741 23.9168H86.1095L85.8241 23.6314V15.0751L86.1095 14.7897H97.6595L97.945 14.5043V13.3626L97.6595 13.0772H86.1095L85.8241 12.7918V4.3772L86.1095 4.09387H98.3741L98.6595 3.80845V2.66678L98.3741 2.38137H84.1116L83.8262 2.66678V25.2001L84.1116 25.4855H98.3741L98.6595 25.2001Z" fill="#A0ACE3"/>
</g>
<defs>
<clipPath id="clip0">
<rect width="150" height="25.98" fill="white" transform="translate(0 0.863342)"/>
</clipPath>
</defs>
</svg>
