<svg width="46" height="46" viewBox="0 0 46 46" fill="none" xmlns="http://www.w3.org/2000/svg">
<circle r="22.5" transform="matrix(-1 0 0 1 23 23)" fill="white" stroke="#BDE3FE"/>
<path d="M29.0668 17.7996C29.5454 17.7996 29.9334 17.4116 29.9334 16.933C29.9334 16.4544 29.5454 16.0664 29.0668 16.0664C28.5882 16.0664 28.2002 16.4544 28.2002 16.933C28.2002 17.4116 28.5882 17.7996 29.0668 17.7996Z" fill="#1F40E5"/>
<path d="M26.0336 17.7996C26.5122 17.7996 26.9002 17.4116 26.9002 16.933C26.9002 16.4544 26.5122 16.0664 26.0336 16.0664C25.555 16.0664 25.167 16.4544 25.167 16.933C25.167 17.4116 25.555 17.7996 26.0336 17.7996Z" fill="#1F40E5"/>
<path d="M22.9999 17.7996C23.4785 17.7996 23.8665 17.4116 23.8665 16.933C23.8665 16.4544 23.4785 16.0664 22.9999 16.0664C22.5213 16.0664 22.1333 16.4544 22.1333 16.933C22.1333 17.4116 22.5213 17.7996 22.9999 17.7996Z" fill="#1F40E5"/>
<path d="M31.6667 12.5996H14.3335C13.3804 12.5996 12.6001 13.3799 12.6001 14.333V20.3996C12.6001 21.3533 13.3804 22.133 14.3335 22.133H31.6667C32.6198 22.133 33.4001 21.3533 33.4001 20.3996V14.333C33.4001 13.3799 32.6198 12.5996 31.6667 12.5996ZM31.6667 20.3996H20.8335V16.0662H19.1001V20.3996H17.8001V16.0662H16.0667V20.3996H14.3335V14.333H31.6667V20.3996Z" fill="#1F40E5"/>
<path d="M29.0668 29.0671C29.5454 29.0671 29.9334 28.6792 29.9334 28.2006C29.9334 27.722 29.5454 27.334 29.0668 27.334C28.5882 27.334 28.2002 27.722 28.2002 28.2006C28.2002 28.6792 28.5882 29.0671 29.0668 29.0671Z" fill="#1F40E5"/>
<path d="M26.0336 29.0671C26.5122 29.0671 26.9002 28.6792 26.9002 28.2006C26.9002 27.722 26.5122 27.334 26.0336 27.334C25.555 27.334 25.167 27.722 25.167 28.2006C25.167 28.6792 25.555 29.0671 26.0336 29.0671Z" fill="#1F40E5"/>
<path d="M22.9999 29.0671C23.4785 29.0671 23.8665 28.6792 23.8665 28.2006C23.8665 27.722 23.4785 27.334 22.9999 27.334C22.5213 27.334 22.1333 27.722 22.1333 28.2006C22.1333 28.6792 22.5213 29.0671 22.9999 29.0671Z" fill="#1F40E5"/>
<path d="M31.6667 23.8672H14.3335C13.3804 23.8672 12.6001 24.6474 12.6001 25.6006V31.6672C12.6001 32.6203 13.3804 33.4006 14.3335 33.4006H31.6667C32.6198 33.4006 33.4001 32.6203 33.4001 31.6672V25.6006C33.4001 24.6474 32.6198 23.8672 31.6667 23.8672ZM31.6667 31.6672H20.8335V27.3338H19.1001V31.6672H17.8001V27.3338H16.0667V31.6672H14.3335V25.6006H31.6667V31.6672Z" fill="#1F40E5"/>
</svg>
