<svg width="66" height="48" viewBox="0 0 66 48" fill="none" xmlns="http://www.w3.org/2000/svg">
<path opacity="0.3" fill-rule="evenodd" clip-rule="evenodd" d="M51.9298 12.7998H45.3332V27.375H43.0589C42.8695 27.375 42.6964 27.482 42.6117 27.6514L41.82 29.2347C41.6538 29.5672 41.8956 29.9583 42.2672 29.9583H45.3332V33.8333H48.8104V29.9583H55.3575C55.5469 29.9583 55.7201 29.8513 55.8048 29.6819L56.5964 28.0986C56.7627 27.7662 56.5209 27.375 56.1492 27.375H48.8104V25.1288H51.6921C52.8012 25.1288 53.8509 25.0198 54.8412 24.802C55.8315 24.5841 56.698 24.2326 57.4407 23.7473C58.1834 23.2621 58.7726 22.6234 59.2083 21.8311C59.644 21.0389 59.8619 20.0585 59.8619 18.89C59.8619 17.8007 59.6737 16.8699 59.2974 16.0974C58.9211 15.325 58.3864 14.6912 57.6932 14.1961C57 13.701 56.1682 13.3445 55.1977 13.1266C54.2272 12.9087 53.1379 12.7998 51.9298 12.7998ZM51.4247 21.9797C52.0387 21.9797 52.623 21.9351 53.1775 21.846C53.7321 21.7569 54.2272 21.5984 54.663 21.3707C55.0987 21.1429 55.4453 20.831 55.7027 20.4348C55.9602 20.0387 56.089 19.5238 56.089 18.89C56.089 18.276 55.9602 17.7759 55.7027 17.3897C55.4453 17.0035 55.1036 16.7015 54.6778 16.4836C54.252 16.2658 53.7668 16.1222 53.2221 16.0529C52.6774 15.9835 52.1179 15.9489 51.5436 15.9489H48.8104V21.9797H51.4247Z" fill="white"/>
<path d="M31.4142 13.4142C32.1953 12.6332 32.1953 11.3668 31.4142 10.5858C30.6332 9.80474 29.3668 9.80474 28.5858 10.5858L16.5858 22.5858C15.8286 23.3429 15.8021 24.5621 16.5257 25.3514L27.5257 37.3514C28.2721 38.1657 29.5372 38.2207 30.3515 37.4743C31.1657 36.7279 31.2207 35.4628 30.4743 34.6486L20.7683 24.0602L31.4142 13.4142Z" fill="white"/>
</svg>
