<svg width="48" height="48" viewBox="0 0 48 48" fill="none" xmlns="http://www.w3.org/2000/svg">
<path fill-rule="evenodd" clip-rule="evenodd" d="M34.9142 14.9142L23.8284 26L8 26C6.89543 26 6 25.1046 6 24C6 22.8954 6.89543 22 8 22L22.1716 22L32.0858 12.0858L26.8536 6.85355C26.5386 6.53857 26.7617 6 27.2071 6L39.5 6C39.7761 6 40 6.22386 40 6.5V18.7929C40 19.2383 39.4614 19.4614 39.1464 19.1464L34.9142 14.9142Z" fill="white"/>
<path opacity="0.3" fill-rule="evenodd" clip-rule="evenodd" d="M26.3262 30.2919L29.3797 27.7081L34.2894 33.5104L39.1462 28.6536C39.4612 28.3386 39.9998 28.5617 39.9998 29.0071V41.4421C39.9998 41.7183 39.7759 41.9421 39.4998 41.9421H27.0647C26.6193 41.9421 26.3962 41.4036 26.7112 41.0886L31.4511 36.3486L26.3262 30.2919Z" fill="white"/>
</svg>
