<svg width="48" height="48" viewBox="0 0 48 48" fill="none" xmlns="http://www.w3.org/2000/svg">
<path opacity="0.3" fill-rule="evenodd" clip-rule="evenodd" d="M8 8.00012L23.6314 5.06923C23.875 5.02355 24.125 5.02355 24.3686 5.06923L40 8.00012V29.9034C40 33.6961 38.0462 37.2213 34.83 39.2314L24.53 45.6689C24.2057 45.8715 23.7943 45.8715 23.47 45.6689L13.17 39.2314C9.95382 37.2213 8 33.6961 8 29.9034L8 8.00012Z" fill="white"/>
<path fill-rule="evenodd" clip-rule="evenodd" d="M23.4526 32.9633C23.4526 33.7047 24.4137 33.9966 24.826 33.3803L31.2754 23.7403C31.6088 23.242 31.2516 22.5733 30.652 22.5733H25.6035V16.4698C25.6035 15.7284 24.6424 15.4366 24.2302 16.0528L17.7808 25.6928C17.4474 26.1912 17.8046 26.8599 18.4041 26.8599H23.4526V32.9633Z" fill="white"/>
</svg>
