<svg width="48" height="48" viewBox="0 0 48 48" fill="none" xmlns="http://www.w3.org/2000/svg">
<path opacity="0.3" fill-rule="evenodd" clip-rule="evenodd" d="M40 16H36.3478C34.1387 16 32.3478 17.7909 32.3478 20V24C32.3478 25.1046 31.4524 26 30.3478 26H17.7391C16.6346 26 15.7391 25.1046 15.7391 24V20C15.7391 17.7909 13.9483 16 11.7391 16H8V12C8 8.68629 10.6863 6 14 6H34C37.3137 6 40 8.68629 40 12V16Z" fill="white"/>
<path opacity="0.3" fill-rule="evenodd" clip-rule="evenodd" d="M36.1642 42.9263C36.4404 43.4046 36.2765 44.0162 35.7982 44.2923L34.0661 45.2923C33.5879 45.5685 32.9763 45.4046 32.7001 44.9263L27.7001 36.266C27.424 35.7877 27.5879 35.1762 28.0661 34.9L29.7982 33.9C30.2765 33.6239 30.8881 33.7877 31.1642 34.266L36.1642 42.9263ZM11.8202 42.987C11.544 43.4653 11.7079 44.0769 12.1862 44.353L13.9183 45.353C14.3965 45.6291 15.0081 45.4653 15.2843 44.987L20.2843 36.3267C20.5604 35.8484 20.3965 35.2368 19.9183 34.9607L18.1862 33.9607C17.7079 33.6846 17.0963 33.8484 16.8202 34.3267L11.8202 42.987Z" fill="white"/>
<path fill-rule="evenodd" clip-rule="evenodd" d="M40 20V30C40 33.3137 37.3137 36 34 36H14C10.6863 36 8 33.3137 8 30V20H11.7391V24C11.7391 27.3137 14.4254 30 17.7391 30H30.3478C33.6615 30 36.3478 27.3137 36.3478 24V20H40Z" fill="white"/>
</svg>
