<svg width="48" height="48" viewBox="0 0 48 48" fill="none" xmlns="http://www.w3.org/2000/svg">
<path opacity="0.3" fill-rule="evenodd" clip-rule="evenodd" d="M26 31H22V42H20C17.7909 42 16 43.7909 16 46H32C32 43.7909 30.2091 42 28 42H26V31Z" fill="white"/>
<path fill-rule="evenodd" clip-rule="evenodd" d="M31.4278 4H16.5717C14.1056 4 12.0554 5.8568 11.8662 8.2614L10.9166 20.3342C10.8912 20.6581 10.8784 20.9828 10.8784 21.3077C10.8784 28.3175 16.6889 34 23.8565 34H24.1429C24.4751 34 24.8071 33.9875 25.1383 33.9626C32.2848 33.425 37.6325 27.3234 37.0828 20.3342L36.1332 8.2614C35.9441 5.8568 33.8938 4 31.4278 4ZM14.9998 16L15.9998 8H31.9998C31.9998 8 32.8124 13.6184 32.9998 16H14.9998Z" fill="white"/>
</svg>
