<svg width="37" height="35" viewBox="0 0 37 35" fill="none" xmlns="http://www.w3.org/2000/svg">
<path d="M35.5865 0H1.41351L0 8.2957C0.0565403 10.3457 1.65098 12 3.60727 12C5.59749 12 7.21455 10.2857 7.21455 8.17582H9.92848C9.92848 10.2857 11.5455 12 13.5358 12C15.526 12 17.143 10.2857 17.143 8.17582H19.857C19.857 10.2857 21.474 12 23.4642 12C25.4545 12 27.0715 10.2857 27.0715 8.17582H29.7854C29.7854 10.2857 31.4025 12 33.3927 12C35.349 12 36.9435 10.3457 37 8.2957L35.5865 0Z" fill="white"/>
<path opacity="0.3" fill-rule="evenodd" clip-rule="evenodd" d="M3.65723 3H33.8287V35H31.0858V20.3714H21.0287V35H3.65723V3ZM6.40008 20.3714H16.4572V28.6H6.40008V20.3714Z" fill="white"/>
</svg>
