<svg width="46" height="46" viewBox="0 0 46 46" fill="none" xmlns="http://www.w3.org/2000/svg">
<circle r="22.5" transform="matrix(-1 0 0 1 23 23)" fill="white" stroke="#BDE3FE"/>
<path d="M31.6662 22.9993H29.933V16.933C29.933 16.4548 29.5454 16.0664 29.0662 16.0664C28.588 16.0664 28.1996 16.4548 28.1996 16.933V22.9993H17.7996V16.933C17.7996 16.4548 17.4119 16.0664 16.933 16.0664C16.4546 16.0664 16.0662 16.4548 16.0662 16.933V22.9993H14.333C13.3799 22.9993 12.5996 23.7796 12.5996 24.7327V29.9327C12.5996 30.8856 13.3799 31.6659 14.333 31.6659V33.3993H16.0662V31.6659H29.933V33.3993H31.6662V31.6659C32.6193 31.6659 33.3996 30.8856 33.3996 29.9327V24.7327C33.3996 23.7796 32.6193 22.9993 31.6662 22.9993ZM31.6662 29.9327H14.333V24.7327H31.6662V29.9327Z" fill="#1F40E5"/>
<path d="M17.7998 26.4668H16.0664V28.2002H17.7998V26.4668Z" fill="#1F40E5"/>
<path d="M29.9332 26.4668H19.5332V28.2002H29.9332V26.4668Z" fill="#1F40E5"/>
<path d="M24.7334 14.3932L25.9588 15.6162C27.6719 13.9041 30.4599 13.9041 32.1743 15.617L33.4 14.395C31.0056 12.0014 27.1259 12.0014 24.7334 14.3932Z" fill="#1F40E5"/>
<path d="M12.5996 14.3932L13.8252 15.6162C15.5381 13.9041 18.3261 13.9041 20.0408 15.617L21.2662 14.395C18.8718 12.0014 14.9921 12.0014 12.5996 14.3932Z" fill="#1F40E5"/>
</svg>
