<svg width="46" height="46" viewBox="0 0 46 46" fill="none" xmlns="http://www.w3.org/2000/svg">
<circle r="22.5" transform="matrix(-1 0 0 1 23 23)" fill="white" stroke="#BDE3FE"/>
<path d="M22.9996 12.5996C17.2554 12.5996 12.5996 17.2554 12.5996 22.9996C12.5996 28.744 17.2554 33.3996 22.9996 33.3996H23.8662V27.2459C25.844 26.8437 27.333 25.096 27.333 22.9996V20.3996H25.5996V17.7996C25.5996 17.3207 25.2119 16.933 24.733 16.933C24.2538 16.933 23.8662 17.3207 23.8662 17.7996V20.3996H22.133V17.7996C22.133 17.3207 21.7454 16.933 21.2662 16.933C20.7873 16.933 20.3996 17.3207 20.3996 17.7996V20.3996H18.6662V22.9996C18.6662 25.096 20.1552 26.8437 22.133 27.2459V31.6222C17.7538 31.187 14.333 27.4937 14.333 22.9996C14.333 18.2125 18.2127 14.333 22.9996 14.333C27.7839 14.333 31.6662 18.2127 31.6662 22.9996C31.6662 26.6113 29.4546 29.7027 26.3149 31.0053L26.9724 32.5923C30.7411 31.0318 33.3996 27.3338 33.3996 22.9996C33.3996 17.2554 28.7412 12.5996 22.9996 12.5996ZM20.3996 22.9996V22.133H25.5996V22.9996C25.5996 24.4332 24.4335 25.5996 22.9996 25.5996C21.5657 25.5996 20.3996 24.4332 20.3996 22.9996Z" fill="#1F40E5"/>
</svg>
