<svg width="80" height="81" viewBox="0 0 80 81" fill="none" xmlns="http://www.w3.org/2000/svg">
<path opacity="0.3" fill-rule="evenodd" clip-rule="evenodd" d="M10 9.53174C10 8.42717 10.8954 7.53174 12 7.53174H68C69.1046 7.53174 70 8.42717 70 9.53174V25.5317C70 26.6363 69.1046 27.5317 68 27.5317H12C10.8954 27.5317 10 26.6363 10 25.5317V9.53174ZM33.3335 15.1984C33.3335 14.6461 33.7812 14.1984 34.3335 14.1984H55.6668C56.2191 14.1984 56.6668 14.6461 56.6668 15.1984V19.865C56.6668 20.4173 56.2191 20.865 55.6668 20.865H34.3335C33.7812 20.865 33.3335 20.4173 33.3335 19.865V15.1984ZM26.6667 17.5317C26.6667 19.3727 25.1743 20.865 23.3333 20.865C21.4924 20.865 20 19.3727 20 17.5317C20 15.6908 21.4924 14.1984 23.3333 14.1984C25.1743 14.1984 26.6667 15.6908 26.6667 17.5317Z" fill="#1F40E5"/>
<path fill-rule="evenodd" clip-rule="evenodd" d="M10 32.8652C10 31.7607 10.8954 30.8652 12 30.8652H68C69.1046 30.8652 70 31.7607 70 32.8652V48.8652C70 49.9698 69.1046 50.8652 68 50.8652H12C10.8954 50.8652 10 49.9698 10 48.8652V32.8652ZM33.3335 38.5319C33.3335 37.9796 33.7812 37.5319 34.3335 37.5319H55.6668C56.2191 37.5319 56.6668 37.9796 56.6668 38.5319V43.1985C56.6668 43.7508 56.2191 44.1985 55.6668 44.1985H34.3335C33.7812 44.1985 33.3335 43.7508 33.3335 43.1985V38.5319ZM26.6667 40.8652C26.6667 42.7062 25.1743 44.1985 23.3333 44.1985C21.4924 44.1985 20 42.7062 20 40.8652C20 39.0243 21.4924 37.5319 23.3333 37.5319C25.1743 37.5319 26.6667 39.0243 26.6667 40.8652Z" fill="#1F40E5"/>
<path fill-rule="evenodd" clip-rule="evenodd" d="M10 56.1987C10 55.0942 10.8954 54.1987 12 54.1987H68C69.1046 54.1987 70 55.0942 70 56.1987V72.1987C70 73.3033 69.1046 74.1987 68 74.1987H12C10.8954 74.1987 10 73.3033 10 72.1987V56.1987ZM33.3335 61.8654C33.3335 61.3131 33.7812 60.8654 34.3335 60.8654H55.6668C56.2191 60.8654 56.6668 61.3131 56.6668 61.8654V66.532C56.6668 67.0843 56.2191 67.532 55.6668 67.532H34.3335C33.7812 67.532 33.3335 67.0843 33.3335 66.532V61.8654ZM26.6667 64.1987C26.6667 66.0396 25.1743 67.532 23.3333 67.532C21.4924 67.532 20 66.0396 20 64.1987C20 62.3577 21.4924 60.8654 23.3333 60.8654C25.1743 60.8654 26.6667 62.3577 26.6667 64.1987Z" fill="#1F40E5"/>
</svg>
