<svg width="46" height="46" viewBox="0 0 46 46" fill="none" xmlns="http://www.w3.org/2000/svg">
<circle r="22.5" transform="matrix(-1 0 0 1 23 23)" fill="white" stroke="#BDE3FE"/>
<path d="M32.1666 9.78906H13.8334C12.8253 9.78906 12 10.7038 12 11.8212V28.0778C12 29.195 12.8253 30.11 13.8334 30.11H22.0834V32.1419H19.3334C18.3209 32.1419 17.5 33.0518 17.5 34.1741L28.5 34.1732C28.5 33.0508 27.6791 32.141 26.6666 32.141H23.9166V30.11H32.1666C33.1747 30.11 34 29.195 34 28.0778V11.8212C34 10.7038 33.1747 9.78906 32.1666 9.78906ZM32.1666 28.0778H13.8334V11.8212H32.1666V28.0778Z" fill="#1F40E5"/>
<path d="M28.5 20.9655V18.9334H26.5368C26.4507 18.5643 26.3184 18.218 26.1482 17.8976L27.5378 16.3578L26.2406 14.9212L24.851 16.4602C24.562 16.2706 24.2493 16.1249 23.9166 16.0295V13.8535H22.0834V16.0295C21.7504 16.1249 21.4369 16.2706 21.149 16.4602L19.7594 14.9212L18.4633 16.3578L19.8518 17.8976C19.6807 18.2171 19.549 18.5643 19.4632 18.9334H17.5V20.9655H19.4632C19.5493 21.3346 19.6807 21.6809 19.8518 22.0012L18.4633 23.5411L19.7594 24.9788L21.149 23.4387C21.438 23.6286 21.7507 23.7746 22.0834 23.8697V26.0457H23.9166V23.8697C24.2496 23.7743 24.5623 23.6286 24.851 23.4387L26.2406 24.9788L27.5378 23.5411L26.1482 22.0012C26.3193 21.6809 26.451 21.3343 26.5368 20.9655H28.5ZM23 21.9814C21.9875 21.9814 21.1666 21.0716 21.1666 19.9493C21.1666 18.827 21.9875 17.9172 23 17.9172C24.0126 17.9172 24.8334 18.827 24.8334 19.9493C24.8334 21.0716 24.0126 21.9814 23 21.9814Z" fill="#1F40E5"/>
</svg>
