<svg width="46" height="46" viewBox="0 0 46 46" fill="none" xmlns="http://www.w3.org/2000/svg">
<circle r="22.5" transform="matrix(-1 0 0 1 23 23)" fill="white" stroke="#BDE3FE"/>
<path d="M31.6667 22.9993H29.9335V16.933C29.9335 16.4548 29.5459 16.0664 29.0667 16.0664C28.5885 16.0664 28.2001 16.4548 28.2001 16.933V22.9993H17.8001V16.933C17.8001 16.4548 17.4124 16.0664 16.9335 16.0664C16.4551 16.0664 16.0667 16.4548 16.0667 16.933V22.9993H14.3335C13.3804 22.9993 12.6001 23.7796 12.6001 24.7327V29.9327C12.6001 30.8856 13.3804 31.6659 14.3335 31.6659V33.3993H16.0667V31.6659H29.9335V33.3993H31.6667V31.6659C32.6198 31.6659 33.4001 30.8856 33.4001 29.9327V24.7327C33.4001 23.7796 32.6198 22.9993 31.6667 22.9993ZM31.6667 29.9327H14.3335V24.7327H31.6667V29.9327Z" fill="#1F40E5"/>
<path d="M17.7998 26.4668H16.0664V28.2002H17.7998V26.4668Z" fill="#1F40E5"/>
<path d="M29.9332 26.4668H19.5332V28.2002H29.9332V26.4668Z" fill="#1F40E5"/>
<path d="M24.7334 14.3932L25.9588 15.6162C27.6719 13.9041 30.4599 13.9041 32.1743 15.617L33.4 14.395C31.0056 12.0014 27.1259 12.0014 24.7334 14.3932Z" fill="#1F40E5"/>
<path d="M12.6001 14.3932L13.8257 15.6162C15.5386 13.9041 18.3266 13.9041 20.0413 15.617L21.2667 14.395C18.8723 12.0014 14.9926 12.0014 12.6001 14.3932Z" fill="#1F40E5"/>
</svg>
