<svg width="46" height="41" viewBox="0 0 46 41" fill="none" xmlns="http://www.w3.org/2000/svg">
<g clip-path="url(#clip0)">
<path d="M42.0029 25.3697L40.2128 1.622C40.1465 0.731978 39.467 0 38.7128 0H38.0415H36.9725H36.3012C35.5471 0 34.8675 0.731978 34.8012 1.622L33.0112 25.3697C32.9449 26.2597 33.5084 26.9917 34.2625 26.9917H36.0029C36.757 26.9917 37.4366 26.2597 37.5029 25.3697V25.3447V25.3697C37.5692 26.2597 38.2487 26.9917 39.0029 26.9917H40.7432C41.5056 27 42.0692 26.268 42.0029 25.3697Z" fill="#1F40E5"/>
</g>
<g clip-path="url(#clip1)">
<path d="M27.0029 25.3697L25.2128 1.622C25.1465 0.731978 24.467 0 23.7128 0H23.0415H21.9725H21.3012C20.5471 0 19.8675 0.731978 19.8012 1.622L18.0112 25.3697C17.9449 26.2597 18.5084 26.9917 19.2625 26.9917H21.0029C21.757 26.9917 22.4366 26.2597 22.5029 25.3697V25.3447V25.3697C22.5692 26.2597 23.2487 26.9917 24.0029 26.9917H25.7432C26.5056 27 27.0692 26.268 27.0029 25.3697Z" fill="#1F40E5"/>
</g>
<g clip-path="url(#clip2)">
<path d="M43.93 20.9689H31.05V18.8781V12.4578C31.05 11.3068 30.1195 10.7155 28.98 11.1379L16.8214 15.6891C16.6436 15.7525 16.4764 15.8369 16.3195 15.9425V12.4578C16.3195 11.3068 15.3891 10.7155 14.2495 11.1379L2.07 15.6891C0.930454 16.1115 0 17.3998 0 18.5613V18.8781V38.1284V38.9098C0 40.0608 0.930454 41.0006 2.07 41.0006H8.47864H14.2391H16.8214H28.98H43.93C45.0695 41.0006 46 40.0608 46 38.9098V23.0597C46 21.9087 45.0695 20.9689 43.93 20.9689Z" fill="#AFC0F7"/>
<rect x="6" y="25" width="27" height="3" rx="1" fill="#ECF7FF"/>
<rect x="6" y="31" width="27" height="3" rx="1" fill="#ECF7FF"/>
</g>
<defs>
<clipPath id="clip0">
<rect width="9" height="27" fill="white" transform="translate(33)"/>
</clipPath>
<clipPath id="clip1">
<rect width="9" height="27" fill="white" transform="translate(18)"/>
</clipPath>
<clipPath id="clip2">
<rect width="46" height="30" fill="white" transform="translate(0 11)"/>
</clipPath>
</defs>
</svg>
