<svg width="48" height="49" viewBox="0 0 48 49" fill="none" xmlns="http://www.w3.org/2000/svg">
<path opacity="0.3" fill-rule="evenodd" clip-rule="evenodd" d="M8 8.50012L23.6314 5.56923C23.875 5.52355 24.125 5.52355 24.3686 5.56923L40 8.50012V30.4034C40 34.1961 38.0462 37.7213 34.83 39.7314L24.53 46.1689C24.2057 46.3715 23.7943 46.3715 23.47 46.1689L13.17 39.7314C9.95382 37.7213 8 34.1961 8 30.4034L8 8.50012Z" fill="#1F40E5"/>
<path fill-rule="evenodd" clip-rule="evenodd" d="M24.654 15.3708H19.3342V27.125H17.5599C17.3705 27.125 17.1974 27.232 17.1127 27.4014L16.571 28.4848C16.4048 28.8172 16.6465 29.2084 17.0182 29.2084H19.3342V32.3333H22.1384V29.2084H27.3585C27.5479 29.2084 27.721 29.1014 27.8057 28.932L28.3474 27.8486C28.5136 27.5162 28.2719 27.125 27.9002 27.125H22.1384V25.3136H24.4623C25.3568 25.3136 26.2033 25.2257 27.0019 25.05C27.8005 24.8743 28.4993 24.5908 29.0983 24.1995C29.6972 23.8082 30.1724 23.2931 30.5238 22.6542C30.8752 22.0153 31.0509 21.2247 31.0509 20.2823C31.0509 19.4038 30.8991 18.6531 30.5957 18.0302C30.2922 17.4073 29.8609 16.8962 29.3019 16.4969C28.7429 16.0976 28.0721 15.8101 27.2894 15.6344C26.5068 15.4587 25.6283 15.3708 24.654 15.3708ZM24.2467 22.774C24.7419 22.774 25.213 22.738 25.6603 22.6662C26.1075 22.5943 26.5068 22.4665 26.8582 22.2828C27.2096 22.0991 27.4891 21.8476 27.6967 21.5281C27.9044 21.2087 28.0082 20.7934 28.0082 20.2823C28.0082 19.7872 27.9044 19.3839 27.6967 19.0724C27.4891 18.7609 27.2136 18.5174 26.8702 18.3417C26.5267 18.166 26.1354 18.0502 25.6962 17.9943C25.257 17.9384 24.8057 17.9104 24.3426 17.9104H22.1384V22.774H24.2467Z" fill="#1F40E5"/>
</svg>
