<svg width="48" height="48" viewBox="0 0 48 48" fill="none" xmlns="http://www.w3.org/2000/svg">
<path d="M9.01536 7H39.1666C40.8246 7 42.1819 8.35727 42.1819 10.0153V37.1517C42.1819 38.8097 40.8246 40.1665 39.1666 40.1665H9.01536C7.35733 40.1665 6.00006 38.8097 6.00006 37.1517V10.0153C6.00006 8.35727 7.35733 7 9.01536 7ZM9.01536 10.0153V13.032H39.1666V10.0153H9.01536ZM39.1666 37.1517V16.0441H9.01536V37.1517H39.1666Z" fill="#1F40E5"/>
<path opacity="0.3" d="M21.2094 22.5525L18.7033 20.3427C20.3274 19.5291 22.1515 19.0605 24.0904 19.0605C30.751 19.0605 36.1511 24.4602 36.1511 31.1209H33.1358C33.1358 26.1255 29.0857 22.0754 24.0904 22.0754C23.0822 22.0758 22.1148 22.2477 21.2094 22.5525Z" fill="#1F40E5"/>
<path opacity="0.3" d="M15.521 28.2417C15.2175 29.1472 15.0452 30.1137 15.0452 31.1213H12.0299C12.0299 29.1842 12.498 27.3584 13.3107 25.7366L15.521 28.2417Z" fill="#1F40E5"/>
<path opacity="0.3" d="M15.0292 23.1271L16.0952 22.0615L23.1384 28.2739C23.4405 28.174 23.7553 28.1062 24.0909 28.1062C25.7562 28.1062 27.1062 29.4548 27.1062 31.121C27.1062 32.7881 25.7562 34.1368 24.0909 34.1368C22.4256 34.1368 21.0756 32.7881 21.0756 31.121C21.0756 30.7854 21.1434 30.4706 21.2434 30.169L15.0292 23.1271Z" fill="#1F40E5"/>
</svg>
