<svg width="48" height="48" viewBox="0 0 48 48" fill="none" xmlns="http://www.w3.org/2000/svg">
<path d="M40.0022 23.9993C38.8195 23.9993 37.7986 24.6477 37.2446 25.5991H24V28.8007H37.2446C37.7986 29.7521 38.8195 30.3991 40.0022 30.3991C41.7672 30.3991 43.2 28.9692 43.2 27.1994C43.2 25.433 41.7672 23.9993 40.0022 23.9993Z" fill="#1F40E5"/>
<path d="M40.0022 11.1992C38.8195 11.1992 37.7986 11.8477 37.2446 12.7995H24V15.9987H37.2446C37.7986 16.952 38.8195 17.5991 40.0022 17.5991C41.7672 17.5991 43.2 16.1677 43.2 14.3999C43.2 12.6335 41.7672 11.1992 40.0022 11.1992Z" fill="#1F40E5"/>
<path opacity="0.3" d="M20.7995 25.5994H11.2V28.801H20.7995V25.5994Z" fill="#1F40E5"/>
<path d="M20.7995 31.9995H11.2V35.2002H20.7995V31.9995Z" fill="#1F40E5"/>
<path d="M20.7995 19.2H11.2V22.4006H20.7995V19.2Z" fill="#1F40E5"/>
<path opacity="0.3" d="M20.7995 12.7998H11.2V15.999H20.7995V12.7998Z" fill="#1F40E5"/>
<path opacity="0.3" d="M30.4013 30.3994C29.2186 30.3994 28.199 31.0493 27.6437 31.9997H24V35.2004H27.6437C28.199 36.1537 29.2186 36.8007 30.4013 36.8007C32.1677 36.8007 33.601 35.3693 33.601 33.6001C33.601 31.8337 32.1677 30.3994 30.4013 30.3994Z" fill="#1F40E5"/>
<path opacity="0.3" d="M33.6019 17.5991C32.4192 17.5991 31.3982 18.2476 30.8443 19.1994H24V22.4001H30.8443C31.3982 23.3519 32.4192 23.999 33.6019 23.999C35.3674 23.999 36.8002 22.569 36.8002 20.7998C36.8002 19.0338 35.3674 17.5991 33.6019 17.5991Z" fill="#1F40E5"/>
<path d="M27.2004 9.59885C27.2004 7.83101 25.7676 6.39917 23.9998 6.39917H7.999C6.2326 6.39917 4.7998 7.83197 4.7998 9.59885V38.3998C4.7998 40.1691 6.2326 41.6004 7.999 41.6004H23.9998C25.7676 41.6004 27.2004 40.1691 27.2004 38.3998H7.999V9.59885H27.2004Z" fill="#1F40E5"/>
</svg>
