<svg width="48" height="48" viewBox="0 0 48 48" fill="none" xmlns="http://www.w3.org/2000/svg">
<path d="M40.6813 34.3184L31.6724 25.3072C32.5152 23.5459 32.9999 21.5812 32.9999 19.4999C32.9999 12.0439 26.956 6 19.4999 6C12.0439 6 6 12.0439 6 19.4999C6 26.9555 12.0439 32.9999 19.4999 32.9999C21.583 32.9999 23.5459 32.5139 25.3081 31.6728L34.3184 40.6813C36.0747 42.439 38.925 42.439 40.6818 40.6813C42.4395 38.9236 42.4395 36.0734 40.6813 34.3184ZM9.00014 19.4999C9.00014 13.7008 13.7004 9.00014 19.4999 9.00014C25.2995 9.00014 29.9997 13.7008 29.9997 19.4999C29.9997 22.3588 28.8545 24.9472 27.0001 26.8412V15H23.9999V28.9764C23.0671 29.4201 22.0604 29.7288 20.9998 29.8818V11.9998H18.0001V29.8814C16.9394 29.7284 15.9328 29.4201 15 28.976V18.0001H11.9998V26.8417C10.1454 24.9472 9.00014 22.3588 9.00014 19.4999ZM38.5601 38.5605C37.9755 39.146 37.0238 39.146 36.4392 38.5605L27.9207 30.0402C28.7028 29.4134 29.4147 28.7015 30.042 27.9194L38.5601 36.4388C39.1464 37.0224 39.1464 37.9746 38.5601 38.5605Z" fill="#1F40E5"/>
<path d="M12.0002 17.9998H15.0002V28.9998L12.0002 26.9998V17.9998Z" fill="#AAB4E6"/>
<rect x="17.9998" y="12.0002" width="3" height="18" fill="#AAB4E6"/>
<path d="M24 15H27V27L24 29V15Z" fill="#AAB4E6"/>
</svg>
