<svg width="48" height="48" viewBox="0 0 48 48" fill="none" xmlns="http://www.w3.org/2000/svg">
<path opacity="0.3" fill-rule="evenodd" clip-rule="evenodd" d="M36.9998 16C39.7612 16 41.9998 13.7614 41.9998 11C41.9998 8.23858 39.7612 6 36.9998 6C34.2384 6 31.9998 8.23858 31.9998 11C31.9998 13.7614 34.2384 16 36.9998 16ZM36.9998 42C39.7612 42 41.9998 39.7614 41.9998 37C41.9998 34.2386 39.7612 32 36.9998 32C34.2384 32 31.9998 34.2386 31.9998 37C31.9998 39.7614 34.2384 42 36.9998 42ZM16 37C16 39.7614 13.7614 42 11 42C8.23858 42 6 39.7614 6 37C6 34.2386 8.23858 32 11 32C13.7614 32 16 34.2386 16 37Z" fill="#1F40E5"/>
<path fill-rule="evenodd" clip-rule="evenodd" d="M11 16C13.7614 16 16 13.7614 16 11C16 8.23858 13.7614 6 11 6C8.23858 6 6 8.23858 6 11C6 13.7614 8.23858 16 11 16ZM20.0001 8.99995C20.0001 8.44767 20.4478 7.99995 21.0001 7.99995H27.0001C27.5524 7.99995 28.0001 8.44767 28.0001 8.99995V11C28.0001 11.5522 27.5524 12 27.0001 12H21.0001C20.4478 12 20.0001 11.5522 20.0001 11V8.99995ZM21.0001 35.9999C20.4478 35.9999 20.0001 36.4476 20.0001 36.9999V38.9999C20.0001 39.5522 20.4478 39.9999 21.0001 39.9999H27.0001C27.5524 39.9999 28.0001 39.5522 28.0001 38.9999V36.9999C28.0001 36.4476 27.5524 35.9999 27.0001 35.9999H21.0001ZM7.99995 21.0001C7.99995 20.4478 8.44767 20.0001 8.99995 20.0001H11C11.5522 20.0001 12 20.4478 12 21.0001V27.0001C12 27.5524 11.5522 28.0001 11 28.0001H8.99995C8.44767 28.0001 7.99995 27.5524 7.99995 27.0001V21.0001ZM37.0001 20.0001C36.4479 20.0001 36.0001 20.4478 36.0001 21.0001V27.0001C36.0001 27.5524 36.4479 28.0001 37.0001 28.0001H39.0001C39.5524 28.0001 40.0001 27.5524 40.0001 27.0001V21.0001C40.0001 20.4478 39.5524 20.0001 39.0001 20.0001H37.0001Z" fill="#1F40E5"/>
</svg>
