<svg width="46" height="46" viewBox="0 0 46 46" fill="none" xmlns="http://www.w3.org/2000/svg">
<rect width="46" height="46" fill="white"/>
<circle r="22.5" transform="matrix(-1 0 0 1 23 23)" fill="white" stroke="#BDE3FE"/>
<path fill-rule="evenodd" clip-rule="evenodd" d="M22.9167 28.3333C22.3645 28.3333 21.9167 28.781 21.9167 29.3333V32.6666H19.1667C18.8906 32.6666 18.6667 32.8905 18.6667 33.1666V33.25C18.6667 33.5261 18.8906 33.75 19.1667 33.75H22.9167H23.0834H26.8334C27.1096 33.75 27.3334 33.5261 27.3334 33.25V33.1666C27.3334 32.8905 27.1096 32.6666 26.8334 32.6666H24.0834V29.3333C24.0834 28.781 23.6357 28.3333 23.0834 28.3333H22.9167Z" fill="#1F40E5"/>
<path d="M13.1667 16.4167V16.4167V14.4167C12.0622 14.4167 11.1667 15.3121 11.1667 16.4167H13.1667ZM13.1667 16.4167H32.8334V14.4167H13.1667V16.4167ZM32.8334 16.4167H32.8334H34.8334C34.8334 15.3121 33.938 14.4167 32.8334 14.4167V16.4167ZM32.8334 16.4167V27.4167H34.8334V16.4167H32.8334ZM32.8334 27.4167V29.4167C33.938 29.4167 34.8334 28.5213 34.8334 27.4167H32.8334ZM32.8334 27.4167H13.1667V29.4167H32.8334V27.4167ZM13.1667 27.4167H13.1667H11.1667C11.1667 28.5213 12.0622 29.4167 13.1667 29.4167V27.4167ZM13.1667 27.4167V16.4167H11.1667V27.4167H13.1667Z" fill="#1F40E5"/>
<rect x="14.3335" y="18.6667" width="10.8333" height="1.08333" rx="0.541667" fill="#1F40E5"/>
<rect x="14.3335" y="20.8334" width="4.33333" height="1.08333" rx="0.541667" fill="#1F40E5"/>
</svg>
