<svg width="46" height="46" viewBox="0 0 46 46" fill="none" xmlns="http://www.w3.org/2000/svg">
<rect width="46" height="46" fill="white"/>
<circle r="22.5" transform="matrix(-1 0 0 1 23 23)" fill="white" stroke="#BDE3FE"/>
<path d="M31.2335 28.0666C30.3456 28.0666 29.5846 28.6016 29.2495 29.3666H28.2001V25.4666H29.9335C31.8479 25.4666 33.4001 23.9144 33.4001 22C33.4001 20.0856 31.8479 18.5334 29.9335 18.5334C29.9335 16.8182 28.6868 15.4046 27.0525 15.1243C26.3549 13.076 24.4194 11.6 22.1335 11.6C19.2608 11.6 16.9335 13.9275 16.9335 16.8C14.54 16.8 12.6001 18.7398 12.6001 21.1334C12.6001 23.527 14.54 25.4668 16.9335 25.4668H17.8001V29.3668H16.7507C16.4156 28.6019 15.6538 28.0668 14.7667 28.0668C13.5699 28.0668 12.6001 29.0366 12.6001 30.2337C12.6001 31.4302 13.5699 32.4 14.7667 32.4C15.6538 32.4 16.4156 31.8641 16.7507 31.1H17.8001C18.7574 31.1 19.5335 30.3239 19.5335 29.3666V25.4666H22.1335V28.2493C21.3694 28.5845 20.8335 29.3455 20.8335 30.2334C20.8335 31.4302 21.8041 32.4 23.0001 32.4C24.1969 32.4 25.1667 31.4302 25.1667 30.2334C25.1667 29.3455 24.6319 28.5837 23.8667 28.2493V25.4666H26.4667V29.3666C26.4667 30.3239 27.2428 31.1 28.2001 31.1H29.2495C29.5846 31.8641 30.3456 32.4 31.2335 32.4C32.4303 32.4 33.4001 31.4302 33.4001 30.2334C33.4001 29.0364 32.4303 28.0666 31.2335 28.0666ZM14.3335 21.1334C14.3335 19.6964 15.4981 18.5334 16.9335 18.5334H18.6667V16.8C18.6667 14.8846 20.2191 13.3334 22.1335 13.3334C24.0479 13.3334 25.6001 14.8846 25.6001 16.8H26.4677C27.425 16.8 28.2001 17.5748 28.2001 18.5334V20.2668H29.9335C30.8908 20.2668 31.6667 21.0419 31.6667 22.0002C31.6667 22.9565 30.8908 23.7337 29.9335 23.7337H16.9335C15.4981 23.7334 14.3335 22.5689 14.3335 21.1334Z" fill="#1F40E5"/>
</svg>
