<svg width="46" height="46" viewBox="0 0 46 46" fill="none" xmlns="http://www.w3.org/2000/svg">
<circle r="22.5" transform="matrix(-1 0 0 1 23 23)" fill="white" stroke="#BDE3FE"/>
<path d="M22.9996 12.6001C17.2554 12.6001 12.5996 17.2559 12.5996 23.0001C12.5996 28.7445 17.2554 33.4001 22.9996 33.4001H23.8662V27.2464C25.844 26.8442 27.333 25.0965 27.333 23.0001V20.4001H25.5996V17.8001C25.5996 17.3212 25.2119 16.9335 24.733 16.9335C24.2538 16.9335 23.8662 17.3212 23.8662 17.8001V20.4001H22.133V17.8001C22.133 17.3212 21.7454 16.9335 21.2662 16.9335C20.7873 16.9335 20.3996 17.3212 20.3996 17.8001V20.4001H18.6662V23.0001C18.6662 25.0965 20.1552 26.8442 22.133 27.2464V31.6227C17.7538 31.1875 14.333 27.4942 14.333 23.0001C14.333 18.213 18.2127 14.3335 22.9996 14.3335C27.7839 14.3335 31.6662 18.2132 31.6662 23.0001C31.6662 26.6118 29.4546 29.7032 26.3149 31.0058L26.9724 32.5928C30.7411 31.0323 33.3996 27.3343 33.3996 23.0001C33.3996 17.2559 28.7412 12.6001 22.9996 12.6001ZM20.3996 23.0001V22.1335H25.5996V23.0001C25.5996 24.4337 24.4335 25.6001 22.9996 25.6001C21.5657 25.6001 20.3996 24.4337 20.3996 23.0001Z" fill="#1F40E5"/>
</svg>
