<svg width="46" height="46" viewBox="0 0 46 46" fill="none" xmlns="http://www.w3.org/2000/svg">
<circle r="22.5" transform="matrix(-1 0 0 1 23 23)" fill="white" stroke="#BDE3FE"/>
<path d="M28.4171 30.933L26.684 28.333L24.9506 30.933H25.8933C25.5187 32.1833 24.3734 33.0998 23.0006 33.0998C22.2609 33.0998 21.5932 32.8245 21.0667 32.3854L20.3457 33.468C21.081 34.0423 21.9951 34.3998 23.0006 34.3998C25.0969 34.3998 26.8447 32.9108 27.2466 30.933H28.4171Z" fill="#1F40E5"/>
<path d="M23.0006 25.7329C20.9042 25.7329 19.1565 27.2219 18.7545 29.1997H17.584L19.3171 31.7997L21.0506 29.1997H20.1078C20.4825 27.9494 21.6288 27.0329 23.0006 27.0329C23.7403 27.0329 24.4079 27.3083 24.9344 27.7474L25.6554 26.6647C24.9209 26.0901 24.0068 25.7329 23.0006 25.7329Z" fill="#1F40E5"/>
<path d="M23.0006 13.6001C18.2145 13.6001 14.334 15.1523 14.334 17.0667V25.7333C14.334 26.787 15.5128 27.729 17.3671 28.3647V26.5255C16.6732 26.2395 16.2348 25.9452 16.0671 25.7333V23.4736C17.6482 24.3183 20.1611 24.8667 23.0006 24.8667C25.8411 24.8667 28.3529 24.3183 29.934 23.4736V25.7333C29.7663 25.9449 29.3279 26.2395 28.634 26.5255V28.3647C30.4883 27.729 31.6671 26.787 31.6671 25.7333V17.0667C31.6671 15.1523 27.7874 13.6001 23.0006 13.6001ZM29.934 21.4001C29.4852 21.9672 27.0953 23.1333 23.0006 23.1333C18.9058 23.1333 16.5167 21.9672 16.0671 21.4001V19.1404C17.6482 19.9849 20.1611 20.5333 23.0006 20.5333C25.8411 20.5333 28.3529 19.9849 29.934 19.1404V21.4001ZM23.0006 18.8001C18.9058 18.8001 16.5167 17.6337 16.0671 17.0667C16.5167 16.4996 18.9058 15.3333 23.0006 15.3333C27.0953 15.3333 29.4852 16.4996 29.934 17.0667C29.4852 17.6337 27.0953 18.8001 23.0006 18.8001Z" fill="#1F40E5"/>
</svg>
