<svg width="46" height="46" viewBox="0 0 46 46" fill="none" xmlns="http://www.w3.org/2000/svg">
<circle r="22.5" transform="matrix(-1 0 0 1 23 23)" fill="white" stroke="#BDE3FE"/>
<path d="M31.233 28.0667C30.3451 28.0667 29.5841 28.6018 29.249 29.3667H28.1996V25.4667H29.933C31.8474 25.4667 33.3996 23.9145 33.3996 22.0001C33.3996 20.0857 31.8474 18.5335 29.933 18.5335C29.933 16.8183 28.6863 15.4047 27.052 15.1244C26.3544 13.0761 24.4189 11.6001 22.133 11.6001C19.2603 11.6001 16.933 13.9276 16.933 16.8001C14.5395 16.8001 12.5996 18.74 12.5996 21.1335C12.5996 23.5271 14.5395 25.4669 16.933 25.4669H17.7996V29.3669H16.7502C16.4151 28.602 15.6533 28.0669 14.7662 28.0669C13.5694 28.0669 12.5996 29.0367 12.5996 30.2338C12.5996 31.4303 13.5694 32.4001 14.7662 32.4001C15.6533 32.4001 16.4151 31.8642 16.7502 31.1001H17.7996C18.7569 31.1001 19.533 30.324 19.533 29.3667V25.4667H22.133V28.2495C21.3689 28.5846 20.833 29.3456 20.833 30.2335C20.833 31.4303 21.8036 32.4001 22.9996 32.4001C24.1964 32.4001 25.1662 31.4303 25.1662 30.2335C25.1662 29.3456 24.6314 28.5838 23.8662 28.2495V25.4667H26.4662V29.3667C26.4662 30.324 27.2423 31.1001 28.1996 31.1001H29.249C29.5841 31.8642 30.3451 32.4001 31.233 32.4001C32.4298 32.4001 33.3996 31.4303 33.3996 30.2335C33.3996 29.0365 32.4298 28.0667 31.233 28.0667ZM14.333 21.1335C14.333 19.6965 15.4976 18.5335 16.933 18.5335H18.6662V16.8001C18.6662 14.8847 20.2186 13.3335 22.133 13.3335C24.0474 13.3335 25.5996 14.8847 25.5996 16.8001H26.4672C27.4245 16.8001 28.1996 17.5749 28.1996 18.5335V20.2669H29.933C30.8903 20.2669 31.6662 21.042 31.6662 22.0004C31.6662 22.9566 30.8903 23.7338 29.933 23.7338H16.933C15.4976 23.7335 14.333 22.569 14.333 21.1335Z" fill="#1F40E5"/>
</svg>
