<svg width="46" height="46" viewBox="0 0 46 46" fill="none" xmlns="http://www.w3.org/2000/svg">
<circle r="22.5" transform="matrix(-1 0 0 1 23 23)" fill="white" stroke="#BDE3FE"/>
<path d="M31.6662 13.4666H14.333C13.3799 13.4666 12.5996 14.2468 12.5996 15.2V30.8C12.5996 31.7531 13.3799 32.5331 14.333 32.5331H31.6662C32.6193 32.5331 33.3996 31.7531 33.3996 30.8V15.2C33.3996 14.2468 32.6193 13.4666 31.6662 13.4666ZM31.6662 15.2V16.9342H14.333V15.2H31.6662ZM14.333 30.8V18.6658H31.6662V30.8H14.333Z" fill="#1F40E5"/>
<path d="M24.656 22.4074L26.0967 21.137C25.163 20.6693 24.1144 20.3999 22.9998 20.3999C19.1708 20.3999 16.0664 23.504 16.0664 27.3331H17.7998C17.7998 24.4614 20.1281 22.1331 22.9998 22.1331C23.5794 22.1333 24.1355 22.2321 24.656 22.4074Z" fill="#1F40E5"/>
<path d="M27.9258 25.6777C28.1002 26.1982 28.1993 26.7538 28.1993 27.3331H29.9327C29.9327 26.2195 29.6636 25.1699 29.1964 24.2375L27.9258 25.6777Z" fill="#1F40E5"/>
<path d="M28.2084 22.7376L27.5956 22.125L23.5466 25.6964C23.3729 25.6389 23.192 25.5999 22.999 25.5999C22.0417 25.5999 21.2656 26.3752 21.2656 27.3331C21.2656 28.2914 22.0417 29.0667 22.999 29.0667C23.9564 29.0667 24.7325 28.2914 24.7325 27.3331C24.7325 27.1401 24.6935 26.9592 24.636 26.7858L28.2084 22.7376Z" fill="#1F40E5"/>
</svg>
