<svg width="80" height="80" viewBox="0 0 80 80" fill="none" xmlns="http://www.w3.org/2000/svg">
<path opacity="0.3" fill-rule="evenodd" clip-rule="evenodd" d="M39.5 73C46.4648 73 52.9332 70.8745 58.292 67.2369L54.7081 61.9574C50.2548 64.9805 45.0079 66.619 39.5 66.619C24.5226 66.619 12.381 54.4774 12.381 39.5C12.381 24.5226 24.5226 12.381 39.5 12.381C54.4774 12.381 66.619 24.5226 66.619 39.5C66.619 42.0143 66.2786 44.4769 65.6147 46.8438L71.7585 48.5672C72.5674 45.6834 73 42.6422 73 39.5C73 20.9985 58.0015 6.00001 39.5 6.00001C20.9985 6.00001 6 20.9985 6 39.5C6 58.0015 20.9985 73 39.5 73Z" fill="#D8E8F5"/>
<path fill-rule="evenodd" clip-rule="evenodd" d="M71.8793 46.0174C72.1268 46.1094 72.2602 46.3779 72.1839 46.6307L71.1038 50.2087C71.0275 50.4614 70.7678 50.6113 70.5108 50.5509L34.988 42.2055C34.7072 42.1395 34.5403 41.8504 34.6237 41.5743L37.0192 33.6385C37.1025 33.3624 37.4015 33.2139 37.6719 33.3143L71.8793 46.0174Z" fill="white"/>
</svg>
