<svg width="46" height="47" viewBox="0 0 46 47" fill="none" xmlns="http://www.w3.org/2000/svg">
<circle r="22.5" transform="matrix(-1 0 0 1 23 23.9065)" fill="white" stroke="#BDE3FE"/>
<path d="M31.6681 21.1984V20.6061C31.6681 19.6488 30.8923 18.8727 29.935 18.8727H27.1759C26.9143 18.1382 26.3371 17.5599 25.6016 17.2984V16.7061C25.6016 15.7488 24.8255 14.9727 23.8681 14.9727H17.6424C17.2836 13.9654 16.3323 13.2393 15.2016 13.2393C13.7661 13.2393 12.6016 14.4038 12.6016 15.8393C12.6016 17.2755 13.7661 18.4393 15.2016 18.4393C16.3323 18.4393 17.2844 17.7131 17.6424 16.7058H23.8681V17.2981C23.1336 17.5597 22.5554 18.1377 22.2938 18.8724H20.835C19.8777 18.8724 19.1016 19.6485 19.1016 20.6058V22.7724H17.6424C17.2836 21.7654 16.3323 21.0393 15.2016 21.0393C13.7661 21.0393 12.6016 22.2038 12.6016 23.6393C12.6016 25.0752 13.7661 26.2393 15.2016 26.2393C16.3323 26.2393 17.2844 25.5141 17.6424 24.5061H19.1016C20.0589 24.5061 20.835 23.7297 20.835 22.7727V20.6061H22.2938C22.6519 21.6139 23.604 22.3393 24.735 22.3393C25.8657 22.3393 26.8178 21.6139 27.1759 20.6058H29.935V21.1981C28.9277 21.5572 28.2016 22.5093 28.2016 23.6393C28.2016 24.7703 28.9277 25.7224 29.935 26.0804V26.6724H27.1759C26.8178 25.6654 25.8657 24.9393 24.735 24.9393C23.2995 24.9393 22.135 26.1038 22.135 27.5393C22.135 28.6708 22.8612 29.6224 23.8681 29.9804V30.5724H17.6424C17.2836 29.5654 16.3323 28.8393 15.2016 28.8393C13.7661 28.8393 12.6016 30.0038 12.6016 31.4393C12.6016 32.8763 13.7661 34.0393 15.2016 34.0393C16.3323 34.0393 17.2844 33.3139 17.6424 32.3058H23.8681C24.8255 32.3058 25.6016 31.53 25.6016 30.5724V29.9804C26.3371 29.7188 26.9143 29.1414 27.1759 28.4061H29.935C30.8923 28.4061 31.6681 27.6297 31.6681 26.6724V26.0804C32.6762 25.7224 33.4016 24.7703 33.4016 23.6393C33.4016 22.5093 32.6762 21.5572 31.6681 21.1984ZM15.2016 16.7058C14.7242 16.7058 14.335 16.3164 14.335 15.8393C14.335 15.3622 14.7242 14.9727 15.2016 14.9727C15.6789 14.9727 16.0681 15.3622 16.0681 15.8393C16.0681 16.3164 15.6789 16.7058 15.2016 16.7058ZM15.2016 24.5061C14.7242 24.5061 14.335 24.1166 14.335 23.6393C14.335 23.1619 14.7242 22.7727 15.2016 22.7727C15.6789 22.7727 16.0681 23.1622 16.0681 23.6393C16.0681 24.1164 15.6789 24.5061 15.2016 24.5061ZM24.735 20.6058C24.2566 20.6058 23.8681 20.2164 23.8681 19.7393C23.8681 19.2622 24.2566 18.8727 24.735 18.8727C25.2131 18.8727 25.6016 19.2619 25.6016 19.7393C25.6016 20.2166 25.2131 20.6058 24.735 20.6058ZM15.2016 32.3058C14.7242 32.3058 14.335 31.9174 14.335 31.4393C14.335 30.9609 14.7242 30.5724 15.2016 30.5724C15.6789 30.5724 16.0681 30.9609 16.0681 31.4393C16.0681 31.9174 15.6789 32.3058 15.2016 32.3058ZM24.735 28.4061C24.2566 28.4061 23.8681 28.0177 23.8681 27.5393C23.8681 27.0609 24.2566 26.6724 24.735 26.6724C25.2131 26.6724 25.6016 27.0609 25.6016 27.5393C25.6016 28.0177 25.2131 28.4061 24.735 28.4061ZM30.8016 24.5061C30.3234 24.5061 29.935 24.1166 29.935 23.6393C29.935 23.1619 30.3234 22.7727 30.8016 22.7727C31.2797 22.7727 31.6681 23.1622 31.6681 23.6393C31.6681 24.1164 31.2797 24.5061 30.8016 24.5061Z" fill="#1F40E5"/>
</svg>
