<svg width="46" height="47" viewBox="0 0 46 47" fill="none" xmlns="http://www.w3.org/2000/svg">
<circle r="22.5" transform="matrix(-1 0 0 1 23 23.9065)" fill="white" stroke="#BDE3FE"/>
<path d="M33.3996 25.2065V22.6065L31.3945 22.1049C31.2312 21.5789 30.9933 21.086 30.7013 20.6318L31.6095 18.7668L29.6182 17.0952L27.944 18.3097C27.4786 18.1147 26.9818 17.9826 26.4662 17.9085V16.1065C26.4662 15.153 25.6859 14.373 24.733 14.373H14.333C13.3799 14.373 12.5996 15.153 12.5996 16.1065V31.7065C12.5996 32.6596 13.3799 33.4396 14.333 33.4396H24.733C25.6859 33.4396 26.4662 32.6596 26.4662 31.7065V29.9036C26.9815 29.83 27.4786 29.698 27.944 29.5024L29.6182 30.7172L31.6095 29.0464L30.7013 27.1806C30.9933 26.7262 31.2304 26.2335 31.3937 25.7075L33.3996 25.2065ZM24.733 31.7065H14.333V16.1065H24.733V31.7065ZM26.4662 27.2503V20.5621C27.9591 20.9487 29.0662 22.2924 29.0662 23.9065C29.0662 25.5198 27.9591 26.8634 26.4662 27.2503Z" fill="#1F40E5"/>
<path d="M19.5332 17.8398H16.0664V19.5733H19.5332V17.8398Z" fill="#1F40E5"/>
<path d="M22.9998 21.3064H16.0664V23.0398H22.9998V21.3064Z" fill="#1F40E5"/>
<path d="M21.2664 24.7734H16.0664V26.5066H21.2664V24.7734Z" fill="#1F40E5"/>
<path d="M22.9998 28.2397H16.0664V29.9734H22.9998V28.2397Z" fill="#1F40E5"/>
</svg>
