<svg width="46" height="47" viewBox="0 0 46 47" fill="none" xmlns="http://www.w3.org/2000/svg">
<circle r="22.5" transform="matrix(-1 0 0 1 23 23.9065)" fill="white" stroke="#BDE3FE"/>
<path d="M28.2006 24.0002H23.8672V25.7337H28.2006V24.0002Z" fill="#1F40E5"/>
<path d="M22.1338 24.0002H20.4004V25.7337H22.1338V24.0002Z" fill="#1F40E5"/>
<path d="M33.3996 27.4669H31.6662V13.6003H14.333V27.4669H12.5996V29.2003H18.233L16.933 34.4003H18.7195L19.1529 32.6669H26.8463L27.2797 34.4003H29.0662L27.7662 29.2003H33.3996V27.4669ZM29.2152 15.3335L24.733 19.8159L22.133 17.2159L16.0662 23.2825V15.3335H29.2152ZM19.5863 30.9338L20.0195 29.2003H25.9797L26.4129 30.9338H19.5863ZM16.0662 27.4669V25.7338L22.133 19.6669L24.733 22.2669L29.933 17.0669V27.4669H16.0662Z" fill="#1F40E5"/>
</svg>
