<svg width="46" height="47" viewBox="0 0 46 47" fill="none" xmlns="http://www.w3.org/2000/svg">
<circle r="22.5" transform="matrix(-1 0 0 1 23 23.9062)" fill="white" stroke="#BDE3FE"/>
<path d="M26.6844 11.5063C25.6085 11.5063 24.7344 12.3807 24.7344 13.4563C24.7344 14.533 25.6085 15.4063 26.6844 15.4063C27.76 15.4063 28.6344 14.533 28.6344 13.4563C28.6344 12.3807 27.76 11.5063 26.6844 11.5063ZM26.6844 14.1063C26.3253 14.1063 26.0344 13.8154 26.0344 13.4563C26.0344 13.0973 26.3253 12.8063 26.6844 12.8063C27.0432 12.8063 27.3344 13.0973 27.3344 13.4563C27.3344 13.8154 27.0432 14.1063 26.6844 14.1063Z" fill="#1F40E5"/>
<path d="M31.45 16.2727C30.3741 16.2727 29.5 17.1471 29.5 18.2227C29.5 19.2986 30.3741 20.1727 31.45 20.1727C32.5259 20.1727 33.4 19.2986 33.4 18.2227C33.4 17.1471 32.5259 16.2727 31.45 16.2727ZM31.45 18.8727C31.0912 18.8727 30.8 18.5818 30.8 18.2227C30.8 17.8639 31.0912 17.5727 31.45 17.5727C31.8088 17.5727 32.1 17.8639 32.1 18.2227C32.1 18.5818 31.8088 18.8727 31.45 18.8727Z" fill="#1F40E5"/>
<path d="M22.9996 21.9063V11.5063C17.2562 11.5063 12.5996 16.1629 12.5996 21.9063C12.5996 27.6497 17.2562 32.3063 22.9996 32.3063C28.743 32.3063 33.3996 27.6497 33.3996 21.9063H22.9996ZM22.9996 30.5729C18.2211 30.5729 14.333 26.6849 14.333 21.9063C14.333 17.7211 17.3155 14.2197 21.2662 13.4142V23.6398H31.492C30.687 27.5905 27.1848 30.5729 22.9996 30.5729Z" fill="#1F40E5"/>
<path d="M25.6529 20.1727L33.4004 12.4253L32.4813 11.5062L24.7339 19.2537L25.6529 20.1727Z" fill="#1F40E5"/>
</svg>
