<svg width="100" height="21" viewBox="0 0 100 21" fill="none" xmlns="http://www.w3.org/2000/svg">
<path d="M45.0711 10.5804C45.0711 14.2771 42.812 16.0307 39.9842 16.0307H38.2622V13.8032H39.8578C41.5639 13.8032 42.7014 12.8869 42.7014 10.5646C42.7014 8.27396 41.6271 7.13652 39.8104 7.13652C38.0568 7.13652 36.8088 8.21077 36.8088 10.5173V19.8063H34.4391V5.20919H36.793V6.47302H37.1248C37.9147 5.41456 39.0679 4.94063 40.2843 4.94063C42.891 4.94063 45.0711 6.83636 45.0711 10.5804ZM29.5892 9.61678L28.0252 9.4588C26.793 9.34821 26.1453 9.01646 26.1453 8.28976C26.1453 7.43668 26.9826 6.94695 28.1674 6.94695C29.3997 6.94695 30.1895 7.53147 30.2527 8.35295H32.5118C32.417 6.23605 30.7899 4.94063 28.1832 4.94063C25.5608 4.94063 23.7914 6.33084 23.7914 8.36875C23.7914 10.0749 24.8657 11.1808 27.3143 11.4177L28.9099 11.5757C29.8736 11.6705 30.5213 11.8601 30.5213 12.7921C30.5213 13.6294 29.921 14.2297 28.3254 14.2297C26.8562 14.2297 26.1295 13.5662 25.8767 12.6657H23.4281C23.6651 14.7037 25.387 16.2834 28.3254 16.2834C31.09 16.2834 32.8752 14.83 32.8752 12.6657C32.8594 10.7858 31.6113 9.80635 29.5892 9.61678ZM54.1864 12.6815C53.823 13.5346 52.9384 14.1665 51.6745 14.1665C49.9526 14.1665 48.673 13.0449 48.673 10.6278C48.673 8.32136 49.8578 7.04174 51.7061 7.04174C53.3491 7.04174 54.2812 8.0212 54.376 9.50619H50.1421V11.2124H56.6982V10.0907C56.6982 6.97854 54.6287 4.95643 51.6903 4.95643C48.9573 4.95643 46.3349 6.82057 46.3349 10.6278C46.3349 14.4351 48.9573 16.2992 51.6903 16.2992C54.1864 16.2992 55.9873 14.7511 56.5403 12.6815H54.1864ZM17.0458 4.94063C14.4707 4.94063 12.5434 6.28344 12.3064 8.35295H14.8341C15.0079 7.59466 15.703 7.02594 17.03 7.02594C18.7361 7.02594 19.2891 7.92641 19.2891 9.01646V12.7131C18.3254 13.819 17.2038 14.3245 16.0821 14.3245C14.9131 14.3245 14.1074 13.7558 14.1074 12.7605C14.1074 11.7969 14.7393 11.1966 15.9399 11.1966H17.8199V9.50619H15.8609C13.1753 9.50619 11.6587 10.849 11.6587 12.9185C11.6587 14.8458 13.1121 16.2992 15.5134 16.2992C16.8562 16.2992 18.041 15.7621 18.9257 15.1144H19.2575V16.0307H21.6113V8.81109C21.6745 6.14126 19.8578 4.94063 17.0458 4.94063ZM1.07422 16.0307H3.42809V1.22815H1.07422V16.0307ZM10.9636 5.20919H8.08844L4.66032 9.72736V11.1334L8.18322 16.0307H11.1058L6.96679 10.4225L10.9636 5.20919ZM96.1295 5.20919L94.2022 9.49039C93.7282 10.5172 93.2859 11.5283 93.1437 12.2076H92.812C92.6698 11.5283 92.2117 10.5488 91.7377 9.52199L89.8104 5.20919H87.2038L91.7377 14.9248L89.4944 19.8221H92.0063L98.7361 5.20919H96.1295ZM86.6824 5.20919H83.8072L80.3791 9.71156V11.1176L83.902 16.0149H86.8246L82.7014 10.4067L86.6824 5.20919ZM71.9273 9.61678L70.3633 9.4588C69.1311 9.34821 68.4834 9.01646 68.4834 8.28976C68.4834 7.43668 69.3207 6.94695 70.5055 6.94695C71.7377 6.94695 72.5276 7.53147 72.5908 8.35295H74.8499C74.7551 6.23605 73.1279 4.94063 70.5213 4.94063C67.8989 4.94063 66.1295 6.33084 66.1295 8.36875C66.1295 10.0749 67.2038 11.1808 69.6524 11.4177L71.248 11.5757C72.2117 11.6705 72.8594 11.8601 72.8594 12.7921C72.8594 13.6294 72.259 14.2297 70.6635 14.2297C69.1943 14.2297 68.4676 13.5662 68.2148 12.6657H65.7662C66.0031 14.7037 67.7251 16.2834 70.6635 16.2834C73.4281 16.2834 75.2132 14.83 75.2132 12.6657C75.2132 10.7858 73.9494 9.80635 71.9273 9.61678ZM76.793 16.0307H79.1469V1.22815H76.793V16.0307ZM61.248 6.47302H60.9162V5.20919H58.5624V16.0307H60.9162V10.3751C60.9162 8.44774 61.8009 7.3261 63.5703 7.3261H65.0553V4.94063H64.1864C62.5592 4.94063 61.8641 5.55674 61.248 6.47302Z" fill="#A0ACE3"/>
</svg>
