<svg width="100" height="27" viewBox="0 0 100 27" fill="none" xmlns="http://www.w3.org/2000/svg">
<g clip-path="url(#clip0)">
<path opacity="0.6" d="M8.91334 3.37039C4.92124 3.38552 1.35347 6.09013 0.487685 10.0632C0.359396 10.6539 0.296896 11.2434 0.294922 11.825V11.8691C0.304132 15.8132 3.11926 19.3829 7.22518 20.2776C11.9515 21.3072 16.5976 18.4046 17.6028 13.7934C17.7304 13.2066 17.7929 12.621 17.7956 12.0441V11.9632C17.7752 8.02631 14.962 4.47105 10.8647 3.57763C10.2304 3.43947 9.59821 3.37171 8.97453 3.37039H8.91334ZM8.19953 19.3132C4.70676 18.5526 2.52584 14.9526 3.32782 11.2737C4.12979 7.59276 7.61071 5.22763 11.1028 5.98881C14.5936 6.75 16.7752 10.35 15.9732 14.0289C15.2726 17.2434 12.5258 19.4559 9.51532 19.4559C9.07979 19.4559 8.64032 19.4092 8.19953 19.3132Z" fill="#CDD6FE"/>
<path d="M16.352 0.668335C13.55 0.668494 10.8629 1.78826 8.88161 3.78134C6.90035 5.77441 5.78723 8.47755 5.78711 11.2962C5.78723 14.1148 6.90035 16.8179 8.88161 18.811C10.8629 20.8041 13.55 21.9238 16.352 21.924C19.1539 21.9238 21.8411 20.8041 23.8223 18.811C25.8036 16.8179 26.9167 14.1148 26.9168 11.2962C26.9167 8.47755 25.8036 5.77441 23.8223 3.78134C21.8411 1.78826 19.1539 0.668494 16.352 0.668335ZM17.2052 2.51995C19.4248 2.52016 21.5535 3.32737 23.1229 4.76404C24.6924 6.20072 25.5741 8.14917 25.5741 10.1808C25.5741 12.2125 24.6924 14.1609 23.1229 15.5976C21.5535 17.0343 19.4248 17.8415 17.2052 17.8417C16.106 17.8418 15.0176 17.6436 14.0021 17.2587C12.9866 16.8737 12.0638 16.3094 11.2866 15.598C10.5093 14.8866 9.8928 14.0421 9.47216 13.1126C9.05151 12.1831 8.83501 11.1869 8.83501 10.1808C8.83501 9.17475 9.05151 8.17853 9.47216 7.24904C9.8928 6.31956 10.5093 5.47501 11.2866 4.76363C12.0638 4.05225 12.9866 3.48796 14.0021 3.10299C15.0176 2.71801 16.106 2.5199 17.2052 2.51995Z" fill="url(#paint0_linear)"/>
<path opacity="0.6" d="M14.2452 17.3454C13.0334 18.65 11.3571 19.4375 9.58008 19.4566C9.96297 19.7737 10.363 20.0678 10.7867 20.3283C12.6386 19.9829 14.3209 19.05 15.5696 17.6915C15.1123 17.6125 14.6696 17.4941 14.2452 17.3448" fill="url(#paint1_linear)"/>
<path opacity="0.98" d="M8.95855 8.87435C7.56711 9.97171 6.53355 11.4388 5.9375 13.0783C6.22237 14.7724 6.90461 16.3283 7.88355 17.6493C7.89211 17.6618 7.90132 17.6737 7.91053 17.6849C7.40395 15.6842 7.86184 13.5875 9.05 11.8993C9.03224 11.829 9.01382 11.7566 8.99803 11.6875C8.89211 11.1987 8.83553 10.6954 8.83553 10.1776C8.83553 9.73224 8.87763 9.29803 8.95921 8.87435V8.86777" fill="url(#paint2_linear)"/>
<path opacity="0.6" d="M9.30637 3.37897C8.31558 4.27041 7.49124 5.34936 6.89453 6.55791C7.92808 6.02239 9.09848 5.76713 10.2932 5.86713C10.8261 5.14805 11.4932 4.51844 12.2564 4.00265C11.8149 3.82765 11.3478 3.68489 10.8662 3.57831C10.3537 3.46844 9.84124 3.40134 9.33466 3.37897" fill="url(#paint3_linear)"/>
<path opacity="0.98" d="M14.7602 6.85199C13.5938 6.85199 12.4122 7.07041 11.2688 7.53094C10.4175 7.87304 9.64379 8.32765 8.95892 8.8737V8.88028C8.87734 9.30396 8.83524 9.74081 8.83524 10.1836C8.83524 10.702 8.89182 11.2053 8.99774 11.6928C9.01353 11.7625 9.03195 11.8355 9.04971 11.9053C9.89511 10.6987 11.1168 9.70199 12.6208 9.09541C16.5366 7.51909 20.8991 9.19278 22.3681 12.8388C22.7655 13.8204 22.9116 14.848 22.8352 15.8513C22.6688 18.0217 21.4747 20.0921 19.5497 21.4263C19.0589 21.7684 18.5188 22.0632 17.9405 22.2954C14.0234 23.8724 9.65892 22.1961 8.19182 18.5526C8.07669 18.2678 7.98261 17.9796 7.91024 17.6915C7.90103 17.6796 7.89182 17.6678 7.88326 17.6553C6.90432 16.3369 6.22208 14.7783 5.93721 13.0836C5.13392 15.2882 5.1155 17.8066 6.07011 20.1803C7.60432 23.9915 11.2122 26.329 15.0023 26.3665H15.1787C16.3168 26.3559 17.4681 26.1375 18.5826 25.6882C21.8273 24.3816 23.9425 21.4533 24.4122 18.1678C24.5905 16.9283 24.5333 15.6362 24.2142 14.3638C24.1023 13.9211 23.9602 13.4783 23.7846 13.0421C22.2359 9.20067 18.5833 6.85528 14.7602 6.85528" fill="#CDD6FE"/>
<path d="M62.5799 11.1865L59.522 19.0036L56.4628 11.1865H54.7246L58.3805 19.8891L58.5226 20.22L58.7253 20.7121C58.5411 21.3338 58.2378 21.6858 58.2095 21.7161C58.1865 21.7371 58.1707 21.7523 58.1549 21.7812C58.1549 21.7812 58.1503 21.7878 58.1503 21.7884C57.8851 22.124 57.5943 22.3391 57.3134 22.4226C57.124 22.4805 56.9266 22.4891 56.7134 22.4345C56.4654 22.37 56.1957 22.2253 55.9121 22.0036L55.0312 23.1424C55.7503 23.7088 56.4141 23.897 56.9522 23.9115C57.2483 23.92 57.5167 23.8687 57.7312 23.8029C58.3463 23.6161 58.899 23.1944 59.3687 22.5615C59.3963 22.5338 59.4174 22.5055 59.4384 22.472C59.4884 22.4049 59.5411 22.3305 59.5891 22.2503C59.6279 22.1924 59.6654 22.1338 59.7016 22.0634C59.7483 21.972 59.8009 21.8884 59.8391 21.7937C59.8588 21.7667 59.8733 21.7371 59.8897 21.7003C59.9016 21.6641 59.9266 21.6167 59.947 21.5753L60.0115 21.3983L60.2871 20.7641L64.3174 11.1865" fill="#A0ACE3"/>
<path d="M33.2264 9.12474H36.7896C37.8876 9.12474 39.0817 10.1655 39.0817 11.5149C39.0817 12.8813 37.8876 13.903 36.7896 13.8833L32.8949 13.903V15.3662H36.7896C38.9278 15.3662 40.8159 13.8057 40.8159 11.5149C40.8159 9.18263 38.8896 7.64185 36.7896 7.64185H31.5508V20.4905H33.2264" fill="#A0ACE3"/>
<path d="M45.891 12.207C43.9837 12.207 42.7706 13.8255 42.7706 15.8281C42.7706 17.832 43.9837 19.4689 45.891 19.4689C47.8166 19.4689 49.0114 17.8511 49.0114 15.8281C49.0114 13.8255 47.8166 12.207 45.891 12.207ZM45.891 20.7406C43.1554 20.7406 41.1719 18.5452 41.1719 15.8281C41.1719 13.1327 43.1554 10.9176 45.891 10.9176C48.6449 10.9176 50.6094 13.1327 50.6094 15.8281C50.6094 18.5452 48.6449 20.7406 45.891 20.7406Z" fill="#A0ACE3"/>
<path d="M77.891 12.2071C75.9837 12.2071 74.7706 13.8255 74.7706 15.8281C74.7706 17.8321 75.9837 19.4689 77.891 19.4689C79.8166 19.4689 81.0114 17.8512 81.0114 15.8281C81.0114 13.8255 79.8166 12.2071 77.891 12.2071ZM77.891 20.7406C75.1554 20.7406 73.1719 18.5452 73.1719 15.8281C73.1719 13.1327 75.1554 10.9176 77.891 10.9176C80.6449 10.9176 82.6094 13.1327 82.6094 15.8281C82.6094 18.5452 80.6449 20.7406 77.891 20.7406Z" fill="#A0ACE3"/>
<path d="M52.1226 20.4905L52.1035 7.64182H53.6443L53.6641 20.4905" fill="#A0ACE3"/>
<path d="M68.887 20.8066C66.1522 20.8066 64.168 18.6105 64.168 15.8941C64.168 13.198 66.1522 10.9829 68.887 10.9829C70.0436 10.9829 71.1792 11.1757 72.5463 12.5816L71.5259 13.5823C70.6594 12.6198 69.889 12.273 68.887 12.273C66.9805 12.273 65.7667 13.8908 65.7667 15.8941C65.7667 17.898 66.9805 19.5355 68.887 19.5355C69.889 19.5355 70.6594 19.1691 71.5259 18.1869L72.5463 19.2073C71.1792 20.5954 70.0436 20.8066 68.887 20.8066Z" fill="#A0ACE3"/>
<path d="M95.1887 20.4905V14.4227C95.1887 12.9194 94.5736 12.2069 93.417 12.2069C92.4347 12.2069 91.6841 12.978 91.1834 13.5938V20.4905H89.6413V14.4227C89.6413 12.9194 89.0064 12.2069 87.8696 12.2069C86.8683 12.2069 86.1361 12.978 85.6163 13.5938V20.4905H84.0742V11.1865H85.6163V12.3425C86.0394 11.8221 86.8104 10.9168 88.313 10.9168C89.6611 10.9168 90.5275 11.5326 90.9137 12.6694C91.4716 11.88 92.3578 10.9168 93.8795 10.9168C95.767 10.9168 96.7308 12.1865 96.7308 14.4227V20.4905" fill="#A0ACE3"/>
<path d="M98.3413 11.5697V12.7342H98.1637V11.4118H98.7031C98.9268 11.4118 99.1242 11.5697 99.1242 11.8132C99.1242 12.1092 98.8676 12.2013 98.7887 12.2013L99.1439 12.7342H98.9202L98.5781 12.2079H98.2886V12.05H98.7031C98.815 12.05 98.94 11.9513 98.94 11.8132C98.94 11.6684 98.815 11.5697 98.7031 11.5697H98.3413ZM97.6176 12.0697C97.6176 12.6092 98.0584 13.0566 98.6044 13.0566C99.1505 13.0566 99.5847 12.6092 99.5847 12.0697C99.5847 11.5171 99.1505 11.0829 98.6044 11.0829C98.0584 11.0829 97.6176 11.5171 97.6176 12.0697ZM97.4531 12.0697C97.4531 11.425 97.9663 10.9184 98.6044 10.9184C99.2426 10.9184 99.7558 11.425 99.7558 12.0697C99.7558 12.7013 99.2426 13.2211 98.6044 13.2211C97.9663 13.2211 97.4531 12.7013 97.4531 12.0697Z" fill="#A0ACE3"/>
</g>
<defs>
<linearGradient id="paint0_linear" x1="5.84274" y1="10.1915" x2="26.8608" y2="12.4005" gradientUnits="userSpaceOnUse">
<stop stop-color="#A0ACE3"/>
<stop offset="0.536458" stop-color="#CDD6FE"/>
<stop offset="1" stop-color="#A0ACE3"/>
</linearGradient>
<linearGradient id="paint1_linear" x1="11.024" y1="20.6861" x2="14.4138" y2="16.7067" gradientUnits="userSpaceOnUse">
<stop stop-color="#A0ACE3"/>
<stop offset="0.122699" stop-color="#94A9BB"/>
<stop offset="1" stop-color="#94A9BB" stop-opacity="0.529412"/>
</linearGradient>
<linearGradient id="paint2_linear" x1="8.89477" y1="17.3499" x2="6.29238" y2="9.792" gradientUnits="userSpaceOnUse">
<stop stop-color="#94A9BB"/>
<stop offset="1" stop-color="#94A9BB" stop-opacity="0.572549"/>
</linearGradient>
<linearGradient id="paint3_linear" x1="7.68025" y1="7.22719" x2="11.1966" y2="3.09918" gradientUnits="userSpaceOnUse">
<stop stop-color="#A0ACE3"/>
<stop offset="0.122699" stop-color="#94A9BB"/>
<stop offset="1" stop-color="#94A9BB" stop-opacity="0.529412"/>
</linearGradient>
<clipPath id="clip0">
<rect width="100" height="26.3158" fill="white" transform="translate(0 0.280273)"/>
</clipPath>
</defs>
</svg>
