<svg width="100" height="21" viewBox="0 0 100 21" fill="none" xmlns="http://www.w3.org/2000/svg">
<g clip-path="url(#clip0)">
<path d="M25.776 9.11139H31.3635C31.751 9.11139 31.826 9.51139 31.526 9.99889L30.401 11.8489C30.101 12.3364 29.5385 12.7364 29.151 12.7364H23.5635C23.176 12.7364 23.101 12.3364 23.401 11.8489L24.526 9.99889C24.826 9.51139 25.3885 9.11139 25.776 9.11139Z" fill="#A0ACE3"/>
<path d="M52.4885 0.436377C54.5385 0.248877 56.976 1.86138 55.776 3.97388C54.626 5.88638 50.4635 6.37388 49.2135 6.26138C48.8135 6.22388 48.1635 5.97388 48.176 5.33638C48.1885 4.88638 48.4385 3.31138 49.301 2.07388C50.201 0.861377 51.526 0.498877 52.4885 0.436377Z" fill="#A0ACE3"/>
<path d="M65.2875 4.52385C65.925 4.23635 65.9875 4.93635 65.9625 5.14885V6.77385C65.9625 7.08635 66.225 6.93635 66.3625 6.88635C68.2875 6.07385 70.2375 4.86135 72.7125 4.92385C74.9125 4.97385 75.575 6.71135 75.5625 8.71135V17.2238C75.5625 17.9738 75.625 18.1488 75.975 18.4363C76.0875 18.4988 76.675 18.5488 76.9 18.5488C77.1375 18.5488 77.1375 18.7238 77.075 18.8988L76.55 20.2363C76.4375 20.4613 76.2 20.5238 76.025 20.5238H71.025C69.2875 20.4613 68.7625 19.1613 68.7875 18.4988V10.3988C68.7875 8.73635 66.075 8.61135 66.075 10.8488V17.6738C66.1 17.9988 66 18.4238 66.875 18.4863C67.45 18.4863 67.8625 18.4238 67.575 19.1238L67.15 20.1988C67.05 20.3988 66.8125 20.5238 66.5875 20.5113H58.325C58.15 20.5113 58.0125 20.3113 58.0375 20.1613L58.625 18.6488C58.65 18.5863 58.7125 18.4738 58.7875 18.4738C59.0625 18.4613 59.25 18.3238 59.3 17.5488V8.67385C59.3 7.94885 58.6375 8.03635 58.1375 8.03635C57.9125 8.03635 57.7875 7.97385 57.85 7.68635L58.3125 6.69885C58.375 6.46135 58.4875 6.37385 58.6625 6.34885C61.3875 5.93635 62.9625 5.74885 65.2875 4.52385Z" fill="#A0ACE3"/>
<path d="M85.4632 0.786377C85.9382 0.711377 86.2132 0.998877 86.2132 1.52388V10.0239C86.2757 10.4864 86.6132 10.1739 86.7132 10.0364L89.6507 6.31138C89.9632 5.92388 90.7132 5.84888 91.1757 5.84888H97.5757C97.6882 5.84888 97.7507 5.98638 97.6382 6.13638L96.8257 7.23638C96.7507 7.33638 96.6882 7.46138 96.3007 7.46138H95.9882C95.7007 7.47388 95.6382 7.57388 95.5257 7.63638L92.2382 11.3239C91.5507 12.1489 91.7132 12.4989 92.3257 13.0864L96.8382 17.7114C97.8382 18.4114 98.7507 18.4614 99.7882 18.5239C100.063 18.5364 100.001 18.7614 99.9007 18.8739L98.7382 20.2114C98.6257 20.3864 98.1132 20.4989 97.8257 20.4989H93.3507C92.7757 20.4989 91.7382 20.3239 90.9257 19.7989C89.3007 18.4614 88.2757 16.7739 86.6882 15.2739C86.4132 15.0114 86.1882 15.1364 86.1882 15.3614V17.2989C86.1882 18.1739 86.5507 18.3989 87.8257 18.4614C88.3132 18.4864 88.1757 18.7489 88.0632 19.0364L87.6382 20.1364C87.5132 20.3989 87.3507 20.4864 87.1257 20.4864H77.8757C77.5882 20.4864 77.4007 20.3989 77.4632 20.2239L77.9757 18.8614C78.0882 18.5989 78.1632 18.5364 78.5507 18.5114C79.1882 18.4739 79.4257 18.2614 79.4382 17.3114V4.81138C79.4382 4.38638 79.3382 4.22388 79.0382 4.26138L77.8632 4.42388C77.5132 4.47388 77.4507 4.21138 77.5882 3.96138L78.3132 2.74888C78.4507 2.51138 78.7007 2.48638 78.9757 2.43638C81.3382 2.04888 83.7257 1.36138 85.1882 0.811377C85.2757 0.836377 85.3507 0.798877 85.4632 0.786377Z" fill="#A0ACE3"/>
<path d="M55.6114 5.79887C55.8989 5.68637 56.2489 5.91137 56.1864 6.54888V17.5614C56.3364 18.3364 56.5864 18.5239 57.2739 18.5989C57.2739 18.5989 57.7489 18.6114 57.6239 18.9489L57.1739 20.1114C56.9989 20.4614 56.8864 20.5239 56.4739 20.5239H47.8614C47.6364 20.5114 47.5489 20.3614 47.6239 20.1114L48.0489 19.0114C48.1239 18.8614 48.1614 18.7114 48.4489 18.6614C49.3239 18.4239 49.3739 18.3114 49.3739 17.1489V10.5614C49.3739 9.46138 49.1989 9.51138 47.9239 9.63638C47.6989 9.57388 47.7114 9.36138 47.7489 9.28638L48.3864 8.07388C48.5614 7.72388 48.7864 7.72388 48.7864 7.72388C51.2364 7.53638 53.6739 6.92388 55.6114 5.79887Z" fill="#A0ACE3"/>
<path d="M12.1369 20.5114C14.0119 20.5364 16.2744 20.6364 18.3744 18.9989C19.8744 18.0114 21.6744 14.0114 22.3244 12.3614C22.6494 11.4989 22.7369 10.3614 22.3244 9.49888C21.1869 6.92388 19.5369 4.04888 18.4494 2.88638C16.8869 1.44888 15.4244 1.32388 12.9869 1.32388H2.58688C2.14938 1.32388 1.66188 1.43638 1.48688 1.73638L0.736878 3.12388C0.624378 3.69888 1.31188 3.76138 1.31188 3.76138H2.37438C2.66188 3.76138 2.72438 3.98638 2.72438 4.22388V17.0989C2.72438 17.6739 2.07438 18.0239 1.54938 18.1364C1.31188 18.1989 0.974378 18.2614 0.799378 18.5489L0.0493779 19.9989C-0.063122 20.2864 0.161878 20.5239 0.399378 20.5239C4.48688 20.5239 8.03688 20.5364 12.1369 20.5114ZM9.49938 18.1239V4.28638C9.49938 3.93638 9.56188 3.76138 9.89938 3.71138H10.9119C11.2744 3.71138 11.7994 3.63638 12.1244 4.21138L15.6119 10.2989C15.8994 10.9364 15.8119 11.1989 15.6119 11.6364L12.0744 17.6114C11.6494 18.1989 11.4494 18.0864 10.9119 18.1239C10.8994 18.1239 10.9244 18.1239 10.9119 18.1239H9.49938Z" fill="#A0ACE3"/>
<path d="M41.8246 1.46138C42.2746 1.46138 42.4371 1.72388 42.3496 1.89888L41.4246 3.58638C41.4246 3.58638 41.3121 3.93638 40.4996 3.93638H40.4121C39.8871 3.93638 39.4746 3.93638 39.4246 4.98638V17.2114C39.4246 17.7364 39.6496 18.1739 40.2871 18.1989H41.5496C43.6121 18.1739 43.5621 16.0489 44.0246 14.1989C44.1371 13.9114 44.1996 13.7364 44.5496 13.5614L46.3746 12.9239C46.6121 12.9239 46.8371 12.9239 46.8996 13.3239V19.4739C46.9621 20.0489 46.4371 20.5739 45.7371 20.5114H30.0371C29.4621 20.5114 29.3371 20.3364 29.4621 19.9864L30.0371 18.7114C30.0371 18.7114 30.2121 18.3614 30.7371 18.3614C31.8996 18.2989 32.6246 18.2864 32.6121 16.5114V5.08638C32.6121 4.33638 32.4371 3.87388 31.6746 3.87388C31.3746 3.87388 31.0871 3.87388 30.7871 3.87388C30.2121 3.87388 29.8996 3.67388 30.0371 3.34888L30.8496 1.83638C31.0371 1.49888 31.1996 1.44888 31.4871 1.44888H41.8246" fill="#A0ACE3"/>
</g>
<defs>
<clipPath id="clip0">
<rect width="100" height="20.1" fill="white" transform="translate(0 0.423889)"/>
</clipPath>
</defs>
</svg>
