<svg width="100" height="43" viewBox="0 0 100 43" fill="none" xmlns="http://www.w3.org/2000/svg">
<g clip-path="url(#clip0)">
<path fill-rule="evenodd" clip-rule="evenodd" d="M77.0215 20.3712C77.0215 19.9201 77.3874 19.5876 77.8197 19.5876C78.2479 19.5876 78.6138 19.9201 78.6138 20.3712C78.6138 20.8263 78.2479 21.1589 77.8197 21.1589C77.3874 21.1589 77.0215 20.8263 77.0215 20.3712ZM77.8197 21.0281C78.1751 21.0281 78.4558 20.7496 78.4558 20.3712C78.4558 19.9991 78.1751 19.7186 77.8197 19.7186C77.4599 19.7186 77.1794 19.9991 77.1794 20.3712C77.1794 20.7496 77.4599 21.0281 77.8197 21.0281ZM77.6533 20.8263H77.5164V19.9202H77.8612C78.0753 19.9202 78.1815 19.9991 78.1815 20.1778C78.1815 20.3401 78.0794 20.4107 77.9466 20.4273L78.2043 20.8263H78.0505L77.8115 20.4335H77.6533V20.8263L77.8176 20.3171C77.934 20.3171 78.0379 20.3089 78.0379 20.1696C78.0379 20.0573 77.9361 20.0366 77.8405 20.0366H77.6533V20.3171H77.8176L77.6533 20.8263Z" fill="#CDD6FE"/>
<path fill-rule="evenodd" clip-rule="evenodd" d="M17.4681 25.8037L14.1177 19.8287H26.2311L20.1485 6.95106L11.2308 25.8037H0.560547L14.5303 0.357941H25.7672L39.6337 25.8037H17.4681Z" fill="#CDD6FE"/>
<path fill-rule="evenodd" clip-rule="evenodd" d="M39.6861 11.0208H52.9854C56.3357 11.0208 57.6762 10.8144 57.6762 8.44507C57.6762 6.17891 56.5937 5.92118 53.14 5.92118H39.6342L36.6445 0.357941H55.4078C64.2742 0.357941 67.5732 4.2213 67.5732 8.34187C67.5732 12.3084 64.5316 16.6867 54.7892 16.6867H50.3563V25.8037H39.6342V11.0208H39.6861Z" fill="#CDD6FE"/>
<path fill-rule="evenodd" clip-rule="evenodd" d="M95.3564 24.2591C92.1601 25.7526 88.1912 26.4739 83.9643 26.4739C71.1804 26.4739 66.7988 19.3658 66.7988 13.4935C66.7988 6.07642 73.2935 0.358643 84.4796 0.358643C88.5524 0.358643 92.1087 0.97678 95.0984 2.10986V9.47564C92.0055 7.82763 89.3251 7.10629 86.1807 7.10629C80.8199 7.10629 76.4379 9.52751 76.4379 13.3903C76.4379 17.2024 80.9227 19.6749 86.284 19.6749C89.3764 19.6749 91.9022 19.0568 95.3564 17.4601V24.2591Z" fill="#CDD6FE"/>
<path fill-rule="evenodd" clip-rule="evenodd" d="M96.4863 2.55799C96.4863 1.88842 97.0329 1.39471 97.6786 1.39471C98.3182 1.39471 98.8648 1.88842 98.8648 2.55799C98.8648 3.23364 98.3182 3.72735 97.6786 3.72735C97.0329 3.72735 96.4863 3.23364 96.4863 2.55799ZM97.6786 3.53322C98.2095 3.53322 98.6289 3.11983 98.6289 2.55799C98.6289 2.00566 98.2095 1.58923 97.6786 1.58923C97.1413 1.58923 96.7223 2.00566 96.7223 2.55799C96.7223 3.11983 97.1413 3.53322 97.6786 3.53322ZM97.4301 3.23364H97.2255V1.88842H97.7407C98.0605 1.88842 98.219 2.00566 98.219 2.27098C98.219 2.51193 98.0666 2.61661 97.8682 2.64135L98.2531 3.23364H98.0233L97.6664 2.65049H97.4301V3.23364L97.6756 2.47767C97.8494 2.47767 98.0046 2.46549 98.0046 2.25879C98.0046 2.09207 97.8525 2.06124 97.7096 2.06124H97.4301V2.47767H97.6756L97.4301 3.23364Z" fill="#CDD6FE"/>
<path fill-rule="evenodd" clip-rule="evenodd" d="M0.292969 40.195V31.9232H1.34426V39.2784H4.3848V40.195H0.292969Z" fill="#A0ACE3"/>
<path fill-rule="evenodd" clip-rule="evenodd" d="M6.27243 36.8884C6.28408 35.2917 6.77769 35.006 7.37457 35.006C8.0636 35.006 8.53443 35.2118 8.53443 36.8884H6.27243ZM9.537 37.5997V37.1065C9.537 35.2002 9.12231 34.2952 7.46672 34.2952C5.46053 34.2952 5.26562 35.6908 5.26562 37.3817C5.26562 39.9436 6.238 40.3067 7.46672 40.3067C8.6716 40.3067 9.4602 39.7282 9.47186 38.4406H8.44281C8.40838 39.0281 8.07737 39.5467 7.43759 39.5467C6.70672 39.5467 6.27243 39.2239 6.27243 37.5997H9.537Z" fill="#A0ACE3"/>
<path fill-rule="evenodd" clip-rule="evenodd" d="M14.0777 37.2726C14.0777 38.0744 14.1121 39.4139 12.9708 39.4139C12.2669 39.4139 11.84 38.9789 11.84 37.1239C11.84 36.3565 11.8745 35.0742 12.9475 35.0742C14.1349 35.0742 14.0777 36.4137 14.0777 37.2726ZM14.0549 35.1197H14.0316C13.7662 34.5582 13.2822 34.2941 12.6705 34.2941C12.1975 34.2941 10.8555 34.4661 10.8555 37.1239C10.8555 38.8418 11.1648 40.1934 12.7398 40.1934C13.2472 40.1934 13.7779 39.9299 14.0205 39.471H14.0549V40.675C14.0549 41.2715 13.6974 41.6726 13.0396 41.6726C12.5206 41.6726 12.1631 41.3747 12.1514 40.8354H11.0959C11.0159 41.9018 11.8861 42.3839 12.8553 42.3839C14.1349 42.3839 14.9944 42.0743 14.9944 40.7782V34.4069H14.0549V35.1197Z" fill="#A0ACE3"/>
<path fill-rule="evenodd" clip-rule="evenodd" d="M17.333 36.8884C17.3446 35.2917 17.8382 35.006 18.4351 35.006C19.1241 35.006 19.595 35.2118 19.595 36.8884H17.333ZM20.5975 37.5997V37.1065C20.5975 35.2002 20.1823 34.2952 18.5273 34.2952C16.5205 34.2952 16.3262 35.6908 16.3262 37.3817C16.3262 39.9436 17.2986 40.3067 18.5273 40.3067C19.7321 40.3067 20.5208 39.7282 20.5324 38.4406H19.5034C19.4689 39.0281 19.1374 39.5467 18.4981 39.5467C17.7673 39.5467 17.333 39.2239 17.333 37.5997H20.5975Z" fill="#A0ACE3"/>
<path fill-rule="evenodd" clip-rule="evenodd" d="M25.2856 40.195V36.1782C25.2856 35.5579 25.0685 35.0531 24.2693 35.0531C23.2413 35.0531 23.093 35.9713 23.093 36.763V40.195H22.1534V35.604C22.1534 35.2023 22.1301 34.8027 22.0957 34.4048H23.093V35.1451H23.1385C23.504 34.4974 23.9382 34.2931 24.6802 34.2931C25.9158 34.2931 26.2251 35.0303 26.2251 36.1782V40.195H25.2856Z" fill="#A0ACE3"/>
<path fill-rule="evenodd" clip-rule="evenodd" d="M30.9541 37.0641C30.9541 38.2364 30.9541 39.5467 29.8986 39.5467C28.717 39.5467 28.717 38.2824 28.717 37.4092C28.717 35.8575 28.8547 35.0531 29.8641 35.0531C30.9085 35.0531 30.9541 36.2941 30.9541 37.0641ZM30.9541 34.9848H30.9197C30.5987 34.5312 30.1973 34.2931 29.6465 34.2931C27.7785 34.2931 27.7324 35.9496 27.7324 37.3975C27.7324 39.9437 28.6709 40.3067 29.6004 40.3067C30.2084 40.3067 30.6098 40.0458 30.9313 39.5123H30.9541V40.195H31.8942V31.9232H30.9541V34.9848Z" fill="#A0ACE3"/>
<path fill-rule="evenodd" clip-rule="evenodd" d="M36.4528 37.3091C36.5444 39.189 35.8321 39.5467 35.2575 39.5467C34.6256 39.5467 34.3497 39.0392 34.3497 38.474C34.3497 37.2404 35.5562 37.3203 36.4528 37.3091ZM36.4756 40.195H37.5073C37.4384 39.7468 37.3924 39.2752 37.3924 38.8153V36.0295C37.3924 35.0631 37.0031 34.2952 35.5122 34.2952C34.2835 34.2952 33.5924 34.7424 33.5463 36.0295H34.5716C34.5139 35.4272 34.8465 35.006 35.4778 35.006C36.4872 35.006 36.4756 35.8363 36.4528 36.5979C35.1314 36.5635 33.4102 36.6434 33.4102 38.4046C33.4102 39.5234 33.7655 40.3067 34.9932 40.3067C35.7172 40.3067 36.1652 40.023 36.4528 39.362H36.4756V40.195Z" fill="#A0ACE3"/>
<path fill-rule="evenodd" clip-rule="evenodd" d="M39.8307 35.288H39.8535C40.2433 34.3973 40.7252 34.2931 41.643 34.2931V35.2769C41.5631 35.2648 41.4709 35.2536 41.391 35.2325C41.3104 35.2208 41.2305 35.2097 41.1383 35.2097C40.0944 35.2097 39.8307 36.0004 39.8307 36.7799V40.195H38.8906V34.4048H39.8307V35.288Z" fill="#A0ACE3"/>
<path fill-rule="evenodd" clip-rule="evenodd" d="M44.9059 39.1175H44.9292L46.3141 34.4047H47.3331L44.7115 42.386H43.7386L44.3911 40.1955L42.4336 34.4047H43.5209L44.9059 39.1175Z" fill="#A0ACE3"/>
<path fill-rule="evenodd" clip-rule="evenodd" d="M52.2979 32.8398H53.8921C54.7066 32.8398 55.0048 33.5051 55.0048 34.1015C55.0048 34.8239 54.6378 35.478 53.8804 35.478H52.2979V32.8398ZM53.5367 36.3947C53.8921 36.3947 54.7066 36.4402 54.7866 37.4478C54.8788 38.5465 54.8099 39.623 55.1076 40.195H56.2049C56.0444 39.6801 55.93 38.3861 55.9189 38.0316C55.8617 36.3714 55.5191 36.0507 54.5689 35.9019V35.8787C55.5418 35.7072 56.0789 34.962 56.0789 33.9867C56.0789 32.9547 55.5646 31.9232 54.0986 31.9232H51.2461V40.195H52.2979V36.3947H53.5367Z" fill="#A0ACE3"/>
<path fill-rule="evenodd" clip-rule="evenodd" d="M58.4516 36.8884C58.4632 35.2917 58.9568 35.006 59.5542 35.006C60.2427 35.006 60.7136 35.2118 60.7136 36.8884H58.4516ZM61.7161 37.5997V37.1065C61.7161 35.2002 61.3015 34.2952 59.6459 34.2952C57.6397 34.2952 57.4453 35.6908 57.4453 37.3817C57.4453 39.9436 58.4177 40.3067 59.6459 40.3067C60.8507 40.3067 61.6399 39.7282 61.6515 38.4406H60.6219C60.5875 39.0281 60.2565 39.5467 59.6167 39.5467C58.8859 39.5467 58.4516 39.2239 58.4516 37.5997H61.7161Z" fill="#A0ACE3"/>
<path fill-rule="evenodd" clip-rule="evenodd" d="M64.1896 40.195H63.25V31.9232H64.1896V40.195Z" fill="#A0ACE3"/>
<path fill-rule="evenodd" clip-rule="evenodd" d="M66.7353 40.195H65.7952V34.4048H66.7353V40.195ZM65.7285 31.9232H66.7798V32.9293H65.7285V31.9232Z" fill="#A0ACE3"/>
<path fill-rule="evenodd" clip-rule="evenodd" d="M71.318 37.3091C71.4097 39.189 70.6973 39.5467 70.1227 39.5467C69.4903 39.5467 69.2149 39.0392 69.2149 38.474C69.2149 37.2404 70.4214 37.3203 71.318 37.3091ZM71.3408 40.195H72.372C72.3031 39.7468 72.2576 39.2752 72.2576 38.8153V36.0295C72.2576 35.0631 71.8678 34.2952 70.3769 34.2952C69.1482 34.2952 68.4576 34.7424 68.4115 36.0295H69.4363C69.3786 35.4272 69.7117 35.006 70.3425 35.006C71.3519 35.006 71.3408 35.8363 71.318 36.5979C69.9961 36.5635 68.2754 36.6434 68.2754 38.4046C68.2754 39.5234 68.6302 40.3067 69.8584 40.3067C70.5824 40.3067 71.0305 40.023 71.318 39.362H71.3408V40.195Z" fill="#A0ACE3"/>
<path fill-rule="evenodd" clip-rule="evenodd" d="M74.5905 37.0641C74.5905 36.2941 74.636 35.0531 75.6804 35.0531C76.6899 35.0531 76.8276 35.8575 76.8276 37.4092C76.8276 38.2824 76.8276 39.5467 75.646 39.5467C74.4872 39.5467 74.5905 37.949 74.5905 37.0641ZM74.5905 39.5123H74.6132C74.9347 40.0458 75.3362 40.3067 75.9442 40.3067C76.8737 40.3067 77.8121 39.9437 77.8121 37.3975C77.8121 35.9496 77.7661 34.2931 75.8981 34.2931C75.3473 34.2931 74.9458 34.5312 74.6249 34.9848H74.5905V31.9232H73.6504V40.195H74.5905V39.5123Z" fill="#A0ACE3"/>
<path fill-rule="evenodd" clip-rule="evenodd" d="M80.2158 40.195H79.2762V34.4048H80.2158V40.195ZM79.209 31.9232H80.2603V32.9293H79.209V31.9232Z" fill="#A0ACE3"/>
<path fill-rule="evenodd" clip-rule="evenodd" d="M82.7623 40.195H81.8223V31.9232H82.7623V40.195Z" fill="#A0ACE3"/>
<path fill-rule="evenodd" clip-rule="evenodd" d="M85.3101 40.195H84.37V34.4048H85.3101V40.195ZM84.3027 31.9232H85.3546V32.9293H84.3027V31.9232Z" fill="#A0ACE3"/>
<path fill-rule="evenodd" clip-rule="evenodd" d="M87.3722 34.4069V33.295L88.3117 32.8705V34.4069H89.5738V35.1181H88.3117V38.664C88.3117 39.0312 88.3117 39.5017 89.1724 39.5017C89.2412 39.5017 89.39 39.479 89.5966 39.4562V40.1712C89.2873 40.194 88.9775 40.2622 88.6676 40.2622C87.7731 40.2622 87.3722 39.8992 87.3722 39.2382V35.1181H86.4199V34.4069H87.3722Z" fill="#A0ACE3"/>
<path fill-rule="evenodd" clip-rule="evenodd" d="M92.7814 39.1175H92.8047L94.1896 34.4047H95.2086L92.587 42.386H91.6136L92.2666 40.1955L90.3086 34.4047H91.3964L92.7814 39.1175Z" fill="#A0ACE3"/>
<path fill-rule="evenodd" clip-rule="evenodd" d="M99.181 34.1549H98.8802V32.6943H98.8712L98.3569 34.1549H98.1122L97.6234 32.6943H97.6149V34.1549H97.3141V32.2995H97.7908L98.2536 33.6802H98.2621L98.7128 32.2995H99.181V34.1549ZM97.0985 32.2995V32.5397H96.5853V34.1549H96.2845V32.5397H95.7734V32.2995H97.0985Z" fill="#A0ACE3"/>
</g>
<defs>
<clipPath id="clip0">
<rect width="100" height="42.3077" fill="white" transform="translate(0 0.280273)"/>
</clipPath>
</defs>
</svg>
