<svg width="97" height="29" viewBox="0 0 97 29" fill="none" xmlns="http://www.w3.org/2000/svg">
<path d="M0 21.3109L9.71431 0.37439H12.5715L22.2858 21.3109H18.2858L11.1429 5.60852L6.85716 15.2044H13.4286L14.8572 18.1123H5.42858L4.00001 21.3109H0Z" fill="#A0ACE3"/>
<path d="M18.5723 0.37439L28.2866 21.3109H31.1437L40.858 0.37439H36.858L29.7151 16.3676L22.5723 0.37439H18.5723Z" fill="#A0ACE3"/>
<path d="M36.8574 21.3109L46.5717 0.37439H49.4288L59.1431 21.3109H55.1431L48.0002 5.60852L43.7145 15.2044H50.286L51.7145 18.1123H42.286L40.8574 21.3109H36.8574Z" fill="#A0ACE3"/>
<path d="M56 0.37439L64.5714 21.0195L60.8572 28.8705H64.8572L78.2858 0.37439H74L66.5715 16.6579L60.2857 0.37439H56Z" fill="#A0ACE3"/>
<path d="M74.2852 21.3109L83.9995 0.37439H86.8566L96.5709 21.3109H92.5709L85.428 5.60852L81.1423 15.2044H87.7138L89.1423 18.1123H79.7137L78.2852 21.3109H74.2852Z" fill="#A0ACE3"/>
</svg>
