<svg width="100" height="29" viewBox="0 0 100 29" fill="none" xmlns="http://www.w3.org/2000/svg">
<path d="M0 4.76007H5.69276C6.83131 4.76007 8.51508 4.76007 9.6376 6.18004C10.2951 7.01244 10.4554 7.91012 10.4554 8.61194C10.4554 9.05262 10.4394 11.305 7.8095 11.9252C8.40283 12.0558 9.31688 12.2353 10.0866 13.133C10.7601 13.9491 10.9205 14.8957 10.9205 15.5649C10.9205 16.6258 10.5035 17.8662 9.73381 18.5191C8.6113 19.482 7.52085 19.6126 6.41437 19.6126H0V4.76007ZM2.48557 11.0275H5.70879C6.97563 11.0275 7.82553 10.1788 7.82553 8.87308C7.82553 7.14301 6.22194 6.89818 5.64465 6.89818H2.48557V11.0275ZM2.48557 17.3929H5.90122C7.26428 17.3929 8.22643 16.6421 8.22643 15.2548C8.22643 14.047 7.34446 13.133 5.90122 13.133H2.48557V17.3929Z" fill="#A0ACE3"/>
<path d="M20.6538 19.628L18.3767 13.5243H14.6724V19.628H12.0586V4.77667H18.3767C20.1888 4.77667 21.2953 5.13572 22.1772 5.93541C22.9149 6.62085 23.4922 7.6327 23.4922 9.15048C23.4922 11.9412 21.616 12.7572 20.8623 13.1L23.428 19.6443H20.6538V19.628ZM14.6885 11.3863H17.9758C19.2747 11.3863 20.7821 10.9457 20.7821 9.0852C20.7821 7.97542 20.0605 6.89829 18.2003 6.89829H14.7045V11.3863H14.6885Z" fill="#A0ACE3"/>
<path d="M30.2125 19.8397C25.6102 19.8397 24.0547 15.4985 24.0547 12.1365C24.0547 8.12178 26.2837 4.54767 30.3087 4.54767C34.4299 4.54767 36.4665 8.20338 36.4665 12.1855C36.4665 16.7225 34.029 19.8397 30.2125 19.8397ZM32.8905 8.33394C32.1528 6.79985 30.8539 6.70193 30.2606 6.70193C27.5024 6.70193 26.893 9.57428 26.893 12.2345C26.893 13.997 27.1817 17.6854 30.2125 17.6854C31.5274 17.6854 32.5056 16.8531 32.9546 15.9718C33.3074 15.2537 33.6121 14.2745 33.6121 12.1692C33.6121 11.549 33.58 9.73748 32.8905 8.33394Z" fill="#A0ACE3"/>
<path d="M48.5257 14.7486C47.9645 18.6658 45.3025 19.8572 42.9933 19.8572C38.0863 19.8572 37.1562 14.7486 37.1562 12.1861C37.1562 8.33426 38.9042 4.54767 43.0895 4.54767C46.2005 4.54767 48.0126 6.55521 48.5417 9.80319L46.0883 10.0643C45.8317 8.88919 45.3185 6.7021 43.1056 6.7021C40.171 6.7021 39.9946 10.7825 39.9946 12.1208C39.9946 16.3808 41.6623 17.6049 43.1858 17.6049C44.5648 17.6049 45.8638 16.495 46.0722 14.4711L48.5257 14.7486Z" fill="#A0ACE3"/>
<path d="M60.9364 19.6277H58.1301L56.9434 16.0863H51.3469L50.2083 19.6277H47.9473L52.8062 4.77667H56.0294L60.9364 19.6277ZM56.2539 13.9321L54.1211 7.30625L52.0044 13.9484H56.2539V13.9321Z" fill="#A0ACE3"/>
<path d="M61.627 4.76007H67.015C67.8489 4.76007 69.7572 4.7764 71.5211 6.6044C72.9483 8.07333 73.6058 10.0972 73.6058 12.17C73.6058 15.3037 72.1786 17.1807 71.1683 18.0947C70.559 18.6496 68.9073 19.6126 66.4217 19.6126H61.627V4.76007ZM64.321 17.4419H66.5339C68.811 17.4419 70.7514 15.6628 70.7514 12.0721C70.7514 9.34641 69.3242 6.88186 66.8386 6.88186H64.321V17.4419Z" fill="#A0ACE3"/>
<path d="M74.502 19.6277V4.76007H83.883V6.96329H77.1318V10.9944H82.552V13.165H77.1318V17.3266H83.9792V19.6277H74.502Z" fill="#A0ACE3"/>
<path d="M99.9997 1.26788C99.9997 1.52914 99.9034 1.75774 99.7271 1.95368C99.5346 2.14962 99.3101 2.23126 99.0535 2.23126C98.797 2.23126 98.5725 2.13329 98.38 1.95368C98.1876 1.75774 98.1074 1.52914 98.1074 1.26788C98.1074 1.00663 98.2036 0.77803 98.38 0.582088C98.5725 0.386146 98.797 0.304504 99.0535 0.304504C99.3101 0.304504 99.5346 0.402475 99.7271 0.582088C99.9034 0.77803 99.9997 1.00663 99.9997 1.26788ZM99.8714 1.26788C99.8714 1.03928 99.7912 0.843342 99.6308 0.680057C99.4705 0.516773 99.2781 0.43513 99.0535 0.43513C98.829 0.43513 98.6366 0.516773 98.4762 0.680057C98.3159 0.843342 98.2357 1.03928 98.2357 1.26788C98.2357 1.49648 98.3159 1.69242 98.4762 1.85571C98.6366 2.01899 98.829 2.10064 99.0535 2.10064C99.2781 2.10064 99.4705 2.01899 99.6308 1.85571C99.7912 1.69242 99.8714 1.49648 99.8714 1.26788ZM99.5026 1.82305H99.3262L99.1177 1.34953H98.813V1.82305H98.6526V0.696387H99.1177C99.246 0.696387 99.3422 0.729045 99.4063 0.794359C99.4705 0.859672 99.5026 0.941313 99.5026 1.00663C99.5026 1.07194 99.4865 1.12093 99.4544 1.18624C99.4224 1.23523 99.3582 1.28421 99.2941 1.30054L99.5026 1.82305ZM98.797 1.2189H99.0856C99.1658 1.2189 99.2139 1.20257 99.246 1.16991C99.278 1.13725 99.2941 1.08827 99.2941 1.02296C99.2941 0.957642 99.278 0.924985 99.2299 0.892328C99.1979 0.859671 99.1498 0.843342 99.0856 0.843342H98.7809V1.2189H98.797Z" fill="#CDD6FE"/>
<path d="M97.0334 5.85285C97.6588 5.33058 98.0597 4.51454 98.0597 3.63322C98.0597 2.03379 96.7929 0.744446 95.2213 0.744446H84.2207C87.027 3.63322 89.721 5.11841 91.8057 5.85285C89.705 6.58728 87.027 8.07247 84.2207 10.9612H95.2213C96.7929 10.9612 98.0597 9.6719 98.0597 8.07247C98.0597 7.19115 97.6588 6.39143 97.0334 5.85285ZM95.077 9.41077H88.5023C91.0039 7.63181 93.1687 6.76681 95.077 6.76681C95.7986 6.76681 96.3759 7.35435 96.3759 8.08879C96.3759 8.8069 95.7986 9.41077 95.077 9.41077ZM95.077 4.9552C93.1527 4.9552 91.0039 4.0902 88.5023 2.31124H95.077C95.7986 2.31124 96.3759 2.89879 96.3759 3.63322C96.3759 4.35133 95.7986 4.9552 95.077 4.9552Z" fill="#CDD6FE"/>
<path d="M0.256836 27.1356L2.19719 22.0765H2.98295L4.92331 27.1356H4.16962L3.65647 25.7973H1.52368L1.01053 27.1356H0.256836ZM1.79629 25.0793H3.39989L2.59809 23.0067L1.79629 25.0793Z" fill="#A0ACE3"/>
<path d="M7.13574 27.1356V22.0765H9.63735C10.0222 22.0765 10.359 22.2234 10.6476 22.5008C10.9202 22.7782 11.0645 23.1209 11.0645 23.5289C11.0645 23.7084 11.0325 23.888 10.9683 24.0512C10.9042 24.2143 10.808 24.3612 10.6957 24.4918C10.8882 24.6223 11.0485 24.7855 11.1608 24.9977C11.273 25.2098 11.3372 25.4383 11.3372 25.6994C11.3372 26.0911 11.1928 26.4338 10.9202 26.7112C10.6476 26.9887 10.3109 27.1356 9.90996 27.1356H7.13574ZM7.84132 24.247H9.63735C9.84582 24.247 10.0062 24.1817 10.1505 24.0348C10.2948 23.888 10.359 23.7248 10.359 23.5126C10.359 23.3004 10.2948 23.1373 10.1505 22.9904C10.0062 22.8435 9.84582 22.7782 9.63735 22.7782H7.84132V24.247ZM7.84132 26.4175H9.926C10.1184 26.4175 10.2948 26.3522 10.4391 26.2053C10.5835 26.0585 10.6476 25.8953 10.6476 25.6831C10.6476 25.471 10.5835 25.3078 10.4391 25.1609C10.2948 25.014 10.1345 24.9487 9.926 24.9487H7.84132V26.4175Z" fill="#A0ACE3"/>
<path d="M12.0586 27.1349V23.5778H12.7642V24.0673C12.8925 23.8878 13.0688 23.7573 13.2933 23.6594C13.5178 23.5615 13.7423 23.5125 14.015 23.5125V24.2305C13.6141 24.2305 13.3094 24.312 13.0849 24.4915C12.8764 24.671 12.7642 24.981 12.7642 25.4216V27.1512H12.0586V27.1349Z" fill="#A0ACE3"/>
<path d="M14.1914 25.3565C14.1914 24.8506 14.3678 24.41 14.7046 24.051C15.0413 23.692 15.4743 23.5125 15.9714 23.5125C16.4845 23.5125 16.9015 23.692 17.2382 24.051C17.575 24.41 17.7514 24.8506 17.7514 25.3565C17.7514 25.8624 17.575 26.303 17.2382 26.662C16.9015 27.021 16.4685 27.2005 15.9714 27.2005C15.4582 27.2005 15.0413 27.021 14.7046 26.662C14.3678 26.303 14.1914 25.8624 14.1914 25.3565ZM14.897 25.3565C14.897 25.6666 14.9932 25.944 15.2017 26.1561C15.4101 26.3846 15.6667 26.4988 15.9874 26.4988C16.3081 26.4988 16.5647 26.3846 16.7732 26.1561C16.9817 25.9277 17.0779 25.6666 17.0779 25.3565C17.0779 25.0465 16.9817 24.769 16.7732 24.5569C16.5647 24.3284 16.3081 24.2142 15.9874 24.2142C15.6667 24.2142 15.4101 24.3284 15.2017 24.5569C14.9932 24.769 14.897 25.0465 14.897 25.3565Z" fill="#A0ACE3"/>
<path d="M18.168 26.0746C18.168 25.7645 18.2963 25.4871 18.5368 25.2749C18.7773 25.0627 19.1141 24.9648 19.531 24.9648H20.5253V24.8179C20.5253 24.6384 20.4451 24.4915 20.2847 24.3772C20.1244 24.263 19.9319 24.214 19.7074 24.214C19.499 24.214 19.3226 24.2304 19.1462 24.2793C18.9858 24.3283 18.8254 24.3772 18.6972 24.4262L18.5208 23.7734C18.6651 23.7081 18.8415 23.6428 19.05 23.5775C19.2584 23.5122 19.4669 23.4959 19.6914 23.4959C20.1083 23.4959 20.4772 23.6265 20.7658 23.8713C21.0705 24.1161 21.2148 24.4262 21.2148 24.8179V27.1355H20.5092V26.7111C20.397 26.858 20.2527 26.9723 20.0602 27.0702C19.8838 27.1681 19.6754 27.2171 19.4348 27.2171C19.0499 27.2171 18.7453 27.1029 18.5047 26.8907C18.2802 26.6622 18.168 26.3847 18.168 26.0746ZM18.8736 26.0257C18.8736 26.1889 18.9377 26.3194 19.082 26.4174C19.2263 26.5153 19.3867 26.5643 19.5952 26.5643C19.8036 26.5643 20.0121 26.499 20.2206 26.3684C20.429 26.2378 20.5253 26.0583 20.5253 25.8461V25.5197H19.6754C19.4348 25.5197 19.2424 25.5687 19.0981 25.6503C18.9377 25.7482 18.8736 25.8625 18.8736 26.0257Z" fill="#A0ACE3"/>
<path d="M21.9043 25.3567C21.9043 24.8508 22.0647 24.4102 22.3693 24.0512C22.674 23.6922 23.0428 23.5126 23.4758 23.5126C23.7003 23.5126 23.9088 23.5616 24.1012 23.6758C24.2936 23.7901 24.47 23.9206 24.6144 24.1001V21.7991H25.3199V27.1355H24.6144V26.6296C24.47 26.8091 24.2936 26.956 24.1012 27.0539C23.9088 27.1518 23.7003 27.2171 23.4758 27.2171C23.0428 27.2171 22.674 27.0376 22.3693 26.6786C22.0647 26.3032 21.9043 25.8626 21.9043 25.3567ZM22.6099 25.3567C22.6099 25.6668 22.7061 25.9442 22.8985 26.1564C23.091 26.3848 23.3315 26.4991 23.6041 26.4991C23.8767 26.4991 24.1173 26.3848 24.3097 26.1564C24.5021 25.9279 24.5983 25.6668 24.5983 25.3567C24.5983 25.0467 24.5021 24.7692 24.3097 24.5571C24.1173 24.3286 23.8767 24.2144 23.6041 24.2144C23.3315 24.2144 23.091 24.3286 22.8985 24.5571C22.7061 24.7692 22.6099 25.0467 22.6099 25.3567Z" fill="#A0ACE3"/>
<path d="M26.0254 25.3565C26.0254 24.8506 26.2018 24.41 26.5385 24.051C26.8753 23.692 27.3083 23.5125 27.8054 23.5125C28.078 23.5125 28.3506 23.5778 28.5911 23.7083C28.8317 23.8389 29.0401 24.0021 29.2005 24.2305L28.6232 24.6222C28.527 24.5079 28.3987 24.41 28.2544 24.3284C28.1101 24.2468 27.9497 24.2142 27.7893 24.2142C27.4686 24.2142 27.212 24.3284 27.0036 24.5569C26.7951 24.7854 26.6989 25.0465 26.6989 25.3565C26.6989 25.6666 26.7951 25.944 27.0036 26.1561C27.212 26.3846 27.4686 26.4988 27.7893 26.4988C27.9497 26.4988 28.1101 26.4662 28.2544 26.3846C28.3987 26.303 28.527 26.2214 28.6232 26.0908L29.2005 26.4825C29.0401 26.6946 28.8317 26.8741 28.5911 27.0047C28.3506 27.1352 28.078 27.2005 27.8054 27.2005C27.2922 27.2005 26.8753 27.021 26.5385 26.662C26.1857 26.303 26.0254 25.8624 26.0254 25.3565Z" fill="#A0ACE3"/>
<path d="M29.5547 25.3565C29.5547 24.8506 29.7311 24.41 30.0678 24.051C30.4046 23.692 30.8376 23.5125 31.3347 23.5125C31.8478 23.5125 32.2648 23.692 32.6015 24.051C32.9383 24.41 33.1147 24.8506 33.1147 25.3565C33.1147 25.8624 32.9383 26.303 32.6015 26.662C32.2648 27.021 31.8318 27.2005 31.3347 27.2005C30.8215 27.2005 30.4046 27.021 30.0678 26.662C29.7311 26.303 29.5547 25.8624 29.5547 25.3565ZM30.2603 25.3565C30.2603 25.6666 30.3565 25.944 30.5649 26.1561C30.7734 26.3846 31.03 26.4988 31.3507 26.4988C31.6714 26.4988 31.928 26.3846 32.1365 26.1561C32.3449 25.9277 32.4411 25.6666 32.4411 25.3565C32.4411 25.0465 32.3449 24.769 32.1365 24.5569C31.928 24.3284 31.6714 24.2142 31.3507 24.2142C31.03 24.2142 30.7734 24.3284 30.5649 24.5569C30.3565 24.769 30.2603 25.0465 30.2603 25.3565Z" fill="#A0ACE3"/>
<path d="M33.8359 27.1351V23.5778H34.5415V24.0184C34.6538 23.8552 34.8141 23.741 34.9905 23.6431C35.1669 23.5452 35.3754 23.5125 35.5839 23.5125C35.8404 23.5125 36.0649 23.5778 36.2734 23.7247C36.4819 23.8552 36.6422 24.0347 36.7545 24.2631C36.8667 24.051 37.0271 23.8715 37.2356 23.7247C37.444 23.5941 37.6846 23.5125 37.9412 23.5125C38.31 23.5125 38.6147 23.6431 38.8712 23.9042C39.1278 24.1652 39.2561 24.4753 39.2561 24.8506V27.1515H38.5505V25.0791C38.5505 24.8506 38.4703 24.6548 38.31 24.4916C38.1496 24.3284 37.9572 24.2468 37.7327 24.2468C37.5082 24.2468 37.3157 24.3284 37.1554 24.4753C36.995 24.6385 36.9148 24.818 36.9148 25.0464V27.1678H36.2093V25.0464C36.2093 24.818 36.1291 24.6385 35.9687 24.4753C35.8084 24.3121 35.6159 24.2468 35.3914 24.2468C35.1669 24.2468 34.9745 24.3284 34.8141 24.4753C34.6538 24.6385 34.5736 24.818 34.5736 25.0464V27.1678H33.8359V27.1351Z" fill="#A0ACE3"/>
<path d="M42.0469 27.1356V22.0765H42.7525V26.4175H45.687V27.1356H42.0469Z" fill="#A0ACE3"/>
<path d="M46.248 22.0765H46.9536V22.7945H46.248V22.0765ZM46.248 23.5779H46.9536V27.1356H46.248V23.5779Z" fill="#A0ACE3"/>
<path d="M47.8828 27.1351V23.5778H48.5884V24.0184C48.7006 23.8552 48.861 23.741 49.0374 23.6431C49.2138 23.5452 49.4223 23.5125 49.6307 23.5125C49.8873 23.5125 50.1118 23.5778 50.3203 23.7247C50.5287 23.8715 50.6891 24.0347 50.8013 24.2631C50.9136 24.051 51.074 23.8715 51.2824 23.7247C51.4909 23.5941 51.7314 23.5125 51.988 23.5125C52.3568 23.5125 52.6615 23.6431 52.9181 23.9042C53.1747 24.1652 53.3029 24.4753 53.3029 24.8506V27.1515H52.5974V25.0791C52.5974 24.8506 52.5172 24.6548 52.3568 24.4916C52.1965 24.3284 52.004 24.2468 51.7795 24.2468C51.555 24.2468 51.3626 24.3284 51.2022 24.4753C51.0419 24.6385 50.9617 24.818 50.9617 25.0464V27.1678H50.2561V25.0464C50.2561 24.818 50.1759 24.6385 49.9996 24.4753C49.8392 24.3121 49.6468 24.2468 49.4223 24.2468C49.1978 24.2468 49.0053 24.3284 48.845 24.4753C48.6846 24.6385 48.6044 24.818 48.6044 25.0464V27.1678H47.8828V27.1351Z" fill="#A0ACE3"/>
<path d="M54.2012 22.0765H54.9068V22.7945H54.2012V22.0765ZM54.2012 23.5779H54.9068V27.1356H54.2012V23.5779Z" fill="#A0ACE3"/>
<path d="M55.4355 24.2797V23.5617H56.0609V22.2072L56.7665 22.0604V23.5617H57.4721V24.2797H56.7665V25.6995C56.7665 25.8953 56.8307 26.0585 56.975 26.2054C57.1193 26.3522 57.2797 26.4175 57.4721 26.4175V27.1356C57.0872 27.1356 56.7665 26.9887 56.4779 26.7113C56.2053 26.4338 56.0609 26.0911 56.0609 25.6995V24.2797H55.4355Z" fill="#A0ACE3"/>
<path d="M57.8906 25.3569C57.8906 24.8509 58.051 24.4102 58.3717 24.0511C58.6924 23.6921 59.0773 23.5125 59.5263 23.5125C59.9753 23.5125 60.3601 23.6921 60.6969 24.0511C61.0176 24.4102 61.178 24.8509 61.178 25.3569V25.6343H58.6122C58.6603 25.8791 58.7726 26.075 58.949 26.2382C59.1093 26.4014 59.3178 26.483 59.5423 26.483C59.7027 26.483 59.863 26.4504 60.0074 26.3688C60.1517 26.2872 60.28 26.2056 60.3762 26.075L60.9535 26.4667C60.7931 26.6789 60.5846 26.8584 60.3441 26.989C60.1036 27.1196 59.831 27.1849 59.5584 27.1849C59.1094 27.1849 58.7245 27.0053 58.4038 26.6463C58.051 26.3035 57.8906 25.8628 57.8906 25.3569ZM58.6283 25.0631H60.4564C60.4083 24.8182 60.296 24.6224 60.1196 24.4592C59.9593 24.296 59.7508 24.2143 59.5423 24.2143C59.3178 24.2143 59.1254 24.296 58.949 24.4592C58.7886 24.6224 58.6764 24.8346 58.6283 25.0631Z" fill="#A0ACE3"/>
<path d="M61.627 25.3567C61.627 24.8508 61.7873 24.4102 62.092 24.0512C62.3967 23.6922 62.7655 23.5126 63.1985 23.5126C63.423 23.5126 63.6314 23.5616 63.8239 23.6758C64.0163 23.7901 64.1927 23.9206 64.337 24.1001V21.7991H65.0426V27.1355H64.337V26.6296C64.1927 26.8091 64.0163 26.956 63.8239 27.0539C63.6314 27.1518 63.423 27.2171 63.1985 27.2171C62.7655 27.2171 62.3967 27.0376 62.092 26.6786C61.7713 26.3032 61.627 25.8626 61.627 25.3567ZM62.3325 25.3567C62.3325 25.6668 62.4288 25.9442 62.6212 26.1564C62.8136 26.3848 63.0542 26.4991 63.3268 26.4991C63.5994 26.4991 63.8399 26.3848 64.0323 26.1564C64.2248 25.9279 64.321 25.6668 64.321 25.3567C64.321 25.0467 64.2248 24.7692 64.0323 24.5571C63.8399 24.3286 63.5994 24.2144 63.3268 24.2144C63.0542 24.2144 62.8136 24.3286 62.6212 24.5571C62.4288 24.7692 62.3325 25.0467 62.3325 25.3567Z" fill="#A0ACE3"/>
<path d="M67.543 24.6056C67.543 23.871 67.7995 23.2508 68.3127 22.7447C68.8258 22.2224 69.4352 21.9612 70.1408 21.9612C70.4936 21.9612 70.8143 22.0265 71.135 22.1571C71.4397 22.2877 71.7123 22.4673 71.9529 22.7121L71.4557 23.2181C71.2793 23.0549 71.0869 22.9243 70.8624 22.8264C70.6379 22.7284 70.3974 22.6795 70.1408 22.6795C69.6116 22.6795 69.1786 22.8753 68.7938 23.2508C68.4249 23.6262 68.2325 24.0832 68.2325 24.6219C68.2325 25.1605 68.4249 25.6013 68.7938 25.993C69.1626 26.3684 69.6116 26.5643 70.1408 26.5643C70.3974 26.5643 70.6379 26.5154 70.8624 26.4174C71.0869 26.3195 71.2954 26.1889 71.4557 26.0257L71.9529 26.5317C71.7123 26.7602 71.4397 26.9398 71.135 27.0867C70.8303 27.2172 70.4936 27.2825 70.1408 27.2825C69.4192 27.2825 68.8098 27.0214 68.3127 26.499C67.7995 25.9604 67.543 25.3401 67.543 24.6056Z" fill="#A0ACE3"/>
<path d="M72.2734 25.3565C72.2734 24.8506 72.4498 24.41 72.7866 24.051C73.1233 23.692 73.5563 23.5125 74.0534 23.5125C74.5666 23.5125 74.9835 23.692 75.3203 24.051C75.657 24.41 75.8334 24.8506 75.8334 25.3565C75.8334 25.8624 75.657 26.303 75.3203 26.662C74.9835 27.021 74.5506 27.2005 74.0534 27.2005C73.5403 27.2005 73.1233 27.021 72.7866 26.662C72.4498 26.303 72.2734 25.8624 72.2734 25.3565ZM72.979 25.3565C72.979 25.6666 73.0752 25.944 73.2837 26.1561C73.4922 26.3846 73.7488 26.4988 74.0695 26.4988C74.3902 26.4988 74.6468 26.3846 74.8552 26.1561C75.0637 25.9277 75.1599 25.6666 75.1599 25.3565C75.1599 25.0465 75.0637 24.769 74.8552 24.5569C74.6468 24.3284 74.3902 24.2142 74.0695 24.2142C73.7488 24.2142 73.4922 24.3284 73.2837 24.5569C73.0752 24.769 72.979 25.0465 72.979 25.3565Z" fill="#A0ACE3"/>
<path d="M76.5547 27.1351V23.5778H77.2603V24.0184C77.3725 23.8552 77.5329 23.741 77.7093 23.6431C77.8857 23.5452 78.0941 23.5125 78.3026 23.5125C78.5592 23.5125 78.7837 23.5778 78.9921 23.7247C79.2006 23.8552 79.361 24.0347 79.4732 24.2631C79.5855 24.051 79.7458 23.8715 79.9543 23.7247C80.1628 23.5941 80.4033 23.5125 80.6599 23.5125C81.0287 23.5125 81.3334 23.6431 81.59 23.9042C81.8465 24.1652 81.9748 24.4753 81.9748 24.8506V27.1515H81.2692V25.0791C81.2692 24.8506 81.1891 24.6548 81.0287 24.4916C80.8683 24.3284 80.6759 24.2468 80.4514 24.2468C80.2269 24.2468 80.0345 24.3284 79.8741 24.4753C79.7138 24.6385 79.6336 24.818 79.6336 25.0464V27.1678H78.928V25.0464C78.928 24.818 78.8478 24.6385 78.6714 24.4753C78.5111 24.3121 78.3186 24.2468 78.0941 24.2468C77.8696 24.2468 77.6772 24.3284 77.5168 24.4753C77.3565 24.6385 77.2763 24.818 77.2763 25.0464V27.1678H76.5547V27.1351Z" fill="#A0ACE3"/>
<path d="M82.8574 28.637V23.5778H83.563V24.1C83.7073 23.9205 83.8677 23.7736 84.0601 23.6757C84.2525 23.5615 84.461 23.5125 84.7016 23.5125C85.1345 23.5125 85.5033 23.692 85.808 24.0511C86.1127 24.4101 86.2731 24.8508 86.2731 25.3567C86.2731 25.8626 86.1127 26.3033 85.808 26.6623C85.5033 27.0213 85.1345 27.2009 84.7016 27.2009C84.477 27.2009 84.2525 27.1519 84.0601 27.0377C83.8677 26.9397 83.6913 26.7929 83.563 26.6133V28.6207H82.8574V28.637ZM83.563 25.3567C83.563 25.6668 83.6592 25.9442 83.8516 26.1564C84.0441 26.3848 84.2846 26.4991 84.5572 26.4991C84.8298 26.4991 85.0704 26.3848 85.2628 26.1564C85.4552 25.9279 85.5515 25.6668 85.5515 25.3567C85.5515 25.0466 85.4552 24.7692 85.2628 24.557C85.0704 24.3285 84.8298 24.2143 84.5572 24.2143C84.2846 24.2143 84.0441 24.3285 83.8516 24.557C83.6592 24.7692 83.563 25.0466 83.563 25.3567Z" fill="#A0ACE3"/>
<path d="M86.6738 26.0746C86.6738 25.7645 86.8021 25.4871 87.0427 25.2749C87.2832 25.0627 87.6199 24.9648 88.0369 24.9648H89.0311V24.8179C89.0311 24.6384 88.9509 24.4915 88.7906 24.3772C88.6302 24.263 88.4378 24.214 88.2133 24.214C88.0048 24.214 87.8284 24.2304 87.652 24.2793C87.4917 24.3283 87.3313 24.3772 87.203 24.4262L87.0266 23.7734C87.1709 23.7081 87.3473 23.6428 87.5558 23.5775C87.7643 23.5122 87.9727 23.4959 88.1972 23.4959C88.6142 23.4959 88.983 23.6265 89.2716 23.8713C89.5763 24.1161 89.7206 24.4262 89.7206 24.8179V27.1355H89.0151V26.7111C88.9028 26.858 88.7585 26.9723 88.5661 27.0702C88.3897 27.1681 88.1812 27.2171 87.9407 27.2171C87.5558 27.2171 87.2511 27.1029 87.0106 26.8907C86.8021 26.6622 86.6738 26.3847 86.6738 26.0746ZM87.3794 26.0257C87.3794 26.1889 87.4436 26.3194 87.5879 26.4174C87.7322 26.5153 87.8926 26.5643 88.1171 26.5643C88.3255 26.5643 88.534 26.499 88.7424 26.3684C88.9509 26.2378 89.0471 26.0583 89.0471 25.8461V25.5197H88.1972C87.9567 25.5197 87.7643 25.5687 87.6199 25.6503C87.4435 25.7482 87.3794 25.8625 87.3794 26.0257Z" fill="#A0ACE3"/>
<path d="M90.6348 27.1351V23.5778H91.3403V24.0184C91.4526 23.8552 91.613 23.741 91.7893 23.6431C91.9657 23.5452 92.1742 23.5125 92.3827 23.5125C92.7515 23.5125 93.0562 23.6431 93.3128 23.9042C93.5693 24.1652 93.6976 24.4753 93.6976 24.8506V27.1515H92.992V25.0791C92.992 24.8506 92.9119 24.6548 92.7515 24.4916C92.5911 24.3284 92.3987 24.2468 92.1742 24.2468C91.9497 24.2468 91.7573 24.3284 91.5969 24.4753C91.4366 24.6385 91.3564 24.818 91.3564 25.0464V27.1678H90.6348V27.1351Z" fill="#A0ACE3"/>
<path d="M94.1309 23.5784H94.8846L95.8307 26.1241L96.7768 23.5784H97.5305L96.0552 27.5276C95.8948 27.9518 95.6703 28.2456 95.3656 28.3924C95.0609 28.5556 94.8204 28.6209 94.628 28.6209V27.9029C94.7563 27.9029 94.8845 27.8539 95.0289 27.7723C95.1732 27.6907 95.2854 27.5439 95.3496 27.3644L95.4458 27.1196L94.1309 23.5784Z" fill="#A0ACE3"/>
</svg>
