<svg width="100" height="25" viewBox="0 0 100 25" fill="none" xmlns="http://www.w3.org/2000/svg">
<g clip-path="url(#clip0)">
<path d="M72.5651 0.559753C72.6023 0.568213 72.6395 0.58344 72.6768 0.585132C73.6341 0.624046 74.5915 0.64604 75.5489 0.701873C76.6636 0.766166 77.7732 0.879523 78.8676 1.10285C79.304 1.19252 79.7353 1.3025 80.1446 1.48353C80.2309 1.52245 80.3121 1.56982 80.3848 1.64088C80.2613 1.6155 80.1378 1.58335 80.0144 1.56474C79.49 1.48692 78.969 1.39555 78.443 1.3431C76.9274 1.19591 75.4051 1.16545 73.8828 1.16884C72.2826 1.17222 70.6825 1.21621 69.0824 1.29404C68.1368 1.34141 67.1913 1.3854 66.2458 1.44462C65.3628 1.49876 64.4799 1.56644 63.5986 1.63411C62.7224 1.70179 61.8462 1.77285 60.9701 1.85068C60.2004 1.91835 59.4325 1.99618 58.6646 2.07401C57.8628 2.15522 57.0611 2.23474 56.261 2.32441C55.3493 2.42761 54.4359 2.5359 53.5259 2.64925C52.5313 2.77276 51.5367 2.89796 50.5421 3.03501C49.5661 3.16867 48.5902 3.31079 47.6159 3.46137C46.4589 3.64071 45.3002 3.81836 44.1467 4.01969C42.8983 4.23795 41.6534 4.47651 40.4102 4.71507C39.0283 4.98239 37.6548 5.28862 36.2898 5.63546C35.0499 5.95016 33.8168 6.28346 32.626 6.75381C32.2285 6.90946 31.8429 7.09727 31.4623 7.29183C31.2796 7.38658 31.1088 7.51686 30.9582 7.65728C30.6639 7.93476 30.6994 8.197 31.0377 8.41695C31.2914 8.58106 31.579 8.66735 31.8682 8.7401C32.4214 8.88053 32.9846 8.96005 33.5513 9.01927C35.236 9.19522 36.9258 9.21553 38.6172 9.22229C38.7407 9.22229 38.8642 9.22229 38.9893 9.2426C38.4802 9.25106 37.9711 9.2629 37.4619 9.26628C36.6399 9.27136 35.8161 9.28828 34.9941 9.27136C33.8676 9.24937 32.7394 9.21553 31.6145 9.15631C30.8043 9.11401 29.9958 9.03449 29.1906 8.94313C28.4295 8.85854 27.6717 8.73333 26.9461 8.47617C26.7245 8.39834 26.5046 8.30021 26.3067 8.17501C25.877 7.9043 25.8415 7.55408 26.2103 7.20386C26.3794 7.04312 26.5773 6.90439 26.7786 6.78257C27.3199 6.45434 27.9085 6.22255 28.5005 6.00768C29.7827 5.54071 31.0969 5.18372 32.4197 4.85719C34.3496 4.38176 36.2965 3.9757 38.2553 3.63394C39.8148 3.36154 41.376 3.10268 42.9389 2.85736C44.1737 2.66448 45.4136 2.4936 46.6517 2.32779C47.6954 2.18736 48.7424 2.06216 49.7877 1.94204C50.9734 1.80499 52.1609 1.67133 53.35 1.54952C54.3699 1.44462 55.3916 1.35326 56.4132 1.26528C57.626 1.16207 58.8388 1.06225 60.0533 0.97427C61.0716 0.901518 62.0898 0.837225 63.1081 0.789852C64.6727 0.715408 66.239 0.657884 67.8053 0.596975C68.0979 0.585132 68.3923 0.590208 68.6849 0.58344C68.739 0.581748 68.7931 0.568213 68.8473 0.559753C70.0837 0.559753 71.3253 0.559753 72.5651 0.559753Z" fill="#A0ACE3"/>
<path d="M99.9994 19.3737C99.8827 19.6647 99.6358 19.8085 99.3651 19.9151C99.1216 20.0116 98.8645 20.0471 98.6023 20.0471C96.7586 20.0488 94.9149 20.0522 93.0712 20.0437C92.7582 20.042 92.4419 20.0014 92.1307 19.949C91.9277 19.9151 91.7332 19.8305 91.5133 19.7612C91.1429 20.0065 90.6997 20.0488 90.243 20.0471C89.3685 20.0437 88.4957 20.0471 87.6212 20.0454C87.2863 20.0454 86.9582 19.993 86.6469 19.8644C85.9534 19.5801 85.5356 19.054 85.3563 18.3383C85.2887 18.0727 85.2633 17.7969 85.2176 17.5194C85.1128 17.4889 83.4314 17.4788 83.2048 17.5126C83.1777 17.697 83.149 17.8848 83.1219 18.0743C83.0458 18.6107 82.8445 19.0946 82.5045 19.5175C82.3827 19.6681 82.2271 19.7815 82.0495 19.861C81.7839 19.9794 81.5065 20.0471 81.2139 20.0471C80.0586 20.0454 78.9033 20.0437 77.7464 20.0386C77.6009 20.0386 77.4521 20.0251 77.31 19.9963C76.97 19.9287 76.701 19.7392 76.493 19.4634C76.4592 19.4194 76.4253 19.3737 76.3915 19.328C76.3881 19.3247 76.3813 19.323 76.3763 19.3196C76.3661 19.323 76.3543 19.323 76.3492 19.3297C76.0786 19.6901 75.6895 19.8475 75.2717 19.9439C74.8404 20.042 74.3989 20.0488 73.9592 20.0319C73.7393 20.0234 73.5211 20.0031 73.3029 19.9777C73.0272 19.9473 72.765 19.861 72.5146 19.7392C72.156 19.9845 71.7518 20.0454 71.3357 20.0454C70.1855 20.0471 69.0353 20.0403 67.8851 20.0488C67.3725 20.0522 66.9463 19.8914 66.6283 19.4786C66.6181 19.4651 66.6029 19.4566 66.5894 19.4448C66.4811 19.5615 66.3796 19.6817 66.268 19.7916C65.9196 20.1334 65.5136 20.1317 65.1601 19.795C64.8776 19.526 64.6865 19.1944 64.5156 18.8492C64.4294 18.6716 64.3533 18.4889 64.2738 18.3095C64.2568 18.2706 64.2365 18.2334 64.2027 18.1674C64.1604 18.2537 64.1351 18.3129 64.1046 18.3704C63.9473 18.6699 63.7951 18.9711 63.6293 19.2654C63.5058 19.482 63.3434 19.6715 63.154 19.8339C62.8259 20.1165 62.474 20.1165 62.1476 19.8356C61.9091 19.6292 61.7365 19.372 61.5894 19.0979C61.2968 18.5498 61.0667 17.9745 60.8553 17.3908C60.8299 17.3214 60.8079 17.2521 60.7961 17.1793C60.7656 17 60.8756 16.8189 61.043 16.7648C61.2392 16.7005 61.4287 16.7767 61.5065 16.9628C61.5792 17.1336 61.6384 17.3096 61.7027 17.4839C61.8837 17.9694 62.085 18.4483 62.337 18.9017C62.4131 19.0404 62.4977 19.1724 62.6279 19.2739C62.7362 19.2401 62.7988 19.1572 62.8512 19.0743C62.9849 18.8645 63.1235 18.6581 63.2301 18.4347C63.4534 17.9678 63.6581 17.4906 63.8661 17.0169C63.9524 16.8206 64.0572 16.7411 64.2484 16.7462C64.4226 16.7513 64.5309 16.8443 64.5901 17.0017C64.6662 17.2013 64.7305 17.406 64.8167 17.6023C65.0062 18.0354 65.2007 18.4669 65.402 18.8949C65.4713 19.0421 65.5627 19.1775 65.7183 19.2908C65.7927 19.2096 65.8773 19.1419 65.9314 19.054C66.0819 18.8103 66.2376 18.5667 66.361 18.3078C66.5454 17.9271 66.7044 17.5363 66.8736 17.1489C66.9074 17.071 66.9378 16.9915 66.9801 16.9188C67.0715 16.7665 67.2355 16.709 67.4047 16.7614C67.562 16.8105 67.6753 16.9678 67.6584 17.137C67.6499 17.2199 67.628 17.3045 67.5941 17.3807C67.4267 17.7681 67.2592 18.1556 67.0816 18.5396C67.0359 18.6377 67.0309 18.7173 67.0901 18.8052C67.1374 18.8746 67.178 18.9491 67.2271 19.0184C67.3607 19.2096 67.5485 19.2959 67.7768 19.2959C69.0065 19.2959 70.2345 19.2976 71.4642 19.2925C71.6181 19.2925 71.7738 19.2519 71.9378 19.2299C71.9277 19.1842 71.9277 19.1622 71.9192 19.1436C71.7484 18.7883 71.7416 18.4127 71.7958 18.0337C71.8617 17.5685 72.1324 17.2436 72.5417 17.0304C72.8191 16.8849 73.1202 16.8173 73.4314 16.7783C74.0454 16.7022 74.6594 16.7124 75.2667 16.8274C75.4578 16.8629 75.6388 16.9492 75.8248 17.0135C75.8654 17.0287 75.9044 17.0507 75.9568 17.0761C75.9754 16.978 75.9855 16.8917 76.0092 16.8071C76.0617 16.6108 76.2021 16.5093 76.3932 16.5263C76.5708 16.5432 76.718 16.687 76.7332 16.8697C76.7399 16.9594 76.7298 17.049 76.7264 17.1404C76.7078 17.5989 76.7298 18.054 76.8583 18.4973C76.9175 18.7003 77.0072 18.8865 77.1442 19.0489C77.2508 19.1741 77.3827 19.2553 77.5468 19.2739C77.6314 19.2841 77.7159 19.2908 77.7988 19.2908C78.8695 19.2925 79.9419 19.2925 81.0126 19.2908C81.1141 19.2908 81.2156 19.2807 81.3171 19.279C81.5759 19.2722 81.7805 19.1572 81.9514 18.9711C82.1933 18.7071 82.3134 18.3857 82.3675 18.0439C82.4115 17.7613 82.4284 17.472 82.4436 17.1861C82.4588 16.8934 82.5891 16.7445 82.8817 16.7428C83.7782 16.7394 84.6747 16.7428 85.5711 16.7411C85.8722 16.7411 86.0448 16.9628 86.0042 17.2352C85.9602 17.5329 85.9991 17.8324 86.0735 18.1234C86.2579 18.8492 86.7721 19.2621 87.5366 19.2959C87.7565 19.3061 87.9764 19.2993 88.1963 19.2993C88.9287 19.2993 89.6628 19.2993 90.3952 19.2993C90.5864 19.2993 90.7758 19.2874 90.9517 19.2147C90.9078 19.0404 90.8553 18.8746 90.8232 18.7054C90.7758 18.4584 90.7894 18.2097 90.8418 17.9661C90.9297 17.5532 91.1784 17.2605 91.5421 17.0592C91.7975 16.9188 92.0732 16.8393 92.3607 16.8037C93.0001 16.7225 93.6429 16.7225 94.2823 16.797C94.5986 16.8342 94.8963 16.9323 95.1551 17.1303C95.4342 17.3434 95.5238 17.6294 95.5069 17.9644C95.5018 18.0676 95.446 18.1437 95.3749 18.2114C95.2396 18.3366 95.0756 18.4076 94.903 18.4669C94.1419 18.7308 93.3689 18.9558 92.5908 19.1622C92.5366 19.1775 92.4825 19.1927 92.4267 19.2299C92.4893 19.2418 92.5502 19.2587 92.6128 19.2638C92.8496 19.2773 93.0847 19.2959 93.3215 19.2959C95.0519 19.2993 96.7823 19.2993 98.5143 19.2942C98.7038 19.2942 98.8949 19.2621 99.081 19.2231C99.1622 19.2062 99.245 19.1453 99.3042 19.0827C99.5647 18.8052 99.8218 18.8306 99.9994 19.1622C99.9994 19.2384 99.9994 19.3061 99.9994 19.3737ZM74.196 17.4568C74.1943 17.4636 74.1943 17.4686 74.1926 17.4754C73.9845 17.4873 73.7765 17.494 73.5684 17.5143C73.3215 17.5397 73.0796 17.5905 72.858 17.714C72.6499 17.829 72.5332 18.0033 72.5248 18.2452C72.5214 18.3349 72.5231 18.4246 72.5231 18.5159C72.5265 18.7782 72.65 18.9727 72.8885 19.076C73.0508 19.147 73.2251 19.2045 73.401 19.235C73.8695 19.3179 74.3431 19.3061 74.815 19.2638C75.0502 19.2418 75.2819 19.1927 75.4967 19.0844C75.7149 18.9744 75.8502 18.8069 75.8604 18.5582C75.8654 18.4347 75.8638 18.3112 75.8553 18.1877C75.8435 17.9796 75.7318 17.8256 75.5542 17.7292C75.4358 17.6666 75.309 17.6057 75.1787 17.5837C74.8539 17.5296 74.5241 17.4974 74.196 17.4568ZM91.5928 18.653C92.2728 18.5295 94.4852 17.8645 94.6865 17.7123C94.5833 17.6666 94.4954 17.6125 94.4007 17.5905C94.2484 17.5549 94.0911 17.5211 93.9338 17.5177C93.5279 17.5076 93.1219 17.5059 92.7176 17.5177C92.4571 17.5262 92.2051 17.5888 91.9649 17.6937C91.5945 17.8544 91.4355 18.2655 91.5928 18.653Z" fill="#CDD6FE"/>
<path d="M0 14.3318C0.0304465 14.3014 0.064276 14.2743 0.0896482 14.2405C0.17253 14.1271 0.280785 14.0696 0.421177 14.0679C0.460081 14.0679 0.500676 14.0679 0.53958 14.0679C2.65392 14.0679 4.76658 14.0679 6.88092 14.0679C6.92659 14.0679 6.97057 14.0662 7.01624 14.0696C7.23105 14.0848 7.39174 14.2489 7.39005 14.452C7.38836 14.6753 7.182 14.8174 7.0027 14.8157C6.23647 14.8089 5.47023 14.8123 4.7023 14.8123C4.50609 14.8123 4.30988 14.8123 4.09337 14.8123C4.08999 14.8868 4.08322 14.9528 4.08322 15.0171C4.08322 16.533 4.08322 18.0506 4.08322 19.5666C4.08322 19.6224 4.0866 19.6799 4.07984 19.7358C4.05785 19.9489 3.89885 20.0928 3.69756 20.086C3.49966 20.0792 3.34743 19.9219 3.33897 19.7121C3.33728 19.6613 3.33897 19.6106 3.33897 19.5598C3.33897 18.0489 3.33897 16.5381 3.33897 15.0272C3.33897 14.9612 3.33897 14.8952 3.33897 14.8123C3.2544 14.8123 3.1935 14.8123 3.1343 14.8123C2.25981 14.8123 1.38701 14.8089 0.512517 14.8157C0.30954 14.8174 0.145467 14.7751 0.0439783 14.5856C0.0389039 14.5755 0.0152233 14.5738 0 14.5687C0 14.4892 0 14.4114 0 14.3318Z" fill="#A0ACE3"/>
<path d="M22.8346 24.3817C22.8177 24.3682 22.8024 24.3496 22.7838 24.3428C22.4506 24.2328 22.2933 23.9841 22.2426 23.6525C22.2087 23.4326 22.2206 23.2143 22.2967 23.0028C22.4134 22.6814 22.6705 22.5071 23.0257 22.5071C23.3809 22.5071 23.638 22.6814 23.7513 23.0062C23.8494 23.2871 23.8478 23.5713 23.7564 23.8522C23.6854 24.0738 23.5433 24.2328 23.3234 24.3174C23.2828 24.3327 23.2456 24.358 23.2084 24.38C23.0832 24.3817 22.958 24.3817 22.8346 24.3817ZM23.6651 23.4292C23.6262 23.2837 23.6042 23.1314 23.545 22.9944C23.4536 22.7778 23.276 22.6661 23.0409 22.6594C22.7974 22.6526 22.6113 22.7575 22.5064 22.9758C22.3576 23.282 22.3593 23.6001 22.5081 23.9046C22.6079 24.1076 22.7787 24.2125 23.0122 24.2142C23.2507 24.2176 23.4232 24.1127 23.5365 23.908C23.6177 23.7625 23.6414 23.6001 23.6651 23.4292Z" fill="#A0ACE3"/>
<path d="M40.7301 24.3817C40.6946 24.3648 40.6607 24.3428 40.6252 24.331C40.3698 24.2447 40.2176 24.062 40.1448 23.8065C40.0704 23.5459 40.0738 23.2837 40.1584 23.0248C40.2683 22.6915 40.5271 22.5105 40.8857 22.5071C41.2477 22.5054 41.5082 22.6797 41.6215 23.013C41.7179 23.2989 41.7145 23.5882 41.6164 23.8741C41.542 24.0873 41.4016 24.2396 41.1868 24.3191C41.1462 24.3343 41.109 24.3597 41.0701 24.38C40.955 24.3817 40.8434 24.3817 40.7301 24.3817ZM41.5335 23.4461C41.5115 23.2735 41.4845 23.1145 41.405 22.9673C41.2933 22.7609 41.1174 22.6543 40.8823 22.6577C40.654 22.6611 40.478 22.7643 40.3782 22.969C40.2311 23.2752 40.2294 23.5933 40.3749 23.8995C40.478 24.1161 40.6641 24.221 40.9094 24.2142C41.1479 24.2075 41.3221 24.0941 41.4151 23.8809C41.4743 23.7456 41.4963 23.5916 41.5335 23.4461Z" fill="#A0ACE3"/>
<path d="M17.152 24.3818C17.1115 24.3631 17.0725 24.3395 17.032 24.3242C16.7968 24.2396 16.6514 24.0704 16.5786 23.837C16.4941 23.5663 16.4941 23.2939 16.582 23.0232C16.6954 22.6831 16.9609 22.502 17.328 22.5071C17.6866 22.5122 17.947 22.6949 18.0519 23.0299C18.1365 23.2989 18.1365 23.5747 18.0519 23.8437C17.9809 24.0704 17.8371 24.2363 17.6087 24.3192C17.5682 24.3344 17.5309 24.3598 17.492 24.3801C17.377 24.3818 17.2654 24.3818 17.152 24.3818ZM17.9335 23.436C17.9369 23.2634 17.9064 23.0993 17.8202 22.9487C17.7052 22.7508 17.5309 22.6543 17.3026 22.6594C17.081 22.6645 16.9085 22.7609 16.8087 22.9589C16.6531 23.2702 16.6531 23.5916 16.8019 23.9029C16.9034 24.1144 17.0827 24.2159 17.3212 24.2143C17.5597 24.2126 17.7288 24.1026 17.8371 23.8945C17.9098 23.7507 17.9369 23.5967 17.9335 23.436Z" fill="#A0ACE3"/>
<path d="M25.9127 24.3817C25.8924 24.3716 25.8738 24.358 25.8535 24.3496C25.4814 24.2244 25.3376 23.9368 25.3038 23.5747C25.2835 23.353 25.3054 23.1348 25.4052 22.9318C25.6099 22.5139 26.0057 22.4327 26.3592 22.5646C26.5385 22.6323 26.6536 22.7626 26.6908 22.9774C26.6282 22.9825 26.5757 22.9859 26.5284 22.991C26.3711 22.6966 26.163 22.6002 25.8941 22.6864C25.7452 22.7338 25.642 22.8353 25.5778 22.9724C25.4425 23.2634 25.4374 23.5628 25.5524 23.8589C25.6268 24.0518 25.7808 24.1652 25.982 24.2024C26.1681 24.2362 26.3508 24.2108 26.5318 24.1347C26.5318 23.9503 26.5318 23.7709 26.5318 23.5747C26.3897 23.5747 26.251 23.5747 26.1157 23.5747C26.1038 23.5442 26.0937 23.529 26.0937 23.5138C26.092 23.4918 26.0954 23.4698 26.0988 23.4343C26.295 23.4343 26.4878 23.4343 26.6925 23.4343C26.6925 23.705 26.6925 23.9723 26.6925 24.2565C26.5741 24.2971 26.4472 24.3377 26.322 24.38C26.1833 24.3817 26.048 24.3817 25.9127 24.3817Z" fill="#A0ACE3"/>
<path d="M87.0435 24.3817C87.0216 24.3665 87.0013 24.3445 86.9776 24.3361C86.6647 24.2227 86.5243 23.9774 86.4769 23.6695C86.4414 23.4394 86.4481 23.2076 86.5412 22.9876C86.7255 22.546 87.1197 22.4225 87.5104 22.5629C87.6948 22.6289 87.8199 22.7609 87.8453 22.9808C87.7895 22.9859 87.7404 22.9893 87.6931 22.9927C87.6778 22.9741 87.6643 22.9639 87.6575 22.9504C87.5205 22.6442 87.145 22.5613 86.8846 22.7812C86.5716 23.0468 86.5446 23.7642 86.8372 24.0501C86.9962 24.2041 87.1941 24.2329 87.4021 24.2109C87.4952 24.2007 87.5882 24.1703 87.6863 24.1483C87.6863 23.9588 87.6863 23.7794 87.6863 23.5815C87.5493 23.5815 87.4123 23.5815 87.2651 23.5815C87.2584 23.5273 87.2533 23.4918 87.2448 23.4326C87.4461 23.414 87.6406 23.4241 87.847 23.4258C87.847 23.7084 87.847 23.9808 87.847 24.2616C87.7235 24.3022 87.6017 24.3428 87.4816 24.3834C87.3362 24.3817 87.1907 24.3817 87.0435 24.3817Z" fill="#A0ACE3"/>
<path d="M33.2893 24.3817C33.2402 24.3547 33.1929 24.3276 33.1438 24.2988C32.9899 24.2058 32.8969 24.0755 32.8867 23.8776C32.9408 23.8742 32.9882 23.8708 33.0423 23.8674C33.0576 23.9182 33.066 23.9638 33.0863 24.0011C33.1134 24.0484 33.1438 24.1009 33.1861 24.133C33.3468 24.2599 33.6834 24.2362 33.8323 24.0941C33.9794 23.9537 33.9642 23.7354 33.79 23.6339C33.6885 23.5747 33.5718 23.5476 33.4618 23.502C33.3536 23.4563 33.2369 23.4224 33.1387 23.3598C32.8326 23.1636 32.8495 22.7626 33.1726 22.59C33.3959 22.4699 33.6293 22.4784 33.8542 22.5917C33.9828 22.656 34.0555 22.7643 34.0657 22.9233C34.0116 22.9233 33.9642 22.9233 33.9168 22.9233C33.7967 22.6459 33.428 22.5646 33.1996 22.7626C33.0694 22.8759 33.066 23.0841 33.2081 23.189C33.2927 23.2516 33.3942 23.2922 33.4923 23.3328C33.6005 23.3784 33.7172 23.4055 33.8238 23.4546C34.042 23.5544 34.1164 23.683 34.1029 23.9063C34.0911 24.1195 33.9676 24.243 33.7764 24.3141C33.724 24.3327 33.6749 24.3581 33.6242 24.38C33.5143 24.3817 33.4026 24.3817 33.2893 24.3817Z" fill="#A0ACE3"/>
<path d="M95.7381 24.3818C95.711 24.3648 95.6839 24.3411 95.6552 24.331C95.4049 24.2413 95.2645 24.0535 95.1968 23.8065C95.1258 23.551 95.1258 23.2922 95.2053 23.0401C95.3575 22.5562 95.7787 22.4259 96.1846 22.5528C96.3707 22.6103 96.4857 22.7423 96.5094 22.9538C96.4569 22.9572 96.4079 22.9606 96.3639 22.9639C96.1965 22.6848 96.0019 22.6019 95.7347 22.6865C95.6163 22.7237 95.5199 22.7947 95.4624 22.9013C95.2729 23.2533 95.2678 23.6153 95.4573 23.9655C95.574 24.1821 95.8362 24.265 96.073 24.194C96.2201 24.15 96.3064 24.0468 96.3605 23.9114C96.4163 23.9114 96.4637 23.9114 96.5246 23.9114C96.4891 24.1043 96.3758 24.2193 96.2201 24.3022C96.1711 24.3276 96.1254 24.3564 96.0764 24.3818C95.963 24.3818 95.8514 24.3818 95.7381 24.3818Z" fill="#A0ACE3"/>
<path d="M8.25529 24.3818C8.23837 24.3682 8.22315 24.3496 8.20454 24.3428C7.90008 24.2363 7.74785 24.0045 7.69541 23.7016C7.65312 23.4664 7.65989 23.2296 7.74277 23.0012C7.91023 22.5359 8.33986 22.4293 8.71706 22.5545C8.90312 22.6154 8.98939 22.7322 9.02998 22.9538C8.97586 22.9572 8.92342 22.9606 8.8676 22.9639C8.80163 22.7457 8.64771 22.6611 8.44304 22.6594C8.22653 22.6577 8.054 22.7474 7.95928 22.942C7.80028 23.2702 7.79859 23.6086 7.96097 23.9368C8.07599 24.1669 8.3331 24.2667 8.58005 24.199C8.73398 24.1584 8.83208 24.0569 8.88113 23.9114C8.93864 23.9114 8.9877 23.9114 9.04521 23.9114C9.00969 24.106 8.89636 24.221 8.74074 24.3039C8.69169 24.3293 8.64433 24.3564 8.59527 24.3818C8.48025 24.3818 8.36862 24.3818 8.25529 24.3818Z" fill="#A0ACE3"/>
<path d="M65.1602 2.18394C66.1447 2.20425 67.1308 2.2144 68.1152 2.24824C69.2367 2.28546 70.3564 2.33114 71.4762 2.39543C72.7752 2.46988 74.0726 2.58662 75.3632 2.76765C76.3121 2.89962 77.256 3.06035 78.1761 3.33613C78.533 3.44272 78.8848 3.56284 79.2096 3.74895C79.3703 3.84032 79.5276 3.94691 79.6612 4.07211C79.9556 4.34958 79.9843 4.67442 79.7374 4.99419C79.6189 5.14816 79.4718 5.28689 79.3162 5.40702C78.8679 5.75555 78.3554 5.99411 77.8378 6.21575C76.7688 6.67256 75.6609 7.01602 74.5445 7.33071C72.7922 7.82305 71.0195 8.2308 69.235 8.57933C67.7922 8.86188 66.3476 9.12751 64.8997 9.38129C63.7952 9.57417 62.6873 9.73998 61.5777 9.90409C60.414 10.0767 59.2468 10.2408 58.0797 10.3981C57.1359 10.525 56.1903 10.6367 55.2448 10.75C54.4058 10.8516 53.5669 10.9497 52.7262 11.041C51.9194 11.129 51.1125 11.2102 50.304 11.2914C49.5412 11.3676 48.7783 11.4437 48.0154 11.5131C47.3202 11.5774 46.6234 11.6366 45.9265 11.6941C45.2922 11.7483 44.6579 11.799 44.0219 11.8498C43.5043 11.8904 42.9884 11.9276 42.4708 11.9631C41.7012 12.0173 40.9299 12.0697 40.1602 12.1188C39.4972 12.1611 38.8324 12.1983 38.1677 12.2355C37.3795 12.2778 36.5912 12.3184 35.803 12.3557C35.1552 12.3861 34.5073 12.4166 33.8595 12.4352C32.3439 12.4809 30.8284 12.5333 29.3128 12.5553C27.7973 12.5773 26.28 12.5756 24.7627 12.5671C23.7766 12.5621 22.7905 12.5367 21.8044 12.4995C20.8081 12.4622 19.8118 12.4098 18.8155 12.3421C18.0002 12.288 17.1866 12.2169 16.373 12.1289C15.096 11.9919 13.824 11.8109 12.5841 11.4573C12.1833 11.3422 11.7891 11.2052 11.4238 11.0004C11.3375 10.9514 11.2546 10.8939 11.1836 10.816C11.2157 10.8211 11.2479 10.8228 11.2783 10.8313C12.053 11.0394 12.8429 11.1612 13.6379 11.2559C15.5324 11.4826 17.4353 11.5757 19.3399 11.5994C20.9569 11.6197 22.5757 11.6248 24.1927 11.6061C25.6643 11.5875 27.1342 11.5368 28.6041 11.4809C29.8659 11.4336 31.1261 11.3608 32.3879 11.2931C33.3724 11.239 34.3568 11.1798 35.3412 11.1121C36.3189 11.0444 37.2966 10.9666 38.2742 10.8905C39.01 10.8329 39.7458 10.7737 40.4816 10.7094C41.2732 10.6401 42.0631 10.5622 42.8548 10.4878C43.4721 10.4286 44.0895 10.3694 44.7052 10.3068C45.3886 10.2357 46.0719 10.1613 46.7553 10.0868C47.3879 10.0174 48.0205 9.9447 48.6531 9.87025C49.257 9.79919 49.8625 9.72813 50.4647 9.652C51.1244 9.56909 51.784 9.48281 52.442 9.39483C53.1338 9.30177 53.8274 9.20872 54.5175 9.11059C55.3209 8.99554 56.1227 8.87711 56.9244 8.75191C57.7922 8.61655 58.6599 8.4812 59.5259 8.33231C60.5087 8.16312 61.4897 7.99055 62.4691 7.80444C64.9978 7.32225 67.5148 6.7893 69.9826 6.04486C70.8503 5.78262 71.7096 5.49161 72.53 5.10078C72.8463 4.9502 73.1575 4.78778 73.4265 4.56276C73.5466 4.46294 73.6582 4.34619 73.7478 4.2193C73.8967 4.00274 73.8713 3.79802 73.6954 3.60176C73.5618 3.45118 73.3909 3.35305 73.2116 3.26676C72.8226 3.08065 72.4116 2.9656 71.9938 2.87086C71.1903 2.68813 70.3767 2.56462 69.5581 2.49356C68.5584 2.40728 67.5587 2.33791 66.5574 2.26854C66.0905 2.23639 65.6237 2.22455 65.1568 2.20425C65.1602 2.1941 65.1602 2.18902 65.1602 2.18394Z" fill="#A0ACE3"/>
<path d="M54.2995 3.46308C53.085 3.70333 51.8807 3.93681 50.6915 4.24643C50.1469 4.38855 49.6039 4.54251 49.083 4.75569C48.9121 4.82675 48.7464 4.91135 48.5823 4.99933C48.5095 5.03824 48.4419 5.09577 48.3844 5.15667C48.2846 5.26496 48.2964 5.35801 48.4182 5.43753C48.4842 5.47983 48.5569 5.51705 48.633 5.53228C48.8817 5.58134 49.1303 5.63887 49.3807 5.66086C50.1181 5.72515 50.8556 5.71839 51.5948 5.67947C52.2257 5.64733 52.8566 5.61518 53.4842 5.56104C54.1912 5.50013 54.8982 5.42399 55.6019 5.3394C56.2903 5.2565 56.9771 5.16344 57.6621 5.05854C59.4889 4.776 61.3055 4.44777 63.0765 3.90467C63.4148 3.80146 63.7446 3.66611 64.0711 3.53076C64.2098 3.47323 64.3417 3.38864 64.4585 3.29389C64.6293 3.15685 64.6107 3.03672 64.4179 2.93013C64.3857 2.91321 64.3519 2.89798 64.2842 2.86584C64.5092 2.86584 64.6936 2.85738 64.8762 2.86753C65.4395 2.89629 66.0028 2.93013 66.5576 3.03334C66.7893 3.07563 67.0193 3.13654 67.246 3.20422C67.3576 3.23806 67.4659 3.2922 67.564 3.35649C67.7957 3.50876 67.8245 3.70333 67.6333 3.90805C67.5268 4.02141 67.4033 4.128 67.268 4.20413C66.999 4.3564 66.7233 4.50191 66.4409 4.62372C65.5596 5.00271 64.6428 5.2768 63.7193 5.53058C62.0515 5.99078 60.3651 6.36638 58.6652 6.68446C57.4084 6.91964 56.1499 7.14297 54.8881 7.34769C53.8428 7.51688 52.794 7.66069 51.7436 7.80281C50.8675 7.92124 49.9896 8.02783 49.11 8.12766C48.3878 8.20887 47.6638 8.27993 46.9399 8.34422C46.1652 8.41359 45.3905 8.47788 44.6141 8.53371C44.0068 8.5777 43.3996 8.60816 42.7907 8.63523C41.676 8.68429 40.5596 8.70459 39.4432 8.67076C38.7278 8.64876 38.0123 8.61154 37.3069 8.4745C37.087 8.4322 36.8688 8.37129 36.6557 8.30023C36.5407 8.26132 36.429 8.19702 36.3326 8.12258C36.1719 7.99907 36.1516 7.84003 36.2751 7.67761C36.3529 7.5761 36.4476 7.47796 36.5542 7.41198C36.7978 7.2614 37.0464 7.11421 37.3052 6.99408C38.0427 6.65232 38.8157 6.40699 39.5938 6.17858C41.155 5.71839 42.7399 5.34448 44.3367 5.02978C45.6628 4.76923 46.9923 4.52559 48.3235 4.2955C49.2453 4.13646 50.1706 4.00449 51.0958 3.87252C51.9991 3.74394 52.9057 3.63058 53.8106 3.51384C53.9764 3.49353 54.1388 3.48 54.2995 3.46308Z" fill="#CDD6FE"/>
<path d="M51.0052 22.8015C51.0052 23.3023 51.0052 23.8031 51.0052 24.3191C50.9494 24.3225 50.9037 24.3259 50.8496 24.331C50.8496 23.732 50.8496 23.1483 50.8496 22.5562C50.9342 22.5562 51.012 22.5562 51.1033 22.5562C51.3181 23.0519 51.5347 23.551 51.7681 24.0907C52.0049 23.5561 52.2265 23.057 52.4464 22.5579C52.5343 22.5579 52.6104 22.5579 52.695 22.5579C52.695 23.1466 52.695 23.7253 52.695 24.3073C52.6798 24.3157 52.6663 24.3293 52.651 24.331C52.6189 24.3327 52.5868 24.3276 52.5428 24.3259C52.5428 23.8065 52.5428 23.2938 52.5428 22.788C52.5259 22.7812 52.5225 22.7778 52.5174 22.7778C52.5123 22.7778 52.5073 22.7795 52.5039 22.7829C52.4988 22.7863 52.4937 22.7896 52.492 22.7947C52.2789 23.304 52.0675 23.8133 51.856 24.3174C51.692 24.3428 51.6903 24.3428 51.6345 24.2092C51.4619 23.7929 51.2894 23.3767 51.1169 22.9605C51.0932 22.9047 51.0678 22.8506 51.0424 22.7964C51.0289 22.7964 51.0171 22.7981 51.0052 22.8015Z" fill="#A0ACE3"/>
<path d="M54.3965 24.3344C54.3965 23.732 54.3965 23.1534 54.3965 22.5646C54.4337 22.5579 54.4692 22.5477 54.5064 22.5477C54.7026 22.5477 54.9005 22.5409 55.0968 22.5528C55.3792 22.5714 55.5552 22.788 55.5162 23.0553C55.4943 23.2126 55.3894 23.3108 55.2422 23.3903C55.2845 23.4123 55.3133 23.4275 55.342 23.441C55.5484 23.5459 55.6262 23.705 55.589 23.9435C55.5585 24.1449 55.4215 24.287 55.2084 24.3141C55.0579 24.3327 54.9056 24.3293 54.7534 24.3327C54.6401 24.3361 54.5284 24.3344 54.3965 24.3344ZM54.5606 24.1889C54.772 24.1787 54.9733 24.1821 55.1712 24.1533C55.3437 24.128 55.4148 24.018 55.4181 23.8437C55.4215 23.6694 55.3522 23.5612 55.1864 23.5189C54.9851 23.4681 54.7771 23.4715 54.5606 23.4918C54.5606 23.7185 54.5606 23.9351 54.5606 24.1889ZM54.5572 22.6966C54.5487 22.9149 54.5403 23.1179 54.5639 23.3429C54.7585 23.3294 54.9378 23.3311 55.1103 23.3006C55.271 23.2719 55.3471 23.15 55.3437 22.9961C55.3403 22.8472 55.2625 22.7575 55.1018 22.7169C54.9276 22.6746 54.75 22.6966 54.5572 22.6966Z" fill="#A0ACE3"/>
<path d="M93.4023 24.04C93.4023 23.5527 93.4023 23.0637 93.4023 22.5613C93.4598 22.5579 93.5054 22.5545 93.5613 22.5511C93.5613 23.145 93.5613 23.7236 93.5613 24.3039C93.3972 24.3614 93.3769 24.3564 93.2906 24.2176C93.0335 23.8065 92.7764 23.3954 92.5193 22.9842C92.4906 22.9385 92.4584 22.8962 92.3958 22.859C92.3958 23.3446 92.3958 23.8302 92.3958 24.3242C92.335 24.3242 92.2927 24.3242 92.2402 24.3242C92.2402 23.732 92.2402 23.1483 92.2402 22.5663C92.3603 22.519 92.4314 22.5579 92.4956 22.6611C92.7511 23.079 93.0149 23.4935 93.2754 23.908C93.3059 23.9554 93.3363 24.0011 93.3684 24.0467C93.3786 24.0451 93.3904 24.0417 93.4023 24.04Z" fill="#A0ACE3"/>
<path d="M71.1914 22.5663C71.3183 22.5189 71.3893 22.5612 71.4519 22.6645C71.7073 23.0824 71.9695 23.4969 72.23 23.9114C72.2587 23.9588 72.2909 24.0044 72.3365 24.0704C72.3805 23.9317 72.3551 23.8099 72.3585 23.6931C72.3636 23.5645 72.3602 23.4343 72.3602 23.304C72.3602 23.1805 72.3602 23.057 72.3602 22.9318C72.3602 22.8083 72.3602 22.6864 72.3602 22.5562C72.4194 22.5562 72.4634 22.5562 72.5158 22.5562C72.5158 23.145 72.5158 23.727 72.5158 24.309C72.3315 24.353 72.3298 24.353 72.2384 24.2092C71.9847 23.8031 71.731 23.397 71.4773 22.991C71.4485 22.9436 71.4164 22.8996 71.3538 22.8573C71.3521 23.0164 71.3504 23.1737 71.3504 23.3328C71.3504 23.4969 71.3504 23.6593 71.3504 23.8234C71.3504 23.9858 71.3504 24.1482 71.3504 24.3225C71.2912 24.3225 71.2455 24.3225 71.1914 24.3225C71.1914 23.7303 71.1914 23.1517 71.1914 22.5663Z" fill="#A0ACE3"/>
<path d="M62.9954 22.5562C63.0563 22.5562 63.0985 22.5562 63.151 22.5562C63.151 23.1433 63.151 23.727 63.151 24.309C62.9683 24.3513 62.9683 24.3513 62.877 24.2041C62.6249 23.8031 62.3746 23.4021 62.1243 23.0011C62.0955 22.9555 62.0634 22.9115 62.016 22.8692C61.9788 23.3497 62.0025 23.8285 61.9873 24.3191C61.9382 24.3242 61.8959 24.3276 61.8418 24.3327C61.8418 23.7371 61.8418 23.1551 61.8418 22.5714C62.0042 22.5325 62.0059 22.5325 62.0854 22.6577C62.3408 23.062 62.5945 23.4681 62.8482 23.8742C62.8837 23.9317 62.9209 23.9875 62.9683 24.0637C63.019 23.93 62.9886 23.8099 62.9937 23.6931C62.9987 23.5645 62.9954 23.4343 62.9954 23.304C62.9954 23.1805 62.9954 23.0553 62.9954 22.9318C62.9954 22.81 62.9954 22.6864 62.9954 22.5562Z" fill="#A0ACE3"/>
<path d="M14.7605 24.0332C14.7605 23.5443 14.7605 23.0553 14.7605 22.5579C14.8163 22.5545 14.8586 22.5528 14.911 22.5494C14.911 23.1433 14.911 23.727 14.911 24.309C14.7334 24.353 14.7317 24.353 14.6387 24.2041C14.3867 23.8031 14.1363 23.4021 13.886 23.0012C13.8572 22.9538 13.8251 22.9081 13.7794 22.8371C13.7422 23.0215 13.7642 23.1822 13.7591 23.3395C13.7557 23.4969 13.7591 23.6559 13.7591 23.8133C13.7591 23.9757 13.7591 24.1398 13.7591 24.3192C13.705 24.3242 13.6593 24.3276 13.6035 24.3327C13.6035 23.7321 13.6035 23.1484 13.6035 22.5663C13.7253 22.5156 13.7913 22.563 13.8539 22.6645C14.1093 23.0824 14.3731 23.4969 14.6336 23.9114C14.6624 23.9571 14.6945 24.0011 14.725 24.0468C14.7368 24.0417 14.7486 24.0366 14.7605 24.0332Z" fill="#A0ACE3"/>
<path d="M43.4813 24.3225C43.4136 24.3225 43.373 24.3225 43.3223 24.3225C43.3223 23.7304 43.3223 23.1467 43.3223 22.5629C43.6014 22.5629 43.872 22.5443 44.1376 22.568C44.3574 22.5883 44.4759 22.744 44.4962 22.9538C44.5131 23.1213 44.4539 23.2516 44.3067 23.3361C44.2796 23.3531 44.2509 23.3683 44.2035 23.3954C44.4065 23.4816 44.4454 23.6458 44.4589 23.8285C44.4708 23.9909 44.4962 24.1516 44.5164 24.3225C44.4674 24.3225 44.42 24.3225 44.3473 24.3225C44.327 24.1719 44.305 24.0247 44.2881 23.8759C44.2475 23.5172 44.2086 23.4817 43.8449 23.4817C43.7282 23.4817 43.6115 23.4817 43.4796 23.4817C43.4813 23.7659 43.4813 24.0349 43.4813 24.3225ZM43.483 23.3277C43.6487 23.3277 43.7959 23.3294 43.9413 23.3277C43.9803 23.3277 44.0192 23.3192 44.0581 23.3108C44.2492 23.2702 44.327 23.1771 44.3236 22.9995C44.3202 22.8303 44.2306 22.7203 44.0428 22.7051C43.8618 22.6898 43.6775 22.7017 43.4846 22.7017C43.483 22.9132 43.483 23.1128 43.483 23.3277Z" fill="#A0ACE3"/>
<path d="M10.6289 22.5528C10.683 22.5528 10.7219 22.5528 10.7811 22.5528C10.7811 22.8083 10.7811 23.057 10.7811 23.3175C11.1093 23.3175 11.4154 23.3175 11.7453 23.3175C11.7453 23.0637 11.7453 22.815 11.7453 22.5562C11.8096 22.5562 11.8518 22.5562 11.9043 22.5562C11.9043 23.1433 11.9043 23.727 11.9043 24.3225C11.8586 24.3242 11.818 24.3276 11.7554 24.331C11.7554 24.0467 11.7554 23.7743 11.7554 23.4884C11.429 23.4884 11.1228 23.4884 10.8048 23.4884C10.7642 23.6204 10.7913 23.7608 10.7862 23.8979C10.7811 24.0332 10.7845 24.1669 10.7845 24.3174C10.7321 24.3225 10.6847 24.3259 10.6289 24.331C10.6289 23.7337 10.6289 23.15 10.6289 22.5528Z" fill="#A0ACE3"/>
<path d="M5.22452 23.48C5.22452 23.7202 5.22452 23.9368 5.22452 24.172C5.52729 24.172 5.82838 24.172 6.1413 24.172C6.1413 24.2312 6.1413 24.2718 6.1413 24.3225C5.78609 24.3225 5.43257 24.3225 5.08244 24.3225C5.04522 24.2024 5.03338 22.8286 5.06552 22.5731C5.18731 22.5393 5.91126 22.5308 6.10916 22.5647C6.10916 22.5985 6.10916 22.6357 6.10916 22.6899C5.81654 22.6899 5.52729 22.6899 5.22621 22.6899C5.22621 22.9081 5.22621 23.1078 5.22621 23.3277C5.50869 23.3277 5.78778 23.3277 6.07364 23.3277C6.07364 23.3835 6.07364 23.4208 6.07364 23.4783C5.78947 23.48 5.51038 23.48 5.22452 23.48Z" fill="#A0ACE3"/>
<path d="M59.1445 22.5528C59.4964 22.5528 59.8347 22.5528 60.1848 22.5528C60.1882 22.5951 60.1899 22.634 60.1949 22.6915C59.8972 22.6915 59.6114 22.6915 59.3154 22.6915C59.3154 22.9064 59.3154 23.106 59.3154 23.3226C59.5911 23.3226 59.8651 23.3226 60.151 23.3226C60.1543 23.3784 60.156 23.419 60.1594 23.48C59.8719 23.48 59.5995 23.48 59.3137 23.48C59.3137 23.7151 59.3137 23.9334 59.3137 24.1719C59.4558 24.1889 59.6063 24.177 59.7568 24.1787C59.9091 24.1804 60.0596 24.1787 60.2254 24.1787C60.2288 24.2278 60.2321 24.2684 60.2355 24.3208C59.8651 24.3208 59.5082 24.3208 59.1445 24.3208C59.1445 23.7321 59.1445 23.1534 59.1445 22.5528Z" fill="#A0ACE3"/>
<path d="M49.3715 24.3175C49.2007 24.3327 49.199 24.3327 49.1533 24.2227C49.1042 24.1043 49.0569 23.9842 49.0061 23.8573C48.7169 23.8573 48.431 23.8573 48.1249 23.8573C48.0758 23.9774 48.02 24.106 47.9743 24.2363C47.9405 24.3344 47.883 24.3547 47.7832 24.3141C47.7934 24.2769 47.8001 24.2396 47.8137 24.2058C48.0132 23.6982 48.2145 23.1924 48.4158 22.6848C48.4733 22.5376 48.475 22.5376 48.6695 22.5613C48.9013 23.1365 49.133 23.7185 49.3715 24.3175ZM48.5816 22.744C48.5697 22.7474 48.5596 22.7491 48.5478 22.7525C48.4869 22.9098 48.4243 23.0655 48.3634 23.2228C48.3042 23.3768 48.2331 23.5257 48.1909 23.6949C48.448 23.6949 48.6831 23.6949 48.9453 23.6949C48.8218 23.3666 48.7017 23.0553 48.5816 22.744Z" fill="#A0ACE3"/>
<path d="M31.3711 24.1703C31.3677 24.2363 31.366 24.2769 31.3626 24.3226C30.9973 24.3226 30.6454 24.3226 30.2852 24.3226C30.2852 23.7338 30.2852 23.1551 30.2852 22.5765C30.4036 22.5376 30.9973 22.5274 31.3203 22.5579C31.3237 22.5951 31.3271 22.6357 31.3305 22.6932C31.0328 22.6932 30.7469 22.6932 30.4526 22.6932C30.4526 22.9098 30.4526 23.1095 30.4526 23.3277C30.7317 23.3277 31.004 23.3277 31.2899 23.3277C31.2933 23.3819 31.295 23.4174 31.2967 23.4783C31.0125 23.4783 30.7334 23.4783 30.4492 23.4783C30.4492 23.7202 30.4492 23.9385 30.4492 24.1703C30.752 24.1703 31.048 24.1703 31.3711 24.1703Z" fill="#A0ACE3"/>
<path d="M98.1094 22.5528C98.4629 22.5528 98.7995 22.5528 99.1496 22.5528C99.153 22.5951 99.1547 22.6357 99.1598 22.6915C98.8621 22.6915 98.5762 22.6915 98.2802 22.6915C98.2802 22.9081 98.2802 23.1077 98.2802 23.3243C98.5559 23.3243 98.8282 23.3243 99.1124 23.3243C99.1175 23.3767 99.1209 23.414 99.1259 23.4749C98.8401 23.4749 98.5627 23.4749 98.2768 23.4749C98.2768 23.7168 98.2768 23.9351 98.2768 24.1736C98.5796 24.1736 98.8807 24.1736 99.1885 24.1736C99.1885 24.2295 99.1885 24.2684 99.1885 24.3242C98.8282 24.3411 98.4713 24.3361 98.1094 24.3259C98.1094 23.732 98.1094 23.1517 98.1094 22.5528Z" fill="#A0ACE3"/>
<path d="M76.791 22.5545C77.1445 22.5545 77.4845 22.5545 77.8347 22.5545C77.8347 22.6002 77.8347 22.6357 77.8347 22.6898C77.5454 22.6898 77.2612 22.6898 76.9602 22.6898C76.9314 22.9047 76.95 23.1043 76.9466 23.326C77.2342 23.3395 77.5133 23.3243 77.7991 23.3344C77.7991 23.3818 77.7991 23.419 77.7991 23.4783C77.52 23.4783 77.2426 23.4783 76.9551 23.4783C76.9551 23.7202 76.9551 23.9385 76.9551 24.1753C77.2579 24.1753 77.5606 24.1753 77.8685 24.1753C77.8685 24.2312 77.8685 24.2684 77.8685 24.3242C77.5099 24.3428 77.1547 24.3344 76.791 24.331C76.791 23.7337 76.791 23.1551 76.791 22.5545Z" fill="#A0ACE3"/>
<path d="M89.5508 22.5545C89.9026 22.5545 90.2375 22.5545 90.5876 22.5545C90.591 22.5968 90.5927 22.6374 90.5961 22.6949C90.2984 22.6949 90.0142 22.6949 89.7199 22.6949C89.7199 22.9115 89.7199 23.1111 89.7199 23.3277C89.999 23.3277 90.2713 23.3277 90.5572 23.3277C90.5606 23.3801 90.5623 23.4173 90.564 23.4783C90.2798 23.4783 90.0024 23.4783 89.7165 23.4783C89.7165 23.7202 89.7165 23.9385 89.7165 24.1753C90.021 24.1753 90.3221 24.1753 90.6299 24.1753C90.6299 24.2312 90.6299 24.2684 90.6299 24.331C90.268 24.3344 89.9128 24.3327 89.5508 24.331C89.5508 23.732 89.5508 23.1534 89.5508 22.5545Z" fill="#A0ACE3"/>
<path d="M38.5545 23.3226C38.5545 23.3801 38.5545 23.4173 38.5545 23.4681C38.2906 23.4681 38.0335 23.4681 37.7527 23.4681C37.7443 23.7557 37.7527 24.0298 37.7477 24.3191C37.6969 24.3225 37.6513 24.3259 37.5938 24.331C37.5938 23.732 37.5938 23.1483 37.5938 22.5562C37.927 22.5562 38.25 22.5562 38.5833 22.5562C38.5833 22.5985 38.5833 22.6357 38.5833 22.6881C38.3143 22.6881 38.0471 22.6881 37.7612 22.6881C37.7375 22.903 37.7544 23.101 37.7494 23.3226C38.0251 23.3226 38.2872 23.3226 38.5545 23.3226Z" fill="#A0ACE3"/>
<path d="M65.1983 22.6949C65.0021 22.6949 64.8245 22.6949 64.6367 22.6949C64.6367 22.6425 64.6367 22.6069 64.6367 22.5579C65.0647 22.5579 65.4892 22.5579 65.9222 22.5579C65.9256 22.5832 65.9307 22.6035 65.9324 22.6255C65.9324 22.6408 65.9273 22.6577 65.9206 22.6915C65.7446 22.6915 65.567 22.6915 65.3725 22.6915C65.3725 23.2414 65.3725 23.7743 65.3725 24.3208C65.3099 24.3208 65.2643 24.3208 65.2 24.3208C65.1983 23.7777 65.1983 23.2448 65.1983 22.6949Z" fill="#A0ACE3"/>
<path d="M74.5681 22.6949C74.3634 22.6949 74.1858 22.6949 73.998 22.6949C73.998 22.6425 73.998 22.6069 73.998 22.5579C74.4226 22.5579 74.8455 22.5579 75.2785 22.5579C75.2835 22.5782 75.2903 22.5985 75.292 22.6205C75.2937 22.6357 75.2869 22.6526 75.2819 22.6881C75.1059 22.6881 74.93 22.6881 74.7288 22.6881C74.7254 23.238 74.7287 23.7693 74.7271 24.3174C74.6763 24.3225 74.6306 24.3276 74.5681 24.3344C74.5681 23.7862 74.5681 23.2549 74.5681 22.6949Z" fill="#A0ACE3"/>
<path d="M19.7324 24.3242C19.7324 23.7253 19.7324 23.1483 19.7324 22.5596C19.7815 22.5545 19.8221 22.5511 19.883 22.546C19.883 23.0874 19.883 23.6187 19.883 24.1736C20.1874 24.1855 20.4767 24.1736 20.7761 24.1821C20.7761 24.2328 20.7761 24.2735 20.7761 24.3242C20.4276 24.3242 20.0876 24.3242 19.7324 24.3242Z" fill="#A0ACE3"/>
<path d="M3.00194 22.6915C3.00194 23.2448 3.00194 23.7726 3.00194 24.3174C2.94612 24.3225 2.90045 24.3276 2.83787 24.3327C2.83787 23.7845 2.83787 23.2515 2.83787 22.6983C2.64166 22.6983 2.45898 22.6983 2.26953 22.6983C2.26953 22.6408 2.26953 22.6035 2.26953 22.5562C2.69409 22.5562 3.11358 22.5562 3.5466 22.5562C3.54998 22.5951 3.55167 22.6357 3.55505 22.6915C3.37068 22.6915 3.19815 22.6915 3.00194 22.6915Z" fill="#A0ACE3"/>
<path d="M79.6528 24.1787C79.964 24.1787 80.2448 24.1787 80.5374 24.1787C80.5374 24.2295 80.5374 24.2701 80.5374 24.3225C80.1957 24.3225 79.854 24.3225 79.5039 24.3225C79.5039 23.7321 79.5039 23.1484 79.5039 22.563C79.5225 22.5579 79.5377 22.5477 79.553 22.5477C79.58 22.5477 79.6088 22.5528 79.6528 22.5562C79.6528 23.0942 79.6528 23.6255 79.6528 24.1787Z" fill="#A0ACE3"/>
<path d="M82.2388 22.5477C82.2388 23.1061 82.2388 23.6339 82.2388 24.177C82.5365 24.177 82.8224 24.177 83.1167 24.177C83.1167 24.2346 83.1167 24.2752 83.1167 24.3242C82.7682 24.3242 82.4283 24.3242 82.0781 24.3242C82.0781 23.7354 82.0781 23.1568 82.0781 22.5613C82.1238 22.5562 82.1695 22.5528 82.2388 22.5477Z" fill="#A0ACE3"/>
<path d="M84.6855 22.5342C84.7414 22.5393 84.7837 22.5427 84.831 22.5477C84.831 23.1416 84.831 23.7253 84.831 24.3192C84.7837 24.3242 84.7414 24.3276 84.6855 24.3327C84.6855 23.7338 84.6855 23.1467 84.6855 22.5342Z" fill="#A0ACE3"/>
<path d="M69.3359 22.5409C69.3918 22.5409 69.4307 22.5409 69.4797 22.5409C69.4797 23.1314 69.4797 23.7202 69.4797 24.3191C69.434 24.3191 69.3901 24.3191 69.3359 24.3191C69.3359 23.7253 69.3359 23.1432 69.3359 22.5409Z" fill="#A0ACE3"/>
<path d="M57.4063 24.3259C57.3555 24.3259 57.3166 24.3259 57.2676 24.3259C57.2676 23.7321 57.2676 23.1467 57.2676 22.5477C57.3116 22.5444 57.3522 22.541 57.4063 22.5359C57.4063 23.1348 57.4063 23.7219 57.4063 24.3259Z" fill="#A0ACE3"/>
<path d="M28.5465 24.3259C28.4958 24.3259 28.4569 24.3259 28.3943 24.3259C28.3909 23.7321 28.3943 23.1467 28.3926 22.5494C28.4501 22.5444 28.4907 22.541 28.5448 22.5359C28.5465 23.1348 28.5465 23.7219 28.5465 24.3259Z" fill="#A0ACE3"/>
<path d="M59.5233 17.0896C59.5233 16.9154 59.5216 16.7394 59.5064 16.5652C59.415 15.479 58.8788 14.7193 57.8453 14.3318C57.4089 14.1677 56.9505 14.1051 56.4905 14.0628C55.8426 14.0036 55.1948 14.0155 54.5503 14.095C54.1698 14.1424 53.7942 14.2134 53.4357 14.3572C52.507 14.7261 51.9861 15.4096 51.8575 16.3977C51.8406 16.5246 51.8288 16.6514 51.8118 16.7936C51.8068 16.7936 51.8 16.7936 51.7949 16.7936V17.5549C51.8034 17.5566 51.8135 17.5583 51.8237 17.5583C51.8237 17.6328 51.8237 17.6937 51.8237 17.7546C51.8237 18.2334 51.8237 18.7139 51.8237 19.1927C51.8237 19.3568 51.8203 19.5192 51.8254 19.6833C51.8304 19.8694 51.9658 20.02 52.1417 20.0454C52.3244 20.0708 52.5003 19.9524 52.5493 19.7645C52.5645 19.7053 52.5662 19.6427 52.5679 19.5801C52.5696 19.2079 52.5679 18.8357 52.5696 18.4635C52.5696 18.4093 52.5747 18.3552 52.5781 18.3044C52.9062 18.2689 58.6522 18.2841 58.7824 18.3214C58.7824 18.3789 58.7824 18.4415 58.7824 18.5024C58.7824 18.8526 58.7824 19.2011 58.7824 19.5514C58.7824 19.6021 58.7824 19.6529 58.7875 19.7036C58.8112 19.905 58.9685 20.0488 59.1613 20.0471C59.3524 20.0437 59.5097 19.8931 59.525 19.6935C59.5283 19.6427 59.5267 19.592 59.5267 19.5412C59.5233 18.7257 59.525 17.9085 59.5233 17.0896ZM58.7756 17.5363C56.6985 17.5363 54.6451 17.5363 52.5933 17.5363C52.5831 17.5211 52.573 17.5126 52.573 17.5042C52.5815 17.1269 52.5645 16.7479 52.6068 16.374C52.6643 15.863 52.9265 15.4688 53.3849 15.2133C53.7553 15.0069 54.1528 14.8919 54.5689 14.8394C55.3166 14.7464 56.0642 14.7481 56.8118 14.8411C57.1873 14.8885 57.5493 14.9866 57.8893 15.1643C58.3748 15.4197 58.6505 15.819 58.7367 16.3554C58.7959 16.7411 58.779 17.1303 58.7756 17.5363Z" fill="#CDD6FE"/>
<path d="M51.8611 16.3621C51.8594 16.374 51.8577 16.3858 51.856 16.3977C51.8391 16.5246 51.8273 16.6514 51.8103 16.7936C51.7342 16.7936 51.6683 16.7936 51.6006 16.7936C50.3438 16.7936 49.0854 16.7936 47.8286 16.7936C47.6933 16.7936 47.558 16.7936 47.4227 16.8037C47.1453 16.8257 46.8729 16.8714 46.6378 17.0321C46.5718 17.0778 46.5194 17.0643 46.4501 17.0406C46.2589 16.9746 46.0678 16.9018 45.8699 16.868C45.2711 16.7648 44.6689 16.7716 44.0668 16.8426C43.786 16.8765 43.512 16.9441 43.2582 17.0744C42.8844 17.2639 42.6121 17.5448 42.5106 17.9627C42.426 18.3095 42.4345 18.6564 42.5292 18.9998C42.5529 19.0844 42.5901 19.1673 42.6223 19.2536C42.4294 19.3399 42.2315 19.3416 42.0353 19.3416C41.0712 19.3416 40.107 19.3416 39.1429 19.3416C39.0634 19.3416 38.9856 19.3416 38.9061 19.3399C38.7369 19.3365 38.6152 19.2536 38.5407 19.1081C38.5035 19.0336 38.4714 18.9507 38.4629 18.8695C38.4426 18.6851 38.4375 18.499 38.4274 18.3146C38.4122 18.0168 38.3496 17.736 38.1669 17.4889C37.9572 17.203 37.6662 17.0406 37.3364 16.9391C36.9558 16.8223 36.5617 16.7936 36.1659 16.7953C35.6348 16.797 35.1053 16.8274 34.6131 17.0643C34.6047 17.0677 34.5928 17.0626 34.5793 17.0609C34.5539 17.0203 34.5302 16.9746 34.4981 16.9357C34.4355 16.8579 34.3577 16.8088 34.2545 16.7986C34.0143 16.775 33.8333 16.9374 33.8317 17.1912C33.8283 17.6937 33.8283 18.1945 33.8333 18.697C33.835 18.8577 33.83 18.9914 33.6811 19.1098C33.5712 19.1961 33.4697 19.279 33.3344 19.301C33.1855 19.3247 33.0316 19.3416 32.881 19.3416C31.6243 19.345 30.3658 19.3433 29.1091 19.3433C29.0752 19.3433 29.0414 19.3433 29.0076 19.3416C28.8266 19.3348 28.6963 19.2451 28.6236 19.0827C28.5881 19.0015 28.5593 18.9118 28.5492 18.8239C28.5306 18.6394 28.5272 18.4533 28.5154 18.2672C28.4798 17.6852 28.2058 17.2639 27.6696 17.027C27.5512 16.9746 27.4277 16.934 27.3026 16.9018C26.9609 16.8156 26.6124 16.7936 26.2623 16.7953C25.7363 16.797 25.2136 16.8206 24.7214 17.0389C24.7129 17.0423 24.7011 17.0355 24.6689 17.0287C24.6689 16.9746 24.6689 16.9137 24.6689 16.8545C24.6689 16.105 24.6689 15.3538 24.6689 14.6042C24.6689 14.5416 24.6706 14.479 24.6639 14.4181C24.6453 14.2354 24.5015 14.0882 24.3256 14.0713C24.1649 14.0544 23.994 14.1728 23.945 14.3454C23.9247 14.4198 23.9213 14.501 23.9213 14.5789C23.9196 15.9662 23.9196 17.3536 23.9213 18.7409C23.9213 18.878 23.9095 18.9863 23.7877 19.0946C23.6625 19.2045 23.5407 19.2891 23.38 19.3094C23.2295 19.328 23.0773 19.3416 22.9267 19.3416C21.1388 19.3433 19.3526 19.3433 17.5647 19.3433C17.4294 19.3433 17.2941 19.3433 17.1588 19.3365C16.8543 19.3179 16.5532 19.2722 16.2741 19.1402C16.0475 19.0336 15.9037 18.8661 15.8885 18.609C15.8817 18.4973 15.8817 18.384 15.8885 18.2723C15.9037 18.0303 16.0356 17.8645 16.2471 17.758C16.4399 17.6615 16.6463 17.604 16.8611 17.5803C17.3601 17.5228 17.8624 17.5245 18.3631 17.5532C18.5238 17.5617 18.6845 17.6108 18.8401 17.6564C18.9991 17.7038 19.0904 17.8104 19.1057 17.9881C19.1243 18.2063 19.2884 18.34 19.4913 18.3281C19.6875 18.3163 19.8432 18.1522 19.8432 17.9441C19.8432 17.6141 19.7298 17.3401 19.449 17.1455C19.1818 16.9611 18.8824 16.8579 18.5644 16.8392C18.0705 16.8122 17.5732 16.8003 17.0793 16.8139C16.812 16.8206 16.5414 16.8748 16.2809 16.9441C16.0881 16.9966 15.8986 17.0846 15.7312 17.1945C15.2339 17.5211 15.1003 18.0185 15.1324 18.5802C15.1459 18.812 15.2001 19.0353 15.2999 19.2502C15.1036 19.3416 14.9057 19.3416 14.7095 19.3416C12.9216 19.3416 11.1354 19.3433 9.34755 19.3399C9.1395 19.3399 8.93145 19.3179 8.7234 19.3027C8.68788 19.301 8.65405 19.284 8.58131 19.2654C8.67096 19.2367 8.7234 19.2214 8.77583 19.2045C9.53531 18.9761 10.2965 18.7494 11.0559 18.5193C11.2403 18.4635 11.4145 18.384 11.5566 18.2486C11.6446 18.1657 11.6852 18.0676 11.6852 17.9474C11.6852 17.6023 11.5583 17.3248 11.264 17.1286C11.0035 16.9543 10.7143 16.868 10.4098 16.8359C9.80763 16.7733 9.20547 16.7733 8.60499 16.8409C8.31744 16.8731 8.04004 16.9425 7.77955 17.0727C7.38037 17.2741 7.10127 17.5769 7.0167 18.0253C6.98287 18.2012 6.97272 18.384 6.97779 18.5633C6.99978 19.2062 7.32455 19.641 7.91825 19.8796C8.0282 19.9236 8.14153 19.9574 8.25655 19.9845C8.61514 20.0674 8.9805 20.0877 9.34755 20.0877C11.0948 20.0877 12.8438 20.086 14.5911 20.0894C15.0427 20.0894 15.4808 20.0488 15.853 19.8018C16.0509 19.8678 16.2302 19.9388 16.4145 19.9828C16.7714 20.0708 17.1385 20.086 17.5055 20.086C19.2647 20.086 21.0238 20.0843 22.7829 20.0877C23.1855 20.0894 23.583 20.0657 23.9687 19.8914C23.9991 19.927 24.0228 19.9659 24.0566 19.9946C24.2528 20.1638 24.5522 20.0911 24.6419 19.8491C24.6672 19.7832 24.6689 19.7053 24.6689 19.6326C24.6706 19.2316 24.6689 18.8323 24.6706 18.4313C24.6723 17.9711 24.8262 17.7664 25.2694 17.6344C25.3015 17.6243 25.3337 17.6158 25.3675 17.6091C25.8411 17.5126 26.3198 17.5245 26.7985 17.5634C27.0252 17.582 27.2434 17.6344 27.4463 17.7393C27.6425 17.8409 27.7525 17.9999 27.7745 18.2181C27.7829 18.296 27.7846 18.3755 27.7796 18.4533C27.7643 18.7393 27.8049 19.015 27.903 19.284C28.0925 19.8035 28.5103 20.0894 29.0515 20.086C30.3371 20.0776 31.6226 20.0843 32.9081 20.0826C33.0265 20.0826 33.1466 20.0776 33.2616 20.0556C33.4646 20.0166 33.6659 19.9642 33.8942 19.9101C33.9027 19.9219 33.923 19.9574 33.9518 19.9828C34.0668 20.0894 34.2004 20.1148 34.3425 20.0539C34.4829 19.993 34.5641 19.883 34.5725 19.7273C34.5742 19.6816 34.5742 19.6377 34.5742 19.592C34.5742 19.1808 34.5708 18.768 34.5759 18.3569C34.5793 17.9982 34.718 17.8036 35.0495 17.675C35.1223 17.6463 35.1984 17.6226 35.2762 17.6074C35.7447 17.5109 36.2183 17.5245 36.6903 17.56C36.9101 17.5769 37.125 17.6277 37.3246 17.7241C37.5478 17.8307 37.6662 18.01 37.6831 18.2554C37.6882 18.318 37.6831 18.3789 37.6865 18.4415C37.695 18.6107 37.6916 18.7799 37.7187 18.9457C37.8117 19.5209 38.1618 20.1097 39.0448 20.0877C40.036 20.0623 41.0289 20.0809 42.0218 20.0826C42.4345 20.0826 42.8303 20.0217 43.1585 19.8052C43.4172 19.8796 43.6507 19.9676 43.8925 20.0099C44.4964 20.1148 45.1053 20.1046 45.7126 20.0386C46.0001 20.0065 46.2775 19.9337 46.5346 19.7967C46.8442 19.6326 47.0894 19.4008 47.2028 19.0658C47.3516 18.6242 47.3415 18.1792 47.1774 17.741C47.1622 17.7021 47.1469 17.6632 47.13 17.6226C47.284 17.5515 47.4345 17.5397 47.5884 17.5397C48.9534 17.5397 50.3168 17.5397 51.6818 17.5397C51.7241 17.5397 51.7664 17.5498 51.8171 17.5566C51.8171 17.6311 51.8171 17.692 51.8171 17.7529C51.8171 18.2317 51.8171 18.7122 51.8171 19.191C51.8171 19.3551 51.8137 19.5175 51.8188 19.6816C51.8205 19.7375 51.834 19.7916 51.8577 19.839V16.3621H51.8611ZM7.77279 18.702C7.64254 18.3315 7.74572 17.8679 8.17536 17.7173C8.41555 17.6328 8.66081 17.5651 8.91453 17.5549C9.38138 17.5363 9.84823 17.5143 10.3134 17.5786C10.425 17.5938 10.535 17.6158 10.6432 17.6497C10.716 17.6717 10.7802 17.7173 10.8496 17.7512C10.8496 17.763 10.8496 17.7766 10.8496 17.7884C10.7955 17.8104 10.7413 17.8358 10.6855 17.8527C9.93111 18.0777 9.17671 18.3027 8.42231 18.5261C8.20581 18.5921 7.98761 18.6445 7.77279 18.702ZM46.5549 18.5734C46.5499 18.8374 46.4179 19.0184 46.1862 19.1335C45.9088 19.2739 45.6077 19.3145 45.3032 19.3331C45.1628 19.3416 45.0208 19.3348 44.8804 19.3348C44.8804 19.345 44.8787 19.3534 44.8787 19.3636C44.5827 19.3331 44.2833 19.3162 43.9907 19.2671C43.8283 19.2401 43.6676 19.169 43.517 19.0962C43.3513 19.0167 43.2447 18.8712 43.2244 18.6868C43.2075 18.5312 43.2041 18.3721 43.2193 18.2165C43.243 17.9982 43.3783 17.851 43.5712 17.7512C43.8164 17.6243 44.0837 17.5752 44.3526 17.5566C44.8313 17.5262 45.3117 17.5194 45.7853 17.6141C45.9172 17.6412 46.0509 17.6767 46.171 17.7326C46.4027 17.8392 46.5397 18.0219 46.5532 18.2858C46.5583 18.3823 46.5566 18.4787 46.5549 18.5734Z" fill="#A0ACE3"/>
</g>
<defs>
<clipPath id="clip0">
<rect width="100" height="23.822" fill="white" transform="translate(0 0.559753)"/>
</clipPath>
</defs>
</svg>
