<svg width="100" height="37" viewBox="0 0 100 37" fill="none" xmlns="http://www.w3.org/2000/svg">
<path fill-rule="evenodd" clip-rule="evenodd" d="M41.8532 6.36066H46.7765L46.8353 6.42049V28.1949L46.7765 28.2542H41.8532C41.7944 28.2542 41.7944 28.1949 41.7944 28.1949V6.42049C41.7944 6.42049 41.7944 6.36066 41.8532 6.36066ZM40.2117 6.36066C40.2117 6.36066 40.2705 6.4205 40.2117 6.47979L33.7051 17.2179C33.6469 17.2778 33.6469 17.3969 33.7051 17.516L40.2705 28.135C40.3288 28.1943 40.2705 28.2542 40.2705 28.2542H34.1744C34.1156 28.2542 34.0569 28.1949 33.9986 28.1949L30.071 21.6323C30.0122 21.573 30.0122 21.573 29.9534 21.6323L26.2611 28.1356C26.2023 28.1949 26.1435 28.2547 26.0852 28.2547H20.3997C20.2826 28.2547 20.2826 28.1954 20.3414 28.1954L27.0233 16.9198C27.1403 16.8007 27.1403 16.6816 27.0233 16.5619L21.1613 6.47979C21.1031 6.4205 21.1613 6.36066 21.1613 6.36066H27.0821C27.1403 6.36066 27.1991 6.4205 27.1991 6.47979L30.7744 12.5647C30.8332 12.6246 30.8332 12.6246 30.8915 12.5647L34.5844 6.47979C34.5844 6.4205 34.6427 6.36066 34.7015 6.36066H40.2117Z" fill="#A0ACE3"/>
<path fill-rule="evenodd" clip-rule="evenodd" d="M82.2973 0.156067L99.9996 28.2547H84.6416L78.8385 19.0676H78.1362L77.7246 18.4116H70.8086L82.2973 0.156067Z" fill="#CDD6FE"/>
<path fill-rule="evenodd" clip-rule="evenodd" d="M81.183 17.5164L87.9819 28.2547H66.3535L73.1525 17.5164H81.183Z" fill="#808CC2"/>
<path fill-rule="evenodd" clip-rule="evenodd" d="M79.4262 17.5164L86.2251 28.2547H64.5957L71.3957 17.5164H79.4262Z" fill="#A0ACE3"/>
<path fill-rule="evenodd" clip-rule="evenodd" d="M18.4646 6.36016H13.8924C13.8341 6.36016 13.7753 6.42 13.7753 6.47929L0 28.1949C0 28.1949 -5.57535e-08 28.2542 0.0587958 28.2542H5.6273C5.68556 28.2542 5.74436 28.2542 5.74436 28.1949L7.62048 25.2116C7.67874 25.2116 7.67874 25.1523 7.73754 25.1523H13.599C13.6572 25.1523 13.6572 25.2116 13.6572 25.2116V28.1356C13.6572 28.1949 13.6572 28.2547 13.716 28.2547H18.5228L18.5811 28.1954V6.47929C18.5816 6.42 18.5234 6.36016 18.4646 6.36016ZM13.6578 20.8575V20.9168H10.0236C9.96484 20.9168 9.96484 20.9168 9.96484 20.8575L13.8336 14.5929L13.6578 20.8575ZM49.7071 28.2542H56.2132C57.0336 28.1949 57.8541 28.0746 58.6163 27.8364C61.6063 26.8822 63.189 23.8391 63.189 21.2748C63.189 17.1578 60.0237 15.7261 56.2719 14.1153C55.6279 13.8172 54.8074 13.3994 54.8074 12.5045C54.8074 11.6097 55.6867 11.1326 56.6237 11.1326H61.7234C61.7817 11.1326 61.7817 11.1326 61.7817 11.0733V6.36016C61.7817 6.30086 61.7817 6.30087 61.7234 6.30087H56.3895C51.935 6.30087 49.2966 8.98546 49.2966 12.7439C49.2966 16.0247 51.3481 17.6355 54.337 18.8888C56.4478 19.7238 57.7958 20.0818 57.7958 21.8117C57.7958 22.7065 57.2688 23.6009 56.1549 23.6009H49.7071V28.1949C49.7071 28.2542 49.7654 28.2542 49.7071 28.2542ZM65.9439 6.24103C64.947 6.24103 64.1848 7.07605 64.1848 8.09005C64.1848 9.04475 64.947 9.87978 65.9439 9.87978C66.9397 9.87978 67.7601 9.04475 67.7601 8.09005C67.7577 7.6005 67.5656 7.13169 67.2256 6.78547C66.8855 6.43925 66.4249 6.2436 65.9439 6.24103ZM65.9439 9.70081C65.7358 9.70175 65.5296 9.66072 65.3371 9.5801C65.1447 9.49949 64.9698 9.38087 64.8227 9.23111C64.6756 9.08135 64.559 8.90342 64.4798 8.70757C64.4006 8.51172 64.3603 8.30184 64.3612 8.09005C64.3612 7.13589 65.0646 6.42 65.9439 6.42C66.8814 6.42 67.5848 7.13589 67.5848 8.09005C67.5848 8.98546 66.8814 9.70081 65.9439 9.70081Z" fill="#A0ACE3"/>
<path fill-rule="evenodd" clip-rule="evenodd" d="M66.8222 9.10471L66.4117 8.15054C66.6463 8.0907 66.7634 7.85243 66.7634 7.61362C66.7634 7.43464 66.7051 7.25567 66.5287 7.13653C66.4117 7.0174 66.2364 7.0174 66.06 7.0174H65.2978V9.10526H65.5324V8.21038H66.1182L66.5287 9.10526H66.8222V9.10471ZM65.5324 7.97103V7.19583H66.0594C66.1765 7.19583 66.2941 7.19583 66.3529 7.31496C66.4699 7.3748 66.5282 7.43464 66.5282 7.61362C66.5282 7.67291 66.4699 7.79259 66.4111 7.85189C66.2941 7.97102 66.1765 7.97103 66.0594 7.97103H65.5324ZM4.33713 36.3677C3.75077 36.6663 3.28201 36.7855 2.63739 36.7855C0.937657 36.7855 0.117188 35.7111 0.117188 34.6383C0.117188 33.5046 1.05525 32.4302 2.69619 32.4302C3.34081 32.4302 3.86836 32.5494 4.27887 32.7882V33.7434C3.8101 33.5046 3.34081 33.3256 2.81325 33.3256C1.87572 33.3256 1.23057 33.862 1.23057 34.6378C1.23057 35.3526 1.87572 35.8906 2.75445 35.8906C3.34081 35.8906 3.69251 35.7704 4.33713 35.4728V36.3677ZM10.4915 36.7855C8.90878 36.7855 8.03004 35.7111 8.03004 34.6383C8.03004 33.5639 8.90931 32.4302 10.4915 32.4302C12.1329 32.4302 12.9534 33.6232 12.9534 34.6383C12.9534 35.7111 12.0741 36.7855 10.4915 36.7855ZM10.4915 33.3262C9.67098 33.3262 9.14342 33.8626 9.14342 34.6383C9.14342 35.414 9.67098 35.8911 10.4915 35.8911C11.3125 35.8911 11.8395 35.414 11.8395 34.6383C11.8395 33.8626 11.3125 33.3262 10.4915 33.3262ZM20.398 32.4895H21.2773V36.7262H20.2216V34.1003L19.05 35.4135H18.9324L17.7602 34.1003V36.7262H16.7051V32.4895H17.5844L18.9912 34.1003L20.398 32.4895ZM29.1901 32.4895H30.1282V36.7262H29.0731V34.1003L27.9009 35.4135H27.7251L26.5524 34.1003V36.7262H25.4978V32.4895H26.4353L27.8421 34.1003L29.1901 32.4895ZM38.3345 32.4895V34.9353C38.3345 36.3078 37.3377 36.7849 36.1655 36.7849C34.9345 36.7849 34.0552 36.2485 34.0552 34.9353V32.4895H35.1104V34.9353C35.1104 35.5326 35.5791 35.8906 36.1655 35.8906C36.7513 35.8906 37.2789 35.6518 37.2789 34.876V32.4895H38.3345ZM46.5996 36.7262H45.7203L43.3167 34.041V36.7262H42.2615V32.4895H43.2584L45.544 35.1154V32.4895H46.5996V36.7262ZM50.702 36.7262H51.7576V32.4895H50.702V36.7262ZM59.4957 36.3677C58.9088 36.6663 58.44 36.7855 57.7949 36.7855C56.1539 36.7855 55.2747 35.7111 55.2747 34.6383C55.2747 33.5046 56.2122 32.4302 57.8531 32.4302C58.4983 32.4302 59.0253 32.5494 59.4358 32.7882V33.7434C58.9671 33.5046 58.4983 33.3256 57.9713 33.3256C57.0327 33.3256 56.3886 33.862 56.3886 34.6378C56.3886 35.3526 57.0327 35.8906 57.9119 35.8906C58.4988 35.8906 58.8505 35.7704 59.4957 35.4728V36.3677ZM67.1739 36.7262H66.06L65.7083 35.8911H63.7739L63.4222 36.7262H62.3093L64.0091 32.4901H65.2978L67.1739 36.7262ZM64.6526 33.5046L64.0668 35.1747H65.356L64.6526 33.5046ZM73.4458 33.2653H71.9219V36.7262H70.808V33.2653H69.2836V32.4895H73.4458V33.2653ZM76.7282 36.7262H77.7833V32.4895H76.7282V36.7262ZM83.5272 36.7855C81.9445 36.7855 81.0658 35.7111 81.0658 34.6383C81.0658 33.5639 81.8862 32.4302 83.5272 32.4302C85.1098 32.4302 85.9886 33.6232 85.9886 34.6383C85.9891 35.7111 85.0516 36.7855 83.5272 36.7855ZM83.5272 33.3262C82.7067 33.3262 82.1797 33.8626 82.1797 34.6383C82.1797 35.414 82.7067 35.8911 83.5272 35.8911C84.3476 35.8911 84.8757 35.414 84.8757 34.6383C84.8757 33.8626 84.3482 33.3262 83.5272 33.3262ZM93.492 36.7262H92.6133L90.2096 34.041V36.7262H89.1545V32.4895H90.1513L92.4374 35.1154V32.4895H93.492V36.7262ZM99.7639 33.6232C99.1198 33.3256 98.7681 33.2054 98.3576 33.2054C98.0059 33.2054 97.7707 33.3849 97.7707 33.5634C97.7707 34.22 99.9403 34.0405 99.9403 35.5321C99.9403 36.3078 99.2369 36.7849 98.2994 36.7849C97.5361 36.7849 97.1855 36.6065 96.7156 36.3671V35.4723C97.3608 35.89 97.7125 36.0086 98.1812 36.0086C98.5917 36.0086 98.8264 35.8895 98.8264 35.6507C98.8264 34.9348 96.6568 35.1736 96.6568 33.682C96.6568 32.9062 97.302 32.4291 98.2988 32.4291C98.7676 32.4291 99.1781 32.5483 99.7634 32.7871V33.6232H99.7639Z" fill="#A0ACE3"/>
</svg>
