<?xml version="1.0" encoding="UTF-8"?>
<!DOCTYPE svg PUBLIC "-//W3C//DTD SVG 1.1//EN" "http://www.w3.org/Graphics/SVG/1.1/DTD/svg11.dtd">
<svg xmlns="http://www.w3.org/2000/svg" version="1.1" width="1080px" height="380px" style="shape-rendering:geometricPrecision; text-rendering:geometricPrecision; image-rendering:optimizeQuality; fill-rule:evenodd; clip-rule:evenodd" xmlns:xlink="http://www.w3.org/1999/xlink">
<g><path style="opacity:0.996" fill="#A0ACE3" d="M 114.5,76.5 C 136.957,73.8073 153.124,82.474 163,102.5C 170.045,127.231 162.211,145.398 139.5,157C 104.268,162.738 82.9347,182.904 75.5,217.5C 70.7969,214.486 66.1302,211.486 61.5,208.5C 88.4148,184.834 95.2481,156.167 82,122.5C 81.2748,98.9369 92.1081,83.6035 114.5,76.5 Z"/></g>
<g><path style="opacity:0.979" fill="#A0ACE3" d="M 461.5,100.5 C 471.083,100.182 480.583,100.515 490,101.5C 490.333,135.5 490.667,169.5 491,203.5C 496.91,232.409 514.41,249.576 543.5,255C 551.417,256.655 559.417,257.655 567.5,258C 568.833,267.333 568.833,276.667 567.5,286C 539.847,286.781 514.847,279.114 492.5,263C 475.356,247.214 465.189,227.714 462,204.5C 461.5,169.835 461.333,135.168 461.5,100.5 Z"/></g>
<g><path style="opacity:0.989" fill="#A0ACE3" d="M 818.5,100.5 C 847.216,100.45 871.716,110.45 892,130.5C 892.982,131.759 893.315,133.092 893,134.5C 886.652,141.015 880.152,147.348 873.5,153.5C 853.143,131.122 828.477,124.622 799.5,134C 779.35,142.816 766.35,157.816 760.5,179C 798.499,179.5 836.499,179.667 874.5,179.5C 874.5,188.833 874.5,198.167 874.5,207.5C 836.499,207.333 798.499,207.5 760.5,208C 771.638,242.408 795.305,258.741 831.5,257C 848.334,254.755 862.001,247.088 872.5,234C 873.167,233.333 873.833,233.333 874.5,234C 880.667,240.167 886.833,246.333 893,252.5C 893.667,253.5 893.667,254.5 893,255.5C 860.997,286.9 824.164,294.067 782.5,277C 738.672,251.559 722.839,214.059 735,164.5C 749.825,126.173 777.658,104.84 818.5,100.5 Z"/></g>
<g><path style="opacity:0.996" fill="#A0ACE3" d="M 1079.5,103.5 C 1079.5,107.5 1079.5,111.5 1079.5,115.5C 1058.85,140.763 1038.19,166.096 1017.5,191.5C 1038.6,216.587 1059.27,241.92 1079.5,267.5C 1079.5,271.5 1079.5,275.5 1079.5,279.5C 1072.96,289.035 1064.63,290.868 1054.5,285C 1035.33,261.833 1016.17,238.667 997,215.5C 978.096,239.461 958.596,262.961 938.5,286C 928.284,290.803 920.451,288.303 915,278.5C 913.776,272.696 914.776,267.362 918,262.5C 937.892,238.946 957.392,215.113 976.5,191C 957.03,166.575 937.197,142.409 917,118.5C 911.777,108.128 914.277,100.295 924.5,95C 928.926,94.2093 933.259,94.5427 937.5,96C 957.717,119.378 977.717,142.878 997.5,166.5C 1016.7,143.281 1036.04,120.114 1055.5,97C 1065.58,92.0891 1073.58,94.2558 1079.5,103.5 Z"/></g>
<g><path style="opacity:0.971" fill="#A0ACE3" d="M 567.5,100.5 C 615.833,100.5 664.167,100.5 712.5,100.5C 712.5,110.167 712.5,119.833 712.5,129.5C 694.83,129.333 677.164,129.5 659.5,130C 657.714,130.785 656.214,131.951 655,133.5C 654.667,184.167 654.333,234.833 654,285.5C 644.583,286.485 635.083,286.818 625.5,286.5C 625.667,235.832 625.5,185.166 625,134.5C 624.167,132.333 622.667,130.833 620.5,130C 602.503,129.5 584.503,129.333 566.5,129.5C 566.194,119.75 566.527,110.084 567.5,100.5 Z"/></g>
<g><path style="opacity:0.992" fill="#A0ACE3" d="M 354.5,100.5 C 382.194,100.274 406.027,109.607 426,128.5C 427.602,130.369 428.602,132.369 429,134.5C 422.652,141.015 416.152,147.348 409.5,153.5C 389.072,131.392 364.405,124.892 335.5,134C 315.323,142.84 302.323,157.84 296.5,179C 333.832,179.5 371.165,179.667 408.5,179.5C 408.5,188.833 408.5,198.167 408.5,207.5C 371.165,207.333 333.832,207.5 296.5,208C 307.44,241.928 330.774,258.262 366.5,257C 383.629,254.833 397.629,247.167 408.5,234C 409.167,233.333 409.833,233.333 410.5,234C 416.667,240.167 422.833,246.333 429,252.5C 428.179,256.366 426.013,259.533 422.5,262C 391.711,287.434 357.711,292.767 320.5,278C 281.732,257.644 263.898,225.477 267,181.5C 276.874,133.453 306.041,106.453 354.5,100.5 Z"/></g>
<g><path style="opacity:0.994" fill="#A0ACE3" d="M 157.5,161.5 C 158.497,161.47 159.164,161.97 159.5,163C 163.784,186.94 176.784,204.274 198.5,215C 208.679,217.834 218.679,221.168 228.5,225C 247.645,238.444 253.145,256.277 245,278.5C 232.026,300.94 213.192,307.773 188.5,299C 173.203,291.019 165.203,278.352 164.5,261C 167.247,248.755 169.58,236.422 171.5,224C 170.428,201.684 161.095,183.851 143.5,170.5C 148.571,167.974 153.238,164.974 157.5,161.5 Z"/></g>
<g><path style="opacity:0.998" fill="#A0ACE3" d="M -0.5,270.5 C -0.5,264.167 -0.5,257.833 -0.5,251.5C 10.8812,222.184 31.5479,213.017 61.5,224C 69.4317,229.928 76.765,236.595 83.5,244C 104.635,258.89 127.135,261.39 151,251.5C 151.167,252.333 151.333,253.167 151.5,254C 150.522,259.499 150.355,264.999 151,270.5C 129.104,261.372 107.937,262.872 87.5,275C 79.8851,281.943 72.2184,288.943 64.5,296C 41.7838,307.873 22.2838,304.039 6,284.5C 3.50565,279.853 1.33898,275.186 -0.5,270.5 Z"/></g>
</svg>
