<?xml version="1.0" encoding="utf-8"?>
<!-- Generator: Adobe Illustrator 25.2.1, SVG Export Plug-In . SVG Version: 6.00 Build 0)  -->
<svg version="1.1" id="Слой_1" xmlns="http://www.w3.org/2000/svg" xmlns:xlink="http://www.w3.org/1999/xlink" x="0px" y="0px"
	 viewBox="0 0 300 160" style="enable-background:new 0 0 300 160;" xml:space="preserve">
<style type="text/css">
	.st0{fill:#A0ACE3;}
</style>
<path class="st0" d="M236.1,39.2c-8.6,0.5-15.3,4.6-18.4,10.9c-1.7,3.7-2,4.5-2.9,9c-0.5,2.2-0.5,17.4,0,19.5c0.2,0.8,0.5,2.2,0.6,3
	c0.3,1.7,1.3,4.3,2.1,5.9c0.3,0.5,0.7,1.3,0.9,1.8c0.5,1.2,4.8,5.4,6.1,5.9c0.6,0.3,1.4,0.6,1.6,0.8c1.7,1,2.7,1.4,3.2,1.4
	c0.3,0,1.2,0.2,2,0.5c0.7,0.3,3.2,0.7,5.5,0.9c5.9,0.6,12.4-0.2,17-1.9c4.3-1.6,8.9-4.3,8.9-5c0-0.3-0.4-1-1-1.7
	c-0.5-0.6-1-1.3-1-1.4c0-0.7-1.7-0.3-2.7,0.6c-1,0.9-4,2.6-6.6,3.6c-2.3,0.9-8.7,1.6-12.1,1.4c-3.4-0.3-7.2-0.9-8.9-1.6
	c-4.3-1.6-7.8-5.1-9.3-9.3c-1.3-3.6-2.5-12.9-1.7-13.6c0.3-0.3,1.2-0.3,3.1-0.1c1.5,0.1,11.3,0.3,21.8,0.3l19.1,0l0.1-3.1
	c0.1-3.4-0.7-11.1-1.5-14c-0.5-1.8-1.2-3.7-1.8-4.7c-0.2-0.3-0.4-0.8-0.6-1.2c-0.2-0.4-1.1-1.5-2.1-2.5c-1.9-1.9-5.2-3.8-7.8-4.4
	C246.4,39.2,241.2,38.9,236.1,39.2L236.1,39.2z M248.9,44.7c1.1,0.4,2.8,1.2,3.7,1.9c2.8,2.1,5.2,6.5,5.2,9.8c0,0.8,0.2,2.4,0.5,3.5
	c0.3,1.1,0.5,2.7,0.5,3.6v1.6L239,65.1L219.3,65l0.1-1.8c0.1-2.1,1.2-7.3,1.7-8.3c0.2-0.3,0.7-1.4,1.1-2.2c1.5-3.4,4.9-6.1,9.7-8
	C235,43.5,245.4,43.6,248.9,44.7z M292.3,39.4c-7.6,0.3-9.1,0.6-13.1,2.4c-1.9,0.9-5,4-5.7,5.8c-1.9,4.8-2,5.9-2,26.9
	c0,10-0.1,19.1-0.3,20.3c-0.4,2.9-0.2,3.1,2.9,3l2.5-0.1l0.1-22.3c0.1-20.7,0.1-22.4,0.7-23.2c0.3-0.4,0.6-1.1,0.6-1.4
	c0-0.9,3.3-4.1,5-4.9c3-1.4,5.9-1.8,11.2-1.8c2.8,0,5.2,0,5.4,0c0.3,0,0.4-0.7,0.4-2c0-2.1-0.5-3.1-1.6-3
	C298.1,39.1,295.4,39.2,292.3,39.4L292.3,39.4z M105.1,39.8c-4.7,0.8-8.3,2.3-10.5,4.6c-1.1,1.2-3.1,4.9-3.1,5.8
	c0,0.3-0.2,1-0.5,1.7c-0.4,1-0.5,4.7-0.5,23.4l-0.1,22.2l2.6,0.1l2.6,0.1V76.2c0-19.1,0.1-21.8,0.5-23.3c0.9-2.8,1.6-3.9,3.1-5.2
	c3.2-2.8,6.6-3.7,14.4-3.7c4.4,0,6.2,0.1,8.3,0.7c1.4,0.3,2.8,0.8,3,1c0.2,0.2,0.5,0.3,0.8,0.3c1.2,0,5.1,4.3,5.1,5.5
	c0,0.3,0.2,0.9,0.4,1.3c0.3,0.6,0.4,6,0.6,22.7l0.2,22h5.3l-0.1-17.5c-0.1-26.1-0.2-28-2.3-32.4c-1.5-3.1-4.1-5.2-8.6-7.1
	C123.2,39.4,110.7,39,105.1,39.8L105.1,39.8z M20,67.2c0,24.5-0.1,27.4-0.6,29c-0.8,2.6-1.5,3.8-2.8,5.1c-1.4,1.4-5,3.2-6.4,3.2
	c-0.6,0-1.3,0.2-1.7,0.4c-0.4,0.2-2.3,0.4-4.6,0.4l-3.9,0v5l2.4,0.1c1.4,0.1,3.2-0.1,4.4-0.4c1.1-0.3,2.7-0.5,3.5-0.5
	c2.9,0,8.1-2.3,10.2-4.4c1.3-1.3,3.5-5.1,3.5-6c0-0.3,0.2-1.2,0.5-2c0.4-1.2,0.5-5.7,0.5-29.2l0.1-27.8l-2.6-0.1L20,40V67.2z
	 M34.4,40.2c0,0.1,0,9.5,0,20.8c0,15.8,0.1,21.2,0.5,23.6c0.3,1.7,0.6,3.3,0.8,3.5c0.2,0.2,0.3,0.7,0.3,1.1s0.2,0.9,0.5,1.1
	c0.3,0.2,0.5,0.6,0.5,0.9c0,0.7,3.5,3.9,4.9,4.6c0.7,0.3,1.7,0.8,2.2,1.1c0.5,0.3,1.2,0.5,1.5,0.5s1.2,0.2,1.8,0.5
	c1.9,0.7,11.1,1.4,14,0.9c1.3-0.2,3.1-0.4,3.8-0.4c1.6,0,6.5-1.4,8-2.4c0.3-0.2,0.8-0.4,1.2-0.6c0.9-0.4,3.5-3,3.9-3.9
	c0.2-0.4,0.4-0.9,0.6-1.2c2-3.6,2.1-5.1,2.3-29L81.5,40l-2.6,0.1l-2.6,0.1l-0.1,21.2c-0.1,22.4-0.1,22.4-1.7,26.1
	c-0.6,1.5-2.7,3.5-4.3,4.3c-2.9,1.4-3.8,1.6-8,2c-5,0.5-12.7,0-14.1-0.9c-0.4-0.2-1-0.5-1.3-0.5c-0.7,0-3.5-1.9-4.1-2.7
	c-0.2-0.3-0.7-0.9-1-1.2c-2-2.1-2.4-6.7-2.4-29.3l0.1-19L37,40.1C35.6,40,34.4,40.1,34.4,40.2L34.4,40.2z M147.1,40.4
	c-0.1,0.2-0.1,13.2-0.1,28.8l0.1,28.4h4.9V40.2l-2.4-0.1C147.9,40,147.2,40.1,147.1,40.4z M162,40.3V69l0,28.5l2.6,0.1l2.5,0.1v-10
	c0-5.5,0.1-10.1,0.2-10.2c0.1-0.1,4.2-0.1,9,0.1c9.6,0.3,18.9-0.1,20.1-1c0.4-0.3,0.9-0.5,1.2-0.5c1.8,0,6.5-3.9,7.9-6.5
	c3.3-6,3.2-15.8-0.1-21.9c-0.8-1.5-3.8-4.3-5.4-5.1c-2.9-1.3-4.1-1.7-6.9-2C190.4,40.3,162,40,162,40.3L162,40.3z M193.3,45.7
	c4,1.1,6.7,3.2,8.2,6.3c0.7,1.5,0.9,2.6,1.1,5.2c0.3,5-0.1,7.3-1.5,9.7c-1.1,1.8-3.9,4.4-4.8,4.4c-0.2,0-0.8,0.3-1.2,0.6
	c-0.8,0.5-2.3,0.6-14.4,0.8c-7.4,0.1-13.5,0.2-13.5,0.1s-0.1-24.1-0.1-27.3C167.1,44.8,190.9,45.1,193.3,45.7z M287.1,90.6
	c-0.9,0.2-2.2,1.1-2.2,1.6c0,0.2-0.2,0.6-0.5,0.8c-0.3,0.2-0.5,0.8-0.5,1.3c0,0.5,0.2,1.1,0.5,1.3c0.3,0.2,0.5,0.6,0.5,0.9
	c0,0.4,2.4,1.8,3.2,1.8c0.7,0,2.9-1.2,2.9-1.6c0-0.2,0.2-0.5,0.5-0.6c0.3-0.1,0.5-0.7,0.5-1.6c0-0.9-0.2-1.6-0.5-1.8
	c-0.3-0.2-0.5-0.6-0.5-0.8C291,91.2,288.3,90.4,287.1,90.6z M288.8,93.4c0.3,0.6-0.4,1.2-0.9,0.7c-0.4-0.4-0.1-1.1,0.4-1.1
	C288.4,93.1,288.7,93.2,288.8,93.4L288.8,93.4z M291,94.2c0,1.2-0.5,1.8-1.1,1.3c-0.3-0.3-0.2-0.7,0.1-1.4
	C290.5,92.7,291,92.8,291,94.2z M286.1,94.1c0.3,0.8-0.2,1.5-0.8,1.2c-0.4-0.3-0.5-1.3-0.1-1.6C285.6,93.2,285.9,93.4,286.1,94.1
	L286.1,94.1z M289,96.6c0,0.7-0.1,0.8-0.9,0.7c-0.7-0.1-1-0.3-1-0.9c-0.1-0.6,0-0.7,0.9-0.7C288.8,95.7,289,95.9,289,96.6z
	 M158.5,104.4c-0.6,0.2-0.6,0.5-0.4,6.2c0.2,5,0.2,6-0.2,6c-0.3,0-1.3-1.3-2.4-3c-1-1.6-2.2-3.3-2.7-3.8c-0.4-0.5-1.4-1.9-2.3-3.1
	c-1.3-1.9-1.6-2.2-2.6-2.2h-1.1l-0.1,7.6c-0.1,7.5,0,8.8,0.8,8.8c1.3,0,1.3-0.4,1.3-6.9c0-3.4,0-6.2,0.2-6.2c0.1,0,0.9,1,1.6,2.1
	c1.5,2.4,3.8,5.6,4.9,7.1c0.4,0.5,1.1,1.5,1.6,2.2c0.7,0.9,1.1,1.2,1.8,1.2h0.9l0.2-7.9c0.1-6.3,0.1-7.9-0.3-8.1
	c-0.2-0.2-0.5-0.3-0.6-0.3C159.2,104.2,158.9,104.3,158.5,104.4L158.5,104.4z M168.7,104.4l-4.6,0.1v16l5,0.1
	c5.6,0.1,6.1,0.1,6.1-0.7c0-1.2-0.8-1.4-4.9-1.3l-4,0.1v-5.4l4.1,0.1l4.1,0.1l0.2-0.9c0.1-0.6,0.1-1-0.2-1.2
	c-0.3-0.2-2.2-0.3-4.3-0.2l-3.9,0.1l-0.1-2.5l-0.1-2.5l4.2,0.1c2.3,0,4.3,0,4.3-0.1c0.1-0.1,0.2-0.5,0.3-0.9
	c0.2-0.6,0.1-0.8-0.6-1.1c-0.5-0.2-0.9-0.3-0.9-0.3S171.2,104.3,168.7,104.4L168.7,104.4z M177.3,104.6c-0.6,0.3-0.6,1.4,0,1.8
	c0.2,0.1,1.6,0.2,3.1,0.3h2.7l-0.1,7c-0.1,7.6,0,7.9,1.6,7c0.7-0.4,0.7-0.5,0.6-7.2l-0.1-6.8l2.6,0c1.4,0,2.7-0.1,2.9-0.3
	c0.5-0.3,0.5-1.9,0-1.9C185,104.3,177.6,104.4,177.3,104.6L177.3,104.6z M192.9,104.6c-0.3,0.4-0.2,1.1,0.5,3.1c0.5,1.5,1,3,1.1,3.3
	c0.1,0.4,0.6,1.7,1,3c0.4,1.3,0.9,2.8,1.2,3.4c0.3,0.6,0.5,1.3,0.5,1.7c0,0.7,0.8,1.7,1.3,1.7c0.7,0,2-3.3,4.2-10.5
	c0.7-2.2,1.1-2.7,1.4-1.4c0.3,1.4,2.2,7.6,2.5,8.2c0.2,0.3,0.4,1.1,0.5,1.8c0.3,1.7,1.4,2.2,2.2,1.2c0.3-0.4,0.7-1.1,0.8-1.6
	c0.3-1.3,3.5-11.1,4.1-12.4c0.5-1.2,0.4-2.1-0.4-2.1c-1,0-1.5,0.4-1.7,1.6c-0.1,0.7-0.3,1.4-0.5,1.6c-0.1,0.2-0.4,0.9-0.5,1.7
	c-0.1,0.7-0.3,1.5-0.5,1.7c-0.1,0.2-0.5,1.4-0.8,2.7c-0.9,3.5-0.9,3.5-1.2,3.5c-0.2,0-0.6-0.9-0.9-1.9c-0.3-1-0.9-3-1.3-4.3
	c-0.4-1.3-1-3.2-1.3-4.3c-0.3-1-0.8-2-1.1-2.1c-0.9-0.3-1.7,0.4-1.9,1.7c-0.1,0.7-0.5,2.3-1,3.6c-0.4,1.3-1.1,3.3-1.4,4.4
	c-0.3,1.1-0.6,2.2-0.7,2.5c-0.3,1.1-0.9-0.1-2.1-4.6c-1-3.5-1.7-5.9-2.1-6.7C194.3,104.2,193.5,103.9,192.9,104.6L192.9,104.6z
	 M221.5,104.3c-4.6,1.8-6,4.4-5.4,10.1c0.3,2.8,1,4,3.2,5.4c1.2,0.8,1.7,0.9,4.7,0.9c2.9,0,3.5-0.1,4.6-0.8c2.8-1.7,3.9-4.8,3.3-9.1
	c-0.4-2.9-1.5-4.7-3.8-5.9C227.1,104.4,222.4,104,221.5,104.3L221.5,104.3z M227.7,107.2c2.3,1.4,3.2,5.8,1.7,8.7
	c-0.9,1.8-1.9,2.6-4,3.1c-1.3,0.3-1.8,0.3-3.4-0.2c-2.1-0.7-3.1-1.5-3.8-3.6c-1-2.9-0.3-6.5,1.6-7.8
	C221.8,106.1,225.7,106,227.7,107.2L227.7,107.2z M251.3,104.6c-0.3,0.4-0.4,1.2-0.2,3.8c0.1,1.8,0.1,5.3,0,7.7
	c-0.2,4.3-0.2,4.4,0.5,4.7c1.1,0.4,1.4-0.1,1.4-2.7v-2.5l1.5-1.6c1.4-1.4,1.5-1.5,1.9-1c4.5,6.9,5.2,7.8,5.9,7.9
	c0.4,0.1,0.8-0.1,0.9-0.4c0.2-0.5-0.2-1.2-4-6.7c-2-2.9-2-2.8-1.3-3.5c4.7-4.8,5.3-5.5,4.8-5.8c-1-0.6-1.9-0.3-3.1,1
	c-0.6,0.8-1.3,1.6-1.5,1.8c-0.2,0.2-1.4,1.5-2.7,3c-1.6,1.8-2.4,2.5-2.6,2.2c-0.1-0.2-0.1-2,0-4c0.1-2,0.1-3.7-0.1-4
	C252.5,104,251.8,104,251.3,104.6L251.3,104.6z M268.9,104.4c-0.4,0.1-1.3,0.7-1.9,1.2c-1.1,0.9-1.2,1-1.2,2.9c0,3.1,1.2,4,7.7,5.2
	c2,0.4,2.9,1.7,2.3,3.5c-0.4,1.1-2.2,2-3.9,2c-1.2,0-3.8-0.8-4.9-1.5c-0.8-0.5-0.9-0.5-1.4,0c-0.6,0.7-0.7,1.3-0.1,1.7
	c1.7,1.3,8.2,1.7,10.1,0.7c1.8-1,2.4-1.8,2.4-4c0-1.5-0.2-2.1-0.7-2.7c-0.9-1-3.1-1.9-5.2-2.2c-1-0.1-2.4-0.5-3-0.8
	c-1-0.5-1.2-0.8-1.3-1.7c-0.1-1.6,0.2-2,1.9-2.4c1.6-0.4,3.3-0.2,5.1,0.6c1,0.4,1.3,0.5,1.8,0.1c1-0.8,0.5-1.7-1.3-2.4
	C273.7,104.2,270.3,104,268.9,104.4L268.9,104.4z M235.4,104.7c-0.1,0.2-0.2,3.8-0.2,8c0,6.6,0.1,7.8,0.5,8c0.3,0.1,0.7,0.1,1-0.1
	c0.5-0.3,0.6-0.9,0.6-3.3v-3l1.5-0.1c2.4-0.2,2.9,0.1,4.2,2.2c0.6,1.1,1.3,2.3,1.4,2.7c0.5,1.5,2.6,2.3,2.8,1c0-0.3-0.7-1.7-1.6-3.1
	c-0.9-1.4-1.7-2.7-1.7-2.9c0-0.2,0.5-0.4,1-0.5c2.4-0.5,3.6-4.3,2.2-7c-1-1.8-2.4-2.3-7.4-2.3C237.5,104.5,235.5,104.6,235.4,104.7
	L235.4,104.7z M244.8,107.2c1.7,1.4,0.9,4.6-1.3,5.2c-0.4,0.1-1.9,0.1-3.4,0.1l-2.7-0.1l-0.1-2.5c-0.1-1.4,0-2.7,0.1-3
	c0.1-0.3,1-0.4,3.3-0.4C243.4,106.5,244,106.6,244.8,107.2z"/>
</svg>
