<?xml version="1.0" encoding="utf-8"?>
<!-- Generator: Adobe Illustrator 25.2.1, SVG Export Plug-In . SVG Version: 6.00 Build 0)  -->
<svg version="1.1" id="Слой_1" xmlns="http://www.w3.org/2000/svg" xmlns:xlink="http://www.w3.org/1999/xlink" x="0px" y="0px"
	 viewBox="0 0 300 160" style="enable-background:new 0 0 300 160;" xml:space="preserve">
<style type="text/css">
	.st0{fill:#A0ACE3;}
</style>
<g>
	<path class="st0" d="M108.3,107.3V93.1h-5.4v-1.9h13v1.9h-5.4v14.2H108.3z M119.8,91.2h10.1v1.9H122v5h7.5v1.9H122v5.4h8.1v2h-10.3
		L119.8,91.2L119.8,91.2z M144.4,95.6c-0.1-0.6-0.4-2.8-3.5-2.8c-3.9,0-4.6,4-4.6,6.7c0,3,0.9,6.3,4.6,6.3c1,0,1.9-0.2,2.6-1
		c0.6-0.6,0.7-1.3,0.8-1.7h2.5c-0.3,3.2-3.3,4.5-6,4.5c-5.7,0-6.8-5-6.8-8.1c0-3.4,1.3-8.5,7.1-8.5c2.3,0,5.5,0.9,5.8,4.6
		L144.4,95.6L144.4,95.6z M153.3,91.2v6.9h7.7v-6.9h2.2v16.1H161v-7.3h-7.7v7.3h-2.2V91.2H153.3L153.3,91.2z M170,91.2h3.1l7.9,13.4
		V91.2h2.1v16.1h-2.9l-8.2-13.7v13.7h-2L170,91.2L170,91.2z M190.3,92.9c1.7-1.8,3.9-2.2,5.4-2.2c4.5,0,7.3,2.9,7.3,8.3
		c0,4.3-1.7,8.6-7.5,8.6c-5.5,0-7.3-3.9-7.3-8.3C188.2,97.5,188.5,94.8,190.3,92.9z M192,104.3c0.9,1.1,2.3,1.5,3.6,1.5
		c1.3,0,2.6-0.4,3.6-1.5c1.3-1.6,1.5-4.2,1.5-5.3c0-3.7-1.2-6.4-4.9-6.4c-4.1,0-5.1,3.3-5.1,6.6C190.6,101,190.9,103,192,104.3z
		 M208.3,91.2h2.2v14.2h7.5v2h-9.7L208.3,91.2L208.3,91.2z M222.5,92.9c1.7-1.8,3.9-2.2,5.4-2.2c4.5,0,7.3,2.9,7.3,8.3
		c0,4.3-1.7,8.6-7.5,8.6c-5.5,0-7.3-3.9-7.3-8.3C220.4,97.5,220.7,94.8,222.5,92.9z M224.2,104.3c0.9,1.1,2.3,1.5,3.6,1.5
		c1.3,0,2.6-0.4,3.6-1.5c1.3-1.6,1.5-4.2,1.5-5.3c0-3.7-1.2-6.4-4.9-6.4c-4.1,0-5.1,3.3-5.1,6.6C222.7,101,223,103,224.2,104.3z
		 M251,95.2c-0.2-1.5-1.5-2.5-3.6-2.5c-1.5,0-2.8,0.4-3.6,1.4c-1.4,1.6-1.7,3.7-1.7,5.2c0,1.4,0.3,3.7,1.5,5.1
		c1.1,1.2,2.7,1.6,4.3,1.6c1.8,0,3-0.4,3.5-0.5v-4.8h-3.7v-1.9h5.9v8c-0.9,0.3-3,1-5.7,1c-3,0-4.7-0.8-5.9-2
		c-1.6-1.6-2.3-3.9-2.3-6.2c0-1.6,0.4-5.4,3.5-7.5c1.6-1.1,3.7-1.1,4.5-1.1c1.3,0,3.2,0.2,4.8,1.7c1,1,1,1.9,1.1,2.6L251,95.2
		L251,95.2z M259.2,91.2h2.2v16.1h-2.2V91.2z M267.8,91.2H278v1.9h-7.9v5h7.5v1.9h-7.5v5.4h8.1v2h-10.3L267.8,91.2L267.8,91.2z
		 M284.6,102.6c0,1.1,0.2,3.2,3.9,3.2c3.4,0,3.8-2.1,3.8-2.9c0-1.8-1.5-2.2-3.7-2.7c-2.5-0.6-3.6-0.9-4.4-1.4
		c-1.3-0.9-1.7-2.1-1.7-3.2c0-3.3,3.1-4.7,6.1-4.7c1.1,0,3.2,0.2,4.5,1.6c0.9,1,0.9,2.1,1,2.8h-2.3c-0.1-2-1.8-2.5-3.4-2.5
		c-2.2,0-3.6,1-3.6,2.6c0,1.4,0.9,1.9,2.9,2.4c3.8,1,4.3,1.1,5.2,1.7c1.5,1,1.6,2.6,1.6,3.2c0,2.9-2.2,5-6.4,5c-1.2,0-3.7-0.2-5-1.8
		c-0.9-1.2-0.9-2.5-0.9-3.3H284.6L284.6,102.6z"/>
	<path class="st0" d="M103.6,51.9h6.3v12.6l9.8-12.7h7.4L116.3,65L128,81.2h-7.8l-10.3-14.9v14.9h-6.3V51.9z M130.9,51.8h19.7v4.8
		h-13.4v7h12.5v4.8h-12.5v7.9H151v4.9h-20.1V51.8z M160.6,52l6,13.4l6.2-13.4h6.5l-9.9,18.6v10.7h-6.2V70.4L153.3,52
		C153.3,52,160.6,52,160.6,52z M185.3,71.8c0,1.4-0.1,5.6,5.3,5.6c3.4,0,5.6-1.6,5.6-4.1c0-2.6-1.8-3-5.6-3.9
		c-7-1.7-10.8-3.8-10.8-8.9c0-4.8,3.5-9.1,11.6-9.1c3,0,6.7,0.7,8.9,3.5c1.7,2.1,1.7,4.5,1.7,5.4h-6c-0.1-1-0.4-4.5-4.7-4.5
		c-2.9,0-4.8,1.6-4.8,4c0,2.7,2.2,3.2,6.4,4.3c5.1,1.2,10.1,2.6,10.1,8.3c0,5.3-4.4,9.5-12.5,9.5c-11.3,0-11.3-7.2-11.4-10.1
		L185.3,71.8L185.3,71.8z M206.6,51.8h6.3v29.4h-6.3V51.8z M237.9,60.9c0-0.8-0.1-1.8-0.8-3c-1.2-1.9-3.5-2.3-4.9-2.3
		c-7.1,0-8.6,6.7-8.6,11.2c0,2,0.3,5.6,2.4,7.9c1.5,1.6,3.4,2.5,6.9,2.5c3,0,4.1-0.4,4.8-0.6v-6.2h-5.7v-4.9h12v14.7
		c-1.8,0.6-4.8,1.6-10.7,1.6c-6.7,0-10.2-1.6-12.5-3.9c-3.3-3.2-3.9-7.9-3.9-11c0-10.4,6.5-16,15.4-16c3.8,0,7.7,1.1,10,3.7
		c1.9,2.2,2.1,4.5,2.1,6.1L237.9,60.9L237.9,60.9z M249.4,51.8h6.3v11.7h11.1V51.8h6.4v29.4h-6.3V68.3h-11.2v12.9h-6.3L249.4,51.8
		L249.4,51.8z M284.9,56.7h-8.7v-4.9H300v4.9h-8.7v24.5h-6.3L284.9,56.7L284.9,56.7z"/>
	<path class="st0" d="M90.4,81.2c-0.7-0.1-2.2-0.9-3.3-5C85.3,69.7,84.5,64,81.6,64c-2.9,0-4.2,5.6-6,12.2c-1,3.9-2.1,5-3.8,5
		c-1.6,0-3.3-0.8-5.8-10.9c-2.2-8.9-3.6-24.9-10.8-24.9c-7.2,0-9.4,20.9-10.3,25c-1.1,5-4,10.9-7.6,10.9c-3.6,0-5.4-4.1-6.5-8.5
		c-1.6-6.8-3.5-16.6-8.3-16.6c-4.8,0-6.3,8.1-8.4,17c-1.2,5.2-3.2,8.1-6.7,8.1H0v0l0,0c1,0.3,3,1.9,3.5,5.1
		c1.2,7.5,2.1,12.1,4.7,12.1c2.6,0,3.6-4,5.1-10.2c1.2-4.9,3-7,5.2-7c3.2,0,4.8,3.9,6.5,11.4c3.5,14.9,4.3,22.1,9.9,22.1
		c5.6,0,6.5-7.2,10.3-22.1c1.6-6.5,4.7-11.4,8.3-11.4c3.6,0,6.1,4.8,7.4,8.6c2.8,8.2,4.1,11.3,7.2,11.3c3.1,0,4.9-3.7,7.6-12.7
		c1.7-5.7,2-7.2,7-7.2L90.4,81.2L90.4,81.2L90.4,81.2z"/>
</g>
</svg>
