<?xml version="1.0" encoding="utf-8"?>
<!-- Generator: Adobe Illustrator 25.2.1, SVG Export Plug-In . SVG Version: 6.00 Build 0)  -->
<svg version="1.1" id="Слой_1" xmlns="http://www.w3.org/2000/svg" xmlns:xlink="http://www.w3.org/1999/xlink" x="0px" y="0px"
	 viewBox="0 0 300 160" style="enable-background:new 0 0 300 160;" xml:space="preserve">
<style type="text/css">
	.st0{fill:#A0ACE3;}
	.st1{fill-rule:evenodd;clip-rule:evenodd;fill:#A0ACE3;}
</style>
<g id="Framework-_x26_-Grid" transform="translate(18.000000, 6.000000)">
	<g id="NAV_x2C_-Utility---Desktop">
		<g id="utility-nav">
			<g id="logitechg">
				<g id="Layer_1_1_">
					<g id="Group">
						<g id="Logo_1_">
							<path id="Shape" class="st0" d="M42.7,87.1c-4.8,0-8.5-3.7-8.5-8.7c0-4.8,3.7-8.5,8.5-8.5s8.5,3.7,8.5,8.5
								S47.3,87.1,42.7,87.1L42.7,87.1z M58.2,69.6v-5.9H47.8c-1.7-0.8-3.4-0.9-5.1-0.9c-9,0-15.9,6.8-15.9,15.8s7,15.6,15.8,15.6
								s15.8-6.8,15.8-15.6c0-3.1-0.9-5.9-2.5-8L58.2,69.6z M8.2,87.1c-4.8,0-8.5-3.7-8.5-8.7c0-4.8,3.7-8.5,8.5-8.5
								s8.5,3.7,8.5,8.5S13.1,87.1,8.2,87.1L8.2,87.1z M8.2,62.8c-9,0-15.8,6.8-15.8,15.6s7,15.8,15.8,15.8S24,87.4,24,78.6
								S17.1,62.8,8.2,62.8L8.2,62.8z M-18,93.4h7.3V51.3H-18V93.4z M61.4,93.4h7.3V63.7h-7.3V93.4z M42.7,103.8
								c-4.8,0-8.5-3.7-8.5-8.5h-7.4c0,9,7,15.6,15.8,15.6s15.9-6.8,15.9-15.6h-7.3C51,100.2,47.3,103.8,42.7,103.8L42.7,103.8z
								 M96.1,75.5c1.1-3.9,3.9-6,7.7-6s6.8,2.2,7.6,6H96.1z M104.1,62.8c-9,0-15.6,6.8-15.6,15.8s6,15.3,15.6,15.3
								c5.1,0,9.9-2,13.5-5.6l-5.1-5.1c-2.5,2.5-5.1,3.9-8.2,3.9c-4.2,0-7.1-2.5-8-6h23.1v-1.7C119.3,69.6,113,62.8,104.1,62.8
								L104.1,62.8z M169.5,62.8c-3.7,0-6.8,1.2-9,3.7V51.2h-7.3v42.1h7.3V77.2c0-4.3,2.6-7.1,7.1-7.1c4.2,0,6.5,2.6,6.5,7.1v16.1
								h7.3V75.9C181.7,67.7,176.4,62.8,169.5,62.8L169.5,62.8z M137.4,70.1c3.1,0,5.6,1.5,7.6,3.9l5.1-5.1
								c-2.9-3.7-7.3-5.9-12.7-5.9c-9,0-15.8,6.8-15.8,15.6s7,15.6,15.8,15.6c5.1,0,9.8-2.5,12.7-5.9l-5.1-5.1
								c-2,2.2-4.6,3.9-7.6,3.9c-4.8,0-8.2-3.7-8.2-8.5C128.9,73.8,132.8,70.1,137.4,70.1L137.4,70.1z M83.5,54.6h-7.3v9.1h-3.9v6.5
								h3.9v23.1h7.3V70.2h4.2v-6.5h-4.2V54.6L83.5,54.6z M65.3,50.4c-2.6,0-4.8,2.2-4.8,5.1c0,2.6,2.2,4.8,4.8,4.8
								c2.9,0,5.1-2.2,5.1-4.8C70.1,52.6,67.9,50.4,65.3,50.4L65.3,50.4z"/>
							<path id="Shape-path" class="st1" d="M237.6,37.1v15c-11.8,0-21.1,9.3-21.1,21.1c0,11.5,9.3,21.1,21.1,21.1v15
								c-20,0-36.2-16.1-36.2-36.1S217.6,37.1,237.6,37.1z"/>
							<polygon id="Shape-path_1_" class="st1" points="238,66.6 238,81.4 255.5,81.4 255.5,98.8 270.4,98.8 270.4,66.6 							"/>
						</g>
						<g id="Shape_3_" transform="translate(186.000000, 42.285714)">
							<polygon id="Shape_1_" class="st0" points="84.4,60.1 88.7,60.1 88.7,61 87,61 87,66.6 86.2,66.6 86.2,61 84.4,61 							"/>
							<polygon id="Shape_2_" class="st0" points="93.1,65.4 92.6,65.4 90.6,62.3 90.6,66.6 89.7,66.6 89.7,60.1 90.4,60.1 92.9,64 
								95.2,60.1 96,60.1 96,66.6 95.1,66.6 95.1,62.3 							"/>
						</g>
					</g>
				</g>
			</g>
		</g>
	</g>
</g>
</svg>
