<?xml version="1.0" encoding="utf-8"?>
<!-- Generator: Adobe Illustrator 25.2.1, SVG Export Plug-In . SVG Version: 6.00 Build 0)  -->
<svg version="1.1" id="Слой_1" xmlns="http://www.w3.org/2000/svg" xmlns:xlink="http://www.w3.org/1999/xlink" x="0px" y="0px"
	 viewBox="0 0 300 160" style="enable-background:new 0 0 300 160;" xml:space="preserve">
<style type="text/css">
	.st0{fill:none;}
	.st1{fill:#A0ACE3;}
</style>
<rect class="st0" width="300" height="160"/>
<path class="st1" d="M45.2,39.4C23.4,39.1,5.6,56.3,5.3,78.1c0,0.6,0,1.4,0,2v77.2l20.1-11.5v-34.1c5.7,4.3,12.9,6.6,20.4,6.6
	c21.8,0.6,39.9-16.9,40.4-38.7S69.3,39.7,47.5,39.1C46.6,39.4,46,39.4,45.2,39.4L45.2,39.4z M45.2,98.5c-10.9,0-19.8-8.9-19.8-19.8
	s8.9-19.8,19.8-19.8S65,67.8,65,78.7l0,0c0.6,10.3-7.5,19.2-17.8,19.8C46.3,98.5,45.7,98.5,45.2,98.5z M182.6,14.5l20.1-11.8v112.4
	h-20.1V14.5z M132.6,39.4c-21.8,0.3-39.3,18.1-39,39.9s18.1,39.3,39.9,39s39-17.8,39-39.6s-17.5-39.3-39-39.6
	C133.2,39.4,132.9,39.4,132.6,39.4L132.6,39.4z M132.6,98.5c-10.9,0-19.8-8.9-19.8-19.8s8.9-19.8,19.8-19.8
	c10.9,0,19.8,8.9,19.8,19.8l0,0C153,89,145,97.9,134.7,98.5C133.8,98.5,133.2,98.5,132.6,98.5L132.6,98.5z M294.7,42.3l-47,107.3
	h-21.5l16.3-35.9l-31.5-71.4h21.8L253.4,89l19.8-46.7H294.7z"/>
</svg>
