<?xml version="1.0" encoding="utf-8"?>
<!-- Generator: Adobe Illustrator 25.2.1, SVG Export Plug-In . SVG Version: 6.00 Build 0)  -->
<svg version="1.1" id="Слой_1" xmlns="http://www.w3.org/2000/svg" xmlns:xlink="http://www.w3.org/1999/xlink" x="0px" y="0px"
	 viewBox="0 0 300 160" style="enable-background:new 0 0 300 160;" xml:space="preserve">
<style type="text/css">
	.st0{fill:#A0ACE3;}
</style>
<g>
	<g>
		<g>
			<path class="st0" d="M286.4,10.6c-2.6-2.6-5.9-3.8-9.5-3.8H13.6C10,6.7,6.4,8,4.1,10.6C1.5,13.1,0,16.7,0,20.3v87
				c0,3.6,1.3,6.9,4.1,9.5c2.6,2.6,5.9,4.1,9.5,4.1H277c7.4,0,13.6-6.1,13.6-13.6v-87C290.5,16.7,289,13.1,286.4,10.6z M284.1,107.2
				c0,3.8-3.1,7.2-7.2,7.2H13.6c-3.8,0-7.2-3.1-7.2-7.2v-87c0-3.8,3.1-7.2,7.2-7.2H277c3.8,0,7.2,3.1,7.2,7.2V107.2L284.1,107.2z"/>
			<path class="st0" d="M95.4,36.9l-10,35.3c-1.8,5.6-5.4,8.4-14.3,8.4H46l5.4-13.3h21.5l10.2-33c0.3-1,0-1.8-1.8-1.8H49.1
				c-0.8,0-1,0.3-1.3,1L30.7,88.8c-0.5,1.5,0,2.3,2,2.3h49.6l-5.6,13.3H17.1c-4.3,0-4.3-3.3-3.6-5.6l23.3-75.2
				c0.8-2.6,3.8-4.6,7.4-4.6h36.8C92.1,19,98,27.4,95.4,36.9z"/>
			<path class="st0" d="M126.6,32.3h47.3l5.4-13.3h-53.2c-8.4,0-12.3,2-13.8,6.9l-11.8,38.4c-3.3,11.3-0.3,16.4,11,16.4h60.6
				c7.4,0,13.6-1,16.6-6.9l12-33l7.4,26.6c2.8,9,9.7,11.5,14.3,11.5c3.6,0,10-1.8,12.8-10.2l10.5-27.4l14.8,47.3
				c0.8,2-0.8,2.3-3.1,2.3H209l3.3,13.3h66.5l-23-78c-2-5.9-8.7-6.6-10-6.6c-1.3,0-8.4,0.3-10.7,5.9l-12.8,35l-11.5-34
				c-2-6.1-8.7-6.9-10-6.9s-8.4,0.3-10.7,5.9l-13.6,41.9h-61.6c-0.8,0-1-0.5-0.8-1.3l9.2-30.2C123.8,33.3,124,32.3,126.6,32.3z"/>
		</g>
		<g>
			<path class="st0" d="M91.3,92.1c0.3,0.5,0.5,1,0.5,1.5c0,0.8-0.3,1.3-0.5,1.8c-0.3,0.5-0.8,1-1.5,1.3h-3.1v-5.9h2.6
				c0.3,0,0.8,0.3,1,0.3C90.8,91.4,91,91.6,91.3,92.1z M92.6,90.4c-0.8-0.8-1.8-1.3-2.8-1.3h-5.1v17.4h2v-7.9H90c1,0,2-0.5,2.8-1.5
				c0.8-0.8,1-1.8,1-3.1c0-0.3,0-0.3,0-0.8C93.9,92.1,93.4,91.1,92.6,90.4z"/>
			<path class="st0" d="M108.7,102.6c-1.3,1.5-2.8,2-4.6,2s-3.3-0.8-4.6-2c-1.3-1.3-2-3.1-2-5.1s0.5-3.8,1.8-5.1
				c1.3-1.5,2.8-2.3,4.6-2.3s3.3,0.8,4.9,2c1.3,1.3,2,3.1,2,5.1C110.7,99.6,110,101.4,108.7,102.6z M110,91.1
				c-1.8-1.8-3.8-2.6-6.1-2.6s-4.3,1-5.9,2.8c-1.5,1.8-2.6,4.1-2.6,6.6c0,2.6,0.8,4.6,2.6,6.4s3.8,2.6,6.1,2.6s4.3-1,5.9-2.8
				c1.5-1.8,2.6-4.1,2.6-6.6C112.5,95,111.8,92.9,110,91.1z"/>
			<path class="st0" d="M132.5,89.1h2l-5.9,17.9h-0.5L124,93.2l-3.8,13.8h-0.5l-6.1-17.9h2l4.1,13.8l4.1-14.1h0.5l4.1,14.1
				L132.5,89.1z"/>
			<path class="st0" d="M144.5,104.7v1.8h-8.7V89.1h8.7v1.8h-6.6V96h6.6v1.8h-6.6v6.6L144.5,104.7L144.5,104.7z"/>
			<path class="st0" d="M154.2,92.1c0.3,0.5,0.5,1,0.5,1.8c0,0.8-0.3,1.3-0.5,1.8c-0.3,0.5-1,0.8-1.5,0.8h-3.6v-5.9h3.1
				c0.3,0,0.3,0,0.5,0c0.3,0,0.5,0.3,0.5,0.3C153.7,91.4,154,91.6,154.2,92.1z M153.7,98.3c0.8-0.3,1.3-0.5,1.8-1
				c0.5-0.5,0.8-1,1-1.5c0.3-0.5,0.3-1.3,0.3-1.8c0-1.3-0.3-2.3-1-3.3c-0.8-1-1.5-1.5-2.8-1.5h-5.9v17.4h2v-9l5.9,9h2.6l-5.9-8.2
				H153.7L153.7,98.3z"/>
			<path class="st0" d="M170.3,103.1v2.6c-1.5,0.8-3.1,1-4.6,1c-1,0-2.3-0.3-3.1-0.5c-1-0.3-1.8-1-2.8-1.8c-0.8-1-1.5-2-1.8-3.1
				c-0.5-1.3-0.8-2.3-0.8-3.6c0-1.8,0.5-3.3,1.3-4.6c0.5-1,1-1.8,1.8-2.3c0.8-0.5,1.3-1,1.8-1.3c0.5-0.3,1-0.5,1.3-0.5
				c0.3,0,0.8-0.3,1-0.3c0.3,0,0.8,0,1,0c0.5,0,1,0,1.8,0.3c0.5,0,1.3,0.3,1.8,0.5l1.3,0.5v2.3c-1.3-1-2.8-1.5-4.3-1.5
				c-1,0-2,0.3-3.1,0.8c-1,0.5-1.8,1.3-2.3,2.3c-0.3,0.5-0.8,1.3-0.8,2c-0.3,0.8-0.3,1.5-0.3,2.3c0,1.3,0.3,2.6,1,3.8
				c0.5,1.3,1.5,2,2.6,2.6s2,0.8,3.3,0.8s2.3-0.3,3.1-1L170.3,103.1z"/>
			<path class="st0" d="M184.9,102.6c-1.3,1.5-2.8,2-4.6,2c-1.8,0-3.3-0.8-4.9-2c-1.3-1.3-2-3.1-2-5.1s0.5-3.8,1.8-5.1
				c1.3-1.5,2.8-2.3,4.6-2.3c1.8,0,3.3,0.8,4.6,2c1.3,1.3,2,3.1,2,5.1C186.7,99.6,186.2,101.4,184.9,102.6z M186.2,91.1
				c-1.8-1.8-3.8-2.6-6.1-2.6c-2.3,0-4.3,1-5.9,2.8c-1.5,1.8-2.6,4.1-2.6,6.6c0,2.6,0.8,4.6,2.6,6.4c1.8,1.8,3.8,2.6,6.1,2.6
				s4.3-1,5.9-2.8c1.5-1.8,2.6-4.1,2.6-6.6C188.7,95,187.7,92.9,186.2,91.1z"/>
			<path class="st0" d="M204.9,88.6l3.1,17.9h-2l-1.8-13L199,107h-0.5l-4.9-13.6l-2,13h-2l3.1-17.9h0.8l5.4,14.6l5.4-14.6H204.9z"/>
		</g>
	</g>
	<g>
		<path class="st0" d="M13,140.7l3.6,1.3c-0.5,2-1.5,3.8-2.6,4.9c-1.3,1-2.8,1.5-4.9,1.5c-2.3,0-4.3-0.8-5.9-2.6S1,141.8,1,138.4
			c0-3.3,0.8-5.9,2.3-7.7s3.6-2.8,6.1-2.8c2.3,0,3.8,0.8,5.4,2c0.8,0.8,1.5,2,1.8,3.6l-3.6,1c-0.3-1-0.8-1.8-1.3-2.3
			c-0.8-0.5-1.5-0.8-2.6-0.8c-1.3,0-2.3,0.5-3.3,1.5c-0.8,1-1.3,2.8-1.3,5.1c0,2.6,0.5,4.3,1.3,5.4c0.8,0.8,2,1.3,3.3,1.3
			c1,0,1.8-0.3,2.6-1C12.3,143.3,12.8,142,13,140.7z"/>
		<path class="st0" d="M18.4,140.5c0-1.3,0.3-2.6,0.8-3.6c0.5-1.3,1.3-2,2.3-2.6c1-0.5,2-1,3.3-1c2,0,3.6,0.8,4.9,2
			c1.3,1.3,1.8,3.1,1.8,5.4c0,2-0.5,3.8-1.8,5.4c-1.3,1.5-2.8,2-4.9,2c-1.3,0-2.3-0.3-3.3-0.8c-1-0.5-1.8-1.5-2.6-2.6
			C18.7,143.6,18.4,142.3,18.4,140.5z M21.7,140.7c0,1.3,0.3,2.6,1,3.3c0.5,0.8,1.3,1,2.3,1c1,0,1.5-0.3,2.3-1c0.5-0.8,1-1.8,1-3.3
			c0-1.3-0.3-2.6-1-3.1c-0.5-0.8-1.3-1-2.3-1c-0.8,0-1.5,0.3-2.3,1C22,138.4,21.7,139.5,21.7,140.7z"/>
		<path class="st0" d="M33.5,133.6h3.1v2c1-1.5,2.6-2.3,4.1-2.3c0.8,0,1.5,0.3,2,0.5c0.5,0.3,1,1,1.5,1.8c0.5-0.8,1.3-1.3,1.8-1.8
			c0.8-0.3,1.3-0.5,2-0.5c1,0,1.8,0.3,2.3,0.5c0.8,0.5,1,1,1.5,1.8c0.3,0.5,0.3,1.5,0.3,3.1v9h-3.3v-7.9c0-1.3,0-2.3-0.3-2.8
			s-0.8-0.8-1.5-0.8c-0.5,0-1,0.3-1.3,0.5c-0.5,0.3-0.8,0.8-1,1.5c-0.3,0.5-0.3,1.5-0.3,2.8v6.9h-3.3v-7.7c0-1.3,0-2.3-0.3-2.6
			c0-0.5-0.3-0.8-0.5-1c-0.3-0.3-0.5-0.3-1-0.3c-0.5,0-1,0.3-1.5,0.5c-0.5,0.3-0.8,0.8-1,1.3c-0.3,0.5-0.3,1.5-0.3,2.8v6.9h-3.3
			L33.5,133.6L33.5,133.6z"/>
		<path class="st0" d="M55.2,133.6h3.1v2c0.5-0.8,1-1.3,1.8-1.8c0.8-0.5,1.5-0.8,2.3-0.8c1.5,0,2.8,0.8,3.8,2c1,1.3,1.5,3.1,1.5,5.4
			s-0.5,4.1-1.5,5.6c-1,1.3-2.3,2-3.8,2c-0.8,0-1.3-0.3-2-0.5c-0.5-0.3-1.3-0.8-1.8-1.5v7.2h-3.3L55.2,133.6L55.2,133.6z
			 M58.6,140.5c0,1.5,0.3,2.8,0.8,3.6s1.3,1,2,1s1.5-0.3,2-1c0.5-0.8,0.8-1.8,0.8-3.3c0-1.5-0.3-2.6-0.8-3.3c-0.5-0.8-1.3-1-2-1
			s-1.5,0.3-2,1S58.6,139.2,58.6,140.5z"/>
		<path class="st0" d="M70.1,147.9v-19.7h3.3v19.7C73.4,147.9,70.1,147.9,70.1,147.9z"/>
		<path class="st0" d="M84.1,143.3l3.3,0.5c-0.5,1.3-1,2.3-2,3.1c-1,0.8-2,1-3.6,1c-2.3,0-3.8-0.8-5.1-2.3c-0.8-1.3-1.3-2.8-1.3-4.9
			c0-2.3,0.5-4.1,1.8-5.6c1-1.3,2.6-2,4.3-2c2,0,3.3,0.8,4.6,2c1,1.3,1.5,3.6,1.5,6.4H79c0,1,0.3,2,0.8,2.6c0.5,0.5,1.3,1,2,1
			c0.5,0,1-0.3,1.3-0.5C83.6,144.6,83.9,144.1,84.1,143.3z M84.1,139.7c0-1-0.3-2-0.8-2.6c-0.5-0.5-1-0.8-1.8-0.8
			c-0.8,0-1.3,0.3-1.8,1c-0.5,0.5-0.8,1.5-0.8,2.6h5.1V139.7z"/>
		<path class="st0" d="M95.9,133.6v3.1h-2.3v5.6c0,1.3,0,1.8,0,2s0.3,0.3,0.3,0.5c0.3,0.3,0.3,0.3,0.5,0.3c0.3,0,0.8,0,1.3-0.3
			l0.3,2.8c-0.8,0.3-1.8,0.5-2.8,0.5c-0.5,0-1.3,0-1.5-0.3c-0.5-0.3-0.8-0.5-1-0.8c-0.3-0.3-0.5-0.8-0.5-1.5c0-0.5,0-1.3,0-2.6v-6.1
			h-1.5v-3.1H90V131l3.3-2.3v5.1h2.6V133.6z"/>
		<path class="st0" d="M105.1,143.3l3.3,0.5c-0.5,1.3-1,2.3-2,3.1s-2,1-3.6,1c-2.3,0-3.8-0.8-5.1-2.3c-0.8-1.3-1.3-2.8-1.3-4.9
			c0-2.3,0.5-4.1,1.8-5.6c1-1.3,2.6-2,4.3-2c2,0,3.3,0.8,4.6,2c1,1.3,1.5,3.6,1.5,6.4H100c0,1,0.3,2,0.8,2.6c0.5,0.5,1.3,1,2,1
			c0.5,0,1-0.3,1.3-0.5C104.6,144.6,104.9,144.1,105.1,143.3z M105.4,139.7c0-1-0.3-2-0.8-2.6c-0.5-0.5-1-0.8-1.8-0.8
			c-0.8,0-1.3,0.3-1.8,1c-0.5,0.8-0.8,1.5-0.8,2.6h5.1V139.7z"/>
		<path class="st0" d="M117.4,147.9v-19.7h5.9c2.3,0,3.6,0,4.3,0.3c1,0.3,1.8,1,2.6,2c0.8,1,1,2.3,1,3.8c0,1.3-0.3,2.3-0.5,3.1
			c-0.5,0.8-1,1.5-1.5,2c-0.5,0.5-1.3,0.8-1.8,1c-0.8,0.3-2,0.3-3.8,0.3h-2.3v7.4h-3.8V147.9z M121,131.5v5.6h2c1.5,0,2.3,0,2.8-0.3
			c0.5-0.3,0.8-0.5,1-1c0.3-0.5,0.5-1,0.5-1.5c0-0.8-0.3-1.3-0.5-1.8c-0.3-0.5-0.8-0.8-1.5-0.8c-0.5,0-1.3-0.3-2.6-0.3L121,131.5
			L121,131.5z"/>
		<path class="st0" d="M132.7,140.5c0-1.3,0.3-2.6,0.8-3.6c0.5-1.3,1.3-2,2.3-2.6c1-0.5,2.3-1,3.3-1c2,0,3.6,0.8,4.9,2
			c1.3,1.3,1.8,3.1,1.8,5.4c0,2-0.5,3.8-1.8,5.4c-1.3,1.5-2.8,2-4.9,2c-1.3,0-2.3-0.3-3.3-0.8c-1-0.5-1.8-1.5-2.6-2.6
			C133,143.6,132.7,142.3,132.7,140.5z M136.1,140.7c0,1.3,0.3,2.6,1,3.3c0.5,0.8,1.3,1,2.3,1c0.8,0,1.5-0.3,2.3-1
			c0.5-0.8,1-1.8,1-3.3c0-1.3-0.3-2.6-1-3.1c-0.5-0.8-1.3-1-2.3-1c-0.8,0-1.5,0.3-2.3,1C136.6,138.4,136.1,139.5,136.1,140.7z"/>
		<path class="st0" d="M150.6,147.9l-4.1-14.3h3.3l2.3,9.2l2.3-9.2h3.3l2,9.2l2.6-9.2h3.3l-4.1,14.3h-3.3l-2.3-9.2l-2.3,9.2H150.6z"
			/>
		<path class="st0" d="M174.4,143.3l3.3,0.5c-0.5,1.3-1,2.3-2,3.1c-1,0.8-2,1-3.6,1c-2.3,0-3.8-0.8-4.9-2.3
			c-0.8-1.3-1.3-2.8-1.3-4.9c0-2.3,0.5-4.1,1.8-5.6c1-1.3,2.6-2,4.3-2c2,0,3.3,0.8,4.6,2c1,1.3,1.5,3.6,1.5,6.4h-8.7
			c0,1,0.3,2,0.8,2.6c0.5,0.5,1.3,1,2,1c0.5,0,1-0.3,1.3-0.5C174.2,144.6,174.4,144.1,174.4,143.3z M174.7,139.7c0-1-0.3-2-0.8-2.6
			c-0.5-0.5-1-0.8-1.8-0.8c-0.8,0-1.3,0.3-1.8,1c-0.5,0.5-0.8,1.5-0.8,2.6h5.1V139.7z"/>
		<path class="st0" d="M183.6,147.9h-3.3v-14.3h3.1v2c0.5-1,1-1.5,1.5-1.8c0.5-0.3,1-0.5,1.5-0.5c0.8,0,1.5,0.3,2.3,0.8l-1,3.3
			c-0.5-0.5-1-0.5-1.5-0.5s-0.8,0.3-1.3,0.5c-0.3,0.3-0.5,0.8-0.8,1.5c-0.3,0.8-0.3,2.3-0.3,4.9v4.1H183.6z"/>
		<path class="st0" d="M195.1,141.5l3.6-0.3c0.3,1.3,0.5,2.3,1.3,2.8c0.8,0.5,1.5,1,2.6,1c1.3,0,2-0.3,2.6-0.8
			c0.5-0.5,0.8-1.3,0.8-1.8c0-0.5,0-0.8-0.3-1.3c-0.3-0.3-0.8-0.5-1.3-0.8c-0.5-0.3-1.3-0.5-2.8-0.8c-2-0.5-3.3-1.3-4.1-2
			c-1-1-1.5-2.3-1.5-3.8c0-1,0.3-2,0.8-2.8c0.5-0.8,1.3-1.5,2.3-2s2-0.8,3.6-0.8c2.3,0,3.8,0.5,5.1,1.5c1,1,1.8,2.6,1.8,4.3
			l-3.6,0.3c-0.3-1-0.5-1.8-1-2c-0.5-0.5-1.3-0.8-2.3-0.8s-1.8,0.3-2.6,0.8c-0.3,0.3-0.5,0.8-0.5,1.3s0.3,0.8,0.5,1.3
			c0.5,0.5,1.5,0.8,3.3,1.3c1.8,0.5,3.1,1,3.8,1.5s1.5,1,2,2c0.5,0.8,0.8,1.8,0.8,3.1c0,1-0.3,2.3-0.8,3.1c-0.5,1-1.3,1.8-2.3,2.3
			c-1,0.5-2.3,0.8-3.8,0.8c-2.3,0-4.1-0.5-5.1-1.8C195.9,145.3,195.4,143.8,195.1,141.5z"/>
		<path class="st0" d="M211.3,140.5c0-1.3,0.3-2.6,0.8-3.6c0.5-1.3,1.3-2,2.3-2.6s2-1,3.3-1c2,0,3.6,0.8,4.9,2
			c1.3,1.3,1.8,3.1,1.8,5.4c0,2-0.5,3.8-1.8,5.4c-1.3,1.5-2.8,2-4.9,2c-1.3,0-2.3-0.3-3.3-0.8c-1-0.5-1.8-1.5-2.6-2.6
			C211.5,143.6,211.3,142.3,211.3,140.5z M214.8,140.7c0,1.3,0.3,2.6,1,3.3c0.5,0.8,1.3,1,2.3,1s1.5-0.3,2.3-1c0.8-0.8,1-1.8,1-3.3
			c0-1.3-0.3-2.6-1-3.1c-0.5-0.8-1.3-1-2.3-1c-0.8,0-1.5,0.3-2.3,1C215.1,138.4,214.8,139.5,214.8,140.7z"/>
		<path class="st0" d="M226.9,147.9v-19.7h3.3v19.7H226.9z"/>
		<path class="st0" d="M241.7,147.9v-2c-0.5,0.8-1,1.3-1.8,1.8c-0.8,0.5-1.5,0.8-2.3,0.8s-1.5-0.3-2.3-0.5c-0.8-0.5-1.3-1-1.5-1.8
			c-0.3-0.8-0.5-1.8-0.5-3.1v-9h3.3v6.4c0,2,0,3.3,0.3,3.6c0,0.5,0.3,0.8,0.8,1c0.3,0.3,0.8,0.5,1.3,0.5s1-0.3,1.5-0.5
			c0.5-0.3,0.8-0.8,1-1.3c0.3-0.5,0.3-1.8,0.3-3.8v-5.9h3.3v14.3L241.7,147.9L241.7,147.9z"/>
		<path class="st0" d="M253.7,133.6v3.1h-2.3v5.6c0,1.3,0,1.8,0,2s0.3,0.3,0.3,0.5c0.3,0.3,0.3,0.3,0.5,0.3c0.3,0,0.8,0,1.3-0.3
			l0.3,2.8c-0.8,0.3-1.8,0.5-2.8,0.5c-0.5,0-1.3,0-1.5-0.3c-0.5-0.3-0.8-0.5-1-0.8s-0.3-0.8-0.5-1.5c0-0.5,0-1.3,0-2.6v-6.1h-1.5
			v-3.1h1.8V131l3.3-2.3v5.1h2.3V133.6z"/>
		<path class="st0" d="M255.8,131.8v-3.6h3.3v3.6H255.8L255.8,131.8z M255.8,147.9v-14.3h3.3v14.3H255.8z"/>
		<path class="st0" d="M261.4,140.5c0-1.3,0.3-2.6,0.8-3.6c0.5-1.3,1.3-2,2.3-2.6c1-0.5,2-1,3.3-1c2,0,3.6,0.8,4.9,2
			c1.3,1.3,1.8,3.1,1.8,5.4c0,2-0.5,3.8-1.8,5.4c-1.3,1.5-2.8,2-4.9,2c-1.3,0-2.3-0.3-3.3-0.8c-1-0.5-1.8-1.5-2.6-2.6
			C261.6,143.6,261.4,142.3,261.4,140.5z M264.7,140.7c0,1.3,0.3,2.6,1,3.3c0.5,0.8,1.3,1,2.3,1c0.8,0,1.5-0.3,2.3-1
			c0.5-0.8,1-1.8,1-3.3c0-1.3-0.3-2.6-1-3.1c-0.5-0.8-1.3-1-2.3-1c-1,0-1.5,0.3-2.3,1C265,138.4,264.7,139.5,264.7,140.7z"/>
		<path class="st0" d="M288.5,147.9h-3.3v-7.2c0-1.5,0-2.6-0.3-3.1c-0.3-0.5-0.3-0.8-0.8-1c-0.3-0.3-0.8-0.3-1.3-0.3s-1,0.3-1.5,0.5
			c-0.5,0.3-0.8,0.8-1,1.5c-0.3,0.5-0.3,1.8-0.3,3.3v6.4h-3.3v-14.3h3.1v2c1-1.5,2.6-2.3,4.3-2.3c0.8,0,1.5,0.3,2,0.5
			c0.5,0.3,1,0.8,1.5,1c0.3,0.5,0.5,1,0.8,1.5c0,0.5,0.3,1.5,0.3,2.6L288.5,147.9L288.5,147.9z"/>
	</g>
	<g>
		<path class="st0" d="M291.8,136.4v-4.9h-1.5v-0.8h3.8v0.8h-1.5v4.9H291.8z"/>
		<path class="st0" d="M295.1,136.4V131h1l1.3,3.8c0,0.3,0.3,0.5,0.3,0.8c0-0.3,0.3-0.5,0.3-0.8l1.3-3.8h0.8v5.4h-0.8v-4.6l-1.5,4.6
			h-0.5l-1.5-4.6v4.6H295.1z"/>
	</g>
</g>
</svg>
