<?xml version="1.0" encoding="UTF-8"?>
<!DOCTYPE svg PUBLIC "-//W3C//DTD SVG 1.1//EN" "http://www.w3.org/Graphics/SVG/1.1/DTD/svg11.dtd">
<svg xmlns="http://www.w3.org/2000/svg" version="1.1" width="2048px" height="813px" style="shape-rendering:geometricPrecision; text-rendering:geometricPrecision; image-rendering:optimizeQuality; fill-rule:evenodd; clip-rule:evenodd" xmlns:xlink="http://www.w3.org/1999/xlink">
<g><path style="opacity:0.993" fill="#A0ACE3" d="M 368.5,-0.5 C 393.5,-0.5 418.5,-0.5 443.5,-0.5C 578.207,15.7417 682.041,80.7417 755,194.5C 818.51,305.439 830.177,421.773 790,543.5C 776.202,582.441 756.702,618.108 731.5,650.5C 696.18,615.68 661.014,580.68 626,545.5C 625.333,544.167 625.333,542.833 626,541.5C 663.956,478.478 673.956,411.144 656,339.5C 628.722,249.224 570.556,188.724 481.5,158C 377.133,130.696 287.633,155.529 213,232.5C 152.389,303.854 133.389,385.187 156,476.5C 184.229,564.728 242.062,623.894 329.5,654C 404.396,675.581 475.063,666.248 541.5,626C 542.833,625.333 544.167,625.333 545.5,626C 580.135,660.97 614.969,695.47 650,729.5C 650.63,731.903 649.797,733.737 647.5,735C 586.666,779.068 518.666,804.901 443.5,812.5C 418.5,812.5 393.5,812.5 368.5,812.5C 249.605,799.308 153.438,745.642 80,651.5C 34.2409,589.759 7.40756,520.426 -0.5,443.5C -0.5,418.5 -0.5,393.5 -0.5,368.5C 15.7733,231.418 82.44,126.585 199.5,54C 251.77,23.6733 308.104,5.50663 368.5,-0.5 Z"/></g>
<g><path style="opacity:0.993" fill="#A0ACE3" d="M 391.5,258.5 C 452.761,255.379 499.928,279.379 533,330.5C 560.333,380.833 560.333,431.167 533,481.5C 496.55,536.465 445.383,559.631 379.5,551C 326.289,539.452 289.122,508.618 268,458.5C 248.989,399.343 260.156,346.843 301.5,301C 326.786,276.857 356.786,262.69 391.5,258.5 Z"/></g>
<g><path style="opacity:0.964" fill="#A0ACE3" d="M 1034.5,275.5 C 1094.27,272.621 1138.77,296.955 1168,348.5C 1183.31,382.574 1185.64,417.574 1175,453.5C 1171.21,464.045 1166.38,474.045 1160.5,483.5C 1175.17,498.5 1189.83,513.5 1204.5,528.5C 1192.68,540.819 1180.68,552.986 1168.5,565C 1167.5,565.667 1166.5,565.667 1165.5,565C 1151,550.5 1136.5,536 1122,521.5C 1087.02,543.423 1049.52,548.923 1009.5,538C 955.998,519.496 924.498,482.33 915,426.5C 910.42,371.83 930.253,328.664 974.5,297C 992.978,285.563 1012.98,278.396 1034.5,275.5 Z M 1041.5,330.5 C 1079.26,330.279 1105.76,347.279 1121,381.5C 1132.88,420.547 1122.38,452.047 1089.5,476C 1051.06,496.272 1016.89,490.772 987,459.5C 962.333,426.167 962.333,392.833 987,359.5C 1001.66,343.088 1019.83,333.422 1041.5,330.5 Z"/></g>
<g><path style="opacity:0.968" fill="#A0ACE3" d="M 1185.5,275.5 C 1245.5,275.5 1305.5,275.5 1365.5,275.5C 1365.5,293.833 1365.5,312.167 1365.5,330.5C 1344.83,330.5 1324.17,330.5 1303.5,330.5C 1303.5,401.5 1303.5,472.5 1303.5,543.5C 1285.17,543.5 1266.83,543.5 1248.5,543.5C 1248.5,472.5 1248.5,401.5 1248.5,330.5C 1227.5,330.5 1206.5,330.5 1185.5,330.5C 1185.5,312.167 1185.5,293.833 1185.5,275.5 Z"/></g>
<g><path style="opacity:0.979" fill="#A0ACE3" d="M 1390.5,275.5 C 1447.17,275.5 1503.83,275.5 1560.5,275.5C 1560.5,293.833 1560.5,312.167 1560.5,330.5C 1522.17,330.5 1483.83,330.5 1445.5,330.5C 1445.5,347.833 1445.5,365.167 1445.5,382.5C 1483.83,382.5 1522.17,382.5 1560.5,382.5C 1560.5,400.5 1560.5,418.5 1560.5,436.5C 1522.17,436.5 1483.83,436.5 1445.5,436.5C 1445.5,453.833 1445.5,471.167 1445.5,488.5C 1483.83,488.5 1522.17,488.5 1560.5,488.5C 1560.5,506.833 1560.5,525.167 1560.5,543.5C 1503.83,543.5 1447.17,543.5 1390.5,543.5C 1390.5,454.167 1390.5,364.833 1390.5,275.5 Z"/></g>
<g><path style="opacity:0.958" fill="#A0ACE3" d="M 1706.5,275.5 C 1746.1,272.882 1780.76,284.382 1810.5,310C 1814.57,313.402 1817.9,317.402 1820.5,322C 1808.33,335.5 1795.5,348.333 1782,360.5C 1776.51,355.68 1771.01,350.846 1765.5,346C 1731.62,324.272 1698.95,325.772 1667.5,350.5C 1641.15,375.921 1634.31,405.921 1647,440.5C 1666.02,477.312 1696.18,492.479 1737.5,486C 1753.95,481.201 1768.11,472.701 1780,460.5C 1792.96,472.458 1805.63,484.791 1818,497.5C 1818.67,498.5 1818.67,499.5 1818,500.5C 1782.2,537.208 1739.03,550.374 1688.5,540C 1630.83,523.516 1597,485.683 1587,426.5C 1581.77,367.485 1604.27,322.652 1654.5,292C 1670.93,283.263 1688.27,277.763 1706.5,275.5 Z"/></g>
<g><path style="opacity:0.98" fill="#A0ACE3" d="M 2047.5,275.5 C 2047.5,364.833 2047.5,454.167 2047.5,543.5C 2029.5,543.5 2011.5,543.5 1993.5,543.5C 1993.5,507.833 1993.5,472.167 1993.5,436.5C 1961.5,436.5 1929.5,436.5 1897.5,436.5C 1897.5,472.167 1897.5,507.833 1897.5,543.5C 1879.17,543.5 1860.83,543.5 1842.5,543.5C 1842.5,454.167 1842.5,364.833 1842.5,275.5C 1860.83,275.5 1879.17,275.5 1897.5,275.5C 1897.5,311.167 1897.5,346.833 1897.5,382.5C 1929.5,382.5 1961.5,382.5 1993.5,382.5C 1993.5,346.833 1993.5,311.167 1993.5,275.5C 2011.5,275.5 2029.5,275.5 2047.5,275.5 Z"/></g>
<g><path style="opacity:0.863" fill="#A0ACE3" d="M 921.5,613.5 C 926.179,613.334 930.845,613.501 935.5,614C 947.045,632.921 958.212,652.087 969,671.5C 980.339,652.825 991.173,633.825 1001.5,614.5C 1006.12,613.507 1010.79,613.173 1015.5,613.5C 1015.5,641.5 1015.5,669.5 1015.5,697.5C 1010.5,697.5 1005.5,697.5 1000.5,697.5C 1000.67,679.83 1000.5,662.164 1000,644.5C 992.072,658.696 983.905,672.696 975.5,686.5C 970.95,687.8 966.45,687.8 962,686.5C 953.401,672.298 945.067,657.965 937,643.5C 936.5,661.497 936.333,679.497 936.5,697.5C 931.5,697.5 926.5,697.5 921.5,697.5C 921.5,669.5 921.5,641.5 921.5,613.5 Z"/></g>
<g><path style="opacity:0.892" fill="#A0ACE3" d="M 1045.5,613.5 C 1050.17,613.5 1054.83,613.5 1059.5,613.5C 1059.33,631.503 1059.5,649.503 1060,667.5C 1072.33,650.178 1084.16,632.511 1095.5,614.5C 1100.12,613.507 1104.79,613.173 1109.5,613.5C 1109.5,641.5 1109.5,669.5 1109.5,697.5C 1104.83,697.5 1100.17,697.5 1095.5,697.5C 1095.67,679.497 1095.5,661.497 1095,643.5C 1083.08,660.995 1071.42,678.662 1060,696.5C 1055.26,697.469 1050.43,697.803 1045.5,697.5C 1045.5,669.5 1045.5,641.5 1045.5,613.5 Z"/></g>
<g><path style="opacity:0.863" fill="#A0ACE3" d="M 1139.5,613.5 C 1148.84,613.334 1158.17,613.5 1167.5,614C 1184.76,616.765 1193.76,626.931 1194.5,644.5C 1192.66,668.987 1179.33,680.32 1154.5,678.5C 1154.5,684.833 1154.5,691.167 1154.5,697.5C 1149.83,697.5 1145.17,697.5 1140.5,697.5C 1139.57,669.515 1139.24,641.515 1139.5,613.5 Z M 1153.5,628.5 C 1160.91,627.621 1167.91,628.788 1174.5,632C 1182.7,641.945 1182.37,651.612 1173.5,661C 1167.06,663.265 1160.39,664.099 1153.5,663.5C 1153.5,651.833 1153.5,640.167 1153.5,628.5 Z"/></g>
<g><path style="opacity:0.855" fill="#A0ACE3" d="M 1313.5,613.5 C 1331.5,613.5 1349.5,613.5 1367.5,613.5C 1367.5,638.167 1367.5,662.833 1367.5,687.5C 1369.83,687.5 1372.17,687.5 1374.5,687.5C 1374.5,697.167 1374.5,706.833 1374.5,716.5C 1370.17,716.5 1365.83,716.5 1361.5,716.5C 1361.5,710.5 1361.5,704.5 1361.5,698.5C 1345.83,698.5 1330.17,698.5 1314.5,698.5C 1314.5,704.5 1314.5,710.5 1314.5,716.5C 1310.5,716.5 1306.5,716.5 1302.5,716.5C 1302.5,706.833 1302.5,697.167 1302.5,687.5C 1304.47,687.739 1306.3,687.406 1308,686.5C 1309.13,682.535 1310.13,678.535 1311,674.5C 1312.48,654.196 1313.31,633.862 1313.5,613.5 Z M 1326.5,626.5 C 1335.17,626.5 1343.83,626.5 1352.5,626.5C 1352.5,646.5 1352.5,666.5 1352.5,686.5C 1342.5,686.5 1332.5,686.5 1322.5,686.5C 1324.27,679.287 1325.44,671.954 1326,664.5C 1326.5,651.838 1326.67,639.171 1326.5,626.5 Z"/></g>
<g><path style="opacity:0.862" fill="#A0ACE3" d="M 1418.5,613.5 C 1431.78,611.095 1442.95,614.762 1452,624.5C 1456.86,634.589 1458.7,645.256 1457.5,656.5C 1457.82,665.303 1456.99,673.969 1455,682.5C 1447.43,695.819 1435.93,701.319 1420.5,699C 1409.22,696.789 1401.72,690.289 1398,679.5C 1396,664.167 1396,648.833 1398,633.5C 1401.44,623.221 1408.28,616.554 1418.5,613.5 Z M 1423.5,626.5 C 1432.87,625.602 1439.04,629.602 1442,638.5C 1444,650.5 1444,662.5 1442,674.5C 1436.01,685.886 1427.51,688.219 1416.5,681.5C 1413.42,678.107 1411.59,674.107 1411,669.5C 1410.13,659.115 1410.46,648.782 1412,638.5C 1414.02,632.65 1417.85,628.65 1423.5,626.5 Z"/></g>
<g><path style="opacity:0.849" fill="#A0ACE3" d="M 1506.5,613.5 C 1515.69,612.377 1524.35,613.877 1532.5,618C 1535.18,619.346 1537.18,621.346 1538.5,624C 1536,627.833 1532.83,631 1529,633.5C 1526.89,632.392 1525.05,630.892 1523.5,629C 1513.27,624.205 1505.44,626.705 1500,636.5C 1498.48,647.456 1498.15,658.456 1499,669.5C 1500.9,682.92 1508.4,687.754 1521.5,684C 1524.3,682.362 1526.97,680.529 1529.5,678.5C 1532.48,680.984 1535.32,683.65 1538,686.5C 1537.91,689.642 1536.41,692.142 1533.5,694C 1521.73,700.929 1509.73,701.262 1497.5,695C 1490.95,690.449 1486.78,684.283 1485,676.5C 1482.86,661.444 1483.19,646.444 1486,631.5C 1490.17,622.352 1497,616.352 1506.5,613.5 Z"/></g>
<g><path style="opacity:0.884" fill="#A0ACE3" d="M 1558.5,613.5 C 1578.17,613.5 1597.83,613.5 1617.5,613.5C 1617.5,617.833 1617.5,622.167 1617.5,626.5C 1609.83,626.5 1602.17,626.5 1594.5,626.5C 1594.5,650.5 1594.5,674.5 1594.5,698.5C 1589.83,698.5 1585.17,698.5 1580.5,698.5C 1580.5,674.5 1580.5,650.5 1580.5,626.5C 1573.17,626.5 1565.83,626.5 1558.5,626.5C 1558.5,622.167 1558.5,617.833 1558.5,613.5 Z"/></g>
<g><path style="opacity:0.844" fill="#A0ACE3" d="M 1637.5,613.5 C 1642.87,613.172 1648.21,613.505 1653.5,614.5C 1659.01,626.181 1665.01,637.515 1671.5,648.5C 1677.54,637.377 1683.21,626.044 1688.5,614.5C 1693.46,613.506 1698.46,613.173 1703.5,613.5C 1703.66,614.873 1703.49,616.207 1703,617.5C 1691.38,641.076 1680.04,664.743 1669,688.5C 1665.09,695.364 1659.26,699.031 1651.5,699.5C 1648.05,699.995 1645.22,698.995 1643,696.5C 1642.17,692.129 1642.34,687.795 1643.5,683.5C 1648.13,687.265 1652.29,686.598 1656,681.5C 1658.89,676.886 1661.39,672.053 1663.5,667C 1654.14,649.44 1645.47,631.606 1637.5,613.5 Z"/></g>
<g><path style="opacity:0.876" fill="#A0ACE3" d="M 1725.5,613.5 C 1745.83,613.5 1766.17,613.5 1786.5,613.5C 1786.5,641.833 1786.5,670.167 1786.5,698.5C 1781.5,698.5 1776.5,698.5 1771.5,698.5C 1771.5,674.5 1771.5,650.5 1771.5,626.5C 1760.83,626.5 1750.17,626.5 1739.5,626.5C 1739.5,650.5 1739.5,674.5 1739.5,698.5C 1734.83,698.5 1730.17,698.5 1725.5,698.5C 1725.5,670.167 1725.5,641.833 1725.5,613.5 Z"/></g>
<g><path style="opacity:0.89" fill="#A0ACE3" d="M 1815.5,613.5 C 1820.17,613.5 1824.83,613.5 1829.5,613.5C 1829.5,625.5 1829.5,637.5 1829.5,649.5C 1840.17,649.5 1850.83,649.5 1861.5,649.5C 1861.5,637.5 1861.5,625.5 1861.5,613.5C 1866.5,613.5 1871.5,613.5 1876.5,613.5C 1876.5,641.833 1876.5,670.167 1876.5,698.5C 1871.5,698.5 1866.5,698.5 1861.5,698.5C 1861.5,686.5 1861.5,674.5 1861.5,662.5C 1850.83,662.5 1840.17,662.5 1829.5,662.5C 1829.5,674.5 1829.5,686.5 1829.5,698.5C 1824.83,698.5 1820.17,698.5 1815.5,698.5C 1815.5,670.167 1815.5,641.833 1815.5,613.5 Z"/></g>
<g><path style="opacity:0.871" fill="#A0ACE3" d="M 1904.5,613.5 C 1922.83,613.5 1941.17,613.5 1959.5,613.5C 1959.5,617.833 1959.5,622.167 1959.5,626.5C 1946.17,626.5 1932.83,626.5 1919.5,626.5C 1919.5,634.167 1919.5,641.833 1919.5,649.5C 1930.83,649.5 1942.17,649.5 1953.5,649.5C 1953.5,653.833 1953.5,658.167 1953.5,662.5C 1942.17,662.5 1930.83,662.5 1919.5,662.5C 1919.5,670.167 1919.5,677.833 1919.5,685.5C 1932.83,685.5 1946.17,685.5 1959.5,685.5C 1959.5,689.833 1959.5,694.167 1959.5,698.5C 1941.17,698.5 1922.83,698.5 1904.5,698.5C 1904.5,670.167 1904.5,641.833 1904.5,613.5 Z"/></g>
<g><path style="opacity:0.857" fill="#A0ACE3" d="M 1984.5,613.5 C 2002.83,613.5 2021.17,613.5 2039.5,613.5C 2039.5,617.833 2039.5,622.167 2039.5,626.5C 2026.17,626.5 2012.83,626.5 1999.5,626.5C 1999.5,634.167 1999.5,641.833 1999.5,649.5C 2010.83,649.5 2022.17,649.5 2033.5,649.5C 2033.5,653.833 2033.5,658.167 2033.5,662.5C 2022.17,662.5 2010.83,662.5 1999.5,662.5C 1999.5,670.167 1999.5,677.833 1999.5,685.5C 2012.83,685.5 2026.17,685.5 2039.5,685.5C 2039.5,689.833 2039.5,694.167 2039.5,698.5C 2021.17,698.5 2002.83,698.5 1984.5,698.5C 1984.5,670.167 1984.5,641.833 1984.5,613.5 Z"/></g>
</svg>
