<svg width="153" height="50" viewBox="0 0 153 50" fill="none" xmlns="http://www.w3.org/2000/svg">
<path d="M78.3446 30.0665C78.3446 32.4707 76.3706 34.4446 73.9665 34.4446C71.5624 34.4446 69.5884 32.4707 69.5884 30.0665V19.6401H66.8047V30.0665C66.8047 34.0144 70.0186 37.2283 73.9665 37.2283C77.9143 37.2283 81.1283 34.0144 81.1283 30.0665V19.6401H78.3446" fill="#A0ACE3"/>
<path d="M92.3404 22.272C94.289 22.272 96.1111 23.2084 97.2499 24.7774L99.8565 23.6892C98.2368 21.0573 95.4278 19.5136 92.3404 19.4883H92.2644C92.1885 19.4883 92.1126 19.4883 92.0367 19.4883H91.9608C87.3043 19.792 83.6602 23.6892 83.6602 28.3456C83.6602 33.0021 87.3043 36.8993 91.9608 37.203H92.0367H92.1632C92.1885 37.203 92.2391 37.203 92.2644 37.203H92.3404C95.4278 37.203 98.2115 35.634 99.8565 33.0021L97.2499 31.9139C96.1111 33.4829 94.2637 34.4193 92.3404 34.4193C92.2898 34.4193 92.2391 34.4193 92.1885 34.4193H92.1379C88.9493 34.1915 86.4692 31.5343 86.4692 28.3456C86.4692 25.0558 89.0505 22.3733 92.3404 22.272Z" fill="#A0ACE3"/>
<path d="M105.625 19.5388H102.816V36.9246H105.625V19.5388Z" fill="#A0ACE3"/>
<path d="M130.63 30.0663C130.63 32.4704 128.656 34.4443 126.252 34.4443C123.848 34.4443 121.874 32.4704 121.874 30.0663V19.564H119.09V30.0663C119.09 34.0141 122.304 37.2281 126.252 37.2281C130.2 37.2281 133.413 34.0141 133.413 30.0663V19.564H130.63" fill="#A0ACE3"/>
<path d="M63.5653 24.5747C63.54 21.3607 60.9587 19.564 57.7194 19.564H49.6719V36.8991H52.4809V30.8255C52.4809 30.8255 52.5062 27.2572 52.5062 27.2825V24.5494V22.1453H57.7447C59.7187 22.1453 61.1864 22.8791 61.1864 24.5494C61.1864 26.5233 59.7187 27.2572 57.7447 27.2572H52.5062L54.9104 30.2687L60.2754 36.9244H64.0461L58.2256 30.041C61.4142 30.0663 63.5653 27.7887 63.5653 24.5747Z" fill="#A0ACE3"/>
<path d="M143.03 27.0042C141.689 26.6246 140.727 26.1944 140.145 25.7642C139.563 25.334 139.285 24.7772 139.285 24.1192C139.285 23.3853 139.538 22.778 140.069 22.3225C140.601 21.8669 141.36 21.6392 142.347 21.6392C143.359 21.6392 144.169 21.9175 144.776 22.449C145.384 22.9804 145.687 23.7143 145.687 24.6254H148.471L148.496 24.5494C148.547 23.0563 147.99 21.8163 146.877 20.804C145.738 19.7918 144.245 19.2856 142.372 19.2856C140.626 19.2856 139.183 19.7412 138.07 20.6522C136.956 21.5633 136.4 22.7274 136.4 24.1192C136.4 25.4605 136.906 26.574 137.918 27.4091C138.93 28.2442 140.373 28.9275 142.245 29.4337C143.561 29.8133 144.472 30.2182 144.979 30.6737C145.485 31.1292 145.738 31.7366 145.738 32.4452C145.738 33.179 145.459 33.7864 144.877 34.2166C144.295 34.6468 143.511 34.8746 142.473 34.8746C141.436 34.8746 140.55 34.6215 139.841 34.0901C139.107 33.5587 138.753 32.7741 138.753 31.7366H135.969L135.944 31.8125C135.894 33.5333 136.551 34.8493 137.867 35.7856C139.183 36.722 140.727 37.2028 142.499 37.2028C144.346 37.2028 145.814 36.7726 146.953 35.9122C148.091 35.0518 148.648 33.8876 148.648 32.4452C148.648 31.0786 148.167 29.9398 147.206 29.0794C146.244 28.2189 144.852 27.5103 143.03 27.0042Z" fill="#A0ACE3"/>
<path d="M30.668 14.8569C30.8957 15.11 31.0982 15.3378 31.3259 15.5402C31.0982 15.3378 30.8957 15.11 30.668 14.8569Z" fill="#221E1F"/>
<path d="M56.556 8.53038L57.4671 7.99894C57.8467 7.77118 57.9732 7.26504 57.7454 6.88544C57.5177 6.50584 57.0368 6.40461 56.6572 6.60707L55.7209 7.16382C55.6956 7.16382 55.6703 7.18913 55.6703 7.18913L48.7109 12.0986L56.5054 8.55569C56.5054 8.55569 56.5307 8.55569 56.556 8.53038Z" fill="#CDD6FE"/>
<path d="M57.3675 10.9598L49.2188 13.364L57.7218 12.5035C57.7471 12.5035 57.7724 12.5035 57.7977 12.5035L58.8353 12.2758C59.2655 12.1745 59.5692 11.7443 59.4427 11.3141C59.3414 10.8839 58.9112 10.6308 58.5063 10.7067L57.4181 10.9345C57.3928 10.9345 57.3928 10.9345 57.3675 10.9598Z" fill="#CDD6FE"/>
<path d="M58.6554 15.0594L57.5673 14.9329C57.542 14.9329 57.5166 14.9329 57.4913 14.9329L48.9883 14.5786L57.3142 16.5525C57.3395 16.5525 57.3648 16.5525 57.3901 16.5778L58.4277 16.7044C58.8832 16.755 59.2881 16.426 59.3387 15.9958C59.4147 15.515 59.111 15.1101 58.6554 15.0594Z" fill="#CDD6FE"/>
<path d="M44.536 10.0994C44.536 10.0994 46.7123 9.0618 48.8887 7.89769C51.0651 6.73358 49.7745 5.06334 49.1165 4.9368C48.4585 4.81027 45.6495 5.3164 45.6495 5.3164C45.6495 5.3164 42.7392 5.82254 40.5122 5.87315C38.2852 5.92377 37.5766 4.30413 37.5766 4.30413C37.5766 4.30413 36.5643 2.43144 36.1341 1.52039C35.7039 0.609349 35.5015 0.4322 34.7676 0.786494C34.1855 1.06487 35.0712 3.11472 35.0712 3.11472C35.0712 3.11472 35.6027 4.40536 35.8558 4.96211C36.1088 5.54416 36.1847 5.99969 35.628 6.25275C35.0966 6.50582 34.717 5.49355 34.717 5.49355L33.8312 3.74739C33.8312 3.74739 33.2998 2.83634 33.1479 2.60858C32.6924 2.00122 30.0605 3.16533 29.8328 3.84861C29.6809 4.27883 30.2377 5.92377 31.7055 4.60781C31.8573 4.45597 31.8826 4.73435 31.9332 4.81027C32.161 5.3164 32.3887 5.87315 32.5153 6.20214C32.6165 6.45521 32.3381 7.26502 32.8949 8.65689C32.7683 9.01119 32.161 9.23895 31.832 9.54263C31.5789 9.77039 31.2246 9.99815 30.7944 10.2765L30.2377 10.6055C30.2124 10.6055 30.2124 10.6055 30.187 10.6308C30.1617 10.6561 30.1364 10.6561 30.1111 10.6814C29.6556 11.1623 30.7438 12.9843 32.5406 14.7558C34.0337 16.2236 35.6027 17.2359 36.3366 17.2612C36.4884 17.2612 36.615 17.2359 36.6909 17.1347C36.7162 17.1093 36.7415 17.084 36.7415 17.0334C36.7415 17.0081 36.7668 16.9828 36.7668 16.9575C36.7668 16.9322 36.7921 16.9069 36.7921 16.8816C36.8174 16.831 36.8174 16.7804 36.8427 16.7297C36.9186 16.5526 36.9946 16.3754 37.0958 16.1983C37.2476 15.9452 38.1587 15.1354 39.0444 15.4391C41.1955 16.1983 44.4347 18.982 44.8903 19.058C45.4976 19.1592 46.1809 18.9061 46.4593 18.2735C46.687 17.7673 46.2821 17.2106 46.1809 17.0334C46.0038 16.7297 45.4217 16.0212 45.4217 16.0212L43.878 14.275C43.878 14.275 42.3343 12.7819 42.309 11.8962C42.3596 11.3141 44.536 10.0994 44.536 10.0994Z" fill="#A0ACE3"/>
<path d="M31.5539 15.7934C31.478 15.7175 31.4021 15.6416 31.3008 15.5404C31.0984 15.3379 30.8706 15.1101 30.6429 14.8571C30.6429 14.8571 30.6176 14.8318 30.6176 14.8065C30.5669 14.7558 30.5163 14.7052 30.491 14.6546C30.4404 14.604 30.4151 14.5534 30.3645 14.5028L30.3392 14.4775C29.5041 13.4905 28.7196 12.3517 28.5677 11.3141V11.2888C27.935 11.5419 25.7081 12.0986 24.9742 12.3517C24.139 12.6554 22.899 12.8325 21.7855 12.9085C20.5202 12.9844 18.0148 12.706 16.6735 12.6048C15.9143 12.5542 15.0286 12.5542 14.1176 12.706C12.6245 12.9591 10.5493 14.0473 10.3216 14.1485C9.35989 14.5028 7.15821 15.2873 4.70345 14.2497C1.16051 12.9844 1.64134 8.581 1.33765 8.73284C0.958054 8.90998 0.375998 11.1623 1.10989 13.0856C1.36296 13.7689 1.79318 14.3762 2.2487 14.9077C2.6283 15.3632 3.46342 15.8946 4.37446 16.2236C4.77937 16.3755 5.20959 16.4767 5.56388 16.5779C5.76634 16.6285 6.57615 16.9069 7.1329 17.3877C7.58842 17.7674 7.8668 18.3241 7.79088 18.5266C6.44962 22.4491 7.31005 25.3088 7.31005 25.5365C7.41127 28.4721 5.43735 46.1362 5.48796 46.3387C5.51327 46.3893 5.43735 46.5917 5.53857 46.7689C5.66511 47.022 5.94348 47.275 6.07002 47.4775C6.29778 47.8065 6.3737 48.2367 6.7533 48.2873C8.2717 48.4897 9.08152 48.3126 8.95499 47.1738C8.92968 46.9967 8.82845 46.6677 8.52477 46.4905C8.2464 46.3134 7.76557 46.2881 7.56311 46.035C7.18351 45.5795 7.23413 44.8203 7.28474 44.466C7.53781 42.821 7.99333 39.8348 8.29701 37.8609C8.47416 36.7221 9.20805 34.6976 9.48643 34.1661C11.1567 30.9775 12.1183 28.4721 12.6498 27.0043C12.8016 26.5488 13.4343 26.7259 13.409 27.1815C13.3837 27.6623 13.0041 28.5227 12.9535 28.5986C12.8522 28.7252 12.8016 28.9023 12.8016 29.0542C12.8522 30.8762 13.4849 38.8732 13.4343 40.3916C13.3837 42.3402 13.3331 43.6055 13.2318 44.2635C13.2065 44.5419 13.6873 45.0986 14.0416 45.377C14.3706 45.6301 14.4972 46.0603 14.6237 46.0856C14.8008 46.1109 15.4335 46.1615 15.9903 46.1109C16.5217 46.0603 16.9519 45.9085 17.0025 45.7566C17.0278 45.6554 16.9266 44.9215 16.6989 44.719C16.3952 44.4154 15.8131 44.137 15.6107 44.0358C15.0286 43.7827 15.1045 40.67 15.1045 40.67L16.2939 31.9138C16.2939 31.9138 18.9512 26.397 20.5455 25.6631C23.4811 24.9545 26.0623 25.4353 26.0623 25.4353C26.0623 25.4353 29.0739 26.2957 29.8331 29.6362C30.5416 32.7236 31.5033 42.3908 31.807 45.5289C31.8576 46.1362 31.9588 46.6171 32.0347 46.6677C32.2119 46.7942 32.7433 46.9713 32.8192 47.3509C32.8952 47.7305 32.9711 48.1608 33.376 48.3379C33.6544 48.3379 34.1099 48.4138 34.7679 48.4138C35.1728 48.4138 35.603 48.4391 35.8054 48.2114C35.9067 48.1101 35.8561 47.3509 35.8561 47.3509C35.8561 47.3003 35.8054 47.1991 35.7548 47.0726C35.6283 46.8448 35.4005 46.5664 35.1222 46.4652C34.8944 46.364 34.5148 46.3387 34.3124 46.2374C34.2364 46.2121 34.0593 45.9591 34.0087 45.8578C33.3507 44.6431 33.1735 42.9476 33.047 42.1884C32.4396 38.696 33.8062 27.1308 33.8821 26.321C33.8821 26.321 34.1605 26.0427 34.4642 25.6378C34.5148 25.5871 34.5907 25.4859 34.5907 25.4859C34.7679 26.4476 34.5907 27.8394 34.8438 29.4085C35.0209 30.6738 35.274 32.0657 35.5018 33.3816C36.0585 36.469 36.7671 44.5166 37.3492 44.9721C37.3745 44.9974 37.7541 45.048 37.7541 45.0986C37.83 45.3517 37.7541 45.9338 37.9312 46.0097C38.9688 46.2628 40.0823 46.2881 40.4619 45.8578C40.6137 45.706 40.5378 45.1999 40.5631 44.9215C40.5631 44.8203 40.5378 44.5672 40.2088 44.3394C39.9558 44.1623 39.4496 44.2382 39.1966 44.0358C39.0194 43.8839 38.9941 43.7321 38.8929 43.4284C38.159 41.4039 38.0578 37.3801 37.8553 35.3809C37.6528 33.331 37.5263 31.0028 37.5769 28.7252C37.6275 26.2957 37.9565 24.2206 37.6275 22.4997C37.1467 20.0703 36.4381 18.8302 36.4381 18.8302C36.4381 18.8302 36.4381 18.7796 36.4381 18.729C36.3875 18.729 36.3622 18.729 36.3116 18.729C34.616 18.6278 32.4143 16.6285 31.5539 15.7934Z" fill="#A0ACE3"/>
<path d="M36.8444 16.8816C36.8444 16.9069 36.8444 16.9323 36.8191 16.9576C36.8191 16.9829 36.7938 17.0082 36.7938 17.0335C36.7685 17.0588 36.7685 17.1094 36.7432 17.1347C36.6673 17.2106 36.5408 17.2612 36.3889 17.2612C35.655 17.2359 34.086 16.2237 32.5929 14.7559C30.7961 12.9844 29.7079 11.1623 30.1635 10.6815C30.1888 10.6562 30.2141 10.6562 30.2394 10.6309C30.2394 10.6309 30.2647 10.6309 30.29 10.6056L30.8467 10.2766C30.5684 10.1247 30.3406 10.0488 30.1381 10.0741C30.0369 10.0741 29.2018 10.5297 28.9993 10.6815C28.6957 10.9093 28.5438 11.1117 28.5691 11.2889C28.5691 11.2889 28.5691 11.2889 28.5691 11.3142C28.5691 11.3142 28.5691 11.3142 28.5691 11.3395C28.721 12.377 29.5055 13.5158 30.3406 14.5028L30.3659 14.5281C30.4165 14.5787 30.4671 14.6293 30.4924 14.68C30.5431 14.7306 30.5937 14.7812 30.619 14.8318L30.6443 14.8571C30.872 15.1102 31.0745 15.3379 31.3023 15.5404C31.3782 15.6163 31.4541 15.6922 31.5553 15.7935C32.4158 16.6539 34.6174 18.6278 36.313 18.6784C36.3636 18.6784 36.3889 18.6784 36.4395 18.6784C36.4648 18.6784 36.4901 18.6784 36.5155 18.6784C36.5408 18.6784 36.5661 18.6784 36.5914 18.6784C36.8444 18.5772 36.8697 18.4254 36.8697 18.4254C36.8697 18.4254 37.0975 17.4384 37.0975 17.16C37.0975 17.0082 36.9963 16.8563 36.9204 16.7804C36.8951 16.7804 36.8697 16.831 36.8444 16.8816Z" fill="#CDD6FE"/>
<path d="M52.2303 47.1232L52.0531 46.5158H52.0278C51.8253 46.7689 51.5976 46.9714 51.3951 47.0473C51.1927 47.1485 50.9143 47.1991 50.5853 47.1991C50.1551 47.1991 49.8261 47.0726 49.573 46.8448C49.32 46.6171 49.2188 46.2881 49.2188 45.8579C49.2188 45.4023 49.3959 45.0733 49.7249 44.8456C50.0539 44.6178 50.56 44.4913 51.2433 44.466L52.0025 44.4407V44.2129C52.0025 43.9345 51.9266 43.7321 51.8 43.5802C51.6735 43.4537 51.471 43.3778 51.1927 43.3778C50.9649 43.3778 50.7625 43.4031 50.56 43.479C50.3576 43.5549 50.1551 43.6309 49.978 43.7068L49.6743 43.0488C49.902 42.9223 50.1804 42.821 50.4588 42.7704C50.7372 42.6945 51.0155 42.6692 51.2686 42.6692C51.8253 42.6692 52.2556 42.7957 52.5339 43.0235C52.8123 43.2766 52.9641 43.6562 52.9641 44.1623V47.1232H52.2303ZM50.8384 46.4905C51.1674 46.4905 51.4457 46.3893 51.6482 46.2121C51.8507 46.035 51.9519 45.7566 51.9519 45.4276V45.048L51.3951 45.0733C50.9649 45.0986 50.6359 45.1493 50.4335 45.3011C50.231 45.4276 50.1298 45.6301 50.1298 45.9085C50.1298 46.1109 50.1804 46.2628 50.3069 46.364C50.4335 46.4399 50.6106 46.4905 50.8384 46.4905Z" fill="#CDD6FE"/>
<path d="M59.8211 47.1232H58.8848V44.4407C58.8848 44.1117 58.8089 43.8586 58.6823 43.6815C58.5558 43.5043 58.328 43.4284 58.0244 43.4284C57.6448 43.4284 57.3411 43.5549 57.1639 43.7827C56.9868 44.0104 56.8856 44.39 56.8856 44.9468V47.1232H55.9492V42.7451H56.6831L56.8096 43.3272H56.8603C56.9868 43.1247 57.1639 42.9476 57.417 42.8463C57.6701 42.7198 57.9231 42.6692 58.2268 42.6692C59.2644 42.6692 59.7958 43.2006 59.7958 44.2635" fill="#CDD6FE"/>
<path d="M70.4486 47.1231L69.8665 45.5288H67.6648L67.1081 47.1231H66.1211L68.2722 41.3279H69.3097L71.4608 47.1231H70.4486ZM69.6134 44.6937L69.082 43.1247C69.0314 43.0234 68.9808 42.8463 68.9301 42.6185C68.8542 42.3908 68.8036 42.2389 68.7783 42.1124C68.7024 42.4414 68.6012 42.7957 68.4746 43.1753L67.9432 44.6684H69.6134V44.6937Z" fill="#CDD6FE"/>
<path d="M74.9285 44.8203V47.1232H73.9922V41.3533H75.6371C76.371 41.3533 76.9278 41.4798 77.2821 41.7835C77.6364 42.0619 77.8135 42.4921 77.8135 43.0488C77.8135 43.7574 77.4339 44.2889 76.7 44.5925L78.3449 47.1485H77.2568L75.8649 44.8456L74.9285 44.8203ZM74.9285 44.0358H75.5865C76.0167 44.0358 76.3457 43.9599 76.5482 43.7827C76.7506 43.6309 76.8518 43.3778 76.8518 43.0488C76.8518 42.7198 76.7506 42.4921 76.5229 42.3402C76.3204 42.1884 75.9914 42.1378 75.5612 42.1378H74.9285V44.0358Z" fill="#CDD6FE"/>
<path d="M81.8895 44.8203V47.1232H80.9531V41.3533H82.5981C83.3319 41.3533 83.8887 41.4798 84.243 41.7835C84.5973 42.0619 84.7744 42.4921 84.7744 43.0488C84.7744 43.7574 84.3948 44.2889 83.6609 44.5925L85.3059 47.1485H84.2177L82.8258 44.8456L81.8895 44.8203ZM81.8895 44.0358H82.5474C82.9777 44.0358 83.3066 43.9599 83.5091 43.7827C83.7116 43.6309 83.8128 43.3778 83.8128 43.0488C83.8128 42.7198 83.7115 42.4921 83.4838 42.3402C83.2813 42.1884 82.9523 42.1378 82.5221 42.1378H81.8895V44.0358Z" fill="#CDD6FE"/>
<path d="M88.8231 41.3533H87.8867V47.1232H88.8231V41.3533Z" fill="#CDD6FE"/>
<path d="M95.4799 45.5542C95.4799 46.0603 95.3028 46.4653 94.9232 46.7689C94.5436 47.0726 94.0375 47.1992 93.3795 47.1992C92.7215 47.1992 92.1901 47.0979 91.7852 46.8955V46.0097C92.0382 46.1363 92.3166 46.2375 92.6203 46.3134C92.924 46.3893 93.2023 46.4146 93.4554 46.4146C93.835 46.4146 94.1134 46.3387 94.2905 46.2122C94.4677 46.0603 94.5689 45.8832 94.5689 45.6301C94.5689 45.4024 94.493 45.2252 94.3158 45.0734C94.164 44.9215 93.8097 44.7444 93.3036 44.5419C92.7721 44.3395 92.3925 44.0864 92.1901 43.808C91.9876 43.5297 91.8611 43.2007 91.8611 42.8211C91.8611 42.3402 92.0382 41.9606 92.3672 41.6823C92.6962 41.4039 93.177 41.2773 93.7338 41.2773C94.2905 41.2773 94.8473 41.4039 95.3787 41.6316L95.075 42.3908C94.5689 42.1631 94.1134 42.0619 93.7085 42.0619C93.4048 42.0619 93.177 42.1378 93.0252 42.2643C92.8733 42.3908 92.7974 42.568 92.7974 42.7958C92.7974 42.9476 92.8227 43.0741 92.8987 43.1754C92.9493 43.2766 93.0758 43.3778 93.2023 43.479C93.3542 43.5803 93.6072 43.7068 93.9868 43.8586C94.4171 44.0358 94.7207 44.2129 94.9232 44.3395C95.1256 44.4913 95.2775 44.6685 95.3534 44.8456C95.4293 45.0734 95.4799 45.3011 95.4799 45.5542Z" fill="#CDD6FE"/>
<path d="M103.905 47.1991C103.248 47.1991 102.741 47.022 102.412 46.6171C102.058 46.2375 101.906 45.6807 101.906 44.9468C101.906 44.2129 102.083 43.6562 102.438 43.2513C102.792 42.8463 103.323 42.6692 104.007 42.6692C104.462 42.6692 104.892 42.7451 105.247 42.9223L104.968 43.6562C104.589 43.5043 104.26 43.4284 104.007 43.4284C103.248 43.4284 102.868 43.9345 102.868 44.9215C102.868 45.4023 102.969 45.7819 103.146 46.035C103.349 46.2881 103.602 46.4146 103.981 46.4146C104.386 46.4146 104.791 46.3134 105.146 46.1109V46.9207C104.968 47.022 104.791 47.0979 104.614 47.1232C104.412 47.1738 104.184 47.1991 103.905 47.1991Z" fill="#CDD6FE"/>
<path d="M111.826 44.9215C111.826 45.6301 111.649 46.1868 111.269 46.5917C110.915 46.9967 110.384 47.1991 109.751 47.1991C109.346 47.1991 108.992 47.0979 108.663 46.9207C108.359 46.7436 108.106 46.4652 107.929 46.1362C107.752 45.7819 107.676 45.4023 107.676 44.9468C107.676 44.2382 107.853 43.6815 108.233 43.2766C108.587 42.8716 109.118 42.6692 109.776 42.6692C110.409 42.6692 110.915 42.8716 111.269 43.2766C111.624 43.6815 111.826 44.2382 111.826 44.9215ZM108.637 44.9215C108.637 45.9338 109.017 46.4399 109.751 46.4399C110.485 46.4399 110.864 45.9338 110.864 44.9215C110.864 43.9345 110.485 43.4284 109.751 43.4284C109.371 43.4284 109.068 43.5549 108.891 43.808C108.713 44.0864 108.637 44.4407 108.637 44.9215Z" fill="#CDD6FE"/>
<path d="M118.357 47.1232H117.421V44.4154C117.421 44.0864 117.37 43.8333 117.243 43.6815C117.117 43.5043 116.914 43.4284 116.661 43.4284C116.307 43.4284 116.029 43.5549 115.877 43.7827C115.7 44.0104 115.624 44.39 115.624 44.9468V47.1232H114.688V42.7451H115.421L115.548 43.3272H115.599C115.725 43.1247 115.902 42.9476 116.13 42.8463C116.358 42.7198 116.611 42.6692 116.889 42.6692C117.572 42.6692 118.003 42.897 118.23 43.3525H118.281C118.408 43.1247 118.585 42.9729 118.838 42.8463C119.066 42.7198 119.344 42.6692 119.648 42.6692C120.179 42.6692 120.559 42.7957 120.786 43.0741C121.014 43.3272 121.141 43.7321 121.141 44.2888V47.1232H120.204V44.4154C120.204 44.0864 120.128 43.8333 120.002 43.6815C119.875 43.5043 119.673 43.4284 119.395 43.4284C119.04 43.4284 118.762 43.5296 118.61 43.7574C118.433 43.9851 118.357 44.3394 118.357 44.795" fill="#CDD6FE"/>
<path d="M126.403 47.1991C125.846 47.1991 125.416 46.9967 125.112 46.5917H125.062C125.087 46.9713 125.112 47.1738 125.112 47.275V49.0718H124.176V42.7451H124.935C124.96 42.821 124.986 43.0235 125.062 43.3272H125.112C125.39 42.897 125.846 42.6692 126.403 42.6692C126.96 42.6692 127.364 42.8716 127.668 43.2513C127.972 43.6562 128.124 44.1876 128.124 44.9215C128.124 45.6301 127.972 46.1868 127.668 46.5917C127.364 46.9967 126.934 47.1991 126.403 47.1991ZM126.175 43.4284C125.795 43.4284 125.542 43.5296 125.365 43.7574C125.188 43.9851 125.112 44.3141 125.112 44.795V44.9215C125.112 45.4529 125.188 45.8325 125.365 46.0856C125.542 46.3134 125.795 46.4399 126.2 46.4399C126.529 46.4399 126.757 46.3134 126.934 46.035C127.111 45.7819 127.187 45.4023 127.187 44.9215C127.187 44.4407 127.111 44.0611 126.934 43.808C126.757 43.5549 126.504 43.4284 126.175 43.4284Z" fill="#CDD6FE"/>
<path d="M133.742 47.1232L133.565 46.5158H133.54C133.337 46.7689 133.109 46.9714 132.907 47.0473C132.704 47.1485 132.426 47.1991 132.097 47.1991C131.667 47.1991 131.338 47.0726 131.085 46.8448C130.832 46.6171 130.73 46.2881 130.73 45.8579C130.73 45.4023 130.908 45.0733 131.237 44.8456C131.566 44.6178 132.072 44.4913 132.755 44.466L133.514 44.4407V44.2129C133.514 43.9345 133.464 43.7321 133.312 43.5802C133.185 43.4537 132.983 43.3778 132.704 43.3778C132.477 43.3778 132.274 43.4031 132.072 43.479C131.869 43.5549 131.667 43.6309 131.49 43.7068L131.186 43.0488C131.414 42.9223 131.692 42.821 131.971 42.7704C132.249 42.6945 132.527 42.6692 132.78 42.6692C133.337 42.6692 133.767 42.7957 134.046 43.0235C134.324 43.2766 134.476 43.6562 134.476 44.1623V47.1232H133.742ZM132.35 46.4905C132.679 46.4905 132.957 46.3893 133.16 46.2121C133.362 46.035 133.464 45.7566 133.464 45.4276V45.048L132.907 45.0733C132.477 45.0986 132.148 45.1493 131.945 45.3011C131.743 45.4276 131.642 45.6301 131.642 45.9085C131.642 46.1109 131.692 46.2628 131.819 46.364C131.945 46.4399 132.122 46.4905 132.35 46.4905Z" fill="#CDD6FE"/>
<path d="M141.31 47.1232H140.373V44.4407C140.373 44.1117 140.297 43.8586 140.171 43.6815C140.044 43.5043 139.817 43.4284 139.513 43.4284C139.133 43.4284 138.83 43.5549 138.652 43.7827C138.475 44.0104 138.374 44.39 138.374 44.9468V47.1232H137.488V42.7451H138.222L138.349 43.3272H138.399C138.526 43.1247 138.728 42.9476 138.956 42.8463C139.209 42.7198 139.462 42.6692 139.766 42.6692C140.803 42.6692 141.335 43.2006 141.335 44.2635" fill="#CDD6FE"/>
<path d="M143.738 42.7451H144.751L145.636 45.2252C145.763 45.5795 145.864 45.9084 145.915 46.2121H145.94C145.965 46.0603 146.016 45.8831 146.067 45.6807C146.117 45.4782 146.471 44.4913 147.079 42.7451H148.091L146.218 47.7052C145.889 48.6163 145.307 49.0718 144.523 49.0718C144.32 49.0718 144.118 49.0465 143.915 48.9959V48.262C144.042 48.2873 144.219 48.3126 144.396 48.3126C144.852 48.3126 145.155 48.0595 145.333 47.5281L145.484 47.1232" fill="#CDD6FE"/>
<path d="M109.172 27.3587L116.384 19.5895L112.867 19.5642L105.629 27.3587L113.702 36.9499H117.093" fill="#A0ACE3"/>
<path d="M151.916 17.4131L151.385 18.805L150.853 17.4131H150.145V19.5135H150.651V18.0204L151.207 19.5135H151.562L152.093 18.0204H152.118V19.5135H152.599V17.4131" fill="#CDD6FE"/>
<path d="M148.145 17.4131V17.818H148.752V19.5135H149.283V17.818H149.865V17.4131" fill="#CDD6FE"/>
</svg>
