<svg version="1.1" id="Layer_1" xmlns="http://www.w3.org/2000/svg" xmlns:xlink="http://www.w3.org/1999/xlink" x="0px" y="0px"
     width="1024.604px" height="465.047px" viewBox="0 0 1024.604 465.047" enable-background="new 0 0 1024.604 465.047"
     xml:space="preserve">
<g>
	<g>
		<path fill="#A0ACE3" d="M247.439,271.09c-3.534,0-6.458,2.896-6.444,6.373l-0.014,7.89c0.014,3.49,2.912,6.348,6.458,6.376
			c3.521,0,6.455-2.927,6.455-6.376v-7.874C253.887,273.959,250.989,271.102,247.439,271.09 M153.247,262.877v38.338l12.914,0.014
			l-0.007-38.367L153.247,262.877z M175.173,262.877l0.007,38.338l12.916,0.014l-0.009-38.352H175.173z M225.501,254.929
			c-3.521-0.014-6.448,2.884-6.448,6.348l-0.013,41.534c0.013,3.506,2.918,6.348,6.474,6.362c3.534,0.014,6.448-2.9,6.448-6.362
			l0.013-41.534C231.962,257.786,229.056,254.929,225.501,254.929 M203.575,240.523c-3.534,0-6.448,2.87-6.448,6.348v70.346
			c0,3.506,2.897,6.359,6.448,6.376c3.524,0,6.445-2.911,6.445-6.376l0.014-70.346C210.034,243.38,207.122,240.523,203.575,240.523"
        />
        <path fill="#A0ACE3" d="M403.703,195.243H385.29v63.954c0.027,2.036-0.229,4.128-0.708,6.29c-0.494,2.165-1.287,4.242-2.391,6.293
			c-1.075,2.009-2.528,3.816-4.312,5.441c-1.795,1.612-4.016,2.914-6.629,3.847c-2.608,0.961-5.668,1.441-9.202,1.457
			c-3.534-0.016-6.604-0.496-9.218-1.457c-2.608-0.933-4.821-2.233-6.589-3.847c-1.811-1.625-3.271-3.435-4.347-5.441
			c-1.097-2.051-1.881-4.128-2.383-6.293c-0.494-2.162-0.706-4.254-0.706-6.29v-63.954h-18.422v64.535
			c0.021,6.164,1.09,11.705,3.196,16.641c2.063,4.946,4.99,9.13,8.765,12.623c3.753,3.479,8.156,6.136,13.204,7.986
			c5.039,1.841,10.546,2.771,16.498,2.785c5.942-0.015,11.45-0.944,16.481-2.785c5.076-1.852,9.458-4.508,13.246-7.986
			c3.748-3.493,6.673-7.677,8.766-12.623c2.063-4.936,3.139-10.477,3.16-16.641v-64.535H403.703z M583.302,243.448
			c-0.509-0.127-1.066-0.196-1.583-0.278c-1.426-0.271-2.811-0.386-4.198-0.386c-3.294,0.017-6.063,0.496-8.305,1.429
			c-2.241,0.948-4.065,2.149-5.458,3.604c-1.411,1.484-2.479,3.027-3.215,4.639c-0.734,1.599-1.243,3.111-1.511,4.48
			c-0.27,1.387-0.39,2.475-0.367,3.266v37.023h-17.544v-69.143h17.544v10.941h0.289c1.293-2.63,2.948-4.921,5.025-6.813
			c2.064-1.867,4.438-3.31,7.104-4.326c2.665-1.004,5.535-1.527,8.639-1.527c1.094,0,2.162,0.086,3.188,0.284
			c1.082,0.196,2.254,0.479,3.278,0.791c0.341-1.02,0.708-2.008,1.109-2.997c2.652-6.631,6.426-12.314,11.319-17.051
			c4.875-4.723,10.629-8.339,17.302-10.899c6.66-2.542,13.99-3.8,21.984-3.831c5.279-0.025,10.325,0.385,15.167,1.188
			c4.885,0.848,9.443,2.191,13.755,4.07c4.283,1.896,8.257,4.412,11.862,7.563l-13.595,13.529c-2.21-2.105-4.755-3.914-7.625-5.4
			c-2.876-1.454-5.974-2.586-9.259-3.377c-3.288-0.777-6.688-1.161-10.166-1.161c-5.358,0.03-10.207,0.976-14.539,2.828
			c-4.362,1.881-8.095,4.454-11.231,7.789c-3.125,3.31-5.513,7.183-7.189,11.564c-1.688,4.396-2.536,9.145-2.564,14.265
			c0.028,5.47,0.876,10.488,2.564,15.098c1.677,4.58,4.064,8.596,7.189,12.016c3.138,3.394,6.87,6.052,11.231,7.918
			c4.332,1.854,9.181,2.827,14.539,2.841c4.701,0,9.12-0.425,13.231-1.314c4.115-0.86,7.796-2.204,11.042-4v-24.06h-21.191v-16.429
			h39.611v52.149c-6.291,3.309-13.021,5.841-20.151,7.508c-7.169,1.71-14.718,2.572-22.683,2.572
			c-7.994-0.015-15.324-1.286-21.984-3.846c-6.673-2.518-12.426-6.121-17.302-10.801c-4.894-4.679-8.667-10.278-11.319-16.778
			c-2.685-6.505-4.021-13.729-4.076-21.729C583.232,245.571,583.261,244.51,583.302,243.448 M461.513,236.86
			c-1.922-2.542-4.24-4.578-6.948-6.104c-2.671-1.54-5.577-2.673-8.671-3.366c-3.089-0.69-6.233-1.061-9.382-1.031
			c-3.582,0-7.046,0.438-10.369,1.328c-3.364,0.879-6.376,2.22-9.047,4.045c-2.671,1.822-4.792,4.155-6.376,6.969
			c-1.555,2.801-2.374,6.15-2.418,9.982c0.044,3.743,0.736,6.797,2.093,9.174c1.365,2.402,3.167,4.268,5.415,5.668
			c2.235,1.4,4.694,2.501,7.4,3.294c2.68,0.777,5.365,1.456,8.036,2.007c2.715,0.524,5.174,1.132,7.409,1.796
			c2.247,0.65,4.056,1.556,5.414,2.714c1.356,1.146,2.071,2.717,2.091,4.736c-0.021,1.356-0.38,2.531-1.102,3.551
			c-0.721,0.974-1.646,1.82-2.813,2.473c-1.175,0.62-2.44,1.103-3.774,1.429c-1.372,0.322-2.715,0.465-4.008,0.465
			c-2.459-0.027-4.672-0.383-6.623-1.104c-1.951-0.746-3.727-1.724-5.358-3.022c-1.634-1.272-3.188-2.718-4.679-4.368l-11.699,10.8
			c2.391,2.615,5.026,4.734,7.875,6.291c2.849,1.555,5.896,2.673,9.154,3.362c3.263,0.694,6.706,1.019,10.313,1.005
			c2.904,0,5.769-0.239,8.643-0.721c2.879-0.509,5.607-1.302,8.188-2.361c2.586-1.072,4.896-2.459,6.897-4.197
			c2.022-1.725,3.606-3.848,4.744-6.275c1.18-2.475,1.761-5.33,1.78-8.624c-0.021-3.817-0.729-6.972-2.093-9.458
			c-1.362-2.475-3.158-4.48-5.393-5.967c-2.248-1.483-4.723-2.656-7.422-3.49c-2.671-0.848-5.356-1.543-8.036-2.093
			c-2.707-0.551-5.166-1.132-7.416-1.726c-2.232-0.607-4.036-1.398-5.399-2.402c-1.362-1.006-2.063-2.377-2.092-4.115
			c0.043-1.724,0.581-3.124,1.605-4.199c1.053-1.101,2.339-1.894,3.9-2.389c1.556-0.507,3.11-0.747,4.717-0.747
			c3.01,0,5.61,0.606,7.872,1.795c2.24,1.202,4.214,2.953,5.876,5.259L461.513,236.86z M535.563,268.698v-4.75
			c-0.028-6.021-0.791-11.352-2.375-16.018c-1.57-4.679-3.812-8.58-6.702-11.804c-2.927-3.193-6.389-5.627-10.411-7.266
			c-4.007-1.669-8.476-2.504-13.395-2.504c-5.343,0.014-10.313,0.876-14.921,2.617c-4.602,1.724-8.617,4.168-12.103,7.363
			c-3.484,3.194-6.19,7.014-8.163,11.451c-1.944,4.451-2.947,9.401-2.969,14.857c0.021,5.456,1.024,10.405,2.969,14.845
			c1.972,4.438,4.679,8.282,8.163,11.479c3.485,3.181,7.501,5.64,12.103,7.366c4.607,1.723,9.578,2.586,14.921,2.613
			c3.705,0,7.295-0.451,10.808-1.371c3.5-0.934,6.822-2.432,10.003-4.468c3.165-2.021,6.136-4.692,8.863-7.987l-12.575-9.37
			c-1.435,1.809-3.075,3.39-4.898,4.806c-1.802,1.396-3.844,2.488-6.136,3.322c-2.289,0.817-4.904,1.217-7.831,1.242
			c-3.279-0.025-6.278-0.678-8.99-1.992c-2.672-1.301-4.893-3.166-6.616-5.613c-1.761-2.459-2.829-5.412-3.246-8.82L535.563,268.698
			L535.563,268.698z M482.061,255.75c0.446-3.337,1.441-6.234,2.978-8.68c1.533-2.46,3.575-4.369,6.142-5.712
			c2.539-1.344,5.548-2.008,9.006-2.051c3.684,0.043,6.819,0.707,9.479,2.021c2.646,1.314,4.681,3.225,6.123,5.668
			c1.441,2.462,2.19,5.358,2.231,8.752L482.061,255.75L482.061,255.75z M733.938,297.226h15.784v-39.768
			c0.026-1.65-0.015-3.533-0.142-5.709c-0.099-2.138-0.439-4.369-0.977-6.688c-0.516-2.333-1.385-4.608-2.63-6.813
			c-1.214-2.221-2.925-4.214-5.116-6.01c-2.219-1.78-5.02-3.192-8.475-4.256c-3.442-1.059-7.656-1.61-12.631-1.625
			c-3.711,0-7.381,0.381-10.921,1.146c-3.592,0.777-6.978,1.979-10.199,3.604c-3.182,1.627-6.087,3.748-8.695,6.334l9.218,9.076
			c2.361-2.178,5.159-3.93,8.354-5.23c3.209-1.271,6.673-1.937,10.355-1.979c3.146,0,5.915,0.495,8.32,1.484
			c2.416,0.961,4.296,2.416,5.662,4.369c1.363,1.909,2.063,4.299,2.092,7.11v1.879h-4.377c-2.953-0.027-6.063,0.058-9.356,0.229
			c-3.294,0.17-6.582,0.493-9.896,1.03c-3.287,0.493-6.433,1.286-9.417,2.347c-2.961,1.063-5.62,2.475-7.931,4.229
			c-2.346,1.766-4.154,3.984-5.506,6.646c-1.334,2.669-2.029,5.867-2.049,9.585c0.02,3.434,0.756,6.43,2.169,8.99
			c1.406,2.6,3.337,4.764,5.753,6.518c2.404,1.725,5.133,3.039,8.187,3.914c3.025,0.892,6.19,1.314,9.471,1.314
			c3.154,0,6.085-0.38,8.908-1.173c2.791-0.818,5.321-2.051,7.641-3.704c2.311-1.653,4.312-3.76,5.972-6.36h0.432L733.938,297.226
			L733.938,297.226z M732.927,270.141c0,3.237-0.636,6.037-1.938,8.396c-1.285,2.364-3.236,4.187-5.845,5.487
			c-2.607,1.284-5.917,1.937-9.917,1.964c-1.44,0-2.883-0.168-4.312-0.521c-1.436-0.367-2.772-0.904-3.974-1.642
			c-1.186-0.75-2.148-1.682-2.877-2.842c-0.727-1.116-1.096-2.488-1.108-4.072c0.013-1.965,0.623-3.616,1.795-4.918
			c1.201-1.328,2.728-2.36,4.679-3.124c1.951-0.765,4.071-1.346,6.404-1.726c2.319-0.383,4.666-0.623,6.999-0.749
			c2.311-0.085,4.473-0.171,6.43-0.142h3.663L732.927,270.141L732.927,270.141z M764.055,242.784v31.683
			c-0.029,4.069,0.291,7.636,0.976,10.674c0.681,3.082,1.854,5.627,3.534,7.676c1.683,2.021,4.016,3.563,7.027,4.608
			c2.975,1.019,6.806,1.526,11.415,1.526c1.392,0,2.918-0.069,4.6-0.228c1.683-0.127,3.337-0.38,4.977-0.705
			c1.627-0.339,3.068-0.793,4.312-1.372v-14.545c-0.762,0.521-1.682,0.931-2.756,1.271c-1.088,0.31-2.219,0.523-3.405,0.677
			c-1.204,0.129-2.298,0.198-3.351,0.198c-2.551,0-4.552-0.466-5.98-1.356c-1.419-0.919-2.418-2.219-2.98-3.888
			c-0.581-1.669-0.851-3.674-0.828-5.98v-30.239h19.302v-14.699h-19.302v-20.02h-17.538v20.02h-12.525v14.699H764.055z
			 M871.356,268.698v-4.75c-0.03-6.021-0.809-11.352-2.383-16.018c-1.563-4.679-3.81-8.58-6.708-11.804
			c-2.919-3.193-6.376-5.627-10.406-7.266c-4.006-1.669-8.475-2.504-13.387-2.504c-5.343,0.014-10.319,0.876-14.915,2.617
			c-4.615,1.724-8.623,4.168-12.106,7.363c-3.486,3.194-6.199,7.014-8.172,11.451c-1.943,4.451-2.946,9.401-2.969,14.857
			c0.022,5.456,1.024,10.405,2.969,14.845c1.973,4.438,4.686,8.282,8.172,11.479c3.483,3.181,7.491,5.64,12.106,7.366
			c4.596,1.723,9.572,2.586,14.915,2.613c3.698,0,7.302-0.451,10.814-1.371c3.479-0.934,6.814-2.432,9.988-4.468
			c3.16-2.021,6.137-4.692,8.863-7.987l-12.575-9.37c-1.428,1.809-3.065,3.39-4.891,4.806c-1.812,1.396-3.846,2.488-6.135,3.322
			c-2.289,0.817-4.906,1.217-7.833,1.242c-3.285-0.025-6.282-0.678-8.984-1.992c-2.685-1.301-4.897-3.166-6.623-5.613
			c-1.767-2.459-2.833-5.412-3.252-8.82L871.356,268.698L871.356,268.698z M817.845,255.75c0.446-3.337,1.438-6.234,2.984-8.68
			c1.526-2.46,3.578-4.369,6.136-5.712c2.532-1.344,5.548-2.008,9.019-2.051c3.677,0.043,6.815,0.707,9.472,2.021
			c2.63,1.314,4.681,3.225,6.115,5.668c1.441,2.462,2.197,5.358,2.241,8.752L817.845,255.75L817.845,255.75z"/>
        <path fill="#4C7EA5" d="M203.898,226.868c3.521,0,6.448-2.897,6.434-6.362l0.015-7.902c-0.015-3.491-2.914-6.348-6.455-6.374
			c-3.526,0-6.452,2.927-6.452,6.374v7.876C197.439,223.998,200.344,226.853,203.898,226.868 M298.087,235.067l-0.006-38.325
			l-12.909-0.016v38.354L298.087,235.067z M276.151,235.082v-38.34l-12.92-0.016l0.014,38.341L276.151,235.082z M225.826,243.024
			c3.533,0.017,6.452-2.883,6.452-6.348l0.007-41.531c-0.007-3.508-2.912-6.363-6.459-6.363c-3.544-0.015-6.455,2.898-6.455,6.363
			l-0.014,41.531C219.379,240.171,222.276,243.024,225.826,243.024 M247.752,257.433c3.541,0,6.445-2.871,6.445-6.348l0.016-70.348
			c0-3.504-2.905-6.359-6.448-6.359c-3.534-0.015-6.459,2.897-6.459,6.359v70.348C241.305,254.575,244.203,257.433,247.752,257.433"
        />
	</g>
</g>
</svg>