<?xml version="1.0" standalone="no"?>
<!DOCTYPE svg PUBLIC "-//W3C//DTD SVG 20010904//EN"
 "http://www.w3.org/TR/2001/REC-SVG-20010904/DTD/svg10.dtd">
<svg version="1.0" xmlns="http://www.w3.org/2000/svg"
 width="3446.000000pt" height="2481.000000pt" viewBox="0 0 3446.000000 2481.000000"
 preserveAspectRatio="xMidYMid meet">

<g transform="translate(0.000000,2481.000000) scale(0.100000,-0.100000)"
fill="#A0ACE3" stroke="none">
<path d="M10 24803 c0 -16 3705 -6422 3711 -6415 4 4 831 1436 1839 3182 1008
1746 1841 3190 1852 3208 l20 32 -3711 0 c-2041 0 -3711 -3 -3711 -7z"/>
<path d="M7817 24733 c-25 -43 -916 -1587 -1981 -3432 l-1936 -3353 0 -2674 0
-2674 3045 0 3045 0 0 2726 0 2727 1929 3341 c1061 1838 1939 3358 1951 3379
l22 37 -3015 0 -3015 0 -45 -77z"/>
<path d="M15540 21323 c-1048 -1814 -1905 -3307 -1905 -3318 0 -12 699 -1232
1554 -2713 l1554 -2692 3820 0 c3304 0 3818 2 3814 14 -7 18 -6917 11988
-6926 11999 -4 4 -864 -1477 -1911 -3290z"/>
<path d="M11957 15118 c-797 -1380 -1447 -2512 -1444 -2514 2 -2 1307 -3 2900
-2 l2896 3 -1448 2508 c-797 1379 -1450 2509 -1452 2511 -2 2 -656 -1126
-1452 -2506z"/>
<path d="M3900 6115 l0 -6105 3045 0 3045 0 0 6105 0 6105 -3045 0 -3045 0 0
-6105z"/>
<path d="M10360 6117 l0 -6107 128 0 c225 0 557 30 837 76 857 141 1646 449
2375 929 1474 969 2460 2535 2694 4275 42 314 51 455 51 830 -1 357 -7 464
-46 780 -73 592 -256 1225 -518 1788 -411 887 -1058 1688 -1846 2288 -1012
769 -2213 1196 -3492 1241 l-183 6 0 -6106z"/>
<path d="M16973 12206 c6 -14 3325 -5767 3332 -5775 6 -5 131 38 250 86 839
340 1473 1045 1733 1928 73 246 102 449 109 750 6 265 -7 426 -52 650 -241
1198 -1205 2132 -2410 2334 -233 39 -315 41 -1659 41 -1131 0 -1307 -2 -1303
-14z"/>
<path d="M28030 12213 c-370 -18 -816 -86 -1195 -183 -2465 -629 -4290 -2739
-4560 -5270 -220 -2069 628 -4103 2254 -5409 931 -747 2010 -1187 3226 -1316
205 -22 762 -31 980 -16 832 57 1576 256 2310 616 845 415 1608 1047 2181
1808 654 867 1068 1899 1188 2962 52 458 52 976 0 1420 -163 1390 -797 2676
-1805 3660 -1153 1125 -2692 1746 -4289 1733 -124 -1 -254 -3 -290 -5z"/>
<path d="M16830 5852 l0 -5842 3376 0 3376 0 -20 33 c-11 17 -1526 2642 -3367
5832 -1842 3190 -3352 5804 -3356 5810 -5 5 -9 -2620 -9 -5833z"/>
</g>
</svg>
