<svg width="46" height="46" viewBox="0 0 46 46" fill="none" xmlns="http://www.w3.org/2000/svg">
<circle r="22.5" transform="matrix(-1 0 0 1 23 23)" fill="white" stroke="#BDE3FE"/>
<path d="M32.1666 15.2705H13.8334C12.8253 15.2705 12 16.1104 12 17.1365V32.0633C12 33.0891 12.8253 33.9293 13.8334 33.9293H22.0834V35.7949H19.3334C18.3209 35.7949 17.5 36.6304 17.5 37.6609L28.5 37.66C28.5 36.6295 27.6791 35.7941 26.6666 35.7941H23.9166V33.9293H32.1666C33.1747 33.9293 34 33.0891 34 32.0633V17.1365C34 16.1104 33.1747 15.2705 32.1666 15.2705ZM32.1666 32.0633H13.8334V17.1365H32.1666V32.0633Z" fill="#1F40E5"/>
<path d="M28.5 25.5328V23.6669H26.5368C26.4507 23.3279 26.3184 23.01 26.1482 22.7158L27.5378 21.3019L26.2406 19.9828L24.851 21.3959C24.562 21.2219 24.2493 21.0881 23.9166 21.0005V19.0024H22.0834V21.0005C21.7504 21.0881 21.4369 21.2219 21.149 21.3959L19.7594 19.9828L18.4633 21.3019L19.8518 22.7158C19.6807 23.0092 19.549 23.3279 19.4632 23.6669H17.5V25.5328H19.4632C19.5493 25.8717 19.6807 26.1897 19.8518 26.4838L18.4633 27.8978L19.7594 29.2179L21.149 27.8037C21.438 27.9781 21.7507 28.1121 22.0834 28.1995V30.1975H23.9166V28.1995C24.2496 28.1119 24.5623 27.9781 24.851 27.8037L26.2406 29.2179L27.5378 27.8978L26.1482 26.4838C26.3193 26.1897 26.451 25.8715 26.5368 25.5328H28.5ZM23 26.4656C21.9875 26.4656 21.1666 25.6302 21.1666 24.5997C21.1666 23.5692 21.9875 22.7338 23 22.7338C24.0126 22.7338 24.8334 23.5692 24.8334 24.5997C24.8334 25.6302 24.0126 26.4656 23 26.4656Z" fill="#1F40E5"/>
</svg>
