<svg width="46" height="46" viewBox="0 0 46 46" fill="none" xmlns="http://www.w3.org/2000/svg">
<circle r="22.5" transform="matrix(-1 0 0 1 23 23)" fill="white" stroke="#BDE3FE"/>
<path d="M32.533 12.6001H25.5996C25.123 12.6001 24.733 12.9904 24.733 13.4667V18.6667C24.733 19.1433 25.123 19.5335 25.5996 19.5335H28.1996V25.6001H21.2662V23.8667C21.2662 23.3904 20.8762 23.0001 20.3996 23.0001H17.7996V19.5335H20.3996C20.8762 19.5335 21.2662 19.1433 21.2662 18.6667V13.4667C21.2662 12.9904 20.8762 12.6001 20.3996 12.6001H13.4662C12.9899 12.6001 12.5996 12.9904 12.5996 13.4667V18.6667C12.5996 19.1433 12.9899 19.5335 13.4662 19.5335H16.0662V23.0001H13.4662C12.9899 23.0001 12.5996 23.3904 12.5996 23.8667V29.0667C12.5996 29.5433 12.9899 29.9335 13.4662 29.9335H20.3996C20.8762 29.9335 21.2662 29.5433 21.2662 29.0667V27.3335H28.1996V33.4001H29.933V19.5335H32.533C33.0093 19.5335 33.3996 19.1433 33.3996 18.6667V13.4667C33.3996 12.9904 33.0093 12.6001 32.533 12.6001ZM14.333 17.8001V14.3335H19.533V17.8001H14.333ZM19.533 28.2001H14.333V24.7335H19.533V28.2001ZM31.6662 17.8001H26.4662V14.3335H31.6662V17.8001Z" fill="#1F40E5"/>
</svg>
