<svg width="46" height="46" viewBox="0 0 46 46" fill="none" xmlns="http://www.w3.org/2000/svg">
<circle r="22.5" transform="matrix(-1 0 0 1 23 23)" fill="white" stroke="#BDE3FE"/>
<path d="M29.0668 17.8001C29.5454 17.8001 29.9334 17.4121 29.9334 16.9335C29.9334 16.4549 29.5454 16.0669 29.0668 16.0669C28.5882 16.0669 28.2002 16.4549 28.2002 16.9335C28.2002 17.4121 28.5882 17.8001 29.0668 17.8001Z" fill="#1F40E5"/>
<path d="M26.0336 17.8001C26.5122 17.8001 26.9002 17.4121 26.9002 16.9335C26.9002 16.4549 26.5122 16.0669 26.0336 16.0669C25.555 16.0669 25.167 16.4549 25.167 16.9335C25.167 17.4121 25.555 17.8001 26.0336 17.8001Z" fill="#1F40E5"/>
<path d="M23.0004 17.8001C23.479 17.8001 23.867 17.4121 23.867 16.9335C23.867 16.4549 23.479 16.0669 23.0004 16.0669C22.5218 16.0669 22.1338 16.4549 22.1338 16.9335C22.1338 17.4121 22.5218 17.8001 23.0004 17.8001Z" fill="#1F40E5"/>
<path d="M31.6662 12.6001H14.333C13.3799 12.6001 12.5996 13.3804 12.5996 14.3335V20.4001C12.5996 21.3538 13.3799 22.1335 14.333 22.1335H31.6662C32.6193 22.1335 33.3996 21.3538 33.3996 20.4001V14.3335C33.3996 13.3804 32.6193 12.6001 31.6662 12.6001ZM31.6662 20.4001H20.833V16.0667H19.0996V20.4001H17.7996V16.0667H16.0662V20.4001H14.333V14.3335H31.6662V20.4001Z" fill="#1F40E5"/>
<path d="M29.0668 29.0667C29.5454 29.0667 29.9334 28.6787 29.9334 28.2001C29.9334 27.7215 29.5454 27.3335 29.0668 27.3335C28.5882 27.3335 28.2002 27.7215 28.2002 28.2001C28.2002 28.6787 28.5882 29.0667 29.0668 29.0667Z" fill="#1F40E5"/>
<path d="M26.0336 29.0667C26.5122 29.0667 26.9002 28.6787 26.9002 28.2001C26.9002 27.7215 26.5122 27.3335 26.0336 27.3335C25.555 27.3335 25.167 27.7215 25.167 28.2001C25.167 28.6787 25.555 29.0667 26.0336 29.0667Z" fill="#1F40E5"/>
<path d="M23.0004 29.0667C23.479 29.0667 23.867 28.6787 23.867 28.2001C23.867 27.7215 23.479 27.3335 23.0004 27.3335C22.5218 27.3335 22.1338 27.7215 22.1338 28.2001C22.1338 28.6787 22.5218 29.0667 23.0004 29.0667Z" fill="#1F40E5"/>
<path d="M31.6662 23.8665H14.333C13.3799 23.8665 12.5996 24.6467 12.5996 25.5999V31.6665C12.5996 32.6196 13.3799 33.3999 14.333 33.3999H31.6662C32.6193 33.3999 33.3996 32.6196 33.3996 31.6665V25.5999C33.3996 24.6467 32.6193 23.8665 31.6662 23.8665ZM31.6662 31.6665H20.833V27.333H19.0996V31.6665H17.7996V27.333H16.0662V31.6665H14.333V25.5999H31.6662V31.6665Z" fill="#1F40E5"/>
</svg>
