<svg width="46" height="46" viewBox="0 0 46 46" fill="none" xmlns="http://www.w3.org/2000/svg">
<circle r="22.5" transform="matrix(-1 0 0 1 23 23)" fill="white" stroke="#BDE3FE"/>
<path d="M22.9996 32.9333H14.333V20.8001H31.6662V26.0001H33.3996V17.3335C33.3996 16.3804 32.6193 15.6001 31.6662 15.6001H14.333C13.3799 15.6001 12.5996 16.3804 12.5996 17.3335V32.9335C12.5996 33.8867 13.3799 34.6672 14.333 34.6672H22.9996V32.9333ZM14.333 17.3335H31.6662V19.0669H14.333V17.3335Z" fill="#1F40E5"/>
<path d="M22.1332 22.5332H16.0664V24.2669H22.1332V22.5332Z" fill="#1F40E5"/>
<path d="M27.3331 22.5332H23.8662V24.2669H27.3331V22.5332Z" fill="#1F40E5"/>
<path d="M25.5998 26H17.7998V27.7332H25.5998V26Z" fill="#1F40E5"/>
<path d="M22.9998 29.4668H19.5332V31.2H22.9998V29.4668Z" fill="#1F40E5"/>
<path d="M17.7998 29.4668H16.0664V31.2H17.7998V29.4668Z" fill="#1F40E5"/>
<path d="M33.4 32.9332V31.2H31.9596C31.8995 31.0019 31.8215 30.8131 31.7251 30.6348L32.7443 29.6156L31.5178 28.3902L30.4986 29.4083C30.32 29.3119 30.1315 29.2336 29.9334 29.1738V27.7332H28.2V29.1738C28.0019 29.2336 27.8134 29.3119 27.6345 29.4083L26.6155 28.3891L25.3899 29.6156L26.4081 30.6348C26.3116 30.8131 26.2339 31.0019 26.1738 31.2H24.7334V32.9332H26.1738C26.2339 33.1313 26.3116 33.32 26.4081 33.4989L25.3899 34.5176L26.6155 35.7435L27.6337 34.7253C27.8131 34.8218 28.0019 34.8995 28.2 34.9593V36.4H29.9334V34.9593C30.1315 34.8995 30.32 34.8218 30.4997 34.7253L31.5178 35.7435L32.7443 34.5176L31.7251 33.4989C31.8215 33.3193 31.8995 33.1313 31.9596 32.9332H33.4ZM29.0666 33.3668C28.349 33.3668 27.7666 32.7844 27.7666 32.0668C27.7666 31.3487 28.349 30.7668 29.0666 30.7668C29.7844 30.7668 30.3666 31.3487 30.3666 32.0668C30.3666 32.7844 29.7844 33.3668 29.0666 33.3668Z" fill="#1F40E5"/>
</svg>
