<svg width="46" height="46" viewBox="0 0 46 46" fill="none" xmlns="http://www.w3.org/2000/svg">
<circle r="22.5" transform="matrix(-1 0 0 1 23 23)" fill="white" stroke="#BDE3FE"/>
<path fill-rule="evenodd" clip-rule="evenodd" d="M12 32.7051H32.6256V33.9591H12V32.7051Z" fill="#1F40E5"/>
<path fill-rule="evenodd" clip-rule="evenodd" d="M31.29 23.5714L25.1352 22.439L27.2174 20.3568L21.0316 15.1066L15.7528 19.4186C15.6889 19.475 15.6145 19.5182 15.5338 19.5458C15.4532 19.5734 15.3678 19.5847 15.2828 19.5792C15.1977 19.5737 15.1145 19.5515 15.0381 19.5137C14.9616 19.476 14.8934 19.4235 14.8373 19.3593C14.7812 19.2951 14.7383 19.2204 14.7112 19.1396C14.684 19.0588 14.6731 18.9734 14.6791 18.8884C14.685 18.8033 14.7077 18.7203 14.7459 18.6441C14.784 18.5678 14.8368 18.4998 14.9013 18.4441L21.0419 13.3789L28.1324 19.4418L30.3117 17.2626L31.29 23.5714Z" fill="#1F40E5"/>
<path fill-rule="evenodd" clip-rule="evenodd" d="M19.7646 19.7637H23.5836V31.2528H19.7646V19.7637Z" fill="#1F40E5"/>
<path fill-rule="evenodd" clip-rule="evenodd" d="M13.2942 23.6465H17.1532V31.2533H13.2942V23.6465Z" fill="#1F40E5"/>
<path fill-rule="evenodd" clip-rule="evenodd" d="M26.2354 26.2344H30.0543V31.2711H26.2354V26.2344Z" fill="#1F40E5"/>
</svg>
