<svg width="81" height="81" viewBox="0 0 81 81" fill="none" xmlns="http://www.w3.org/2000/svg">
<path opacity="0.3" fill-rule="evenodd" clip-rule="evenodd" d="M41.8246 74.1543C49.1013 74.1543 55.8593 71.9337 61.458 68.1331L57.7137 62.6173C53.0609 65.7757 47.5791 67.4876 41.8246 67.4876C26.1765 67.4876 13.4913 54.8024 13.4913 39.1543C13.4913 23.5062 26.1765 10.821 41.8246 10.821C57.4727 10.821 70.1579 23.5062 70.1579 39.1543C70.1579 41.7812 69.8022 44.3541 69.1085 46.8269L75.5275 48.6274C76.3726 45.6145 76.8246 42.4372 76.8246 39.1543C76.8246 19.8243 61.1546 4.1543 41.8246 4.1543C22.4946 4.1543 6.82458 19.8243 6.82458 39.1543C6.82458 58.4843 22.4946 74.1543 41.8246 74.1543Z" fill="#D8E8F5"/>
<path fill-rule="evenodd" clip-rule="evenodd" d="M75.673 45.971C75.9205 46.0629 76.0539 46.3314 75.9776 46.5842L74.8371 50.3627C74.7608 50.6155 74.5011 50.7653 74.244 50.705L37.087 41.9756C36.8062 41.9097 36.6393 41.6205 36.7227 41.3444L39.2392 33.0077C39.3225 32.7316 39.6215 32.583 39.8919 32.6834L75.673 45.971Z" fill="white"/>
</svg>
