<svg width="81" height="81" viewBox="0 0 81 81" fill="none" xmlns="http://www.w3.org/2000/svg">
<path opacity="0.3" fill-rule="evenodd" clip-rule="evenodd" d="M40.1582 70.8197C25.4306 70.8197 13.4915 58.8806 13.4915 44.153C13.4915 29.4254 25.4306 17.4863 40.1582 17.4863C54.8858 17.4863 66.8249 29.4254 66.8249 44.153C66.8249 58.8806 54.8858 70.8197 40.1582 70.8197Z" fill="#D8E8F5"/>
<path fill-rule="evenodd" clip-rule="evenodd" d="M43.4915 17.6926V14.153H46.8249C48.6658 14.153 50.1582 12.6606 50.1582 10.8197C50.1582 8.97871 48.6658 7.48633 46.8249 7.48633H33.4915C31.6506 7.48633 30.1582 8.97871 30.1582 10.8197C30.1582 12.6606 31.6506 14.153 33.4915 14.153H36.8249V17.6926C37.9168 17.5565 39.0293 17.4863 40.1582 17.4863C41.2871 17.4863 42.3995 17.5565 43.4915 17.6926Z" fill="white"/>
<path fill-rule="evenodd" clip-rule="evenodd" d="M60.7154 27.1659L64.974 22.9073C65.3645 22.5168 65.3645 21.8836 64.974 21.4931L61.6741 18.1933C61.2836 17.8028 60.6504 17.8028 60.2599 18.1933L55.858 22.5952C57.6618 23.9112 59.2942 25.448 60.7154 27.1659Z" fill="white"/>
<path fill-rule="evenodd" clip-rule="evenodd" d="M60.1582 44.1543C60.1582 33.1086 51.2039 24.1543 40.1582 24.1543V44.1543L60.1582 44.1543Z" fill="white"/>
</svg>
