<svg width="48" height="48" viewBox="0 0 48 48" fill="none" xmlns="http://www.w3.org/2000/svg">
<rect width="48" height="48" fill="white"/>
<path fill-rule="evenodd" clip-rule="evenodd" d="M9.5 8.25C7.84315 8.25 6.5 9.59315 6.5 11.25V23.3504C8.55193 22.0216 10.9984 21.25 13.625 21.25C20.8737 21.25 26.75 27.1263 26.75 34.375C26.75 34.4167 26.7498 34.4584 26.7494 34.5H34.5436L39.8365 39.7929C40.4665 40.4229 41.5436 39.9767 41.5436 39.0858V29.25L41.5 29.2671V11.25C41.5 9.59315 40.1569 8.25 38.5 8.25H9.5ZM12.75 15.25C12.1977 15.25 11.75 15.6977 11.75 16.25V17.75C11.75 18.3023 12.1977 18.75 12.75 18.75H30C30.5523 18.75 31 18.3023 31 17.75V16.25C31 15.6977 30.5523 15.25 30 15.25H12.75Z" fill="#1F40E5"/>
<rect x="11.75" y="27.5" width="3.50001" height="7.00001" rx="1" fill="#DADADA"/>
<path fill-rule="evenodd" clip-rule="evenodd" d="M13.5 39.75C14.4665 39.75 15.25 38.9665 15.25 38C15.25 37.0335 14.4665 36.25 13.5 36.25C12.5335 36.25 11.75 37.0335 11.75 38C11.75 38.9665 12.5335 39.75 13.5 39.75Z" fill="#DADADA"/>
</svg>
