<svg width="48" height="48" viewBox="0 0 48 48" fill="none" xmlns="http://www.w3.org/2000/svg">
<rect width="48" height="48" fill="white"/>
<path opacity="0.3" fill-rule="evenodd" clip-rule="evenodd" d="M8 6.93029L23.6314 3.9994C23.875 3.95373 24.125 3.95373 24.3686 3.9994L40 6.93029V28.8336C40 32.6263 38.0462 36.1514 34.83 38.1616L24.53 44.599C24.2057 44.8017 23.7943 44.8017 23.47 44.599L13.17 38.1616C9.95382 36.1514 8 32.6263 8 28.8336L8 6.93029Z" fill="#1F40E5"/>
<path fill-rule="evenodd" clip-rule="evenodd" d="M18.4329 11.4455C18.1688 11.1308 17.6588 11.2512 17.5635 11.6509L16.3719 16.6467C16.2942 16.9723 16.5523 17.2808 16.8865 17.2619L22.0257 16.9706C22.4366 16.9474 22.645 16.4653 22.3804 16.1501L21.1133 14.64C22.0234 14.329 22.9884 14.1666 23.9792 14.1666C28.8693 14.1666 32.8334 18.1307 32.8334 23.0208C32.8334 27.9108 28.8693 31.8749 23.9792 31.8749C19.0892 31.8749 15.1251 27.9108 15.1251 23.0208C15.1251 22.1999 15.2362 21.3958 15.453 20.6231L13.4471 20.0604C13.183 21.002 13.0417 21.9949 13.0417 23.0208C13.0417 29.0614 17.9386 33.9583 23.9792 33.9583C30.0199 33.9583 34.9167 29.0614 34.9167 23.0208C34.9167 16.9802 30.0199 12.0833 23.9792 12.0833C22.4598 12.0833 21.0128 12.3931 19.6978 12.953L18.4329 11.4455Z" fill="#1F40E5"/>
<path opacity="0.3" fill-rule="evenodd" clip-rule="evenodd" d="M8 6.93029L23.6314 3.9994C23.875 3.95373 24.125 3.95373 24.3686 3.9994L40 6.93029V28.8336C40 32.6263 38.0462 36.1514 34.83 38.1616L24.53 44.599C24.2057 44.8017 23.7943 44.8017 23.47 44.599L13.17 38.1616C9.95382 36.1514 8 32.6263 8 28.8336L8 6.93029Z" fill="#1F40E5"/>
<path fill-rule="evenodd" clip-rule="evenodd" d="M18.4329 11.4455C18.1688 11.1308 17.6588 11.2512 17.5635 11.6509L16.3719 16.6467C16.2942 16.9723 16.5523 17.2808 16.8865 17.2619L22.0257 16.9706C22.4366 16.9474 22.645 16.4653 22.3804 16.1501L21.1133 14.64C22.0234 14.329 22.9884 14.1666 23.9792 14.1666C28.8693 14.1666 32.8334 18.1307 32.8334 23.0208C32.8334 27.9108 28.8693 31.8749 23.9792 31.8749C19.0892 31.8749 15.1251 27.9108 15.1251 23.0208C15.1251 22.1999 15.2362 21.3958 15.453 20.6231L13.4471 20.0604C13.183 21.002 13.0417 21.9949 13.0417 23.0208C13.0417 29.0614 17.9386 33.9583 23.9792 33.9583C30.0199 33.9583 34.9167 29.0614 34.9167 23.0208C34.9167 16.9802 30.0199 12.0833 23.9792 12.0833C22.4598 12.0833 21.0128 12.3931 19.6978 12.953L18.4329 11.4455Z" fill="#1F40E5"/>
</svg>
