<svg width="48" height="48" viewBox="0 0 48 48" fill="none" xmlns="http://www.w3.org/2000/svg">
<rect width="48" height="48" fill="white"/>
<path opacity="0.3" fill-rule="evenodd" clip-rule="evenodd" d="M14.8718 42.8345C15.2624 43.225 15.8955 43.225 16.286 42.8345L16.8355 42.2851C17.226 41.8945 17.226 41.2614 16.8355 40.8709L14.598 38.6334L16.8364 36.3951C17.2269 36.0045 17.2269 35.3714 16.8364 34.9809L16.2869 34.4314C15.8964 34.0409 15.2633 34.0409 14.8727 34.4314L12.6344 36.6698L10.3952 34.4306C10.0047 34.0401 9.3715 34.0401 8.98097 34.4306L8.43156 34.98C8.04104 35.3705 8.04104 36.0037 8.43157 36.3942L10.6708 38.6334L8.43246 40.8717C8.04194 41.2622 8.04194 41.8954 8.43246 42.2859L8.98187 42.8353C9.3724 43.2259 10.0056 43.2259 10.3961 42.8353L12.6344 40.597L14.8718 42.8345Z" fill="#1F40E5"/>
<path d="M25 21C20.5817 21 17 17.4183 17 13C17 8.58172 20.5817 5 25 5C29.4183 5 33 8.58172 33 13C33 17.4183 29.4183 21 25 21Z" fill="#1F40E5"/>
<path d="M7.0013 39.3984C7.77652 29.853 15.5238 25 24.9667 25C34.5424 25 42.4098 29.5864 42.9958 39.4C43.0192 39.7909 42.9958 41 41.4934 41C34.0822 41 23.0694 41 8.455 41C7.95342 41 6.95908 39.9184 7.0013 39.3984Z" fill="#1F40E5"/>
<path d="M24 39.5C24 46.4036 19.9036 45.5 13 45.5C6.09644 45.5 1.5 46.4036 1.5 39.5C1.5 32.5964 4.59644 27 11.5 27C18.4036 27 24 32.5964 24 39.5Z" fill="white"/>
<path opacity="0.3" fill-rule="evenodd" clip-rule="evenodd" d="M14.8718 42.8345C15.2624 43.225 15.8955 43.225 16.286 42.8345L16.8355 42.2851C17.226 41.8945 17.226 41.2614 16.8355 40.8709L14.598 38.6334L16.8364 36.3951C17.2269 36.0045 17.2269 35.3714 16.8364 34.9809L16.2869 34.4314C15.8964 34.0409 15.2633 34.0409 14.8727 34.4314L12.6344 36.6698L10.3952 34.4306C10.0047 34.0401 9.3715 34.0401 8.98097 34.4306L8.43156 34.98C8.04104 35.3705 8.04104 36.0037 8.43157 36.3942L10.6708 38.6334L8.43246 40.8717C8.04194 41.2622 8.04194 41.8954 8.43246 42.2859L8.98187 42.8353C9.3724 43.2259 10.0056 43.2259 10.3961 42.8353L12.6344 40.597L14.8718 42.8345Z" fill="#1F40E5"/>
</svg>
