<svg width="48" height="48" viewBox="0 0 48 48" fill="none" xmlns="http://www.w3.org/2000/svg">
<path opacity="0.3" fill-rule="evenodd" clip-rule="evenodd" d="M24 44C35.0457 44 44 35.0457 44 24C44 12.9543 35.0457 4 24 4C12.9543 4 4 12.9543 4 24C4 35.0457 12.9543 44 24 44Z" fill="#1F40E5"/>
<path fill-rule="evenodd" clip-rule="evenodd" d="M21.6752 25.4664V27.8492H23.4849C27.1346 27.8492 30 25.0441 30 21.4246C30 17.8051 27.1346 15 23.4849 15C19.8353 15 17 17.8051 17 21.4246H19.5638C19.5638 19.1323 21.1624 17.3828 23.4849 17.3828C25.7773 17.3828 27.4362 19.1323 27.4362 21.4246C27.4362 23.7169 25.7773 25.4664 23.4849 25.4664H21.6752ZM23.2626 29.4749C22.7103 29.4749 22.2626 29.9226 22.2626 30.4749V31.3475C22.2626 31.8998 22.7103 32.3475 23.2626 32.3475H24.1352C24.6875 32.3475 25.1352 31.8998 25.1352 31.3475V30.4749C25.1352 29.9226 24.6875 29.4749 24.1352 29.4749H23.2626Z" fill="#1F40E5"/>
</svg>
