<svg width="46" height="46" viewBox="0 0 46 46" fill="none" xmlns="http://www.w3.org/2000/svg">
<rect width="46" height="46" fill="white"/>
<circle r="22.5" transform="matrix(-1 0 0 1 23 23)" fill="white" stroke="#BDE3FE"/>
<path fill-rule="evenodd" clip-rule="evenodd" d="M22.917 28.334C22.3647 28.334 21.917 28.7817 21.917 29.334V32.6673H19.167C18.8908 32.6673 18.667 32.8912 18.667 33.1673V33.2507C18.667 33.5268 18.8909 33.7507 19.167 33.7507H22.917H23.0837H26.8337C27.1098 33.7507 27.3337 33.5268 27.3337 33.2507V33.1673C27.3337 32.8912 27.1098 32.6673 26.8337 32.6673H24.0837V29.334C24.0837 28.7817 23.6359 28.334 23.0837 28.334H22.917Z" fill="#1F40E5"/>
<path d="M13 16H32.6667V14H13V16ZM32.6667 16V27H34.6667V16H32.6667ZM32.6667 27H13V29H32.6667V27ZM13 27V16H11V27H13ZM13 27H13H11C11 28.1046 11.8954 29 13 29V27ZM32.6667 27V29C33.7712 29 34.6667 28.1046 34.6667 27H32.6667ZM32.6667 16H32.6667H34.6667C34.6667 14.8954 33.7712 14 32.6667 14V16ZM13 14C11.8954 14 11 14.8954 11 16H13V16V14Z" fill="#1F40E5"/>
<rect x="14" y="19" width="7" height="1" rx="0.5" fill="#1F40E5"/>
<rect x="32" y="23.918" width="7" height="1" rx="0.5" transform="rotate(-180 32 23.918)" fill="#1F40E5"/>
<rect x="14.334" y="20.834" width="4.33333" height="1.08333" rx="0.541667" fill="#1F40E5"/>
<rect x="31.666" y="22.084" width="4.33333" height="1.08333" rx="0.541667" transform="rotate(-180 31.666 22.084)" fill="#1F40E5"/>
<rect x="23" y="18" width="0.5" height="7" fill="#1F40E5"/>
</svg>
