<svg width="46" height="46" viewBox="0 0 46 46" fill="none" xmlns="http://www.w3.org/2000/svg">
<circle r="22.5" transform="matrix(-1 0 0 1 23 23)" fill="white" stroke="#BDE3FE"/>
<path d="M21.2662 30.9336H14.333V32.6668H21.2662V30.9336Z" fill="#1F40E5"/>
<path d="M24.7334 30.9336H23V32.6668H24.7334V30.9336Z" fill="#1F40E5"/>
<path d="M19.533 27.4668H14.333V29.2002H19.533V27.4668Z" fill="#1F40E5"/>
<path d="M30.4923 19.6671L27.7662 26.4838L26.494 23.303C27.007 22.8274 27.333 22.1546 27.333 21.4006C27.333 19.9651 26.169 18.8006 24.733 18.8006C24.7192 18.8006 24.7075 18.8039 24.6951 18.8039L23.3061 15.334H20.0931L17.3662 22.1504L16.3727 19.6671H12.5996V21.4006H15.1996L16.933 25.734H17.7996L21.2662 17.0671H22.133L23.0724 19.4149C22.5027 19.8923 22.133 20.6 22.133 21.4006C22.133 22.836 23.2968 24.0006 24.733 24.0006C24.7897 24.0006 24.843 23.987 24.8997 23.9837L27.333 30.0671H28.1996L31.6662 21.4006H33.3996V19.6671H30.4923ZM24.733 22.2671C24.2538 22.2671 23.8662 21.8797 23.8662 21.4006C23.8662 20.9214 24.2538 20.534 24.733 20.534C25.2119 20.534 25.5996 20.9214 25.5996 21.4006C25.5996 21.8797 25.2119 22.2671 24.733 22.2671Z" fill="#1F40E5"/>
</svg>
