<svg width="46" height="46" viewBox="0 0 46 46" fill="none" xmlns="http://www.w3.org/2000/svg">
<circle r="22.5" transform="matrix(-1 0 0 1 23 23)" fill="white" stroke="#BDE3FE"/>
<path d="M28.4162 30.934L26.683 28.334L24.9496 30.934H25.8923C25.5177 32.1843 24.3724 33.1008 22.9996 33.1008C22.2599 33.1008 21.5922 32.8255 21.0657 32.3863L20.3447 33.469C21.08 34.0433 21.9942 34.4008 22.9996 34.4008C25.096 34.4008 26.8437 32.9118 27.2456 30.934H28.4162Z" fill="#1F40E5"/>
<path d="M22.9996 25.7324C20.9032 25.7324 19.1555 27.2214 18.7535 29.1993H17.583L19.3162 31.7993L21.0496 29.1993H20.1068C20.4815 27.9489 21.6278 27.0324 22.9996 27.0324C23.7393 27.0324 24.407 27.3078 24.9335 27.7469L25.6544 26.6643C24.9199 26.0897 24.0058 25.7324 22.9996 25.7324Z" fill="#1F40E5"/>
<path d="M22.9996 13.5996C18.2135 13.5996 14.333 15.1518 14.333 17.0662V25.7328C14.333 26.7865 15.5118 27.7285 17.3662 28.3642V26.525C16.6722 26.239 16.2339 25.9447 16.0662 25.7328V23.4731C17.6472 24.3178 20.1601 24.8662 22.9996 24.8662C25.8401 24.8662 28.3519 24.3178 29.933 23.4731V25.7328C29.7653 25.9444 29.3269 26.239 28.633 26.525V28.3642C30.4873 27.7285 31.6662 26.7865 31.6662 25.7328V17.0662C31.6662 15.1518 27.7864 13.5996 22.9996 13.5996ZM29.933 21.3996C29.4842 21.9667 27.0943 23.1328 22.9996 23.1328C18.9048 23.1328 16.5157 21.9667 16.0662 21.3996V19.1399C17.6472 19.9844 20.1601 20.5328 22.9996 20.5328C25.8401 20.5328 28.3519 19.9844 29.933 19.1399V21.3996ZM22.9996 18.7996C18.9048 18.7996 16.5157 17.6332 16.0662 17.0662C16.5157 16.4991 18.9048 15.3328 22.9996 15.3328C27.0943 15.3328 29.4842 16.4991 29.933 17.0662C29.4842 17.6332 27.0943 18.7996 22.9996 18.7996Z" fill="#1F40E5"/>
</svg>
