<svg width="46" height="46" viewBox="0 0 46 46" fill="none" xmlns="http://www.w3.org/2000/svg">
<circle r="22.5" transform="matrix(-1 0 0 1 23 23)" fill="white" stroke="#BDE3FE"/>
<path d="M29.0665 17.7996C29.5451 17.7996 29.9331 17.4116 29.9331 16.933C29.9331 16.4544 29.5451 16.0664 29.0665 16.0664C28.5879 16.0664 28.2 16.4544 28.2 16.933C28.2 17.4116 28.5879 17.7996 29.0665 17.7996Z" fill="#1F40E5"/>
<path d="M26.0335 17.7996C26.5121 17.7996 26.9 17.4116 26.9 16.933C26.9 16.4544 26.5121 16.0664 26.0335 16.0664C25.5549 16.0664 25.1669 16.4544 25.1669 16.933C25.1669 17.4116 25.5549 17.7996 26.0335 17.7996Z" fill="#1F40E5"/>
<path d="M23 17.7996C23.4786 17.7996 23.8666 17.4116 23.8666 16.933C23.8666 16.4544 23.4786 16.0664 23 16.0664C22.5214 16.0664 22.1334 16.4544 22.1334 16.933C22.1334 17.4116 22.5214 17.7996 23 17.7996Z" fill="#1F40E5"/>
<path d="M31.6666 12.5996H14.3334C13.3802 12.5996 12.6 13.3799 12.6 14.333V20.3996C12.6 21.3533 13.3802 22.133 14.3334 22.133H31.6666C32.6197 22.133 33.4 21.3533 33.4 20.3996V14.333C33.4 13.3799 32.6197 12.5996 31.6666 12.5996ZM31.6666 20.3996H20.8334V16.0662H19.1V20.3996H17.8V16.0662H16.0666V20.3996H14.3334V14.333H31.6666V20.3996Z" fill="#1F40E5"/>
<path d="M29.0665 29.0671C29.5451 29.0671 29.9331 28.6792 29.9331 28.2006C29.9331 27.722 29.5451 27.334 29.0665 27.334C28.5879 27.334 28.2 27.722 28.2 28.2006C28.2 28.6792 28.5879 29.0671 29.0665 29.0671Z" fill="#1F40E5"/>
<path d="M26.0335 29.0671C26.5121 29.0671 26.9 28.6792 26.9 28.2006C26.9 27.722 26.5121 27.334 26.0335 27.334C25.5549 27.334 25.1669 27.722 25.1669 28.2006C25.1669 28.6792 25.5549 29.0671 26.0335 29.0671Z" fill="#1F40E5"/>
<path d="M23 29.0671C23.4786 29.0671 23.8666 28.6792 23.8666 28.2006C23.8666 27.722 23.4786 27.334 23 27.334C22.5214 27.334 22.1334 27.722 22.1334 28.2006C22.1334 28.6792 22.5214 29.0671 23 29.0671Z" fill="#1F40E5"/>
<path d="M31.6666 23.8672H14.3334C13.3802 23.8672 12.6 24.6474 12.6 25.6006V31.6672C12.6 32.6203 13.3802 33.4006 14.3334 33.4006H31.6666C32.6197 33.4006 33.4 32.6203 33.4 31.6672V25.6006C33.4 24.6474 32.6197 23.8672 31.6666 23.8672ZM31.6666 31.6672H20.8334V27.3338H19.1V31.6672H17.8V27.3338H16.0666V31.6672H14.3334V25.6006H31.6666V31.6672Z" fill="#1F40E5"/>
</svg>
