<svg width="46" height="46" viewBox="0 0 46 46" fill="none" xmlns="http://www.w3.org/2000/svg">
<circle r="22.5" transform="matrix(-1 0 0 1 23 23)" fill="white" stroke="#BDE3FE"/>
<path d="M33.4 24.3002V21.7002L31.3949 21.1987C31.2316 20.6727 30.9937 20.1797 30.7017 19.7255L31.6099 17.8605L29.6185 16.189L27.9444 17.4035C27.479 17.2085 26.9821 17.0764 26.4666 17.0023V15.2002C26.4666 14.2468 25.6863 13.4668 24.7334 13.4668H14.3334C13.3802 13.4668 12.6 14.2468 12.6 15.2002V30.8002C12.6 31.7534 13.3802 32.5334 14.3334 32.5334H24.7334C25.6863 32.5334 26.4666 31.7534 26.4666 30.8002V28.9974C26.9819 28.9238 27.479 28.7917 27.9444 28.5962L29.6185 29.8109L31.6099 28.1402L30.7017 26.2744C30.9937 25.8199 31.2308 25.3272 31.3941 24.8012L33.4 24.3002ZM24.7334 30.8002H14.3334V15.2002H24.7334V30.8002ZM26.4666 26.3441V19.6558C27.9595 20.0425 29.0666 21.3861 29.0666 23.0002C29.0666 24.6135 27.9595 25.9572 26.4666 26.3441Z" fill="#1F40E5"/>
<path d="M19.5334 16.9336H16.0665V18.667H19.5334V16.9336Z" fill="#1F40E5"/>
<path d="M22.9999 20.4004H16.0665V22.1338H22.9999V20.4004Z" fill="#1F40E5"/>
<path d="M21.2665 23.8672H16.0665V25.6003H21.2665V23.8672Z" fill="#1F40E5"/>
<path d="M22.9999 27.334H16.0665V29.0677H22.9999V27.334Z" fill="#1F40E5"/>
</svg>
