<svg width="46" height="46" viewBox="0 0 46 46" fill="none" xmlns="http://www.w3.org/2000/svg">
<circle r="22.5" transform="matrix(-1 0 0 1 23 23)" fill="white" stroke="#BDE3FE"/>
<path d="M31.6666 22.9993H29.9334V16.933C29.9334 16.4548 29.5457 16.0664 29.0666 16.0664C28.5884 16.0664 28.2 16.4548 28.2 16.933V22.9993H17.8V16.933C17.8 16.4548 17.4123 16.0664 16.9334 16.0664C16.455 16.0664 16.0666 16.4548 16.0666 16.933V22.9993H14.3334C13.3802 22.9993 12.6 23.7796 12.6 24.7327V29.9327C12.6 30.8856 13.3802 31.6659 14.3334 31.6659V33.3993H16.0666V31.6659H29.9334V33.3993H31.6666V31.6659C32.6197 31.6659 33.4 30.8856 33.4 29.9327V24.7327C33.4 23.7796 32.6197 22.9993 31.6666 22.9993ZM31.6666 29.9327H14.3334V24.7327H31.6666V29.9327Z" fill="#1F40E5"/>
<path d="M17.7999 26.4668H16.0665V28.2002H17.7999V26.4668Z" fill="#1F40E5"/>
<path d="M29.9334 26.4668H19.5334V28.2002H29.9334V26.4668Z" fill="#1F40E5"/>
<path d="M24.7334 14.3932L25.9588 15.6162C27.6719 13.9041 30.4599 13.9041 32.1743 15.617L33.4 14.395C31.0056 12.0014 27.1259 12.0014 24.7334 14.3932Z" fill="#1F40E5"/>
<path d="M12.6 14.3932L13.8256 15.6162C15.5385 13.9041 18.3265 13.9041 20.0412 15.617L21.2666 14.395C18.8722 12.0014 14.9925 12.0014 12.6 14.3932Z" fill="#1F40E5"/>
</svg>
