<svg width="80" height="80" viewBox="0 0 80 80" fill="none" xmlns="http://www.w3.org/2000/svg">
<path fill-rule="evenodd" clip-rule="evenodd" d="M56.2709 27.3333C60.4705 27.3333 63.875 23.9288 63.875 19.7292C63.875 15.5295 60.4705 12.125 56.2709 12.125C52.0712 12.125 48.6667 15.5295 48.6667 19.7292C48.6667 23.9288 52.0712 27.3333 56.2709 27.3333ZM56.2709 66.8756C60.4705 66.8756 63.875 63.4711 63.875 59.2714C63.875 55.0718 60.4705 51.6673 56.2709 51.6673C52.0712 51.6673 48.6667 55.0718 48.6667 59.2714C48.6667 63.4711 52.0712 66.8756 56.2709 66.8756ZM24.3333 59.2714C24.3333 63.4711 20.9288 66.8756 16.7292 66.8756C12.5295 66.8756 9.125 63.4711 9.125 59.2714C9.125 55.0718 12.5295 51.6673 16.7292 51.6673C20.9288 51.6673 24.3333 55.0718 24.3333 59.2714Z" fill="white"/>
<path fill-rule="evenodd" clip-rule="evenodd" d="M16.7292 27.3333C20.9288 27.3333 24.3333 23.9288 24.3333 19.7292C24.3333 15.5295 20.9288 12.125 16.7292 12.125C12.5295 12.125 9.125 15.5295 9.125 19.7292C9.125 23.9288 12.5295 27.3333 16.7292 27.3333ZM30.4167 16.1673C30.4167 15.615 30.8644 15.1673 31.4167 15.1673H41.5834C42.1357 15.1673 42.5834 15.615 42.5834 16.1673V20.2506C42.5834 20.8029 42.1357 21.2506 41.5834 21.2506H31.4167C30.8644 21.2506 30.4167 20.8029 30.4167 20.2506V16.1673ZM31.4167 57.75C30.8644 57.75 30.4167 58.1977 30.4167 58.75V62.8333C30.4167 63.3856 30.8644 63.8333 31.4167 63.8333H41.5834C42.1357 63.8333 42.5834 63.3856 42.5834 62.8333V58.75C42.5834 58.1977 42.1357 57.75 41.5834 57.75H31.4167ZM12.1667 34.4173C12.1667 33.865 12.6144 33.4173 13.1667 33.4173H17.25C17.8023 33.4173 18.25 33.865 18.25 34.4173V44.5839C18.25 45.1362 17.8023 45.5839 17.25 45.5839H13.1667C12.6144 45.5839 12.1667 45.1362 12.1667 44.5839V34.4173ZM55.75 33.4173C55.1977 33.4173 54.75 33.865 54.75 34.4173V44.5839C54.75 45.1362 55.1977 45.5839 55.75 45.5839H59.8333C60.3856 45.5839 60.8333 45.1362 60.8333 44.5839V34.4173C60.8333 33.865 60.3856 33.4173 59.8333 33.4173H55.75Z" fill="#5672EA"/>
</svg>
