<svg width="80" height="81" viewBox="0 0 80 81" fill="none" xmlns="http://www.w3.org/2000/svg">
<g clip-path="url(#clip0)">
<path fill-rule="evenodd" clip-rule="evenodd" d="M3.97184 18.1167H-6.66774V41.625H-10.5254C-10.7148 41.625 -10.8879 41.732 -10.9726 41.9014L-12.5559 45.0681C-12.7222 45.4005 -12.4804 45.7917 -12.1087 45.7917H-6.66774V52.0417H-1.05941V45.7917H9.6899C9.87929 45.7917 10.0524 45.6847 10.1371 45.5153L11.7204 42.3486C11.8867 42.0162 11.6449 41.625 11.2732 41.625H-1.05941V38.0021H3.58851C5.37741 38.0021 7.07045 37.8264 8.66768 37.475C10.2649 37.1236 11.6625 36.5566 12.8604 35.774C14.0583 34.9914 15.0086 33.9612 15.7114 32.6834C16.4142 31.4056 16.7656 29.8244 16.7656 27.9396C16.7656 26.1827 16.4621 24.6813 15.8552 23.4355C15.2482 22.1896 14.3857 21.1674 13.2677 20.3688C12.1496 19.5702 10.808 18.9952 9.24268 18.6438C7.67739 18.2924 5.92047 18.1167 3.97184 18.1167ZM5.98445 32.7072C5.09 32.851 4.14765 32.9228 3.15737 32.9228H-1.0593V23.1958H3.34903C4.27543 23.1958 5.17785 23.2517 6.05632 23.3635C6.9348 23.4753 7.71743 23.7069 8.40424 24.0583C9.09105 24.4096 9.64208 24.8968 10.0574 25.5197C10.4726 26.1426 10.6803 26.9492 10.6803 27.9395C10.6803 28.9617 10.4726 29.7923 10.0574 30.4312C9.64208 31.0701 9.08306 31.5732 8.38028 31.9405C7.6775 32.3079 6.8789 32.5635 5.98445 32.7072Z" fill="#BCC6F7"/>
<path opacity="0.3" d="M34.3103 56.0654C33.0085 54.7636 33.0085 52.6531 34.3103 51.3513C35.612 50.0496 37.7226 50.0496 39.0243 51.3513L52.3577 64.6846C53.6594 65.9864 53.6594 68.0969 52.3577 69.3987C51.0559 70.7004 48.9454 70.7004 47.6436 69.3987L34.3103 56.0654Z" fill="#D8E8F5"/>
<path fill-rule="evenodd" clip-rule="evenodd" d="M0 37.0418C0 49.9285 10.4467 60.3752 23.3333 60.3752C36.22 60.3752 46.6667 49.9285 46.6667 37.0418C46.6667 24.1552 36.22 13.7085 23.3333 13.7085C10.4467 13.7085 0 24.1552 0 37.0418ZM40 37.0418C40 46.2466 32.5381 53.7085 23.3334 53.7085C14.1286 53.7085 6.66668 46.2466 6.66668 37.0418C6.66668 27.8371 14.1286 20.3752 23.3334 20.3752C32.5381 20.3752 40 27.8371 40 37.0418Z" fill="white"/>
</g>
<defs>
<clipPath id="clip0">
<rect width="80" height="80" fill="white" transform="translate(0 0.375)"/>
</clipPath>
</defs>
</svg>
