<svg width="46" height="46" viewBox="0 0 46 46" fill="none" xmlns="http://www.w3.org/2000/svg">
<circle r="22.5" transform="matrix(-1 0 0 1 23 23)" fill="white" stroke="#BDE3FE"/>
<path d="M31.6681 20.2912V19.6989C31.6681 18.7416 30.8923 17.9655 29.935 17.9655H27.1759C26.9143 17.231 26.3371 16.6527 25.6016 16.3912V15.7989C25.6016 14.8416 24.8255 14.0655 23.8681 14.0655H17.6424C17.2836 13.0582 16.3323 12.332 15.2016 12.332C13.7661 12.332 12.6016 13.4966 12.6016 14.932C12.6016 16.3683 13.7661 17.532 15.2016 17.532C16.3323 17.532 17.2844 16.8059 17.6424 15.7986H23.8681V16.3909C23.1336 16.6525 22.5554 17.2304 22.2938 17.9652H20.835C19.8777 17.9652 19.1016 18.7413 19.1016 19.6986V21.8652H17.6424C17.2836 20.8582 16.3323 20.132 15.2016 20.132C13.7661 20.132 12.6016 21.2966 12.6016 22.732C12.6016 24.168 13.7661 25.332 15.2016 25.332C16.3323 25.332 17.2844 24.6069 17.6424 23.5989H19.1016C20.0589 23.5989 20.835 22.8225 20.835 21.8655V19.6989H22.2938C22.6519 20.7066 23.604 21.432 24.735 21.432C25.8657 21.432 26.8178 20.7066 27.1759 19.6986H29.935V20.2909C28.9277 20.65 28.2016 21.6021 28.2016 22.732C28.2016 23.863 28.9277 24.8152 29.935 25.1732V25.7652H27.1759C26.8178 24.7582 25.8657 24.032 24.735 24.032C23.2995 24.032 22.135 25.1966 22.135 26.632C22.135 27.7636 22.8612 28.7152 23.8681 29.0732V29.6652H17.6424C17.2836 28.6582 16.3323 27.932 15.2016 27.932C13.7661 27.932 12.6016 29.0966 12.6016 30.532C12.6016 31.9691 13.7661 33.132 15.2016 33.132C16.3323 33.132 17.2844 32.4066 17.6424 31.3986H23.8681C24.8255 31.3986 25.6016 30.6228 25.6016 29.6652V29.0732C26.3371 28.8116 26.9143 28.2342 27.1759 27.4989H29.935C30.8923 27.4989 31.6681 26.7225 31.6681 25.7652V25.1732C32.6762 24.8152 33.4016 23.863 33.4016 22.732C33.4016 21.6021 32.6762 20.65 31.6681 20.2912ZM15.2016 15.7986C14.7242 15.7986 14.335 15.4091 14.335 14.932C14.335 14.4549 14.7242 14.0655 15.2016 14.0655C15.6789 14.0655 16.0681 14.4549 16.0681 14.932C16.0681 15.4091 15.6789 15.7986 15.2016 15.7986ZM15.2016 23.5989C14.7242 23.5989 14.335 23.2094 14.335 22.732C14.335 22.2547 14.7242 21.8655 15.2016 21.8655C15.6789 21.8655 16.0681 22.2549 16.0681 22.732C16.0681 23.2091 15.6789 23.5989 15.2016 23.5989ZM24.735 19.6986C24.2566 19.6986 23.8681 19.3091 23.8681 18.832C23.8681 18.3549 24.2566 17.9655 24.735 17.9655C25.2131 17.9655 25.6016 18.3547 25.6016 18.832C25.6016 19.3094 25.2131 19.6986 24.735 19.6986ZM15.2016 31.3986C14.7242 31.3986 14.335 31.0102 14.335 30.532C14.335 30.0536 14.7242 29.6652 15.2016 29.6652C15.6789 29.6652 16.0681 30.0536 16.0681 30.532C16.0681 31.0102 15.6789 31.3986 15.2016 31.3986ZM24.735 27.4989C24.2566 27.4989 23.8681 27.1104 23.8681 26.632C23.8681 26.1536 24.2566 25.7652 24.735 25.7652C25.2131 25.7652 25.6016 26.1536 25.6016 26.632C25.6016 27.1104 25.2131 27.4989 24.735 27.4989ZM30.8016 23.5989C30.3234 23.5989 29.935 23.2094 29.935 22.732C29.935 22.2547 30.3234 21.8655 30.8016 21.8655C31.2797 21.8655 31.6681 22.2549 31.6681 22.732C31.6681 23.2091 31.2797 23.5989 30.8016 23.5989Z" fill="#1F40E5"/>
</svg>
