<svg width="48" height="48" viewBox="0 0 48 48" fill="none" xmlns="http://www.w3.org/2000/svg">
<rect width="48" height="48" fill="white"/>
<path opacity="0.3" fill-rule="evenodd" clip-rule="evenodd" d="M45 13H41.3478C39.1387 13 37.3478 14.7909 37.3478 17V21C37.3478 22.1046 36.4524 23 35.3478 23H22.7391C21.6346 23 20.7391 22.1046 20.7391 21V17C20.7391 14.7909 18.9483 13 16.7391 13H13V9C13 5.68629 15.6863 3 19 3H39C42.3137 3 45 5.68629 45 9V13Z" fill="#1F40E5"/>
<path fill-rule="evenodd" clip-rule="evenodd" d="M41.164 39.9263C41.4401 40.4046 41.2762 41.0162 40.798 41.2923L39.0659 42.2923C38.5876 42.5685 37.976 42.4046 37.6999 41.9263L32.6999 33.266C32.4237 32.7877 32.5876 32.1762 33.0659 31.9L34.798 30.9C35.2762 30.6239 35.8878 30.7877 36.164 31.266L41.164 39.9263ZM16.8199 39.987C16.5438 40.4653 16.7077 41.0769 17.186 41.353L18.918 42.353C19.3963 42.6291 20.0079 42.4653 20.284 41.987L25.284 33.3267C25.5602 32.8484 25.3963 32.2368 24.918 31.9607L23.186 30.9607C22.7077 30.6846 22.0961 30.8484 21.8199 31.3267L16.8199 39.987Z" fill="#1F40E5"/>
<path fill-rule="evenodd" clip-rule="evenodd" d="M45 17V27C45 30.3137 42.3137 33 39 33H19C15.6863 33 13 30.3137 13 27V17H16.7391V21C16.7391 24.3137 19.4254 27 22.7391 27H35.3478C38.6615 27 41.3478 24.3137 41.3478 21V17H45Z" fill="#1F40E5"/>
<path fill-rule="evenodd" clip-rule="evenodd" d="M13.5 46.1665C6.59644 46.1665 1 40.5701 1 33.6665C1 26.7629 6.59644 21.1665 13.5 21.1665C20.4036 21.1665 26 26.7629 26 33.6665C26 40.5701 20.4036 46.1665 13.5 46.1665Z" fill="white"/>
<path fill-rule="evenodd" clip-rule="evenodd" d="M12 39C11.5833 39 11.1667 38.8333 10.8333 38.5L7.5 35.1667C6.83333 34.5 6.83333 33.5 7.5 32.8333C8.16667 32.1667 9.25 32.1667 9.83333 32.8333L12 35L17.5 29.5C18.1667 28.8333 19.1667 28.8333 19.8333 29.5C20.5 30.1667 20.5 31.1667 19.8333 31.8333L13.1667 38.5C12.8333 38.8333 12.4167 39 12 39Z" fill="#BCC6F7"/>
</svg>
