<svg width="46" height="46" viewBox="0 0 46 46" fill="none" xmlns="http://www.w3.org/2000/svg">
<circle r="22.5" transform="matrix(-1 0 0 1 23 23)" fill="white" stroke="#BDE3FE"/>
<path d="M18.6664 24.7332H16.0664V26.4668H18.6664V24.7332Z" fill="black"/>
<path d="M29.9334 16.0667H23V17.8001H29.9334V16.0667Z" fill="#1F40E5"/>
<path d="M29.9334 19.5334H23V21.2669H29.9334V19.5334Z" fill="#1F40E5"/>
<path d="M31.6662 12.6001H21.2662C20.3133 12.6001 19.533 13.3804 19.533 14.3335V17.8001H14.333C13.3799 17.8001 12.5996 18.5804 12.5996 19.5335V28.2001C12.5996 29.1533 13.3799 29.9333 14.333 29.9333V33.4001L17.7996 29.9333H24.733C25.6859 29.9333 26.4662 29.1533 26.4662 28.2001V24.7333H28.1996L31.6662 28.2001V24.7333C32.6193 24.7333 33.3996 23.9533 33.3996 23.0001V14.3335C33.3996 13.3804 32.6193 12.6001 31.6662 12.6001ZM24.733 28.2001H14.333V19.5335H19.533V21.2669H16.0662V23.0001H19.533C19.533 23.9533 20.3133 24.7333 21.2662 24.7333H24.733V28.2001ZM31.6662 23.0001H21.2662V14.3335H31.6662V23.0001Z" fill="#1F40E5"/>
</svg>
