<svg width="46" height="46" viewBox="0 0 46 46" fill="none" xmlns="http://www.w3.org/2000/svg">
<circle r="22.5" transform="matrix(-1 0 0 1 23 23)" fill="white" stroke="#BDE3FE"/>
<path d="M23.0004 20.5334C21.5649 20.5334 20.4004 22.0856 20.4004 24C20.4004 25.9126 21.5649 27.4666 23.0004 27.4666C24.4358 27.4666 25.6004 25.9126 25.6004 24C25.6004 22.0856 24.4358 20.5334 23.0004 20.5334ZM23.0004 25.7334C22.5212 25.7334 22.1338 24.9566 22.1338 24C22.1338 23.0419 22.5212 22.2666 23.0004 22.2666C23.4785 22.2666 23.867 23.0419 23.867 24C23.867 24.9566 23.4785 25.7334 23.0004 25.7334Z" fill="black"/>
<path d="M12.5996 17.9333V30.0665H33.3996V17.9333H12.5996ZM14.333 19.6665H16.0662C16.0662 20.623 15.2903 21.3999 14.333 21.3999V19.6665ZM14.333 28.3333V26.5999C15.2903 26.5999 16.0662 27.375 16.0662 28.3333H14.333ZM31.6662 28.3333H29.933C29.933 27.375 30.7089 26.5999 31.6662 26.5999V28.3333ZM31.6662 24.8665C29.7518 24.8665 28.1996 26.419 28.1996 28.3333H17.7996C17.7996 26.419 16.2474 24.8665 14.333 24.8665V23.1333C16.2474 23.1333 17.7996 21.5809 17.7996 19.6665H28.1996C28.1996 21.5809 29.7518 23.1333 31.6662 23.1333V24.8665ZM31.6662 21.3999C30.7089 21.3999 29.933 20.623 29.933 19.6665H31.6662V21.3999Z" fill="#1F40E5"/>
</svg>
