<svg width="46" height="46" viewBox="0 0 46 46" fill="none" xmlns="http://www.w3.org/2000/svg">
<circle r="22.5" transform="matrix(-1 0 0 1 23 23)" fill="white" stroke="#BDE3FE"/>
<path d="M32.533 13.6001H25.5996C25.123 13.6001 24.733 13.9904 24.733 14.4667V19.6667C24.733 20.1433 25.123 20.5335 25.5996 20.5335H28.1996V26.6001H21.2662V24.8667C21.2662 24.3904 20.8762 24.0001 20.3996 24.0001H17.7996V20.5335H20.3996C20.8762 20.5335 21.2662 20.1433 21.2662 19.6667V14.4667C21.2662 13.9904 20.8762 13.6001 20.3996 13.6001H13.4662C12.9899 13.6001 12.5996 13.9904 12.5996 14.4667V19.6667C12.5996 20.1433 12.9899 20.5335 13.4662 20.5335H16.0662V24.0001H13.4662C12.9899 24.0001 12.5996 24.3904 12.5996 24.8667V30.0667C12.5996 30.5433 12.9899 30.9335 13.4662 30.9335H20.3996C20.8762 30.9335 21.2662 30.5433 21.2662 30.0667V28.3335H28.1996V34.4001H29.933V20.5335H32.533C33.0093 20.5335 33.3996 20.1433 33.3996 19.6667V14.4667C33.3996 13.9904 33.0093 13.6001 32.533 13.6001ZM14.333 18.8001V15.3335H19.533V18.8001H14.333ZM19.533 29.2001H14.333V25.7335H19.533V29.2001ZM31.6662 18.8001H26.4662V15.3335H31.6662V18.8001Z" fill="#1F40E5"/>
</svg>
