<svg width="46" height="46" viewBox="0 0 46 46" fill="none" xmlns="http://www.w3.org/2000/svg">
<circle r="22.5" transform="matrix(-1 0 0 1 23 23)" fill="white" stroke="#BDE3FE"/>
<path d="M31.6662 22.9996H29.933V16.9332C29.933 16.4551 29.5454 16.0667 29.0662 16.0667C28.588 16.0667 28.1996 16.4551 28.1996 16.9332V22.9996H17.7996V16.9332C17.7996 16.4551 17.4119 16.0667 16.933 16.0667C16.4546 16.0667 16.0662 16.4551 16.0662 16.9332V22.9996H14.333C13.3799 22.9996 12.5996 23.7798 12.5996 24.733V29.933C12.5996 30.8859 13.3799 31.6661 14.333 31.6661V33.3996H16.0662V31.6661H29.933V33.3996H31.6662V31.6661C32.6193 31.6661 33.3996 30.8859 33.3996 29.933V24.733C33.3996 23.7798 32.6193 22.9996 31.6662 22.9996ZM31.6662 29.933H14.333V24.733H31.6662V29.933Z" fill="#1F40E5"/>
<path d="M17.7998 26.4661H16.0664V28.1995H17.7998V26.4661Z" fill="#1F40E5"/>
<path d="M29.9332 26.4661H19.5332V28.1995H29.9332V26.4661Z" fill="#1F40E5"/>
<path d="M24.7344 14.3939L25.9598 15.617C27.6729 13.9049 30.4609 13.9049 32.1753 15.6177L33.401 14.3957C31.0066 12.0022 27.1269 12.0022 24.7344 14.3939Z" fill="#1F40E5"/>
<path d="M12.5996 14.3939L13.8252 15.617C15.5381 13.9049 18.3261 13.9049 20.0408 15.6177L21.2662 14.3957C18.8718 12.0022 14.9921 12.0022 12.5996 14.3939Z" fill="#1F40E5"/>
</svg>
