<svg width="46" height="46" viewBox="0 0 46 46" fill="none" xmlns="http://www.w3.org/2000/svg">
<circle r="22.5" transform="matrix(-1 0 0 1 23 23)" fill="white" stroke="#BDE3FE"/>
<path d="M29.0658 17.8001C29.5444 17.8001 29.9324 17.4121 29.9324 16.9335C29.9324 16.4549 29.5444 16.0669 29.0658 16.0669C28.5872 16.0669 28.1992 16.4549 28.1992 16.9335C28.1992 17.4121 28.5872 17.8001 29.0658 17.8001Z" fill="#1F40E5"/>
<path d="M26.0326 17.8001C26.5112 17.8001 26.8992 17.4121 26.8992 16.9335C26.8992 16.4549 26.5112 16.0669 26.0326 16.0669C25.554 16.0669 25.166 16.4549 25.166 16.9335C25.166 17.4121 25.554 17.8001 26.0326 17.8001Z" fill="#1F40E5"/>
<path d="M22.9994 17.8001C23.478 17.8001 23.866 17.4121 23.866 16.9335C23.866 16.4549 23.478 16.0669 22.9994 16.0669C22.5208 16.0669 22.1328 16.4549 22.1328 16.9335C22.1328 17.4121 22.5208 17.8001 22.9994 17.8001Z" fill="#1F40E5"/>
<path d="M31.6662 12.6001H14.333C13.3799 12.6001 12.5996 13.3804 12.5996 14.3335V20.4001C12.5996 21.3538 13.3799 22.1335 14.333 22.1335H31.6662C32.6193 22.1335 33.3996 21.3538 33.3996 20.4001V14.3335C33.3996 13.3804 32.6193 12.6001 31.6662 12.6001ZM31.6662 20.4001H20.833V16.0667H19.0996V20.4001H17.7996V16.0667H16.0662V20.4001H14.333V14.3335H31.6662V20.4001Z" fill="#1F40E5"/>
<path d="M29.0658 29.0667C29.5444 29.0667 29.9324 28.6787 29.9324 28.2001C29.9324 27.7215 29.5444 27.3335 29.0658 27.3335C28.5872 27.3335 28.1992 27.7215 28.1992 28.2001C28.1992 28.6787 28.5872 29.0667 29.0658 29.0667Z" fill="#1F40E5"/>
<path d="M26.0326 29.0667C26.5112 29.0667 26.8992 28.6787 26.8992 28.2001C26.8992 27.7215 26.5112 27.3335 26.0326 27.3335C25.554 27.3335 25.166 27.7215 25.166 28.2001C25.166 28.6787 25.554 29.0667 26.0326 29.0667Z" fill="#1F40E5"/>
<path d="M22.9994 29.0667C23.478 29.0667 23.866 28.6787 23.866 28.2001C23.866 27.7215 23.478 27.3335 22.9994 27.3335C22.5208 27.3335 22.1328 27.7215 22.1328 28.2001C22.1328 28.6787 22.5208 29.0667 22.9994 29.0667Z" fill="#1F40E5"/>
<path d="M31.6662 23.8665H14.333C13.3799 23.8665 12.5996 24.6467 12.5996 25.5999V31.6665C12.5996 32.6196 13.3799 33.3999 14.333 33.3999H31.6662C32.6193 33.3999 33.3996 32.6196 33.3996 31.6665V25.5999C33.3996 24.6467 32.6193 23.8665 31.6662 23.8665ZM31.6662 31.6665H20.833V27.333H19.0996V31.6665H17.7996V27.333H16.0662V31.6665H14.333V25.5999H31.6662V31.6665Z" fill="#1F40E5"/>
</svg>
