<svg width="46" height="46" viewBox="0 0 46 46" fill="none" xmlns="http://www.w3.org/2000/svg">
<circle r="22.5" transform="matrix(-1 0 0 1 23 23)" fill="white" stroke="#BDE3FE"/>
<path d="M33.6378 28.9619L28.4326 23.7554C28.9196 22.7378 29.1996 21.6026 29.1996 20.4001C29.1996 16.0922 25.7075 12.6001 21.3996 12.6001C17.0917 12.6001 13.5996 16.0922 13.5996 20.4001C13.5996 24.7078 17.0917 28.2001 21.3996 28.2001C22.6031 28.2001 23.7373 27.9193 24.7554 27.4334L29.9614 32.6383C30.9762 33.6539 32.623 33.6539 33.6381 32.6383C34.6536 31.6227 34.6536 29.9759 33.6378 28.9619ZM15.333 20.4001C15.333 17.0495 18.0487 14.3335 21.3996 14.3335C24.7505 14.3335 27.4662 17.0495 27.4662 20.4001C27.4662 22.0519 26.8045 23.5474 25.733 24.6417V17.8001H23.9996V25.8754C23.4606 26.1318 22.879 26.3102 22.2662 26.3986V16.0667H20.533V26.3983C19.9202 26.3099 19.3386 26.1318 18.7996 25.8752V19.5335H17.0662V24.642C15.9947 23.5474 15.333 22.0519 15.333 20.4001ZM32.4122 31.4129C32.0744 31.7512 31.5245 31.7512 31.1868 31.4129L26.265 26.4901C26.7169 26.1279 27.1282 25.7166 27.4906 25.2647L32.4122 30.187C32.7509 30.5242 32.7509 31.0744 32.4122 31.4129Z" fill="#1F40E5"/>
</svg>
