<svg width="46" height="46" viewBox="0 0 46 46" fill="none" xmlns="http://www.w3.org/2000/svg">
<circle r="22.5" transform="matrix(-1 0 0 1 23 23)" fill="white" stroke="#BDE3FE"/>
<path d="M31.6662 20.5592V19.9669C31.6662 19.0096 30.8903 18.2335 29.933 18.2335H27.1739C26.9123 17.499 26.3351 16.9208 25.5996 16.6592V16.0669C25.5996 15.1096 24.8235 14.3335 23.8662 14.3335H17.6405C17.2817 13.3263 16.3303 12.6001 15.1996 12.6001C13.7641 12.6001 12.5996 13.7646 12.5996 15.2001C12.5996 16.6363 13.7641 17.8001 15.1996 17.8001C16.3303 17.8001 17.2825 17.0739 17.6405 16.0667H23.8662V16.659C23.1317 16.9205 22.5534 17.4985 22.2919 18.2333H20.833C19.8757 18.2333 19.0996 19.0094 19.0996 19.9667V22.1333H17.6405C17.2817 21.1263 16.3303 20.4001 15.1996 20.4001C13.7641 20.4001 12.5996 21.5646 12.5996 23.0001C12.5996 24.4361 13.7641 25.6001 15.1996 25.6001C16.3303 25.6001 17.2825 24.875 17.6405 23.8669H19.0996C20.0569 23.8669 20.833 23.0906 20.833 22.1335V19.9669H22.2919C22.6499 20.9747 23.602 21.7001 24.733 21.7001C25.8638 21.7001 26.8159 20.9747 27.1739 19.9667H29.933V20.559C28.9258 20.918 28.1996 21.8701 28.1996 23.0001C28.1996 24.1311 28.9258 25.0832 29.933 25.4412V26.0333H27.1739C26.8159 25.0263 25.8638 24.3001 24.733 24.3001C23.2976 24.3001 22.133 25.4646 22.133 26.9001C22.133 28.0316 22.8592 28.9832 23.8662 29.3412V29.9333H17.6405C17.2817 28.9263 16.3303 28.2001 15.1996 28.2001C13.7641 28.2001 12.5996 29.3646 12.5996 30.8001C12.5996 32.2371 13.7641 33.4001 15.1996 33.4001C16.3303 33.4001 17.2825 32.6747 17.6405 31.6667H23.8662C24.8235 31.6667 25.5996 30.8908 25.5996 29.9333V29.3412C26.3351 29.0797 26.9123 28.5022 27.1739 27.7669H29.933C30.8903 27.7669 31.6662 26.9906 31.6662 26.0333V25.4412C32.6742 25.0832 33.3996 24.1311 33.3996 23.0001C33.3996 21.8701 32.6742 20.918 31.6662 20.5592ZM15.1996 16.0667C14.7222 16.0667 14.333 15.6772 14.333 15.2001C14.333 14.723 14.7222 14.3335 15.1996 14.3335C15.677 14.3335 16.0662 14.723 16.0662 15.2001C16.0662 15.6772 15.677 16.0667 15.1996 16.0667ZM15.1996 23.8669C14.7222 23.8669 14.333 23.4775 14.333 23.0001C14.333 22.5227 14.7222 22.1335 15.1996 22.1335C15.677 22.1335 16.0662 22.523 16.0662 23.0001C16.0662 23.4772 15.677 23.8669 15.1996 23.8669ZM24.733 19.9667C24.2546 19.9667 23.8662 19.5772 23.8662 19.1001C23.8662 18.623 24.2546 18.2335 24.733 18.2335C25.2112 18.2335 25.5996 18.6227 25.5996 19.1001C25.5996 19.5775 25.2112 19.9667 24.733 19.9667ZM15.1996 31.6667C14.7222 31.6667 14.333 31.2782 14.333 30.8001C14.333 30.3217 14.7222 29.9333 15.1996 29.9333C15.677 29.9333 16.0662 30.3217 16.0662 30.8001C16.0662 31.2782 15.677 31.6667 15.1996 31.6667ZM24.733 27.7669C24.2546 27.7669 23.8662 27.3785 23.8662 26.9001C23.8662 26.4217 24.2546 26.0333 24.733 26.0333C25.2112 26.0333 25.5996 26.4217 25.5996 26.9001C25.5996 27.3785 25.2112 27.7669 24.733 27.7669ZM30.7996 23.8669C30.3215 23.8669 29.933 23.4775 29.933 23.0001C29.933 22.5227 30.3215 22.1335 30.7996 22.1335C31.2777 22.1335 31.6662 22.523 31.6662 23.0001C31.6662 23.4772 31.2777 23.8669 30.7996 23.8669Z" fill="#1F40E5"/>
</svg>
