<svg width="46" height="46" viewBox="0 0 46 46" fill="none" xmlns="http://www.w3.org/2000/svg">
<circle r="22.5" transform="matrix(-1 0 0 1 23 23)" fill="white" stroke="#BDE3FE"/>
<path d="M33.6378 21.5229L30.7814 18.6665H25.733V15.2H13.5996V29.0665H16.3587C16.7167 30.0746 17.6689 30.8 18.7996 30.8C19.9303 30.8 20.8825 30.0746 21.2405 29.0665H26.759C27.1167 30.0746 28.0689 30.8 29.1996 30.8C30.3303 30.8 31.2825 30.0746 31.6405 29.0665H34.3996V23.3614C34.3996 22.6438 34.1084 21.9938 33.6378 21.5229ZM25.733 20.4H30.0636L31.797 22.1334H25.733V20.4ZM18.7996 29.0665C18.3204 29.0665 17.933 28.6791 17.933 28.2C17.933 27.7218 18.3204 27.3334 18.7996 27.3334C19.2788 27.3334 19.6662 27.7218 19.6662 28.2C19.6662 28.6791 19.2788 29.0665 18.7996 29.0665ZM23.9996 27.3334H21.2405C20.8817 26.3261 19.9303 25.6 18.7996 25.6C17.6689 25.6 16.7175 26.3261 16.3587 27.3334H15.333V16.9334H23.9996V27.3334ZM29.1996 29.0665C28.7204 29.0665 28.333 28.6791 28.333 28.2C28.333 27.7218 28.7204 27.3334 29.1996 27.3334C29.6788 27.3334 30.0662 27.7218 30.0662 28.2C30.0662 28.6791 29.6788 29.0665 29.1996 29.0665ZM32.6662 27.3334H31.6405C31.2825 26.3261 30.3303 25.6 29.1996 25.6C28.0689 25.6 27.1167 26.3261 26.7587 27.3334H25.733V23.8665H32.6662V27.3334Z" fill="#1F40E5"/>
</svg>
