<svg width="46" height="46" viewBox="0 0 46 46" fill="none" xmlns="http://www.w3.org/2000/svg">
<circle r="22.5" transform="matrix(-1 0 0 1 23 23)" fill="white" stroke="#BDE3FE"/>
<path d="M23 19.5335C23.9574 19.5335 24.7334 18.7574 24.7334 17.8001C24.7334 16.8427 23.9574 16.0667 23 16.0667C22.0427 16.0667 21.2666 16.8427 21.2666 17.8001C21.2666 18.7574 22.0427 19.5335 23 19.5335Z" fill="#1F40E5"/>
<path d="M31.6662 12.6001H14.333C13.3799 12.6001 12.5996 13.3804 12.5996 14.3335V23.8669C12.5996 24.8196 13.3799 25.6001 14.333 25.6001H31.6662C32.6193 25.6001 33.3996 24.8196 33.3996 23.8669V14.3335C33.3996 13.3804 32.6193 12.6001 31.6662 12.6001ZM31.6662 23.8669H26.4662C26.4662 22.4315 25.3032 21.2669 23.8662 21.2669L22.133 21.2677C20.6976 21.2677 19.533 22.4315 19.533 23.8672H14.333V14.3335H31.6662V23.8669Z" fill="#1F40E5"/>
<path d="M23.0002 29.9323C23.7182 29.9323 24.3002 29.3502 24.3002 28.6323C24.3002 27.9143 23.7182 27.3323 23.0002 27.3323C22.2822 27.3323 21.7002 27.9143 21.7002 28.6323C21.7002 29.3502 22.2822 29.9323 23.0002 29.9323Z" fill="#1F40E5"/>
<path d="M26.0336 33.3993L19.9668 33.4V32.9666C19.9668 32.0093 20.7429 31.2335 21.7002 31.2335L24.3002 31.2324C25.2575 31.2324 26.0336 32.0085 26.0336 32.9658V33.3993Z" fill="#1F40E5"/>
<path d="M15.633 29.9323C16.351 29.9323 16.933 29.3502 16.933 28.6323C16.933 27.9143 16.351 27.3323 15.633 27.3323C14.915 27.3323 14.333 27.9143 14.333 28.6323C14.333 29.3502 14.915 29.9323 15.633 29.9323Z" fill="#1F40E5"/>
<path d="M18.6662 33.3993L12.5996 33.4V32.9666C12.5996 32.0093 13.3757 31.2335 14.333 31.2335L16.933 31.2324C17.8903 31.2324 18.6662 32.0085 18.6662 32.9658V33.3993Z" fill="#1F40E5"/>
<path d="M30.3664 29.9323C31.0844 29.9323 31.6664 29.3502 31.6664 28.6323C31.6664 27.9143 31.0844 27.3323 30.3664 27.3323C29.6484 27.3323 29.0664 27.9143 29.0664 28.6323C29.0664 29.3502 29.6484 29.9323 30.3664 29.9323Z" fill="#1F40E5"/>
<path d="M33.3996 33.3993L27.333 33.4V32.9666C27.333 32.0093 28.1088 31.2335 29.0662 31.2335L31.6662 31.2324C32.6235 31.2324 33.3996 32.0085 33.3996 32.9658V33.3993Z" fill="#1F40E5"/>
</svg>
