<svg width="48" height="48" viewBox="0 0 48 48" fill="none" xmlns="http://www.w3.org/2000/svg">
<rect width="48" height="48" fill="white"/>
<path opacity="0.3" fill-rule="evenodd" clip-rule="evenodd" d="M15 19C12.2386 19 10 16.7614 10 14C10 11.2386 12.2386 9 15 9C17.7614 9 20 11.2386 20 14C20 16.7614 17.7614 19 15 19Z" fill="#1F40E5"/>
<path opacity="0.3" fill-rule="evenodd" clip-rule="evenodd" d="M2.00094 33.6987C2.56082 25.9431 8.1561 22 14.9759 22C21.8918 22 27.5737 25.7264 27.997 33.7C28.0138 34.0176 27.997 35 26.9119 35C21.5594 35 13.6057 35 3.05084 35C2.68858 35 1.97044 34.1212 2.00094 33.6987Z" fill="#1F40E5"/>
<path opacity="0.3" d="M34.5858 34.4142C33.8047 33.6332 33.8047 32.3668 34.5858 31.5858C35.3668 30.8047 36.6332 30.8047 37.4142 31.5858L45.4142 39.5858C46.1953 40.3668 46.1953 41.6332 45.4142 42.4142C44.6332 43.1953 43.3668 43.1953 42.5858 42.4142L34.5858 34.4142Z" fill="#1F40E5"/>
<path fill-rule="evenodd" clip-rule="evenodd" d="M14 23C14 30.732 20.268 37 28 37C35.732 37 42 30.732 42 23C42 15.268 35.732 9 28 9C20.268 9 14 15.268 14 23ZM38 23C38 28.5228 33.5228 33 28 33C22.4772 33 18 28.5228 18 23C18 17.4772 22.4772 13 28 13C33.5228 13 38 17.4772 38 23Z" fill="#1F40E5"/>
</svg>
