<svg width="48" height="48" viewBox="0 0 48 48" fill="none" xmlns="http://www.w3.org/2000/svg">
<path opacity="0.3" fill-rule="evenodd" clip-rule="evenodd" d="M19.7573 25.4142L15.5146 29.6568C14.7336 30.4379 14.7336 31.7042 15.5146 32.4852C16.2957 33.2663 17.562 33.2663 18.3431 32.4852L22.5857 28.2426L23.9999 29.6568C25.562 31.2189 25.562 33.7516 23.9999 35.3137L18.3431 40.9705C16.781 42.5326 14.2483 42.5326 12.6862 40.9705L7.02936 35.3137C5.46726 33.7516 5.46726 31.2189 7.02936 29.6568L12.6862 23.9999C14.2483 22.4378 16.781 22.4378 18.3431 23.9999L19.7573 25.4142Z" fill="#1F40E5"/>
<path fill-rule="evenodd" clip-rule="evenodd" d="M28.2427 22.5858L32.4853 18.3432C33.2664 17.5621 33.2664 16.2958 32.4853 15.5148C31.7043 14.7337 30.438 14.7337 29.6569 15.5148L25.4143 19.7574L24.0001 18.3432C22.438 16.7811 22.438 14.2484 24.0001 12.6863L29.6569 7.02949C31.219 5.46739 33.7517 5.46739 35.3138 7.02949L40.9706 12.6863C42.5327 14.2484 42.5327 16.7811 40.9706 18.3432L35.3138 24.0001C33.7517 25.5621 31.219 25.5621 29.6569 24.0001L28.2427 22.5858Z" fill="#1F40E5"/>
<path opacity="0.3" fill-rule="evenodd" clip-rule="evenodd" d="M7.7365 10.5649C7.34598 10.1744 7.34598 9.54123 7.7365 9.1507L9.15072 7.73649C9.54124 7.34597 10.1744 7.34597 10.5649 7.73649L14.8076 11.9791C15.1981 12.3697 15.1981 13.0028 14.8076 13.3933L13.3934 14.8076C13.0028 15.1981 12.3697 15.1981 11.9791 14.8076L7.7365 10.5649ZM16.6863 4.02938C16.6863 3.4771 17.134 3.02938 17.6863 3.02938L19.6863 3.02938C20.2385 3.02938 20.6863 3.4771 20.6863 4.02938L20.6863 10.0294C20.6863 10.5817 20.2385 11.0294 19.6863 11.0294L17.6863 11.0294C17.134 11.0294 16.6863 10.5817 16.6863 10.0294L16.6863 4.02938ZM3.37254 17.3431C3.37254 16.7908 3.82025 16.3431 4.37254 16.3431H10.3725C10.9248 16.3431 11.3725 16.7908 11.3725 17.3431L11.3725 19.3431C11.3725 19.8954 10.9248 20.3431 10.3725 20.3431L4.37254 20.3431C3.82025 20.3431 3.37254 19.8954 3.37254 19.3431L3.37254 17.3431Z" fill="#1F40E5"/>
<path opacity="0.3" fill-rule="evenodd" clip-rule="evenodd" d="M37.1924 40.0208C37.5829 40.4114 38.2161 40.4114 38.6066 40.0208L40.0208 38.6066C40.4113 38.2161 40.4113 37.5829 40.0208 37.1924L35.7782 32.9498C35.3877 32.5592 34.7545 32.5592 34.364 32.9498L32.9498 34.364C32.5592 34.7545 32.5592 35.3877 32.9498 35.7782L37.1924 40.0208ZM43.728 31.0711C44.2802 31.0711 44.728 30.6234 44.728 30.0711L44.728 28.0711C44.728 27.5188 44.2802 27.0711 43.728 27.0711L37.728 27.0711C37.1757 27.0711 36.728 27.5188 36.728 28.0711V30.0711C36.728 30.6234 37.1757 31.0711 37.728 31.0711L43.728 31.0711ZM30.4142 44.3848C30.9665 44.3848 31.4142 43.9371 31.4142 43.3848L31.4142 37.3848C31.4142 36.8325 30.9665 36.3848 30.4142 36.3848H28.4142C27.862 36.3848 27.4142 36.8325 27.4142 37.3848L27.4142 43.3848C27.4142 43.9371 27.862 44.3848 28.4142 44.3848H30.4142Z" fill="#1F40E5"/>
</svg>
