<svg width="48" height="48" viewBox="0 0 48 48" fill="none" xmlns="http://www.w3.org/2000/svg">
<rect width="48" height="48" fill="white"/>
<path opacity="0.3" fill-rule="evenodd" clip-rule="evenodd" d="M1.80902 33C1.43733 33 1.19558 32.6088 1.3618 32.2764L2.8618 29.2764C2.9465 29.107 3.11963 29 3.30902 29H24.191C24.5627 29 24.8044 29.3912 24.6382 29.7236L23.1382 32.7236C23.0535 32.893 22.8804 33 22.691 33H1.80902Z" fill="#1F40E5"/>
<path fill-rule="evenodd" clip-rule="evenodd" d="M7 6.43188H17.214C19.0847 6.43188 20.7713 6.60055 22.274 6.93788C23.7767 7.27522 25.0647 7.82721 26.138 8.59388C27.2113 9.36056 28.0393 10.3419 28.622 11.5379C29.2047 12.7339 29.496 14.1752 29.496 15.8619C29.496 17.6712 29.1587 19.1892 28.484 20.4159C27.8093 21.6426 26.897 22.6315 25.747 23.3829C24.597 24.1342 23.2553 24.6785 21.722 25.0159C20.1887 25.3532 18.5633 25.5219 16.846 25.5219H12.384V38.9999H7V6.43188ZM16.432 20.6459C17.3827 20.6459 18.2873 20.5769 19.146 20.4389C20.0047 20.3009 20.7713 20.0555 21.446 19.7029C22.1207 19.3502 22.6573 18.8672 23.056 18.2539C23.4547 17.6405 23.654 16.8432 23.654 15.8619C23.654 14.9112 23.4547 14.1369 23.056 13.5389C22.6573 12.9409 22.1284 12.4732 21.469 12.1359C20.8097 11.7985 20.0584 11.5762 19.215 11.4689C18.3717 11.3615 17.5054 11.3079 16.616 11.3079H12.384V20.6459H16.432Z" fill="#1F40E5"/>
<rect opacity="0.3" x="41" y="36" width="4" height="24" rx="1" transform="rotate(-180 41 36)" fill="#1F40E5"/>
<path d="M43.5858 30.5858C44.3668 29.8047 45.6332 29.8047 46.4142 30.5858C47.1953 31.3668 47.1953 32.6332 46.4142 33.4142L40.4142 39.4142C39.6332 40.1953 38.3668 40.1953 37.5858 39.4142L31.5858 33.4142C30.8047 32.6332 30.8047 31.3668 31.5858 30.5858C32.3668 29.8047 33.6332 29.8047 34.4142 30.5858L39 35.1716L43.5858 30.5858Z" fill="#1F40E5"/>
</svg>
