<svg width="48" height="48" viewBox="0 0 48 48" fill="none" xmlns="http://www.w3.org/2000/svg">
<path fill-rule="evenodd" clip-rule="evenodd" d="M23.3471 16.6615L29.9987 12.1995L28.2427 10.4436C27.4617 9.66252 27.4617 8.39619 28.2427 7.61514L31.0712 4.78671C31.8522 4.00567 33.1185 4.00567 33.8996 4.78671L45.2133 16.1004C45.9944 16.8815 45.9944 18.1478 45.2133 18.9289L42.3849 21.7573C41.6038 22.5383 40.3375 22.5383 39.5564 21.7573L37.8006 20.0014L33.3386 26.6531C33.8529 28.5046 33.9971 30.464 33.733 32.4184L32.869 38.8116C32.7211 39.9062 31.7138 40.6736 30.6192 40.5257C30.1852 40.4671 29.7825 40.2676 29.4728 39.9579L10.0421 20.5272C9.26104 19.7461 9.26104 18.4798 10.0421 17.6988C10.3517 17.3891 10.7545 17.1896 11.1885 17.131L17.5816 16.2671C19.5361 16.0029 21.4955 16.1471 23.3471 16.6615Z" fill="#1F40E5"/>
<path opacity="0.3" fill-rule="evenodd" clip-rule="evenodd" d="M17.636 28.1213L9.55477 36.2026L8.4436 41.5564L13.7974 40.4452L21.8786 32.364L17.636 28.1213Z" fill="#1F40E5"/>
</svg>
