<svg width="49" height="49" viewBox="0 0 49 49" fill="none" xmlns="http://www.w3.org/2000/svg">
<path fill-rule="evenodd" clip-rule="evenodd" d="M33.0955 16.305C32.3398 15.6425 31.2531 15.6577 30.6296 15.85C31.038 15.3487 31.9896 14.9373 32.2696 14.8875C32.483 14.9675 33.0955 15.5967 33.0955 16.305ZM35.5081 13.5617C35.0111 10.9033 28.8335 12.665 25.7223 11.5358C25.6628 12.3108 26.6801 13.5525 27.6533 14.0118C25.99 15.4557 24.4966 18.3645 24.195 21.9182C23.8946 18.3645 22.4011 15.4557 20.7378 14.012C21.7108 13.5527 22.7291 12.311 22.6686 11.5362C19.5576 12.6653 13.3798 10.9038 12.882 13.5622C12.7773 14.125 13.048 14.9822 13.3403 15.2288C13.3926 15.0505 13.6658 14.4672 14.527 14.3365C18.8793 13.6788 22.5131 20.3868 19.233 23.099C19.183 23.1407 19.2113 23.2165 19.2788 23.2165H29.1131C29.1798 23.2165 29.2081 23.1405 29.1588 23.0992C25.8778 20.3872 29.5116 13.6792 33.8641 14.3368C34.7258 14.4675 34.9983 15.0507 35.0508 15.229C35.3431 14.9823 35.6138 14.1252 35.5083 13.5623L35.5081 13.5617ZM36.5668 7.46083C36.4885 7.20967 39.0406 7.20333 39.0406 8.80083C39.0406 9.87117 37.514 10.3782 37.514 11.4892C37.514 12.0065 38.0706 12.3858 38.2415 12.3858C37.8481 10.6025 39.474 11.5358 39.9131 11.8692C39.0406 9.47083 41.0045 9.48583 40.8111 8.38617C40.6766 7.61783 38.9695 7.84983 38.3518 7.46083C37.2555 6.77083 35.9585 4.08533 35.1038 6.77083C36.6971 8.25 35.77 10.4275 33.7471 10.4275C33.7471 10.4275 33.736 10.7467 33.7545 10.772C36.1671 10.654 37.0081 8.88067 36.5668 7.46083ZM8.41897 11.8692C8.85797 11.5358 10.4836 10.6025 10.0913 12.3858C10.2613 12.3858 10.818 12.0065 10.818 11.4892C10.818 10.3782 9.29131 9.87117 9.29131 8.80083C9.29131 7.20333 11.8433 7.20967 11.7651 7.46083C11.3245 8.88083 12.1655 10.6542 14.5781 10.772C14.596 10.7467 14.5848 10.4273 14.5848 10.4273C12.5628 10.4273 11.6356 8.25 13.2281 6.77067C12.3735 4.08533 11.0765 6.77067 9.98014 7.46067C9.36231 7.84983 7.65514 7.61767 7.52081 8.38617C7.32831 9.48617 9.29147 9.47117 8.41914 11.8695L8.41897 11.8692ZM15.2695 16.305C16.0258 15.6425 17.1128 15.6577 17.7353 15.85C17.3286 15.3487 16.3753 14.9373 16.096 14.8875C15.8826 14.9675 15.2693 15.5967 15.2693 16.305H15.2695ZM25.3428 1.435L24.1661 0L22.9891 1.435L24.1658 2.945L25.343 1.435H25.3428ZM32.0611 5.77383L31.2245 4.75417L30.3881 5.77383L31.2243 6.7705L32.0613 5.77383H32.0611ZM38.8495 35.2508L37.7888 34.1282L36.7278 35.2507L37.7888 36.2357L38.8496 35.2507L38.8495 35.2508ZM17.9445 5.77383L17.1078 4.75417L16.2716 5.77383L17.108 6.7705L17.9446 5.77383H17.9445ZM15.5473 10.7722H18.669C21.2935 10.7722 22.4743 9.16117 22.8311 7.76417H25.5016C25.8586 9.16117 27.0388 10.772 29.6641 10.772H32.7858C32.7858 10.772 33.3318 10.0312 33.4688 9.66433C33.9618 8.34433 33.3318 7.7285 32.4126 7.7285L31.2243 8.8055L30.0363 7.72883C29.1171 7.72883 28.4871 8.34433 28.9801 9.6645C29.0431 9.83317 29.1938 10.0812 29.3365 10.2992C28.2288 10.147 26.8148 9.38867 26.5048 7.76417C26.5048 7.76417 27.3231 6.46417 27.5288 5.938C28.2666 4.04583 27.3241 3.2725 25.9458 3.2725L24.1663 5.36417L22.3868 3.2725C21.0085 3.2725 20.0661 4.04583 20.8048 5.938C21.0093 6.46417 21.8286 7.76433 21.8286 7.76433C21.5178 9.38867 20.1041 10.147 18.9965 10.2993C19.1398 10.081 19.2898 9.83317 19.3525 9.66433C19.8446 8.34433 19.2163 7.72867 18.2965 7.72867L17.1081 8.80567L15.9198 7.729C15.0001 7.729 14.3718 8.3445 14.864 9.66467C15.001 10.0313 15.5478 10.7723 15.5478 10.7723L15.5473 10.7722ZM47.8203 20.4482C47.2178 20.7532 43.683 22.409 39.155 21.7965C39.2019 21.5805 39.2417 21.3631 39.2743 21.1445C42.288 20.784 44.7376 20.2728 46.2988 19.4045C48.0783 18.414 48.8565 16.0495 47.9583 14.2907C47.935 14.2463 47.8705 14.2383 47.8383 14.2757C47.346 14.8423 44.2511 18.209 39.375 19.2557C39.3625 19.003 39.3395 18.751 39.3058 18.5003C41.6741 17.1573 43.9861 15.6098 45.0875 14.1948C46.7515 12.0555 46.5985 9.3265 45.0148 7.93517C45.0067 7.92817 44.9972 7.92299 44.9869 7.91998C44.9766 7.91696 44.9658 7.91617 44.9551 7.91767C44.9445 7.91917 44.9343 7.92292 44.9253 7.92867C44.9162 7.93441 44.9085 7.94203 44.9026 7.951C44.4016 8.77767 39.7116 16.3577 34.5626 19.6303C34.4998 19.6705 34.4365 19.7098 34.3726 19.7483C34.225 19.838 34.2088 20.03 34.3343 20.1438C34.9283 20.6818 35.2971 21.4305 35.2971 22.2618C35.2971 23.7073 34.1831 24.9093 32.7105 25.1702C31.9621 25.3152 30.8821 25.273 29.8443 24.9298C29.7976 24.9148 29.7493 24.9457 29.7493 24.9925V29.5698C29.7493 29.6435 29.8613 29.6618 29.8876 29.5915C30.5186 27.9202 32.4068 27.5652 33.2326 27.5652C33.5298 29.3512 34.0606 30.8305 34.7501 31.6268C35.8731 32.9207 37.7068 32.9025 38.5018 32.008C38.5082 32.0007 38.5129 31.992 38.5156 31.9826C38.5182 31.9732 38.5187 31.9633 38.5169 31.9537C38.5152 31.9441 38.5114 31.935 38.5057 31.9271C38.5 31.9192 38.4925 31.9127 38.484 31.908C38.0168 31.6397 35.344 29.9985 34.809 27.3093C35.019 27.2381 35.2243 27.1536 35.4236 27.0565C36.2865 28.4843 37.5423 29.756 38.5533 30.2418C40.2516 31.0563 41.8063 30.6602 42.4958 29.4677C42.5208 29.4257 42.4901 29.3733 42.4395 29.3687C41.389 29.2848 38.1651 28.3608 36.7925 26.1098C36.9512 25.9656 37.1029 25.8138 37.2468 25.6548C38.6835 26.7485 40.7141 27.7152 42.1681 27.9125C43.8695 28.1438 45.7971 27.6008 45.8438 25.6225C45.8446 25.583 45.8091 25.5505 45.7671 25.5528C45.1621 25.5895 41.158 25.7637 38.3046 24.1258C38.4038 23.9374 38.4962 23.7455 38.5818 23.5505C38.5818 23.5505 42.8931 24.5697 44.936 24.2322C46.966 23.8972 48.155 22.3838 47.9255 20.501C47.9188 20.4543 47.8641 20.4265 47.8205 20.4487L47.8203 20.4482ZM9.75064 23.5498C9.83644 23.7449 9.92911 23.9368 10.0285 24.1253C7.17597 25.7623 3.17347 25.5895 2.56581 25.5523C2.52314 25.55 2.48747 25.584 2.48847 25.6228C2.53597 27.6005 4.46297 28.1433 6.16431 27.912C7.61764 27.7147 9.64931 26.748 11.0855 25.6545C11.2296 25.8133 11.3813 25.9651 11.5398 26.1095C10.1665 28.3603 6.94314 29.2845 5.89281 29.3683C5.84197 29.3733 5.81231 29.4255 5.83647 29.4675C6.52597 30.66 8.08064 31.0562 9.77981 30.2417C10.7898 29.7558 12.0456 28.4842 12.9081 27.0563C13.1077 27.1532 13.3131 27.2376 13.5231 27.3092C12.9881 29.9983 10.3153 31.6392 9.84814 31.908C9.83961 31.9127 9.83225 31.9193 9.82657 31.9272C9.8209 31.9351 9.81707 31.9442 9.81536 31.9537C9.81365 31.9633 9.81411 31.9732 9.8167 31.9826C9.81928 31.992 9.82393 32.0006 9.83031 32.008C10.6253 32.9023 12.4596 32.9205 13.5826 31.6267C14.2721 30.8303 14.8023 29.351 15.0993 27.565C15.926 27.565 17.8135 27.92 18.4443 29.5912C18.4715 29.6617 18.5835 29.6433 18.5835 29.5695V24.9923C18.5835 24.9457 18.5343 24.9147 18.4876 24.9297C17.4501 25.273 16.3698 25.3147 15.6223 25.1697C14.149 24.9092 13.0348 23.7072 13.0348 22.2618C13.0348 21.4308 13.4048 20.6813 13.9975 20.1435C14.1241 20.0302 14.107 19.8382 13.9605 19.7485C13.8961 19.71 13.8322 19.6707 13.7688 19.6307C8.62281 16.3598 3.93547 8.785 3.43014 7.953C3.42421 7.9438 3.41638 7.93598 3.40717 7.93006C3.39796 7.92414 3.38759 7.92026 3.37676 7.91868C3.36593 7.9171 3.35489 7.91786 3.34437 7.9209C3.33386 7.92395 3.32412 7.92921 3.31581 7.93633C1.73447 9.3285 1.58081 12.0563 3.24497 14.1952C4.34631 15.6102 6.65831 17.1577 9.02581 18.5007C8.99244 18.7513 8.96964 19.0032 8.95747 19.2557C4.08531 18.21 0.992807 14.849 0.495807 14.2783C0.462474 14.2393 0.396641 14.2472 0.374141 14.2917C-0.522526 16.0517 0.255807 18.4142 2.03347 19.4047C3.59481 20.273 6.04464 20.7842 9.05814 21.1447C9.0907 21.3632 9.13044 21.5807 9.17731 21.7967C4.65397 22.4083 1.12097 20.7563 0.513641 20.449C0.468641 20.426 0.413974 20.4545 0.408307 20.502C0.179474 22.3847 1.36764 23.8965 3.39764 24.2317C5.43981 24.5692 9.75097 23.55 9.75097 23.55L9.75064 23.5498ZM37.789 37.6815L36.218 36.4455C35.591 36.8188 35.1303 37.4115 34.9513 38.1063C34.0063 38.2385 31.4303 37.6663 31.6808 37.2868C34.5041 33.3157 32.3446 30.9512 29.7491 31.0828V33.7495C29.7491 34.6062 29.0016 35.3003 28.0808 35.3003H26.2885C25.0028 35.3003 24.1658 36.5927 24.1658 36.5927C24.1658 36.5927 23.3288 35.3002 22.0431 35.3002H20.251C19.3293 35.3002 18.5835 34.606 18.5835 33.7495V31.0828C15.988 30.9512 13.8268 33.3155 16.651 37.2867C16.8993 37.6623 14.2513 38.2637 13.0093 38.1117C12.682 37.7723 12.21 37.5583 11.6815 37.5583C11.4568 37.5584 11.2338 37.5985 11.0231 37.6767C11.0231 37.6767 6.14247 33.0555 6.05314 33.0103L6.09314 32.917C6.37147 32.397 5.94597 31.8303 5.67697 31.8703C5.98947 31.4953 6.00397 29.8545 4.27031 29.4748C4.32114 29.8045 4.34697 30.4772 4.34697 30.4772C4.34697 30.4772 3.00897 29.7538 2.33697 30.3782C1.74664 31.077 2.56581 32.3448 2.56581 32.3448C2.56581 32.3448 1.88114 32.3615 1.54364 32.3328C2.03981 34.0112 3.70414 33.8923 4.06414 33.5612C4.04081 33.8278 4.64247 34.2083 5.15247 33.9033L5.37647 33.795C5.41597 33.8478 10.1695 38.339 10.1695 38.339C9.95114 38.663 9.84731 39.0607 9.91897 39.4847C10.0318 40.1472 10.5835 40.6963 11.2885 40.839C11.7863 40.939 12.2543 40.8423 12.6296 40.6227L13.888 41.7905C13.9996 41.8922 14.1513 41.9555 14.3203 41.9435C14.6281 41.9228 14.8586 41.6735 14.8353 41.3873C14.8253 41.2582 14.7593 41.1473 14.6683 41.0632C14.6483 41.0412 13.3866 39.8698 13.3866 39.8698C14.4275 39.1403 16.3666 38.6262 17.976 38.6262C18.2586 38.6262 18.3916 38.3868 18.2943 38.1523C17.5651 36.399 19.1326 35.1287 20.7543 36.1627C21.4616 36.6135 22.1801 37.5017 22.7215 38.9835C20.061 39.6277 16.7203 41.4025 16.0445 43.3398C15.7841 44.0878 16.6438 45.1075 17.6878 45.3127C17.6969 45.3147 17.7064 45.3148 17.7156 45.3132C17.7248 45.3115 17.7336 45.308 17.7415 45.303C17.7493 45.2979 17.7561 45.2913 17.7614 45.2836C17.7667 45.2758 17.7704 45.2672 17.7723 45.258C18.3176 42.3658 21.428 40.2107 23.0463 39.8447C23.1275 40.0625 23.101 39.992 23.1823 40.209C21.4196 41.0427 19.7103 42.8007 19.2223 44.891C18.9981 45.8482 20.0656 46.711 20.9468 46.9472C20.9911 46.9588 21.0346 46.9282 21.0371 46.8855C21.2046 44.2422 22.3718 41.9972 23.4175 40.976C23.4461 41.1757 23.4676 41.3764 23.482 41.5777C23.482 41.5777 22.4113 44.5607 22.4113 46.7372C22.4113 47.7498 23.9163 48.4567 24.1385 48.5555C24.4163 48.4567 25.9201 47.7498 25.9201 46.7372C25.9201 44.5605 24.8498 41.5775 24.8498 41.5775C24.8644 41.3762 24.8862 41.1756 24.9151 40.9758C25.9601 41.9975 27.128 44.2413 27.2948 46.8847C27.2958 46.8951 27.299 46.9051 27.3043 46.9141C27.3095 46.9231 27.3167 46.9309 27.3253 46.9368C27.3339 46.9428 27.3436 46.9468 27.3539 46.9486C27.3642 46.9504 27.3747 46.9499 27.3848 46.9472C28.2671 46.711 29.3336 45.8482 29.1105 44.891C28.6215 42.801 26.913 41.0427 25.1505 40.209C25.231 39.992 25.2043 40.0623 25.2858 39.8445C26.905 40.2105 30.0141 42.3657 30.5596 45.2578C30.5636 45.2763 30.5748 45.2923 30.5906 45.3026C30.6065 45.3128 30.6257 45.3163 30.6441 45.3123C31.6875 45.1073 32.5485 44.0873 32.2866 43.3395C31.6125 41.4022 28.271 39.6273 25.61 38.9832C26.1523 37.5015 26.871 36.6132 27.5783 36.1623C29.199 35.1283 30.7666 36.3985 30.0375 38.152C29.9401 38.3865 30.0721 38.6258 30.3558 38.6258C32.1763 38.6258 34.4191 39.2833 35.3066 40.1653C35.8738 41.0163 36.9216 41.5607 38.1043 41.4442C39.448 41.3125 40.5436 40.3032 40.695 39.0552C40.8271 37.9618 40.2616 36.9802 39.3603 36.4452L37.7886 37.6813L37.789 37.6815ZM26.2106 29.7162C26.7703 29.5085 27.6476 29.6765 27.6178 30.4845C27.6106 30.6678 27.8675 30.6678 27.8861 30.4807C28.0536 29.2707 27.2361 28.9223 26.3805 29.064C26.2741 28.648 26.1871 28.2843 26.0881 27.924C26.0091 27.6323 25.9801 27.0847 26.3176 27.0847C26.4996 27.0847 26.4265 27.594 26.4093 27.8135C26.3943 28.006 26.4635 28.1225 26.6198 28.128C26.7171 28.132 26.8388 28.0077 26.9115 27.9252C27.4011 27.3713 27.5148 26.514 26.9411 26.1005C26.4611 25.7533 25.2591 26.0117 24.9288 26.5062C24.8788 26.3198 24.6405 26.0123 24.5261 25.8785C24.415 25.7477 24.3861 25.6582 24.5398 25.5435C24.6123 25.4878 24.8315 25.2698 24.8315 25.0448C24.8315 24.9118 24.7281 24.6662 24.4005 24.6662C24.1418 24.6662 23.8543 24.8452 23.8543 25.2445C23.8543 25.3333 23.876 25.4283 23.9331 25.5307C23.7698 25.5037 23.3258 25.5147 23.0978 25.571L26.25 34.221C27.1523 33.7757 27.8138 33.0705 27.8138 32.3137C27.8138 31.6687 26.8638 31.8827 26.4025 32.3858C26.2541 31.568 26.1221 30.8128 25.9778 30.0602C25.9385 29.8525 26.044 29.778 26.2106 29.7155V29.7162ZM21.7533 23.84L22.4156 25.68C21.8486 25.815 20.9366 26.2283 20.9366 26.7758C20.9366 27.5048 22.2266 27.9795 22.9723 27.9225C22.9353 28.0888 22.978 28.237 23.094 28.3725C22.8233 28.3725 22.3126 28.4985 22.145 28.6792C21.7495 28.3108 21.1308 28.1767 20.8366 28.4008C20.5411 28.6268 20.5323 29.0095 20.8408 29.4422C21.0558 29.7417 21.1365 30.0372 20.8948 30.3842C21.7936 30.3842 21.4626 29.2155 21.8148 29.2155C21.7686 29.4422 21.7968 29.7043 21.8991 29.9952C21.9668 30.1885 21.9668 30.3258 21.8508 30.5118C21.5608 30.9755 21.1098 32.0402 21.1708 33.0032C20.8761 33.0015 20.7263 32.9295 20.8301 32.5268C20.8688 32.3772 20.7763 32.2702 20.6538 32.4548C20.5185 32.6585 20.4531 33.0065 20.4531 33.1552C20.4531 34.0125 21.4748 34.1852 21.8645 34.0038C22.9923 35.0955 25.2078 34.8042 25.9495 34.438L22.049 23.7358C21.9693 23.5337 21.6833 23.6303 21.7533 23.8403V23.84ZM21.6183 32.6558C21.5376 32.2153 22.1506 31.4278 22.9305 30.6678C22.7645 31.1632 22.8676 32.0165 23.1931 32.3105C22.6275 32.3105 21.9556 32.4167 21.6181 32.6558H21.6183Z" fill="#A0ACE3"/>
</svg>
