<svg width="55" height="43" viewBox="0 0 55 43" fill="none" xmlns="http://www.w3.org/2000/svg">
<g clip-path="url(#clip0)">
<path d="M5.9983 32.7248H9.43498C10.6687 32.7248 11.6036 33.0379 12.2398 33.6641C12.5221 33.9591 12.7408 34.3069 12.883 34.6867C13.0252 35.0666 13.0878 35.4707 13.0673 35.8748C13.088 36.3261 12.9948 36.7754 12.796 37.1827C12.5973 37.5901 12.299 37.943 11.9279 38.2101C11.1809 38.714 10.2878 38.9671 9.3821 38.9314H6.78609V42.7872H5.99301L5.9983 32.7248ZM9.47464 33.3969H6.79667V38.262H9.41912C9.81322 38.287 10.2085 38.2355 10.5823 38.1104C10.9561 37.9853 11.301 37.789 11.5974 37.5329C11.8135 37.3154 11.9817 37.0568 12.0918 36.7729C12.2018 36.489 12.2513 36.186 12.2372 35.8826C12.2583 35.5228 12.1949 35.1629 12.0519 34.8309C11.9089 34.4989 11.6901 34.2036 11.4124 33.9677C10.8535 33.5626 10.1685 33.3608 9.47464 33.3969V33.3969Z" fill="#A0ACE3"/>
<path d="M14.9231 37.4057H14.13C14.1547 37.0845 14.2552 36.7733 14.4236 36.4968C14.592 36.2203 14.8236 35.986 15.1002 35.8126C15.6727 35.4644 16.3387 35.2935 17.0115 35.3222C17.3916 35.3003 17.7723 35.3536 18.1311 35.4788C18.4898 35.6041 18.8193 35.7987 19.1 36.0513C19.3196 36.267 19.4915 36.5249 19.6047 36.8089C19.718 37.0929 19.7703 37.3968 19.7582 37.7015V42.7872H19.1343L19.0154 41.5833C18.7565 42.0345 18.3743 42.4058 17.9118 42.6552C17.4494 42.9047 16.9251 43.0223 16.3982 42.9948C15.7211 43.0384 15.0529 42.8247 14.5318 42.398C14.3274 42.1976 14.1675 41.9577 14.0624 41.6935C13.9573 41.4293 13.9092 41.1465 13.9211 40.8631C13.933 40.5797 14.0047 40.3019 14.1317 40.0471C14.2587 39.7923 14.4381 39.5661 14.6587 39.3829C15.2887 38.9619 16.0155 38.7016 16.7736 38.6253L18.9942 38.262V37.6159C19.0051 37.3673 18.955 37.1197 18.8483 36.894C18.7416 36.6683 18.5813 36.4709 18.3809 36.3185C17.9675 36.0404 17.4724 35.9036 16.9719 35.9293C16.4351 35.8969 15.9043 36.0543 15.4756 36.373C15.3223 36.5034 15.1967 36.6622 15.106 36.8403C15.0153 37.0184 14.9612 37.2123 14.9469 37.4109L14.9231 37.4057ZM16.5991 42.3539C17.2408 42.362 17.8595 42.1204 18.3201 41.6819C18.5327 41.4935 18.7019 41.2627 18.8164 41.0049C18.9308 40.7472 18.9878 40.4684 18.9836 40.1873V38.8588L16.993 39.1961C16.3165 39.2522 15.6697 39.4941 15.1267 39.8941C14.9805 40.0404 14.8682 40.216 14.7975 40.4088C14.7267 40.6015 14.6992 40.8071 14.7168 41.0112C14.7343 41.2154 14.7966 41.4135 14.8993 41.5919C15.0019 41.7704 15.1426 41.9249 15.3117 42.0451C15.6988 42.2743 16.148 42.382 16.5991 42.3539V42.3539Z" fill="#A0ACE3"/>
<path d="M21.9339 42.7872H21.162V35.522H21.7964L21.9154 36.9179C22.3014 35.8489 22.994 35.3092 23.9906 35.3092C24.2508 35.3055 24.5099 35.3441 24.7573 35.4234V36.1603C24.4934 36.0848 24.2205 36.0438 23.9457 36.0383C23.6466 36.0393 23.3529 36.1169 23.0937 36.2634C22.8346 36.41 22.6188 36.6204 22.4679 36.8738C22.0939 37.4545 21.9094 38.1335 21.9392 38.8199L21.9339 42.7872Z" fill="#A0ACE3"/>
<path d="M29.3624 36.1758H27.6414V41.3316C27.6414 42.014 27.9613 42.3539 28.6116 42.3539C28.9157 42.3545 29.2187 42.317 29.5131 42.2423V42.8391C29.2071 42.9301 28.8891 42.9764 28.5693 42.9766C28.3263 42.9953 28.082 42.9616 27.8537 42.8777C27.6253 42.7939 27.4184 42.6621 27.2475 42.4914C26.975 42.1542 26.8385 41.7302 26.8642 41.3004V36.1758H25.7909V35.522H26.8483L26.8933 33.7523H27.6176V35.522H29.3386L29.3624 36.1758Z" fill="#A0ACE3"/>
<path d="M31.3134 42.7872H30.5203V35.522H31.1601L31.2447 36.7648C31.4942 36.2861 31.8836 35.8914 32.3629 35.6309C32.7796 35.4183 33.2442 35.3121 33.7138 35.3222C34.0776 35.3005 34.4417 35.3592 34.7793 35.4939C35.117 35.6286 35.4195 35.8359 35.6648 36.1006C36.0924 36.5908 36.3128 37.223 36.2807 37.8676V42.7976H35.5167V37.8702C35.5368 37.5965 35.495 37.3217 35.3945 37.0656C35.294 36.8095 35.1371 36.5784 34.9351 36.3886C34.5459 36.0782 34.0534 35.9201 33.5525 35.9449C33.2436 35.9375 32.9367 35.9966 32.6535 36.118C32.3704 36.2395 32.1178 36.4205 31.9135 36.6481C31.4962 37.0809 31.2708 37.6585 31.287 38.2542L31.3134 42.7872Z" fill="#A0ACE3"/>
<path d="M43.3999 40.8023H44.2168C44.049 41.4838 43.6251 42.0779 43.0298 42.4655C42.3257 42.8875 41.4954 43.0597 40.6776 42.9535C39.8597 42.8472 39.1037 42.4689 38.5357 41.8817C37.9108 41.1076 37.5908 40.1387 37.6342 39.152C37.5981 38.6098 37.6753 38.066 37.8613 37.5542C38.0472 37.0424 38.3379 36.5733 38.7154 36.1758C39.0116 35.8882 39.3635 35.6617 39.7504 35.5097C40.1372 35.3578 40.5512 35.2834 40.9678 35.291C41.4519 35.267 41.9347 35.3578 42.3756 35.5556C42.8164 35.7534 43.2022 36.0525 43.5004 36.4275C44.1063 37.2755 44.4017 38.2998 44.3384 39.3336H38.4035C38.3881 39.7721 38.4636 40.2091 38.6254 40.6181C38.7871 41.0271 39.0318 41.3996 39.3446 41.713C39.8401 42.1449 40.4852 42.3742 41.1476 42.3539C41.6909 42.3704 42.2236 42.2037 42.657 41.8817C43.0162 41.6094 43.2767 41.231 43.3999 40.8023ZM40.9942 35.9371C40.6462 35.9269 40.3003 35.9942 39.9825 36.134C39.6648 36.2737 39.3834 36.4823 39.1596 36.7441C38.705 37.306 38.4465 37.9964 38.422 38.7135H43.5453C43.5492 38.3098 43.4715 37.9093 43.3167 37.5352C43.162 37.1611 42.9333 36.8208 42.6438 36.5339C42.1934 36.1318 41.603 35.9145 40.9942 35.9268V35.9371Z" fill="#A0ACE3"/>
<path d="M46.5907 42.7872H45.8241V35.522H46.4506L46.5643 36.9179C46.9503 35.8489 47.6455 35.3092 48.6395 35.3092C48.9014 35.3065 49.162 35.3451 49.4114 35.4234V36.1603C49.1476 36.0848 48.8747 36.0438 48.5999 36.0383C48.2998 36.0382 48.005 36.1152 47.7447 36.2618C47.4845 36.4084 47.268 36.6194 47.1168 36.8738C46.7437 37.4549 46.5593 38.1336 46.5881 38.8199L46.5907 42.7872Z" fill="#A0ACE3"/>
<path d="M17.9685 18.9026H15.5576V28.2852H17.9685V18.9026Z" fill="#A0ACE3"/>
<path d="M37.4122 21.6116C36.7916 21.2754 36.0933 21.1021 35.3845 21.1082C34.7225 21.1291 34.0947 21.402 33.634 21.869C33.1732 22.3361 32.9156 22.9607 32.9156 23.6108C32.9156 24.2609 33.1732 24.8856 33.634 25.3526C34.0947 25.8197 34.7225 26.0925 35.3845 26.1135C36.0936 26.1065 36.79 25.9283 37.4122 25.5945V28.1114C36.7007 28.3242 35.9617 28.4352 35.218 28.4409C32.5136 28.4409 30.1211 26.6065 30.1211 23.5758C30.1211 20.7761 32.2757 18.7107 35.218 18.7107C35.9625 18.7137 36.7023 18.8274 37.4122 19.048V21.6116Z" fill="#A0ACE3"/>
<path d="M12.2398 21.6116C11.6198 21.2742 10.9211 21.1008 10.2122 21.1082C9.55018 21.1291 8.92241 21.402 8.46165 21.869C8.00088 22.3361 7.74324 22.9607 7.74324 23.6108C7.74324 24.2609 8.00088 24.8856 8.46165 25.3526C8.92241 25.8197 9.55018 26.0925 10.2122 26.1135C10.9213 26.1065 11.6176 25.9283 12.2398 25.5945V28.1114C11.527 28.3258 10.786 28.4369 10.0404 28.4409C7.33863 28.4409 4.9541 26.6065 4.9541 23.5758C4.9541 20.7761 7.10864 18.7107 10.0404 18.7107C10.7867 18.7133 11.5283 18.827 12.2398 19.048V21.6116Z" fill="#A0ACE3"/>
<path d="M50.0512 23.5966C50.0701 24.581 49.79 25.5487 49.2465 26.3764C48.703 27.204 47.9207 27.854 46.9994 28.2437C46.0781 28.6334 45.0595 28.745 44.0733 28.5643C43.0872 28.3837 42.1781 27.919 41.4621 27.2294C40.746 26.5398 40.2553 25.6565 40.0525 24.6922C39.8498 23.7279 39.9441 22.7261 40.3235 21.8146C40.7029 20.9031 41.3502 20.1231 42.183 19.574C43.0157 19.0249 43.9961 18.7316 44.9993 18.7314C45.6601 18.7118 46.3181 18.8235 46.9338 19.0599C47.5495 19.2962 48.1102 19.6523 48.5821 20.1068C49.054 20.5612 49.4274 21.1046 49.6799 21.7044C49.9323 22.3041 50.0586 22.9477 50.0512 23.5966V23.5966ZM44.9914 21.129C44.4934 21.1254 44.0055 21.267 43.5896 21.536C43.1738 21.8049 42.8487 22.189 42.6555 22.6396C42.4624 23.0902 42.41 23.5869 42.5049 24.0667C42.5998 24.5466 42.8377 24.988 43.1886 25.3349C43.5394 25.6818 43.9874 25.9186 44.4755 26.0153C44.9637 26.112 45.4702 26.0642 45.9306 25.878C46.3911 25.6918 46.7848 25.3755 47.0619 24.9693C47.339 24.5632 47.4869 24.0854 47.4869 23.5966C47.4929 23.2724 47.4327 22.9504 47.3096 22.6495C47.1866 22.3486 47.0033 22.0751 46.7706 21.845C46.5379 21.6149 46.2605 21.433 45.9549 21.31C45.6493 21.187 45.3216 21.1254 44.9914 21.129V21.129Z" fill="#A0ACE3"/>
<path d="M27.1153 21.0407C26.4998 20.8725 25.8663 20.7759 25.2278 20.7527C24.2629 20.7527 23.7368 21.0719 23.7368 21.5311C23.7368 22.102 24.4427 22.3096 24.8445 22.4133L25.5054 22.6235C27.0757 23.1087 27.7868 24.1622 27.7868 25.3065C27.7868 27.6599 25.6719 28.4513 23.8214 28.4513C22.9471 28.4454 22.0752 28.3585 21.2175 28.1918V26.0382C21.9595 26.2506 22.7263 26.3683 23.4989 26.3885C24.6965 26.3885 25.2463 26.0434 25.2463 25.5037C25.2463 24.964 24.7678 24.7564 24.173 24.5696L23.6443 24.4061C22.2934 23.9909 21.1831 23.2177 21.1831 21.6635C21.1831 19.8965 22.5366 18.7314 24.7441 18.7314C25.5371 18.744 26.3262 18.8432 27.0968 19.0272L27.1153 21.0407Z" fill="#A0ACE3"/>
<path d="M2.39508 8.82988C2.30256 7.35607 0.0925164 7.35607 0.00263414 8.82988V11.2871C-0.0049752 11.4459 0.0203265 11.6046 0.0770095 11.7536C0.133692 11.9025 0.220577 12.0386 0.332406 12.1537C0.444235 12.2687 0.578684 12.3603 0.727614 12.4229C0.876544 12.4855 1.03686 12.5177 1.19886 12.5177C1.36086 12.5177 1.52117 12.4855 1.6701 12.4229C1.81904 12.3603 1.95348 12.2687 2.06531 12.1537C2.17714 12.0386 2.26403 11.9025 2.32071 11.7536C2.37739 11.6046 2.40269 11.4459 2.39508 11.2871V8.82988Z" fill="#A0ACE3"/>
<path d="M8.97237 5.59683C8.97237 4.03999 6.57727 4.03999 6.57727 5.59683V11.2897C6.57727 12.8595 8.97237 12.8595 8.97237 11.2897V5.59683Z" fill="#A0ACE3"/>
<path d="M15.547 1.18578C15.4571 -0.285437 13.247 -0.285437 13.1545 1.18578V13.6405C13.1469 13.7994 13.1722 13.958 13.2289 14.107C13.2856 14.256 13.3725 14.3921 13.4843 14.5071C13.5961 14.6222 13.7306 14.7137 13.8795 14.7763C14.0284 14.8389 14.1888 14.8711 14.3508 14.8711C14.5128 14.8711 14.6731 14.8389 14.822 14.7763C14.9709 14.7137 15.1054 14.6222 15.2172 14.5071C15.329 14.3921 15.4159 14.256 15.4726 14.107C15.5293 13.958 15.5546 13.7994 15.547 13.6405V1.18578Z" fill="#A0ACE3"/>
<path d="M22.1269 5.59683C22.1269 4.03999 19.7291 4.03999 19.7291 5.59683V11.2897C19.7215 11.4489 19.7469 11.6079 19.8037 11.7572C19.8605 11.9065 19.9476 12.0429 20.0597 12.1582C20.1717 12.2735 20.3065 12.3652 20.4557 12.4279C20.605 12.4906 20.7657 12.523 20.928 12.523C21.0904 12.523 21.251 12.4906 21.4003 12.4279C21.5495 12.3652 21.6843 12.2735 21.7964 12.1582C21.9084 12.0429 21.9955 11.9065 22.0523 11.7572C22.1091 11.6079 22.1345 11.4489 22.1269 11.2897V5.59683Z" fill="#A0ACE3"/>
<path d="M28.6936 8.82987C28.7092 8.66729 28.6901 8.50329 28.6374 8.34838C28.5847 8.19347 28.4997 8.05106 28.3877 7.93028C28.2757 7.8095 28.1393 7.71301 27.9871 7.64698C27.8349 7.58095 27.6704 7.54684 27.504 7.54684C27.3376 7.54684 27.173 7.58095 27.0209 7.64698C26.8687 7.71301 26.7322 7.8095 26.6202 7.93028C26.5082 8.05106 26.4232 8.19347 26.3705 8.34838C26.3178 8.50329 26.2987 8.66729 26.3144 8.82987V11.2871C26.2987 11.4497 26.3178 11.6137 26.3705 11.7686C26.4232 11.9235 26.5082 12.0659 26.6202 12.1867C26.7322 12.3075 26.8687 12.404 27.0209 12.47C27.173 12.536 27.3376 12.5701 27.504 12.5701C27.6704 12.5701 27.8349 12.536 27.9871 12.47C28.1393 12.404 28.2757 12.3075 28.3877 12.1867C28.4997 12.0659 28.5847 11.9235 28.6374 11.7686C28.6901 11.6137 28.7092 11.4497 28.6936 11.2871V8.82987Z" fill="#A0ACE3"/>
<path d="M35.2788 5.59683C35.2788 4.03999 32.8995 4.03999 32.8995 5.59683V11.2897C32.8839 11.4523 32.903 11.6163 32.9557 11.7712C33.0084 11.9261 33.0934 12.0685 33.2054 12.1893C33.3174 12.3101 33.4538 12.4065 33.606 12.4726C33.7582 12.5386 33.9228 12.5727 34.0891 12.5727C34.2555 12.5727 34.4201 12.5386 34.5723 12.4726C34.7244 12.4065 34.8609 12.3101 34.9729 12.1893C35.0849 12.0685 35.1699 11.9261 35.2226 11.7712C35.2753 11.6163 35.2944 11.4523 35.2788 11.2897V5.59683Z" fill="#A0ACE3"/>
<path d="M41.8375 1.18579C41.8375 -0.371053 39.4583 -0.371053 39.4583 1.18579V13.6405C39.4427 13.8031 39.4618 13.9671 39.5145 14.122C39.5671 14.2769 39.6522 14.4193 39.7642 14.5401C39.8762 14.6609 40.0126 14.7574 40.1648 14.8234C40.317 14.8895 40.4815 14.9236 40.6479 14.9236C40.8143 14.9236 40.9788 14.8895 41.131 14.8234C41.2832 14.7574 41.4196 14.6609 41.5316 14.5401C41.6436 14.4193 41.7287 14.2769 41.7814 14.122C41.834 13.9671 41.8532 13.8031 41.8375 13.6405V1.18579Z" fill="#A0ACE3"/>
<path d="M48.4333 5.59684C48.3408 4.12043 46.1228 4.12043 46.0329 5.59684V11.2897C46.1228 12.7687 48.3408 12.7687 48.4333 11.2897V5.59684Z" fill="#A0ACE3"/>
<path d="M54.9974 8.82987C55.013 8.66729 54.9938 8.50329 54.9412 8.34838C54.8885 8.19347 54.8034 8.05106 54.6915 7.93028C54.5795 7.8095 54.443 7.71301 54.2908 7.64698C54.1387 7.58095 53.9741 7.54684 53.8077 7.54684C53.6413 7.54684 53.4768 7.58095 53.3246 7.64698C53.1724 7.71301 53.036 7.8095 52.924 7.93028C52.812 8.05106 52.727 8.19347 52.6743 8.34838C52.6216 8.50329 52.6025 8.66729 52.6181 8.82987V11.2871C52.6181 12.8439 54.9974 12.8439 54.9974 11.2871V8.82987Z" fill="#A0ACE3"/>
</g>
<defs>
<clipPath id="clip0">
<rect width="55" height="43" fill="white"/>
</clipPath>
</defs>
</svg>
