<svg width="110" height="22" viewBox="0 0 110 22" fill="none" xmlns="http://www.w3.org/2000/svg">
<g clip-path="url(#clip0)">
<path d="M110 9.1724C110 7.83528 109.263 7.2417 107.788 6.94178C106.314 6.64187 105.434 6.49816 105.434 5.46095C105.434 4.71742 106.022 4.27379 107.057 4.27379C108.377 4.27379 108.823 4.89861 108.823 5.60466L108.965 5.75462H109.585L109.734 5.60466C109.734 4.12383 108.556 3.53025 107.088 3.53025C105.465 3.53025 104.61 4.4175 104.61 5.46095C104.61 6.64812 105.489 7.2417 106.964 7.53536C108.439 7.82903 109.17 7.98524 109.17 9.1724C109.17 9.91594 108.73 10.5095 107.255 10.5095C105.929 10.5095 105.341 9.76598 105.341 8.87248L105.198 8.72253H104.61L104.461 8.87248C104.461 10.2096 105.489 11.2468 107.255 11.2468C109.17 11.2468 110.056 10.3596 110.056 9.1724H110ZM103.724 7.68532L103.872 7.53536V7.09174C103.872 5.01108 102.695 3.53025 100.632 3.53025C98.5688 3.53025 97.3916 5.01108 97.3916 7.09174V7.41665C97.3916 9.49106 98.4201 11.2718 100.781 11.2718C102.838 11.2718 103.575 9.94093 103.724 9.04744L103.575 8.89748H102.986L102.838 9.04744C102.726 9.51298 102.45 9.92147 102.061 10.1964C101.672 10.4713 101.197 10.5937 100.725 10.5408C98.8104 10.5408 98.2466 8.75377 98.2466 7.86652L98.3891 7.71656L103.724 7.68532ZM102.838 6.94178H98.4201L98.2776 6.79807C98.2541 6.47179 98.2975 6.14412 98.4052 5.83553C98.5129 5.52693 98.6825 5.24403 98.9034 5.00447C99.1243 4.76492 99.3919 4.57386 99.6893 4.44321C99.9867 4.31256 100.308 4.24513 100.632 4.24513C100.956 4.24513 101.277 4.31256 101.575 4.44321C101.872 4.57386 102.14 4.76492 102.361 5.00447C102.581 5.24403 102.751 5.52693 102.859 5.83553C102.966 6.14412 103.01 6.47179 102.986 6.79807L102.838 6.94178ZM96.3631 10.9531V3.82392L96.2144 3.67396H95.6258L95.4771 3.82392V10.9531L95.6258 11.1031H96.2144L96.3631 10.9531ZM96.3631 2.34309V1.44959L96.2144 1.29964H95.6258L95.4771 1.44959V2.34309L95.6258 2.4868H96.2144L96.3631 2.34309ZM90.7869 10.5095C89.3123 10.5095 88.4263 9.46607 88.4263 7.38541C88.4263 5.30475 89.3123 4.2613 90.7869 4.2613C92.2615 4.2613 93.1413 5.2985 93.1413 7.38541C93.1413 9.47231 92.2553 10.5095 90.7869 10.5095ZM93.1413 10.0596C93.1413 11.9903 92.7014 13.4774 90.9294 13.4774C89.6097 13.4774 89.1636 12.8526 89.0211 12.1403L88.8724 11.9903H88.2528L88.1041 12.1403C88.2528 13.3275 89.1326 14.221 90.8984 14.221C92.8129 14.221 93.9963 13.0338 93.9963 10.0596V3.81142L93.8538 3.66146H93.4077L93.2652 3.81142L93.1165 4.70492H92.9058C92.6146 4.11134 91.8773 3.51776 90.5514 3.51776C88.4882 3.51776 87.4535 5.14854 87.4535 7.37916C87.4535 9.60978 88.482 11.2343 90.5514 11.2343C91.8773 11.2343 92.6146 10.6095 92.9058 10.0472L93.1413 10.0596ZM83.4944 4.29254C84.969 4.29254 85.9727 5.4797 85.9727 7.41665C85.9727 9.3536 84.9442 10.5408 83.4944 10.5408C82.0446 10.5408 81.0161 9.34735 81.0161 7.41665C81.0161 5.48595 82.0508 4.29254 83.4944 4.29254ZM83.4944 11.2656C85.4089 11.2656 86.8835 9.93468 86.8835 7.4104C86.8835 4.88612 85.4089 3.549 83.4944 3.549C81.5799 3.549 80.1115 4.88612 80.1115 7.4104C80.1115 9.93468 81.5799 11.2656 83.4944 11.2656ZM79.0768 10.9719V0.856012L78.9343 0.706055H78.3457L78.197 0.856012V10.9531L78.3457 11.1031H78.9343L79.0768 10.9719ZM73.7794 4.29254C75.254 4.29254 76.2578 5.4797 76.2578 7.41665C76.2578 9.3536 75.2293 10.5408 73.7794 10.5408C72.3296 10.5408 71.3011 9.34735 71.3011 7.41665C71.3011 5.48595 72.3296 4.29254 73.7794 4.29254ZM73.7794 11.2656C75.6939 11.2656 77.1685 9.93468 77.1685 7.4104C77.1685 4.88612 75.6939 3.549 73.7794 3.549C71.8649 3.549 70.3903 4.88612 70.3903 7.4104C70.3903 9.93468 71.8649 11.2656 73.7794 11.2656ZM69.5105 10.9719V6.49816C69.5105 4.56746 68.482 3.53025 66.8587 3.53025C66.3981 3.50619 65.939 3.6029 65.5264 3.81095C65.1138 4.01901 64.7617 4.3313 64.5043 4.71742H64.3556L64.207 3.82392L64.0644 3.67396H63.6184L63.4696 3.82392V10.9531L63.6184 11.1031H64.2379L64.3866 10.9531V6.94178C64.3866 5.311 65.1239 4.27379 66.741 4.27379C67.9182 4.27379 68.6555 5.01108 68.6555 6.49816V10.9531L68.8042 11.1031H69.4238L69.5105 10.9719ZM62.0013 10.9719V6.49816C62.0013 4.56746 60.9666 3.53025 59.3495 3.53025C58.8888 3.50619 58.4297 3.6029 58.0171 3.81095C57.6045 4.01901 57.2524 4.3313 56.9951 4.71742H56.8464V0.856012L56.6977 0.706055H56.0781L55.9294 0.856012V10.9531L56.0781 11.1031H56.6977L56.8464 10.9531V6.94178C56.8464 5.311 57.5837 4.27379 59.2008 4.27379C60.378 4.27379 61.1153 5.01108 61.1153 6.49816V10.9531L61.264 11.1031H61.8525L62.0013 10.9719ZM49.3371 7.41665C49.3371 5.33599 50.3656 4.29254 51.8154 4.29254C52.3419 4.23789 52.8687 4.39385 53.2823 4.72688C53.696 5.05991 53.9635 5.54338 54.0273 6.07328L54.1698 6.21699H54.7894L54.9381 6.07328C54.7894 4.5862 53.6122 3.57399 51.8402 3.57399C49.9257 3.57399 48.4573 4.76115 48.4573 7.43539C48.4573 10.1096 49.9257 11.2905 51.8402 11.2905C53.606 11.2905 54.7832 10.2533 54.9381 8.79126L54.7894 8.64755H54.1698L54.0273 8.79126C53.9547 9.31006 53.6872 9.7809 53.2802 10.1065C52.8731 10.4321 52.3576 10.5876 51.8402 10.5408C50.3656 10.5408 49.3618 9.49731 49.3618 7.41665H49.3371ZM47.7447 7.71031L47.8934 7.56036V7.11673C47.8934 5.03607 46.71 3.55524 44.653 3.55524C42.596 3.55524 41.4126 5.03607 41.4126 7.11673V7.41665C41.4126 9.49106 42.4411 11.2718 44.7955 11.2718C46.8587 11.2718 47.596 9.94093 47.7447 9.04744L47.596 8.89748H46.9765L46.8278 9.04744C46.7161 9.50188 46.448 9.90153 46.0712 10.1751C45.6944 10.4486 45.2335 10.5782 44.7708 10.5408C42.8625 10.5408 42.2924 8.75377 42.2924 7.86652L42.4412 7.71656L47.7447 7.71031ZM46.8587 6.96678H42.4164L42.2677 6.79183C42.2513 6.46936 42.3001 6.1469 42.4112 5.84407C42.5222 5.54123 42.6932 5.26435 42.9138 5.03026C43.1343 4.79617 43.3997 4.60977 43.6939 4.48239C43.9882 4.35502 44.305 4.28933 44.6252 4.28933C44.9453 4.28933 45.2622 4.35502 45.5564 4.48239C45.8506 4.60977 46.116 4.79617 46.3366 5.03026C46.5571 5.26435 46.7281 5.54123 46.8392 5.84407C46.9502 6.1469 46.9991 6.46936 46.9827 6.79183L46.8587 6.96678ZM42.8934 1.34337V0.856012L42.72 0.706055H35.062L34.9133 0.856012V1.29964L35.062 1.44959H38.3024L38.4511 1.59955V10.9719L38.5998 11.1218H39.2193L39.3618 10.9719V1.59955L39.5105 1.44959H42.72L42.8934 1.34337Z" fill="#A0ACE3"/>
<path d="M34.9133 9.03494V11.1031H28.2652V0.706058H30.6072V9.03494H34.9133ZM4.17596 11.1031C5.31707 11.1016 6.42551 10.7187 7.32794 10.0144C8.23037 9.31012 8.8759 8.32406 9.16357 7.21046L14.9938 11.7904L20.824 7.20421V11.1031H27.4721V9.03494H23.1351V0.706058H20.824V4.59245L15.2478 8.99745L14.0087 8.01024L16.6853 5.90458L19.5973 3.61148L17.9368 2.29936L12.3606 6.70436L11.1214 5.71714L16.6976 1.34338L15.031 0.03125L9.20074 4.62994C8.91443 3.52149 8.27353 2.53925 7.37739 1.83547C6.48124 1.13169 5.37991 0.745689 4.24411 0.7373H0V11.1031H4.17596ZM2.31723 9.03494V2.78672H4.17596C4.95894 2.82718 5.69423 3.17843 6.22127 3.76378C6.7483 4.34912 7.02425 5.121 6.98885 5.91083C7.02425 6.70067 6.7483 7.47254 6.22127 8.05788C5.69423 8.64323 4.95894 8.99448 4.17596 9.03494H2.31723Z" fill="#A0ACE3"/>
<path d="M33.8786 21.9375H33.3147L33.2528 21.875L32.9368 21.0503L32.8129 20.9878H31.2453L31.1152 21.0503L30.8054 21.875L30.7435 21.9375H30.1797L30.1115 21.875V21.2502L31.5675 17.5763L31.6295 17.5075H32.4349L32.4969 17.5763L33.9405 21.244V21.8688L33.8786 21.9375ZM32.057 18.6635H31.995L31.4312 20.1818L31.4932 20.2443H32.5588L32.6208 20.1818L32.057 18.6635Z" fill="#A0ACE3"/>
<path d="M38.5812 20.2318C38.5812 20.7007 38.3964 21.1505 38.0676 21.4821C37.7388 21.8137 37.2928 22 36.8277 22C36.3627 22 35.9167 21.8137 35.5879 21.4821C35.2591 21.1505 35.0743 20.7007 35.0743 20.2318V17.5763L35.1363 17.5075H35.9046L35.9665 17.5763V20.2318C35.9665 20.8566 36.2206 21.244 36.8463 21.244C37.4721 21.244 37.7261 20.8628 37.7261 20.2318V17.5763L37.7881 17.5075H38.5378L38.5997 17.5763L38.5812 20.2318Z" fill="#A0ACE3"/>
<path d="M43.166 18.2698H41.9269L41.8649 18.3323V21.8751L41.803 21.9375H41.0347L40.9727 21.8751V18.3323L40.9046 18.2698H39.6654L39.6035 18.2073V17.5825L39.6654 17.5138H43.1784L43.2404 17.5825V18.2073L43.166 18.2698Z" fill="#A0ACE3"/>
<path d="M47.8686 21.9375H47.1189L47.057 21.875V20.1006L46.995 20.0381H45.2974L45.2354 20.1006V21.875L45.1735 21.9375H44.4238L44.3618 21.875V17.5763L44.4238 17.5075H45.1982L45.2602 17.5763V19.2196L45.3222 19.282H46.995L47.057 19.2196V17.5763L47.1189 17.5075H47.8686L47.9368 17.5763V21.875L47.8686 21.9375Z" fill="#A0ACE3"/>
<path d="M51.3259 22C51.0329 22.0091 50.7413 21.9554 50.4703 21.8426C50.1993 21.7298 49.9551 21.5604 49.7537 21.3455C49.5524 21.1307 49.3984 20.8752 49.3021 20.596C49.2057 20.3168 49.169 20.0202 49.1946 19.7257C49.1722 19.4296 49.2106 19.1321 49.3076 18.8518C49.4045 18.5714 49.5579 18.3143 49.758 18.0965C49.9581 17.8787 50.2007 17.705 50.4705 17.5862C50.7403 17.4673 51.0315 17.406 51.3259 17.406C51.6203 17.406 51.9116 17.4673 52.1814 17.5862C52.4512 17.705 52.6937 17.8787 52.8938 18.0965C53.0939 18.3143 53.2473 18.5714 53.3442 18.8518C53.4412 19.1321 53.4797 19.4296 53.4573 19.7257C53.4828 20.0202 53.4461 20.3168 53.3498 20.596C53.2534 20.8752 53.0994 21.1307 52.8981 21.3455C52.6967 21.5604 52.4525 21.7298 52.1815 21.8426C51.9105 21.9554 51.6189 22.0091 51.3259 22V22ZM51.3259 18.2073C50.5081 18.2073 50.0867 18.8322 50.0867 19.7257C50.0867 20.6191 50.5267 21.244 51.3259 21.244C52.1252 21.244 52.5651 20.6191 52.5651 19.7257C52.5651 18.8322 52.1376 18.2073 51.3259 18.2073Z" fill="#A0ACE3"/>
<path d="M57.4102 20.1006V20.1693L58.2094 21.244V21.8688L58.1413 21.9313H57.7695L57.6394 21.8688L56.4003 20.2255L56.2763 20.163H55.6568L55.5886 20.2255V21.8688L55.5266 21.9313H54.777L54.715 21.8688V17.5763L54.777 17.5075H56.8463C57.72 17.5075 58.3519 17.9512 58.3519 18.8384C58.3631 19.126 58.2754 19.4086 58.1039 19.6386C57.9323 19.8685 57.6872 20.0317 57.4102 20.1006V20.1006ZM56.8463 18.2698H55.6568L55.5886 18.3323V19.3445L55.6568 19.407H56.8463C57.2243 19.407 57.4659 19.282 57.4659 18.8384C57.4659 18.3948 57.2243 18.2698 56.8463 18.2698Z" fill="#A0ACE3"/>
<path d="M60.4213 21.9375H59.6716L59.6097 21.875V17.5763L59.6716 17.5075H60.4213L60.4833 17.5763V21.875L60.4213 21.9375Z" fill="#A0ACE3"/>
<path d="M65.0248 21.9375H61.8649L61.803 21.875V21.1627L61.8649 21.0378L63.8724 18.3198V18.2573H61.9269L61.8587 18.1948V17.57L61.9269 17.5013H64.8699L64.9318 17.57V18.2636L64.8699 18.3885L62.8625 21.1065V21.1627H65.0248L65.0929 21.2315V21.8563L65.0248 21.9375Z" fill="#A0ACE3"/>
<path d="M69.3928 21.9375H66.4498L66.3878 21.875V17.5763L66.4498 17.5075H69.3928L69.461 17.5763V18.2011L69.3928 18.2636H67.3296L67.2615 18.3261V19.2133L67.3296 19.2758H69.2689L69.3308 19.3383V19.9631L69.2689 20.0256H67.3296L67.2615 20.0881V21.1003L67.3296 21.1627H69.3928L69.461 21.2315V21.8563L69.3928 21.9375Z" fill="#A0ACE3"/>
<path d="M72.2862 21.9375H70.9046L70.8426 21.875V17.5763L70.9046 17.5075H72.2862C73.8538 17.5075 74.4176 18.3323 74.4176 19.7257C74.4176 21.119 73.8538 21.9375 72.2862 21.9375ZM72.3482 18.2698H71.7844L71.7162 18.3323V21.1128L71.7844 21.1752H72.3482C73.2218 21.1752 73.5378 20.7379 73.5378 19.7257C73.5378 18.7134 73.2218 18.2698 72.3482 18.2698V18.2698Z" fill="#A0ACE3"/>
<path d="M79.622 20.1693H78.4325L78.3705 20.2318V21.875L78.3085 21.9375H77.5527L77.4907 21.875V17.5763L77.5527 17.5075H79.622C80.5019 17.5075 81.1276 17.9512 81.1276 18.8384C81.1276 19.7257 80.5142 20.1693 79.622 20.1693ZM79.622 18.2948H78.4325L78.3705 18.3573V19.3695L78.4325 19.432H79.622C80 19.432 80.2416 19.307 80.2416 18.8634C80.2416 18.4198 80 18.2698 79.622 18.2698V18.2948Z" fill="#A0ACE3"/>
<path d="M85.4709 21.9375H84.9071L84.8451 21.8751L84.5291 21.0503L84.4052 20.9878H82.8377L82.7138 21.0503L82.373 21.8751L82.311 21.9375H81.7534L81.6915 21.8751V21.2502L83.1351 17.5825L83.197 17.5138H84.0087L84.0768 17.5825L85.5143 21.2502V21.8751L85.4709 21.9375ZM83.6431 18.6635H83.6122L82.9926 20.1693L83.0545 20.2318H84.1202L84.1822 20.1693L83.6431 18.6635Z" fill="#A0ACE3"/>
<path d="M89.4734 20.1006V20.1693L90.2912 21.244V21.8688L90.2292 21.9313H89.8513L89.7274 21.8688L88.4882 20.2255L88.3581 20.163H87.7385L87.6766 20.2255V21.8688L87.6146 21.9313H86.8587L86.7968 21.8688V17.5763L86.8587 17.5075H88.9281C89.8079 17.5075 90.4337 17.9512 90.4337 18.8384C90.4439 19.1285 90.3536 19.4132 90.1784 19.6435C90.0032 19.8738 89.7539 20.0354 89.4734 20.1006V20.1006ZM88.9095 18.2698H87.72L87.658 18.3323V19.3445L87.72 19.407H88.9095C89.2875 19.407 89.5291 19.282 89.5291 18.8384C89.5291 18.3948 89.2875 18.2698 88.9095 18.2698Z" fill="#A0ACE3"/>
<path d="M94.938 18.2698H93.6989L93.6369 18.3323V21.8751L93.575 21.9375H92.8191L92.7571 21.8751V18.3323L92.6952 18.2698H91.456L91.394 18.2073V17.5825L91.456 17.5138H94.969L95.031 17.5825V18.2073L94.938 18.2698Z" fill="#A0ACE3"/>
<path d="M96.1958 17.5075H97.0694L97.1933 17.5763L98.891 20.4817H98.9529V17.5763L99.0149 17.5075H99.7646L99.8327 17.5763V21.875L99.7646 21.9375H98.891L98.7671 21.875L97.0694 18.9634H97.0075V21.875L96.9455 21.9375H96.1958L96.1339 21.875V17.5763L96.1958 17.5075Z" fill="#A0ACE3"/>
<path d="M104.349 21.9375H101.4L101.338 21.875V17.5763L101.4 17.5075H104.349L104.411 17.5763V18.2011L104.349 18.2636H102.28L102.218 18.3261V19.2133L102.28 19.2758H104.226L104.287 19.3383V19.9631L104.226 20.0256H102.28L102.218 20.0881V21.1003L102.28 21.1627H104.349L104.411 21.2315V21.8563L104.349 21.9375Z" fill="#A0ACE3"/>
<path d="M108.488 20.1006V20.1693L109.306 21.244V21.8688L109.244 21.9313H108.866L108.742 21.8688L107.503 20.2255L107.373 20.163H106.753L106.691 20.2255V21.8688L106.629 21.9313H105.855L105.793 21.8688V17.5763L105.855 17.5075H107.924C108.804 17.5075 109.43 17.9512 109.43 18.8384C109.441 19.126 109.354 19.4086 109.182 19.6386C109.01 19.8685 108.765 20.0317 108.488 20.1006V20.1006ZM107.924 18.2698H106.735L106.673 18.3323V19.3445L106.735 19.407H107.924C108.302 19.407 108.544 19.282 108.544 18.8384C108.544 18.3948 108.302 18.2698 107.924 18.2698Z" fill="#A0ACE3"/>
</g>
<defs>
<clipPath id="clip0">
<rect width="110" height="22" fill="white"/>
</clipPath>
</defs>
</svg>
