<?xml version="1.0" standalone="no"?>
<!DOCTYPE svg PUBLIC "-//W3C//DTD SVG 20010904//EN"
 "http://www.w3.org/TR/2001/REC-SVG-20010904/DTD/svg10.dtd">
<svg version="1.0" xmlns="http://www.w3.org/2000/svg"
 width="300.000000pt" height="100.000000pt" viewBox="0 0 300.000000 100.000000"
 preserveAspectRatio="xMidYMid meet">

<g transform="translate(0.000000,100.000000) scale(0.100000,-0.100000)"
fill="#A0ACE3" stroke="none">
<path d="M471 817 c-50 -18 -76 -58 -75 -115 2 -56 34 -132 106 -250 51 -84
53 -86 58 -57 25 124 -10 437 -48 434 -4 0 -22 -5 -41 -12z"/>
<path d="M645 819 c-23 -36 -37 -123 -42 -260 -8 -198 -3 -212 44 -139 66 103
105 196 110 264 5 61 5 64 -30 98 -36 36 -73 53 -82 37z"/>
<path d="M278 703 c-28 -32 -48 -81 -48 -120 0 -32 7 -44 54 -88 54 -50 222
-153 233 -142 11 11 -130 249 -205 345 -17 22 -19 22 -34 5z"/>
<path d="M835 667 c-97 -138 -193 -302 -183 -313 6 -5 103 47 175 95 85 58
117 102 110 154 -5 35 -49 107 -65 107 -4 -1 -20 -20 -37 -43z"/>
<path d="M1170 445 l0 -135 30 0 c30 0 30 1 30 55 l0 55 64 0 65 0 3 -52 c3
-52 4 -53 36 -56 l32 -3 0 136 0 136 -32 -3 c-32 -3 -33 -4 -36 -55 l-3 -53
-65 0 -64 0 0 55 c0 54 0 55 -30 55 l-30 0 0 -135z"/>
<path d="M1480 471 c0 -97 2 -113 20 -131 26 -26 59 -33 126 -28 87 7 98 24
102 158 l4 110 -31 0 -31 0 0 -84 c0 -47 -4 -96 -10 -110 -11 -30 -51 -43 -89
-30 -25 9 -26 12 -31 114 l-5 105 -27 3 -28 3 0 -110z"/>
<path d="M1805 453 c-32 -71 -60 -131 -62 -135 -2 -5 11 -8 29 -8 28 0 35 5
45 30 11 29 13 30 76 30 62 0 65 -1 77 -30 10 -25 18 -30 47 -30 19 0 32 3 30
8 -2 4 -30 64 -62 135 -57 123 -60 127 -90 127 -30 0 -33 -4 -90 -127z m125
-24 c0 -5 -18 -9 -40 -9 -22 0 -40 2 -40 4 0 2 9 25 21 51 l21 48 19 -43 c10
-23 19 -46 19 -51z"/>
<path d="M2020 568 c0 -12 8 -35 67 -191 l25 -68 37 3 36 3 26 95 c15 52 30
88 33 80 3 -8 17 -52 31 -97 l26 -83 37 0 38 0 42 128 c23 70 42 131 42 135 0
4 -13 7 -29 7 -27 0 -30 -4 -49 -67 -12 -38 -24 -80 -27 -95 -4 -16 -11 -28
-15 -28 -4 0 -20 43 -36 95 l-28 95 -37 0 -37 0 -27 -100 c-15 -56 -29 -99
-31 -98 -1 2 -17 47 -34 101 -30 94 -32 97 -60 97 -17 0 -30 -5 -30 -12z"/>
<path d="M2543 565 c-40 -17 -63 -61 -63 -119 0 -101 41 -136 163 -136 76 0
78 1 75 23 -3 20 -9 22 -73 25 -73 3 -95 13 -95 43 0 16 10 19 83 21 76 3 82
5 85 26 3 21 1 22 -82 22 -88 0 -98 5 -76 40 6 10 32 17 82 20 66 5 73 7 76
28 3 21 0 22 -70 22 -40 -1 -87 -7 -105 -15z"/>
<path d="M2770 445 l0 -135 30 0 30 0 0 135 0 135 -30 0 -30 0 0 -135z"/>
<path d="M170 462 c0 -54 30 -103 80 -129 37 -20 58 -23 149 -23 l106 0 -25
20 c-38 29 -285 170 -298 170 -7 0 -12 -16 -12 -38z"/>
<path d="M848 427 c-70 -39 -140 -82 -155 -95 l-28 -22 117 2 c126 3 147 11
191 70 24 33 36 118 16 118 -8 0 -71 -33 -141 -73z"/>
<path d="M265 280 c-19 -7 -18 -9 14 -39 23 -21 43 -31 65 -31 30 0 128 49
141 70 8 12 -187 12 -220 0z"/>
<path d="M727 250 c77 -50 110 -51 159 -7 l37 32 -49 7 c-27 3 -85 7 -129 7
l-80 1 62 -40z"/>
</g>
</svg>
