<svg width="83" height="48" viewBox="0 0 83 48" fill="none" xmlns="http://www.w3.org/2000/svg">
<path fill-rule="evenodd" clip-rule="evenodd" d="M34.8859 9.8664C36.7688 9.8664 38.2734 8.69887 38.2734 6.23227C38.2734 3.74101 36.8263 2.48304 35.0915 2.45838C34.6847 2.44798 34.2814 2.5351 33.9152 2.71247C33.549 2.88984 33.2306 3.1523 32.9866 3.4779H32.7647V2.6557H31.1943V12.4152H32.74V6.23227C32.74 4.68654 33.5293 3.97122 34.7379 3.97122C35.9466 3.97122 36.6619 4.71943 36.6619 6.25694C36.6619 7.79445 35.9055 8.4111 34.7708 8.4111H33.7102V9.8664H34.8859ZM26.9106 5.48407L27.9548 5.59096C29.3032 5.72251 30.1418 6.37205 30.1665 7.65468C30.1665 9.08531 29.1059 10.0555 27.1326 10.0555C25.1593 10.0555 24.0165 8.98664 23.8438 7.64646H25.4553C25.5582 7.98851 25.7814 8.28179 26.0836 8.4722C26.3858 8.6626 26.7467 8.73727 27.0997 8.68243C28.1603 8.68243 28.5632 8.35355 28.5632 7.72868C28.5632 7.10381 28.1357 6.96403 27.4944 6.90648L26.4337 6.79959C24.8058 6.63515 24.0822 5.90339 24.0822 4.76876C24.0822 3.41213 25.2909 2.48304 27.0175 2.48304C28.7441 2.48304 29.8376 3.35457 29.8952 4.75231H28.3906C28.3412 4.20144 27.7986 3.81501 27.001 3.81501C26.2035 3.81501 25.6526 4.23433 25.6526 4.7112C25.6526 5.18808 26.0884 5.41007 26.9106 5.48407ZM43.6629 8.37883C43.9559 8.20157 44.1892 7.94081 44.333 7.63001L45.9034 7.64646C45.7205 8.35481 45.3014 8.97958 44.7154 9.41759C44.1294 9.85559 43.4115 10.0806 42.6804 10.0555C42.1951 10.0637 41.7135 9.97062 41.2661 9.78234C40.8188 9.59406 40.4156 9.31465 40.0822 8.96193C39.7488 8.60921 39.4926 8.1909 39.3298 7.73367C39.167 7.27644 39.1012 6.79032 39.1367 6.30627C39.0974 5.81706 39.1613 5.32504 39.3244 4.86212C39.4874 4.3992 39.7459 3.97571 40.0831 3.61911C40.4204 3.26252 40.8288 2.98077 41.2818 2.79214C41.7349 2.60351 42.2226 2.51221 42.7133 2.52415C43.1636 2.5045 43.6129 2.58024 44.0319 2.74641C44.4509 2.91258 44.83 3.16544 45.1444 3.48839C45.4588 3.81134 45.7014 4.1971 45.8563 4.62038C46.0112 5.04366 46.0749 5.49489 46.0432 5.9445V6.6516H41.6444V5.51696H44.481C44.4818 5.28873 44.4351 5.06283 44.3439 4.85363C44.2527 4.64443 44.1189 4.45652 43.951 4.30184C43.7832 4.14717 43.585 4.02912 43.3691 3.95521C43.1532 3.88131 42.9242 3.85316 42.6968 3.87256C41.5046 3.87256 40.6824 4.65365 40.6824 6.26516C40.6824 7.87667 41.5375 8.62488 42.6886 8.62488C43.0306 8.64177 43.3699 8.55609 43.6629 8.37883ZM16.518 4.75231C16.666 3.37924 17.9486 2.48304 19.667 2.48304H19.6835C21.5499 2.48304 22.7667 3.27235 22.7667 5.05653V9.84995H21.1963V9.2333H20.9743C20.3231 9.74479 19.5246 10.0331 18.6968 10.0555C17.1018 10.0555 16.1151 9.1593 16.1151 7.78623C16.1151 6.41316 17.1182 5.51696 18.9106 5.51696H20.2261V6.6516H18.9517C18.1459 6.6516 17.7266 7.02158 17.7266 7.69579C17.7266 8.36999 18.2693 8.73998 19.0421 8.73998C19.4549 8.72866 19.8601 8.6271 20.2295 8.44245C20.5988 8.25779 20.9232 7.99452 21.1799 7.67112V5.20452C21.1799 4.47277 20.8017 3.87256 19.667 3.87256C18.7873 3.87256 18.3268 4.25077 18.2035 4.75231H16.518ZM10.6146 9.8664H9.0442V0H10.6146V9.8664ZM13.7225 2.6557H15.6218L12.9743 6.15005L15.7205 9.89106H13.7801L11.4368 6.60226V5.65673L13.7225 2.6557ZM70.9723 5.50874L72.2549 2.6557H73.998L69.4841 12.4152H67.8397L69.3361 9.12642L66.3186 2.6557H68.0535L69.3361 5.52518C69.6309 6.0986 69.8704 6.69877 70.0514 7.31758H70.2734C70.4485 6.69386 70.6826 6.08819 70.9723 5.50874ZM64.0576 2.6557H65.9651L63.3094 6.12539L66.0637 9.89106H64.1234L61.7719 6.60226V5.65673L64.0576 2.6557ZM55.0874 5.48407L56.1562 5.59096C57.4964 5.72251 58.3762 6.37205 58.3762 7.63823C58.3762 9.06886 57.2744 10.0555 55.2847 10.0555C53.295 10.0555 52.1521 9.00309 51.9959 7.64646H53.6403C53.7447 7.98756 53.9682 8.2798 54.27 8.46995C54.5719 8.6601 54.9319 8.7355 55.2847 8.68243C56.3453 8.68243 56.7482 8.35355 56.7482 7.72868C56.7482 7.10381 56.3125 6.96403 55.6711 6.90648L54.6105 6.79959C52.9825 6.63515 52.2672 5.90339 52.2672 4.76876C52.2672 3.41213 53.4594 2.48304 55.1943 2.48304C56.9291 2.48304 58.0226 3.35457 58.0802 4.75231H56.5673C56.5262 4.20144 55.9671 3.81501 55.1778 3.81501C54.3885 3.81501 53.8376 4.23433 53.8376 4.7112C53.8376 5.18808 54.2652 5.41007 55.0874 5.48407ZM60.9579 9.8664H59.3875V0H60.9579V9.8664ZM48.8222 3.4779H49.0442C49.2404 3.14743 49.5257 2.87887 49.8674 2.70293C50.2091 2.52699 50.5934 2.45079 50.9764 2.48304H51.5766V4.06989H50.5817C49.4142 4.06989 48.8222 4.81809 48.8222 6.10072V9.85817H47.2518V2.6557H48.8222V3.4779ZM82.22 17.4553H0V19.0997H82.22V17.4553ZM9.1593 26.0391H12.4481C14.0925 26.0391 15.112 26.927 15.112 28.4399C15.112 29.9527 14.1172 30.7996 12.5385 30.8325H11.4532V30.9722L14.9969 34.6721H13.813L10.2117 30.8489H10.0719V34.6721H9.1593V26.0391ZM12.333 30.0349C13.6156 30.0349 14.1089 29.3443 14.1089 28.4399C14.1089 27.5355 13.6156 26.853 12.333 26.853H10.0719V30.0349H12.333ZM16.0912 30.5323C15.9617 30.9142 15.9138 31.3189 15.9507 31.7205C15.9159 32.1202 15.9658 32.5228 16.0972 32.902C16.2285 33.2812 16.4384 33.6284 16.7131 33.9209C16.9878 34.2134 17.3211 34.4447 17.6913 34.5997C18.0614 34.7546 18.4601 34.8298 18.8613 34.8201C19.4709 34.854 20.0728 34.67 20.5593 34.301C21.0458 33.932 21.3852 33.402 21.517 32.8058H20.6043C20.4843 33.1648 20.2473 33.4733 19.9314 33.682C19.6154 33.8906 19.2387 33.9874 18.8613 33.9568C18.5965 33.9698 18.332 33.9272 18.0848 33.8317C17.8375 33.7363 17.613 33.5902 17.4256 33.4028C17.2382 33.2154 17.092 32.9908 16.9966 32.7436C16.9012 32.4963 16.8586 32.2318 16.8715 31.9671H21.5992V31.2765C21.6123 30.9146 21.5498 30.5539 21.4158 30.2175C21.2818 29.8811 21.0791 29.5763 20.8207 29.3226C20.5623 29.0688 20.2539 28.8717 19.9151 28.7438C19.5764 28.6159 19.2146 28.56 18.853 28.5796C18.4499 28.5745 18.0501 28.6541 17.6797 28.8134C17.3093 28.9726 16.9765 29.208 16.7028 29.5041C16.4292 29.8002 16.2208 30.1505 16.0912 30.5323ZM20.5813 30.4862C20.6718 30.7109 20.7133 30.9523 20.703 31.1942H16.888C16.9198 30.7013 17.1432 30.2404 17.5104 29.9101C17.8776 29.5797 18.3595 29.4062 18.853 29.4265C19.0943 29.4052 19.3373 29.4357 19.5659 29.5159C19.7945 29.596 20.0033 29.7241 20.1784 29.8914C20.3535 30.0587 20.4909 30.2615 20.5813 30.4862ZM22.5694 35.8315C22.5716 35.5649 22.6387 35.3029 22.7647 35.068C22.8908 34.8331 23.072 34.6323 23.2929 34.4831V34.3351C23.135 34.2668 23.0025 34.1508 22.914 34.0033C22.8255 33.8558 22.7855 33.6843 22.7996 33.5129C22.8295 33.1206 23.0055 32.7538 23.2929 32.4851L23.4574 32.3042C23.0846 31.8959 22.8817 31.3607 22.89 30.8078C22.8866 30.4972 22.9482 30.1894 23.0708 29.9039C23.1934 29.6185 23.3743 29.3619 23.6019 29.1506C23.8295 28.9392 24.0988 28.7778 24.3925 28.6766C24.6862 28.5755 24.9978 28.5368 25.3073 28.5632C25.6116 28.5616 25.9142 28.6088 26.2035 28.703H28.7194V29.5252H27.3135C27.5948 29.8928 27.7426 30.3451 27.7328 30.8078C27.7411 31.1216 27.6828 31.4336 27.5617 31.7232C27.4406 32.0128 27.2595 32.2734 27.0303 32.4879C26.8011 32.7023 26.529 32.8657 26.232 32.9673C25.935 33.0688 25.6198 33.1063 25.3073 33.0771C24.8935 33.0797 24.484 32.9928 24.1069 32.8222L24 32.9456C23.8632 33.0799 23.7688 33.2514 23.7287 33.4389C23.7287 33.5869 23.8273 33.7842 24.148 33.7842H26.3104C26.5651 33.7527 26.8236 33.7773 27.0678 33.8563C27.312 33.9353 27.536 34.0667 27.724 34.2414C27.912 34.4161 28.0595 34.6299 28.1562 34.8676C28.2529 35.1053 28.2964 35.3614 28.2837 35.6177C28.2837 36.6537 27.6424 37.5581 25.9157 37.5581H24.7893C23.0216 37.5334 22.5694 36.6537 22.5694 35.8315ZM25.9733 36.6537C26.5406 36.6537 27.3299 36.3824 27.3299 35.5684C27.3299 34.9517 26.9435 34.5735 26.1706 34.5735H24.1562C23.9598 34.6801 23.7949 34.8365 23.678 35.027C23.5611 35.2175 23.4963 35.4354 23.4902 35.6588C23.4902 36.2344 23.8849 36.6537 24.8469 36.6537H25.9733ZM26.7955 30.7996C26.7976 30.6062 26.7589 30.4146 26.6819 30.2372C26.6048 30.0598 26.4911 29.9007 26.3483 29.7703C26.2055 29.6398 26.0367 29.5411 25.8531 29.4804C25.6694 29.4198 25.475 29.3986 25.2826 29.4183C25.0886 29.3971 24.8922 29.417 24.7064 29.4768C24.5206 29.5365 24.3494 29.6348 24.2041 29.7651C24.0587 29.8954 23.9425 30.0549 23.8629 30.2331C23.7833 30.4114 23.7422 30.6044 23.7422 30.7996C23.7422 30.9948 23.7833 31.1878 23.8629 31.3661C23.9425 31.5443 24.0587 31.7038 24.2041 31.8341C24.3494 31.9645 24.5206 32.0627 24.7064 32.1224C24.8922 32.1822 25.0886 32.2021 25.2826 32.1809C25.4746 32.2028 25.6691 32.1841 25.8535 32.1261C26.0378 32.0681 26.2079 31.9721 26.3528 31.8442C26.4978 31.7164 26.6142 31.5595 26.6947 31.3838C26.7752 31.2081 26.8179 31.0175 26.8202 30.8243L26.7955 30.7996ZM30.7749 26.409H29.7472V27.4286H30.7749V26.409ZM30.7092 28.7277H29.813V34.6722H30.7092V28.7277ZM31.9918 32.8962H32.888C32.9867 33.4964 33.5375 33.9651 34.5324 33.9651C35.667 33.9651 36.0041 33.5129 36.0041 32.9291C36.0041 32.3453 35.4944 32.1069 34.8942 32.0576L34.072 31.9836C32.8962 31.8849 32.2713 31.3751 32.2713 30.3885C32.2713 29.2703 33.1922 28.5797 34.4995 28.5797C35.8068 28.5797 36.6454 29.2045 36.7688 30.3145H35.815C35.7328 29.7636 35.2395 29.4265 34.4748 29.4265C33.7102 29.4265 33.1264 29.7225 33.1264 30.3638C33.1264 31.0052 33.5622 31.1449 34.3104 31.186L35.0668 31.2436C36.185 31.3176 36.9003 31.7287 36.9003 32.888C36.9003 34.0473 36.0781 34.7873 34.5242 34.7873C32.9702 34.7873 32.0658 33.9897 31.9918 32.8962ZM38.9805 29.5663V32.9538C38.9598 33.1846 38.9905 33.4171 39.0704 33.6347C39.1502 33.8522 39.2772 34.0494 39.4422 34.2121C39.6073 34.3748 39.8063 34.499 40.025 34.5757C40.2437 34.6523 40.4766 34.6797 40.7071 34.6557H41.8417V33.8335H40.9538C40.1973 33.8335 39.8767 33.4964 39.8767 32.7564V29.5663H41.8664V28.7441H39.8767V27.0997H38.9805V28.7441H37.6567V29.5663H38.9805ZM42.7544 31.7205C42.7175 31.3189 42.7654 30.9142 42.895 30.5323C43.0245 30.1505 43.2329 29.8002 43.5065 29.5041C43.7802 29.208 44.113 28.9726 44.4834 28.8134C44.8538 28.6541 45.2536 28.5745 45.6568 28.5796C46.0183 28.56 46.3801 28.6159 46.7189 28.7438C47.0576 28.8717 47.3661 29.0688 47.6244 29.3226C47.8828 29.5763 48.0855 29.8811 48.2195 30.2175C48.3535 30.5539 48.416 30.9146 48.4029 31.2765V31.9671H43.6588C43.6471 32.2322 43.6908 32.4969 43.7871 32.7442C43.8835 32.9914 44.0304 33.2159 44.2184 33.4032C44.4065 33.5904 44.6315 33.7364 44.8792 33.8317C45.1268 33.9271 45.3917 33.9697 45.6568 33.9568C46.0341 33.9874 46.4109 33.8906 46.7269 33.682C47.0428 33.4733 47.2797 33.1648 47.3998 32.8058H48.3125C48.1807 33.402 47.8413 33.932 47.3548 34.301C46.8683 34.67 46.2664 34.854 45.6568 34.8201C45.2563 34.8286 44.8585 34.7526 44.4893 34.5971C44.1202 34.4416 43.7879 34.2102 43.5141 33.9178C43.2403 33.6254 43.0312 33.2786 42.9003 32.9C42.7694 32.5214 42.7197 32.1195 42.7544 31.7205ZM47.5067 31.1942C47.517 30.9523 47.4755 30.7109 47.3851 30.4862C47.2946 30.2615 47.1572 30.0587 46.9821 29.8914C46.807 29.7241 46.5982 29.596 46.3696 29.5159C46.1411 29.4357 45.898 29.4052 45.6568 29.4265C45.1632 29.4062 44.6813 29.5797 44.3141 29.9101C43.9469 30.2404 43.7235 30.7013 43.6917 31.1942H47.5067ZM50.7215 28.7277H49.8253V34.6557H50.7215V31.3669C50.7215 30.2405 51.2066 29.5416 52.2426 29.5416H53.147V28.6372H52.3248C52.0167 28.6209 51.7111 28.6998 51.4493 28.863C51.1875 29.0263 50.9822 29.266 50.8613 29.5499H50.7215V28.7277ZM53.8376 31.7205C53.8376 29.961 54.9065 28.5797 56.7318 28.5797C57.094 28.5588 57.4567 28.6138 57.7964 28.7412C58.1362 28.8686 58.4456 29.0655 58.7049 29.3194C58.9642 29.5733 59.1676 29.8785 59.3021 30.2155C59.4367 30.5525 59.4993 30.9139 59.4861 31.2765V31.9671H54.7503C54.7387 32.2308 54.782 32.494 54.8773 32.7401C54.9727 32.9862 55.1181 33.2099 55.3043 33.3969C55.4906 33.5839 55.7136 33.7302 55.9593 33.8266C56.205 33.923 56.4681 33.9673 56.7318 33.9568C57.1078 33.9855 57.4827 33.8879 57.7969 33.6793C58.1112 33.4708 58.3469 33.1634 58.4666 32.8058H59.3793C59.2508 33.4021 58.9134 33.9329 58.4279 34.3024C57.9424 34.6718 57.3408 34.8554 56.7318 34.8202C56.3316 34.8287 55.9342 34.7527 55.5654 34.5972C55.1966 34.4416 54.8648 34.21 54.5916 33.9175C54.3185 33.6249 54.1101 33.278 53.9802 32.8994C53.8503 32.5208 53.8017 32.1191 53.8376 31.7205ZM58.5817 31.1943C58.5934 30.9519 58.5529 30.7099 58.4629 30.4846C58.3729 30.2593 58.2355 30.0559 58.0601 29.8883C57.8847 29.7207 57.6753 29.5927 57.4461 29.513C57.217 29.4334 56.9733 29.4039 56.7318 29.4265C56.2391 29.4062 55.7581 29.5801 55.3922 29.9106C55.0263 30.2411 54.8047 30.702 54.7749 31.1943H58.5817ZM63.482 28.5797C62.1254 28.5797 60.6619 29.517 60.6619 31.7122C60.6619 33.8993 62.1172 34.8202 63.3752 34.853C63.7692 34.8602 64.1592 34.7729 64.5125 34.5984C64.8659 34.4239 65.1722 34.1672 65.406 33.85H65.554V34.6722H66.4584V25.7924H65.554V29.5252C65.3039 29.2196 64.9871 28.9755 64.6279 28.8116C64.2687 28.6477 63.8767 28.5683 63.482 28.5797ZM65.5247 30.8763C65.6073 31.1468 65.6313 31.4318 65.5951 31.7122L65.554 31.6958C65.5924 31.9741 65.5713 32.2574 65.4923 32.5271C65.4133 32.7967 65.2781 33.0465 65.0956 33.2601C64.913 33.4737 64.6873 33.6463 64.4333 33.7663C64.1793 33.8864 63.9027 33.9513 63.6218 33.9568C63.3364 33.9586 63.0539 33.8999 62.7929 33.7846C62.5318 33.6694 62.298 33.5002 62.107 33.2882C61.916 33.0762 61.772 32.8262 61.6844 32.5546C61.5969 32.283 61.5679 31.9959 61.5992 31.7122C61.5679 31.4286 61.5969 31.1415 61.6844 30.8699C61.772 30.5983 61.916 30.3482 62.107 30.1362C62.298 29.9242 62.5318 29.7551 62.7929 29.6398C63.0539 29.5246 63.3364 29.4659 63.6218 29.4676C63.9046 29.4676 64.1842 29.5279 64.4419 29.6445C64.6995 29.7611 64.9294 29.9312 65.1161 30.1436C65.3028 30.356 65.4422 30.6058 65.5247 30.8763ZM15.2929 41.7102C15.3021 42.0562 15.2384 42.4003 15.1059 42.7201C14.9733 43.0398 14.775 43.3281 14.5237 43.5662C14.2725 43.8043 13.9739 43.9868 13.6475 44.1019C13.321 44.217 12.974 44.2622 12.629 44.2343H10.0719V47.8274H9.1593V39.1943H12.629C12.975 39.1584 13.3247 39.1976 13.6541 39.3093C13.9836 39.4209 14.2851 39.6024 14.538 39.8413C14.7909 40.0801 14.9892 40.3707 15.1195 40.6933C15.2498 41.0158 15.309 41.3627 15.2929 41.7102ZM14.3556 41.7102C14.3745 41.4754 14.3408 41.2394 14.2571 41.0193C14.1735 40.7992 14.0418 40.6004 13.8718 40.4375C13.7018 40.2745 13.4976 40.1515 13.2741 40.0772C13.0506 40.003 12.8134 39.9794 12.5797 40.0082H10.0719V43.4121H12.5797C12.8134 43.441 13.0506 43.4174 13.2741 43.3432C13.4976 43.2689 13.7018 43.1459 13.8718 42.9829C14.0418 42.82 14.1735 42.6212 14.2571 42.4011C14.3408 42.1809 14.3745 41.9449 14.3556 41.7102ZM21.2539 47.8109V43.7657C21.2539 42.3597 20.3577 41.7595 18.9024 41.7595C17.4471 41.7595 16.5098 42.5324 16.3864 43.7657H17.3073C17.3977 43.0668 17.8171 42.6228 18.8777 42.6228C19.9383 42.6228 20.3577 43.149 20.3577 43.8561V44.3577H18.2446C16.8798 44.3577 16.1398 45.221 16.1398 46.1994C16.1398 47.1778 16.8304 48 18.2939 48C18.6532 47.9976 19.0083 47.9236 19.3386 47.7824C19.669 47.6413 19.9679 47.4357 20.2179 47.1778H20.3577V47.8109H21.2539ZM20.3577 45.0976V46.1089V46.1254C20.1413 46.4401 19.8516 46.6974 19.5135 46.8751C19.1754 47.0527 18.7992 47.1453 18.4173 47.1449C17.628 47.1449 17.0771 46.7503 17.0771 46.1089C17.0771 45.4676 17.4635 45.0976 18.2857 45.0976H20.3577ZM22.8818 41.8829H23.7862V42.7051H23.9178C24.0412 42.4213 24.2481 42.1819 24.5111 42.0188C24.7741 41.8558 25.0805 41.7768 25.3895 41.7924H26.2117V42.6968H25.2991C24.2631 42.6968 23.7862 43.3957 23.7862 44.5221V47.8109H22.8818V41.8829ZM28.2919 42.7215V46.109C28.2714 46.339 28.302 46.5708 28.3813 46.7877C28.4607 47.0046 28.5869 47.2013 28.751 47.3639C28.9151 47.5264 29.1131 47.6507 29.3307 47.728C29.5484 47.8053 29.7804 47.8336 30.0103 47.8109H31.1449V46.9887H30.2652C29.5088 46.9887 29.1881 46.6516 29.1881 45.9116V42.7215H31.1778V41.8993H29.1881V40.2549H28.2919V41.8993H26.9682V42.7215H28.2919ZM32.4276 41.8828H33.332V42.6475H33.4635C33.6583 42.346 33.9304 42.1023 34.2515 41.9417C34.5725 41.7812 34.9307 41.7098 35.2888 41.7348C35.5927 41.7145 35.8974 41.7604 36.1819 41.8693C36.4664 41.9782 36.7238 42.1476 36.9364 42.3657C37.1491 42.5838 37.3118 42.8454 37.4135 43.1326C37.5151 43.4197 37.5532 43.7255 37.5252 44.0288V47.8274H36.6208V44.2343C36.6471 44.0178 36.6249 43.798 36.5558 43.5911C36.4868 43.3841 36.3726 43.1951 36.2215 43.0377C36.0704 42.8804 35.8862 42.7585 35.6822 42.6811C35.4783 42.6036 35.2596 42.5725 35.0422 42.5899C34.8023 42.5784 34.5629 42.6196 34.3406 42.7105C34.1184 42.8014 33.9188 42.9399 33.7558 43.1162C33.5928 43.2925 33.4704 43.5024 33.3971 43.7311C33.3239 43.9597 33.3017 44.2017 33.332 44.4399V47.7862H32.4276V41.8828ZM39.0306 43.6875C38.901 44.0694 38.8531 44.4741 38.89 44.8756C38.8548 45.2783 38.9056 45.6837 39.0389 46.0653C39.1722 46.4468 39.3851 46.7956 39.6634 47.0887C39.9417 47.3818 40.2791 47.6124 40.6532 47.7652C41.0273 47.9181 41.4296 47.9897 41.8335 47.9753C42.4432 48.0092 43.0451 47.8252 43.5316 47.4562C44.0181 47.0872 44.3575 46.5572 44.4892 45.9609H43.5766C43.4553 46.326 43.2133 46.6388 42.8905 46.848C42.5677 47.0572 42.1834 47.1503 41.8006 47.112C41.5356 47.1249 41.2707 47.0823 41.0231 46.9869C40.7754 46.8916 40.5503 46.7456 40.3623 46.5583C40.1743 46.3711 40.0274 46.1466 39.931 45.8994C39.8346 45.6521 39.7909 45.3874 39.8027 45.1223H44.5386V44.4317C44.5517 44.0698 44.4892 43.7091 44.3552 43.3727C44.2211 43.0363 44.0185 42.7315 43.7601 42.4778C43.5017 42.224 43.1933 42.0269 42.8545 41.899C42.5157 41.7711 42.154 41.7152 41.7924 41.7348C41.3892 41.7297 40.9895 41.8093 40.6191 41.9686C40.2486 42.1278 39.9158 42.3631 39.6422 42.6593C39.3685 42.9554 39.1602 43.3057 39.0306 43.6875ZM43.5207 43.6414C43.6112 43.8661 43.6527 44.1074 43.6424 44.3494H39.8274C39.8591 43.8565 40.0825 43.3956 40.4498 43.0653C40.817 42.7349 41.2989 42.5614 41.7924 42.5817C42.0337 42.5604 42.2767 42.5909 42.5053 42.6711C42.7338 42.7512 42.9426 42.8793 43.1178 43.0466C43.2929 43.2139 43.4302 43.4167 43.5207 43.6414ZM45.9692 41.8828H46.8654V42.705H47.0052C47.1284 42.4142 47.3401 42.1696 47.6101 42.0058C47.8802 41.842 48.1949 41.7673 48.5098 41.7924H49.332V42.6968H48.3865C47.3505 42.6968 46.8654 43.3957 46.8654 44.5221V47.8109H45.9692V41.8828Z" fill="#A0ACE3"/>
</svg>
