<?xml version="1.0" standalone="no"?>
<!DOCTYPE svg PUBLIC "-//W3C//DTD SVG 20010904//EN"
 "http://www.w3.org/TR/2001/REC-SVG-20010904/DTD/svg10.dtd">
<svg version="1.0" xmlns="http://www.w3.org/2000/svg"
 width="1460.000000pt" height="438.000000pt" viewBox="0 0 1460.000000 438.000000"
 preserveAspectRatio="xMidYMid meet">

<g transform="translate(0.000000,438.000000) scale(0.100000,-0.100000)"
fill="#A0ACE3" stroke="none">
<path d="M4830 2185 c0 -940 2 -1065 15 -1065 13 0 15 125 15 1065 0 940 -2
1065 -15 1065 -13 0 -15 -125 -15 -1065z"/>
<path d="M3935 3101 c-52 -31 -69 -67 -75 -161 l-5 -85 -47 -3 c-47 -3 -48 -4
-48 -37 0 -33 1 -34 48 -37 l47 -3 3 -232 2 -233 40 0 40 0 0 235 0 235 65 0
65 0 0 35 0 34 -62 3 -63 3 0 72 c0 62 3 75 25 98 22 24 31 26 73 22 l47 -4 0
38 0 39 -62 0 c-44 0 -72 -6 -93 -19z"/>
<path d="M1240 3079 c-17 -30 -8 -62 21 -78 24 -13 29 -13 53 2 28 19 36 63
14 85 -20 20 -76 15 -88 -9z"/>
<path d="M320 2690 l0 -380 40 0 40 0 0 323 1 322 24 -60 c12 -33 75 -177 138
-320 100 -225 118 -260 139 -263 21 -2 32 18 137 260 63 145 125 288 138 318
l23 55 0 -317 0 -318 40 0 40 0 0 380 0 380 -54 0 -54 0 -88 -197 c-48 -109
-109 -247 -135 -307 l-48 -109 -16 39 c-9 21 -68 159 -132 306 l-116 268 -58
0 -59 0 0 -380z"/>
<path d="M4208 2999 c-25 -10 -27 -15 -30 -77 l-3 -67 -42 -3 c-42 -3 -43 -4
-43 -38 0 -34 0 -34 45 -34 l45 0 0 -194 c0 -184 1 -195 23 -227 28 -42 60
-59 112 -59 72 0 85 8 85 51 l0 38 -30 -11 c-41 -14 -88 5 -98 41 -4 14 -7
100 -7 191 l0 165 68 3 67 3 0 34 0 34 -67 3 -68 3 -3 78 c-3 82 -5 84 -54 66z"/>
<path d="M1648 2860 c-130 -22 -211 -132 -212 -286 0 -68 4 -89 28 -137 44
-91 119 -136 228 -137 32 0 76 7 98 16 37 15 40 19 40 55 0 21 -2 39 -3 39 -2
0 -19 -8 -38 -17 -49 -26 -135 -23 -180 4 -124 77 -111 310 22 379 39 20 116
17 167 -6 l42 -19 0 43 c0 38 -3 45 -27 54 -42 16 -112 21 -165 12z"/>
<path d="M2433 2860 c-56 -12 -92 -32 -129 -72 -59 -62 -69 -92 -69 -208 0
-122 16 -164 85 -222 73 -63 193 -78 285 -34 102 48 144 124 145 257 0 135
-33 206 -119 252 -52 29 -136 40 -198 27z m143 -86 c98 -47 124 -257 42 -349
-56 -64 -168 -71 -233 -14 -50 44 -69 103 -63 194 6 87 35 141 89 168 43 21
121 22 165 1z"/>
<path d="M2963 2860 c-86 -18 -133 -70 -133 -149 0 -87 13 -103 140 -169 36
-18 71 -41 78 -49 19 -26 15 -77 -9 -99 -31 -28 -123 -26 -173 4 -20 12 -39
22 -42 22 -2 0 -4 -20 -4 -45 0 -40 3 -47 28 -57 15 -6 55 -13 90 -16 79 -6
139 16 182 64 25 29 30 43 30 87 0 80 -23 107 -137 163 -84 41 -97 54 -97 101
0 67 82 95 171 58 19 -8 37 -15 39 -15 2 0 4 18 4 40 0 27 -5 42 -17 48 -29
15 -105 21 -150 12z"/>
<path d="M3417 2860 c-157 -27 -246 -206 -192 -386 40 -135 189 -207 337 -162
53 16 121 78 149 136 30 60 33 204 5 266 -51 119 -157 171 -299 146z m143 -88
c104 -52 120 -277 25 -360 -78 -69 -204 -46 -258 46 -24 41 -33 143 -18 200
13 45 62 109 95 122 36 15 119 11 156 -8z"/>
<path d="M2098 2845 c-14 -8 -37 -32 -50 -52 l-23 -38 -3 48 -3 47 -40 0 -39
0 0 -270 0 -270 39 0 39 0 4 173 c3 149 6 178 25 219 29 63 60 82 123 76 l50
-5 0 43 0 44 -47 0 c-27 -1 -60 -7 -75 -15z"/>
<path d="M1240 2580 l0 -270 45 0 45 0 0 270 0 270 -45 0 -45 0 0 -270z"/>
<path d="M5545 2630 c-11 -17 5 -32 21 -19 7 6 11 15 8 20 -7 12 -21 11 -29
-1z"/>
<path d="M5650 2495 c0 -90 4 -145 10 -145 6 0 10 55 10 145 0 90 -4 145 -10
145 -6 0 -10 -55 -10 -145z"/>
<path d="M6620 2495 c0 -90 4 -145 10 -145 6 0 10 55 10 145 0 90 -4 145 -10
145 -6 0 -10 -55 -10 -145z"/>
<path d="M7310 2578 c0 -59 -1 -60 -18 -45 -46 42 -117 5 -129 -66 -14 -88 59
-148 125 -101 20 14 22 14 22 0 0 -9 7 -16 15 -16 13 0 15 23 15 145 0 122 -2
145 -15 145 -12 0 -15 -14 -15 -62z m-18 -65 c23 -20 24 -90 2 -121 -18 -26
-60 -29 -86 -5 -26 23 -25 96 2 123 24 24 57 26 82 3z"/>
<path d="M8230 2578 c0 -59 -1 -60 -18 -45 -46 42 -117 5 -129 -66 -14 -88 59
-148 125 -101 20 14 22 14 22 0 0 -9 7 -16 15 -16 13 0 15 23 15 145 0 122 -2
145 -15 145 -12 0 -15 -14 -15 -62z m-18 -65 c23 -20 24 -90 2 -121 -18 -26
-60 -29 -86 -5 -26 23 -25 96 2 123 24 24 57 26 82 3z"/>
<path d="M8875 2630 c-11 -17 5 -32 21 -19 7 6 11 15 8 20 -7 12 -21 11 -29
-1z"/>
<path d="M9165 2630 c-11 -17 5 -32 21 -19 7 6 11 15 8 20 -7 12 -21 11 -29
-1z"/>
<path d="M5372 2610 c-43 -41 -23 -98 47 -135 83 -43 49 -127 -39 -97 -24 9
-30 8 -30 -2 0 -17 22 -26 61 -26 40 0 68 16 79 46 15 37 -3 68 -59 103 -43
26 -51 36 -51 61 0 35 29 55 71 46 22 -4 29 -2 29 9 0 24 -81 20 -108 -5z"/>
<path d="M6444 2621 c-32 -14 -72 -68 -80 -107 -8 -46 9 -104 40 -133 26 -24
89 -37 130 -27 44 11 29 22 -29 22 -70 -1 -105 29 -112 96 -10 86 49 147 129
134 30 -5 39 -3 36 6 -5 15 -84 21 -114 9z"/>
<path d="M7510 2491 c0 -119 2 -141 15 -141 11 0 15 13 15 54 l0 53 47 6 c57
6 83 33 83 87 0 52 -26 73 -100 78 l-60 4 0 -141z m124 87 c9 -12 16 -28 16
-36 0 -24 -48 -62 -80 -62 l-30 0 0 60 0 60 39 0 c30 0 44 -6 55 -22z"/>
<path d="M8750 2575 c0 -18 -5 -25 -20 -25 -11 0 -20 -4 -20 -9 0 -5 9 -11 20
-14 18 -5 20 -14 20 -79 0 -79 9 -98 47 -98 29 0 30 12 1 25 -21 9 -23 17 -23
80 0 65 2 70 23 73 30 5 28 22 -3 22 -20 0 -25 5 -25 25 0 14 -4 25 -10 25 -5
0 -10 -11 -10 -25z"/>
<path d="M9270 2575 c0 -18 -5 -25 -20 -25 -11 0 -20 -4 -20 -9 0 -5 9 -11 20
-14 18 -5 20 -14 20 -79 0 -79 9 -98 47 -98 29 0 30 12 1 25 -21 9 -23 17 -23
80 0 65 2 70 23 73 30 5 28 22 -3 22 -20 0 -25 5 -25 25 0 14 -4 25 -10 25 -5
0 -10 -11 -10 -25z"/>
<path d="M5550 2450 c0 -60 4 -100 10 -100 6 0 10 40 10 100 0 60 -4 100 -10
100 -6 0 -10 -40 -10 -100z"/>
<path d="M5726 2528 c25 -82 68 -178 78 -178 14 0 92 188 82 197 -11 11 -22
-9 -51 -90 l-28 -78 -13 30 c-7 17 -21 55 -30 86 -10 32 -23 55 -32 55 -9 0
-11 -7 -6 -22z"/>
<path d="M5957 2530 c-45 -35 -48 -119 -7 -160 20 -20 71 -27 104 -14 30 12
16 22 -23 17 -31 -4 -43 -1 -60 16 -11 11 -21 30 -21 41 0 18 7 20 71 20 l72
0 -7 33 c-12 63 -78 87 -129 47z m87 -16 c31 -31 20 -44 -39 -44 -59 0 -63 4
-39 38 18 26 56 29 78 6z"/>
<path d="M6150 2450 c0 -118 16 -134 22 -22 4 85 0 122 -13 122 -5 0 -9 -45
-9 -100z"/>
<path d="M6196 2534 c-23 -22 -20 -24 14 -11 17 6 30 15 30 19 0 14 -28 9 -44
-8z"/>
<path d="M6735 2527 c-20 -16 -28 -35 -32 -69 -5 -42 -3 -50 25 -78 85 -84
204 20 147 129 -8 16 -22 31 -30 35 -35 13 -84 6 -110 -17z m107 -14 c12 -11
18 -30 18 -61 0 -54 -21 -82 -62 -82 -41 0 -68 32 -68 80 0 68 65 105 112 63z"/>
<path d="M6941 2464 c3 -71 7 -88 23 -100 26 -18 70 -18 86 1 7 8 16 15 21 15
5 0 9 -7 9 -15 0 -8 5 -15 10 -15 6 0 10 40 10 100 0 60 -4 100 -10 100 -5 0
-10 -24 -10 -54 0 -73 -16 -115 -48 -123 -46 -11 -57 6 -60 96 -2 65 -6 81
-18 81 -14 0 -16 -13 -13 -86z"/>
<path d="M7730 2450 c0 -118 16 -134 22 -22 4 85 0 122 -13 122 -5 0 -9 -45
-9 -100z"/>
<path d="M7776 2534 c-23 -22 -20 -24 14 -11 17 6 30 15 30 19 0 14 -28 9 -44
-8z"/>
<path d="M7885 2527 c-20 -16 -28 -35 -32 -69 -5 -42 -3 -50 25 -78 85 -84
204 20 147 129 -8 16 -22 31 -30 35 -35 13 -84 6 -110 -17z m107 -14 c12 -11
18 -30 18 -61 0 -54 -21 -82 -62 -82 -41 0 -68 32 -68 80 0 68 65 105 112 63z"/>
<path d="M8321 2464 c3 -71 7 -88 23 -100 26 -18 70 -18 86 1 7 8 16 15 21 15
5 0 9 -7 9 -15 0 -8 5 -15 10 -15 6 0 10 40 10 100 0 60 -4 100 -10 100 -5 0
-10 -24 -10 -54 0 -73 -16 -115 -48 -123 -46 -11 -57 6 -60 96 -2 65 -6 81
-18 81 -14 0 -16 -13 -13 -86z"/>
<path d="M8587 2539 c-24 -14 -47 -62 -47 -99 0 -48 49 -92 97 -88 20 2 38 8
40 14 2 6 -10 8 -31 6 -46 -5 -76 24 -76 76 0 51 35 86 79 80 21 -3 31 0 31 9
0 16 -66 17 -93 2z"/>
<path d="M8880 2450 c0 -60 4 -100 10 -100 6 0 10 40 10 100 0 60 -4 100 -10
100 -6 0 -10 -40 -10 -100z"/>
<path d="M8946 2528 c25 -82 68 -178 78 -178 14 0 92 188 82 197 -11 11 -22
-9 -51 -90 l-28 -78 -13 30 c-7 17 -21 55 -30 86 -10 32 -23 55 -32 55 -9 0
-11 -7 -6 -22z"/>
<path d="M9170 2450 c0 -60 4 -100 10 -100 6 0 10 40 10 100 0 60 -4 100 -10
100 -6 0 -10 -40 -10 -100z"/>
<path d="M9373 2538 c2 -7 19 -52 37 -101 33 -85 33 -88 17 -122 -11 -23 -24
-35 -37 -35 -11 0 -20 -4 -20 -10 0 -14 33 -12 53 3 25 17 130 277 113 277 -8
0 -28 -39 -46 -87 l-33 -88 -31 88 c-18 51 -37 87 -45 87 -7 0 -11 -6 -8 -12z"/>
<path d="M9653 2538 c2 -7 19 -52 37 -101 33 -85 33 -88 17 -122 -11 -23 -24
-35 -37 -35 -11 0 -20 -4 -20 -10 0 -14 33 -12 53 3 25 17 130 277 113 277 -8
0 -28 -39 -46 -87 l-33 -88 -31 88 c-18 51 -37 87 -45 87 -7 0 -11 -6 -8 -12z"/>
<path d="M9880 2405 c0 -90 4 -145 10 -145 6 0 10 27 10 61 l0 60 22 -15 c42
-30 91 -19 113 25 37 71 4 159 -60 159 -18 0 -38 -7 -45 -15 -7 -8 -16 -15
-21 -15 -5 0 -9 7 -9 15 0 8 -4 15 -10 15 -6 0 -10 -55 -10 -145z m116 117
c55 -36 30 -152 -33 -152 -51 0 -80 69 -52 123 15 27 28 37 54 37 11 0 25 -4
31 -8z"/>
<path d="M10125 2527 c-20 -16 -28 -35 -32 -69 -5 -42 -3 -50 25 -78 85 -84
204 20 147 129 -8 16 -22 31 -30 35 -35 13 -84 6 -110 -17z m107 -14 c12 -11
18 -30 18 -61 0 -54 -21 -82 -62 -82 -41 0 -68 32 -68 80 0 68 65 105 112 63z"/>
<path d="M10340 2450 l0 -100 46 0 c87 0 129 45 85 89 -17 17 -18 21 -5 32 41
33 -4 79 -78 79 l-48 0 0 -100z m94 74 c9 -3 16 -16 16 -29 0 -25 -17 -35 -61
-35 -27 0 -29 3 -29 35 0 32 2 35 29 35 16 0 36 -3 45 -6z m24 -108 c5 -26
-24 -46 -65 -46 -31 0 -33 2 -33 36 l0 35 47 -3 c38 -2 49 -7 51 -22z"/>
<path d="M10550 2450 c0 -60 4 -100 10 -100 6 0 10 20 10 45 l0 45 55 0 55 0
0 -45 c0 -25 5 -45 10 -45 6 0 10 40 10 100 0 99 -16 141 -22 58 l-3 -43 -50
0 -50 0 -3 43 c-6 83 -22 41 -22 -58z"/>
<path d="M10800 2537 c-32 -16 -39 -60 -12 -83 19 -16 19 -17 -4 -52 -13 -19
-24 -39 -24 -43 0 -17 29 -9 35 10 10 33 46 71 66 71 16 0 19 -7 19 -45 0 -25
5 -45 10 -45 6 0 10 40 10 100 l0 100 -37 0 c-21 0 -49 -6 -63 -13z m80 -42
c0 -33 -2 -35 -34 -35 -37 0 -60 19 -50 43 6 17 24 24 62 26 19 1 22 -4 22
-34z"/>
<path d="M5545 2060 c-11 -17 5 -32 21 -19 7 6 11 15 8 20 -7 12 -21 11 -29
-1z"/>
<path d="M5650 1925 c0 -90 4 -145 10 -145 6 0 10 55 10 145 0 90 -4 145 -10
145 -6 0 -10 -55 -10 -145z"/>
<path d="M7120 1925 c0 -90 4 -145 10 -145 6 0 10 55 10 145 0 90 -4 145 -10
145 -6 0 -10 -55 -10 -145z"/>
<path d="M7220 1925 c0 -90 4 -145 10 -145 6 0 10 55 10 145 0 90 -4 145 -10
145 -6 0 -10 -55 -10 -145z"/>
<path d="M7970 2008 c0 -59 -1 -60 -18 -45 -46 42 -117 5 -129 -66 -14 -88 59
-148 125 -101 20 14 22 14 22 0 0 -9 7 -16 15 -16 13 0 15 23 15 145 0 122 -2
145 -15 145 -12 0 -15 -14 -15 -62z m-18 -65 c23 -20 24 -90 2 -121 -18 -26
-60 -29 -86 -5 -26 23 -25 96 2 123 24 24 57 26 82 3z"/>
<path d="M8515 2060 c-11 -17 5 -32 21 -19 7 6 11 15 8 20 -7 12 -21 11 -29
-1z"/>
<path d="M8750 2008 c0 -59 -1 -60 -18 -45 -46 42 -117 5 -129 -66 -14 -88 59
-148 125 -101 20 14 22 14 22 0 0 -9 7 -16 15 -16 13 0 15 23 15 145 0 122 -2
145 -15 145 -12 0 -15 -14 -15 -62z m-18 -65 c23 -20 24 -90 2 -121 -18 -26
-60 -29 -86 -5 -26 23 -25 96 2 123 24 24 57 26 82 3z"/>
<path d="M9540 1925 c0 -90 4 -145 10 -145 6 0 10 24 10 53 l1 52 48 -52 c26
-29 56 -53 66 -53 15 0 8 11 -28 48 -26 26 -47 52 -47 57 0 5 19 29 42 52 28
28 37 43 26 43 -8 0 -34 -20 -57 -45 -23 -25 -44 -45 -46 -45 -3 0 -5 41 -5
90 0 53 -4 90 -10 90 -6 0 -10 -55 -10 -145z"/>
<path d="M10420 1925 c0 -90 4 -145 10 -145 6 0 10 55 10 145 0 90 -4 145 -10
145 -6 0 -10 -55 -10 -145z"/>
<path d="M11100 2008 c0 -59 -1 -60 -18 -45 -46 42 -117 5 -129 -66 -14 -88
59 -148 125 -101 20 14 22 14 22 0 0 -9 7 -16 15 -16 13 0 15 23 15 145 0 122
-2 145 -15 145 -12 0 -15 -14 -15 -62z m-18 -65 c23 -20 24 -90 2 -121 -18
-26 -60 -29 -86 -5 -26 23 -25 96 2 123 24 24 57 26 82 3z"/>
<path d="M11730 1925 c0 -90 4 -145 10 -145 6 0 10 55 10 145 0 90 -4 145 -10
145 -6 0 -10 -55 -10 -145z"/>
<path d="M12175 2060 c-11 -17 5 -32 21 -19 7 6 11 15 8 20 -7 12 -21 11 -29
-1z"/>
<path d="M5372 2040 c-43 -41 -23 -98 47 -135 83 -43 49 -127 -39 -97 -24 9
-30 8 -30 -2 0 -17 22 -26 61 -26 40 0 68 16 79 46 15 37 -3 68 -59 103 -43
26 -51 36 -51 61 0 35 29 55 71 46 22 -4 29 -2 29 9 0 24 -81 20 -108 -5z"/>
<path d="M6392 2040 c-43 -41 -23 -98 47 -135 83 -43 49 -127 -39 -97 -24 9
-30 8 -30 -2 0 -17 22 -26 61 -26 40 0 68 16 79 46 15 37 -3 68 -59 103 -43
26 -51 36 -51 61 0 35 29 55 71 46 22 -4 29 -2 29 9 0 24 -81 20 -108 -5z"/>
<path d="M8160 1920 c0 -87 4 -140 10 -140 6 0 10 47 10 122 0 67 4 118 8 113
5 -6 31 -61 58 -122 27 -62 51 -113 54 -113 3 0 27 51 54 113 27 61 52 115 55
119 3 4 5 -47 3 -112 -3 -103 -1 -120 12 -120 14 0 16 20 16 140 0 131 -1 140
-19 140 -12 0 -24 -13 -34 -37 -8 -21 -32 -74 -52 -118 l-37 -80 -50 118 c-39
90 -55 117 -69 117 -18 0 -19 -10 -19 -140z"/>
<path d="M10234 2051 c-32 -14 -72 -68 -80 -107 -8 -46 9 -104 40 -133 26 -24
89 -37 130 -27 44 11 29 22 -29 22 -70 -1 -105 29 -112 96 -10 86 49 147 129
134 30 -5 39 -3 36 6 -5 15 -84 21 -114 9z"/>
<path d="M11312 2040 c-43 -41 -23 -98 47 -135 83 -43 49 -127 -39 -97 -24 9
-30 8 -30 -2 0 -17 22 -26 61 -26 40 0 68 16 79 46 15 37 -3 68 -59 103 -43
26 -51 36 -51 61 0 35 29 55 71 46 22 -4 29 -2 29 9 0 24 -81 20 -108 -5z"/>
<path d="M9950 2005 c0 -18 -5 -25 -20 -25 -11 0 -20 -4 -20 -9 0 -5 9 -11 20
-14 18 -5 20 -14 20 -79 0 -79 9 -98 47 -98 29 0 30 12 1 25 -21 9 -23 17 -23
80 0 65 2 70 23 73 30 5 28 22 -3 22 -20 0 -25 5 -25 25 0 14 -4 25 -10 25 -5
0 -10 -11 -10 -25z"/>
<path d="M12060 2005 c0 -18 -5 -25 -20 -25 -11 0 -20 -4 -20 -9 0 -5 9 -11
20 -14 18 -5 20 -14 20 -79 0 -79 9 -98 47 -98 29 0 30 12 1 25 -21 9 -23 17
-23 80 0 65 2 70 23 73 30 5 28 22 -3 22 -20 0 -25 5 -25 25 0 14 -4 25 -10
25 -5 0 -10 -11 -10 -25z"/>
<path d="M1200 1640 l0 -380 45 0 45 0 0 144 0 143 88 5 c173 10 265 83 279
222 8 75 -12 133 -61 182 -54 55 -92 64 -258 64 l-138 0 0 -380z m297 280 c48
-29 67 -65 67 -124 0 -107 -58 -157 -191 -164 l-83 -5 0 157 0 156 88 0 c69 0
94 -4 119 -20z"/>
<path d="M5550 1880 c0 -60 4 -100 10 -100 6 0 10 40 10 100 0 60 -4 100 -10
100 -6 0 -10 -40 -10 -100z"/>
<path d="M5726 1958 c25 -82 68 -178 78 -178 14 0 92 188 82 197 -11 11 -22
-9 -51 -90 l-28 -78 -13 30 c-7 17 -21 55 -30 86 -10 32 -23 55 -32 55 -9 0
-11 -7 -6 -22z"/>
<path d="M5957 1960 c-45 -35 -48 -119 -7 -160 20 -20 71 -27 104 -14 30 12
16 22 -23 17 -31 -4 -43 -1 -60 16 -11 11 -21 30 -21 41 0 18 7 20 71 20 l72
0 -7 33 c-12 63 -78 87 -129 47z m87 -16 c31 -31 20 -44 -39 -44 -59 0 -63 4
-39 38 18 26 56 29 78 6z"/>
<path d="M6150 1880 c0 -118 16 -134 22 -22 4 85 0 122 -13 122 -5 0 -9 -45
-9 -100z"/>
<path d="M6196 1964 c-23 -22 -20 -24 14 -11 17 6 30 15 30 19 0 14 -28 9 -44
-8z"/>
<path d="M6580 1880 c0 -60 4 -100 10 -100 6 0 10 29 10 68 0 76 17 112 54
112 37 0 46 -19 46 -102 0 -63 3 -78 15 -78 12 0 15 15 15 73 0 84 19 115 63
103 29 -7 37 -30 37 -113 0 -35 4 -63 10 -63 6 0 10 34 10 83 0 69 -3 87 -18
100 -25 23 -67 21 -90 -3 -18 -19 -18 -19 -35 0 -20 24 -54 26 -85 4 -20 -14
-22 -14 -22 0 0 9 -4 16 -10 16 -6 0 -10 -40 -10 -100z"/>
<path d="M6938 1973 c-10 -2 -18 -11 -18 -19 0 -11 5 -11 24 -3 33 15 72 4 79
-22 6 -22 2 -24 -55 -34 -21 -3 -44 -13 -53 -21 -19 -20 -19 -58 1 -78 20 -20
68 -21 84 -1 7 8 16 15 21 15 5 0 9 -7 9 -15 0 -8 5 -15 10 -15 6 0 10 34 10
83 0 69 -3 87 -18 100 -18 16 -56 20 -94 10z m92 -97 c0 -1 -5 -17 -11 -35
-11 -32 -44 -49 -74 -37 -21 8 -19 53 3 65 16 10 82 15 82 7z"/>
<path d="M7428 1973 c-10 -2 -18 -11 -18 -19 0 -11 5 -11 24 -3 33 15 72 4 79
-22 6 -22 2 -24 -55 -34 -21 -3 -44 -13 -53 -21 -19 -20 -19 -58 1 -78 20 -20
68 -21 84 -1 7 8 16 15 21 15 5 0 9 -7 9 -15 0 -8 5 -15 10 -15 6 0 10 34 10
83 0 69 -3 87 -18 100 -18 16 -56 20 -94 10z m92 -97 c0 -1 -5 -17 -11 -35
-11 -32 -44 -49 -74 -37 -21 8 -19 53 3 65 16 10 82 15 82 7z"/>
<path d="M7610 1880 c0 -60 4 -100 10 -100 6 0 10 30 10 70 0 75 19 110 59
110 38 0 51 -27 51 -106 0 -43 4 -74 10 -74 6 0 10 34 10 83 0 69 -3 87 -18
100 -23 21 -66 22 -86 2 -8 -8 -17 -15 -20 -15 -3 0 -6 7 -6 15 0 8 -4 15 -10
15 -6 0 -10 -40 -10 -100z"/>
<path d="M8520 1880 c0 -60 4 -100 10 -100 6 0 10 40 10 100 0 60 -4 100 -10
100 -6 0 -10 -40 -10 -100z"/>
<path d="M8850 1880 c0 -60 4 -100 10 -100 6 0 10 29 10 68 0 76 17 112 54
112 37 0 46 -19 46 -102 0 -63 3 -78 15 -78 12 0 15 15 15 73 0 84 19 115 63
103 29 -7 37 -30 37 -113 0 -35 4 -63 10 -63 6 0 10 34 10 83 0 69 -3 87 -18
100 -25 23 -67 21 -90 -3 -18 -19 -18 -19 -35 0 -20 24 -54 26 -85 4 -20 -14
-22 -14 -22 0 0 9 -4 16 -10 16 -6 0 -10 -40 -10 -100z"/>
<path d="M9218 1973 c-10 -2 -18 -11 -18 -19 0 -11 5 -11 24 -3 33 15 72 4 79
-22 6 -22 2 -24 -55 -34 -21 -3 -44 -13 -53 -21 -19 -20 -19 -58 1 -78 20 -20
68 -21 84 -1 7 8 16 15 21 15 5 0 9 -7 9 -15 0 -8 5 -15 10 -15 6 0 10 34 10
83 0 69 -3 87 -18 100 -18 16 -56 20 -94 10z m92 -97 c0 -1 -5 -17 -11 -35
-11 -32 -44 -49 -74 -37 -21 8 -19 53 3 65 16 10 82 15 82 7z"/>
<path d="M9400 1880 c0 -118 16 -134 22 -22 4 85 0 122 -13 122 -5 0 -9 -45
-9 -100z"/>
<path d="M9446 1964 c-23 -22 -20 -24 14 -11 17 6 30 15 30 19 0 14 -28 9 -44
-8z"/>
<path d="M9747 1960 c-45 -35 -48 -119 -7 -160 20 -20 71 -27 104 -14 30 12
16 22 -23 17 -31 -4 -43 -1 -60 16 -11 11 -21 30 -21 41 0 18 7 20 71 20 l72
0 -7 33 c-12 63 -78 87 -129 47z m87 -16 c31 -31 20 -44 -39 -44 -59 0 -63 4
-39 38 18 26 56 29 78 6z"/>
<path d="M10525 1957 c-20 -16 -28 -35 -32 -69 -5 -42 -3 -50 25 -78 85 -84
204 20 147 129 -8 16 -22 31 -30 35 -35 13 -84 6 -110 -17z m107 -14 c12 -11
18 -30 18 -61 0 -54 -21 -82 -62 -82 -41 0 -68 32 -68 80 0 68 65 105 112 63z"/>
<path d="M10731 1894 c3 -71 7 -88 23 -100 26 -18 70 -18 86 1 7 8 16 15 21
15 5 0 9 -7 9 -15 0 -8 5 -15 10 -15 6 0 10 40 10 100 0 60 -4 100 -10 100 -5
0 -10 -24 -10 -54 0 -73 -16 -115 -48 -123 -46 -11 -57 6 -60 96 -2 65 -6 81
-18 81 -14 0 -16 -13 -13 -86z"/>
<path d="M11515 1957 c-20 -16 -28 -35 -32 -69 -5 -42 -3 -50 25 -78 85 -84
204 20 147 129 -8 16 -22 31 -30 35 -35 13 -84 6 -110 -17z m107 -14 c12 -11
18 -30 18 -61 0 -54 -21 -82 -62 -82 -41 0 -68 32 -68 80 0 68 65 105 112 63z"/>
<path d="M11811 1894 c3 -71 7 -88 23 -100 26 -18 70 -18 86 1 7 8 16 15 21
15 5 0 9 -7 9 -15 0 -8 5 -15 10 -15 6 0 10 40 10 100 0 60 -4 100 -10 100 -5
0 -10 -24 -10 -54 0 -73 -16 -115 -48 -123 -46 -11 -57 6 -60 96 -2 65 -6 81
-18 81 -14 0 -16 -13 -13 -86z"/>
<path d="M12180 1880 c0 -60 4 -100 10 -100 6 0 10 40 10 100 0 60 -4 100 -10
100 -6 0 -10 -40 -10 -100z"/>
<path d="M12295 1957 c-20 -16 -28 -35 -32 -69 -5 -42 -3 -50 25 -78 85 -84
204 20 147 129 -8 16 -22 31 -30 35 -35 13 -84 6 -110 -17z m107 -14 c12 -11
18 -30 18 -61 0 -54 -21 -82 -62 -82 -41 0 -68 32 -68 80 0 68 65 105 112 63z"/>
<path d="M12510 1880 c0 -60 4 -100 10 -100 6 0 10 30 10 70 0 75 19 110 59
110 38 0 51 -27 51 -106 0 -43 4 -74 10 -74 6 0 10 34 10 83 0 69 -3 87 -18
100 -23 21 -66 22 -86 2 -8 -8 -17 -15 -20 -15 -3 0 -6 7 -6 15 0 8 -4 15 -10
15 -6 0 -10 -40 -10 -100z"/>
<path d="M12741 1961 c-35 -35 -25 -64 31 -92 30 -15 39 -25 36 -42 -3 -19 -9
-22 -46 -21 -45 1 -55 -18 -13 -24 56 -9 99 26 86 69 -4 10 -24 28 -46 40 -31
15 -40 25 -37 42 2 18 9 22 41 22 44 0 44 19 -1 23 -21 2 -37 -3 -51 -17z"/>
<path d="M12963 1968 c2 -7 19 -52 37 -101 33 -85 33 -88 17 -122 -11 -23 -24
-35 -37 -35 -11 0 -20 -4 -20 -10 0 -14 33 -12 53 3 25 17 130 277 113 277 -8
0 -28 -39 -46 -87 l-33 -88 -31 88 c-18 51 -37 87 -45 87 -7 0 -11 -6 -8 -12z"/>
<path d="M13180 1835 c0 -90 4 -145 10 -145 6 0 10 27 10 61 l0 60 22 -15 c42
-30 91 -19 113 25 37 71 4 159 -60 159 -18 0 -38 -7 -45 -15 -7 -8 -16 -15
-21 -15 -5 0 -9 7 -9 15 0 8 -4 15 -10 15 -6 0 -10 -55 -10 -145z m116 117
c55 -36 30 -152 -33 -152 -51 0 -80 69 -52 123 15 27 28 37 54 37 11 0 25 -4
31 -8z"/>
<path d="M13425 1957 c-20 -16 -28 -35 -32 -69 -5 -42 -3 -50 25 -78 85 -84
204 20 147 129 -8 16 -22 31 -30 35 -35 13 -84 6 -110 -17z m107 -14 c12 -11
18 -30 18 -61 0 -54 -21 -82 -62 -82 -41 0 -68 32 -68 80 0 68 65 105 112 63z"/>
<path d="M13650 1880 l0 -100 46 0 c87 0 129 45 85 89 -17 17 -18 21 -5 32 41
33 -4 79 -78 79 l-48 0 0 -100z m94 74 c9 -3 16 -16 16 -29 0 -25 -17 -35 -61
-35 -27 0 -29 3 -29 35 0 32 2 35 29 35 16 0 36 -3 45 -6z m24 -108 c5 -26
-24 -46 -65 -46 -31 0 -33 2 -33 36 l0 35 47 -3 c38 -2 49 -7 51 -22z"/>
<path d="M13860 1880 c0 -60 4 -100 10 -100 6 0 10 20 10 45 l0 45 55 0 55 0
0 -45 c0 -25 5 -45 10 -45 6 0 10 40 10 100 0 99 -16 141 -22 58 l-3 -43 -50
0 -50 0 -3 43 c-6 83 -22 41 -22 -58z"/>
<path d="M14110 1967 c-32 -16 -39 -60 -12 -83 19 -16 19 -17 -4 -52 -13 -19
-24 -39 -24 -43 0 -17 29 -9 35 10 10 33 46 71 66 71 16 0 19 -7 19 -45 0 -25
5 -45 10 -45 6 0 10 40 10 100 l0 100 -37 0 c-21 0 -49 -6 -63 -13z m80 -42
c0 -33 -2 -35 -34 -35 -37 0 -60 19 -50 43 6 17 24 24 62 26 19 1 22 -4 22
-34z"/>
<path d="M2740 1955 c-35 -12 -35 -12 -38 -78 l-3 -67 -44 0 -45 0 0 -40 0
-40 44 0 45 0 3 -199 c3 -184 5 -202 24 -228 28 -38 93 -58 147 -47 39 8 42
12 45 45 l3 36 -48 -4 c-40 -4 -51 -2 -68 17 -18 20 -20 39 -23 201 l-4 179
71 0 71 0 0 40 0 40 -70 0 -69 0 -3 78 -3 79 -35 -12z"/>
<path d="M1803 1800 l-63 -21 0 -44 c0 -25 2 -45 4 -45 2 0 23 11 47 24 95 52
186 40 214 -28 21 -51 19 -75 -7 -80 -13 -3 -64 -11 -115 -19 -148 -24 -197
-68 -197 -179 -1 -69 20 -103 84 -135 74 -38 157 -25 215 33 l35 35 0 -41 0
-40 45 0 45 0 0 188 c-1 253 -10 291 -82 345 -39 29 -146 33 -225 7z m215
-320 c-7 -96 -60 -152 -144 -152 -42 0 -53 5 -76 31 -43 48 -32 112 24 142 18
10 141 35 187 38 10 1 12 -12 9 -59z"/>
<path d="M2445 1813 c-39 -8 -68 -28 -91 -63 l-24 -35 0 48 0 47 -45 0 -45 0
0 -275 0 -275 45 0 45 0 0 178 c0 165 2 181 23 222 30 61 76 87 128 73 l39
-10 0 43 c0 31 -4 44 -14 44 -8 0 -20 2 -28 4 -7 2 -22 2 -33 -1z"/>
<path d="M3214 1801 c-22 -10 -50 -30 -61 -45 -28 -35 -33 -33 -33 14 l0 40
-40 0 -40 0 0 -275 0 -275 40 0 40 0 0 155 c0 84 5 176 10 203 25 114 152 169
223 94 37 -39 46 -95 47 -284 l0 -168 40 0 40 0 0 208 c0 203 -1 209 -26 259
-19 40 -35 57 -68 72 -52 26 -118 27 -172 2z"/>
<path d="M3724 1796 c-98 -45 -144 -133 -144 -270 1 -126 40 -205 123 -248 57
-30 193 -31 252 -2 36 17 40 23 43 60 l3 41 -50 -24 c-63 -31 -144 -34 -198
-6 -42 21 -83 88 -83 135 l0 28 185 0 185 0 0 68 c0 74 -28 150 -71 189 -62
57 -161 68 -245 29z m173 -71 c27 -18 53 -71 53 -110 l0 -25 -141 0 -141 0 7
28 c26 106 139 161 222 107z"/>
<path d="M4326 1805 c-45 -16 -59 -28 -80 -70 l-16 -30 0 53 0 52 -45 0 -45 0
0 -275 0 -275 44 0 44 0 4 188 c3 210 11 237 77 276 28 16 40 18 72 9 l39 -10
0 43 c0 31 -4 44 -14 44 -8 0 -20 2 -28 5 -7 2 -31 -2 -52 -10z"/>
</g>
</svg>
