<svg width="110" height="27" viewBox="0 0 110 27" fill="none" xmlns="http://www.w3.org/2000/svg">
<g clip-path="url(#clip0)">
<path d="M56.4518 6.53143H56.0547V20.824H56.4518V6.53143Z" fill="#A0ACE3"/>
<path d="M27.4309 9.89918C25.2704 9.89918 23.7113 11.5539 23.723 13.669V20.8182L25.5799 19.7402V16.6114C26.0703 17.0425 26.847 17.2173 27.4601 17.2173C29.5622 17.2173 31.1388 15.5626 31.1388 13.5583C31.1388 11.5539 29.5622 9.89918 27.4309 9.89918ZM27.4309 15.382C26.3214 15.382 25.6207 14.6245 25.6032 13.5583C25.6149 12.5095 26.3098 11.7345 27.4309 11.7345C28.5403 11.7345 29.241 12.5095 29.2586 13.5583C29.2469 14.607 28.5403 15.382 27.4309 15.382ZM40.1896 7.60935L42.0581 6.53143V7.81328V10.173V13.2786V15.3761V16.9377H40.1896V14.4963V12.0667V9.35149V7.60935ZM35.5416 9.89918C33.4102 9.89918 31.8337 11.5539 31.8337 13.5583C31.8337 15.5626 33.4102 17.2173 35.5416 17.2173C37.6729 17.2173 39.2495 15.5626 39.2495 13.5583C39.2495 11.5539 37.6729 9.89918 35.5416 9.89918ZM35.5416 15.382C34.4321 15.382 33.7314 14.6245 33.7139 13.5583C33.7256 12.5095 34.4204 11.7345 35.5416 11.7345C36.651 11.7345 37.3517 12.5095 37.3692 13.5583C37.3517 14.607 36.651 15.382 35.5416 15.382ZM50.5834 10.173L46.2273 20.1131H44.2362L45.7427 16.7862L42.8114 10.173H44.8434L46.7704 14.508L48.5981 10.173H50.5834V10.173Z" fill="#A0ACE3"/>
<path d="M17.8896 12.1191L14.0649 14.3216L14.0824 14.2167L14.0941 14.1234L14.1058 13.972V13.9603V13.9486L14.1116 13.7622V13.5583V13.4126L14.0999 13.2029L14.0883 13.0106L14.0649 12.8008L14.0532 12.6843L14.024 12.4804L13.989 12.2823L13.9481 12.0842L13.9014 11.8919L13.8664 11.7753L13.808 11.5889L13.7438 11.4083L13.6912 11.2568L13.6211 11.082L13.5452 10.9072L13.4635 10.7382L13.3759 10.5692L13.2825 10.4061L13.2766 10.3944L13.1773 10.2313L13.0722 10.074L12.9613 9.91667L12.8387 9.76518L12.7102 9.61369L12.6985 9.59621L12.5642 9.44472L12.4241 9.29906L12.2723 9.15339L12.1146 9.00773L12.1029 8.99608L11.9336 8.85041L11.7526 8.70475L11.5716 8.56491L11.3672 8.41925L11.1511 8.26776L10.9876 8.15705L10.7366 7.99973L10.4563 7.82494L10.3628 7.76667L10.0183 7.56274L9.93074 7.5103L9.71469 7.38212L1.97189 2.91898V5.71572L5.79658 7.91816L5.69731 7.95312L5.60972 7.98808L5.46958 8.05217L5.4579 8.058L5.44622 8.06383L5.28273 8.15122L5.10755 8.25028L4.97909 8.32602L4.79807 8.44255L4.63457 8.55326L4.46523 8.67562L4.37181 8.74553L4.20831 8.87372L4.05065 9.00773L3.89883 9.14174L3.75285 9.27575L3.66526 9.36315L3.53096 9.50299L3.4025 9.64865L3.30323 9.77101L3.18645 9.9225L3.0755 10.074L2.9704 10.2313L2.87113 10.3886L2.7777 10.5518L2.77186 10.5692L2.68427 10.7382L2.60253 10.9072L2.52661 11.082L2.45071 11.2626L2.38063 11.4491L2.37479 11.4724L2.31056 11.6646L2.25217 11.8627L2.19962 12.0667L2.1529 12.2764L2.14707 12.2939L2.10619 12.5095L2.07116 12.7367L2.04196 12.964L2.01276 13.2087L1.98941 13.4709L1.97773 13.6748L1.96605 13.972L1.95437 14.3041V14.4148L1.94853 14.8168V14.9159V15.1664V24.0869L4.37765 22.6885V18.2836L4.4594 18.3535L4.53531 18.406L4.66377 18.4934L4.66961 18.4992L4.67545 18.505L4.83311 18.6041L5.00828 18.7089L5.13674 18.7789L5.32944 18.8779L5.50462 18.9595L5.69731 19.0469L5.79658 19.0877L5.98927 19.1634L6.18197 19.2333L6.37466 19.2974L6.56735 19.3557L6.68414 19.3848L6.87683 19.4314L7.06953 19.4722L7.22135 19.5014L7.4082 19.5305L7.59506 19.548L7.77607 19.5596L7.96877 19.5655H8.16146H8.17314L8.36583 19.5596L8.55853 19.548L8.75122 19.5305L8.94392 19.5014L9.14245 19.4664L9.15997 19.4606L9.3585 19.4198L9.55703 19.3732L9.76141 19.3149L9.97162 19.2508L9.9833 19.245L10.1935 19.1692L10.4096 19.0877L10.6198 19.0003L10.8533 18.8896L11.0927 18.7789L11.2679 18.6915L11.5307 18.5575L11.8227 18.4001L11.9161 18.3477L12.2664 18.1496L12.3482 18.103L12.5642 17.9806L20.307 13.5175L17.8896 12.1191ZM8.07387 17.1183C6.07686 17.1183 4.45356 15.5043 4.45356 13.5058C4.45356 11.5073 6.07102 9.89337 8.07387 9.89337C10.0709 9.89337 11.6942 11.5073 11.6942 13.5058C11.6942 15.5043 10.0709 17.1183 8.07387 17.1183Z" fill="#A0ACE3"/>
<path d="M63.5114 9.76517H62.6764V12.1948H61.9231V6.53726H63.6573C64.7785 6.53726 65.3098 7.11992 65.3098 8.09878C65.3098 8.94946 64.9361 9.4855 64.2296 9.64282L65.6544 12.1948H64.8077L63.5114 9.76517ZM62.6764 9.17669H63.6281C64.3464 9.17669 64.5566 8.78631 64.5566 8.13957C64.5566 7.47534 64.3289 7.15488 63.6398 7.15488H62.6705V9.17669H62.6764Z" fill="#A0ACE3"/>
<path d="M70.4309 6.53143V7.17818H68.0134V8.97858H69.9287V9.56124H68.0134V11.5423H70.5418V12.1832H67.266V6.5256H70.4309V6.53143Z" fill="#A0ACE3"/>
<path d="M75.7621 7.65596L75.2074 7.86572C74.9796 7.3355 74.5884 7.07913 74.0337 7.07913C73.1578 7.07913 72.749 7.59187 72.749 8.52994V10.3245C72.749 11.1927 73.187 11.6355 73.9753 11.6355C74.4775 11.6355 74.8336 11.4724 75.1022 11.0354V9.91666H74.2906V9.40393H75.7738V12.189H75.1548V11.6821C74.8103 12.09 74.3432 12.2589 73.8118 12.2589C72.6848 12.2589 71.9958 11.5714 71.9958 10.3303V8.52994C71.9958 7.28889 72.6381 6.45569 73.9578 6.45569C74.857 6.45569 75.5343 6.93929 75.7621 7.65596Z" fill="#A0ACE3"/>
<path d="M78.3956 6.53143V12.189H77.6423V6.53143H78.3956V6.53143Z" fill="#A0ACE3"/>
<path d="M83.4698 7.56856L82.9443 7.80162C82.7808 7.3355 82.3662 7.06165 81.8349 7.06165C81.1517 7.06165 80.8948 7.40542 80.8948 7.86571C80.8948 9.1359 83.5224 8.87371 83.5224 10.6916C83.5224 11.6996 82.8509 12.2706 81.8174 12.2706C80.994 12.2706 80.2992 11.787 80.0714 11.0004L80.6495 10.7906C80.8364 11.3675 81.2977 11.6646 81.8057 11.6646C82.4538 11.6646 82.8042 11.3675 82.8042 10.7673C82.8042 9.40975 80.1415 9.75935 80.1415 7.91233C80.1415 7.08495 80.7488 6.46151 81.7706 6.46151C82.629 6.45569 83.2304 6.8985 83.4698 7.56856Z" fill="#A0ACE3"/>
<path d="M88.4098 6.53143V7.18983H86.9967V12.1948H86.2435V7.18983H84.8304V6.53143H88.4098V6.53143Z" fill="#A0ACE3"/>
<path d="M93.1688 6.53143V7.17818H90.7514V8.97858H92.6666V9.56124H90.7514V11.5423H93.2797V12.1832H90.0039V6.5256H93.1688V6.53143Z" fill="#A0ACE3"/>
<path d="M96.5322 9.76517H95.6972V12.1948H94.9439V6.53726H96.6782C97.7993 6.53726 98.3307 7.11992 98.3307 8.09878C98.3307 8.94946 97.957 9.4855 97.2504 9.64282L98.6752 12.1948H97.8285L96.5322 9.76517ZM95.6972 9.17669H96.649C97.3672 9.17669 97.5774 8.78631 97.5774 8.13957C97.5774 7.47534 97.3497 7.15488 96.6606 7.15488H95.6913V9.17669H95.6972Z" fill="#A0ACE3"/>
<path d="M103.452 6.53143V7.17818H101.034V8.97858H102.949V9.56124H101.034V11.5423H103.563V12.1832H100.287V6.5256H103.452V6.53143Z" fill="#A0ACE3"/>
<path d="M107.119 6.53143C108.357 6.53143 109.057 7.27141 109.057 8.46585V10.2663C109.057 11.4432 108.351 12.189 107.119 12.189H105.233V6.53143H107.119V6.53143ZM107.119 7.17235H105.986V11.5656H107.119C107.901 11.5656 108.31 11.1461 108.31 10.2546V8.50664C108.31 7.60935 107.907 7.17235 107.119 7.17235Z" fill="#A0ACE3"/>
<path d="M65.4208 16.8852C65.4208 17.9515 64.8603 18.604 63.8384 18.604H62.6706V20.8181H61.9173V15.1606H63.7975C64.8427 15.1606 65.4208 15.7956 65.4208 16.8852ZM62.6764 18.0097H63.78C64.4048 18.0097 64.6734 17.6485 64.6734 16.891C64.6734 16.1278 64.4048 15.784 63.78 15.784H62.6764V18.0097Z" fill="#A0ACE3"/>
<path d="M67.0266 20.824H66.25L68.1302 15.1664H68.9536L70.8221 20.824H70.0455L69.5959 19.3848H67.4529L67.0266 20.824ZM67.6339 18.808H69.4265L68.5331 15.8656H68.5156L67.6339 18.808Z" fill="#A0ACE3"/>
<path d="M73.9811 18.3943H73.1461V20.824H72.3929V15.1664H74.1271C75.2482 15.1664 75.7796 15.749 75.7796 16.7279C75.7796 17.5786 75.4059 18.1204 74.6993 18.2719L76.1241 20.824H75.2774L73.9811 18.3943ZM73.1461 17.8116H74.0979C74.8161 17.8116 75.0263 17.4213 75.0263 16.7745C75.0263 16.1103 74.7986 15.7898 74.1096 15.7898H73.1403V17.8116H73.1461Z" fill="#A0ACE3"/>
<path d="M80.813 15.1606V15.8131H79.3999V20.8181H78.6467V15.8131H77.2336V15.1606H80.813V15.1606Z" fill="#A0ACE3"/>
<path d="M82.991 15.1606L85.3793 19.2683H85.3968V15.1606H86.0625V20.8181H85.5253L83.0903 16.6114H83.0728V20.8181H82.4071V15.1606H82.991Z" fill="#A0ACE3"/>
<path d="M91.1251 15.1606V15.8073H88.7076V17.6135H90.6229V18.1962H88.7076V20.1772H91.236V20.8181H87.9602V15.1606H91.1251Z" fill="#A0ACE3"/>
<path d="M94.4884 18.3943H93.6534V20.824H92.9002V15.1664H94.6344C95.7556 15.1664 96.2869 15.749 96.2869 16.7279C96.2869 17.5786 95.9132 18.1204 95.2067 18.2719L96.6314 20.824H95.7848L94.4884 18.3943ZM93.6534 17.8116H94.6052C95.3235 17.8116 95.5337 17.4213 95.5337 16.7745C95.5337 16.1103 95.3059 15.7898 94.6169 15.7898H93.6476V17.8116H93.6534Z" fill="#A0ACE3"/>
</g>
<defs>
<clipPath id="clip0">
<rect width="110" height="27" fill="white"/>
</clipPath>
</defs>
</svg>
