<svg width="95" height="31" viewBox="0 0 95 31" fill="none" xmlns="http://www.w3.org/2000/svg">
<g clip-path="url(#clip0)">
<path d="M11.7578 21.2238C11.7578 24.1196 10.9707 25.1813 8.78199 25.5156L11.9672 30.5347C12.1173 30.738 12.0218 30.9051 11.7442 30.9051H9.9787C9.82716 30.923 9.67378 30.8934 9.54 30.8205C9.40621 30.7476 9.2987 30.635 9.23246 30.4985L6.14285 25.6647H3.86772V30.625C3.86772 30.8509 3.80857 30.9051 3.58561 30.9051H1.72456C1.49705 30.9051 1.44244 30.8509 1.44244 30.625V17.0044C1.44244 16.8011 1.49705 16.7604 1.72456 16.7423C3.22159 16.6339 4.90973 16.5933 6.19745 16.5933C10.3518 16.5933 11.7578 17.4471 11.7578 21.2238ZM3.85862 18.6759V23.7673H5.96994C8.62728 23.7673 9.31892 23.5459 9.31892 21.278C9.31892 19.0102 8.63183 18.6759 5.96994 18.6759H3.85862Z" fill="#A0ACE3"/>
<path d="M27.9567 16.6881C28.1615 16.6881 28.2388 16.7424 28.2388 16.9682V23.826C28.2388 29.5679 27.0785 31 22.4919 31C17.9052 31 16.7449 29.5679 16.7449 23.826V16.9682C16.7449 16.7424 16.8177 16.6881 17.027 16.6881H18.879C19.0838 16.6881 19.1611 16.7424 19.1611 16.9682V23.826C19.1611 27.8919 19.8345 28.9174 22.4919 28.9174C25.1492 28.9174 25.8409 27.8964 25.8409 23.826V16.9682C25.8409 16.7424 25.9 16.6881 26.123 16.6881H27.9567Z" fill="#A0ACE3"/>
<path d="M42.7586 16.8191C42.8081 16.8202 42.8567 16.8313 42.9017 16.8517C42.9467 16.8721 42.987 16.9013 43.0202 16.9377C43.0534 16.974 43.0788 17.0167 43.0949 17.0631C43.1109 17.1095 43.1173 17.1587 43.1136 17.2077V18.3777C43.1136 18.5855 43.0226 18.6759 42.836 18.6759H39.1958C36.2791 18.6759 35.7695 19.8279 35.7695 23.7853C35.7695 27.7428 36.2791 28.9174 39.1958 28.9174H42.836C42.8741 28.9119 42.913 28.9155 42.9495 28.9277C42.986 28.9399 43.0191 28.9605 43.0461 28.9878C43.0731 29.015 43.0933 29.0482 43.105 29.0846C43.1167 29.1211 43.1197 29.1597 43.1136 29.1975V30.3675C43.1173 30.4174 43.111 30.4675 43.0952 30.5149C43.0793 30.5624 43.0542 30.6063 43.0212 30.6441C42.9882 30.6818 42.9481 30.7128 42.903 30.7351C42.8579 30.7574 42.8089 30.7707 42.7586 30.7741C41.5741 30.9406 40.3784 31.0161 39.1822 31C34.5227 31 33.326 29.342 33.326 23.7718C33.326 18.2015 34.5227 16.5933 39.1867 16.5933C40.3816 16.5683 41.5766 16.6439 42.7586 16.8191V16.8191Z" fill="#A0ACE3"/>
<path d="M58.0247 16.6881C58.3614 16.6881 58.3432 16.8553 58.1931 17.0405L52.9694 23.2478L58.6436 30.4218C58.8119 30.6431 58.8301 30.9232 58.325 30.9232H56.3047C56.2237 30.9291 56.1426 30.9134 56.0698 30.8776C55.997 30.8419 55.9351 30.7874 55.8907 30.7199L50.4622 23.7853V30.625C50.4675 30.6631 50.4638 30.7018 50.4515 30.7381C50.4392 30.7745 50.4186 30.8076 50.3913 30.8347C50.3639 30.8618 50.3306 30.8823 50.294 30.8945C50.2574 30.9068 50.2184 30.9104 50.1801 30.9051H48.3281C48.29 30.9106 48.2511 30.907 48.2146 30.8948C48.1782 30.8826 48.1451 30.862 48.118 30.8348C48.091 30.8075 48.0709 30.7743 48.0591 30.7379C48.0474 30.7015 48.0445 30.6628 48.0506 30.625V16.9682C48.0445 16.9305 48.0474 16.8918 48.0591 16.8554C48.0709 16.819 48.091 16.7858 48.118 16.7585C48.1451 16.7313 48.1782 16.7107 48.2146 16.6985C48.2511 16.6862 48.29 16.6827 48.3281 16.6881H50.1801C50.2184 16.6829 50.2574 16.6865 50.294 16.6988C50.3306 16.711 50.3639 16.7315 50.3913 16.7586C50.4186 16.7857 50.4392 16.8188 50.4515 16.8551C50.4638 16.8915 50.4675 16.9302 50.4622 16.9682V22.8412L55.5676 16.8689C55.6151 16.8102 55.6755 16.7631 55.7441 16.731C55.8126 16.6989 55.8877 16.6827 55.9635 16.6836L58.0247 16.6881Z" fill="#A0ACE3"/>
<path d="M74.2782 16.6881C74.4829 16.6881 74.5603 16.7424 74.5603 16.9682V23.826C74.5603 29.5679 73.4 31 68.8133 31C64.2267 31 63.0664 29.5679 63.0664 23.826V16.9682C63.0664 16.7424 63.1392 16.6881 63.3439 16.6881H65.2004C65.4052 16.6881 65.478 16.7424 65.478 16.9682V23.826C65.478 27.8919 66.156 28.9174 68.8133 28.9174C71.4707 28.9174 72.1623 27.8964 72.1623 23.826V16.9682C72.1623 16.7424 72.2169 16.6881 72.4444 16.6881H74.2782Z" fill="#A0ACE3"/>
<path d="M88.3976 16.9095C88.6251 16.9502 88.6979 17.0405 88.6979 17.2077V18.3597C88.6979 18.563 88.6069 18.6759 88.4204 18.6759H84.0931C82.6916 18.6759 82 19.1277 82 20.108V20.4061C82 21.1877 82.2593 21.6485 83.2513 22.0596L87.0507 23.564C88.8117 24.2687 89.4123 25.2355 89.4123 27.038V27.6163C89.4123 30.4037 87.2009 31 84.2614 31C82.7203 31.0004 81.1813 30.8886 79.6566 30.6657C79.6169 30.6619 79.5785 30.65 79.5436 30.6309C79.5088 30.6117 79.4782 30.5857 79.4539 30.5543C79.4296 30.523 79.4121 30.4871 79.4023 30.4487C79.3925 30.4104 79.3908 30.3704 79.3972 30.3314V29.2155C79.3972 29.0077 79.4882 28.9174 79.6975 28.9174H84.9167C86.3045 28.9174 86.9961 28.5063 86.9961 27.5214V27.2052C86.9961 26.3514 86.6776 25.8499 85.6311 25.4207L81.5904 23.8441C80.0752 23.2839 79.6065 22.168 79.6065 20.3881V19.9363C79.6065 17.1489 81.6815 16.5707 84.6619 16.5707C85.9149 16.5715 87.1652 16.685 88.3976 16.9095V16.9095Z" fill="#A0ACE3"/>
<path d="M90.8593 18.0389C90.8593 16.6159 91.51 15.9653 92.9296 15.9653C94.3493 15.9653 95 16.6159 95 18.0389C95 19.462 94.3539 20.1125 92.9296 20.1125C91.5054 20.1125 90.8593 19.462 90.8593 18.0389ZM94.686 18.0389C94.686 16.8327 94.1355 16.2816 92.9296 16.2816C91.7238 16.2816 91.1733 16.8282 91.1733 18.0389C91.1733 19.2497 91.7238 19.7963 92.9296 19.7963C94.1355 19.7963 94.6997 19.2451 94.6997 18.0389H94.686ZM93.776 17.682C93.776 18.0886 93.6668 18.2558 93.371 18.319L93.826 19.0464C93.8488 19.078 93.826 19.1051 93.7942 19.1051H93.4074C93.3831 19.1064 93.3589 19.1012 93.3373 19.0901C93.3157 19.0789 93.2975 19.0623 93.2846 19.0418L92.8295 18.3461H92.6248V19.0554C92.6248 19.0961 92.6248 19.1051 92.5838 19.1051H92.1925C92.1561 19.1051 92.147 19.1051 92.147 19.0554V17.0496C92.147 17.0179 92.147 17.0089 92.188 17.0044C92.4473 17.0044 92.7249 16.9773 92.9615 16.9773C93.5849 16.9773 93.7896 17.1444 93.7896 17.682H93.776ZM92.643 17.3884V17.9847H92.9342C93.2209 17.9847 93.2937 17.9395 93.2937 17.7001C93.2937 17.4607 93.2209 17.3884 92.9342 17.3884H92.643Z" fill="#A0ACE3"/>
<path d="M4.60483 8.5564C4.1303 8.5418 3.66333 8.43449 3.2306 8.24061C2.79787 8.04672 2.40788 7.77006 2.08291 7.42644C1.75794 7.08282 1.50436 6.67898 1.33669 6.23801C1.16901 5.79704 1.09052 5.32757 1.10569 4.85646C1.07628 3.89858 1.43125 2.96832 2.09256 2.27024C2.75386 1.57217 3.66735 1.16344 4.63213 1.13393C5.50119 1.13939 6.33811 1.46083 6.98461 2.03746L7.54884 1.18815C7.18015 0.8255 6.74022 0.542087 6.25643 0.355555C5.77265 0.169023 5.25536 0.0833649 4.73679 0.103914C4.1081 0.106239 3.48612 0.23232 2.90683 0.474863C2.32754 0.717405 1.80245 1.07159 1.36193 1.51693C0.92142 1.96227 0.57423 2.48992 0.340453 3.06935C0.106677 3.64878 -0.00904595 4.26848 -1.73003e-05 4.89261C-0.0133752 5.5066 0.0971426 6.11703 0.325028 6.68797C0.552912 7.25891 0.893557 7.7788 1.3269 8.21704C1.76025 8.65528 2.27754 9.003 2.8483 9.23973C3.41906 9.47646 4.03177 9.59741 4.65033 9.59546C5.72048 9.57751 6.75001 9.18561 7.55794 8.48864L6.99371 7.61222C6.34671 8.21615 5.49287 8.55362 4.60483 8.5564V8.5564ZM11.9626 0.0948792C10.711 0.116265 9.51836 0.626791 8.64349 1.51568C7.76863 2.40457 7.2821 3.60012 7.28948 4.84291C7.26994 5.46467 7.37641 6.084 7.60258 6.66412C7.82874 7.24425 8.16999 7.77335 8.60607 8.22002C9.04215 8.6667 9.56417 9.02184 10.1411 9.26436C10.7181 9.50689 11.3383 9.63187 11.9648 9.63187C12.5914 9.63187 13.2116 9.50689 13.7886 9.26436C14.3655 9.02184 14.8875 8.6667 15.3236 8.22002C15.7597 7.77335 16.101 7.24425 16.3271 6.66412C16.5533 6.084 16.6598 5.46467 16.6402 4.84291C16.6464 3.5997 16.1589 2.40416 15.2833 1.5154C14.4077 0.626635 13.2146 0.116258 11.9626 0.0948792ZM11.9626 8.53382C11.4845 8.52384 11.0131 8.42044 10.5753 8.22954C10.1375 8.03863 9.74184 7.76395 9.41098 7.4212C9.08012 7.07844 8.82052 6.67433 8.647 6.23194C8.47349 5.78955 8.38947 5.31755 8.39973 4.84291C8.37531 4.36335 8.44937 3.88386 8.61739 3.43359C8.78542 2.98332 9.04391 2.57168 9.37715 2.22368C9.71039 1.87567 10.1114 1.59858 10.5559 1.40924C11.0003 1.21989 11.4789 1.12225 11.9626 1.12225C12.4462 1.12225 12.9248 1.21989 13.3693 1.40924C13.8137 1.59858 14.2148 1.87567 14.548 2.22368C14.8812 2.57168 15.1397 2.98332 15.3078 3.43359C15.4758 3.88386 15.5498 4.36335 15.5254 4.84291C15.5357 5.31755 15.4517 5.78955 15.2781 6.23194C15.1046 6.67433 14.845 7.07844 14.5142 7.4212C14.1833 7.76395 13.7877 8.03863 13.3499 8.22954C12.9121 8.42044 12.4406 8.52384 11.9626 8.53382ZM40.3697 4.01618L39.7327 3.76771C39.1776 3.55087 38.4905 3.17139 38.4905 2.46212C38.5208 2.09581 38.6935 1.75559 38.9721 1.51356C39.2507 1.27153 39.6133 1.14671 39.983 1.16556C40.306 1.14695 40.6233 1.2556 40.8661 1.4679C41.1089 1.6802 41.2576 1.97902 41.2798 2.29948H42.2991C42.2836 1.71065 42.0371 1.15108 41.6121 0.740091C41.1871 0.3291 40.6172 0.0991969 40.0239 0.099396C38.6589 0.099396 37.3984 0.980335 37.3984 2.4576C37.3984 3.72706 38.3085 4.31887 39.3368 4.76611L39.9511 5.03265C40.7247 5.35792 41.4937 5.77806 41.4937 6.75839C41.4969 6.97849 41.4565 7.19708 41.3747 7.40167C41.2929 7.60627 41.1713 7.79286 41.0169 7.95081C40.8625 8.10875 40.6782 8.23494 40.4747 8.32219C40.2711 8.40943 40.0522 8.45601 39.8305 8.45928C39.6089 8.46254 39.3887 8.42242 39.1826 8.3412C38.9765 8.25999 38.7886 8.13927 38.6295 7.98594C38.4704 7.83262 38.3433 7.64968 38.2555 7.44758C38.1676 7.24549 38.1207 7.02818 38.1174 6.80808L36.9935 6.83067C37.13 8.56544 38.3085 9.59998 39.7509 9.59998C40.1287 9.60868 40.5044 9.54106 40.8551 9.40122C41.2058 9.26138 41.5242 9.05224 41.7911 8.78649C42.0579 8.52075 42.2675 8.20394 42.4072 7.85531C42.547 7.50667 42.6139 7.13348 42.6039 6.75839C42.5857 5.23143 41.6393 4.51764 40.3697 4.01167V4.01618ZM61.6421 0.293654H60.3635V9.4012H61.4829V5.57477H62.1245C63.8172 5.57477 65.2505 4.83388 65.2505 2.91388C65.2414 1.25591 64.3859 0.289137 61.6421 0.289137V0.293654ZM61.8333 4.57185H61.4829V1.30109H61.7832C62.8798 1.30109 64.2085 1.47276 64.2085 2.90033C64.2085 4.3279 62.9663 4.56734 61.8333 4.56734V4.57185ZM66.0331 9.4012H70.8245V8.36215H67.1434V4.91519H70.7199V3.87614H67.1434V1.32819H70.8245V0.289137H66.0331V9.4012ZM47.6683 1.13393C48.5388 1.13912 49.3772 1.46052 50.0254 2.03746L50.5896 1.18815C50.2207 0.82572 49.7808 0.542453 49.297 0.355936C48.8133 0.169419 48.2961 0.0836357 47.7775 0.103914C47.1473 0.105028 46.5236 0.23052 45.9426 0.473092C45.3617 0.715664 44.8351 1.07048 44.3935 1.5169C43.9519 1.96332 43.6041 2.49245 43.3703 3.07352C43.1365 3.65459 43.0214 4.27601 43.0316 4.90164C43.0195 5.51488 43.1309 6.12434 43.3594 6.69423C43.5878 7.26411 43.9287 7.78293 44.3619 8.2202C44.7951 8.65747 45.312 9.00438 45.8821 9.24055C46.4523 9.47672 47.0642 9.59739 47.682 9.59546C48.7521 9.57751 49.7817 9.18561 50.5896 8.48864L50.0254 7.61222C49.3797 8.21249 48.5301 8.54956 47.6456 8.5564C47.1707 8.54239 46.7032 8.4355 46.27 8.24188C45.8367 8.04825 45.4462 7.77168 45.1207 7.428C44.7953 7.08432 44.5413 6.68028 44.3733 6.23902C44.2054 5.79776 44.1267 5.32794 44.1419 4.85646C44.1125 3.89858 44.4675 2.96832 45.1288 2.27024C45.7901 1.57217 46.7036 1.16344 47.6683 1.13393V1.13393ZM24.3028 0.311725L22.7194 4.70738C22.3235 5.85486 22.005 6.85326 21.782 7.77034H21.7411C21.5181 6.82615 21.2132 5.82776 20.831 4.70738L19.3112 0.311725H17.8597L17.2409 9.4012H18.3375L18.5741 5.50249C18.6514 4.1472 18.7197 2.62024 18.7424 1.48631H18.7697C19.02 2.56602 19.3795 3.74513 19.7981 5.0191L21.2405 9.34699H22.1096L23.6795 4.93778C24.1345 3.69543 24.4985 2.55247 24.8034 1.48631H24.8443C24.8443 2.62024 24.908 4.14268 24.9763 5.40762L25.1992 9.4012H26.3186L25.768 0.311725H24.3028ZM34.3407 0.311725L32.7572 4.70738C32.3613 5.85486 32.0474 6.85326 31.8198 7.77034H31.7834C31.5559 6.82615 31.2556 5.82776 30.8734 4.70738L29.3582 0.311725H27.9021L27.2787 9.4012H28.3753L28.6119 5.50249C28.6938 4.1472 28.7575 2.62024 28.7848 1.48631H28.8121C29.0624 2.56602 29.4173 3.74513 29.8405 5.0191L31.2784 9.34699H32.152L33.7264 4.93778C34.1814 3.69543 34.5454 2.55247 34.8503 1.48631H34.8867C34.8867 2.62024 34.955 4.14268 35.0187 5.40762L35.2462 9.4012H36.3655L35.8059 0.311725H34.3407ZM72.9222 1.26946C72.983 1.2558 73.0377 1.22283 73.0779 1.17555C73.1181 1.12826 73.1417 1.06925 73.1452 1.00744C73.1461 0.96306 73.1373 0.91901 73.1192 0.878413C73.1011 0.837816 73.0742 0.801666 73.0405 0.772524C72.9274 0.703907 72.7948 0.673773 72.6628 0.686689C72.5237 0.684982 72.3848 0.698619 72.2488 0.727348V1.82061H72.499V1.36885H72.6173C72.6437 1.36506 72.6707 1.36668 72.6964 1.37361C72.7222 1.38053 72.7463 1.39262 72.7671 1.40912C72.788 1.42563 72.8053 1.4462 72.8179 1.46957C72.8305 1.49295 72.8381 1.51863 72.8403 1.54504C72.8547 1.63643 72.8839 1.72492 72.9267 1.80706H73.1998C73.1534 1.72513 73.1254 1.6342 73.1179 1.54052C73.1139 1.48173 73.0935 1.4252 73.0589 1.37731C73.0244 1.32941 72.977 1.29206 72.9222 1.26946V1.26946ZM72.6219 1.18815H72.5036V0.871912C72.5505 0.867543 72.5977 0.867543 72.6446 0.871912C72.8039 0.871912 72.8721 0.939676 72.8721 1.04358C72.8721 1.14749 72.7629 1.18815 72.6219 1.18815V1.18815ZM72.6765 0.153608C72.4529 0.148256 72.2328 0.209545 72.0446 0.32957C71.8563 0.449595 71.7087 0.622851 71.6206 0.82699C71.5325 1.03113 71.508 1.25679 71.5504 1.47486C71.5927 1.69294 71.6998 1.89342 71.858 2.05046C72.0162 2.20749 72.2181 2.31388 72.4377 2.35589C72.6574 2.39791 72.8847 2.37362 73.0903 2.28617C73.2959 2.19871 73.4704 2.0521 73.5913 1.86525C73.7122 1.67839 73.7739 1.45986 73.7685 1.23784C73.765 0.950602 73.6482 0.676193 73.4431 0.473493C73.2381 0.270792 72.9613 0.155951 72.6719 0.153608H72.6765ZM72.6765 2.14137C72.4731 2.0978 72.291 1.98639 72.1603 1.82569C72.0297 1.66499 71.9584 1.4647 71.9584 1.25817C71.9584 1.05164 72.0297 0.85135 72.1603 0.690648C72.291 0.529946 72.4731 0.418536 72.6765 0.374972V0.374972C72.8798 0.418536 73.062 0.529946 73.1926 0.690648C73.3233 0.85135 73.3946 1.05164 73.3946 1.25817C73.3946 1.4647 73.3233 1.66499 73.1926 1.82569C73.062 1.98639 72.8798 2.0978 72.6765 2.14137Z" fill="#A0ACE3"/>
<path d="M56.9054 0.465316C55.4402 -0.0677642 53.5018 0.650539 53.3016 2.10522C53.1014 3.55989 53.9568 4.28723 55.7359 4.63509C57.5833 4.9965 57.3695 6.60026 56.9054 7.13786C56.56 7.51321 56.1076 7.77521 55.6085 7.889C55.1094 8.0028 54.5873 7.96298 54.1115 7.77485C53.161 7.53533 52.3376 6.94627 51.8079 6.12685C51.2782 5.30743 51.0818 4.31884 51.2585 3.36112C51.6271 1.12941 53.4699 0.0271057 55.3537 0.0316233C55.1739 0.0119542 54.9932 0.00139948 54.8122 0C53.6038 0.00285148 52.439 0.448479 51.5411 1.25143C50.6432 2.05439 50.0754 3.15816 49.9467 4.3511C49.8179 5.54404 50.1372 6.74218 50.8434 7.7158C51.5495 8.68941 52.5928 9.36996 53.7732 9.62696C54.9536 9.88396 56.188 9.69932 57.2397 9.10844C58.2914 8.51756 59.0864 7.56203 59.4723 6.42508C59.8582 5.28812 59.8077 4.04975 59.3307 2.94743C58.8536 1.84511 57.9835 0.956421 56.8872 0.451763L56.9054 0.465316Z" fill="#A0ACE3"/>
</g>
<defs>
<clipPath id="clip0">
<rect width="95" height="31" fill="white"/>
</clipPath>
</defs>
</svg>
