<?xml version="1.0" encoding="utf-8"?>
<!-- Generator: Adobe Illustrator 25.2.1, SVG Export Plug-In . SVG Version: 6.00 Build 0)  -->
<svg version="1.1" id="Слой_1" xmlns="http://www.w3.org/2000/svg" xmlns:xlink="http://www.w3.org/1999/xlink" x="0px" y="0px"
	 viewBox="0 0 192 171" style="enable-background:new 0 0 192 171;" xml:space="preserve">
<style type="text/css">
	.st0{fill:#A0ACE3;}
</style>
<g>
	<path class="st0" d="M188.4,69.3c-2-0.5-4.2,0.4-5.1,2.3l-12.6,24.6c-0.4,0.7-1.1,1.1-1.8,1.1l0,0c-0.8,0-1.5-0.4-1.8-1.1
		l-12.7-24.6c-1-1.9-3.1-2.8-5.1-2.3c-2.1,0.5-3.5,2.4-3.5,4.5v25.9c0,1.2,1,2.2,2.2,2.2c1.2,0,2.2-1,2.2-2.2l0,0V73.3
		c0-0.1,0-0.2,0.1-0.3c0.2-0.1,0.2,0.1,0.2,0.2l12.6,24.7c1.6,3.2,5.5,4.4,8.7,2.8c1.2-0.6,2.2-1.6,2.8-2.8l12.6-24.7
		c0-0.1,0.1-0.2,0.2-0.2c0.1,0,0.1,0.2,0.1,0.3v26.3c0,1.2,1,2.2,2.2,2.2c1.2,0,2.2-1,2.2-2.2V73.8
		C191.9,71.6,190.5,69.8,188.4,69.3z"/>
	<path class="st0" d="M36.8,69.4c-1.1-0.6-2.4-0.2-2.9,0.9v0L20.1,97c-0.3,0.5-0.7,0.8-1.1,0.8S18.2,97.6,18,97L4.1,70.4
		c-0.5-1.1-1.9-1.5-2.9-1c0,0,0,0-0.1,0c-1.1,0.6-1.5,1.9-0.9,3L14,98.7c1,2,2.9,3.2,5,3.2s3.9-1.2,5-3.2l13.9-26.3
		C38.3,71.3,37.9,70,36.8,69.4z"/>
	<path class="st0" d="M53.5,68.5c-9.1,0-16.6,7.6-16.6,17s7.5,17,16.6,17c5.3,0,10.2-2.6,13.3-6.8c0.7-1,0.5-2.4-0.4-3.1
		c-1-0.7-2.3-0.5-3,0.4c0,0,0,0,0,0c-2.4,3.2-5.9,5.2-9.8,5.2c-6,0-11-4.6-12.1-10.5H68c1.2,0,2.2-1,2.2-2.2
		C70.1,76.2,62.7,68.5,53.5,68.5z M41.5,83.7c1-5.8,6-10.9,12.1-10.9s11.1,5.1,12.1,10.9H41.5z"/>
	<path class="st0" d="M89.6,68.5c-9.1,0-16.6,7.6-16.6,17s7.5,17,16.6,17c5.3,0,10.2-2.6,13.3-6.8c0.7-1,0.5-2.4-0.4-3.1
		c-1-0.7-2.3-0.5-3,0.4c0,0,0,0,0,0c-2.4,3.2-5.9,5.2-9.8,5.2c-6,0-11-4.6-12.1-10.5h26.5c1.2,0,2.2-1,2.2-2.2
		C106.2,76.2,98.8,68.5,89.6,68.5z M77.5,83.7c1-5.8,6-10.9,12.1-10.9s11.1,5.1,12.1,10.9H77.5z"/>
	<path class="st0" d="M128.6,72.3c-1-1.9-2.8-3.1-4.8-3.1c-2,0-3.8,1.2-4.8,3.1l-13.8,26.4c-0.6,1.1-0.2,2.4,0.9,3l0,0
		c0.3,0.2,0.7,0.3,1,0.3c0.8,0,1.6-0.4,2-1.2l3.9-7.4h15.9c1.2,0,2.2-1,2.2-2.2l0,0c0-1.2-1.1-2.1-2.3-2.1l-13.6,0l7.6-15.2
		c0.3-0.4,0.6-0.7,1-0.7c0.4,0,0.7,0.3,1,0.7l13.8,26.9c0.5,1.1,1.9,1.5,2.9,1c0,0,0,0,0.1,0c1.1-0.6,1.4-2.1,0.8-3.2L128.6,72.3z"
		/>
</g>
</svg>
