<svg width="46" height="46" viewBox="0 0 46 46" fill="none" xmlns="http://www.w3.org/2000/svg">
<circle r="22.5" transform="matrix(-1 0 0 1 23 23)" fill="white" stroke="#BDE3FE"/>
<path d="M31.6667 13.4668H14.3335C13.3804 13.4668 12.6001 14.2471 12.6001 15.2002V30.8002C12.6001 31.7534 13.3804 32.5334 14.3335 32.5334H31.6667C32.6198 32.5334 33.4001 31.7534 33.4001 30.8002V15.2002C33.4001 14.2471 32.6198 13.4668 31.6667 13.4668ZM31.6667 15.2002V16.9344H14.3335V15.2002H31.6667ZM14.3335 30.8002V18.666H31.6667V30.8002H14.3335Z" fill="#1F40E5"/>
<path d="M24.6563 22.4079L26.0969 21.1375C25.1633 20.6698 24.1147 20.4004 23.0001 20.4004C19.1711 20.4004 16.0667 23.5045 16.0667 27.3336H17.8001C17.8001 24.4619 20.1284 22.1336 23.0001 22.1336C23.5796 22.1338 24.1358 22.2326 24.6563 22.4079Z" fill="#1F40E5"/>
<path d="M27.9265 25.6774C28.101 26.198 28.2 26.7536 28.2 27.3329H29.9335C29.9335 26.2193 29.6644 25.1697 29.1971 24.2373L27.9265 25.6774Z" fill="#1F40E5"/>
<path d="M28.2094 22.7376L27.5966 22.125L23.5476 25.6964C23.3739 25.6389 23.1929 25.5999 23 25.5999C22.0427 25.5999 21.2666 26.3752 21.2666 27.3331C21.2666 28.2914 22.0427 29.0667 23 29.0667C23.9573 29.0667 24.7334 28.2914 24.7334 27.3331C24.7334 27.1401 24.6944 26.9592 24.637 26.7858L28.2094 22.7376Z" fill="#1F40E5"/>
</svg>
