<svg width="46" height="46" viewBox="0 0 46 46" fill="none" xmlns="http://www.w3.org/2000/svg">
<circle r="22.5" transform="matrix(-1 0 0 1 23 23)" fill="white" stroke="#BDE3FE"/>
<path d="M33.4001 23.8664V22.133H23.8667V19.533H29.9335C30.4098 19.533 30.8001 19.142 30.8001 18.6664V13.4664C30.8001 12.9891 30.4098 12.5996 29.9335 12.5996H16.0667C15.5904 12.5996 15.2001 12.9891 15.2001 13.4662V18.6662C15.2001 19.1417 15.5904 19.5328 16.0667 19.5328H22.1335V22.1328H12.6001V23.8662H22.1335V26.4662H16.0667C15.5904 26.4662 15.2001 26.8554 15.2001 27.3328V32.5328C15.2001 33.0086 15.5904 33.3996 16.0667 33.3996H29.9335C30.4098 33.3996 30.8001 33.0086 30.8001 32.533V27.333C30.8001 26.8557 30.4098 26.4664 29.9335 26.4664H23.8667V23.8664H33.4001ZM29.0667 28.1996V31.6662H16.9335V28.1996H29.0667ZM16.9335 17.7996V14.333H29.0667V17.7996H16.9335Z" fill="#1F40E5"/>
</svg>
