<svg width="46" height="46" viewBox="0 0 46 46" fill="none" xmlns="http://www.w3.org/2000/svg">
<circle r="22.5" transform="matrix(-1 0 0 1 23 23)" fill="white" stroke="#BDE3FE"/>
<path d="M32.5335 13.5996H25.6001C25.1235 13.5996 24.7335 13.9899 24.7335 14.4662V19.6662C24.7335 20.1428 25.1235 20.533 25.6001 20.533H28.2001V26.5996H21.2667V24.8662C21.2667 24.3899 20.8767 23.9996 20.4001 23.9996H17.8001V20.533H20.4001C20.8767 20.533 21.2667 20.1428 21.2667 19.6662V14.4662C21.2667 13.9899 20.8767 13.5996 20.4001 13.5996H13.4667C12.9904 13.5996 12.6001 13.9899 12.6001 14.4662V19.6662C12.6001 20.1428 12.9904 20.533 13.4667 20.533H16.0667V23.9996H13.4667C12.9904 23.9996 12.6001 24.3899 12.6001 24.8662V30.0662C12.6001 30.5428 12.9904 30.933 13.4667 30.933H20.4001C20.8767 30.933 21.2667 30.5428 21.2667 30.0662V28.333H28.2001V34.3996H29.9335V20.533H32.5335C33.0098 20.533 33.4001 20.1428 33.4001 19.6662V14.4662C33.4001 13.9899 33.0098 13.5996 32.5335 13.5996ZM14.3335 18.7996V15.333H19.5335V18.7996H14.3335ZM19.5335 29.1996H14.3335V25.733H19.5335V29.1996ZM31.6667 18.7996H26.4667V15.333H31.6667V18.7996Z" fill="#1F40E5"/>
</svg>
