<svg width="46" height="46" viewBox="0 0 46 46" fill="none" xmlns="http://www.w3.org/2000/svg">
<circle r="22.5" transform="matrix(-1 0 0 1 23 23)" fill="white" stroke="#BDE3FE"/>
<path d="M31.6383 27.9619L26.4331 22.7554C26.9201 21.7378 27.2001 20.6026 27.2001 19.4001C27.2001 15.0922 23.708 11.6001 19.4001 11.6001C15.0922 11.6001 11.6001 15.0922 11.6001 19.4001C11.6001 23.7078 15.0922 27.2001 19.4001 27.2001C20.6036 27.2001 21.7378 26.9193 22.7559 26.4334L27.9619 31.6383C28.9767 32.6539 30.6235 32.6539 31.6386 31.6383C32.6541 30.6227 32.6541 28.9759 31.6383 27.9619ZM13.3335 19.4001C13.3335 16.0495 16.0492 13.3335 19.4001 13.3335C22.751 13.3335 25.4667 16.0495 25.4667 19.4001C25.4667 21.0519 24.805 22.5474 23.7335 23.6417V16.8001H22.0001V24.8754C21.4611 25.1318 20.8795 25.3102 20.2667 25.3986V15.0667H18.5335V25.3983C17.9207 25.3099 17.3391 25.1318 16.8001 24.8752V18.5335H15.0667V23.642C13.9952 22.5474 13.3335 21.0519 13.3335 19.4001ZM30.4127 30.4129C30.0749 30.7512 29.525 30.7512 29.1873 30.4129L24.2655 25.4901C24.7174 25.1279 25.1287 24.7166 25.4911 24.2647L30.4127 29.187C30.7514 29.5242 30.7514 30.0744 30.4127 30.4129Z" fill="#1F40E5"/>
</svg>
