<svg width="46" height="46" viewBox="0 0 46 46" fill="none" xmlns="http://www.w3.org/2000/svg">
<circle r="22.5" transform="matrix(-1 0 0 1 23 23)" fill="white" stroke="#BDE3FE"/>
<path d="M23 19.5335C23.9574 19.5335 24.7334 18.7574 24.7334 17.8001C24.7334 16.8427 23.9574 16.0667 23 16.0667C22.0427 16.0667 21.2666 16.8427 21.2666 17.8001C21.2666 18.7574 22.0427 19.5335 23 19.5335Z" fill="#1F40E5"/>
<path d="M31.6667 12.6001H14.3335C13.3804 12.6001 12.6001 13.3804 12.6001 14.3335V23.8669C12.6001 24.8196 13.3804 25.6001 14.3335 25.6001H31.6667C32.6198 25.6001 33.4001 24.8196 33.4001 23.8669V14.3335C33.4001 13.3804 32.6198 12.6001 31.6667 12.6001ZM31.6667 23.8669H26.4667C26.4667 22.4315 25.3037 21.2669 23.8667 21.2669L22.1335 21.2677C20.6981 21.2677 19.5335 22.4315 19.5335 23.8672H14.3335V14.3335H31.6667V23.8669Z" fill="#1F40E5"/>
<path d="M23.0002 29.9323C23.7182 29.9323 24.3002 29.3502 24.3002 28.6323C24.3002 27.9143 23.7182 27.3323 23.0002 27.3323C22.2822 27.3323 21.7002 27.9143 21.7002 28.6323C21.7002 29.3502 22.2822 29.9323 23.0002 29.9323Z" fill="#1F40E5"/>
<path d="M26.0336 33.3993L19.9668 33.4V32.9666C19.9668 32.0093 20.7429 31.2335 21.7002 31.2335L24.3002 31.2324C25.2575 31.2324 26.0336 32.0085 26.0336 32.9658V33.3993Z" fill="#1F40E5"/>
<path d="M15.6335 29.9323C16.3515 29.9323 16.9335 29.3502 16.9335 28.6323C16.9335 27.9143 16.3515 27.3323 15.6335 27.3323C14.9155 27.3323 14.3335 27.9143 14.3335 28.6323C14.3335 29.3502 14.9155 29.9323 15.6335 29.9323Z" fill="#1F40E5"/>
<path d="M18.6667 33.3993L12.6001 33.4V32.9666C12.6001 32.0093 13.3762 31.2335 14.3335 31.2335L16.9335 31.2324C17.8908 31.2324 18.6667 32.0085 18.6667 32.9658V33.3993Z" fill="#1F40E5"/>
<path d="M30.3664 29.9323C31.0844 29.9323 31.6664 29.3502 31.6664 28.6323C31.6664 27.9143 31.0844 27.3323 30.3664 27.3323C29.6484 27.3323 29.0664 27.9143 29.0664 28.6323C29.0664 29.3502 29.6484 29.9323 30.3664 29.9323Z" fill="#1F40E5"/>
<path d="M33.4001 33.3993L27.3335 33.4V32.9666C27.3335 32.0093 28.1093 31.2335 29.0667 31.2335L31.6667 31.2324C32.624 31.2324 33.4001 32.0085 33.4001 32.9658V33.3993Z" fill="#1F40E5"/>
</svg>
