<svg width="150" height="81" viewBox="0 0 150 81" fill="none" xmlns="http://www.w3.org/2000/svg">
<g clip-path="url(#clip0)">
<path d="M47.468 72.8582V73.022C47.3532 75.2329 46.5658 77.0344 44.5155 78.0334C41.3991 79.5565 37.0853 78.0825 36.626 73.7098C36.4128 71.761 36.872 70.0086 38.381 68.6984C40.0541 67.2409 42.006 66.9952 44.0563 67.7322C46.041 68.4364 47.0743 69.9595 47.4024 72.0066C47.4352 72.3014 47.4516 72.5962 47.468 72.8582ZM49.6987 80.4736V59.2325H47.4844V67.4047C47.0907 67.0444 46.6643 66.7168 46.1558 66.422C44.5483 65.4885 42.7933 65.2101 40.9562 65.423C39.1192 65.6359 37.5117 66.3401 36.2651 67.7322C34.7233 69.419 34.2312 71.4662 34.3953 73.6935C34.5265 75.4786 35.1662 77.0671 36.4292 78.3609C38.7255 80.7192 42.8589 81.3088 45.8769 79.6711C46.5002 79.3272 47.0415 78.9505 47.5008 78.5083V80.4736H49.6987Z" fill="#CDD6FE"/>
<path d="M73.6948 72.7763C73.662 75.3475 72.8911 77.4274 70.9556 78.9669C69.2826 80.2934 67.3471 80.7028 65.2476 80.5391C63.4433 80.3917 61.8523 79.753 60.5401 78.4755C59.1951 77.1654 58.5226 75.5277 58.3914 73.6771C58.2274 71.4661 58.7194 69.4354 60.2449 67.7485C61.5078 66.3565 63.1153 65.6359 64.9687 65.423C66.773 65.2101 68.5117 65.4721 70.1027 66.3892C72.1694 67.5684 73.2848 69.419 73.6128 71.7446C73.6456 72.1376 73.662 72.5307 73.6948 72.7763ZM71.4805 72.9237C71.4477 72.6617 71.4477 72.3505 71.3985 72.023C71.0868 69.9595 70.0371 68.4364 68.036 67.7158C65.9693 66.9788 63.9846 67.2409 62.3116 68.7475C60.8681 70.0577 60.4253 71.7773 60.6221 73.6771C61.0814 78.1316 65.51 79.5728 68.6429 77.9678C70.6276 76.9525 71.3985 75.151 71.4805 72.9237Z" fill="#CDD6FE"/>
<path d="M55.8667 80.5882C55.7683 80.6046 55.7027 80.6046 55.6206 80.6046C54.9974 80.6046 54.3741 80.6046 53.7344 80.6046V65.5541H55.8667V80.5882Z" fill="#CDD6FE"/>
<path d="M53.3242 61.1814C53.3242 60.2807 53.9311 59.642 54.784 59.6583C55.6042 59.6747 56.211 60.3134 56.211 61.1814C56.211 62.0821 55.6042 62.6881 54.7348 62.6881C53.8819 62.6881 53.3242 62.0821 53.3242 61.1814Z" fill="#CBD0E9"/>
<path d="M105.254 72.9074C105.172 75.888 104.073 78.2299 101.416 79.6711C98.398 81.3088 94.2646 80.7193 91.9682 78.361C90.7052 77.0672 90.0819 75.4786 89.9343 73.6935C89.7703 71.4662 90.2624 69.4354 91.8042 67.7322C93.0672 66.3402 94.6582 65.6359 96.4953 65.423C98.3324 65.2101 100.087 65.4722 101.695 66.422C103.729 67.6176 104.828 69.4354 105.139 71.7446C105.205 72.1377 105.221 72.5471 105.254 72.9074ZM103.04 72.9074C103.007 72.629 102.991 72.3178 102.941 71.9903C102.613 69.9431 101.58 68.4201 99.5954 67.7158C97.5451 66.9789 95.5932 67.2245 93.9201 68.6821C92.4111 70.0086 91.9682 71.761 92.1651 73.6935C92.6243 78.0662 96.9546 79.5237 100.055 78.017C102.154 77.018 102.958 75.1838 103.04 72.9074Z" fill="#CDD6FE"/>
<path d="M13.1211 73.1367V73.1858C13.0227 75.3967 12.219 77.1982 10.1687 78.1972C7.05221 79.7203 2.73838 78.2463 2.27911 73.8737C2.06588 71.9248 2.52514 70.1724 4.03417 68.8623C5.70721 67.4047 7.6591 67.159 9.7094 67.896C11.6941 68.6002 12.7274 70.1233 13.0555 72.1704C13.1047 72.4816 13.1211 72.8091 13.1539 73.0876C13.1211 73.1039 13.1211 73.1203 13.1211 73.1367ZM15.3354 73.1367C15.3354 73.1203 15.3354 73.0876 15.3354 73.0712C15.3026 72.7109 15.2862 72.3015 15.237 71.9084C14.9254 69.5992 13.8264 67.7814 11.7925 66.5858C10.1851 65.6524 8.43001 65.3903 6.59294 65.5869C4.75587 65.7998 3.14844 66.504 1.90185 67.896C0.360027 69.5829 -0.132045 71.63 0.031979 73.8573C0.163198 75.6424 0.802892 77.231 2.06588 78.5247C4.36221 80.8831 8.49562 81.4726 11.5137 79.8349C12.137 79.491 12.6782 79.1143 13.1375 78.6721V80.6374H15.3518V73.1367H15.3354Z" fill="#CDD6FE"/>
<path d="M119.539 72.8582V73.022C119.441 75.2329 118.637 77.0344 116.587 78.0334C113.47 79.5565 109.156 78.0825 108.697 73.7098C108.484 71.761 108.943 70.0086 110.452 68.6984C112.125 67.2409 114.077 66.9952 116.127 67.7322C118.112 68.4364 119.145 69.9595 119.473 72.0066C119.49 72.3014 119.523 72.5962 119.539 72.8582ZM121.753 80.4736V59.2325H119.539V67.4047C119.145 67.0444 118.719 66.7168 118.21 66.422C116.603 65.4885 114.848 65.2101 113.011 65.423C111.174 65.6359 109.566 66.3401 108.32 67.7322C106.778 69.419 106.286 71.4662 106.45 73.6935C106.581 75.4786 107.221 77.0671 108.484 78.3609C110.78 80.7192 114.914 81.3088 117.932 79.6711C118.555 79.3272 119.096 78.9505 119.555 78.5083V80.4736H121.753Z" fill="#CDD6FE"/>
<path d="M82.5201 67.6339C79.4201 67.6339 77.1893 69.9103 77.1893 73.2021C77.1893 76.5267 79.4037 78.8031 82.5201 78.8031C84.4884 78.8031 86.1123 78.1153 87.162 76.8706L88.4414 78.1808C87.0964 79.8021 85.0297 80.7683 82.4381 80.7683C78.0751 80.7683 75.0078 77.6731 75.0078 73.2021C75.0078 68.7639 78.1079 65.6359 82.4381 65.6359C84.8657 65.6359 86.8504 66.4548 88.2118 67.8468L86.9816 69.3863C85.8498 68.289 84.3408 67.6339 82.5201 67.6339Z" fill="#CDD6FE"/>
<path d="M32.1156 66.4384V80.6865H29.8848V78.6885C28.5562 79.9495 26.8832 80.752 24.1768 80.7683C20.6667 80.7683 18.5508 78.5411 18.5508 74.9217V66.4384H20.7815V74.3485C20.7815 77.0344 22.0937 78.754 24.7017 78.754C27.8181 78.7048 29.8848 76.281 29.8848 73.0384V66.4384H32.1156Z" fill="#CDD6FE"/>
<path d="M137.977 73.8899H125.528C125.905 76.9033 128.07 78.8686 131.055 78.8686C132.941 78.8686 134.582 78.1807 135.779 76.9361L137.026 78.2299C135.582 79.8184 133.434 80.7519 130.891 80.7519C126.397 80.7519 123.297 77.6075 123.297 73.0547C123.297 68.5183 126.43 65.3902 130.858 65.3575C135.779 65.3575 138.207 68.7475 137.977 73.8899ZM135.943 72.1048C135.796 69.157 133.827 67.2408 130.842 67.2408C127.922 67.2408 125.839 69.157 125.511 72.1048H135.943Z" fill="#CDD6FE"/>
<path d="M144.571 67.2409C142.881 67.2409 141.602 67.8468 141.602 69.2716C141.602 72.6617 149.983 70.9257 149.983 76.3138C149.983 79.2453 147.359 80.5555 144.472 80.5555C142.34 80.5555 140.142 79.8185 138.715 78.4428L139.568 76.8215C140.847 78.017 142.799 78.7376 144.554 78.7376C146.326 78.7376 147.753 78.0498 147.785 76.5431C147.867 72.891 139.453 74.7416 139.486 69.4518C139.486 66.6022 141.963 65.3739 144.702 65.3739C146.506 65.3739 148.245 65.9143 149.491 66.7496L148.638 68.4528C147.49 67.6994 145.981 67.2409 144.571 67.2409Z" fill="#CDD6FE"/>
<path d="M74.416 6.74395C74.416 6.74395 80.4357 0.700806 91.6877 0.700806C96.264 0.700806 104.432 2.0601 109.911 10.5762L101.07 17.0943C101.07 17.0943 98.6096 12.1156 91.4581 12.1156C86.7178 12.1156 82.3876 14.736 81.305 18.9613C79.2547 10.7236 74.416 6.74395 74.416 6.74395Z" fill="#CDD6FE"/>
<path d="M88.0637 36.3537C88.0637 36.3537 87.9981 39.1706 88.8346 42.4952C89.5235 45.2137 90.8357 47.8505 90.8357 47.8505C90.8357 47.8505 104.565 48.6529 110.486 37.6312L101.432 31.588C101.448 31.6044 97.8723 39.5964 88.0637 36.3537Z" fill="#CDD6FE"/>
<path d="M86.5879 36.0262C82.274 33.8481 80.437 28.7548 80.437 24.5623C80.437 11.5752 70.2839 1.06116 56.0466 1.06116C42.1373 1.06116 31.4922 8.66013 31.4922 25.3975C31.4922 47.0971 57.3424 54.0247 72.4818 42.2332C69.2177 38.6629 67.1346 34.5032 66.2817 29.7047C62.4927 39.6128 49.9449 39.6292 46.2379 31.9811C42.3506 23.9563 44.7617 12.6234 55.9646 12.6234C63.8869 12.6234 66.9378 18.7157 66.9378 23.9891C66.9378 36.8451 75.7295 47.8669 89.0154 47.8669C88.4741 46.3929 87.6376 44.5423 87.1455 42.0694C86.5058 38.9905 86.5879 36.0262 86.5879 36.0262Z" fill="#A0ACE3"/>
</g>
<defs>
<clipPath id="clip0">
<rect width="150" height="80.0676" fill="white" transform="translate(0 0.700806)"/>
</clipPath>
</defs>
</svg>
