<svg width="100" height="17" viewBox="0 0 100 17" fill="none" xmlns="http://www.w3.org/2000/svg">
<g clip-path="url(#clip0)">
<path d="M43.3297 14.7139L39.0123 2.69157C38.9571 2.52534 38.875 2.30589 38.875 2.11338C38.875 1.59236 39.3152 1.09761 39.946 1.09761C40.4966 1.09761 40.8553 1.45504 41.0195 1.97606L44.5971 12.3355L48.2002 1.94715C48.3645 1.45438 48.695 1.09696 49.2423 1.09696H49.354C49.9328 1.09696 50.2902 1.45438 50.4545 1.94715L54.0281 12.3355L57.6621 1.92153C57.7994 1.47935 58.0997 1.09696 58.6792 1.09696C59.2837 1.09696 59.7245 1.56214 59.7245 2.08579C59.7245 2.27764 59.6411 2.49643 59.5872 2.66397L55.2423 14.7139C55.0202 15.3433 54.582 15.6738 54.0859 15.6738H54.0038C53.4532 15.6738 53.0399 15.3433 52.8461 14.7139L49.3001 4.49774L45.7232 14.7139C45.5307 15.3433 45.1168 15.6738 44.5682 15.6738H44.5103C43.9893 15.6738 43.5511 15.3433 43.3297 14.7139Z" fill="#A0ACE3"/>
<path d="M74.8008 2.14557C74.8008 1.56541 75.2686 1.07001 75.8461 1.07001C76.4552 1.07001 76.9217 1.53848 76.9217 2.14557V4.58513C77.9677 2.21587 80.2876 1.09761 81.8251 1.09761C82.4617 1.09761 82.875 1.56541 82.875 2.1712C82.875 2.7507 82.4913 3.162 81.9355 3.24478C79.1792 3.57527 76.9223 5.64294 76.9223 9.74938V14.5805C76.9223 15.1594 76.4821 15.6541 75.8763 15.6541C75.2699 15.6541 74.8014 15.1837 74.8014 14.5805L74.8008 2.14557Z" fill="#A0ACE3"/>
<path d="M89.6833 15.7881C85.8482 15.7881 82.7168 12.8138 82.7168 8.45175V8.39524C82.7168 4.33283 85.5525 1.06016 89.4132 1.06016C93.5414 1.06016 95.8922 4.4662 95.8922 8.20405C95.8922 8.77829 95.429 9.18894 94.9192 9.18894H84.8259C85.1202 12.2408 87.2516 13.9583 89.7385 13.9583C91.4671 13.9583 92.7319 13.2763 93.7595 12.3217C93.9218 12.187 94.1104 12.0779 94.3548 12.0779C94.8659 12.0779 95.2726 12.4872 95.2726 12.98C95.2726 13.2244 95.1649 13.4708 94.9461 13.6594C93.6248 14.9399 92.0571 15.7881 89.6833 15.7881ZM93.8134 7.63375C93.5966 5.06804 92.138 2.83414 89.3567 2.83414C86.927 2.83414 85.0913 4.87816 84.8246 7.63375H93.8134Z" fill="#A0ACE3"/>
<path d="M59.7617 11.3729V11.3177C59.7617 8.3243 62.2348 6.72903 65.832 6.72903C67.6461 6.72903 68.9365 6.97608 70.2026 7.33547V6.83876C70.2026 4.2862 68.6323 2.96557 65.9707 2.96557C64.5416 2.96557 63.7098 3.14756 62.6638 3.6134C62.5285 3.66859 62.3898 3.69684 62.2827 3.69684C61.788 3.69684 61.3465 3.28357 61.3465 2.79014C61.3465 2.3519 61.5377 2.08055 61.9247 1.90906C63.3235 1.30196 64.378 1.10026 66.1901 1.10026C68.194 1.10026 69.7328 1.62062 70.7749 2.6653C71.7381 3.62654 72.2328 4.99973 72.2328 6.81379V14.6508C72.2328 15.2533 71.7933 15.6942 71.2131 15.6942C70.6113 15.6942 70.2032 15.254 70.2032 14.7054V13.3506C69.2124 14.6443 67.5626 15.7961 65.0679 15.7961C62.4293 15.7941 59.7617 14.2849 59.7617 11.3729ZM70.2295 10.2737V8.89986C69.1835 8.59828 67.7808 8.29539 66.0515 8.29539C63.3905 8.29539 61.905 9.45045 61.905 11.2343V11.2888C61.905 13.074 63.5515 14.118 65.4766 14.118C68.085 14.118 70.2295 12.524 70.2295 10.2737Z" fill="#A0ACE3"/>
<path d="M4.84732 1.98922C4.38214 0.969513 3.23234 0.507622 2.15875 0.984626C1.08385 1.46229 0.688319 2.65414 1.17386 3.67451L5.68175 13.4728C6.39068 15.0083 7.13773 15.8131 8.53983 15.8131C10.0379 15.8131 10.6909 14.9367 11.3992 13.4728C11.3992 13.4728 15.3309 4.91169 15.3703 4.82234C15.4104 4.73167 15.5365 4.45506 15.9367 4.45769C16.275 4.45966 16.5595 4.7297 16.5595 5.09238V13.4643C16.5595 14.7547 17.275 15.8131 18.6522 15.8131C20.028 15.8131 20.7718 14.7547 20.7718 13.4643V6.6134C20.7718 5.29212 21.7185 4.43469 23.009 4.43469C24.2994 4.43469 25.1581 5.323 25.1581 6.6134V13.4643C25.1581 14.7547 25.8762 15.8131 27.2507 15.8131C28.6266 15.8131 29.3743 14.7547 29.3743 13.4643V6.6134C29.3743 5.29212 30.3171 4.43469 31.6082 4.43469C32.8966 4.43469 33.7586 5.323 33.7586 6.6134V13.4643C33.7586 14.7547 34.4761 15.8131 35.8519 15.8131C37.2271 15.8131 37.9735 14.7547 37.9735 13.4643V5.66728C37.9735 2.80197 35.6693 0.794744 32.8966 0.794744C30.1272 0.794744 28.3927 2.71064 28.3927 2.71064C27.4708 1.51551 26.2001 0.797372 24.0497 0.797372C21.7803 0.797372 19.7941 2.71064 19.7941 2.71064C18.8716 1.51551 17.3013 0.797372 16.0011 0.797372C13.9899 0.797372 12.3927 1.68173 11.4183 3.90972L8.53983 10.6949L4.84732 1.98922Z" fill="#A0ACE3"/>
<path d="M96.0625 2.83812V2.82629C96.0625 1.86768 96.8404 1.06019 97.8181 1.06019C98.8095 1.06019 99.577 1.85914 99.577 2.81906V2.82629C99.577 3.78818 98.801 4.59567 97.8181 4.59567C96.8266 4.59567 96.0625 3.79935 96.0625 2.83812ZM99.2392 2.82629V2.82169C99.2392 2.03325 98.6302 1.38674 97.8181 1.38674C97.0132 1.38674 96.395 2.04442 96.395 2.82629V2.83549C96.395 3.62195 97.006 4.26847 97.8181 4.26847C98.6203 4.26847 99.2392 3.6121 99.2392 2.82629Z" fill="#A0ACE3"/>
<path d="M97.1465 2.13114C97.1465 2.02667 97.2299 1.94323 97.3357 1.94323H97.9218C98.1425 1.94323 98.3127 2.00565 98.4185 2.11734C98.5151 2.2113 98.5676 2.3473 98.5676 2.50499V2.51025C98.5676 2.77832 98.4323 2.94192 98.228 3.02799L98.4868 3.34336C98.523 3.39067 98.5473 3.42943 98.5473 3.48725C98.5473 3.59106 98.4592 3.65939 98.3699 3.65939C98.2864 3.65939 98.2299 3.61669 98.1859 3.56281L97.8213 3.10158H97.5223V3.47214C97.5223 3.57661 97.4415 3.65874 97.3364 3.65874C97.2306 3.65874 97.1471 3.57595 97.1471 3.47214V2.13114H97.1465ZM97.9008 2.76977C98.0834 2.76977 98.1839 2.67451 98.1839 2.5293V2.52339C98.1839 2.36504 98.0762 2.27963 97.8942 2.27963H97.5203V2.76912H97.9008V2.76977Z" fill="#A0ACE3"/>
</g>
<defs>
<clipPath id="clip0">
<rect width="100" height="16.2943" fill="white" transform="translate(0 0.280273)"/>
</clipPath>
</defs>
</svg>
