<svg width="100" height="18" viewBox="0 0 100 18" fill="none" xmlns="http://www.w3.org/2000/svg">
<g clip-path="url(#clip0)">
<path fill-rule="evenodd" clip-rule="evenodd" d="M90.6152 13.8003H94.4143V0.280273H90.6152V13.8003Z" fill="#A0ACE3"/>
<path fill-rule="evenodd" clip-rule="evenodd" d="M99.9996 0.280273V13.8003H96.2012V0.280273H99.9996Z" fill="#A0ACE3"/>
<path fill-rule="evenodd" clip-rule="evenodd" d="M8.10022 5.53146H5.02775V0.280273H0V13.8003H5.02775V7.0964H8.10022V13.8003H13.1285V0.280273H8.10022V5.53146Z" fill="#A0ACE3"/>
<path fill-rule="evenodd" clip-rule="evenodd" d="M31.7034 5.30801L31.3959 4.41439H27.2617V13.8003H31.3959V8.15754C31.3959 6.92827 32.1783 6.25809 32.8486 6.25809C33.4071 6.25809 34.1332 6.36974 34.1332 7.59902V13.8003H38.2673V7.71081C38.2673 4.30275 34.4412 2.96225 31.7034 5.30801Z" fill="#A0ACE3"/>
<path fill-rule="evenodd" clip-rule="evenodd" d="M74.1627 9.86136L72.2355 4.4144H69.4142L67.4865 10.0848L65.4753 4.4144H61.5369H61.5087H59.9449L57.9613 9.19061L55.1681 4.4144H50.4473L56.006 13.9119L55.2799 15.6992C55.0282 16.2583 54.4263 16.2859 54.3085 15.7551C54.3085 14.7952 53.5301 14.0174 52.5702 14.0174C51.6102 14.0174 50.832 14.7952 50.832 15.7551C50.8388 16.7609 51.8442 18.0737 53.8272 17.9897C55.8107 17.9062 56.6485 16.2583 56.9278 15.5599L61.5218 4.45099L64.8332 13.8003H67.8498L69.6934 8.40865L71.593 13.8003H74.4419L77.6542 4.4144H76.0063L74.1627 9.86136Z" fill="#A0ACE3"/>
<path fill-rule="evenodd" clip-rule="evenodd" d="M20.2506 3.93729C17.0874 3.93729 14.5234 6.28938 14.5234 9.19063C14.5234 12.0929 17.0874 14.445 20.2506 14.445C23.4144 14.445 25.9789 12.0929 25.9789 9.19063C25.9789 6.28938 23.4144 3.93729 20.2506 3.93729ZM21.6757 11.6486C21.6757 12.4358 21.0378 13.0737 20.2506 13.0737C19.4645 13.0737 18.8266 12.4358 18.8266 11.6486V6.73309C18.8266 5.94651 19.4645 5.30918 20.2506 5.30918C21.0378 5.30918 21.6757 5.94651 21.6757 6.73309V11.6486Z" fill="#A0ACE3"/>
<path fill-rule="evenodd" clip-rule="evenodd" d="M50.9062 9.94494C50.9365 9.7251 50.9521 9.41825 50.9521 9.19063C50.9521 6.28938 48.3876 3.93729 45.2244 3.93729C42.0606 3.93729 39.4961 6.28938 39.4961 9.19063C39.4961 12.0929 42.0606 14.445 45.2244 14.445C47.3979 14.445 49.2886 13.3341 50.2594 11.6977L48.9941 11.2295C48.2294 12.3982 46.8274 13.1807 45.2244 13.1807C44.4372 13.1807 43.7993 12.4358 43.7993 11.6486V9.94537L50.9062 9.94494ZM43.7993 6.73309C43.7993 5.94651 44.4372 5.30918 45.2244 5.30918C46.011 5.30918 46.6489 5.94651 46.6489 6.73309V8.60445H43.7993V6.73309Z" fill="#A0ACE3"/>
<path fill-rule="evenodd" clip-rule="evenodd" d="M89.1732 9.94494C89.204 9.7251 89.2196 9.41825 89.2196 9.19063C89.2196 6.28938 86.6551 3.93729 83.4914 3.93729C80.3281 3.93729 77.7637 6.28938 77.7637 9.19063C77.7637 12.0929 80.3281 14.445 83.4914 14.445C85.6654 14.445 87.5561 13.3341 88.5269 11.6977L87.2616 11.2295C86.497 12.3982 85.095 13.1807 83.4914 13.1807C82.7047 13.1807 82.0669 12.4358 82.0669 11.6486V9.94537L89.1732 9.94494ZM82.0669 6.73309C82.0669 5.94651 82.7047 5.30918 83.4914 5.30918C84.2786 5.30918 84.9165 5.94651 84.9165 6.73309V8.60445H82.0669V6.73309Z" fill="#A0ACE3"/>
</g>
<defs>
<clipPath id="clip0">
<rect width="100" height="17.7134" fill="white" transform="translate(0 0.280273)"/>
</clipPath>
</defs>
</svg>
