<svg width="100" height="43" viewBox="0 0 100 43" fill="none" xmlns="http://www.w3.org/2000/svg">
<g clip-path="url(#clip0)">
<path d="M32.0826 8.42587H2.14017V2.86672H32.0826V8.42587ZM34.2187 0.722412H0V10.5702H34.2187V0.722412Z" fill="#CDD6FE"/>
<path d="M2.14017 26.8428H0V16.9951H2.14017V20.8869H5.96048V16.9951H8.10065V26.8428H5.96048V22.7626H2.14017V26.8428ZM11.3409 22.5262H13.8891C13.8411 21.8007 13.5451 21.2957 12.709 21.2957C12.077 21.2957 11.5289 21.5642 11.3409 22.5262ZM12.957 26.9991C10.7849 26.9991 9.30874 25.6284 9.30874 23.3759C9.30874 21.1835 10.7569 19.6724 12.673 19.6724C14.7652 19.6724 15.8013 21.0752 15.8013 23.1714V23.961H11.3409C11.5929 25.0472 12.441 25.3318 13.2931 25.3318C14.0331 25.3318 14.5652 25.1755 15.2252 24.7626H15.3052V26.3859C14.7372 26.7947 13.9331 26.9991 12.957 26.9991ZM21.3897 22.7145L20.2896 26.8428H18.4175L16.2773 19.9089V19.8287H18.3215L19.4856 23.9731L20.5856 19.8287H22.2538L23.3699 23.9731L24.55 19.8287H26.5141V19.9089L24.3739 26.8428H22.5018L21.3897 22.7145ZM29.9904 26.9991C28.2903 26.9991 27.5982 26.3218 27.5982 24.7306V16.9951H29.6744V24.5863C29.6744 25.0753 29.8624 25.2476 30.2704 25.2476C30.4104 25.2476 30.6184 25.1995 30.7425 25.1514H30.7745V26.8669C30.6024 26.935 30.3064 26.9991 29.9904 26.9991ZM33.3867 22.5262H35.9349C35.8869 21.8007 35.5908 21.2957 34.7548 21.2957C34.1267 21.2957 33.5747 21.5642 33.3867 22.5262ZM35.0068 26.9991C32.8346 26.9991 31.3585 25.6284 31.3585 23.3759C31.3585 21.1835 32.8066 19.6724 34.7228 19.6724C36.8149 19.6724 37.851 21.0752 37.851 23.1714V23.961H33.3867C33.6387 25.0472 34.4868 25.3318 35.3348 25.3318C36.0749 25.3318 36.6069 25.1755 37.271 24.7626H37.351V26.3859C36.7869 26.7947 35.9829 26.9991 35.0068 26.9991ZM46.3757 19.8328H47.9158V21.5041H46.3757V24.3538C46.3757 24.9671 46.6117 25.2516 47.2398 25.2516C47.4118 25.2516 47.6318 25.2356 47.8678 25.1554H47.9158V26.7947C47.6478 26.8909 47.2398 26.9991 46.6437 26.9991C44.9596 26.9991 44.2995 26.2256 44.2995 24.446V21.5001H41.6433V24.3498C41.6433 24.963 41.8793 25.2476 42.5074 25.2476C42.6794 25.2476 42.8994 25.2316 43.1355 25.1514H43.1835V26.7907C42.9154 26.8869 42.5074 26.9951 41.9114 26.9951C40.2272 26.9951 39.5672 26.2216 39.5672 24.442V21.4961H38.4991V19.8247H39.5672V17.9049H41.6433V19.8247H44.2995V17.9049H46.3757V19.8328ZM54.9124 21.8328C55.9965 21.8328 56.5165 21.2195 56.5165 20.3378C56.5165 19.4239 56.0005 18.8107 54.9124 18.8107H53.5603V21.8368L54.9124 21.8328ZM58.6887 20.3378C58.6887 22.4821 57.2566 23.6444 55.0884 23.6444H53.5643V26.8428H51.4281V16.9951H55.0924C57.2566 16.9951 58.6887 18.1614 58.6887 20.3378ZM63.2491 24.6384V24.0412C62.933 23.8688 62.525 23.8047 62.101 23.8047C61.4249 23.8047 61.0169 24.0572 61.0169 24.6224C61.0169 25.2075 61.4249 25.456 62.037 25.456C62.621 25.456 63.061 25.1554 63.2491 24.6384ZM63.3131 26.1494C62.857 26.7025 62.181 26.9671 61.4569 26.9671C60.0888 26.9671 58.9727 26.1334 58.9727 24.6504C58.9727 23.2797 60.0888 22.3658 61.6929 22.3658C62.197 22.3658 62.717 22.446 63.2491 22.6023V22.4781C63.2491 21.7205 62.825 21.3919 61.7089 21.3919C61.0009 21.3919 60.3248 21.5963 59.7408 21.929H59.6648V20.2576C60.2008 19.945 61.1449 19.6764 62.069 19.6764C64.1771 19.6764 65.3252 20.6865 65.3252 22.45V26.8468H63.3131V26.1494ZM66.3773 23.3438C66.3773 21.0913 67.9654 19.6724 70.0416 19.6724C70.7817 19.6724 71.4737 19.8287 71.9898 20.2095V21.9891H71.9098C71.4537 21.6444 70.9177 21.436 70.3056 21.436C69.2695 21.436 68.4815 22.1454 68.4815 23.3438C68.4815 24.5422 69.2695 25.2356 70.3056 25.2356C70.9177 25.2356 71.4537 25.0312 71.9098 24.6825H71.9898V26.4621C71.4697 26.8388 70.7777 26.9991 70.0416 26.9991C67.9654 26.9991 66.3773 25.6003 66.3773 23.3438ZM75.374 23.6604V26.8428H73.2979V16.9951H75.374V22.6023L77.4662 19.8287H79.8264V19.9089L77.3102 23.0913L79.8264 26.7627V26.8428H77.4502L75.374 23.6604ZM84.4788 24.6384V24.0412C84.1667 23.8688 83.7547 23.8047 83.3307 23.8047C82.6546 23.8047 82.2466 24.0572 82.2466 24.6224C82.2466 25.2075 82.6546 25.456 83.2667 25.456C83.8507 25.456 84.2907 25.1554 84.4788 24.6384ZM84.5428 26.1494C84.0867 26.7025 83.4107 26.9671 82.6866 26.9671C81.3185 26.9671 80.2024 26.1334 80.2024 24.6504C80.2024 23.2797 81.3185 22.3658 82.9226 22.3658C83.4267 22.3658 83.9427 22.446 84.4788 22.6023V22.4781C84.4788 21.7205 84.0547 21.3919 82.9386 21.3919C82.2306 21.3919 81.5545 21.5963 80.9705 21.929H80.8905V20.2576C81.4265 19.945 82.3706 19.6764 83.2947 19.6764C85.4028 19.6764 86.5509 20.6865 86.5509 22.45V26.8468H84.5388L84.5428 26.1494ZM90.0472 20.967C90.4232 20.1935 90.9753 19.7526 91.7473 19.7526C92.0314 19.7526 92.3114 19.8167 92.4234 19.8808V21.8648H92.3474C92.1114 21.7686 91.8273 21.7085 91.4353 21.7085C90.7913 21.7085 90.2872 22.0853 90.1152 22.8107V26.8428H88.039V19.8328H90.0512L90.0472 20.967ZM97.9238 24.462V22.2095C97.5798 21.7045 97.1238 21.4841 96.6037 21.4841C95.6917 21.4841 95.0796 22.1454 95.0796 23.3438C95.0796 24.5422 95.6917 25.1875 96.6037 25.1875C97.1238 25.1875 97.5798 24.9671 97.9238 24.462ZM97.9878 26.1174C97.5478 26.6865 96.8558 26.9991 95.9117 26.9991C94.1195 26.9991 92.9714 25.3598 92.9714 23.3438C92.9714 21.3278 94.1195 19.6724 95.9117 19.6724C96.8237 19.6724 97.4838 19.957 97.9238 20.474V16.9951H100V26.8388H97.9878V26.1174ZM0 30.0573H6.07249V31.2557H1.36811V34.2657H5.62845V35.4321H1.36811V38.7106H6.06849V39.909H0L0 30.0573ZM11.0889 32.8308C12.645 32.8308 13.5091 33.8569 13.5091 35.5403V39.905H12.205V35.5723C12.205 34.6745 11.7489 34.0292 10.7569 34.0292C9.94079 34.0292 9.24874 34.5503 9.01272 35.2878V39.905H7.70862V32.9711H9.01272V33.9811C9.42075 33.3358 10.1128 32.8308 11.0889 32.8308ZM17.0174 32.9711H18.7935V34.0894H17.0174V37.8208C17.0174 38.6064 17.4254 38.875 18.1655 38.875C18.3695 38.875 18.5895 38.8429 18.7455 38.7788H18.7935V39.897C18.6055 39.9772 18.3375 40.0373 17.9774 40.0373C16.3573 40.0373 15.7133 39.2958 15.7133 37.9411V34.0813H14.5172V32.9631H15.7133V31.1194H17.0174V32.9711ZM20.9777 35.7607H24.422C24.3739 34.7387 23.8699 33.9491 22.8018 33.9491C21.8137 33.9491 21.1697 34.6906 20.9777 35.7607ZM23.0378 40.0453C21.0097 40.0453 19.6256 38.6906 19.6256 36.5182C19.6256 34.3419 20.9137 32.8308 22.7858 32.8308C24.69 32.8308 25.6781 34.2016 25.6781 36.2337V36.8309H20.9337C21.0737 38.2337 21.9738 38.911 23.2139 38.911C23.9859 38.911 24.534 38.7387 25.15 38.2818H25.198V39.4321C24.63 39.873 23.8899 40.0453 23.0378 40.0453ZM28.5263 34.0453C28.8263 33.3038 29.4864 32.8629 30.2384 32.8629C30.5384 32.8629 30.8065 32.911 30.9145 32.9711V34.2617H30.8665C30.6785 34.1695 30.3624 34.1214 30.0464 34.1214C29.3383 34.1214 28.7423 34.5944 28.5223 35.3799V39.901H27.2182V32.9711H28.5223L28.5263 34.0453ZM35.1308 38.8629C36.4189 38.8629 37.175 37.8409 37.175 36.4381C37.175 35.0513 36.4189 34.0132 35.1308 34.0132C34.4228 34.0132 33.7627 34.4381 33.4187 35.1154V37.7808C33.7627 38.4541 34.4268 38.8629 35.1308 38.8629ZM35.3548 32.8308C37.415 32.8308 38.5151 34.5182 38.5151 36.4381C38.5151 38.3619 37.415 40.0453 35.3548 40.0453C34.5068 40.0453 33.7827 39.6044 33.4187 39.1315V42.5664H32.1146V32.9711H33.4187V33.7567C33.7787 33.2717 34.5028 32.8308 35.3548 32.8308ZM41.3593 34.0453C41.6593 33.3038 42.3194 32.8629 43.0714 32.8629C43.3715 32.8629 43.6395 32.911 43.7475 32.9711V34.2617H43.6995C43.5115 34.1695 43.1955 34.1214 42.8834 34.1214C42.1754 34.1214 41.5793 34.5944 41.3593 35.3799V39.901H40.0552V32.9711H41.3593V34.0453ZM45.6397 30.1695C46.0957 30.1695 46.4717 30.5302 46.4717 30.9871C46.4717 31.444 46.0957 31.8048 45.6397 31.8048C45.1996 31.8048 44.8076 31.444 44.8076 30.9871C44.8036 30.5302 45.1996 30.1695 45.6397 30.1695ZM44.9916 39.905H46.2957V32.9711H44.9916V39.905ZM50.9521 35.8569C51.9442 36.1695 53.0442 36.5824 53.0442 37.905C53.0442 39.3239 51.8801 40.0493 50.388 40.0493C49.476 40.0493 48.5639 39.8289 48.0438 39.4201V38.1776H48.1078C48.6919 38.7146 49.556 38.9511 50.372 38.9511C51.1121 38.9511 51.7721 38.6665 51.7721 38.0693C51.7721 37.4561 51.2241 37.3118 50.136 36.9511C49.1599 36.6345 48.0758 36.2737 48.0758 34.9671C48.0758 33.6284 49.1759 32.8388 50.576 32.8388C51.3921 32.8388 52.1162 33.0112 52.7002 33.408V34.6705H52.6522C52.0882 34.2136 51.4241 33.9451 50.608 33.9451C49.792 33.9451 49.3359 34.3058 49.3359 34.7948C49.3319 35.3359 49.836 35.4922 50.9521 35.8569ZM55.5284 35.7607H58.9727C58.9247 34.7387 58.4247 33.9491 57.3526 33.9491C56.3645 33.9491 55.7205 34.6906 55.5284 35.7607ZM57.5886 40.0453C55.5604 40.0453 54.1763 38.6906 54.1763 36.5182C54.1763 34.3419 55.4644 32.8308 57.3366 32.8308C59.2407 32.8308 60.2288 34.2016 60.2288 36.2337V36.8309H55.4844C55.6244 38.2337 56.5205 38.911 57.7646 38.911C58.5367 38.911 59.0847 38.7387 59.7008 38.2818H59.7488V39.4321C59.1807 39.873 58.4407 40.0453 57.5886 40.0453Z" fill="#A0ACE3"/>
</g>
<defs>
<clipPath id="clip0">
<rect width="100" height="41.844" fill="white" transform="translate(0 0.722412)"/>
</clipPath>
</defs>
</svg>
