<svg width="100" height="23" viewBox="0 0 100 23" fill="none" xmlns="http://www.w3.org/2000/svg">
<path d="M95.4833 19.4688C95.4833 18.3322 96.3833 17.484 97.5 17.484C98.6167 17.484 99.5167 18.3322 99.5167 19.4688C99.5167 20.6733 98.6167 21.5215 97.5 21.5215C96.3833 21.5215 95.4833 20.6733 95.4833 19.4688ZM97.5 21.9456C98.8833 21.9456 100 20.8769 100 19.4688C100 18.1286 98.8833 17.0599 97.5 17.0599C96.1167 17.0599 95 18.1286 95 19.4688C95 20.8769 96.1 21.9456 97.5 21.9456ZM96.9333 19.6724H97.4833L98.1833 20.8769H98.7333L97.9 19.6724C98.3167 19.6045 98.6 19.384 98.6 18.892C98.6 18.3322 98.3167 18.1117 97.6333 18.1117H96.5167V20.8769H96.9333V19.6724ZM96.9333 19.3331V18.4849H97.55C97.8333 18.4849 98.1833 18.5527 98.1833 18.909C98.1833 19.3331 97.8333 19.3331 97.4833 19.3331H96.9333Z" fill="#A0ACE3"/>
<path d="M21.734 21.164C22.2173 21.0962 22.634 20.8757 22.984 20.6722C23.4006 20.3838 23.9506 19.8241 24.6506 18.9082C25.0006 18.552 25.4173 17.9922 25.9006 17.2798C26.384 16.5675 26.8006 16.0756 27.1506 15.6515L23.184 9.47751C22.9006 8.98562 22.634 8.69728 22.484 8.56158C22.2673 8.42589 22.0006 8.34108 21.584 8.27324V7.56085H29.2173V8.27324C28.5173 8.40893 28.1006 8.49374 28.034 8.49374C27.9006 8.56159 27.8173 8.71424 27.8173 8.84993C27.8173 9.13828 28.1006 9.63016 28.584 10.4782C29.134 11.3263 29.5506 11.9709 29.9673 12.5306C31.0173 11.1906 31.7006 10.3426 31.9173 9.91851C32.2006 9.56232 32.2673 9.27397 32.2673 9.07043C32.2673 8.71424 32.2006 8.5107 31.9173 8.42589C31.7173 8.35804 31.3006 8.2902 30.734 8.2902V7.57781H35.8006V8.2902C35.4506 8.35804 35.1006 8.42589 34.9006 8.57855C34.4839 8.79905 34.0673 9.07043 33.7173 9.49447L30.584 13.4635L35.1006 20.5534C35.2339 20.6891 35.3006 20.8418 35.4506 20.9096C35.5839 20.9775 35.8006 21.1301 36.0006 21.198V21.9104H28.634V21.198C29.1173 21.198 29.4006 21.1301 29.6673 21.0623C29.9506 20.9944 30.0173 20.7739 30.0173 20.5704C30.0173 20.3499 29.9506 20.0785 29.734 19.7223C29.6006 19.434 29.384 19.1626 29.1173 18.7385C28.984 18.4502 28.7673 18.1788 28.484 17.7548C28.2006 17.3307 28.0006 16.9745 27.784 16.6183C27.084 17.4664 26.6006 18.111 26.2506 18.535C25.634 19.5188 25.284 20.1633 25.284 20.3838C25.284 20.74 25.4173 20.9435 25.634 21.0284C25.9173 21.164 26.334 21.2489 26.8173 21.2489V21.9612H21.684V21.164H21.734Z" fill="#A0ACE3"/>
<path d="M68.7504 8.20611C67.2171 8.13826 66.6671 10.9031 66.6671 14.5161C66.6671 17.3488 67.2171 20.6735 68.7504 20.6735C70.4838 20.6735 71.1171 17.705 71.1171 14.5161C71.0338 11.2593 70.6171 8.27395 68.7504 8.20611ZM68.7504 7.06962C72.9171 7.06962 75.5504 10.5469 75.6171 14.2956C75.7504 18.197 73.0504 22.0135 68.7504 22.0135C64.5837 22.0135 62.1504 18.0443 62.1504 14.2956C62.1504 10.5469 64.5004 7.00177 68.7504 7.06962Z" fill="#A0ACE3"/>
<path d="M0.0666666 0.911926H18.8167V7.28988C17.2833 7.28988 17.85 5.3731 15.9667 3.47329C14.9333 2.40464 13.1167 1.84487 9.78334 1.98057C8.53334 2.04842 8.18334 2.89655 8.18334 4.03305V10.8351C10.9667 10.7672 12.9833 10.0548 13.25 6.30604H14.15V16.4327H13.25C12.9667 14.0919 12.55 11.9716 9.01667 11.6832H8.18334V18.6209C8.31667 19.469 7.76667 20.6055 10.3333 20.8091C13.8833 21.0296 17.2833 19.3842 19.4333 15.1436H20.4667L18.7333 21.8777H0.0666666L0 20.9618C0.833334 20.8261 2.5 20.6734 2.5 19.6217V3.6938C2.5 1.99753 1.25 1.99753 0.0666666 1.99753V0.911926Z" fill="#A0ACE3"/>
<path d="M42.4999 2.54034H43.6165V7.56108H46.5165V8.83322H43.5332V18.1284C43.5332 18.7729 43.7332 19.621 44.4999 19.621C45.5332 19.621 46.8665 18.1284 46.8665 18.1284C46.8665 18.1284 47.3499 18.3489 47.3499 18.4167C47.1332 19.9772 45.6832 22.0296 42.6332 22.0296C40.5499 22.0296 39.0165 20.4013 39.0165 18.5524V8.85018H37.2832V7.57803C39.8499 6.79779 41.0332 4.88109 42.4999 2.54034Z" fill="#A0ACE3"/>
<path d="M87.9841 7.06866C90.4841 7.06866 91.9341 9.25695 91.9341 11.3265V19.4689C91.9341 20.385 92.7007 21.0296 93.8174 21.2331V21.8777H85.8341V21.318C86.8841 21.0296 87.9174 20.4698 87.9174 19.4689V11.3265C87.9174 10.2578 87.1507 9.20606 85.8341 9.20606C84.2341 9.20606 82.9841 10.3426 82.9841 11.6149V19.4689C82.9841 20.3171 83.5341 21.0296 84.5174 21.2331V21.8777H76.8008V21.1653C77.7008 20.9448 78.4674 20.4528 78.4674 19.5368V10.2578C78.4674 9.05339 77.9841 8.49359 76.9341 8.27307V7.56061H82.9841C82.9841 8.20522 82.9841 9.12124 83.0508 9.18909C84.0841 7.5606 85.9674 7.06866 87.9841 7.06866Z" fill="#A0ACE3"/>
<path d="M58.9502 7.06891C60.5502 7.20462 61.7335 8.20544 61.7335 9.47768C61.7335 10.4615 60.9002 11.4624 59.7168 11.4624C57.9835 11.4624 58.1168 9.83391 56.9335 9.76606C56.4502 9.76606 55.6835 9.98657 55.2668 10.9704C54.9835 11.6829 54.9168 12.3105 54.9168 12.7346V19.6047C54.9168 20.2493 55.4002 20.8769 56.5168 21.1653V21.8777H48.7335V21.2331C49.2835 21.0974 49.8501 20.8769 50.4001 20.1645C50.5335 19.8761 50.5335 19.3163 50.5335 19.3163L50.6001 10.0375C50.6001 9.12145 49.7668 8.47685 48.7168 8.18848L48.7835 7.54388H54.9002C54.9002 8.39204 54.9002 8.68041 54.9668 9.46072C55.9002 8.2733 57.0835 6.93321 58.9502 7.06891Z" fill="#A0ACE3"/>
</svg>
