<svg width="150" height="27" viewBox="0 0 150 27" fill="none" xmlns="http://www.w3.org/2000/svg">
<g clip-path="url(#clip0)">
<path d="M120.469 17.8894H120.356L115.57 1.24103H107.85V22.2293H112.964L112.676 5.00583H112.789L117.928 22.2293H125.335V1.24H120.187L120.469 17.8894ZM22.2444 1.24L18.3929 22.4503H24.0133L26.8611 3.19777H26.9799L29.7524 22.4513H35.3397L31.5057 1.24H22.2444ZM53.6825 1.24206L51.1134 17.4588H50.9967L48.44 1.24206H39.9553L39.4948 22.4503H44.6969L44.827 3.37744H44.9447L48.4194 22.4503H53.6959L57.1716 3.38364L57.2872 3.37744L57.4225 22.4503H62.6267L62.1672 1.24206H53.6825ZM5.5042 6.69617C5.40611 6.26248 5.42986 5.8288 5.48252 5.58924C5.63224 4.90773 6.08245 4.16117 7.38454 4.16117C8.60505 4.16117 9.31547 4.93148 9.31547 6.08178V7.39213H14.5104V5.9114C14.5104 1.2844 10.4399 0.562622 7.49296 0.562622C3.79528 0.562622 0.776006 1.81515 0.219444 5.27533C0.0676539 6.20466 0.0490674 7.05654 0.27004 8.13042C1.17355 12.4652 8.56375 13.7208 9.6366 16.4623C9.83795 16.9735 9.7729 17.6364 9.67377 18.037C9.50546 18.7309 9.0377 19.4527 7.64888 19.4527C6.34989 19.4527 5.55687 18.6937 5.55687 17.5362L5.55377 15.4783H-0.024246L-0.0273438 17.118C-0.0273438 21.8493 3.62387 23.2712 7.53426 23.2712C11.3032 23.2712 14.3927 21.9722 14.8924 18.4315C15.1465 16.5955 14.9596 15.3915 14.8697 14.9424C13.9889 10.4992 6.09794 9.18572 5.5042 6.69617ZM73.19 6.74573C73.0878 6.32237 73.1167 5.89282 73.1652 5.65842C73.3108 4.98104 73.7569 4.24275 75.0476 4.24275C76.2537 4.24275 76.962 5.0017 76.962 6.13651V7.43756H82.1012V5.97026C82.1012 1.40005 78.0679 0.680337 75.1591 0.680337C71.4935 0.680337 68.5 1.90498 67.9559 5.34348C67.8041 6.26868 67.7803 7.11436 68.0034 8.17276C68.8986 12.4621 76.2155 13.7084 77.2801 16.42C77.4742 16.9311 77.4154 17.5827 77.3204 17.9802C77.151 18.6793 76.6833 19.3794 75.314 19.3794C74.0212 19.3794 73.2427 18.6318 73.2427 17.4867L73.2385 15.4442H67.7101V17.0695C67.7101 21.7523 71.3293 23.1576 75.2015 23.1576C78.924 23.1576 81.9876 21.87 82.4781 18.3664C82.73 16.5542 82.5442 15.3606 82.4564 14.9135C81.5839 10.5178 73.7683 9.21154 73.19 6.74573ZM96.7835 16.926C96.7876 17.1955 96.7794 17.5073 96.735 17.7345C96.6317 18.2621 96.1867 19.2606 94.74 19.2606C93.2985 19.2606 92.8483 18.2621 92.7451 17.7345C92.7007 17.5073 92.6904 17.1955 92.6924 16.926V1.23793H87.4345V16.4396C87.4262 16.833 87.4644 17.6292 87.483 17.8408C87.8403 21.7946 90.9133 23.0719 94.739 23.0719C98.5606 23.0719 101.633 21.7946 102.001 17.8408C102.02 17.6292 102.06 16.832 102.054 16.4396V1.23793H96.7825V16.926H96.7835ZM138.18 10.526V13.632H140.31V16.7081C140.316 16.9755 140.306 17.2708 140.261 17.5135C140.169 18.0845 139.638 19.0479 138.137 19.0479C136.633 19.0479 136.104 18.0835 136.007 17.5135C135.967 17.2708 135.955 16.9755 135.961 16.7081V7.00387C135.961 6.65899 135.982 6.2821 136.045 6.00846C136.156 5.48598 136.604 4.46888 138.117 4.46888C139.708 4.46888 140.101 5.54277 140.196 6.00846C140.257 6.30275 140.261 6.80975 140.261 6.80768V8.00238H145.505V7.29403C145.503 7.29403 145.523 6.56916 145.463 5.90727C145.077 1.9184 141.844 0.662783 138.16 0.662783C134.474 0.662783 131.317 1.92873 130.86 5.90727C130.815 6.25009 130.769 6.91714 130.769 7.29403L130.767 16.2176C130.769 16.6172 130.781 16.9125 130.839 17.6188C131.182 21.4807 134.474 22.8643 138.156 22.8643C141.84 22.8643 145.132 21.4807 145.477 17.6188C145.534 16.9115 145.542 16.6162 145.543 16.2176V10.526H138.18Z" fill="#A0ACE3"/>
</g>
<defs>
<clipPath id="clip0">
<rect width="150" height="26.4706" fill="white" transform="translate(0 0.499268)"/>
</clipPath>
</defs>
</svg>
