<svg width="100" height="23" viewBox="0 0 100 23" fill="none" xmlns="http://www.w3.org/2000/svg">
<g clip-path="url(#clip0)">
<path d="M68.4213 0.280273C61.9567 0.280273 57.6659 5.0788 57.6659 11.187C57.6659 17.6452 62.0149 22.0849 68.4213 22.0849C74.7053 22.0849 79.1547 17.4457 79.1547 11.1819C79.1547 4.91936 74.7047 0.280273 68.4213 0.280273ZM31.6167 0.295671C29.563 0.295671 26.9645 1.0015 25.0526 2.57053C22.7719 4.44274 21.0065 7.37209 21.0065 11.3129C21.0065 14.7109 22.1098 17.4476 24.1002 19.3013C26.0487 21.1167 28.8046 22.1077 32.2219 22.1077C34.9729 22.1077 38.2954 21.0715 39.7204 20.1923C40.2191 19.8847 40.3757 19.7527 40.2463 19.25L39.3565 16.735C39.2532 16.3226 38.7948 16.2169 38.4223 16.4015C37.7968 16.7084 37.3296 16.9499 36.6954 17.1833C35.4634 17.6378 34.1888 17.9478 32.9754 17.9478C30.4206 17.9478 28.9678 17.2548 27.8553 15.976C27.1487 15.164 26.7348 14.1348 26.6061 12.9455H40.7042C41.2171 12.9455 41.4456 12.5917 41.4456 11.9933V10.9794C41.4456 10.4854 41.4232 9.70992 41.3811 9.24619C41.1218 6.41317 40.0774 4.13396 38.335 2.58963C36.6564 1.09964 34.4029 0.295671 31.6167 0.295671ZM54.6012 0.315943C50.5305 0.315943 48.0444 1.24777 46.4493 3.30029C45.2272 4.87426 45.0063 6.63479 45.0077 10.4015V20.7394C45.064 21.476 45.3609 21.8206 46.0508 21.8206H49.2713C50.0163 21.8206 50.3208 21.4328 50.3208 20.7394V10.2087C50.3208 7.8363 50.3499 6.51241 51.1858 5.61706C51.9048 4.84705 52.8693 4.34329 54.8926 4.34329C55.2936 4.34329 56.2545 4.44891 56.5899 4.48967C56.7167 4.50511 56.82 4.51501 56.8745 4.51501C57.2234 4.51501 57.3447 4.3884 57.4567 3.94566L57.9399 1.57568C58.029 1.08972 57.9547 0.711863 57.4696 0.59701C56.732 0.422881 55.5578 0.315943 54.6012 0.315943ZM1.18696 0.597595C0.836759 0.597595 0.584989 0.876133 0.72915 1.34666C1.68883 4.47545 4.12288 8.19025 6.64673 11.2394C3.43049 14.1311 1.18136 17.9773 0.0527822 21.0678C-0.113666 21.5223 0.144411 21.8194 0.398095 21.8194H4.19341C4.73976 21.8194 4.99028 21.6254 5.24087 21.0715C6.26675 18.8097 7.7902 16.1996 9.78813 14.0828C11.6196 15.8427 13.2222 18.5188 14.2493 21.0715C14.537 21.7773 14.8698 21.8194 15.2999 21.8194H19.4379C20.2299 21.8194 20.3 21.3909 20.1577 21.0173C18.5793 16.8654 15.2214 12.6274 13.3274 10.8373C15.0617 8.98977 18.2055 5.42144 19.5792 1.34666C19.7815 0.747079 19.4077 0.597595 19.0977 0.597595H15.6327C15.2125 0.597595 14.9318 0.743991 14.6211 1.34666C12.755 4.85891 11.0751 6.93 10.3518 7.67654C9.21208 6.3261 7.71345 3.89687 6.61704 1.34666C6.37882 0.793389 6.12697 0.597595 5.64497 0.597595H1.18696ZM80.9702 0.597595C80.6212 0.597595 80.3688 0.876133 80.5124 1.34666C81.4714 4.47545 83.9055 8.19025 86.4299 11.2394C83.2143 14.1311 80.9652 17.9773 79.8366 21.0678C79.6701 21.5223 79.93 21.8194 80.1825 21.8194H83.9772C84.5229 21.8194 84.7735 21.6254 85.0235 21.0715C86.05 18.8097 87.5728 16.1996 89.5713 14.0828C91.4034 15.8427 93.006 18.5188 94.0319 21.0715C94.3221 21.7773 94.6543 21.8194 95.0831 21.8194H99.2211C100.013 21.8194 100.083 21.3909 99.9415 21.0173C98.3618 16.8654 95.0039 12.6274 93.1124 10.8373C94.8455 8.98977 97.9899 5.42144 99.3629 1.34666C99.5659 0.747079 99.1915 0.597595 98.8809 0.597595H95.4172C94.9965 0.597595 94.715 0.743991 94.4044 1.34666C92.5388 4.85891 90.8589 6.93 90.1362 7.67654C88.9952 6.3261 87.4967 3.89687 86.3997 1.34666C86.1621 0.793389 85.9089 0.597595 85.4282 0.597595H80.9702ZM68.4245 4.27292C72.1883 4.27292 73.6065 7.52157 73.6065 11.1833C73.6065 14.8462 72.1883 18.0971 68.4245 18.0965C64.6594 18.0965 63.2092 14.8462 63.2092 11.1833C63.2092 7.52219 64.6594 4.27292 68.4245 4.27292ZM31.793 4.29144C34.6089 4.29144 36.3292 6.20012 36.3292 9.03315V9.1616H26.5981C26.7027 8.45704 26.9043 7.78761 27.2211 7.15221C28.0886 5.40596 29.7431 4.29144 31.793 4.29144Z" fill="#A0ACE3"/>
</g>
<defs>
<clipPath id="clip0">
<rect width="100" height="21.8274" fill="white" transform="translate(0 0.280273)"/>
</clipPath>
</defs>
</svg>
