<svg width="46" height="46" viewBox="0 0 46 46" fill="none" xmlns="http://www.w3.org/2000/svg">
<circle r="22.5" transform="matrix(-1 0 0 1 23 23)" fill="white" stroke="#BDE3FE"/>
<path d="M21.2667 30.9336H14.3335V32.6668H21.2667V30.9336Z" fill="#1F40E5"/>
<path d="M24.7334 30.9336H23V32.6668H24.7334V30.9336Z" fill="#1F40E5"/>
<path d="M19.5335 27.4668H14.3335V29.2002H19.5335V27.4668Z" fill="#1F40E5"/>
<path d="M30.4928 19.6671L27.7667 26.4838L26.4945 23.303C27.0075 22.8274 27.3335 22.1546 27.3335 21.4006C27.3335 19.9651 26.1695 18.8006 24.7335 18.8006C24.7197 18.8006 24.708 18.8039 24.6956 18.8039L23.3066 15.334H20.0936L17.3667 22.1504L16.3732 19.6671H12.6001V21.4006H15.2001L16.9335 25.734H17.8001L21.2667 17.0671H22.1335L23.0729 19.4149C22.5032 19.8923 22.1335 20.6 22.1335 21.4006C22.1335 22.836 23.2973 24.0006 24.7335 24.0006C24.7902 24.0006 24.8435 23.987 24.9002 23.9837L27.3335 30.0671H28.2001L31.6667 21.4006H33.4001V19.6671H30.4928ZM24.7335 22.2671C24.2543 22.2671 23.8667 21.8797 23.8667 21.4006C23.8667 20.9214 24.2543 20.534 24.7335 20.534C25.2124 20.534 25.6001 20.9214 25.6001 21.4006C25.6001 21.8797 25.2124 22.2671 24.7335 22.2671Z" fill="#1F40E5"/>
</svg>
