<svg width="46" height="46" viewBox="0 0 46 46" fill="none" xmlns="http://www.w3.org/2000/svg">
<circle r="22.5" transform="matrix(-1 0 0 1 23 23)" fill="white" stroke="#BDE3FE"/>
<path fill-rule="evenodd" clip-rule="evenodd" d="M12 32.7051H32.6256V33.9591H12V32.7051Z" fill="#1F40E5"/>
<path fill-rule="evenodd" clip-rule="evenodd" d="M31.2901 23.5714L25.1353 22.439L27.2176 20.3568L21.0317 15.1066L15.753 19.4186C15.6891 19.475 15.6146 19.5182 15.534 19.5458C15.4533 19.5734 15.368 19.5847 15.2829 19.5792C15.1978 19.5737 15.1147 19.5515 15.0382 19.5137C14.9618 19.476 14.8935 19.4235 14.8374 19.3593C14.7813 19.2951 14.7385 19.2204 14.7113 19.1396C14.6842 19.0588 14.6732 18.9734 14.6792 18.8884C14.6851 18.8033 14.7078 18.7203 14.746 18.6441C14.7841 18.5678 14.8369 18.4998 14.9014 18.4441L21.042 13.3789L28.1325 19.4418L30.3118 17.2626L31.2901 23.5714Z" fill="#1F40E5"/>
<path fill-rule="evenodd" clip-rule="evenodd" d="M19.7646 19.7637H23.5836V31.2528H19.7646V19.7637Z" fill="#1F40E5"/>
<path fill-rule="evenodd" clip-rule="evenodd" d="M13.2941 23.6465H17.1531V31.2533H13.2941V23.6465Z" fill="#1F40E5"/>
<path fill-rule="evenodd" clip-rule="evenodd" d="M26.2354 26.2344H30.0543V31.2711H26.2354V26.2344Z" fill="#1F40E5"/>
</svg>
