<svg width="46" height="46" viewBox="0 0 46 46" fill="none" xmlns="http://www.w3.org/2000/svg">
<rect width="46" height="46" fill="white"/>
<circle r="22.5" transform="matrix(-1 0 0 1 23 23)" fill="white" stroke="#BDE3FE"/>
<path fill-rule="evenodd" clip-rule="evenodd" d="M22.9167 28.334C22.3645 28.334 21.9167 28.7817 21.9167 29.334V32.6673H19.1667C18.8906 32.6673 18.6667 32.8912 18.6667 33.1673V33.2507C18.6667 33.5268 18.8906 33.7507 19.1667 33.7507H22.9167H23.0834H26.8334C27.1096 33.7507 27.3334 33.5268 27.3334 33.2507V33.1673C27.3334 32.8912 27.1096 32.6673 26.8334 32.6673H24.0834V29.334C24.0834 28.7817 23.6357 28.334 23.0834 28.334H22.9167Z" fill="#1F40E5"/>
<path d="M13.1666 16.416H32.8333V14.416H13.1666V16.416ZM32.8333 16.416V27.416H34.8333V16.416H32.8333ZM32.8333 27.416H13.1666V29.416H32.8333V27.416ZM13.1666 27.416V16.416H11.1666V27.416H13.1666ZM13.1666 27.416H13.1666H11.1666C11.1666 28.5206 12.0621 29.416 13.1666 29.416V27.416ZM32.8333 27.416V29.416C33.9379 29.416 34.8333 28.5206 34.8333 27.416H32.8333ZM32.8333 16.416H32.8333H34.8333C34.8333 15.3114 33.9379 14.416 32.8333 14.416V16.416ZM13.1666 14.416C12.0621 14.416 11.1666 15.3114 11.1666 16.416H13.1666V16.416V14.416Z" fill="#1F40E5"/>
<rect x="14.3335" y="18.666" width="10.8333" height="1.08333" rx="0.541667" fill="#1F40E5"/>
<rect x="14.3335" y="20.834" width="4.33333" height="1.08333" rx="0.541667" fill="#1F40E5"/>
</svg>
