<svg width="46" height="46" viewBox="0 0 46 46" fill="none" xmlns="http://www.w3.org/2000/svg">
<circle r="22.5" transform="matrix(-1 0 0 1 23 23)" fill="white" stroke="#BDE3FE"/>
<path d="M31.6679 23C31.0272 23 30.4742 23.3513 30.1742 23.8666H23V25.6008H30.1742C30.4742 26.1161 31.0272 26.4666 31.6679 26.4666C32.6239 26.4666 33.4 25.692 33.4 24.7334C33.4 23.7766 32.6239 23 31.6679 23Z" fill="#1F40E5"/>
<path d="M31.6679 16.0664C31.0272 16.0664 30.4742 16.4177 30.1742 16.9332H23V18.6661H30.1742C30.4742 19.1825 31.0272 19.533 31.6679 19.533C32.6239 19.533 33.4 18.7577 33.4 17.8001C33.4 16.8433 32.6239 16.0664 31.6679 16.0664Z" fill="#1F40E5"/>
<path d="M21.2663 23.8672H16.0665V25.6014H21.2663V23.8672Z" fill="#1F40E5"/>
<path d="M21.2663 27.334H16.0665V29.0677H21.2663V27.334Z" fill="#1F40E5"/>
<path d="M21.2663 20.4004H16.0665V22.1341H21.2663V20.4004Z" fill="#1F40E5"/>
<path d="M21.2663 16.9336H16.0665V18.6665H21.2663V16.9336Z" fill="#1F40E5"/>
<path d="M26.4674 26.4668C25.8267 26.4668 25.2745 26.8188 24.9737 27.3336H23V29.0673H24.9737C25.2745 29.5837 25.8267 29.9342 26.4674 29.9342C27.4242 29.9342 28.2005 29.1588 28.2005 28.2005C28.2005 27.2437 27.4242 26.4668 26.4674 26.4668Z" fill="#1F40E5"/>
<path d="M28.201 19.5332C27.5604 19.5332 27.0074 19.8845 26.7073 20.4H23V22.1337H26.7073C27.0074 22.6493 27.5604 22.9998 28.201 22.9998C29.1573 22.9998 29.9334 22.2252 29.9334 21.2669C29.9334 20.3103 29.1573 19.5332 28.201 19.5332Z" fill="#1F40E5"/>
<path d="M24.7337 15.2C24.7337 14.2424 23.9576 13.4668 23 13.4668H14.3329C13.3761 13.4668 12.6 14.2429 12.6 15.2V30.8005C12.6 31.7588 13.3761 32.5342 14.3329 32.5342H23C23.9576 32.5342 24.7337 31.7588 24.7337 30.8005H14.3329V15.2H24.7337Z" fill="#1F40E5"/>
</svg>
