<svg width="46" height="46" viewBox="0 0 46 46" fill="none" xmlns="http://www.w3.org/2000/svg">
<circle r="22.5" transform="matrix(-1 0 0 1 23 23)" fill="white" stroke="#BDE3FE"/>
<path d="M32.5334 13.5996H25.6C25.1234 13.5996 24.7334 13.9899 24.7334 14.4662V19.6662C24.7334 20.1428 25.1234 20.533 25.6 20.533H28.2V26.5996H21.2666V24.8662C21.2666 24.3899 20.8766 23.9996 20.4 23.9996H17.8V20.533H20.4C20.8766 20.533 21.2666 20.1428 21.2666 19.6662V14.4662C21.2666 13.9899 20.8766 13.5996 20.4 13.5996H13.4666C12.9902 13.5996 12.6 13.9899 12.6 14.4662V19.6662C12.6 20.1428 12.9902 20.533 13.4666 20.533H16.0666V23.9996H13.4666C12.9902 23.9996 12.6 24.3899 12.6 24.8662V30.0662C12.6 30.5428 12.9902 30.933 13.4666 30.933H20.4C20.8766 30.933 21.2666 30.5428 21.2666 30.0662V28.333H28.2V34.3996H29.9334V20.533H32.5334C33.0097 20.533 33.4 20.1428 33.4 19.6662V14.4662C33.4 13.9899 33.0097 13.5996 32.5334 13.5996ZM14.3334 18.7996V15.333H19.5334V18.7996H14.3334ZM19.5334 29.1996H14.3334V25.733H19.5334V29.1996ZM31.6666 18.7996H26.4666V15.333H31.6666V18.7996Z" fill="#1F40E5"/>
</svg>
