<svg width="46" height="46" viewBox="0 0 46 46" fill="none" xmlns="http://www.w3.org/2000/svg">
<rect width="46" height="46" fill="white"/>
<circle r="22.5" transform="matrix(-1 0 0 1 23 23)" fill="white" stroke="#BDE3FE"/>
<path fill-rule="evenodd" clip-rule="evenodd" d="M22.9167 28.334C22.3645 28.334 21.9167 28.7817 21.9167 29.334V32.6673H19.1667C18.8906 32.6673 18.6667 32.8912 18.6667 33.1673V33.2507C18.6667 33.5268 18.8906 33.7507 19.1667 33.7507H22.9167H23.0834H26.8334C27.1096 33.7507 27.3334 33.5268 27.3334 33.2507V33.1673C27.3334 32.8912 27.1096 32.6673 26.8334 32.6673H24.0834V29.334C24.0834 28.7817 23.6357 28.334 23.0834 28.334H22.9167Z" fill="#1F40E5"/>
<path d="M13.1666 16H32.8333V14H13.1666V16ZM32.8333 16V27H34.8333V16H32.8333ZM32.8333 27H13.1666V29H32.8333V27ZM13.1666 27V16H11.1666V27H13.1666ZM13.1666 27H13.1666H11.1666C11.1666 28.1046 12.0621 29 13.1666 29V27ZM32.8333 27V29C33.9379 29 34.8333 28.1046 34.8333 27H32.8333ZM32.8333 16H32.8333H34.8333C34.8333 14.8954 33.9379 14 32.8333 14V16ZM13.1666 14C12.0621 14 11.1666 14.8954 11.1666 16H13.1666V16V14Z" fill="#1F40E5"/>
<rect x="15.5" y="17.5" width="7" height="8" rx="0.5" stroke="#1F40E5" stroke-linejoin="round"/>
<line x1="17.5" y1="21.5" x2="20.5" y2="21.5" stroke="#1F40E5" stroke-linecap="round"/>
<line x1="17.5" y1="23.5" x2="19.5" y2="23.5" stroke="#1F40E5" stroke-linecap="round"/>
</svg>
