<svg width="46" height="46" viewBox="0 0 46 46" fill="none" xmlns="http://www.w3.org/2000/svg">
<circle r="22.5" transform="matrix(-1 0 0 1 23 23)" fill="white" stroke="#BDE3FE"/>
<path d="M31.2335 28.0662C30.3456 28.0662 29.5846 28.6013 29.2495 29.3662H28.2001V25.4662H29.9335C31.8479 25.4662 33.4001 23.914 33.4001 21.9996C33.4001 20.0852 31.8479 18.533 29.9335 18.533C29.9335 16.8178 28.6868 15.4042 27.0525 15.1239C26.3549 13.0756 24.4194 11.5996 22.1335 11.5996C19.2608 11.5996 16.9335 13.9271 16.9335 16.7996C14.54 16.7996 12.6001 18.7395 12.6001 21.133C12.6001 23.5266 14.54 25.4664 16.9335 25.4664H17.8001V29.3664H16.7507C16.4156 28.6015 15.6538 28.0664 14.7667 28.0664C13.5699 28.0664 12.6001 29.0362 12.6001 30.2333C12.6001 31.4298 13.5699 32.3996 14.7667 32.3996C15.6538 32.3996 16.4156 31.8637 16.7507 31.0996H17.8001C18.7574 31.0996 19.5335 30.3235 19.5335 29.3662V25.4662H22.1335V28.249C21.3694 28.5841 20.8335 29.3451 20.8335 30.233C20.8335 31.4298 21.8041 32.3996 23.0001 32.3996C24.1969 32.3996 25.1667 31.4298 25.1667 30.233C25.1667 29.3451 24.6319 28.5833 23.8667 28.249V25.4662H26.4667V29.3662C26.4667 30.3235 27.2428 31.0996 28.2001 31.0996H29.2495C29.5846 31.8637 30.3456 32.3996 31.2335 32.3996C32.4303 32.3996 33.4001 31.4298 33.4001 30.233C33.4001 29.036 32.4303 28.0662 31.2335 28.0662ZM14.3335 21.133C14.3335 19.696 15.4981 18.533 16.9335 18.533H18.6667V16.7996C18.6667 14.8842 20.2191 13.333 22.1335 13.333C24.0479 13.333 25.6001 14.8842 25.6001 16.7996H26.4677C27.425 16.7996 28.2001 17.5744 28.2001 18.533V20.2664H29.9335C30.8908 20.2664 31.6667 21.0415 31.6667 21.9999C31.6667 22.9561 30.8908 23.7333 29.9335 23.7333H16.9335C15.4981 23.733 14.3335 22.5685 14.3335 21.133Z" fill="#1F40E5"/>
</svg>
