<svg width="46" height="46" viewBox="0 0 46 46" fill="none" xmlns="http://www.w3.org/2000/svg">
<circle r="22.5" transform="matrix(-1 0 0 1 23 23)" fill="white" stroke="#BDE3FE"/>
<path d="M21.2667 30.9336H14.3335V32.6668H21.2667V30.9336Z" fill="#1F40E5"/>
<path d="M24.7334 30.9336H23V32.6668H24.7334V30.9336Z" fill="#1F40E5"/>
<path d="M19.5335 27.4668H14.3335V29.2002H19.5335V27.4668Z" fill="#1F40E5"/>
<path d="M30.4928 19.6662L27.7667 26.4828L26.4945 23.302C27.0075 22.8265 27.3335 22.1536 27.3335 21.3996C27.3335 19.9641 26.1695 18.7996 24.7335 18.7996C24.7197 18.7996 24.708 18.803 24.6956 18.803L23.3066 15.333H20.0936L17.3667 22.1494L16.3732 19.6662H12.6001V21.3996H15.2001L16.9335 25.733H17.8001L21.2667 17.0662H22.1335L23.0729 19.414C22.5032 19.8913 22.1335 20.599 22.1335 21.3996C22.1335 22.835 23.2973 23.9996 24.7335 23.9996C24.7902 23.9996 24.8435 23.9861 24.9002 23.9827L27.3335 30.0662H28.2001L31.6667 21.3996H33.4001V19.6662H30.4928ZM24.7335 22.2662C24.2543 22.2662 23.8667 21.8788 23.8667 21.3996C23.8667 20.9204 24.2543 20.533 24.7335 20.533C25.2124 20.533 25.6001 20.9204 25.6001 21.3996C25.6001 21.8788 25.2124 22.2662 24.7335 22.2662Z" fill="#1F40E5"/>
</svg>
