<svg width="81" height="81" viewBox="0 0 81 81" fill="none" xmlns="http://www.w3.org/2000/svg">
<path d="M17.526 64.1536H67.526C69.367 64.1536 70.8594 65.646 70.8594 67.487C70.8594 69.3279 69.367 70.8203 67.526 70.8203H14.1927C12.3518 70.8203 10.8594 69.3279 10.8594 67.487V14.1536C10.8594 12.3127 12.3518 10.8203 14.1927 10.8203C16.0337 10.8203 17.526 12.3127 17.526 14.1536V64.1536Z" fill="white"/>
<path opacity="0.3" d="M29.9578 23.5404C28.6987 22.1973 26.5893 22.1293 25.2462 23.3884C23.9032 24.6475 23.8351 26.7569 25.0942 28.1L37.5942 41.4333C38.8119 42.7322 40.8354 42.8448 42.1898 41.6891L52.0555 33.2703L64.9098 49.5523C66.0505 50.9973 68.1466 51.2439 69.5915 50.1031C71.0364 48.9624 71.283 46.8663 70.1423 45.4214L55.1423 26.4214C53.9707 24.9373 51.8006 24.7239 50.3623 25.9512L40.2821 34.553L29.9578 23.5404Z" fill="#D8E8F5"/>
</svg>
