<svg width="48" height="48" viewBox="0 0 48 48" fill="none" xmlns="http://www.w3.org/2000/svg">
<path opacity="0.3" fill-rule="evenodd" clip-rule="evenodd" d="M29.6219 13C28.2898 7.82432 23.5915 4 18 4C11.3726 4 6 9.37258 6 16C6 19.1438 7.20895 22.0053 9.1873 24.1448C9.79822 26.3673 11.8334 28 14.25 28H18H36.75C39.6495 28 42 25.6495 42 22.75V18.25C42 15.3505 39.6495 13 36.75 13H29.6219Z" fill="#1F40E5"/>
<path fill-rule="evenodd" clip-rule="evenodd" d="M18.3911 17.1789C18.127 16.8642 17.6171 16.9846 17.5217 17.3843L16.3301 22.3801C16.2524 22.7057 16.5105 23.0142 16.8448 22.9953L21.9839 22.704C22.3949 22.6808 22.6032 22.1987 22.3387 21.8835L21.0716 20.3734C21.9816 20.0624 22.9466 19.9 23.9375 19.9C28.8275 19.9 32.7917 23.8641 32.7917 28.7542C32.7917 33.6442 28.8275 37.6083 23.9375 37.6083C19.0475 37.6083 15.0833 33.6442 15.0833 28.7542C15.0833 27.9333 15.1945 27.1292 15.4113 26.3565L13.4053 25.7938C13.1412 26.7353 13 27.7283 13 28.7542C13 34.7948 17.8969 39.6917 23.9375 39.6917C29.9781 39.6917 34.875 34.7948 34.875 28.7542C34.875 22.7136 29.9781 17.8167 23.9375 17.8167C22.4181 17.8167 20.971 18.1265 19.656 18.6864L18.3911 17.1789Z" fill="#1F40E5"/>
</svg>
