<svg width="46" height="46" viewBox="0 0 46 46" fill="none" xmlns="http://www.w3.org/2000/svg">
<circle r="22.5" transform="matrix(-1 0 0 1 23 23)" fill="white" stroke="#BDE3FE"/>
<path d="M32.5335 12.6001H25.6001C25.1235 12.6001 24.7335 12.9904 24.7335 13.4667V18.6667C24.7335 19.1433 25.1235 19.5335 25.6001 19.5335H28.2001V25.6001H21.2667V23.8667C21.2667 23.3904 20.8767 23.0001 20.4001 23.0001H17.8001V19.5335H20.4001C20.8767 19.5335 21.2667 19.1433 21.2667 18.6667V13.4667C21.2667 12.9904 20.8767 12.6001 20.4001 12.6001H13.4667C12.9904 12.6001 12.6001 12.9904 12.6001 13.4667V18.6667C12.6001 19.1433 12.9904 19.5335 13.4667 19.5335H16.0667V23.0001H13.4667C12.9904 23.0001 12.6001 23.3904 12.6001 23.8667V29.0667C12.6001 29.5433 12.9904 29.9335 13.4667 29.9335H20.4001C20.8767 29.9335 21.2667 29.5433 21.2667 29.0667V27.3335H28.2001V33.4001H29.9335V19.5335H32.5335C33.0098 19.5335 33.4001 19.1433 33.4001 18.6667V13.4667C33.4001 12.9904 33.0098 12.6001 32.5335 12.6001ZM14.3335 17.8001V14.3335H19.5335V17.8001H14.3335ZM19.5335 28.2001H14.3335V24.7335H19.5335V28.2001ZM31.6667 17.8001H26.4667V14.3335H31.6667V17.8001Z" fill="#1F40E5"/>
</svg>
