<svg width="46" height="46" viewBox="0 0 46 46" fill="none" xmlns="http://www.w3.org/2000/svg">
<circle r="22.5" transform="matrix(-1 0 0 1 23 23)" fill="white" stroke="#BDE3FE"/>
<path d="M30.8001 22.1331H20.8335V23.8665H30.8001V22.1331Z" fill="#1F40E5"/>
<path d="M17.3668 20.8333C16.17 20.8333 15.2002 21.8036 15.2002 22.9998C15.2002 24.1969 16.17 25.1669 17.3668 25.1669C18.5628 25.1669 19.5336 24.1969 19.5336 22.9998C19.5336 21.8036 18.5628 20.8333 17.3668 20.8333ZM17.3668 23.8667C16.8879 23.8667 16.5002 23.4785 16.5002 22.9998C16.5002 22.5212 16.8879 22.1333 17.3668 22.1333C17.8452 22.1333 18.2336 22.5212 18.2336 22.9998C18.2336 23.4785 17.8452 23.8667 17.3668 23.8667Z" fill="#1F40E5"/>
<path d="M30.8001 16.9331H20.8335V18.6665H30.8001V16.9331Z" fill="#1F40E5"/>
<path d="M17.3668 15.6331C16.17 15.6331 15.2002 16.6034 15.2002 17.7996C15.2002 18.9967 16.17 19.9665 17.3668 19.9665C18.5628 19.9665 19.5336 18.9967 19.5336 17.7996C19.5336 16.6034 18.5628 15.6331 17.3668 15.6331ZM17.3668 18.6665C16.8879 18.6665 16.5002 18.2783 16.5002 17.7996C16.5002 17.321 16.8879 16.9331 17.3668 16.9331C17.8452 16.9331 18.2336 17.321 18.2336 17.7996C18.2336 18.2783 17.8452 18.6665 17.3668 18.6665Z" fill="#1F40E5"/>
<path d="M30.8001 27.3337H20.8335V29.0669H30.8001V27.3337Z" fill="#1F40E5"/>
<path d="M17.3668 26.0337C16.17 26.0337 15.2002 27.0035 15.2002 28.2003C15.2002 29.3971 16.17 30.3668 17.3668 30.3668C18.5628 30.3668 19.5336 29.3971 19.5336 28.2003C19.5336 27.0035 18.5628 26.0337 17.3668 26.0337ZM17.3668 29.0669C16.8879 29.0669 16.5002 28.6795 16.5002 28.2003C16.5002 27.7211 16.8879 27.3337 17.3668 27.3337C17.8452 27.3337 18.2336 27.7211 18.2336 28.2003C18.2336 28.6795 17.8452 29.0669 17.3668 29.0669Z" fill="#1F40E5"/>
</svg>
