<svg width="46" height="46" viewBox="0 0 46 46" fill="none" xmlns="http://www.w3.org/2000/svg">
<circle r="22.5" transform="matrix(-1 0 0 1 23 23)" fill="white" stroke="#BDE3FE"/>
<path d="M29.0668 17.8001C29.5454 17.8001 29.9334 17.4121 29.9334 16.9335C29.9334 16.4549 29.5454 16.0669 29.0668 16.0669C28.5882 16.0669 28.2002 16.4549 28.2002 16.9335C28.2002 17.4121 28.5882 17.8001 29.0668 17.8001Z" fill="#1F40E5"/>
<path d="M26.0336 17.8001C26.5122 17.8001 26.9002 17.4121 26.9002 16.9335C26.9002 16.4549 26.5122 16.0669 26.0336 16.0669C25.555 16.0669 25.167 16.4549 25.167 16.9335C25.167 17.4121 25.555 17.8001 26.0336 17.8001Z" fill="#1F40E5"/>
<path d="M22.9999 17.8001C23.4785 17.8001 23.8665 17.4121 23.8665 16.9335C23.8665 16.4549 23.4785 16.0669 22.9999 16.0669C22.5213 16.0669 22.1333 16.4549 22.1333 16.9335C22.1333 17.4121 22.5213 17.8001 22.9999 17.8001Z" fill="#1F40E5"/>
<path d="M31.6667 12.6001H14.3335C13.3804 12.6001 12.6001 13.3804 12.6001 14.3335V20.4001C12.6001 21.3538 13.3804 22.1335 14.3335 22.1335H31.6667C32.6198 22.1335 33.4001 21.3538 33.4001 20.4001V14.3335C33.4001 13.3804 32.6198 12.6001 31.6667 12.6001ZM31.6667 20.4001H20.8335V16.0667H19.1001V20.4001H17.8001V16.0667H16.0667V20.4001H14.3335V14.3335H31.6667V20.4001Z" fill="#1F40E5"/>
<path d="M29.0668 29.0667C29.5454 29.0667 29.9334 28.6787 29.9334 28.2001C29.9334 27.7215 29.5454 27.3335 29.0668 27.3335C28.5882 27.3335 28.2002 27.7215 28.2002 28.2001C28.2002 28.6787 28.5882 29.0667 29.0668 29.0667Z" fill="#1F40E5"/>
<path d="M26.0336 29.0667C26.5122 29.0667 26.9002 28.6787 26.9002 28.2001C26.9002 27.7215 26.5122 27.3335 26.0336 27.3335C25.555 27.3335 25.167 27.7215 25.167 28.2001C25.167 28.6787 25.555 29.0667 26.0336 29.0667Z" fill="#1F40E5"/>
<path d="M22.9999 29.0667C23.4785 29.0667 23.8665 28.6787 23.8665 28.2001C23.8665 27.7215 23.4785 27.3335 22.9999 27.3335C22.5213 27.3335 22.1333 27.7215 22.1333 28.2001C22.1333 28.6787 22.5213 29.0667 22.9999 29.0667Z" fill="#1F40E5"/>
<path d="M31.6667 23.8665H14.3335C13.3804 23.8665 12.6001 24.6467 12.6001 25.5999V31.6665C12.6001 32.6196 13.3804 33.3999 14.3335 33.3999H31.6667C32.6198 33.3999 33.4001 32.6196 33.4001 31.6665V25.5999C33.4001 24.6467 32.6198 23.8665 31.6667 23.8665ZM31.6667 31.6665H20.8335V27.333H19.1001V31.6665H17.8001V27.333H16.0667V31.6665H14.3335V25.5999H31.6667V31.6665Z" fill="#1F40E5"/>
</svg>
