<svg width="46" height="46" viewBox="0 0 46 46" fill="none" xmlns="http://www.w3.org/2000/svg">
<circle r="22.5" transform="matrix(-1 0 0 1 23 23)" fill="white" stroke="#BDE3FE"/>
<path d="M23 29.9328H14.3334V17.7996H31.6666V22.9996H33.4V14.333C33.4 13.3799 32.6197 12.5996 31.6666 12.5996H14.3334C13.3802 12.5996 12.6 13.3799 12.6 14.333V29.933C12.6 30.8862 13.3802 31.6667 14.3334 31.6667H23V29.9328ZM14.3334 14.333H31.6666V16.0664H14.3334V14.333Z" fill="#1F40E5"/>
<path d="M22.1334 19.5332H16.0665V21.2669H22.1334V19.5332Z" fill="#1F40E5"/>
<path d="M27.3334 19.5332H23.8666V21.2669H27.3334V19.5332Z" fill="#1F40E5"/>
<path d="M25.6 23H17.8V24.7332H25.6V23Z" fill="#1F40E5"/>
<path d="M23 26.4668H19.5334V28.2H23V26.4668Z" fill="#1F40E5"/>
<path d="M17.7999 26.4668H16.0665V28.2H17.7999V26.4668Z" fill="#1F40E5"/>
<path d="M33.4 29.9324V28.1993H31.9596C31.8995 28.0011 31.8215 27.8124 31.7251 27.634L32.7443 26.6148L31.5178 25.3894L30.4986 26.4076C30.32 26.3111 30.1315 26.2329 29.9334 26.1731V24.7324H28.2V26.1731C28.0019 26.2329 27.8134 26.3111 27.6345 26.4076L26.6155 25.3884L25.3899 26.6148L26.4081 27.634C26.3116 27.8124 26.2339 28.0011 26.1738 28.1993H24.7334V29.9324H26.1738C26.2339 30.1305 26.3116 30.3193 26.4081 30.4982L25.3899 31.5169L26.6155 32.7428L27.6337 31.7246C27.8131 31.8211 28.0019 31.8988 28.2 31.9586V33.3993H29.9334V31.9586C30.1315 31.8988 30.32 31.8211 30.4997 31.7246L31.5178 32.7428L32.7443 31.5169L31.7251 30.4982C31.8215 30.3185 31.8995 30.1305 31.9596 29.9324H33.4ZM29.0666 30.3661C28.349 30.3661 27.7666 29.7837 27.7666 29.0661C27.7666 28.348 28.349 27.7661 29.0666 27.7661C29.7844 27.7661 30.3666 28.348 30.3666 29.0661C30.3666 29.7837 29.7844 30.3661 29.0666 30.3661Z" fill="#1F40E5"/>
</svg>
