<svg width="80" height="80" viewBox="0 0 80 80" fill="none" xmlns="http://www.w3.org/2000/svg">
<path d="M56.6653 61.334L51.3325 53.334L45.9989 61.334H48.8997C47.7469 65.1812 44.2229 68.0012 39.9989 68.0012C37.7229 68.0012 35.6685 67.154 34.0485 65.8028L31.8301 69.134C34.0925 70.9012 36.9053 72.0012 39.9989 72.0012C46.4493 72.0012 51.8269 67.4196 53.0637 61.334H56.6653Z" fill="#5672EA"/>
<path d="M39.9994 45.332C33.549 45.332 28.1714 49.9136 26.9346 55.9992H23.333L28.6658 63.9992L33.9994 55.9992H31.0986C32.2514 52.152 35.7786 49.332 39.9994 49.332C42.2754 49.332 44.3298 50.1792 45.9498 51.5304L48.1682 48.1992C45.9082 46.4312 43.0954 45.332 39.9994 45.332Z" fill="#5672EA"/>
<path d="M39.9994 8C25.273 8 13.333 12.776 13.333 18.6664V45.3328C13.333 48.5752 16.9602 51.4736 22.6658 53.4296V47.7704C20.5306 46.8904 19.1818 45.9848 18.6658 45.3328V38.38C23.5306 40.9792 31.2626 42.6664 39.9994 42.6664C48.7394 42.6664 56.4682 40.9792 61.333 38.38V45.3328C60.817 45.984 59.4682 46.8904 57.333 47.7704V53.4296C63.0386 51.4736 66.6658 48.5752 66.6658 45.3328V18.6664C66.6658 12.776 54.7282 8 39.9994 8ZM61.333 32C59.9522 33.7448 52.5986 37.3328 39.9994 37.3328C27.4002 37.3328 20.049 33.7448 18.6658 32V25.0472C23.5306 27.6456 31.2626 29.3328 39.9994 29.3328C48.7394 29.3328 56.4682 27.6456 61.333 25.0472V32ZM39.9994 24C27.4002 24 20.049 20.4112 18.6658 18.6664C20.049 16.9216 27.4002 13.3328 39.9994 13.3328C52.5986 13.3328 59.9522 16.9216 61.333 18.6664C59.9522 20.4112 52.5986 24 39.9994 24Z" fill="white"/>
</svg>
