<svg width="46" height="46" viewBox="0 0 46 46" fill="none" xmlns="http://www.w3.org/2000/svg">
<circle r="22.5" transform="matrix(-1 0 0 1 23 23)" fill="white" stroke="#BDE3FE"/>
<path d="M27.3332 18.5334H23.2962L23.2978 19.8334H25.9807L17.7998 28.0141L18.7181 28.9332L26.8998 20.7525V23.4363L28.1998 23.4357V19.4C28.1998 18.9211 27.8121 18.5334 27.3332 18.5334Z" fill="#1F40E5"/>
<path d="M29.933 13.3335H27.333C27.333 12.3801 26.5525 11.6001 25.5996 11.6001H20.3996C19.4467 11.6001 18.6662 12.3801 18.6662 13.3335H16.0662C15.1133 13.3335 14.333 14.1135 14.333 15.0669V30.6669C14.333 31.6196 15.1133 32.4001 16.0662 32.4001H29.933C30.8859 32.4001 31.6662 31.6196 31.6662 30.6669V15.0669C31.6662 14.1135 30.8859 13.3335 29.933 13.3335ZM20.3996 13.3335H25.5996V15.0669H20.3996V13.3335ZM29.933 30.6669H16.0662V15.0669H18.6662V16.8001H27.333V15.0667H29.933V30.6669Z" fill="#1F40E5"/>
</svg>
