<svg width="46" height="46" viewBox="0 0 46 46" fill="none" xmlns="http://www.w3.org/2000/svg">
<circle r="22.5" transform="matrix(-1 0 0 1 23 23)" fill="white" stroke="#BDE3FE"/>
<path d="M28.4971 17.7277C28.1586 18.0662 27.6102 18.0662 27.2715 17.7277C26.9329 17.39 26.9329 16.8416 27.2715 16.5021C27.6102 16.1643 28.1586 16.1643 28.4971 16.5021C28.8354 16.8416 28.8354 17.39 28.4971 17.7277Z" fill="#1F40E5"/>
<path d="M25.433 20.4334C25.9116 20.4334 26.2996 20.0454 26.2996 19.5668C26.2996 19.0882 25.9116 18.7002 25.433 18.7002C24.9544 18.7002 24.5664 19.0882 24.5664 19.5668C24.5664 20.0454 24.9544 20.4334 25.433 20.4334Z" fill="#1F40E5"/>
<path d="M33.3996 11.6001C29.6291 11.6001 25.8604 13.0337 22.9785 15.8961C21.6216 14.5927 19.4659 14.6028 18.129 15.94L13.8395 20.2295H19.9672L20.5299 20.7924L17.4663 22.6309L18.4439 23.6085C15.0116 25.0504 12.5996 28.4426 12.5996 32.4001C16.5547 32.3991 19.9477 29.9891 21.3907 26.5566L22.3683 27.5342L24.2065 24.4696V24.4691L24.7694 25.0317L24.7702 31.1594L29.0597 26.8709C30.3969 25.5332 30.407 23.3776 29.1036 22.0212C31.9657 19.1385 33.3996 15.3706 33.3996 11.6001ZM18.0248 18.4961L19.3541 17.1657C20.0307 16.4902 21.1299 16.4902 21.8054 17.1657L21.8332 17.1927C21.5007 17.6142 21.1968 18.0502 20.9167 18.4971L18.0248 18.4961ZM14.5902 30.4085C15.274 27.8207 17.2656 25.7691 19.8055 24.9709L20.0281 25.1932C19.2299 27.7334 17.1782 29.725 14.5902 30.4085ZM22.9437 23.2073L22.0246 24.7384L20.2618 22.9754L21.7937 22.0563L22.9447 23.2075H22.9437V23.2073ZM27.8333 25.6448L26.5036 26.9752L26.5028 24.0822C26.9498 23.8029 27.3855 23.4998 27.807 23.167L27.8335 23.1935C28.5093 23.8698 28.5093 24.9693 27.8333 25.6448ZM27.8424 20.8337C27.0335 21.6421 26.1157 22.3402 25.1038 22.915L22.0839 19.8951C22.6595 18.8837 23.3568 17.9654 24.166 17.1563C26.1864 15.1358 28.7539 13.8598 31.5354 13.4646C31.1407 16.2458 29.8633 18.8128 27.8424 20.8337Z" fill="#1F40E5"/>
</svg>
