<svg width="81" height="81" viewBox="0 0 81 81" fill="none" xmlns="http://www.w3.org/2000/svg">
<path opacity="0.3" fill-rule="evenodd" clip-rule="evenodd" d="M42.4648 73.7085C49.7415 73.7085 56.4996 71.4879 62.0982 67.6873L58.3539 62.1715C53.7012 65.3299 48.2194 67.0418 42.4648 67.0418C26.8168 67.0418 14.1315 54.3566 14.1315 38.7085C14.1315 23.0604 26.8168 10.3752 42.4648 10.3752C58.1129 10.3752 70.7982 23.0604 70.7982 38.7085C70.7982 41.3354 70.4424 43.9083 69.7488 46.3811L76.1677 48.1816C77.0129 45.1687 77.4648 41.9914 77.4648 38.7085C77.4648 19.3785 61.7948 3.7085 42.4648 3.7085C23.1349 3.7085 7.46484 19.3785 7.46484 38.7085C7.46484 58.0385 23.1349 73.7085 42.4648 73.7085Z" fill="#D8E8F5"/>
<path fill-rule="evenodd" clip-rule="evenodd" d="M76.3143 45.5252C76.5618 45.6171 76.6952 45.8856 76.6189 46.1384L75.4784 49.9169C75.4021 50.1697 75.1424 50.3195 74.8853 50.2592L37.7283 41.5298C37.4475 41.4639 37.2806 41.1747 37.364 40.8986L39.8805 32.5619C39.9638 32.2858 40.2628 32.1372 40.5332 32.2376L76.3143 45.5252Z" fill="white"/>
</svg>
