<svg width="81" height="81" viewBox="0 0 81 81" fill="none" xmlns="http://www.w3.org/2000/svg">
<path d="M17.1667 63.7083H67.1667C69.0076 63.7083 70.5 65.2007 70.5 67.0417C70.5 68.8826 69.0076 70.375 67.1667 70.375H13.8333C11.9924 70.375 10.5 68.8826 10.5 67.0417V13.7083C10.5 11.8674 11.9924 10.375 13.8333 10.375C15.6743 10.375 17.1667 11.8674 17.1667 13.7083V63.7083Z" fill="white"/>
<path opacity="0.3" d="M29.5991 23.0951C28.34 21.752 26.2306 21.684 24.8875 22.9431C23.5445 24.2022 23.4764 26.3116 24.7355 27.6547L37.2355 40.988C38.4532 42.2869 40.4767 42.3995 41.8311 41.2438L51.6968 32.825L64.5511 49.107C65.6918 50.5519 67.7879 50.7985 69.2328 49.6578C70.6777 48.5171 70.9243 46.421 69.7836 44.976L54.7836 25.9761C53.612 24.492 51.4419 24.2786 50.0036 25.5059L39.9234 34.1077L29.5991 23.0951Z" fill="#D8E8F5"/>
</svg>
