<svg width="81" height="81" viewBox="0 0 81 81" fill="none" xmlns="http://www.w3.org/2000/svg">
<path opacity="0.3" fill-rule="evenodd" clip-rule="evenodd" d="M40.7995 70.3748C26.0719 70.3748 14.1328 58.4358 14.1328 43.7082C14.1328 28.9806 26.0719 17.0415 40.7995 17.0415C55.5271 17.0415 67.4661 28.9806 67.4661 43.7082C67.4661 58.4358 55.5271 70.3748 40.7995 70.3748Z" fill="#D8E8F5"/>
<path fill-rule="evenodd" clip-rule="evenodd" d="M44.1322 17.2478V13.7082H47.4655C49.3064 13.7082 50.7988 12.2158 50.7988 10.3748C50.7988 8.53389 49.3064 7.0415 47.4655 7.0415H34.1322C32.2912 7.0415 30.7988 8.53389 30.7988 10.3748C30.7988 12.2158 32.2912 13.7082 34.1322 13.7082H37.4655V17.2478C38.5575 17.1116 39.6699 17.0415 40.7988 17.0415C41.9277 17.0415 43.0402 17.1116 44.1322 17.2478Z" fill="white"/>
<path fill-rule="evenodd" clip-rule="evenodd" d="M61.3554 26.7216L65.614 22.463C66.0046 22.0725 66.0046 21.4393 65.614 21.0488L62.3142 17.7489C61.9237 17.3584 61.2905 17.3584 60.9 17.7489L56.498 22.1509C58.3019 23.4668 59.9343 25.0037 61.3554 26.7216Z" fill="white"/>
<path fill-rule="evenodd" clip-rule="evenodd" d="M60.7988 43.7085C60.7988 32.6628 51.8445 23.7085 40.7988 23.7085V43.7085L60.7988 43.7085Z" fill="white"/>
</svg>
