<svg width="46" height="46" viewBox="0 0 46 46" fill="none" xmlns="http://www.w3.org/2000/svg">
<circle r="22.5" transform="matrix(-1 0 0 1 23 23)" fill="white" stroke="#BDE3FE"/>
<path d="M23.8664 28.2001H22.1332V27.7531C22.1332 26.8663 22.4717 25.9776 23.1477 25.3021C23.1477 25.3011 24.2254 24.2239 24.2254 24.2239C24.5385 23.9098 24.7332 23.4767 24.7332 22.9975V23.0001C24.7332 22.0428 23.9571 21.2667 22.9998 21.2667C22.0425 21.2667 21.2664 22.0428 21.2664 23.0001L19.5332 23.0009C19.5332 21.0857 21.0854 19.5327 22.9998 19.5327C24.9142 19.5327 26.4664 21.0857 26.4664 23.0009V22.9975C26.4664 23.9548 26.0779 24.8214 25.4508 25.4495L24.3734 26.5275C24.0356 26.8663 23.8664 27.3096 23.8664 27.7531V28.2001Z" fill="black"/>
<path d="M16.2599 28.5159L13.1953 31.5796L14.4207 32.8053L17.4853 29.7416L16.2599 28.5159Z" fill="#1F40E5"/>
<path d="M31.5794 13.1948L28.5156 16.2585L29.7411 17.4841L32.8049 14.4203L31.5794 13.1948Z" fill="#1F40E5"/>
<path d="M28.5163 29.7416L31.5801 32.8054L32.8056 31.5799L29.7418 28.5161L28.5163 29.7416Z" fill="#1F40E5"/>
<path d="M13.1952 14.4209L16.2598 17.4846L17.4855 16.2586L14.4209 13.1948L13.1952 14.4209Z" fill="#1F40E5"/>
<path d="M29.873 22.1335C29.4793 19.0026 26.9955 16.5196 23.8662 16.126V12.6001H22.133V16.126C19.005 16.5196 16.5217 19.0021 16.127 22.1335H12.5996V23.8667H16.1262C16.3166 25.3877 16.9946 26.7969 18.0957 27.8998L18.6659 28.471V33.4001H27.3328V28.47L27.9022 27.8998C29.0033 26.7969 29.6821 25.3895 29.8717 23.8667H33.3996V22.1335H29.873ZM28.1996 23.0009C28.1988 24.3872 27.658 25.6916 26.6763 26.6749L25.5996 27.7532V31.6667H23.8662V29.9335H22.133V31.6667H20.3996V27.7532L19.3229 26.6749C18.3412 25.6916 17.8004 24.3872 17.7996 23.0009V22.9975C17.8014 20.1318 20.1331 17.7991 22.9996 17.7991C25.8661 17.7991 28.1978 20.1315 28.1996 22.9975V23.0009Z" fill="#1F40E5"/>
</svg>
