<svg width="48" height="48" viewBox="0 0 48 48" fill="none" xmlns="http://www.w3.org/2000/svg">
<path opacity="0.3" fill-rule="evenodd" clip-rule="evenodd" d="M23 32C22.4477 32 22 32.4477 22 33V40H16.5C16.2239 40 16 40.2239 16 40.5V41.5C16 41.7761 16.2239 42 16.5 42H23H25H31.5C31.7761 42 32 41.7761 32 41.5V40.5C32 40.2239 31.7761 40 31.5 40H26V33C26 32.4477 25.5523 32 25 32H23Z" fill="#1F40E5"/>
<path d="M4 11C4 10.4477 4.44772 10 5 10H43C43.5523 10 44 10.4477 44 11V33C44 33.5523 43.5523 34 43 34H5C4.44771 34 4 33.5523 4 33V11Z" fill="#1F40E5"/>
<path fill-rule="evenodd" clip-rule="evenodd" d="M25.7332 25.6968C26.1237 26.0873 26.7569 26.0873 27.1474 25.6968L27.6968 25.1474C28.0873 24.7569 28.0873 24.1237 27.6968 23.7332L25.4593 21.4957L27.6977 19.2574C28.0882 18.8668 28.0882 18.2337 27.6977 17.8432L27.1483 17.2937C26.7578 16.9032 26.1246 16.9032 25.7341 17.2937L23.4957 19.5321L21.2565 17.2929C20.866 16.9024 20.2328 16.9024 19.8423 17.2929L19.2929 17.8423C18.9024 18.2328 18.9024 18.866 19.2929 19.2565L21.5321 21.4957L19.2938 23.734C18.9033 24.1245 18.9033 24.7577 19.2938 25.1482L19.8432 25.6976C20.2337 26.0882 20.8669 26.0882 21.2574 25.6976L23.4957 23.4593L25.7332 25.6968Z" fill="white"/>
<path opacity="0.3" fill-rule="evenodd" clip-rule="evenodd" d="M23 32C22.4477 32 22 32.4477 22 33V40H16.5C16.2239 40 16 40.2239 16 40.5V41.5C16 41.7761 16.2239 42 16.5 42H23H25H31.5C31.7761 42 32 41.7761 32 41.5V40.5C32 40.2239 31.7761 40 31.5 40H26V33C26 32.4477 25.5523 32 25 32H23Z" fill="#1F40E5"/>
<path d="M4 11C4 10.4477 4.44772 10 5 10H43C43.5523 10 44 10.4477 44 11V33C44 33.5523 43.5523 34 43 34H5C4.44771 34 4 33.5523 4 33V11Z" fill="#1F40E5"/>
<path fill-rule="evenodd" clip-rule="evenodd" d="M25.7332 25.6968C26.1237 26.0873 26.7569 26.0873 27.1474 25.6968L27.6968 25.1474C28.0873 24.7569 28.0873 24.1237 27.6968 23.7332L25.4593 21.4957L27.6977 19.2574C28.0882 18.8668 28.0882 18.2337 27.6977 17.8432L27.1483 17.2937C26.7578 16.9032 26.1246 16.9032 25.7341 17.2937L23.4957 19.5321L21.2565 17.2929C20.866 16.9024 20.2328 16.9024 19.8423 17.2929L19.2929 17.8423C18.9024 18.2328 18.9024 18.866 19.2929 19.2565L21.5321 21.4957L19.2938 23.734C18.9033 24.1245 18.9033 24.7577 19.2938 25.1482L19.8432 25.6976C20.2337 26.0882 20.8669 26.0882 21.2574 25.6976L23.4957 23.4593L25.7332 25.6968Z" fill="white"/>
</svg>
