<svg width="81" height="81" viewBox="0 0 81 81" fill="none" xmlns="http://www.w3.org/2000/svg">
<path opacity="0.3" fill-rule="evenodd" clip-rule="evenodd" d="M17.0664 24.1987V50.8654H63.7331V24.1987H17.0664Z" fill="#1F40E5"/>
<path opacity="0.3" fill-rule="evenodd" clip-rule="evenodd" d="M38.0669 50.8652C37.5146 50.8652 37.0669 51.313 37.0669 51.8652V64.1986H31.4004C30.8481 64.1986 30.4004 64.6463 30.4004 65.1986V66.5319C30.4004 67.0842 30.8481 67.5319 31.4004 67.5319H49.4004C49.9527 67.5319 50.4004 67.0842 50.4004 66.5319V65.1986C50.4004 64.6463 49.9527 64.1986 49.4004 64.1986H43.7336V51.8652C43.7336 51.3129 43.2859 50.8652 42.7336 50.8652H38.0669Z" fill="#1F40E5"/>
<path fill-rule="evenodd" clip-rule="evenodd" d="M62.9004 17.5317H17.9004C13.7583 17.5317 10.4004 20.5165 10.4004 24.1984V50.8651C10.4004 54.547 13.7583 57.5317 17.9004 57.5317H62.9004C67.0425 57.5317 70.4004 54.547 70.4004 50.8651V24.1984C70.4004 20.5165 67.0425 17.5317 62.9004 17.5317ZM17.0669 50.865V24.1984H63.7336V50.865H17.0669Z" fill="#1F40E5"/>
</svg>
