<svg width="81" height="81" viewBox="0 0 81 81" fill="none" xmlns="http://www.w3.org/2000/svg">
<path opacity="0.3" fill-rule="evenodd" clip-rule="evenodd" d="M28.2031 14.1987C27.3747 14.1987 26.7031 14.8703 26.7031 15.6987V30.8654H33.3698V15.6987C33.3698 14.8703 32.6982 14.1987 31.8698 14.1987H28.2031ZM48.2031 14.1987C47.3747 14.1987 46.7031 14.8703 46.7031 15.6987V30.8654H53.3698V15.6987C53.3698 14.8703 52.6982 14.1987 51.8698 14.1987H48.2031Z" fill="#1F40E5"/>
<path fill-rule="evenodd" clip-rule="evenodd" d="M63.3698 30.8652H16.7031V49.5319C16.7031 53.9502 20.2849 57.5319 24.7031 57.5319H36.7031V74.1986H43.3698V57.5319H55.3698C59.7881 57.5319 63.3698 53.9502 63.3698 49.5319V30.8652Z" fill="#1F40E5"/>
</svg>
