<svg width="48" height="48" viewBox="0 0 48 48" fill="none" xmlns="http://www.w3.org/2000/svg">
<rect width="48" height="48" fill="white"/>
<path opacity="0.3" fill-rule="evenodd" clip-rule="evenodd" d="M23 22.6667C23 21.5622 23.8954 20.6667 25 20.6667H45C46.1046 20.6667 47 21.5622 47 22.6667V26.6667C47 27.7713 46.1046 28.6667 45 28.6667H25C23.8954 28.6667 23 27.7713 23 26.6667V22.6667ZM32.3333 24.3334C32.3333 23.7811 32.781 23.3334 33.3333 23.3334H40.6667C41.219 23.3334 41.6667 23.7811 41.6667 24.3334V25.0001C41.6667 25.5524 41.219 26.0001 40.6667 26.0001H33.3333C32.781 26.0001 32.3333 25.5524 32.3333 25.0001V24.3334ZM29.6667 24.6667C29.6667 25.4031 29.0697 26.0001 28.3333 26.0001C27.597 26.0001 27 25.4031 27 24.6667C27 23.9304 27.597 23.3334 28.3333 23.3334C29.0697 23.3334 29.6667 23.9304 29.6667 24.6667Z" fill="#1F40E5"/>
<path fill-rule="evenodd" clip-rule="evenodd" d="M23 32C23 30.8954 23.8954 30 25 30H45C46.1046 30 47 30.8954 47 32V36C47 37.1046 46.1046 38 45 38H25C23.8954 38 23 37.1046 23 36V32ZM32.3333 33.6667C32.3333 33.1144 32.781 32.6667 33.3333 32.6667H40.6667C41.219 32.6667 41.6667 33.1144 41.6667 33.6667V34.3333C41.6667 34.8856 41.219 35.3333 40.6667 35.3333H33.3333C32.781 35.3333 32.3333 34.8856 32.3333 34.3333V33.6667ZM29.6667 34C29.6667 34.7364 29.0697 35.3333 28.3333 35.3333C27.597 35.3333 27 34.7364 27 34C27 33.2636 27.597 32.6667 28.3333 32.6667C29.0697 32.6667 29.6667 33.2636 29.6667 34Z" fill="#1F40E5"/>
<path fill-rule="evenodd" clip-rule="evenodd" d="M23 41.3333C23 40.2287 23.8954 39.3333 25 39.3333H45C46.1046 39.3333 47 40.2287 47 41.3333V45.3333C47 46.4378 46.1046 47.3333 45 47.3333H25C23.8954 47.3333 23 46.4378 23 45.3333V41.3333ZM32.3333 42.9999C32.3333 42.4476 32.781 41.9999 33.3333 41.9999H40.6667C41.219 41.9999 41.6667 42.4476 41.6667 42.9999V43.6666C41.6667 44.2189 41.219 44.6666 40.6667 44.6666H33.3333C32.781 44.6666 32.3333 44.2189 32.3333 43.6666V42.9999ZM29.6667 43.3333C29.6667 44.0696 29.0697 44.6666 28.3333 44.6666C27.597 44.6666 27 44.0696 27 43.3333C27 42.5969 27.597 41.9999 28.3333 41.9999C29.0697 41.9999 29.6667 42.5969 29.6667 43.3333Z" fill="#1F40E5"/>
<path opacity="0.3" fill-rule="evenodd" clip-rule="evenodd" d="M16.576 7.79157C15.6694 4.26919 12.4719 1.6665 8.6665 1.6665C4.15613 1.6665 0.499756 5.32288 0.499756 9.83325C0.499756 12.7117 1.98897 15.2424 4.23896 16.6968C5.14246 17.5071 6.3365 18 7.64566 18H8.6665H19.8958C22.7148 18 25 15.7148 25 12.8958C25 10.0768 22.7148 7.79157 19.8958 7.79157H16.576Z" fill="#1F40E5"/>
<path fill-rule="evenodd" clip-rule="evenodd" d="M6 21C5.44772 21 5 21.4477 5 22V33V34C5 34.5523 5.44772 35 6 35H16C16.5523 35 17 34.5523 17 34V33C17 32.4477 16.5523 32 16 32H8V22C8 21.4477 7.55228 21 7 21H6Z" fill="#1F40E5"/>
<path opacity="0.3" fill-rule="evenodd" clip-rule="evenodd" d="M23 22.6667C23 21.5622 23.8954 20.6667 25 20.6667H45C46.1046 20.6667 47 21.5622 47 22.6667V26.6667C47 27.7713 46.1046 28.6667 45 28.6667H25C23.8954 28.6667 23 27.7713 23 26.6667V22.6667ZM32.3333 24.3334C32.3333 23.7811 32.781 23.3334 33.3333 23.3334H40.6667C41.219 23.3334 41.6667 23.7811 41.6667 24.3334V25.0001C41.6667 25.5524 41.219 26.0001 40.6667 26.0001H33.3333C32.781 26.0001 32.3333 25.5524 32.3333 25.0001V24.3334ZM29.6667 24.6667C29.6667 25.4031 29.0697 26.0001 28.3333 26.0001C27.597 26.0001 27 25.4031 27 24.6667C27 23.9304 27.597 23.3334 28.3333 23.3334C29.0697 23.3334 29.6667 23.9304 29.6667 24.6667Z" fill="#1F40E5"/>
<path fill-rule="evenodd" clip-rule="evenodd" d="M23 32C23 30.8954 23.8954 30 25 30H45C46.1046 30 47 30.8954 47 32V36C47 37.1046 46.1046 38 45 38H25C23.8954 38 23 37.1046 23 36V32ZM32.3333 33.6667C32.3333 33.1144 32.781 32.6667 33.3333 32.6667H40.6667C41.219 32.6667 41.6667 33.1144 41.6667 33.6667V34.3333C41.6667 34.8856 41.219 35.3333 40.6667 35.3333H33.3333C32.781 35.3333 32.3333 34.8856 32.3333 34.3333V33.6667ZM29.6667 34C29.6667 34.7364 29.0697 35.3333 28.3333 35.3333C27.597 35.3333 27 34.7364 27 34C27 33.2636 27.597 32.6667 28.3333 32.6667C29.0697 32.6667 29.6667 33.2636 29.6667 34Z" fill="#1F40E5"/>
<path fill-rule="evenodd" clip-rule="evenodd" d="M23 41.3333C23 40.2287 23.8954 39.3333 25 39.3333H45C46.1046 39.3333 47 40.2287 47 41.3333V45.3333C47 46.4378 46.1046 47.3333 45 47.3333H25C23.8954 47.3333 23 46.4378 23 45.3333V41.3333ZM32.3333 42.9999C32.3333 42.4476 32.781 41.9999 33.3333 41.9999H40.6667C41.219 41.9999 41.6667 42.4476 41.6667 42.9999V43.6666C41.6667 44.2189 41.219 44.6666 40.6667 44.6666H33.3333C32.781 44.6666 32.3333 44.2189 32.3333 43.6666V42.9999ZM29.6667 43.3333C29.6667 44.0696 29.0697 44.6666 28.3333 44.6666C27.597 44.6666 27 44.0696 27 43.3333C27 42.5969 27.597 41.9999 28.3333 41.9999C29.0697 41.9999 29.6667 42.5969 29.6667 43.3333Z" fill="#1F40E5"/>
<path opacity="0.3" fill-rule="evenodd" clip-rule="evenodd" d="M16.576 7.79157C15.6694 4.26919 12.4719 1.6665 8.6665 1.6665C4.15613 1.6665 0.499756 5.32288 0.499756 9.83325C0.499756 12.7117 1.98897 15.2424 4.23896 16.6968C5.14246 17.5071 6.3365 18 7.64566 18H8.6665H19.8958C22.7148 18 25 15.7148 25 12.8958C25 10.0768 22.7148 7.79157 19.8958 7.79157H16.576Z" fill="#1F40E5"/>
<path fill-rule="evenodd" clip-rule="evenodd" d="M6 21C5.44772 21 5 21.4477 5 22V33V34C5 34.5523 5.44772 35 6 35H16C16.5523 35 17 34.5523 17 34V33C17 32.4477 16.5523 32 16 32H8V22C8 21.4477 7.55228 21 7 21H6Z" fill="#1F40E5"/>
<path opacity="0.3" fill-rule="evenodd" clip-rule="evenodd" d="M23 22.6667C23 21.5622 23.8954 20.6667 25 20.6667H45C46.1046 20.6667 47 21.5622 47 22.6667V26.6667C47 27.7713 46.1046 28.6667 45 28.6667H25C23.8954 28.6667 23 27.7713 23 26.6667V22.6667ZM32.3333 24.3334C32.3333 23.7811 32.781 23.3334 33.3333 23.3334H40.6667C41.219 23.3334 41.6667 23.7811 41.6667 24.3334V25.0001C41.6667 25.5524 41.219 26.0001 40.6667 26.0001H33.3333C32.781 26.0001 32.3333 25.5524 32.3333 25.0001V24.3334ZM29.6667 24.6667C29.6667 25.4031 29.0697 26.0001 28.3333 26.0001C27.597 26.0001 27 25.4031 27 24.6667C27 23.9304 27.597 23.3334 28.3333 23.3334C29.0697 23.3334 29.6667 23.9304 29.6667 24.6667Z" fill="#1F40E5"/>
<path fill-rule="evenodd" clip-rule="evenodd" d="M23 32C23 30.8954 23.8954 30 25 30H45C46.1046 30 47 30.8954 47 32V36C47 37.1046 46.1046 38 45 38H25C23.8954 38 23 37.1046 23 36V32ZM32.3333 33.6667C32.3333 33.1144 32.781 32.6667 33.3333 32.6667H40.6667C41.219 32.6667 41.6667 33.1144 41.6667 33.6667V34.3333C41.6667 34.8856 41.219 35.3333 40.6667 35.3333H33.3333C32.781 35.3333 32.3333 34.8856 32.3333 34.3333V33.6667ZM29.6667 34C29.6667 34.7364 29.0697 35.3333 28.3333 35.3333C27.597 35.3333 27 34.7364 27 34C27 33.2636 27.597 32.6667 28.3333 32.6667C29.0697 32.6667 29.6667 33.2636 29.6667 34Z" fill="#1F40E5"/>
<path fill-rule="evenodd" clip-rule="evenodd" d="M23 41.3333C23 40.2287 23.8954 39.3333 25 39.3333H45C46.1046 39.3333 47 40.2287 47 41.3333V45.3333C47 46.4378 46.1046 47.3333 45 47.3333H25C23.8954 47.3333 23 46.4378 23 45.3333V41.3333ZM32.3333 42.9999C32.3333 42.4476 32.781 41.9999 33.3333 41.9999H40.6667C41.219 41.9999 41.6667 42.4476 41.6667 42.9999V43.6666C41.6667 44.2189 41.219 44.6666 40.6667 44.6666H33.3333C32.781 44.6666 32.3333 44.2189 32.3333 43.6666V42.9999ZM29.6667 43.3333C29.6667 44.0696 29.0697 44.6666 28.3333 44.6666C27.597 44.6666 27 44.0696 27 43.3333C27 42.5969 27.597 41.9999 28.3333 41.9999C29.0697 41.9999 29.6667 42.5969 29.6667 43.3333Z" fill="#1F40E5"/>
<path opacity="0.3" fill-rule="evenodd" clip-rule="evenodd" d="M16.576 7.79157C15.6694 4.26919 12.4719 1.6665 8.6665 1.6665C4.15613 1.6665 0.499756 5.32288 0.499756 9.83325C0.499756 12.7117 1.98897 15.2424 4.23896 16.6968C5.14246 17.5071 6.3365 18 7.64566 18H8.6665H19.8958C22.7148 18 25 15.7148 25 12.8958C25 10.0768 22.7148 7.79157 19.8958 7.79157H16.576Z" fill="#1F40E5"/>
<path fill-rule="evenodd" clip-rule="evenodd" d="M6 21C5.44772 21 5 21.4477 5 22V33V34C5 34.5523 5.44772 35 6 35H16C16.5523 35 17 34.5523 17 34V33C17 32.4477 16.5523 32 16 32H8V22C8 21.4477 7.55228 21 7 21H6Z" fill="#1F40E5"/>
<path opacity="0.3" fill-rule="evenodd" clip-rule="evenodd" d="M23 22.6667C23 21.5622 23.8954 20.6667 25 20.6667H45C46.1046 20.6667 47 21.5622 47 22.6667V26.6667C47 27.7713 46.1046 28.6667 45 28.6667H25C23.8954 28.6667 23 27.7713 23 26.6667V22.6667ZM32.3333 24.3334C32.3333 23.7811 32.781 23.3334 33.3333 23.3334H40.6667C41.219 23.3334 41.6667 23.7811 41.6667 24.3334V25.0001C41.6667 25.5524 41.219 26.0001 40.6667 26.0001H33.3333C32.781 26.0001 32.3333 25.5524 32.3333 25.0001V24.3334ZM29.6667 24.6667C29.6667 25.4031 29.0697 26.0001 28.3333 26.0001C27.597 26.0001 27 25.4031 27 24.6667C27 23.9304 27.597 23.3334 28.3333 23.3334C29.0697 23.3334 29.6667 23.9304 29.6667 24.6667Z" fill="#1F40E5"/>
<path fill-rule="evenodd" clip-rule="evenodd" d="M23 32C23 30.8954 23.8954 30 25 30H45C46.1046 30 47 30.8954 47 32V36C47 37.1046 46.1046 38 45 38H25C23.8954 38 23 37.1046 23 36V32ZM32.3333 33.6667C32.3333 33.1144 32.781 32.6667 33.3333 32.6667H40.6667C41.219 32.6667 41.6667 33.1144 41.6667 33.6667V34.3333C41.6667 34.8856 41.219 35.3333 40.6667 35.3333H33.3333C32.781 35.3333 32.3333 34.8856 32.3333 34.3333V33.6667ZM29.6667 34C29.6667 34.7364 29.0697 35.3333 28.3333 35.3333C27.597 35.3333 27 34.7364 27 34C27 33.2636 27.597 32.6667 28.3333 32.6667C29.0697 32.6667 29.6667 33.2636 29.6667 34Z" fill="#1F40E5"/>
<path fill-rule="evenodd" clip-rule="evenodd" d="M23 41.3333C23 40.2287 23.8954 39.3333 25 39.3333H45C46.1046 39.3333 47 40.2287 47 41.3333V45.3333C47 46.4378 46.1046 47.3333 45 47.3333H25C23.8954 47.3333 23 46.4378 23 45.3333V41.3333ZM32.3333 42.9999C32.3333 42.4476 32.781 41.9999 33.3333 41.9999H40.6667C41.219 41.9999 41.6667 42.4476 41.6667 42.9999V43.6666C41.6667 44.2189 41.219 44.6666 40.6667 44.6666H33.3333C32.781 44.6666 32.3333 44.2189 32.3333 43.6666V42.9999ZM29.6667 43.3333C29.6667 44.0696 29.0697 44.6666 28.3333 44.6666C27.597 44.6666 27 44.0696 27 43.3333C27 42.5969 27.597 41.9999 28.3333 41.9999C29.0697 41.9999 29.6667 42.5969 29.6667 43.3333Z" fill="#1F40E5"/>
<path opacity="0.3" fill-rule="evenodd" clip-rule="evenodd" d="M16.576 7.79157C15.6694 4.26919 12.4719 1.6665 8.6665 1.6665C4.15613 1.6665 0.499756 5.32288 0.499756 9.83325C0.499756 12.7117 1.98897 15.2424 4.23896 16.6968C5.14246 17.5071 6.3365 18 7.64566 18H8.6665H19.8958C22.7148 18 25 15.7148 25 12.8958C25 10.0768 22.7148 7.79157 19.8958 7.79157H16.576Z" fill="#1F40E5"/>
<path fill-rule="evenodd" clip-rule="evenodd" d="M6 21C5.44772 21 5 21.4477 5 22V33V34C5 34.5523 5.44772 35 6 35H16C16.5523 35 17 34.5523 17 34V33C17 32.4477 16.5523 32 16 32H8V22C8 21.4477 7.55228 21 7 21H6Z" fill="#1F40E5"/>
</svg>
