<svg width="48" height="48" viewBox="0 0 48 48" fill="none" xmlns="http://www.w3.org/2000/svg">
<rect width="48" height="48" fill="white"/>
<rect x="19.0469" y="18.0063" width="15.995" height="4.06699" rx="2.0335" transform="rotate(-90.1666 19.0469 18.0063)" fill="#BCC6F7"/>
<circle cx="20.5" cy="27.5" r="16.5" fill="#1F40E5"/>
<circle cx="21" cy="4" r="4" fill="#1F40E5"/>
<path fill-rule="evenodd" clip-rule="evenodd" d="M22 32C20.3431 32 19 33.3431 19 35V43C19 44.6569 20.3431 46 22 46H29L30.7236 42.5528C30.893 42.214 31.2393 42 31.618 42H34.382C34.7607 42 35.107 42.214 35.2764 42.5528L37 46H44C45.6569 46 47 44.6569 47 43V35C47 33.3431 45.6569 32 44 32H22Z" fill="#BCC6F7"/>
<path fill-rule="evenodd" clip-rule="evenodd" d="M26 41C27.6569 41 29 39.6569 29 38C29 36.3431 27.6569 35 26 35C24.3431 35 23 36.3431 23 38C23 39.6569 24.3431 41 26 41Z" fill="white"/>
<path fill-rule="evenodd" clip-rule="evenodd" d="M40 41C41.6569 41 43 39.6569 43 38C43 36.3431 41.6569 35 40 35C38.3431 35 37 36.3431 37 38C37 39.6569 38.3431 41 40 41Z" fill="white"/>
<rect x="9" y="19" width="23" height="10" rx="2" fill="white"/>
<circle cx="16" cy="24" r="2" fill="#1F40E5"/>
<circle cx="26" cy="24" r="2" fill="#1F40E5"/>
<rect x="19.0469" y="18.0063" width="15.995" height="4.06699" rx="2.0335" transform="rotate(-90.1666 19.0469 18.0063)" fill="#BCC6F7"/>
<circle cx="20.5" cy="27.5" r="16.5" fill="#1F40E5"/>
<circle cx="21" cy="4" r="4" fill="#1F40E5"/>
<path fill-rule="evenodd" clip-rule="evenodd" d="M22 32C20.3431 32 19 33.3431 19 35V43C19 44.6569 20.3431 46 22 46H29L30.7236 42.5528C30.893 42.214 31.2393 42 31.618 42H34.382C34.7607 42 35.107 42.214 35.2764 42.5528L37 46H44C45.6569 46 47 44.6569 47 43V35C47 33.3431 45.6569 32 44 32H22Z" fill="#BCC6F7"/>
<path fill-rule="evenodd" clip-rule="evenodd" d="M26 41C27.6569 41 29 39.6569 29 38C29 36.3431 27.6569 35 26 35C24.3431 35 23 36.3431 23 38C23 39.6569 24.3431 41 26 41Z" fill="white"/>
<path fill-rule="evenodd" clip-rule="evenodd" d="M40 41C41.6569 41 43 39.6569 43 38C43 36.3431 41.6569 35 40 35C38.3431 35 37 36.3431 37 38C37 39.6569 38.3431 41 40 41Z" fill="white"/>
<rect x="9" y="19" width="23" height="10" rx="2" fill="white"/>
<circle cx="16" cy="24" r="2" fill="#1F40E5"/>
<circle cx="26" cy="24" r="2" fill="#1F40E5"/>
</svg>
