<svg width="80" height="81" viewBox="0 0 80 81" fill="none" xmlns="http://www.w3.org/2000/svg">
<path fill-rule="evenodd" clip-rule="evenodd" d="M51.0007 30.8652C50.4484 30.8652 50.0007 31.313 50.0007 31.8652V50.8652H8.67188C7.56731 50.8652 6.67188 51.7607 6.67188 52.8652V68.8652C6.67188 69.9698 7.5673 70.8652 8.67187 70.8652H71.3386C72.4431 70.8652 73.3386 69.9698 73.3386 68.8652V52.8652C73.3386 51.7607 72.4431 50.8652 71.3386 50.8652H56.6673V31.8652C56.6673 31.3129 56.2196 30.8652 55.6673 30.8652H51.0007ZM13.3431 58.533C13.3431 57.9808 13.7908 57.533 14.3431 57.533H35.6764C36.2287 57.533 36.6764 57.9808 36.6764 58.533V63.1997C36.6764 63.752 36.2287 64.1997 35.6764 64.1997H14.3431C13.7908 64.1997 13.3431 63.752 13.3431 63.1997V58.533Z" fill="#1F40E5"/>
<path opacity="0.3" fill-rule="evenodd" clip-rule="evenodd" d="M73.7824 22.7713L78.3281 19.0683C72.1947 11.8149 63.1084 7.5332 53.3158 7.5332C43.5368 7.5332 34.4617 11.803 28.3281 19.0392L32.8694 22.7475C37.8923 16.8216 45.3105 13.3314 53.3158 13.3314C61.3321 13.3314 68.7597 16.8314 73.7824 22.7713ZM64.0392 30.3915L68.3281 26.5863C64.6565 21.7954 59.1958 18.9629 53.3106 18.9629C47.4448 18.9629 42.0001 21.7768 38.3281 26.5408L42.6071 30.359C45.2339 26.9509 49.117 24.9441 53.3106 24.9441C57.5181 24.9441 61.4126 26.9643 64.0392 30.3915Z" fill="#1F40E5"/>
</svg>
