<svg width="46" height="46" viewBox="0 0 46 46" fill="none" xmlns="http://www.w3.org/2000/svg">
<circle r="22.5" transform="matrix(-1 0 0 1 23 23)" fill="white" stroke="#BDE3FE"/>
<path d="M22.9996 29.9333H14.333V17.8001H31.6662V23.0001H33.3996V14.3335C33.3996 13.3804 32.6193 12.6001 31.6662 12.6001H14.333C13.3799 12.6001 12.5996 13.3804 12.5996 14.3335V29.9335C12.5996 30.8867 13.3799 31.6672 14.333 31.6672H22.9996V29.9333ZM14.333 14.3335H31.6662V16.0669H14.333V14.3335Z" fill="#1F40E5"/>
<path d="M22.1332 19.5332H16.0664V21.2669H22.1332V19.5332Z" fill="#1F40E5"/>
<path d="M27.334 19.5332H23.8672V21.2669H27.334V19.5332Z" fill="#1F40E5"/>
<path d="M25.6008 23H17.8008V24.7332H25.6008V23Z" fill="#1F40E5"/>
<path d="M22.9998 26.4668H19.5332V28.2H22.9998V26.4668Z" fill="#1F40E5"/>
<path d="M17.7998 26.4668H16.0664V28.2H17.7998V26.4668Z" fill="#1F40E5"/>
<path d="M33.401 29.9332V28.2H31.9606C31.9005 28.0019 31.8225 27.8131 31.726 27.6348L32.7452 26.6156L31.5188 25.3902L30.4996 26.4083C30.321 26.3119 30.1325 26.2336 29.9344 26.1738V24.7332H28.201V26.1738C28.0028 26.2336 27.8143 26.3119 27.6355 26.4083L26.6165 25.3891L25.3909 26.6156L26.409 27.6348C26.3126 27.8131 26.2348 28.0019 26.1748 28.2H24.7344V29.9332H26.1748C26.2348 30.1313 26.3126 30.32 26.409 30.4989L25.3909 31.5176L26.6165 32.7435L27.6347 31.7253C27.8141 31.8218 28.0028 31.8995 28.201 31.9593V33.4H29.9344V31.9593C30.1325 31.8995 30.321 31.8218 30.5007 31.7253L31.5188 32.7435L32.7452 31.5176L31.726 30.4989C31.8225 30.3193 31.9005 30.1313 31.9606 29.9332H33.401ZM29.0675 30.3668C28.3499 30.3668 27.7675 29.7844 27.7675 29.0668C27.7675 28.3487 28.3499 27.7668 29.0675 27.7668C29.7854 27.7668 30.3675 28.3487 30.3675 29.0668C30.3675 29.7844 29.7854 30.3668 29.0675 30.3668Z" fill="#1F40E5"/>
</svg>
