<svg width="46" height="46" viewBox="0 0 46 46" fill="none" xmlns="http://www.w3.org/2000/svg">
<circle r="22.5" transform="matrix(-1 0 0 1 23 23)" fill="white" stroke="#BDE3FE"/>
<path d="M21.2671 30.9333H14.334V32.6665H21.2671V30.9333Z" fill="#1F40E5"/>
<path d="M24.7334 30.9333H23V32.6665H24.7334V30.9333Z" fill="#1F40E5"/>
<path d="M19.534 27.4666H14.334V29.2H19.534V27.4666Z" fill="#1F40E5"/>
<path d="M30.4923 19.6667L27.7662 26.4833L26.494 23.3025C27.007 22.827 27.333 22.1541 27.333 21.4001C27.333 19.9646 26.169 18.8001 24.733 18.8001C24.7192 18.8001 24.7075 18.8035 24.6951 18.8035L23.3061 15.3335H20.0931L17.3662 22.1499L16.3727 19.6667H12.5996V21.4001H15.1996L16.933 25.7335H17.7996L21.2662 17.0667H22.133L23.0724 19.4145C22.5027 19.8918 22.133 20.5995 22.133 21.4001C22.133 22.8355 23.2968 24.0001 24.733 24.0001C24.7897 24.0001 24.843 23.9866 24.8997 23.9832L27.333 30.0667H28.1996L31.6662 21.4001H33.3996V19.6667H30.4923ZM24.733 22.2667C24.2538 22.2667 23.8662 21.8793 23.8662 21.4001C23.8662 20.9209 24.2538 20.5335 24.733 20.5335C25.2119 20.5335 25.5996 20.9209 25.5996 21.4001C25.5996 21.8793 25.2119 22.2667 24.733 22.2667Z" fill="#1F40E5"/>
</svg>
