<svg width="1283" height="800" viewBox="0 0 1283 800" fill="none" xmlns="http://www.w3.org/2000/svg">
<g clip-path="url(#clip0_52_3768)">
<mask id="mask0_52_3768" style="mask-type:alpha" maskUnits="userSpaceOnUse" x="-1" y="0" width="1284" height="800">
<path d="M1282.5 799.999H-0.00390625V0.00146484H1282.5V799.999Z" fill="#1F40E5"/>
</mask>
<g mask="url(#mask0_52_3768)">
<path opacity="0.2" d="M786.166 440.191C777.363 440.191 768.553 438.2 761.731 434.076L670.239 379.608C662.994 375.342 659.016 369.37 659.016 362.97C659.016 356.57 662.994 350.74 670.097 346.473L761.024 292.148C774.659 284.042 796.118 284.042 809.753 292.148L901.392 346.473C908.633 350.74 912.611 356.712 912.611 363.112C912.611 369.512 908.633 375.342 901.532 379.608L810.608 433.934C803.786 438.058 794.976 440.191 786.166 440.191Z" fill="white"/>
<path d="M786.455 492.098C771.965 492.098 757.328 488.686 745.969 482.001L594.375 391.981C582.441 384.871 575.906 375.2 575.906 364.534C575.906 354.011 582.442 344.198 594.233 337.23L744.827 247.209C767.42 233.699 802.934 233.699 825.667 247.209L977.261 337.23C989.195 344.34 995.729 354.01 995.729 364.676C995.729 375.2 989.195 385.013 977.401 391.981L826.801 482.001C815.435 488.686 800.945 492.098 786.455 492.098Z" stroke="#A8D6F8" stroke-width="0.736646" stroke-miterlimit="10"/>
<path d="M105.945 -50.345L675.112 288.695" stroke="#A8D6F8" stroke-width="0.736646" stroke-miterlimit="10"/>
<path d="M473.094 -194.393L1042.26 144.647" stroke="#A8D6F8" stroke-width="0.736646" stroke-miterlimit="10"/>
<path d="M-258.566 127.08L412.488 526.726" stroke="#A8D6F8" stroke-width="0.736646" stroke-miterlimit="10"/>
<path d="M672.23 438.057L520.355 528.789" stroke="#A8D6F8" stroke-width="0.736646" stroke-miterlimit="10"/>
<path d="M1051.13 211.656L908.922 296.557" stroke="#A8D6F8" stroke-width="0.736646" stroke-miterlimit="10"/>
<path d="M899.402 438.199L1051.13 528.789" stroke="#A8D6F8" stroke-width="0.736646" stroke-miterlimit="10"/>
<path d="M845.843 190.608V217.629H725.79V190.608H686.721V362.685C686.863 367.521 689.988 372.072 695.387 375.342L766.992 417.864C772.392 420.992 779.206 422.699 786.027 422.699C792.849 422.699 799.81 421.134 805.069 417.864L876.104 375.342C881.644 372.072 884.627 367.521 884.767 362.685V190.608H845.843Z" fill="url(#paint0_linear_52_3768)"/>
<path d="M783.47 410.327C783.33 410.184 783.47 410.184 783.47 410.327V410.327Z" fill="#00E7FF"/>
<path d="M786.026 250.48C779.212 250.48 772.251 248.915 766.991 245.645L695.387 203.266C689.704 199.852 686.72 195.302 686.578 190.324C686.578 185.347 689.704 180.796 695.245 177.383L766.277 134.861C776.936 128.462 793.702 128.462 804.354 134.861L875.956 177.383C881.643 180.796 884.626 185.347 884.766 190.324C884.766 195.302 881.643 199.852 876.103 203.266L805.068 245.787C799.809 248.915 792.987 250.48 786.026 250.48Z" fill="url(#paint1_linear_52_3768)"/>
<path d="M826.52 182.502C831.065 185.204 831.065 189.47 826.52 192.172L793.703 211.797C789.158 214.5 781.909 214.5 777.364 211.797L744.399 192.172C739.854 189.47 739.854 185.204 744.399 182.502L777.077 162.877C781.622 160.175 788.87 160.175 793.415 162.877L826.52 182.502Z" fill="url(#paint2_linear_52_3768)"/>
<path d="M793.703 211.797L817.998 197.292L793.416 182.786C788.871 180.084 781.622 180.084 777.077 182.786L752.93 197.292L777.364 211.797C781.909 214.499 789.158 214.499 793.703 211.797Z" fill="white"/>
<path d="M551.042 565.479C551.042 569.745 548.342 573.728 543.654 576.572L482.279 613.263C477.733 615.965 471.766 617.386 465.799 617.386C459.832 617.386 454.007 615.965 449.318 613.263L387.518 576.714C382.687 573.87 379.988 569.887 379.988 565.479" stroke="#A8D6F8" stroke-width="0.736646" stroke-miterlimit="10"/>
<path d="M412.664 528.22L387.375 543.295C382.687 546.139 379.988 550.12 379.988 554.387C379.988 558.795 382.687 562.777 387.518 565.622L449.177 602.312C453.865 605.014 459.69 606.436 465.657 606.436C471.624 606.436 477.591 605.014 482.137 602.312L543.512 565.622C548.201 562.777 550.9 558.795 550.9 554.529C550.9 550.12 548.201 546.139 543.37 543.295L521.349 530.211L520.07 529.357" stroke="#A8D6F8" stroke-width="0.736646" stroke-miterlimit="10"/>
<path d="M379.988 566.048V555.098" stroke="#A8D6F8" stroke-width="0.736646" stroke-miterlimit="10"/>
<path d="M551.043 566.048V555.098" stroke="#A8D6F8" stroke-width="0.736646" stroke-miterlimit="10"/>
<path d="M444.773 469.771L414.369 487.974" stroke="#A8D6F8" stroke-width="0.736646" stroke-miterlimit="10"/>
<path d="M455.856 484.134L449.32 487.973" stroke="#A8D6F8" stroke-width="0.736646" stroke-miterlimit="10"/>
<path d="M509.842 574.438L452.161 539.881C449.888 538.459 448.041 535.188 448.041 532.344V490.96C448.041 488.116 449.888 486.978 452.161 488.4L509.842 522.958C512.115 524.38 513.962 527.651 513.962 530.495V571.879C513.962 574.581 512.115 575.861 509.842 574.438Z" stroke="#A8D6F8" stroke-width="0.736646" stroke-miterlimit="10"/>
<path d="M455.855 484.134C456.566 483.707 457.702 483.707 458.839 484.419L516.378 518.976C518.651 520.398 520.498 523.669 520.498 526.513V567.897C520.498 569.176 520.214 570.03 519.503 570.599" stroke="#A8D6F8" stroke-width="0.736646" stroke-miterlimit="10"/>
<path d="M519.929 570.315L512.684 574.866" stroke="#A8D6F8" stroke-width="0.736646" stroke-miterlimit="10"/>
<path d="M448.324 525.944L513.962 565.337" stroke="#A8D6F8" stroke-width="0.736646" stroke-miterlimit="10"/>
<path d="M476.738 554.671V560.929L483.274 564.768V558.511L476.738 554.671Z" stroke="#A8D6F8" stroke-width="0.736646" stroke-miterlimit="10"/>
<path d="M476.881 555.952L467.078 561.782C466.225 562.209 465.799 562.92 465.799 563.63C465.799 564.342 466.225 565.053 467.078 565.479L477.449 571.594C478.159 572.022 479.153 572.306 480.148 572.306C481.142 572.306 482.137 572.022 482.848 571.594L493.219 565.479C493.645 565.195 493.787 565.053 494.071 564.768L478.159 555.24" stroke="#A8D6F8" stroke-width="0.736646" stroke-miterlimit="10"/>
<path d="M412.807 490.96V532.344C412.807 534.903 414.369 537.89 416.358 539.454L428.86 546.992C431.134 548.413 432.98 547.134 432.98 544.432V503.048C432.98 500.488 431.418 497.502 429.429 495.938L416.927 488.4C414.653 486.978 412.807 488.116 412.807 490.96Z" stroke="#A8D6F8" stroke-width="0.736646" stroke-miterlimit="10"/>
<path d="M463.1 486.551V485.129C463.1 482.569 461.537 479.583 459.548 478.019L447.046 470.482C445.909 469.771 444.915 469.771 444.062 470.197" stroke="#A8D6F8" stroke-width="0.736646" stroke-miterlimit="10"/>
<path d="M449.745 536.61L431.986 547.134" stroke="#A8D6F8" stroke-width="0.736646" stroke-miterlimit="10"/>
<path d="M419.342 503.759C419.342 501.91 420.621 501.2 422.042 502.053C423.604 502.906 424.741 505.039 424.741 506.888C424.741 508.737 423.462 509.448 422.042 508.595C420.621 507.741 419.342 505.466 419.342 503.759Z" stroke="#A8D6F8" stroke-width="0.736646" stroke-miterlimit="10"/>
<path d="M432.697 526.513L412.807 514.568" stroke="#A8D6F8" stroke-width="0.736646" stroke-miterlimit="10" stroke-linecap="round"/>
<path d="M432.697 538.174L412.807 526.371" stroke="#A8D6F8" stroke-width="0.736646" stroke-miterlimit="10" stroke-linecap="round"/>
<path d="M1188.94 568.021C1188.94 572.287 1186.25 576.269 1181.55 579.113L1120.18 615.804C1115.63 618.506 1109.67 619.928 1103.7 619.928C1097.73 619.928 1091.9 618.506 1087.22 615.804L1025.42 579.113C1020.59 576.269 1017.89 572.287 1017.89 567.879" stroke="#A8D6F8" stroke-width="0.736646" stroke-miterlimit="10"/>
<path d="M1050.42 529.642L1025.13 544.717C1020.45 547.561 1017.75 551.543 1017.75 555.809C1017.75 560.217 1020.45 564.2 1025.27 567.044L1087.08 603.735C1091.76 606.437 1097.59 607.859 1103.56 607.859C1109.52 607.859 1115.49 606.437 1120.04 603.735L1181.41 567.044C1186.1 564.2 1188.8 560.218 1188.8 555.952C1188.8 551.543 1186.1 547.561 1181.27 544.717L1159.25 531.633L1157.97 530.78" stroke="#A8D6F8" stroke-width="0.736646" stroke-miterlimit="10"/>
<path d="M1017.89 567.47V556.52" stroke="#A8D6F8" stroke-width="0.736646" stroke-miterlimit="10"/>
<path d="M1188.94 567.47V556.52" stroke="#A8D6F8" stroke-width="0.736646" stroke-miterlimit="10"/>
<path d="M1082.67 471.193L1052.27 489.396" stroke="#A8D6F8" stroke-width="0.736646" stroke-miterlimit="10"/>
<path d="M1093.75 485.556L1087.22 489.396" stroke="#A8D6F8" stroke-width="0.736646" stroke-miterlimit="10"/>
<path d="M1147.74 575.861L1090.06 541.303C1087.79 539.881 1085.95 536.61 1085.95 533.766V492.382C1085.95 489.538 1087.79 488.4 1090.06 489.823L1147.74 524.38C1150.02 525.802 1151.86 529.073 1151.86 531.917V573.301C1151.86 576.003 1150.02 577.283 1147.74 575.861Z" stroke="#A8D6F8" stroke-width="0.736646" stroke-miterlimit="10"/>
<path d="M1093.75 485.556C1094.47 485.13 1095.6 485.13 1096.74 485.841L1154.42 520.398C1156.69 521.821 1158.54 525.091 1158.54 527.935V569.319C1158.54 570.599 1158.25 571.452 1157.55 572.021" stroke="#A8D6F8" stroke-width="0.736646" stroke-miterlimit="10"/>
<path d="M1157.83 571.737L1150.59 576.287" stroke="#A8D6F8" stroke-width="0.736646" stroke-miterlimit="10"/>
<path d="M1086.22 527.366L1151.86 566.759" stroke="#A8D6F8" stroke-width="0.736646" stroke-miterlimit="10"/>
<path d="M1114.64 556.094V562.351L1121.18 566.191V559.933L1114.64 556.094Z" stroke="#A8D6F8" stroke-width="0.736646" stroke-miterlimit="10"/>
<path d="M1114.79 557.373L1104.98 563.204C1104.13 563.63 1103.7 564.341 1103.7 565.052C1103.7 565.764 1104.13 566.474 1104.98 566.901L1115.35 573.017C1116.06 573.443 1117.05 573.727 1118.05 573.727C1119.04 573.727 1120.04 573.443 1120.75 573.017L1131.12 566.901C1131.54 566.617 1131.69 566.474 1131.97 566.19L1116.06 556.662" stroke="#A8D6F8" stroke-width="0.736646" stroke-miterlimit="10"/>
<path d="M1050.71 492.383V533.766C1050.71 536.326 1052.27 539.312 1054.26 540.877L1066.76 548.414C1069.03 549.836 1070.88 548.556 1070.88 545.854V504.47C1070.88 501.91 1069.32 498.924 1067.33 497.359L1054.83 489.823C1052.55 488.4 1050.71 489.538 1050.71 492.383Z" stroke="#A8D6F8" stroke-width="0.736646" stroke-miterlimit="10"/>
<path d="M1101 487.974V486.551C1101 483.992 1099.44 481.005 1097.45 479.441L1084.95 471.904C1083.81 471.193 1082.82 471.193 1081.96 471.62" stroke="#A8D6F8" stroke-width="0.736646" stroke-miterlimit="10"/>
<path d="M1087.65 538.033L1069.89 548.556" stroke="#A8D6F8" stroke-width="0.736646" stroke-miterlimit="10"/>
<path d="M1057.25 505.181C1057.25 503.333 1058.52 502.621 1059.94 503.475C1061.5 504.328 1062.65 506.461 1062.65 508.31C1062.65 510.159 1061.36 510.87 1059.94 510.017C1058.52 509.163 1057.25 506.888 1057.25 505.181Z" stroke="#A8D6F8" stroke-width="0.736646" stroke-miterlimit="10"/>
<path d="M1070.6 527.935L1050.71 515.99" stroke="#A8D6F8" stroke-width="0.736646" stroke-miterlimit="10" stroke-linecap="round"/>
<path d="M1070.6 539.596L1050.71 527.793" stroke="#A8D6F8" stroke-width="0.736646" stroke-miterlimit="10" stroke-linecap="round"/>
<path d="M1183.26 181.506C1183.26 185.773 1180.56 189.755 1175.87 192.6L1114.5 229.29C1109.95 231.993 1103.99 233.414 1098.02 233.414C1092.05 233.414 1086.23 231.993 1081.54 229.29L1019.74 192.6C1014.9 189.755 1012.21 185.773 1012.21 181.364" stroke="#A8D6F8" stroke-width="0.736646" stroke-miterlimit="10"/>
<path d="M1044.74 144.248L1019.45 159.322C1014.76 162.166 1012.07 166.148 1012.07 170.415C1012.07 174.823 1014.76 178.805 1019.59 181.649L1081.39 218.34C1086.08 221.042 1091.91 222.464 1097.88 222.464C1103.85 222.464 1109.81 221.042 1114.36 218.34L1175.73 181.649C1180.42 178.805 1183.12 174.823 1183.12 170.557C1183.12 166.148 1180.42 162.166 1175.59 159.322L1153.57 146.238L1152.29 145.385" stroke="#A8D6F8" stroke-width="0.736646" stroke-miterlimit="10"/>
<path d="M1012.21 182.075V171.125" stroke="#A8D6F8" stroke-width="0.736646" stroke-miterlimit="10"/>
<path d="M1183.26 182.075V171.125" stroke="#A8D6F8" stroke-width="0.736646" stroke-miterlimit="10"/>
<path d="M1076.99 85.7979L1046.59 104.001" stroke="#A8D6F8" stroke-width="0.736646" stroke-miterlimit="10"/>
<path d="M1088.07 100.162L1081.54 104.001" stroke="#A8D6F8" stroke-width="0.736646" stroke-miterlimit="10"/>
<path d="M1142.06 190.466L1084.38 155.909C1082.11 154.486 1080.26 151.216 1080.26 148.371V106.987C1080.26 104.143 1082.11 103.006 1084.38 104.428L1142.06 138.985C1144.33 140.408 1146.18 143.678 1146.18 146.522V187.906C1146.18 190.609 1144.33 191.888 1142.06 190.466Z" stroke="#A8D6F8" stroke-width="0.736646" stroke-miterlimit="10"/>
<path d="M1088.07 100.162C1088.78 99.7352 1089.92 99.7352 1091.06 100.446L1148.6 135.004C1150.87 136.425 1152.71 139.697 1152.71 142.541V183.924C1152.71 185.204 1152.43 186.057 1151.72 186.626" stroke="#A8D6F8" stroke-width="0.736646" stroke-miterlimit="10"/>
<path d="M1152.15 186.342L1144.9 190.893" stroke="#A8D6F8" stroke-width="0.736646" stroke-miterlimit="10"/>
<path d="M1080.54 141.971L1146.18 181.364" stroke="#A8D6F8" stroke-width="0.736646" stroke-miterlimit="10"/>
<path d="M1108.96 170.699V176.956L1115.49 180.796V174.539L1108.96 170.699Z" stroke="#A8D6F8" stroke-width="0.736646" stroke-miterlimit="10"/>
<path d="M1109.1 171.979L1099.29 177.809C1098.45 178.236 1098.02 178.947 1098.02 179.658C1098.02 180.369 1098.45 181.08 1099.29 181.507L1109.67 187.622C1110.38 188.049 1111.37 188.333 1112.37 188.333C1113.36 188.333 1114.36 188.049 1115.07 187.622L1125.44 181.507C1125.86 181.222 1126 181.08 1126.29 180.796L1110.38 171.267" stroke="#A8D6F8" stroke-width="0.736646" stroke-miterlimit="10"/>
<path d="M1045.02 106.987V148.371C1045.02 150.931 1046.59 153.918 1048.57 155.482L1061.07 163.019C1063.35 164.441 1065.2 163.162 1065.2 160.459V119.076C1065.2 116.516 1063.64 113.53 1061.65 111.965L1049.14 104.428C1046.87 103.006 1045.02 104.143 1045.02 106.987Z" stroke="#A8D6F8" stroke-width="0.736646" stroke-miterlimit="10"/>
<path d="M1095.32 102.579V101.157C1095.32 98.597 1093.75 95.6106 1091.77 94.046L1079.26 86.5087C1078.13 85.7978 1077.14 85.7978 1076.28 86.2243" stroke="#A8D6F8" stroke-width="0.736646" stroke-miterlimit="10"/>
<path d="M1081.96 152.638L1064.21 163.162" stroke="#A8D6F8" stroke-width="0.736646" stroke-miterlimit="10"/>
<path d="M1051.56 119.787C1051.56 117.938 1052.84 117.227 1054.26 118.08C1055.82 118.934 1056.96 121.067 1056.96 122.915C1056.96 124.764 1055.68 125.475 1054.26 124.622C1052.84 123.769 1051.56 121.493 1051.56 119.787Z" stroke="#A8D6F8" stroke-width="0.736646" stroke-miterlimit="10"/>
<path d="M1064.91 142.541L1045.02 130.595" stroke="#A8D6F8" stroke-width="0.736646" stroke-miterlimit="10" stroke-linecap="round"/>
<path d="M1064.91 154.202L1045.02 142.398" stroke="#A8D6F8" stroke-width="0.736646" stroke-miterlimit="10" stroke-linecap="round"/>
<path opacity="0.4" d="M705.616 239.956C705.616 238.25 704.479 236.116 702.917 235.263C701.496 234.409 700.217 235.12 700.217 236.827C700.217 238.534 701.353 240.667 702.917 241.52C704.479 242.231 705.616 241.662 705.616 239.956Z" fill="white"/>
<path opacity="0.4" d="M766.136 273.518L714.423 243.654C713.713 243.227 713.145 243.654 713.145 244.649C713.145 245.645 713.713 246.782 714.423 247.209L766.136 277.073C766.85 277.5 767.418 277.073 767.418 276.078C767.418 274.94 766.85 273.802 766.136 273.518Z" fill="white"/>
<path opacity="0.4" d="M705.616 297.553C705.616 295.846 704.479 293.712 702.917 292.859C701.496 292.006 700.217 292.717 700.217 294.423C700.217 296.13 701.353 298.263 702.917 299.116C704.479 299.827 705.616 299.259 705.616 297.553Z" fill="white"/>
<path opacity="0.4" d="M766.136 331.114L714.423 301.25C713.713 300.823 713.145 301.25 713.145 302.245C713.145 303.241 713.713 304.378 714.423 304.805L766.136 334.669C766.85 335.096 767.418 334.669 767.418 333.674C767.418 332.537 766.85 331.398 766.136 331.114Z" fill="white"/>
<path opacity="0.4" d="M705.616 355.148C705.616 353.441 704.479 351.308 702.917 350.455C701.496 349.602 700.217 350.313 700.217 352.019C700.217 353.726 701.353 355.859 702.917 356.713C704.479 357.423 705.616 356.855 705.616 355.148Z" fill="white"/>
<path opacity="0.4" d="M766.136 388.71L714.423 358.845C713.713 358.419 713.145 358.845 713.145 359.841C713.145 360.836 713.713 361.974 714.423 362.401L766.136 392.265C766.85 392.692 767.418 392.265 767.418 391.27C767.418 390.132 766.85 388.995 766.136 388.71Z" fill="white"/>
<path opacity="0.4" d="M813.872 272.096L865.592 242.232C866.299 241.805 866.866 242.232 866.866 243.227C866.866 244.222 866.299 245.36 865.592 245.787L813.872 275.651C813.165 276.078 812.598 275.651 812.598 274.656C812.45 273.518 813.165 272.381 813.872 272.096Z" fill="white"/>
<path opacity="0.4" d="M813.872 329.692L865.592 299.827C866.299 299.401 866.866 299.827 866.866 300.823C866.866 301.818 866.299 302.956 865.592 303.382L813.872 333.247C813.165 333.674 812.598 333.247 812.598 332.251C812.45 331.114 813.165 329.976 813.872 329.692Z" fill="white"/>
<path opacity="0.4" d="M813.872 387.288L865.592 357.423C866.299 356.996 866.866 357.423 866.866 358.419C866.866 359.414 866.299 360.552 865.592 360.978L813.872 390.843C813.165 391.269 812.598 390.843 812.598 389.848C812.45 388.709 813.165 387.572 813.872 387.288Z" fill="white"/>
<path opacity="0.4" d="M884.907 312.199C883.633 313.622 881.924 315.043 879.935 316.182L805.777 360.552C800.517 363.68 793.556 365.387 786.314 365.387C779.066 365.387 772.105 363.68 766.705 360.552L691.835 316.324C689.704 315.043 688 313.764 686.721 312.199V314.19C688 315.328 689.421 316.466 691.125 317.461L765.858 361.831C771.397 365.102 778.639 366.951 786.167 366.951C793.703 366.951 800.944 365.102 806.484 361.831L880.649 317.461C882.351 316.466 883.773 315.328 884.907 314.19V312.199Z" fill="white"/>
<path opacity="0.4" d="M884.907 255.742C883.633 257.164 881.924 258.586 879.935 259.724L805.777 304.094C800.517 307.222 793.556 308.929 786.314 308.929C779.066 308.929 772.105 307.222 766.705 304.094L691.835 259.724C689.704 258.444 688 257.164 686.721 255.6V257.59C688 258.728 689.421 259.866 691.125 260.862L765.858 305.231C771.397 308.503 778.639 310.351 786.167 310.351C793.703 310.351 800.944 308.503 806.484 305.231L880.649 260.862C882.351 259.866 883.773 258.728 884.907 257.59V255.742Z" fill="white"/>
</g>
</g>
<defs>
<linearGradient id="paint0_linear_52_3768" x1="921.378" y1="135.871" x2="718.145" y2="318.332" gradientUnits="userSpaceOnUse">
<stop offset="0.0980392" stop-color="#88EDF2"/>
<stop offset="0.2775" stop-color="#65B4EE"/>
<stop offset="0.4929" stop-color="#4076E9"/>
<stop offset="0.651" stop-color="#284FE6"/>
<stop offset="0.7333" stop-color="#1F40E5"/>
</linearGradient>
<linearGradient id="paint1_linear_52_3768" x1="921.407" y1="101.662" x2="829.54" y2="260.731" gradientUnits="userSpaceOnUse">
<stop offset="0.0980392" stop-color="#88EDF2"/>
<stop offset="0.2775" stop-color="#65B4EE"/>
<stop offset="0.4929" stop-color="#4076E9"/>
<stop offset="0.651" stop-color="#284FE6"/>
<stop offset="0.7333" stop-color="#1F40E5"/>
</linearGradient>
<linearGradient id="paint2_linear_52_3768" x1="817.239" y1="115.022" x2="819.11" y2="245.214" gradientUnits="userSpaceOnUse">
<stop offset="0.0980392" stop-color="#88EDF2"/>
<stop offset="0.2775" stop-color="#65B4EE"/>
<stop offset="0.4929" stop-color="#4076E9"/>
<stop offset="0.651" stop-color="#284FE6"/>
<stop offset="0.7333" stop-color="#1F40E5"/>
</linearGradient>
<clipPath id="clip0_52_3768">
<rect width="1282.5" height="800" fill="white" transform="translate(-0.00390625)"/>
</clipPath>
</defs>
</svg>
