<svg width="46" height="46" viewBox="0 0 46 46" fill="none" xmlns="http://www.w3.org/2000/svg">
<circle r="22.5" transform="matrix(-1 0 0 1 23 23)" fill="white" stroke="#BDE3FE"/>
<path d="M15.7273 29.4545C15.7273 28.5505 18.2915 27.8182 21.4545 27.8182M15.7273 29.4545C15.7273 30.3586 18.2915 31.0909 21.4545 31.0909C24.6176 31.0909 27.1818 30.3586 27.1818 29.4545M15.7273 29.4545V33.4939C15.7273 34.4258 18.2915 35.1818 21.4545 35.1818C24.6176 35.1818 27.1818 34.4266 27.1818 33.4939V29.4545M15.7273 29.4545C12.5985 29.4545 10 28.647 10 27.8182V19.6364M21.4545 27.8182C24.6176 27.8182 27.1818 28.5505 27.1818 29.4545M21.4545 27.8182C25.0693 27.8182 28 27.0106 28 26.1818V22.0909M28 22.0909C28 21.1868 25.0693 20.4545 21.4545 20.4545V23.7273M28 22.0909C28 22.995 25.0693 23.7273 21.4545 23.7273M21.4545 23.7273C21.4545 24.5561 18.793 25.3636 15.6643 25.3636C12.5364 25.3636 10 24.5561 10 23.7273M10 19.6364C10 18.7323 12.5364 18 15.6643 18C18.793 18 21.3285 18.7323 21.3285 19.6364M10 19.6364C10 20.5405 12.5364 21.2727 15.6643 21.2727C18.7922 21.2727 21.3285 20.5405 21.3285 19.6364M21.3285 19.6364V27.954" stroke="#1F40E5" stroke-width="1.5"/>
<path d="M28.707 12.293L24.707 16.293L18.414 10L17 11.414L24.707 19.121L28.707 15.121L33 19.414L30.707 21.707H36.707V15.707L34.414 18L28.707 12.293Z" fill="#1F40E5"/>
</svg>
