<svg width="46" height="46" viewBox="0 0 46 46" fill="none" xmlns="http://www.w3.org/2000/svg">
<circle r="22.5" transform="matrix(-1 0 0 1 23 23)" fill="white" stroke="#BDE3FE"/>
<path fill-rule="evenodd" clip-rule="evenodd" d="M12 32.7051H32.6256V33.9591H12V32.7051Z" fill="#1F40E5"/>
<path fill-rule="evenodd" clip-rule="evenodd" d="M31.2903 23.5714L25.1354 22.439L27.2177 20.3568L21.0318 15.1066L15.7531 19.4186C15.6892 19.475 15.6148 19.5182 15.5341 19.5458C15.4534 19.5734 15.3681 19.5847 15.283 19.5792C15.1979 19.5737 15.1148 19.5515 15.0383 19.5137C14.9619 19.476 14.8937 19.4235 14.8376 19.3593C14.7815 19.2951 14.7386 19.2204 14.7114 19.1396C14.6843 19.0588 14.6734 18.9734 14.6793 18.8884C14.6853 18.8033 14.708 18.7203 14.7461 18.6441C14.7842 18.5678 14.8371 18.4998 14.9016 18.4441L21.0421 13.3789L28.1326 19.4418L30.3119 17.2626L31.2903 23.5714Z" fill="#1F40E5"/>
<path fill-rule="evenodd" clip-rule="evenodd" d="M19.7646 19.7637H23.5836V31.2528H19.7646V19.7637Z" fill="#1F40E5"/>
<path fill-rule="evenodd" clip-rule="evenodd" d="M13.2939 23.6465H17.153V31.2533H13.2939V23.6465Z" fill="#1F40E5"/>
<path fill-rule="evenodd" clip-rule="evenodd" d="M26.2354 26.2344H30.0543V31.2711H26.2354V26.2344Z" fill="#1F40E5"/>
</svg>
