<svg width="46" height="47" viewBox="0 0 46 47" fill="none" xmlns="http://www.w3.org/2000/svg">
<circle r="22.5" transform="matrix(-1 0 0 1 23 23.9065)" fill="white" stroke="#BDE3FE"/>
<path d="M30.7328 29.8401H15.1328V31.5735H30.7328V29.8401Z" fill="#1F40E5"/>
<path d="M22.0672 27.24V16.839C22.0672 16.3627 21.6769 15.9724 21.2003 15.9724H17.7338C17.2572 15.9724 16.8672 16.3627 16.8672 16.839V27.24C16.8672 27.7164 17.2572 28.1066 17.7338 28.1066H21.2003C21.6769 28.1066 22.0672 27.7164 22.0672 27.24ZM18.6003 26.3732V17.7058H20.3338V26.3732H18.6003Z" fill="#1F40E5"/>
<path d="M24.6676 28.1066C24.191 28.1066 23.8008 27.7163 23.8008 27.24V20.3058C23.8008 19.8292 24.191 19.439 24.6676 19.439H28.1342C28.6108 19.439 29.0008 19.8292 29.0008 20.3058V27.24C29.0008 27.7163 28.6108 28.1066 28.1342 28.1066H24.6676Z" fill="#1F40E5"/>
</svg>
