<svg width="46" height="47" viewBox="0 0 46 47" fill="none" xmlns="http://www.w3.org/2000/svg">
<circle r="22.5" transform="matrix(-1 0 0 1 23 23.9062)" fill="white" stroke="#BDE3FE"/>
<path d="M29.934 14.9273H27.334C27.334 13.9741 26.5535 13.1938 25.6006 13.1938H20.4006C19.4477 13.1938 18.6671 13.9741 18.6671 14.9273H16.0671C15.1142 14.9273 14.334 15.7075 14.334 16.6607V32.2607C14.334 33.2138 15.1142 33.9941 16.0671 33.9941H29.934C30.8869 33.9941 31.6671 33.2138 31.6671 32.2607V16.6607C31.6671 15.7075 30.8869 14.9273 29.934 14.9273ZM20.4006 14.9273H25.6006V16.6607H20.4006V14.9273ZM29.934 32.2604H16.0671V16.6604H18.6671V18.3938H27.334V16.6604H29.934V32.2604Z" fill="#1F40E5"/>
<path d="M23.0008 20.9937H17.8008V22.7271H23.0008V20.9937Z" fill="#1F40E5"/>
<path d="M28.2008 24.4607H17.8008V26.1939H28.2008V24.4607Z" fill="#1F40E5"/>
<path d="M26.4674 27.927H17.8008V29.6604H26.4674V27.927Z" fill="#1F40E5"/>
</svg>
