<svg width="46" height="47" viewBox="0 0 46 47" fill="none" xmlns="http://www.w3.org/2000/svg">
<circle r="22.5" transform="matrix(-1 0 0 1 23 23.9062)" fill="white" stroke="#BDE3FE"/>
<path d="M22.2662 14.0063H14.4662C13.9899 14.0063 13.5996 14.3963 13.5996 14.8729V24.4063C13.5996 24.8829 13.9899 25.2729 14.4662 25.2729H22.2662C22.7428 25.2729 23.133 24.8829 23.133 24.4063V14.8729C23.133 14.3963 22.7428 14.0063 22.2662 14.0063ZM21.3996 23.5398H15.333V15.7398H21.3996V23.5398Z" fill="#1F40E5"/>
<path d="M33.534 23.5398H25.734C25.2574 23.5398 24.8672 23.9298 24.8672 24.4064V33.9398C24.8672 34.4161 25.2574 34.8064 25.734 34.8064H33.534C34.0103 34.8064 34.4006 34.4161 34.4006 33.9398V24.4064C34.4006 23.9298 34.0103 23.5398 33.534 23.5398ZM32.6672 33.073H26.6006V25.273H32.6672V33.073Z" fill="#1F40E5"/>
<path d="M22.2662 27.0063H14.4662C13.9899 27.0063 13.5996 27.3966 13.5996 27.8729V33.9398C13.5996 34.4161 13.9899 34.8064 14.4662 34.8064H22.2662C22.7428 34.8064 23.133 34.4161 23.133 33.9398V27.8729C23.133 27.3966 22.7428 27.0063 22.2662 27.0063ZM21.3996 33.0729H15.333V28.7398H21.3996V33.0729Z" fill="#1F40E5"/>
<path d="M33.534 14.0063H25.734C25.2574 14.0063 24.8672 14.3963 24.8672 14.8729V20.9395C24.8672 21.4158 25.2574 21.8061 25.734 21.8061H33.534C34.0103 21.8063 34.4006 21.4161 34.4006 20.9398V14.8729C34.4006 14.3963 34.0103 14.0063 33.534 14.0063ZM32.6672 20.0729H26.6006V15.7398H32.6672V20.0729Z" fill="#1F40E5"/>
</svg>
