<svg width="423" height="296" viewBox="0 0 423 296" fill="none" xmlns="http://www.w3.org/2000/svg">
<path d="M262 135L154 199" stroke="#A8D6F8" stroke-miterlimit="10"/>
<path d="M102.308 295C95.335 295 88.2941 293.354 82.8254 290.13L9.88663 246.712C4.1445 243.283 1 238.619 1 233.474C1 228.399 4.14451 223.666 9.81828 220.305L82.2785 176.887C93.1475 170.371 110.237 170.371 121.175 176.887L194.113 220.305C199.855 223.734 203 228.399 203 233.543C203 238.619 199.855 243.351 194.182 246.712L121.721 290.13C116.253 293.354 109.28 295 102.308 295Z" fill="#F6FBFF" stroke="#A8D6F8" stroke-miterlimit="10"/>
<path d="M102.185 274C97.6 274 93.0151 272.954 89.4656 270.786L41.842 242.161C38.0706 239.918 36 236.779 36 233.416C36 230.053 38.0706 226.988 41.7681 224.746L89.0958 196.195C96.195 191.935 107.361 191.935 114.461 196.195L162.158 224.746C165.929 226.988 168 230.127 168 233.491C168 236.854 165.929 239.918 162.232 242.161L114.904 270.711C111.355 272.879 106.77 274 102.185 274Z" fill="#D8E8F5"/>
<path fill-rule="evenodd" clip-rule="evenodd" d="M135.994 65.3266V50.1355H157.957V78.8186V104.109V132.792V147.537V176.22V201.332V230.015C157.957 232.695 156.172 235.376 153.136 237.163L112.96 260.933C109.924 262.72 106.175 263.614 102.246 263.614C98.4966 263.614 94.5683 262.72 91.5328 260.933L50.9997 236.985C47.7856 235.198 46 232.517 46 229.836V201.153V176.042V147.359V132.613V103.93V78.8186V50.1355H68.1414V65.3266H135.994Z" fill="url(#paint0_linear)"/>
<path d="M102.246 84.0918C98.3181 84.0918 94.5683 83.1982 91.5328 81.4111L50.9997 57.284C47.7856 55.4968 46 52.8161 46 49.9566C46 47.0971 47.7856 44.595 50.8211 42.6291L90.9971 18.6808C97.0682 15.1064 106.532 15.1064 112.603 18.6808L153.136 42.8078C156.35 44.7737 158.136 47.2758 158.136 50.1353C158.136 52.9948 156.35 55.4968 153.315 57.4627L112.96 81.4111C109.924 83.1982 105.996 84.0918 102.246 84.0918Z" fill="url(#paint1_linear)"/>
<path d="M253.222 33.1473C256.541 31.7144 258.399 29.824 258.826 27.5678C259.221 25.2506 259.465 23.2688 259.648 21.6529C259.77 20.5553 259.891 19.6101 260.013 18.8174" stroke="#A8D6F8" stroke-miterlimit="10" stroke-linecap="round" stroke-linejoin="round"/>
<path d="M261.414 35.7083C260.622 36.44 259.343 37.1108 257.942 37.6291" stroke="#A8D6F8" stroke-miterlimit="10" stroke-linecap="round" stroke-linejoin="round"/>
<path d="M278.439 46.3491C278.378 46.715 278.317 47.1418 278.286 47.5687L278.256 47.8736" stroke="#A8D6F8" stroke-miterlimit="10" stroke-linecap="round" stroke-linejoin="round"/>
<path d="M279.809 42.8123C279.718 43.9708 279.535 46.349 277.251 46.7454C276.947 46.8064 276.642 46.8368 276.337 46.8368C276.276 46.8368 276.185 46.8368 276.094 46.8368" stroke="#A8D6F8" stroke-miterlimit="10" stroke-linecap="round" stroke-linejoin="round"/>
<path d="M279.84 20.2503C279.596 19.6405 279.322 19.1527 278.987 18.7563C277.525 17.0184 274.023 15.494 271.739 14.4573C271.556 14.3659 271.373 14.3049 271.221 14.2439V14.6707C271.221 14.7622 270.947 16.2562 269.637 17.0489C268.815 17.5672 267.749 17.6892 266.531 17.4148C265.983 17.2928 265.678 16.9574 265.617 16.4391" stroke="#A8D6F8" stroke-miterlimit="10" stroke-linecap="round" stroke-linejoin="round"/>
<path d="M261.323 38.9403C261.353 38.8488 261.384 38.7878 261.384 38.7573C261.719 37.8122 261.262 34.1535 260.805 30.3118C260.318 26.2872 259.77 21.7443 259.983 19.2747C260.348 15.1891 261.871 13.4207 262.815 12.7195" stroke="#A8D6F8" stroke-miterlimit="10" stroke-linecap="round" stroke-linejoin="round"/>
<path d="M262.511 11.1948C262.633 11.7741 262.785 12.3229 262.907 12.6888C263.699 15.1584 264.521 16.439 266.653 16.0426C268.206 15.7682 270.46 13.7864 270.368 11.4082" stroke="#A8D6F8" stroke-miterlimit="10" stroke-linecap="round" stroke-linejoin="round"/>
<path d="M257.973 49.3067C258.034 49.1847 258.094 49.0628 258.186 48.9713C258.216 48.9103 258.277 48.8493 258.308 48.7884C258.612 48.27 259.069 47.5993 259.435 47.3859C260.074 47.0505 261.171 47.02 262.236 46.9895C262.967 46.9895 263.637 46.959 264.094 46.8371C264.612 46.7151 265.373 46.3492 265.708 46.1968" stroke="#A8D6F8" stroke-miterlimit="10" stroke-linecap="round" stroke-linejoin="round"/>
<path d="M266.988 48.8188C266.653 49.1237 265.922 49.764 265.647 49.9165C265.343 50.0994 264.734 50.1299 264.064 50.1909C263.333 50.2518 262.511 50.2823 262.145 50.5567C261.993 50.6482 261.749 50.9531 261.566 51.197C261.262 51.5629 261.171 51.6848 261.049 51.7153C260.988 51.7153 260.744 51.7458 260.561 51.7458C260.5 51.7763 260.379 51.8678 260.257 51.9592C260.196 52.0202 260.105 52.0202 260.013 52.0202C259.952 52.0202 259.891 52.0202 259.861 51.9897C259.709 51.9592 259.587 51.8678 259.556 51.7458C259.495 51.6239 259.526 51.4104 259.587 51.2275C259.435 51.4104 259.252 51.6239 259.069 51.7458C258.886 51.8678 258.704 51.8678 258.521 51.7763C258.399 51.7153 258.338 51.5934 258.338 51.4714C258.338 51.319 258.429 51.0446 258.551 50.7092C258.46 50.8006 258.399 50.8616 258.338 50.8616C258.216 50.8921 258.094 50.8921 257.973 50.8616" stroke="#A8D6F8" stroke-miterlimit="10" stroke-linecap="round" stroke-linejoin="round"/>
<path d="M267.293 49.2761C267.232 49.2761 267.171 49.2456 267.14 49.1847L265.405 45.7089C265.374 45.6174 265.405 45.5259 265.465 45.4955C265.8 45.3125 266.318 44.9771 266.44 44.7942C266.47 44.7332 266.501 44.6113 266.531 44.5198C266.592 44.2454 266.684 43.8795 267.049 43.6661C273.232 40.1903 274.358 36.3487 274.541 35.6169C274.785 34.5193 275.455 28.6044 275.272 25.2201C275.211 24.0615 275.272 21.9272 276.399 20.6772C276.917 20.0979 277.617 19.793 278.47 19.7625C280.906 19.671 282.186 24.6103 282.277 26.1957C282.582 32.629 281.881 35.4035 280.754 39.9769C280.724 40.1293 280.663 40.3123 280.632 40.4647C280.145 42.7209 279.597 45.0381 271.161 48.5139C270.064 48.9712 268.937 48.7578 268.663 48.6968L267.354 49.2761C267.323 49.2456 267.323 49.2761 267.293 49.2761Z" stroke="#A8D6F8" stroke-miterlimit="10" stroke-linecap="round" stroke-linejoin="round"/>
<path d="M270.795 12.5365C271.617 11.073 272.439 11.2865 272.348 9.03025C272.317 8.23753 273.383 5.73741 271.678 3.17631C270.734 1.74331 269.211 1.92624 269.211 1.92624C269.211 1.92624 267.14 -0.116538 263.242 1.86527C262.237 2.35309 260.714 4.27392 260.653 5.24958C259.648 8.45095 262.206 11.7438 262.206 11.7438L263.089 10.1888V10.7377C263.089 10.7377 267.262 9.42661 268.785 8.26802L269.241 9.4571" stroke="#A8D6F8" stroke-miterlimit="10" stroke-linecap="round" stroke-linejoin="round"/>
<path d="M269.577 11.0731C269.76 11.2865 270.034 11.378 270.308 11.317C270.886 11.1646 271.282 10.6158 271.282 9.88402C271.282 9.48766 271.161 9.12178 270.917 8.93885C270.765 8.81689 270.551 8.75591 270.308 8.81689C269.546 8.99983 269.364 9.3657 269.303 9.88402" stroke="#A8D6F8" stroke-miterlimit="10" stroke-linecap="round" stroke-linejoin="round"/>
<path d="M271.221 14.3048L270.368 11.5303" stroke="#A8D6F8" stroke-miterlimit="10" stroke-linecap="round" stroke-linejoin="round"/>
<path d="M268.327 42.8124L258.338 37.4768" stroke="#A8D6F8" stroke-miterlimit="10" stroke-linecap="round" stroke-linejoin="round"/>
<path d="M229.497 27.3848L211.223 37.0804C209.792 37.8426 209 38.8792 209 40.0378C209 41.1964 209.792 42.2331 211.254 42.9953L262.419 70.1612C263.79 70.893 265.556 71.2589 267.323 71.2589C269.089 71.2589 270.855 70.893 272.226 70.1612L290.499 60.4657C291.931 59.7034 292.723 58.6668 292.723 57.5082C292.723 56.3496 291.931 55.313 290.469 54.5507L275.363 46.532" stroke="#A8D6F8" stroke-miterlimit="10" stroke-linecap="round" stroke-linejoin="round"/>
<path d="M209.03 40.0073V73.2406H209.061C209.061 73.3626 209.03 73.4541 209.03 73.576C209.03 74.7346 209.822 75.7713 211.284 76.5335L262.45 103.699C263.82 104.431 265.586 104.797 267.353 104.797C269.119 104.797 270.886 104.431 272.256 103.699L290.53 94.0039C291.961 93.2416 292.753 92.205 292.753 91.0464C292.753 91.0159 292.753 90.9549 292.753 90.9244V57.3862" stroke="#A8D6F8" stroke-miterlimit="10" stroke-linecap="round" stroke-linejoin="round"/>
<path d="M232.633 21.3479L230.075 22.8724" stroke="#A8D6F8" stroke-miterlimit="10"/>
<path d="M253.77 56.6852L231.202 43.148C230.319 42.6296 229.588 41.2881 229.588 40.1905V24.0312C229.588 22.9336 230.319 22.4762 231.202 23.025L253.77 36.5623C254.653 37.0806 255.384 38.4221 255.384 39.5197V55.7096C255.384 56.7767 254.683 57.234 253.77 56.6852Z" stroke="#A8D6F8" stroke-miterlimit="10"/>
<path d="M253.16 33.1167L256.358 35.0375C257.241 35.5558 257.972 36.8974 257.972 37.995V50.9529V54.2153C257.972 54.7031 257.85 55.0385 257.607 55.2519" stroke="#A8D6F8" stroke-miterlimit="10"/>
<path d="M232.604 21.3786C232.908 21.1957 233.304 21.2261 233.761 21.4701L253.161 33.0865" stroke="#A8D6F8" stroke-miterlimit="10"/>
<path d="M257.699 55.0996L254.866 56.868" stroke="#A8D6F8" stroke-miterlimit="10"/>
<path d="M240.826 48.9407V51.4103L243.354 52.9348V50.4651L240.826 48.9407Z" stroke="#A8D6F8" stroke-miterlimit="10"/>
<path d="M240.857 49.4895L236.989 51.8067C236.685 51.9896 236.502 52.264 236.502 52.5384C236.502 52.8129 236.685 53.0873 236.989 53.2702L241.04 55.6788C241.344 55.8618 241.74 55.9532 242.136 55.9532C242.532 55.9532 242.928 55.8618 243.202 55.6788L247.222 53.2702C247.375 53.1787 247.466 53.0873 247.557 52.9653L241.344 49.2456" stroke="#A8D6F8" stroke-miterlimit="10"/>
<path d="M262.633 46.8978L257.942 44.3977" stroke="#A8D6F8" stroke-miterlimit="10" stroke-linecap="round" stroke-linejoin="round"/>
<path d="M257.973 52.8129L259.374 53.5752C259.739 53.7886 260.226 53.8801 260.714 53.8801C261.201 53.8801 261.688 53.7886 262.054 53.5752L267.079 50.8921C267.475 50.6787 267.688 50.4043 267.688 50.0689C267.688 49.764 267.475 49.4591 267.079 49.2457L266.713 49.0627" stroke="#A8D6F8" stroke-miterlimit="10" stroke-linecap="round" stroke-linejoin="round"/>
<path d="M272.744 6.53003L288.886 15.0975" stroke="#A8D6F8" stroke-miterlimit="10" stroke-linecap="round" stroke-linejoin="round"/>
<path d="M286.815 52.63L287.85 52.0812C288.764 51.5629 289.525 50.3738 289.525 49.3981V45.7394V45.465V33.5437V28.391V16.1953C289.525 15.2196 288.764 14.8538 287.85 15.3416L286.023 16.3477C285.109 16.8661 284.348 18.0551 284.348 19.0308V31.2265V36.3792V48.3005V48.5749" stroke="#A8D6F8" stroke-miterlimit="10" stroke-linecap="round" stroke-linejoin="round"/>
<path d="M382.222 95.1473C385.541 93.7144 387.399 91.824 387.826 89.5678C388.221 87.2506 388.465 85.2688 388.648 83.6529C388.77 82.5553 388.891 81.6101 389.013 80.8174" stroke="#A8D6F8" stroke-miterlimit="10" stroke-linecap="round" stroke-linejoin="round"/>
<path d="M390.414 97.7083C389.622 98.44 388.343 99.1108 386.942 99.6291" stroke="#A8D6F8" stroke-miterlimit="10" stroke-linecap="round" stroke-linejoin="round"/>
<path d="M407.439 108.349C407.378 108.715 407.317 109.142 407.286 109.569L407.256 109.874" stroke="#A8D6F8" stroke-miterlimit="10" stroke-linecap="round" stroke-linejoin="round"/>
<path d="M408.809 104.812C408.718 105.971 408.535 108.349 406.251 108.745C405.947 108.806 405.642 108.837 405.337 108.837C405.276 108.837 405.185 108.837 405.094 108.837" stroke="#A8D6F8" stroke-miterlimit="10" stroke-linecap="round" stroke-linejoin="round"/>
<path d="M408.84 82.2503C408.596 81.6405 408.322 81.1527 407.987 80.7563C406.525 79.0184 403.023 77.494 400.739 76.4573C400.556 76.3659 400.373 76.3049 400.221 76.2439V76.6707C400.221 76.7622 399.947 78.2562 398.637 79.0489C397.815 79.5672 396.749 79.6892 395.531 79.4148C394.983 79.2928 394.678 78.9574 394.617 78.4391" stroke="#A8D6F8" stroke-miterlimit="10" stroke-linecap="round" stroke-linejoin="round"/>
<path d="M390.323 100.94C390.353 100.849 390.384 100.788 390.384 100.757C390.719 99.8122 390.262 96.1535 389.805 92.3118C389.318 88.2872 388.77 83.7443 388.983 81.2747C389.348 77.1891 390.871 75.4207 391.815 74.7195" stroke="#A8D6F8" stroke-miterlimit="10" stroke-linecap="round" stroke-linejoin="round"/>
<path d="M391.511 73.1948C391.633 73.7741 391.785 74.3229 391.907 74.6888C392.699 77.1584 393.521 78.439 395.653 78.0426C397.206 77.7682 399.46 75.7864 399.368 73.4082" stroke="#A8D6F8" stroke-miterlimit="10" stroke-linecap="round" stroke-linejoin="round"/>
<path d="M386.973 111.307C387.034 111.185 387.094 111.063 387.186 110.971C387.216 110.91 387.277 110.849 387.308 110.788C387.612 110.27 388.069 109.599 388.435 109.386C389.074 109.05 390.171 109.02 391.236 108.99C391.967 108.99 392.637 108.959 393.094 108.837C393.612 108.715 394.373 108.349 394.708 108.197" stroke="#A8D6F8" stroke-miterlimit="10" stroke-linecap="round" stroke-linejoin="round"/>
<path d="M395.988 110.819C395.653 111.124 394.922 111.764 394.647 111.916C394.343 112.099 393.734 112.13 393.064 112.191C392.333 112.252 391.511 112.282 391.145 112.557C390.993 112.648 390.749 112.953 390.566 113.197C390.262 113.563 390.171 113.685 390.049 113.715C389.988 113.715 389.744 113.746 389.561 113.746C389.5 113.776 389.379 113.868 389.257 113.959C389.196 114.02 389.105 114.02 389.013 114.02C388.952 114.02 388.891 114.02 388.861 113.99C388.709 113.959 388.587 113.868 388.556 113.746C388.495 113.624 388.526 113.41 388.587 113.227C388.435 113.41 388.252 113.624 388.069 113.746C387.886 113.868 387.704 113.868 387.521 113.776C387.399 113.715 387.338 113.593 387.338 113.471C387.338 113.319 387.429 113.045 387.551 112.709C387.46 112.801 387.399 112.862 387.338 112.862C387.216 112.892 387.094 112.892 386.973 112.862" stroke="#A8D6F8" stroke-miterlimit="10" stroke-linecap="round" stroke-linejoin="round"/>
<path d="M396.293 111.276C396.232 111.276 396.171 111.246 396.14 111.185L394.405 107.709C394.374 107.617 394.405 107.526 394.465 107.495C394.8 107.313 395.318 106.977 395.44 106.794C395.47 106.733 395.501 106.611 395.531 106.52C395.592 106.245 395.684 105.88 396.049 105.666C402.232 102.19 403.358 98.3487 403.541 97.6169C403.785 96.5193 404.455 90.6044 404.272 87.2201C404.211 86.0615 404.272 83.9272 405.399 82.6772C405.917 82.0979 406.617 81.793 407.47 81.7625C409.906 81.671 411.186 86.6103 411.277 88.1957C411.582 94.629 410.881 97.4035 409.754 101.977C409.724 102.129 409.663 102.312 409.632 102.465C409.145 104.721 408.597 107.038 400.161 110.514C399.064 110.971 397.937 110.758 397.663 110.697L396.354 111.276C396.323 111.246 396.323 111.276 396.293 111.276Z" stroke="#A8D6F8" stroke-miterlimit="10" stroke-linecap="round" stroke-linejoin="round"/>
<path d="M399.795 74.5365C400.617 73.073 401.439 73.2865 401.348 71.0302C401.317 70.2375 402.383 67.7374 400.678 65.1763C399.734 63.7433 398.211 63.9262 398.211 63.9262C398.211 63.9262 396.14 61.8835 392.242 63.8653C391.237 64.3531 389.714 66.2739 389.653 67.2496C388.648 70.451 391.206 73.7438 391.206 73.7438L392.089 72.1888V72.7377C392.089 72.7377 396.262 71.4266 397.785 70.268L398.241 71.4571" stroke="#A8D6F8" stroke-miterlimit="10" stroke-linecap="round" stroke-linejoin="round"/>
<path d="M398.577 73.0731C398.76 73.2865 399.034 73.378 399.308 73.317C399.886 73.1646 400.282 72.6158 400.282 71.884C400.282 71.4877 400.161 71.1218 399.917 70.9388C399.765 70.8169 399.551 70.7559 399.308 70.8169C398.546 70.9998 398.364 71.3657 398.303 71.884" stroke="#A8D6F8" stroke-miterlimit="10" stroke-linecap="round" stroke-linejoin="round"/>
<path d="M400.221 76.3048L399.368 73.5303" stroke="#A8D6F8" stroke-miterlimit="10" stroke-linecap="round" stroke-linejoin="round"/>
<path d="M397.327 104.812L387.338 99.4768" stroke="#A8D6F8" stroke-miterlimit="10" stroke-linecap="round" stroke-linejoin="round"/>
<path d="M358.497 89.3848L340.223 99.0804C338.792 99.8426 338 100.879 338 102.038C338 103.196 338.792 104.233 340.254 104.995L391.419 132.161C392.79 132.893 394.556 133.259 396.323 133.259C398.089 133.259 399.855 132.893 401.226 132.161L419.499 122.466C420.931 121.703 421.723 120.667 421.723 119.508C421.723 118.35 420.931 117.313 419.469 116.551L404.363 108.532" stroke="#A8D6F8" stroke-miterlimit="10" stroke-linecap="round" stroke-linejoin="round"/>
<path d="M230.252 87.5024L212.355 97.0049C209.551 98.499 208 100.531 208 102.802C208 105.073 209.551 107.105 212.415 108.599L312.64 161.849C315.325 163.283 318.785 164 322.245 164C325.705 164 329.166 163.283 331.85 161.849L358.5 148" stroke="#A8D6F8" stroke-miterlimit="10" stroke-linecap="round" stroke-linejoin="round"/>
<path d="M338.03 102.007V135.241H338.061C338.061 135.363 338.03 135.454 338.03 135.576C338.03 136.735 338.822 137.771 340.284 138.533L391.45 165.699C392.82 166.431 394.586 166.797 396.353 166.797C398.119 166.797 399.886 166.431 401.256 165.699L419.53 156.004C420.961 155.242 421.753 154.205 421.753 153.046C421.753 153.016 421.753 152.955 421.753 152.924V119.386" stroke="#A8D6F8" stroke-miterlimit="10" stroke-linecap="round" stroke-linejoin="round"/>
<path d="M361.633 83.3479L359.075 84.8724" stroke="#A8D6F8" stroke-miterlimit="10"/>
<path d="M382.77 118.685L360.202 105.148C359.319 104.63 358.588 103.288 358.588 102.191V86.0312C358.588 84.9336 359.319 84.4762 360.202 85.025L382.77 98.5623C383.653 99.0806 384.384 100.422 384.384 101.52V117.71C384.384 118.777 383.683 119.234 382.77 118.685Z" stroke="#A8D6F8" stroke-miterlimit="10"/>
<path d="M382.16 95.1167L385.358 97.0375C386.241 97.5558 386.972 98.8974 386.972 99.995V112.953V116.215C386.972 116.703 386.85 117.038 386.607 117.252" stroke="#A8D6F8" stroke-miterlimit="10"/>
<path d="M361.604 83.3786C361.908 83.1957 362.304 83.2261 362.761 83.4701L382.161 95.0865" stroke="#A8D6F8" stroke-miterlimit="10"/>
<path d="M386.699 117.1L383.866 118.868" stroke="#A8D6F8" stroke-miterlimit="10"/>
<path d="M369.826 110.941V113.41L372.354 114.935V112.465L369.826 110.941Z" stroke="#A8D6F8" stroke-miterlimit="10"/>
<path d="M369.857 111.49L365.989 113.807C365.685 113.99 365.502 114.264 365.502 114.538C365.502 114.813 365.685 115.087 365.989 115.27L370.04 117.679C370.344 117.862 370.74 117.953 371.136 117.953C371.532 117.953 371.928 117.862 372.202 117.679L376.222 115.27C376.375 115.179 376.466 115.087 376.557 114.965L370.344 111.246" stroke="#A8D6F8" stroke-miterlimit="10"/>
<path d="M391.633 108.898L386.942 106.398" stroke="#A8D6F8" stroke-miterlimit="10" stroke-linecap="round" stroke-linejoin="round"/>
<path d="M386.973 114.813L388.374 115.575C388.739 115.789 389.226 115.88 389.714 115.88C390.201 115.88 390.688 115.789 391.054 115.575L396.079 112.892C396.475 112.679 396.688 112.404 396.688 112.069C396.688 111.764 396.475 111.459 396.079 111.246L395.713 111.063" stroke="#A8D6F8" stroke-miterlimit="10" stroke-linecap="round" stroke-linejoin="round"/>
<path d="M401.744 68.53L417.886 77.0975" stroke="#A8D6F8" stroke-miterlimit="10" stroke-linecap="round" stroke-linejoin="round"/>
<path d="M415.815 114.63L416.85 114.081C417.764 113.563 418.525 112.374 418.525 111.398V107.739V107.465V95.5437V90.391V78.1953C418.525 77.2196 417.764 76.8538 416.85 77.3416L415.023 78.3477C414.109 78.8661 413.348 80.0551 413.348 81.0308V93.2265V98.3792V110.301V110.575" stroke="#A8D6F8" stroke-miterlimit="10" stroke-linecap="round" stroke-linejoin="round"/>
<g opacity="0.4">
<path fill-rule="evenodd" clip-rule="evenodd" d="M117 99.6V122.6L122.1 120V97L117 99.6ZM117 136.6V159.6L122.1 157V134L117 136.6ZM117 196.6V173.6L122.1 171V194L117 196.6ZM117 210.6V233.6L122.1 231V208L117 210.6Z" fill="white"/>
<path fill-rule="evenodd" clip-rule="evenodd" d="M131 91.6V114.6L136.1 112V89L131 91.6ZM131 128.6V151.6L136.1 149V126L131 128.6ZM131 188.6V165.6L136.1 163V186L131 188.6ZM131 202.6V225.6L136.1 223V200L131 202.6Z" fill="white"/>
<path fill-rule="evenodd" clip-rule="evenodd" d="M144 82.6V105.6L149.1 103V80L144 82.6ZM144 119.6V142.6L149.1 140V117L144 119.6ZM144 179.6V156.6L149.1 154V177L144 179.6ZM144 193.6V216.6L149.1 214V191L144 193.6Z" fill="white"/>
</g>
<g opacity="0.4">
<path fill-rule="evenodd" clip-rule="evenodd" d="M87.1001 99.6V122.6L82.0001 120V97L87.1001 99.6ZM87.1001 136.6V159.6L82.0001 157V134L87.1001 136.6ZM87.1001 196.6V173.6L82.0001 171V194L87.1001 196.6ZM87.1001 210.6V233.6L82.0001 231V208L87.1001 210.6Z" fill="white"/>
<path fill-rule="evenodd" clip-rule="evenodd" d="M73.1001 91.6V114.6L68.0001 112V89L73.1001 91.6ZM73.1001 128.6V151.6L68.0001 149V126L73.1001 128.6ZM73.1001 188.6V165.6L68.0001 163V186L73.1001 188.6ZM73.1001 202.6V225.6L68.0001 223V200L73.1001 202.6Z" fill="white"/>
<path fill-rule="evenodd" clip-rule="evenodd" d="M60.1001 82.6V105.6L55.0001 103V80L60.1001 82.6ZM60.1001 119.6V142.6L55.0001 140V117L60.1001 119.6ZM60.1001 179.6V156.6L55.0001 154V177L60.1001 179.6ZM60.1001 193.6V216.6L55.0001 214V191L60.1001 193.6Z" fill="white"/>
</g>
<path d="M126.5 49C126.5 52.9025 123.914 56.5161 119.563 59.1802C115.22 61.8391 109.189 63.5 102.5 63.5C95.8113 63.5 89.7799 61.8391 85.437 59.1802C81.0856 56.5161 78.5 52.9025 78.5 49C78.5 45.0975 81.0856 41.4839 85.437 38.8198C89.7799 36.1609 95.8113 34.5 102.5 34.5C109.189 34.5 115.22 36.1609 119.563 38.8198C123.914 41.4839 126.5 45.0975 126.5 49Z" stroke="white"/>
<path d="M104 40L88 50" stroke="white" stroke-miterlimit="10" stroke-linecap="round"/>
<path d="M117 46L101 56" stroke="white" stroke-miterlimit="10" stroke-linecap="round"/>
<path d="M97 45L108 51.6" stroke="white" stroke-miterlimit="10" stroke-linecap="round"/>
<defs>
<linearGradient id="paint0_linear" x1="178.653" y1="-0.213155" x2="19.5886" y2="87.5545" gradientUnits="userSpaceOnUse">
<stop offset="0.0980392" stop-color="#88EDF2"/>
<stop offset="0.2775" stop-color="#65B4EE"/>
<stop offset="0.4929" stop-color="#4076E9"/>
<stop offset="0.651" stop-color="#284FE6"/>
<stop offset="0.7333" stop-color="#1F40E5"/>
</linearGradient>
<linearGradient id="paint1_linear" x1="178.865" y1="-0.0593942" x2="126.936" y2="89.9152" gradientUnits="userSpaceOnUse">
<stop offset="0.0980392" stop-color="#88EDF2"/>
<stop offset="0.2775" stop-color="#65B4EE"/>
<stop offset="0.4929" stop-color="#4076E9"/>
<stop offset="0.651" stop-color="#284FE6"/>
<stop offset="0.7333" stop-color="#1F40E5"/>
</linearGradient>
</defs>
</svg>
