<svg width="46" height="46" viewBox="0 0 46 46" fill="none" xmlns="http://www.w3.org/2000/svg">
<circle r="22.5" transform="matrix(-1 0 0 1 23 23)" fill="white" stroke="#BDE3FE"/>
<path d="M31.6679 22.9998C31.0272 22.9998 30.4742 23.351 30.1742 23.8663H23V25.6005H30.1742C30.4742 26.1159 31.0272 26.4663 31.6679 26.4663C32.6239 26.4663 33.4 25.6918 33.4 24.7332C33.4 23.7764 32.6239 22.9998 31.6679 22.9998Z" fill="#1F40E5"/>
<path d="M31.6679 16.0664C31.0272 16.0664 30.4742 16.4177 30.1742 16.9332H23V18.6661H30.1742C30.4742 19.1825 31.0272 19.533 31.6679 19.533C32.6239 19.533 33.4 18.7577 33.4 17.8001C33.4 16.8433 32.6239 16.0664 31.6679 16.0664Z" fill="#1F40E5"/>
<path d="M21.2661 23.8662H16.0664V25.6004H21.2661V23.8662Z" fill="#1F40E5"/>
<path d="M21.2661 27.3333H16.0664V29.0669H21.2661V27.3333Z" fill="#1F40E5"/>
<path d="M21.2661 20.3999H16.0664V22.1336H21.2661V20.3999Z" fill="#1F40E5"/>
<path d="M21.2661 16.9331H16.0664V18.666H21.2661V16.9331Z" fill="#1F40E5"/>
<path d="M26.4674 26.4663C25.8267 26.4663 25.2745 26.8183 24.9737 27.3331H23V29.0668H24.9737C25.2745 29.5832 25.8267 29.9337 26.4674 29.9337C27.4242 29.9337 28.2005 29.1583 28.2005 28.2C28.2005 27.2432 27.4242 26.4663 26.4674 26.4663Z" fill="#1F40E5"/>
<path d="M28.201 19.533C27.5604 19.533 27.0074 19.8842 26.7073 20.3998H23V22.1335H26.7073C27.0074 22.6491 27.5604 22.9995 28.201 22.9995C29.1573 22.9995 29.9334 22.225 29.9334 21.2666C29.9334 20.3101 29.1573 19.533 28.201 19.533Z" fill="#1F40E5"/>
<path d="M24.7333 15.1995C24.7333 14.2419 23.9572 13.4663 22.9996 13.4663H14.3325C13.3757 13.4663 12.5996 14.2424 12.5996 15.1995V30.8C12.5996 31.7583 13.3757 32.5337 14.3325 32.5337H22.9996C23.9572 32.5337 24.7333 31.7583 24.7333 30.8H14.3325V15.1995H24.7333Z" fill="#1F40E5"/>
</svg>
