<svg width="46" height="46" viewBox="0 0 46 46" fill="none" xmlns="http://www.w3.org/2000/svg">
<circle r="22.5" transform="matrix(-1 0 0 1 23 23)" fill="white" stroke="#BDE3FE"/>
<path d="M33.3996 23.8669V22.1335H23.8662V19.5335H29.933C30.4093 19.5335 30.7996 19.1425 30.7996 18.6669V13.4669C30.7996 12.9896 30.4093 12.6001 29.933 12.6001H16.0662C15.5899 12.6001 15.1996 12.9896 15.1996 13.4667V18.6667C15.1996 19.1422 15.5899 19.5333 16.0662 19.5333H22.133V22.1333H12.5996V23.8667H22.133V26.4667H16.0662C15.5899 26.4667 15.1996 26.8559 15.1996 27.3333V32.5333C15.1996 33.0091 15.5899 33.4001 16.0662 33.4001H29.933C30.4093 33.4001 30.7996 33.0091 30.7996 32.5335V27.3335C30.7996 26.8562 30.4093 26.4669 29.933 26.4669H23.8662V23.8669H33.3996ZM29.0662 28.2001V31.6667H16.933V28.2001H29.0662ZM16.933 17.8001V14.3335H29.0662V17.8001H16.933Z" fill="#1F40E5"/>
</svg>
