<svg width="46" height="46" viewBox="0 0 46 46" fill="none" xmlns="http://www.w3.org/2000/svg">
<circle r="22.5" transform="matrix(-1 0 0 1 23 23)" fill="white" stroke="#BDE3FE"/>
<path d="M23.866 12.6001H22.1328V14.3335H23.866V12.6001Z" fill="#1F40E5"/>
<path d="M23.866 31.6665H22.1328V33.3999H23.866V31.6665Z" fill="#1F40E5"/>
<path d="M32.1923 15.0337L30.9668 13.8079L28.5154 16.2586L29.7409 17.4844L32.1923 15.0337Z" fill="#1F40E5"/>
<path d="M17.4851 29.7407L16.2598 28.5154L13.8087 30.9664L15.0341 32.1917L17.4851 29.7407Z" fill="#1F40E5"/>
<path d="M15.035 13.8076L13.8086 15.033L16.2584 17.4849L17.4848 16.2595L15.035 13.8076Z" fill="#1F40E5"/>
<path d="M29.741 28.5159L28.5156 29.7412L30.9667 32.1922L32.192 30.9669L29.741 28.5159Z" fill="#1F40E5"/>
<path d="M14.333 22.1331H12.5996V23.8667H14.333V22.1331Z" fill="#1F40E5"/>
<path d="M33.3994 22.1331H31.666V23.8667H33.3994V22.1331Z" fill="#1F40E5"/>
<path d="M22.9998 16.0667C19.1708 16.0667 16.0664 19.1716 16.0664 23.0001C16.0664 26.8296 19.1708 29.9335 22.9998 29.9335C26.8294 29.9335 29.9333 26.8296 29.9333 23.0001C29.9333 19.1716 26.8294 16.0667 22.9998 16.0667ZM23.8664 28.1221V26.4667L25.8539 24.4792C26.1908 24.1425 26.4664 23.4764 26.4664 23.0001V22.1332H24.9498V19.5332H23.6498V22.1332H22.3498V19.5332H21.0498V22.1332H19.5332V23.0001C19.5332 23.4764 19.8091 24.1428 20.1458 24.4792L22.1332 26.4667V28.1221C19.6755 27.7092 17.7998 25.5764 17.7998 23.0001C17.7998 20.1284 20.1281 17.8001 22.9998 17.8001C25.8723 17.8001 28.1998 20.1284 28.1998 23.0001C28.1998 25.5764 26.3252 27.7092 23.8664 28.1221Z" fill="#1F40E5"/>
</svg>
