<svg width="46" height="46" viewBox="0 0 46 46" fill="none" xmlns="http://www.w3.org/2000/svg">
<rect width="46" height="46" fill="white"/>
<circle r="22.5" transform="matrix(-1 0 0 1 23 23)" fill="white" stroke="#BDE3FE"/>
<path fill-rule="evenodd" clip-rule="evenodd" d="M22.917 28.334C22.3647 28.334 21.917 28.7817 21.917 29.334V32.6673H19.167C18.8908 32.6673 18.667 32.8912 18.667 33.1673V33.2507C18.667 33.5268 18.8909 33.7507 19.167 33.7507H22.917H23.0837H26.8337C27.1098 33.7507 27.3337 33.5268 27.3337 33.2507V33.1673C27.3337 32.8912 27.1098 32.6673 26.8337 32.6673H24.0837V29.334C24.0837 28.7817 23.6359 28.334 23.0837 28.334H22.917Z" fill="#1F40E5"/>
<path d="M13.167 16.416H32.8337V14.416H13.167V16.416ZM32.8337 16.416V27.416H34.8337V16.416H32.8337ZM32.8337 27.416H13.167V29.416H32.8337V27.416ZM13.167 27.416V16.416H11.167V27.416H13.167ZM13.167 27.416H13.167H11.167C11.167 28.5206 12.0624 29.416 13.167 29.416V27.416ZM32.8337 27.416V29.416C33.9382 29.416 34.8337 28.5206 34.8337 27.416H32.8337ZM32.8337 16.416H32.8337H34.8337C34.8337 15.3114 33.9382 14.416 32.8337 14.416V16.416ZM13.167 14.416C12.0624 14.416 11.167 15.3114 11.167 16.416H13.167V16.416V14.416Z" fill="#1F40E5"/>
<rect x="14.334" y="18.666" width="10.8333" height="1.08333" rx="0.541667" fill="#1F40E5"/>
<rect x="14.334" y="20.834" width="4.33333" height="1.08333" rx="0.541667" fill="#1F40E5"/>
</svg>
