<svg width="46" height="46" viewBox="0 0 46 46" fill="none" xmlns="http://www.w3.org/2000/svg">
<circle r="22.5" transform="matrix(-1 0 0 1 23 23)" fill="white" stroke="#BDE3FE"/>
<path d="M32.533 13.5996H25.5996C25.123 13.5996 24.733 13.9899 24.733 14.4662V19.6662C24.733 20.1428 25.123 20.533 25.5996 20.533H28.1996V26.5996H21.2662V24.8662C21.2662 24.3899 20.8762 23.9996 20.3996 23.9996H17.7996V20.533H20.3996C20.8762 20.533 21.2662 20.1428 21.2662 19.6662V14.4662C21.2662 13.9899 20.8762 13.5996 20.3996 13.5996H13.4662C12.9899 13.5996 12.5996 13.9899 12.5996 14.4662V19.6662C12.5996 20.1428 12.9899 20.533 13.4662 20.533H16.0662V23.9996H13.4662C12.9899 23.9996 12.5996 24.3899 12.5996 24.8662V30.0662C12.5996 30.5428 12.9899 30.933 13.4662 30.933H20.3996C20.8762 30.933 21.2662 30.5428 21.2662 30.0662V28.333H28.1996V34.3996H29.933V20.533H32.533C33.0093 20.533 33.3996 20.1428 33.3996 19.6662V14.4662C33.3996 13.9899 33.0093 13.5996 32.533 13.5996ZM14.333 18.7996V15.333H19.533V18.7996H14.333ZM19.533 29.1996H14.333V25.733H19.533V29.1996ZM31.6662 18.7996H26.4662V15.333H31.6662V18.7996Z" fill="#1F40E5"/>
</svg>
