<svg width="53" height="44" viewBox="0 0 53 44" fill="none" xmlns="http://www.w3.org/2000/svg">
<g clip-path="url(#clip0)">
<path d="M8.11608 10.0912C8.80277 9.15099 9.55189 8.21082 10.3634 7.33333C11.1125 6.64387 11.7368 5.95441 12.5484 5.45299C13.2975 5.95441 14.109 6.33048 14.7957 6.76923C13.9217 7.83475 13.0478 8.96296 12.3611 10.1538C12.5484 10.2165 12.9229 10.2165 13.1726 10.1538C13.8593 9.08832 14.6084 8.08547 15.5448 7.1453C16.7309 7.58404 17.917 8.08547 19.1656 8.39886L19.2904 8.52421L18.6037 10.1538C18.9158 10.2165 19.1031 10.1538 19.4153 10.1538C19.665 9.65242 19.8522 9.15099 20.1644 8.64957C21.7875 9.02564 23.473 9.21367 25.2209 9.27635C25.4706 9.46438 25.2833 9.90313 25.3458 10.1538H26.0949C26.1573 9.90313 26.0949 9.58974 26.1573 9.33903C27.7804 9.27635 29.4659 9.08832 31.0266 8.71225H31.1514L31.9005 10.1538C32.1502 10.1538 32.4624 10.2165 32.7121 10.0912L32.0254 8.46154L32.0878 8.39886C33.3988 8.08547 34.5849 7.58404 35.8334 7.01994C36.7074 7.96011 37.5189 9.02564 38.268 10.0912C38.5802 10.0912 38.8923 10.0912 39.0796 10.0285C38.7674 9.40171 38.3305 8.77493 37.8935 8.2735C37.5189 7.7094 37.1444 7.27065 36.6449 6.76923V6.64387L38.5802 5.51567L38.8299 5.39031C40.5154 6.70655 42.076 8.33618 43.2621 10.0912C43.5743 10.0912 43.8864 10.2165 44.1361 10.0912C40.3905 4.38746 34.2103 0.689455 27.5307 0.125353V0.188031L27.4683 0.125353C26.7191 0.0626748 25.7827 -3.21493e-06 24.9712 0.125353C24.6591 0.125353 24.2845 0.125353 23.91 0.125353C17.2303 0.626777 11.0501 4.13675 7.17969 10.0912C7.49182 10.0912 7.80395 10.2165 8.11608 10.0912ZM19.7274 7.58404H19.6025C18.4789 7.27065 17.3552 6.89458 16.2939 6.45584L16.3564 6.2678C17.917 4.76353 19.5401 3.57265 21.288 2.5698C21.725 2.75783 22.0996 2.88319 22.5366 3.07122L22.4742 3.38461C21.4129 4.70085 20.5389 6.20513 19.7274 7.58404ZM25.2833 8.39886C24.4718 8.52421 23.7851 8.39886 23.036 8.33618C22.2869 8.21082 21.3505 8.14815 20.6014 7.89743C21.4129 6.33048 22.3493 4.88889 23.5354 3.50997L25.3458 3.76068C25.3458 5.1396 25.2833 6.83191 25.2833 8.39886ZM26.1573 8.39886C26.0949 6.89458 26.1573 5.26495 26.1573 3.698C26.7191 3.63532 27.3434 3.50997 27.9052 3.44729C28.9665 4.82621 30.0902 6.2678 30.7769 7.83475C29.2786 8.21082 27.718 8.39886 26.1573 8.39886ZM35.0843 6.45584C34.023 6.95726 32.8994 7.39601 31.6508 7.64672C30.7769 6.14245 29.8405 4.63817 28.7792 3.25926C29.1538 3.00854 29.6532 2.88319 30.0902 2.63248C31.9005 3.57265 33.6485 4.88889 35.1467 6.39316L35.0843 6.45584ZM31.526 1.62963C33.8982 2.25641 36.0831 3.32193 38.0807 4.76353L38.0183 4.88889L36.0831 5.95441H35.9582C34.46 4.45014 32.7121 3.1339 30.9641 2.06837C31.0266 1.88034 31.3387 1.75498 31.526 1.62963ZM30.4023 1.31624C27.9677 3.19658 24.0348 3.32193 21.4753 1.6923C21.3505 1.56695 21.0383 1.50427 21.0383 1.31624C23.9724 0.626777 27.4683 0.564099 30.4023 1.31624ZM13.2975 4.82621C15.0454 3.50997 17.0431 2.50712 19.1031 1.81766C19.1656 1.75498 19.228 1.62963 19.3528 1.62963V1.6923C19.6025 1.75498 19.7274 1.50427 19.9147 1.6923C20.1019 1.81766 20.2892 1.94302 20.4141 2.06837C18.6661 3.1339 16.9806 4.45014 15.42 6.01709C14.6709 5.76638 13.9842 5.39031 13.2975 4.82621Z" fill="#A0ACE3"/>
<path d="M52.1874 17.3619C51.688 15.9829 50.6268 14.792 49.3783 13.9146C45.7575 11.5328 40.2016 11.4074 36.456 13.5385C34.3959 14.604 33.085 16.7351 32.648 18.8661C31.8989 22.4388 32.0861 26.7009 34.7705 29.3334C37.8918 32.1539 42.4489 32.7807 46.5066 31.5898C46.6939 31.5271 47.3182 31.4017 47.7552 31.151L47.88 31.0883C49.1285 30.5242 50.3147 29.7094 51.251 28.5185C53.3111 25.4473 53.436 20.8091 52.1874 17.3619ZM45.5702 25.322C45.4454 26.0114 45.0084 26.7009 44.2593 26.9516C43.1356 27.453 41.6374 27.3277 40.5761 26.7009C39.7022 26.0741 39.5773 25.0713 39.5149 24.0684C39.4525 22.1254 39.2652 20.057 39.827 18.302C40.264 17.2365 41.3877 16.9231 42.4489 16.8604C43.5102 16.8604 44.6339 17.0485 45.2581 17.926C45.6951 18.5527 45.6327 19.4302 45.7575 20.1824C45.6951 21.812 45.82 23.6923 45.5702 25.322Z" fill="#A0ACE3"/>
<path d="M25.3456 27.3276C22.7237 28.0797 19.8521 27.5156 17.9793 25.4473C17.7296 25.1966 17.6047 24.8205 17.4175 24.5698H13.6094C13.547 26.8262 13.547 29.4587 13.6094 31.7151H17.792L17.8544 30.3362C18.3538 30.5869 18.7908 30.8376 19.2902 31.0883C22.2243 32.3419 25.9699 32.5926 28.8415 31.0883C30.964 29.8974 32.0877 27.641 31.7755 25.1966C31.4634 22.8148 29.216 20.6211 26.9687 20.057L20.1642 18.0513L19.6648 17.8005C19.4151 17.6125 19.2902 17.3618 19.3527 17.0484C19.9145 16.1082 21.1006 16.4216 22.037 16.4216C23.9722 16.6723 26.0323 17.3618 27.156 19.1795C28.4045 19.1795 29.8403 19.1795 31.1513 19.1795C31.2137 16.8604 31.1513 14.8547 31.0888 12.5356C29.8403 12.5356 28.2796 12.5356 27.0311 12.5356C26.9687 12.849 27.0935 13.3504 26.9687 13.6638L25.6577 12.9743C22.5988 11.6581 18.2914 11.5327 15.4822 13.5384C13.6719 14.9174 13.11 17.2991 13.6094 19.4302C13.984 21.4359 15.8568 22.9401 17.6672 23.6296C20.1642 24.5071 22.7861 25.1966 25.2832 26.074C25.5329 26.1994 25.845 26.4501 25.845 26.7635C25.7826 27.0769 25.5329 27.2022 25.3456 27.3276Z" fill="#A0ACE3"/>
<path d="M12.3604 27.0769C11.424 27.0143 10.4251 27.0769 9.48875 27.0143V17.1738L9.55118 17.1111H12.2979C12.2979 15.4815 12.3604 13.7892 12.2979 12.3476H1.74788H-5.52125e-05C-5.52125e-05 13.8519 -5.52125e-05 15.6069 -5.52125e-05 17.1111C0.936341 17.1111 1.87274 17.1111 2.74671 17.1738V26.7009V27.0769L-5.52125e-05 27.1396C-0.0624816 28.7066 -0.0624816 30.2108 -5.52125e-05 31.7778H12.3604V27.0769Z" fill="#A0ACE3"/>
<path d="M43.4495 33.8461C42.2634 35.5384 40.7652 37.2307 39.1421 38.4843C39.0796 38.547 38.8924 38.547 38.8924 38.4843C38.2057 38.0456 37.4566 37.6695 36.7699 37.2307C37.6438 36.1652 38.5178 35.037 39.2045 33.8461H38.3305C37.6438 34.9117 36.8947 35.9772 35.9583 36.9174C34.7098 36.4159 33.5861 35.9772 32.3376 35.6011L32.2127 35.4758C32.4 34.9117 32.7746 34.4102 32.8994 33.8461H32.1503L31.4012 35.3504C29.7781 34.9743 27.9053 34.7863 26.2198 34.6609C26.1574 34.4102 26.2198 34.0342 26.1574 33.8461H25.4083C25.3458 34.1595 25.4707 34.4102 25.3458 34.7236C23.5979 34.7863 21.9124 34.9743 20.2893 35.3504L19.5402 33.8461C19.2905 33.8461 18.9783 33.7834 18.7286 33.8461L19.4153 35.4758L19.3529 35.5384C18.1044 35.9145 16.8558 36.3532 15.6697 36.8547H15.6073C14.7958 35.9772 14.0467 35.037 13.4224 34.0968C13.2975 33.5954 12.7357 33.9088 12.4236 33.8461C13.1103 35.0997 13.9842 36.1652 14.8582 37.2934C14.1091 37.7322 13.36 38.2336 12.5484 38.6097C10.8629 37.2934 9.30226 35.6011 8.11616 33.8461C7.80402 33.7834 7.55432 33.8461 7.24219 33.8461C9.23983 37.0427 12.4236 39.8632 15.6697 41.4928C15.6697 41.4928 15.7322 41.5555 15.6697 41.5555C17.8547 42.6211 20.2269 43.4359 22.7239 43.7493C31.3388 44.8775 39.5166 41.1795 44.261 33.7834C44.1362 33.7834 43.7616 33.7834 43.4495 33.8461ZM31.7758 36.3532L31.8382 36.2906C33.0243 36.5413 34.2104 36.98 35.2716 37.4815C34.3977 38.547 33.2116 39.4245 32.1503 40.1766C31.526 40.5527 30.8394 40.9914 30.2151 41.3048L29.029 40.7407L29.0914 40.5527C30.0902 39.2364 31.0266 37.8575 31.7758 36.3532ZM26.2822 35.5384C27.9053 35.5384 29.466 35.7265 30.9642 36.1025V36.1652C30.1527 37.6695 29.2163 39.1738 28.155 40.5527C27.6556 40.6154 27.2186 40.4273 26.7816 40.3646L26.2822 40.302C26.2198 38.6723 26.2198 37.1681 26.2822 35.5384ZM20.8511 36.0399C22.2869 35.7891 23.8476 35.5384 25.4083 35.5384V40.302C24.8464 40.4273 24.1597 40.4273 23.5979 40.5527C22.4742 39.1738 21.4754 37.6695 20.6639 36.1652L20.8511 36.0399ZM16.3564 37.5441C17.4177 36.98 18.6038 36.604 19.7899 36.2906H19.9147C20.7263 37.8575 21.7251 39.2991 22.7239 40.7407C22.3494 40.9914 21.85 41.1168 21.4754 41.3048C19.6026 40.3646 17.8547 39.1111 16.3564 37.5441ZM19.9772 42.3703C17.605 41.7436 15.42 40.678 13.4224 39.2364V39.1738C14.1091 38.735 14.7958 38.2963 15.4825 37.9829C17.1056 39.6125 18.7286 40.8034 20.539 41.9316C20.4142 42.057 20.1644 42.245 19.9772 42.3703ZM30.3399 42.7464C27.3435 43.3732 24.0973 43.4359 21.1008 42.6837C21.0384 42.5584 21.2257 42.4957 21.3505 42.433C23.9725 40.7407 28.0302 40.7407 30.5897 42.5584C30.6521 42.7464 30.4024 42.6837 30.3399 42.7464ZM33.0243 41.9316L31.7133 42.3703C31.4636 42.245 31.2763 42.1196 31.0891 41.9316L31.1515 41.8689C32.9619 40.8034 34.5849 39.4871 36.0832 37.9829C36.8323 38.2963 37.5814 38.735 38.2681 39.1738C36.7074 40.3646 34.8971 41.2421 33.0243 41.9316Z" fill="#A0ACE3"/>
</g>
<defs>
<clipPath id="clip0">
<rect width="53" height="44" fill="white"/>
</clipPath>
</defs>
</svg>
