<svg width="48" height="48" viewBox="0 0 48 48" fill="none" xmlns="http://www.w3.org/2000/svg">
<path opacity="0.3" fill-rule="evenodd" clip-rule="evenodd" d="M8 8L23.6314 5.06911C23.875 5.02343 24.125 5.02343 24.3686 5.06911L40 8V29.9033C40 33.696 38.0462 37.2211 34.83 39.2313L24.53 45.6687C24.2057 45.8714 23.7943 45.8714 23.47 45.6687L13.17 39.2313C9.95382 37.2211 8 33.696 8 29.9033L8 8Z" fill="#1F40E5"/>
<path fill-rule="evenodd" clip-rule="evenodd" d="M24.653 14.8708H19.3332V26.625H17.5589C17.3695 26.625 17.1964 26.732 17.1117 26.9014L16.57 27.9847C16.4038 28.3172 16.6456 28.7083 17.0172 28.7083H19.3332V31.8333H22.1374V28.7083H27.3575C27.5469 28.7083 27.7201 28.6013 27.8048 28.4319L28.3464 27.3486C28.5127 27.0162 28.2709 26.625 27.8992 26.625H22.1374V24.8135H24.4614C25.3558 24.8135 26.2023 24.7257 27.0009 24.55C27.7996 24.3743 28.4983 24.0908 29.0973 23.6995C29.6963 23.3081 30.1714 22.793 30.5228 22.1542C30.8742 21.5153 31.0499 20.7246 31.0499 19.7823C31.0499 18.9038 30.8982 18.1531 30.5947 17.5302C30.2912 16.9073 29.86 16.3962 29.3009 15.9969C28.7419 15.5976 28.0711 15.3101 27.2884 15.1344C26.5058 14.9587 25.6273 14.8708 24.653 14.8708ZM24.2457 22.2739C24.7409 22.2739 25.2121 22.238 25.6593 22.1661C26.1065 22.0943 26.5058 21.9665 26.8572 21.7828C27.2086 21.5991 27.4881 21.3476 27.6957 21.0281C27.9034 20.7087 28.0072 20.2934 28.0072 19.7823C28.0072 19.2871 27.9034 18.8838 27.6957 18.5724C27.4881 18.2609 27.2126 18.0173 26.8692 17.8416C26.5258 17.666 26.1345 17.5502 25.6952 17.4943C25.256 17.4383 24.8048 17.4104 24.3416 17.4104H22.1374V22.2739H24.2457Z" fill="#1F40E5"/>
</svg>
