<svg width="48" height="49" viewBox="0 0 48 49" fill="none" xmlns="http://www.w3.org/2000/svg">
<path opacity="0.3" fill-rule="evenodd" clip-rule="evenodd" d="M23.6219 9C22.2898 3.82432 17.5915 0 12 0C5.37258 0 0 5.37258 0 12C0 15.1438 1.20895 18.0053 3.1873 20.1448C3.79822 22.3673 5.83344 24 8.25 24H12H30.75C33.6495 24 36 21.6495 36 18.75V14.25C36 11.3505 33.6495 9 30.75 9H23.6219Z" fill="#1F40E5"/>
<path d="M31.8217 36.8452C31.1708 36.1943 31.1708 35.139 31.8217 34.4882C32.4725 33.8373 33.5278 33.8373 34.1787 34.4882L40.8453 41.1548C41.4962 41.8057 41.4962 42.861 40.8453 43.5118C40.1945 44.1627 39.1392 44.1627 38.4883 43.5118L31.8217 36.8452Z" fill="#1F40E5"/>
<path fill-rule="evenodd" clip-rule="evenodd" d="M14.6665 27.3334C14.6665 33.7767 19.8898 39 26.3332 39C32.7765 39 37.9998 33.7767 37.9998 27.3334C37.9998 20.89 32.7765 15.6667 26.3332 15.6667C19.8898 15.6667 14.6665 20.89 14.6665 27.3334ZM34.6665 27.3334C34.6665 31.9357 30.9355 35.6667 26.3332 35.6667C21.7308 35.6667 17.9998 31.9357 17.9998 27.3334C17.9998 22.731 21.7308 19 26.3332 19C30.9355 19 34.6665 22.731 34.6665 27.3334Z" fill="#1F40E5"/>
</svg>
