<svg width="48" height="48" viewBox="0 0 48 48" fill="none" xmlns="http://www.w3.org/2000/svg">
<path fill-rule="evenodd" clip-rule="evenodd" d="M45.1921 37.1421C45.5077 37.4577 46.0472 37.2331 46.0456 36.7868L46.0079 26.2105V11.0526C46.0079 8.26214 43.7458 6 40.9553 6H17.3764C14.5859 6 12.3237 8.26214 12.3237 11.0526V18H29C30.6569 18 32 19.3431 32 21V31.2632H39.3131L45.1921 37.1421Z" fill="#1F40E5"/>
<path opacity="0.3" fill-rule="evenodd" clip-rule="evenodd" d="M3.97021 36V26C3.97021 23.7909 5.76108 22 7.97021 22H23.9702C26.1794 22 27.9702 23.7909 27.9702 26V36C27.9702 38.2091 26.1794 40 23.9702 40H8.20168L4.86824 43.1905C4.55024 43.4949 4.02252 43.2695 4.02252 42.8293V36.6485C3.98811 36.4374 3.97021 36.2208 3.97021 36ZM12.0001 28.5C12.0001 28.2239 12.2239 28 12.5001 28H23.5001C23.7762 28 24.0001 28.2239 24.0001 28.5V29.5C24.0001 29.7761 23.7762 30 23.5001 30H12.5001C12.2239 30 12.0001 29.7761 12.0001 29.5V28.5ZM18.5001 32C18.2239 32 18.0001 32.2239 18.0001 32.5V33.5C18.0001 33.7761 18.2239 34 18.5001 34H23.5001C23.7762 34 24.0001 33.7761 24.0001 33.5V32.5C24.0001 32.2239 23.7762 32 23.5001 32H18.5001Z" fill="#1F40E5"/>
</svg>
