<svg width="46" height="46" viewBox="0 0 46 46" fill="none" xmlns="http://www.w3.org/2000/svg">
<circle r="22.5" transform="matrix(-1 0 0 1 23 23)" fill="white" stroke="#BDE3FE"/>
<path d="M23.0001 12.5996C17.2559 12.5996 12.6001 17.2554 12.6001 22.9996C12.6001 28.744 17.2559 33.3996 23.0001 33.3996H23.8667V27.2459C25.8445 26.8437 27.3335 25.096 27.3335 22.9996V20.3996H25.6001V17.7996C25.6001 17.3207 25.2124 16.933 24.7335 16.933C24.2543 16.933 23.8667 17.3207 23.8667 17.7996V20.3996H22.1335V17.7996C22.1335 17.3207 21.7459 16.933 21.2667 16.933C20.7878 16.933 20.4001 17.3207 20.4001 17.7996V20.3996H18.6667V22.9996C18.6667 25.096 20.1557 26.8437 22.1335 27.2459V31.6222C17.7543 31.187 14.3335 27.4937 14.3335 22.9996C14.3335 18.2125 18.2132 14.333 23.0001 14.333C27.7844 14.333 31.6667 18.2127 31.6667 22.9996C31.6667 26.6113 29.4551 29.7027 26.3154 31.0053L26.9729 32.5923C30.7416 31.0318 33.4001 27.3338 33.4001 22.9996C33.4001 17.2554 28.7417 12.5996 23.0001 12.5996ZM20.4001 22.9996V22.133H25.6001V22.9996C25.6001 24.4332 24.434 25.5996 23.0001 25.5996C21.5662 25.5996 20.4001 24.4332 20.4001 22.9996Z" fill="#1F40E5"/>
</svg>
