<svg width="55" height="55" viewBox="0 0 55 55" fill="none" xmlns="http://www.w3.org/2000/svg">
<g clip-path="url(#clip0)">
<path d="M1.10001 33.33L3.85001 32.56L4.07001 33.44C4.12501 33.66 4.18001 33.88 4.18001 34.1C4.18001 34.265 4.12501 34.43 4.01501 34.595C3.90501 34.76 3.74001 34.87 3.52001 34.925C3.35501 34.98 3.24501 34.98 3.08001 34.925C2.97001 34.925 2.86001 34.87 2.75001 34.76C2.64001 34.705 2.58501 34.595 2.53001 34.485C2.47501 34.32 2.36501 34.1 2.36501 33.935L2.25501 33.55L1.21001 33.825L1.10001 33.33ZM3.52001 33.275L2.75001 33.495L2.86001 33.77C2.91501 33.935 2.91501 34.045 3.02501 34.21C3.08001 34.265 3.13501 34.32 3.19001 34.32C3.24501 34.32 3.35501 34.32 3.41001 34.32C3.52001 34.32 3.57501 34.265 3.63001 34.155C3.68501 34.1 3.68501 33.99 3.68501 33.88C3.68501 33.715 3.63001 33.605 3.57501 33.44L3.52001 33.275Z" fill="#626262"/>
<path d="M2.86 36.905L2.97 37.455C2.75 37.455 2.585 37.4 2.42 37.29C2.255 37.18 2.145 37.015 2.09 36.795C1.98 36.52 1.98 36.19 2.145 35.915C2.31 35.695 2.53 35.53 2.75 35.475C3.025 35.365 3.3 35.365 3.575 35.42C3.795 35.53 4.015 35.695 4.07 35.97C4.18 36.245 4.18 36.52 4.015 36.74C3.85 37.015 3.575 37.235 3.245 37.29L2.75 35.97C2.64 36.025 2.53 36.08 2.42 36.245C2.365 36.355 2.365 36.465 2.42 36.575C2.42 36.63 2.475 36.74 2.585 36.74C2.695 36.85 2.805 36.905 2.86 36.905ZM3.41 36.74C3.52 36.685 3.63 36.63 3.685 36.52C3.795 36.3 3.685 36.08 3.52 35.97C3.52 35.97 3.52 35.97 3.465 35.97C3.355 35.915 3.19 35.915 3.08 35.97L3.41 36.74Z" fill="#626262"/>
<path d="M4.51001 37.29L5.06001 38.555L4.67501 38.72L4.34501 37.95L2.91501 38.61L2.69501 38.115L4.51001 37.29Z" fill="#626262"/>
<path d="M5.225 38.83L5.5 39.27L4.4 39.93L5.94 40.04L6.215 40.535L4.4 41.525L4.125 41.085L5.28 40.425L3.74 40.315L3.465 39.875L5.225 38.83Z" fill="#626262"/>
<path d="M6.93001 42.79L6.54501 42.405C6.60001 42.35 6.65501 42.24 6.65501 42.185C6.65501 42.075 6.65501 42.02 6.60001 41.91C6.54501 41.8 6.43501 41.745 6.32501 41.745C6.16001 41.745 5.99501 41.8 5.88501 41.91C5.72001 42.02 5.61001 42.13 5.55501 42.295C5.50001 42.405 5.55501 42.57 5.61001 42.68C5.66501 42.735 5.72001 42.79 5.83001 42.845C5.94001 42.845 6.05001 42.845 6.16001 42.79L6.38001 43.285C6.16001 43.395 5.94001 43.395 5.72001 43.34C5.50001 43.285 5.33501 43.12 5.22501 42.9C5.00501 42.625 4.95001 42.35 5.00501 42.13C5.06001 41.855 5.22501 41.58 5.50001 41.47C5.72001 41.305 5.99501 41.195 6.32501 41.25C6.60001 41.305 6.82001 41.47 6.98501 41.69C7.09501 41.855 7.20501 42.075 7.20501 42.295C7.15001 42.46 7.04001 42.625 6.93001 42.79Z" fill="#626262"/>
<path d="M7.47999 42.57L8.63499 44L8.30499 44.275L7.86499 43.78L6.59999 44.825L6.26999 44.385L7.53499 43.34L7.14999 42.845L7.47999 42.57Z" fill="#626262"/>
<path d="M8.85501 44.22L9.18501 44.605L8.96501 44.825C9.07501 44.77 9.18501 44.77 9.35001 44.825C9.46001 44.88 9.57001 44.935 9.68001 45.045C9.84501 45.21 9.95501 45.485 9.90001 45.705C9.84501 45.98 9.73501 46.255 9.51501 46.42C9.35001 46.64 9.07501 46.75 8.74501 46.805C8.52501 46.805 8.30501 46.75 8.14001 46.585C8.08501 46.53 8.03001 46.42 7.97501 46.31C7.92001 46.2 7.92001 46.035 7.92001 45.925L7.15001 46.64L6.76501 46.255L8.85501 44.22ZM8.52501 45.32C8.36001 45.43 8.30501 45.595 8.25001 45.76C8.25001 45.87 8.25001 46.035 8.36001 46.145C8.47001 46.255 8.58001 46.31 8.69001 46.255C8.85501 46.2 9.02001 46.145 9.13001 45.98C9.24001 45.87 9.35001 45.705 9.40501 45.54C9.40501 45.43 9.40501 45.265 9.29501 45.21C9.18501 45.1 9.07501 45.045 8.96501 45.1C8.74501 45.1 8.63501 45.21 8.52501 45.32Z" fill="#626262"/>
<path d="M11.33 46.695L12.76 47.85L11.495 49.5L11.055 49.17L12.045 47.85L11.495 47.41L10.505 48.675L10.065 48.345L11.33 46.695Z" fill="#626262"/>
<path d="M13.2 48.18L13.64 48.455L13.475 48.73C13.585 48.675 13.695 48.675 13.805 48.675C13.915 48.675 14.08 48.73 14.19 48.785C14.355 48.895 14.52 49.115 14.52 49.335C14.575 49.61 14.465 49.94 14.3 50.16C14.135 50.435 13.915 50.6 13.64 50.71C13.42 50.765 13.2 50.765 12.98 50.6C12.87 50.545 12.815 50.435 12.76 50.38C12.705 50.27 12.65 50.16 12.65 49.995L12.1 50.875L11.66 50.6L13.2 48.18ZM13.09 49.335C12.98 49.5 12.925 49.665 12.925 49.83C12.925 49.94 12.98 50.105 13.09 50.16C13.2 50.215 13.31 50.27 13.42 50.215C13.585 50.16 13.695 49.995 13.805 49.83C13.915 49.72 13.97 49.5 13.97 49.335C13.97 49.115 13.75 48.95 13.53 48.95C13.475 48.95 13.475 48.95 13.42 48.95C13.31 49.06 13.2 49.17 13.09 49.335Z" fill="#626262"/>
<path d="M14.63 50.325C14.74 50.16 14.85 49.995 14.96 49.885C15.125 49.775 15.29 49.72 15.455 49.72C15.62 49.72 15.84 49.775 16.005 49.83C16.28 49.94 16.445 50.16 16.555 50.49C16.61 50.765 16.61 51.04 16.445 51.315C16.335 51.59 16.115 51.755 15.84 51.865C15.565 51.975 15.29 51.92 15.015 51.81C14.85 51.7 14.685 51.59 14.575 51.425C14.465 51.26 14.41 51.095 14.41 50.875C14.52 50.71 14.575 50.49 14.63 50.325ZM15.125 50.6C15.015 50.765 15.015 50.93 15.015 51.095C15.07 51.205 15.125 51.37 15.235 51.425C15.345 51.48 15.51 51.48 15.62 51.425C15.785 51.37 15.895 51.205 15.95 51.04C16.06 50.875 16.06 50.71 16.005 50.545C15.95 50.435 15.895 50.27 15.785 50.215C15.675 50.16 15.51 50.16 15.4 50.215C15.29 50.325 15.18 50.435 15.125 50.6Z" fill="#626262"/>
<path d="M17.325 50.6L18.425 51.04C18.59 51.095 18.755 51.205 18.865 51.37C18.975 51.59 18.865 51.865 18.645 52.03C18.535 52.085 18.425 52.085 18.37 52.085C18.59 52.25 18.645 52.47 18.59 52.745C18.535 52.91 18.425 53.02 18.26 53.02C18.095 53.075 17.875 53.075 17.71 52.965L16.5 52.47L17.325 50.6ZM17.215 52.415L17.6 52.58C17.71 52.635 17.82 52.635 17.93 52.635C17.985 52.635 18.095 52.58 18.095 52.47C18.15 52.415 18.095 52.305 18.04 52.25C17.93 52.14 17.765 52.085 17.6 52.03L17.325 51.92L17.215 52.415ZM17.545 51.59L17.875 51.7C17.985 51.755 18.095 51.755 18.26 51.755C18.315 51.755 18.425 51.7 18.425 51.59C18.48 51.535 18.48 51.425 18.425 51.37C18.315 51.26 18.205 51.205 18.095 51.15H17.765L17.545 51.59Z" fill="#626262"/>
<path d="M20.24 53.185L20.735 53.46C20.625 53.625 20.46 53.735 20.295 53.79C20.13 53.845 19.91 53.845 19.69 53.79C19.415 53.735 19.14 53.515 19.03 53.24C18.975 53.02 18.975 52.745 19.03 52.47C19.085 52.14 19.25 51.865 19.525 51.7C19.745 51.59 20.02 51.535 20.24 51.645C20.515 51.7 20.735 51.92 20.845 52.14C20.955 52.47 20.955 52.8 20.845 53.13L19.525 52.745C19.47 52.855 19.47 53.02 19.525 53.13C19.58 53.24 19.635 53.295 19.745 53.35C19.8 53.35 19.91 53.35 19.965 53.35C20.13 53.295 20.185 53.24 20.24 53.185ZM20.405 52.635C20.46 52.525 20.46 52.36 20.405 52.25C20.35 52.14 20.295 52.085 20.185 52.03C20.075 51.975 19.965 52.03 19.855 52.085C19.745 52.14 19.69 52.25 19.635 52.415L20.405 52.635Z" fill="#626262"/>
<path d="M21.56 52.085L22.055 52.195L22 52.47C22.11 52.36 22.22 52.305 22.33 52.25C22.44 52.195 22.605 52.195 22.715 52.25C22.935 52.305 23.155 52.415 23.265 52.635C23.485 53.185 23.375 53.79 22.935 54.23C22.77 54.395 22.495 54.45 22.275 54.395C22.165 54.395 22.055 54.34 22 54.285C21.89 54.175 21.835 54.12 21.78 54.01L21.56 55L21.01 54.89L21.56 52.085ZM21.89 53.185C21.835 53.35 21.835 53.57 21.89 53.735C21.945 53.845 22.055 53.955 22.165 53.955C22.275 53.955 22.385 53.955 22.495 53.845C22.715 53.57 22.825 53.185 22.715 52.855C22.66 52.745 22.55 52.635 22.44 52.635C22.33 52.58 22.165 52.635 22.055 52.745C22 52.855 21.89 53.02 21.89 53.185Z" fill="#626262"/>
<path d="M24.915 54.065L25.465 54.23C25.41 54.395 25.245 54.56 25.08 54.67C24.915 54.78 24.695 54.78 24.53 54.78C24.2 54.78 23.925 54.615 23.76 54.34C23.65 54.12 23.595 53.845 23.595 53.625C23.595 53.35 23.76 53.075 23.925 52.855C24.145 52.69 24.365 52.635 24.64 52.635C24.915 52.635 25.135 52.8 25.3 53.02C25.465 53.295 25.52 53.68 25.465 54.01L24.2 53.79C24.2 53.955 24.2 54.065 24.31 54.175C24.365 54.285 24.475 54.34 24.585 54.34C24.64 54.34 24.75 54.34 24.805 54.285C24.86 54.23 24.915 54.175 24.915 54.065ZM25.025 53.515C25.025 53.405 25.025 53.24 24.915 53.13C24.86 53.02 24.75 52.965 24.64 52.965C24.53 52.965 24.42 52.965 24.31 53.075C24.2 53.185 24.145 53.295 24.145 53.405L25.025 53.515Z" fill="#626262"/>
<path d="M26.07 52.8H26.62V53.57H27.39V52.8H27.94L27.885 54.89H27.335V54.01H26.565V54.89H26.015L26.07 52.8Z" fill="#626262"/>
<path d="M28.435 52.8L28.985 52.745L29.04 53.515L29.81 53.46L29.7 52.745L30.25 52.69L30.36 54.78L29.81 54.835L29.755 53.955L28.985 54.01L29.04 54.89L28.49 54.945L28.435 52.8Z" fill="#626262"/>
<path d="M30.8 52.635L31.35 52.525L31.515 53.405L32.065 53.295C32.23 53.24 32.395 53.24 32.56 53.24C32.67 53.24 32.78 53.295 32.89 53.405C33 53.515 33.055 53.625 33.055 53.735C33.11 53.9 33.055 54.065 32.945 54.23C32.78 54.395 32.56 54.45 32.395 54.505L31.24 54.725L30.8 52.635ZM31.625 54.285L32.12 54.175C32.23 54.175 32.285 54.12 32.395 54.065C32.45 54.01 32.45 53.9 32.45 53.845C32.45 53.735 32.395 53.68 32.285 53.68C32.12 53.625 32.01 53.625 31.845 53.68L31.515 53.735L31.625 54.285ZM33 52.25L33.55 52.14L33.935 54.175L33.385 54.285L33 52.25Z" fill="#626262"/>
<path d="M34.375 54.065L34.815 52.8L33.825 52.03L34.485 51.865L34.98 52.305L35.2 51.645L35.805 51.48L35.42 52.635L36.465 53.46L35.805 53.625L35.2 53.13L34.98 53.9L34.375 54.065Z" fill="#626262"/>
<path d="M37.4 51.92C37.345 51.755 37.29 51.535 37.29 51.37C37.29 51.205 37.345 50.985 37.455 50.875C37.565 50.71 37.73 50.6 37.895 50.545C38.17 50.435 38.445 50.38 38.72 50.49C38.995 50.6 39.215 50.82 39.325 51.095C39.435 51.37 39.49 51.645 39.38 51.92C39.27 52.195 39.105 52.415 38.83 52.525C38.665 52.58 38.445 52.635 38.28 52.635C38.115 52.635 37.895 52.58 37.785 52.47C37.62 52.305 37.51 52.14 37.4 51.92ZM37.95 51.7C38.005 51.865 38.115 51.975 38.28 52.085C38.5 52.195 38.775 52.085 38.885 51.865V51.81C38.94 51.645 38.885 51.48 38.83 51.315C38.775 51.15 38.665 51.04 38.5 50.93C38.39 50.875 38.225 50.875 38.115 50.93C38.005 50.985 37.895 51.095 37.84 51.26C37.84 51.425 37.895 51.59 37.95 51.7Z" fill="#626262"/>
<path d="M39.27 49.94L39.71 49.665L39.875 49.94C39.875 49.83 39.93 49.665 39.985 49.555C40.205 49.225 40.59 49.115 40.92 49.225C41.195 49.335 41.415 49.5 41.525 49.775C41.69 50.05 41.745 50.325 41.69 50.6C41.635 50.82 41.525 51.04 41.305 51.15C41.195 51.205 41.14 51.26 41.03 51.26C40.92 51.26 40.755 51.26 40.645 51.205L41.14 52.14L40.645 52.415L39.27 49.94ZM40.205 50.545C40.26 50.71 40.425 50.82 40.59 50.93C40.7 50.985 40.865 50.985 40.975 50.93C41.085 50.875 41.14 50.765 41.195 50.655C41.195 50.49 41.14 50.325 41.085 50.16C41.03 49.995 40.865 49.885 40.755 49.775C40.645 49.72 40.535 49.72 40.37 49.775C40.26 49.83 40.205 49.94 40.15 50.105C40.095 50.27 40.15 50.435 40.205 50.545Z" fill="#626262"/>
<path d="M41.305 48.73L42.46 47.96L42.68 48.345L41.965 48.84L42.845 50.215L42.405 50.545L41.305 48.73Z" fill="#626262"/>
<path d="M43.395 48.015L42.955 48.235C42.845 48.07 42.845 47.85 42.9 47.685C42.955 47.465 43.12 47.3 43.285 47.19C43.45 47.08 43.56 46.97 43.78 46.915C43.89 46.86 44 46.86 44.11 46.915C44.275 47.025 44.385 47.135 44.495 47.245L44.88 47.74C44.935 47.85 45.045 47.96 45.155 48.07C45.21 48.125 45.32 48.18 45.375 48.235L44.935 48.565L44.825 48.455L44.77 48.4C44.77 48.51 44.715 48.62 44.66 48.73C44.605 48.84 44.55 48.95 44.44 49.005C44.33 49.115 44.11 49.17 43.945 49.17C43.78 49.17 43.615 49.06 43.505 48.95C43.45 48.84 43.395 48.785 43.395 48.675C43.395 48.565 43.395 48.455 43.45 48.345C43.505 48.235 43.615 48.07 43.725 47.96C43.835 47.85 43.945 47.685 44.055 47.52L44 47.465C43.945 47.41 43.89 47.355 43.78 47.355C43.67 47.355 43.56 47.41 43.505 47.465C43.45 47.52 43.395 47.575 43.34 47.63C43.34 47.85 43.34 47.905 43.395 48.015ZM44.22 47.905C44.165 48.015 44.11 48.07 44 48.18C43.945 48.235 43.89 48.345 43.835 48.455C43.78 48.565 43.835 48.73 44 48.785H44.055C44.11 48.785 44.22 48.785 44.275 48.73C44.33 48.675 44.385 48.565 44.44 48.455C44.44 48.4 44.44 48.29 44.44 48.235C44.385 48.18 44.33 48.07 44.275 48.015L44.22 47.905Z" fill="#626262"/>
<path d="M44.33 46.42L44.715 46.035L45.21 46.585L45.76 46.035L45.265 45.485L45.65 45.1L47.08 46.64L46.695 47.025L46.09 46.365L45.54 46.915L46.145 47.575L45.76 47.96L44.33 46.42Z" fill="#626262"/>
<path d="M46.035 44.715L46.365 44.33L47.355 45.21L46.915 43.725L47.245 43.285L48.785 44.66L48.455 45.045L47.465 44.165L47.905 45.705L47.575 46.09L46.035 44.715Z" fill="#626262"/>
<path d="M48.895 43.12L48.62 42.9C48.675 42.845 48.675 42.79 48.73 42.735C48.73 42.68 48.73 42.625 48.73 42.57C48.73 42.515 48.675 42.46 48.62 42.405C48.565 42.35 48.51 42.35 48.455 42.35C48.4 42.35 48.29 42.405 48.29 42.46C48.235 42.515 48.235 42.57 48.235 42.625C48.235 42.735 48.29 42.79 48.345 42.9L48.015 43.23C47.905 43.12 47.85 42.9 47.85 42.735C47.85 42.57 47.96 42.35 48.07 42.24C48.18 42.075 48.345 41.965 48.51 41.855C48.675 41.8 48.84 41.855 48.95 41.965C49.005 42.02 49.06 42.13 49.115 42.185C49.115 42.295 49.115 42.405 49.115 42.515C49.225 42.405 49.335 42.35 49.445 42.35C49.555 42.35 49.665 42.35 49.775 42.46C49.885 42.57 49.995 42.735 49.995 42.9C49.995 43.12 49.885 43.34 49.775 43.56C49.61 43.945 49.17 44.11 48.785 43.945L49.005 43.505C49.17 43.56 49.39 43.505 49.5 43.34C49.555 43.285 49.555 43.175 49.555 43.12C49.555 43.065 49.5 42.955 49.445 42.955C49.39 42.9 49.335 42.9 49.225 42.9C49.115 42.955 49.06 43.01 49.005 43.065L48.895 43.12Z" fill="#626262"/>
<path d="M49.445 41.305L49.115 41.69C49.005 41.58 48.895 41.415 48.895 41.195C48.895 40.975 48.95 40.755 49.06 40.59C49.17 40.425 49.28 40.26 49.445 40.15C49.555 40.095 49.665 40.04 49.775 40.04C49.94 40.095 50.105 40.15 50.215 40.26L50.765 40.59C50.875 40.645 50.985 40.755 51.095 40.755C51.205 40.81 51.26 40.81 51.37 40.81L51.095 41.25H50.93H50.875C50.875 41.36 50.875 41.47 50.875 41.635C50.875 41.745 50.82 41.855 50.765 41.965C50.655 42.13 50.545 42.24 50.38 42.295C50.105 42.35 49.83 42.24 49.72 41.965C49.665 41.855 49.665 41.745 49.665 41.635C49.665 41.47 49.72 41.36 49.775 41.195C49.83 41.03 49.885 40.81 49.94 40.645H49.885C49.83 40.59 49.72 40.59 49.665 40.59C49.555 40.645 49.5 40.7 49.445 40.81C49.39 40.865 49.39 40.975 49.39 41.03C49.335 41.14 49.39 41.25 49.445 41.305ZM50.16 40.865C50.105 40.975 50.105 41.085 50.05 41.195C49.995 41.305 49.995 41.415 49.995 41.525C49.995 41.58 50.05 41.69 50.105 41.69C50.16 41.745 50.27 41.745 50.325 41.745C50.38 41.745 50.49 41.69 50.49 41.58C50.545 41.47 50.545 41.415 50.545 41.305C50.545 41.25 50.49 41.14 50.435 41.085C50.38 41.03 50.325 40.975 50.215 40.92L50.16 40.865Z" fill="#626262"/>
<path d="M49.83 39.435L50.05 38.94L51.48 39.655L51.81 38.94L50.38 38.225L50.6 37.73L52.03 38.445L52.14 38.225L53.02 38.665L52.855 39.05L52.36 38.83L51.645 40.315L49.83 39.435Z" fill="#626262"/>
<path d="M50.82 37.235L50.985 36.74L52.195 37.18L51.315 35.915L51.48 35.42L53.405 36.135L53.24 36.63L52.03 36.135L52.965 37.4L52.745 37.95L50.82 37.235Z" fill="#626262"/>
<path d="M51.205 33.44L51.26 33.165C51.59 33.33 51.755 33.66 51.59 33.99C51.535 34.1 51.48 34.21 51.37 34.265C51.26 34.32 51.095 34.375 50.93 34.32L50.985 34.045C51.04 34.045 51.15 34.045 51.205 33.99C51.26 33.935 51.315 33.88 51.315 33.77C51.37 33.715 51.37 33.605 51.315 33.495C51.37 33.495 51.315 33.44 51.205 33.44ZM51.7 34.925L51.81 34.43L53.02 34.76L51.975 33.605L52.085 33.055L54.065 33.605L54.01 34.1L52.745 33.77L53.79 34.98L53.625 35.475L51.7 34.925Z" fill="#626262"/>
<path d="M0 24.035L0.11 23.43L2.64 23.87L2.86 22.66L0.33 22.22L0.44 21.615L2.915 22L2.97 21.725L4.125 21.945L4.015 22.495L3.355 22.33L2.97 24.53L0 24.035Z" fill="#626262"/>
<path d="M3.3 19.965L3.575 19.415C3.74 19.525 3.905 19.69 3.96 19.91C4.015 20.13 4.015 20.35 3.96 20.57C3.85 20.9 3.63 21.175 3.3 21.285C3.025 21.395 2.75 21.395 2.475 21.285C2.145 21.23 1.87 21.01 1.705 20.735C1.54 20.515 1.54 20.185 1.595 19.965C1.65 19.635 1.87 19.415 2.145 19.25C2.475 19.14 2.86 19.14 3.19 19.25L2.75 20.735C2.86 20.79 3.025 20.79 3.19 20.735C3.3 20.68 3.41 20.57 3.41 20.46C3.465 20.405 3.465 20.295 3.41 20.185C3.465 20.075 3.41 20.02 3.3 19.965ZM2.75 19.745C2.64 19.69 2.475 19.69 2.31 19.745C2.2 19.8 2.145 19.91 2.09 20.02C2.035 20.13 2.09 20.24 2.145 20.35C2.2 20.46 2.365 20.57 2.475 20.57L2.75 19.745Z" fill="#626262"/>
<path d="M2.19998 18.315L2.41998 17.765L3.18998 18.095L3.51998 17.27L2.74998 16.995L2.96998 16.445L5.05998 17.27L4.83998 17.82L3.95998 17.49L3.62998 18.315L4.50998 18.645L4.28998 19.195L2.19998 18.315Z" fill="#626262"/>
<path d="M3.13498 15.95L4.06998 14.135L4.50998 14.355L4.17998 15.015L5.77498 15.84L5.49998 16.39L3.95998 15.565L3.62998 16.225L3.13498 15.95Z" fill="#626262"/>
<path d="M4.29001 13.695L4.56501 13.2L4.84001 13.365C4.78501 13.255 4.73001 13.09 4.78501 12.98C4.78501 12.815 4.84001 12.705 4.89501 12.595C5.00501 12.375 5.28001 12.21 5.50001 12.21C5.83001 12.155 6.10501 12.265 6.38001 12.43C6.65501 12.595 6.87501 12.815 6.98501 13.145C7.04001 13.42 7.04001 13.64 6.87501 13.915C6.82001 14.025 6.71001 14.08 6.65501 14.19C6.54501 14.245 6.38001 14.3 6.27001 14.3L7.20501 14.905L6.87501 15.4L4.29001 13.695ZM5.50001 13.805C5.66501 13.915 5.83001 13.97 6.05001 13.97C6.21501 13.97 6.32501 13.86 6.38001 13.75C6.43501 13.64 6.49001 13.475 6.43501 13.365C6.38001 13.2 6.21501 13.035 6.05001 12.925C5.88501 12.815 5.72001 12.76 5.55501 12.76C5.39001 12.76 5.28001 12.87 5.22501 12.98C5.17001 13.09 5.11501 13.255 5.17001 13.365C5.22501 13.585 5.33501 13.695 5.50001 13.805Z" fill="#626262"/>
<path d="M8.35997 9.24L8.02997 9.79C7.91997 9.735 7.86497 9.68 7.75497 9.735C7.64497 9.735 7.58997 9.79 7.53497 9.9C7.42497 10.01 7.42497 10.12 7.42497 10.285C7.47997 10.45 7.58997 10.615 7.75497 10.725C7.86497 10.89 8.08497 10.945 8.24997 11C8.41497 11 8.52497 10.945 8.63497 10.835C8.68997 10.78 8.74497 10.67 8.74497 10.56C8.74497 10.45 8.68997 10.34 8.57997 10.23L9.01997 9.845C9.18497 10.065 9.23997 10.285 9.23997 10.56C9.23997 10.835 9.12997 11.055 8.96497 11.22C8.79997 11.44 8.52497 11.605 8.19497 11.605C7.86497 11.605 7.58997 11.495 7.36997 11.275C7.09497 11.055 6.92997 10.78 6.92997 10.45C6.87497 10.175 6.98497 9.845 7.20497 9.625C7.36997 9.46 7.53497 9.295 7.75497 9.24C7.91997 9.13 8.19497 9.13 8.35997 9.24Z" fill="#626262"/>
<path d="M10.285 8.58L10.78 8.25C10.89 8.41499 10.89 8.63499 10.835 8.85499C10.78 9.07499 10.67 9.23999 10.505 9.40499C10.285 9.67999 9.95499 9.78999 9.62499 9.73499C9.34999 9.67999 9.12999 9.56999 8.90999 9.34999C8.68999 9.12999 8.52499 8.79999 8.52499 8.52499C8.52499 7.92 9.01999 7.48 9.62499 7.48C10.01 7.535 10.285 7.755 10.505 8.03L9.45999 9.07499C9.56999 9.18499 9.67999 9.23999 9.84499 9.29499C9.95499 9.29499 10.12 9.23999 10.175 9.18499C10.23 9.12999 10.285 9.07499 10.285 8.96499C10.34 8.79999 10.34 8.68999 10.285 8.58ZM9.89999 8.085C9.78999 7.975 9.67999 7.92 9.51499 7.865C9.40499 7.865 9.29499 7.92 9.18499 7.975C9.07499 8.085 9.01999 8.195 9.07499 8.305C9.07499 8.47 9.12999 8.57999 9.23999 8.68999L9.89999 8.085Z" fill="#626262"/>
<path d="M10.12 6.6L10.56 6.27L10.78 6.545C10.78 6.435 10.78 6.27 10.835 6.16C10.89 6.05 11 5.885 11.11 5.83C11.33 5.665 11.55 5.61 11.825 5.665C12.155 5.72 12.375 5.94 12.595 6.16C12.815 6.38 12.925 6.71 12.925 7.04C12.925 7.315 12.815 7.535 12.595 7.7C12.485 7.755 12.375 7.81 12.265 7.865C12.155 7.865 11.99 7.865 11.88 7.865L12.595 8.745L12.1 9.13L10.12 6.6ZM11.22 7.095C11.33 7.26 11.495 7.37 11.66 7.425C11.825 7.48 11.935 7.425 12.045 7.315C12.155 7.205 12.21 7.095 12.21 6.985C12.21 6.765 12.1 6.6 11.99 6.435C11.88 6.27 11.715 6.16 11.55 6.105C11.44 6.05 11.275 6.105 11.165 6.16C11.055 6.27 11 6.38 11 6.545C11.055 6.765 11.11 6.93 11.22 7.095Z" fill="#626262"/>
<path d="M12.045 5.06001L13.75 3.96001L14.025 4.34501L13.42 4.73001L14.41 6.21501L13.86 6.60001L12.87 5.06001L12.265 5.44501L12.045 5.06001Z" fill="#626262"/>
<path d="M14.19 3.68501L14.685 3.41001L15.345 4.67501L15.51 2.97001L16.005 2.69501L17.05 4.73001L16.555 5.00501L15.895 3.74001L15.73 5.44501L15.235 5.72001L14.19 3.68501Z" fill="#626262"/>
<path d="M17.6 1.045L18.15 0.824997L18.535 1.925C18.535 1.815 18.59 1.705 18.7 1.595C18.92 1.32 19.36 1.265 19.635 1.54C19.855 1.705 20.02 1.98 20.13 2.255C20.24 2.53 20.24 2.86 20.185 3.135C20.13 3.355 19.965 3.575 19.745 3.685C19.635 3.685 19.525 3.685 19.415 3.685C19.305 3.685 19.195 3.63 19.085 3.575L19.47 4.62L18.92 4.84L18.535 3.795C18.48 3.905 18.425 4.015 18.37 4.125C18.315 4.235 18.205 4.29 18.095 4.29C17.875 4.4 17.6 4.345 17.435 4.18C17.215 4.015 16.995 3.74 16.94 3.465C16.83 3.19 16.83 2.86 16.885 2.585C16.94 2.365 17.105 2.145 17.325 2.035C17.435 1.98 17.545 1.98 17.655 1.98C17.765 1.98 17.875 2.035 17.985 2.09L17.6 1.045ZM17.655 2.42C17.545 2.475 17.49 2.585 17.435 2.695C17.38 2.86 17.435 3.08 17.49 3.245C17.545 3.41 17.655 3.575 17.765 3.685C17.875 3.795 17.985 3.795 18.095 3.795C18.205 3.74 18.26 3.63 18.315 3.52C18.315 3.355 18.315 3.135 18.26 2.97C18.26 2.75 18.15 2.585 17.985 2.475C17.875 2.42 17.765 2.365 17.655 2.42ZM18.975 1.925C18.865 1.98 18.755 2.09 18.755 2.255C18.755 2.42 18.755 2.64 18.81 2.805C18.865 2.97 18.975 3.135 19.085 3.245C19.25 3.355 19.415 3.355 19.58 3.3C19.69 3.245 19.745 3.135 19.69 2.97C19.69 2.805 19.69 2.64 19.635 2.475C19.58 2.31 19.47 2.145 19.36 2.035C19.25 1.87 19.085 1.87 18.975 1.925Z" fill="#626262"/>
<path d="M20.46 0.989995L21.01 0.879995L21.34 2.255L21.89 0.659995L22.44 0.549995L22.935 2.75L22.385 2.86L22.055 1.43L21.505 3.08L20.955 3.19L20.46 0.989995Z" fill="#626262"/>
<path d="M23.155 0.385001L23.76 0.330001L23.87 1.265C23.925 1.265 24.035 1.21 24.035 1.155C24.09 1.045 24.145 0.935001 24.145 0.825001C24.145 0.660001 24.2 0.495001 24.31 0.385001C24.42 0.330001 24.53 0.275001 24.64 0.220001H24.86L24.97 0.550001C24.86 0.550001 24.75 0.605001 24.695 0.660001C24.64 0.770001 24.585 0.825001 24.585 0.935001C24.585 1.1 24.475 1.265 24.365 1.375C24.585 1.43 24.805 1.595 24.915 1.815V1.87L25.355 2.42L24.75 2.53L24.365 1.925C24.255 1.76 24.2 1.705 24.09 1.65C24.035 1.595 23.98 1.595 23.87 1.65L23.98 2.585L23.375 2.695L23.155 0.385001Z" fill="#626262"/>
<path d="M25.905 0.77L25.355 0.715C25.41 0.495 25.52 0.33 25.63 0.22C25.85 0.055 26.07 0 26.29 0C26.51 0 26.675 0 26.895 0.055C27.005 0.11 27.115 0.165 27.17 0.275C27.225 0.44 27.28 0.66 27.28 0.825V1.54C27.28 1.705 27.28 1.815 27.335 1.98C27.39 2.09 27.39 2.2 27.445 2.255L26.84 2.31L26.785 2.145V2.09C26.675 2.2 26.565 2.255 26.455 2.31C26.345 2.365 26.235 2.42 26.07 2.42C25.85 2.42 25.685 2.365 25.52 2.255C25.355 2.145 25.3 1.98 25.3 1.76C25.3 1.54 25.41 1.265 25.63 1.155C25.85 1.1 25.96 1.045 26.125 0.99C26.29 0.935 26.51 0.88 26.675 0.825V0.77C26.675 0.715 26.675 0.605 26.62 0.55C26.51 0.495 26.4 0.495 26.29 0.495C26.18 0.495 26.125 0.495 26.07 0.55C26.015 0.605 25.96 0.715 25.905 0.77ZM26.73 1.21C26.675 1.21 26.565 1.265 26.345 1.32C26.235 1.32 26.125 1.375 26.015 1.43C25.96 1.485 25.905 1.54 25.905 1.65C25.905 1.705 25.96 1.815 26.015 1.87C26.07 1.925 26.18 1.98 26.235 1.98C26.345 1.98 26.455 1.925 26.51 1.87C26.565 1.815 26.62 1.76 26.62 1.65C26.62 1.54 26.62 1.43 26.62 1.375L26.73 1.21Z" fill="#626262"/>
<path d="M27.94 0H28.545L28.435 1.76L29.26 1.815L29.37 0.055H29.975L29.865 1.815H30.085L30.03 2.915H29.535V2.365L27.775 2.255L27.94 0Z" fill="#626262"/>
<path d="M30.8 0.165001L31.35 0.275001L31.13 1.705L32.23 0.440001L32.78 0.550001L32.45 2.75L31.9 2.64L32.12 1.21L31.02 2.53L30.47 2.42L30.8 0.165001Z" fill="#626262"/>
<path d="M33.55 0.660004L34.1 0.825004L33.715 2.2L34.925 1.045L35.475 1.21L34.925 3.41L34.375 3.245L34.76 1.815L33.55 3.025L33 2.86L33.55 0.660004Z" fill="#626262"/>
<path d="M37.455 1.87L39.27 2.64L38.39 4.73L37.84 4.51L38.555 2.86L37.84 2.53L37.125 4.18L36.575 3.96L37.455 1.87Z" fill="#626262"/>
<path d="M39.325 3.905C39.435 3.74 39.545 3.575 39.71 3.465C39.875 3.355 40.04 3.3 40.26 3.3C40.48 3.3 40.645 3.355 40.865 3.465C41.14 3.63 41.36 3.85 41.415 4.18C41.47 4.51 41.47 4.785 41.305 5.05999C41.14 5.335 40.92 5.555 40.59 5.66499C40.315 5.775 39.985 5.72 39.71 5.555C39.545 5.445 39.38 5.335 39.27 5.115C39.16 4.95 39.105 4.785 39.105 4.565C39.105 4.345 39.16 4.125 39.325 3.905ZM39.82 4.235C39.71 4.4 39.655 4.61999 39.71 4.785C39.71 4.95 39.82 5.06 39.985 5.115C40.095 5.17 40.26 5.22499 40.425 5.16999C40.59 5.11499 40.7 4.95 40.81 4.785C40.92 4.61999 40.975 4.4 40.92 4.235C40.865 4.07 40.81 3.96 40.645 3.905C40.535 3.795 40.37 3.795 40.205 3.85C40.04 3.905 39.93 4.07 39.82 4.235Z" fill="#626262"/>
<path d="M43.56 6.105L43.01 5.83C43.065 5.72 43.065 5.61 43.065 5.555C43.065 5.445 43.01 5.39 42.955 5.335C42.845 5.225 42.68 5.225 42.57 5.28C42.405 5.335 42.24 5.445 42.185 5.61C42.075 5.775 41.965 5.94 41.965 6.16C41.965 6.325 42.075 6.435 42.185 6.49C42.24 6.545 42.35 6.6 42.46 6.545C42.57 6.49 42.68 6.435 42.79 6.325L43.23 6.765C43.065 6.93 42.845 7.04 42.625 7.095C42.35 7.095 42.13 7.04 41.91 6.875C41.635 6.71 41.47 6.435 41.47 6.16C41.415 5.83 41.525 5.5 41.745 5.28C41.91 5.005 42.185 4.785 42.46 4.73C42.735 4.675 43.065 4.73 43.285 4.95C43.505 5.06 43.615 5.28 43.725 5.5C43.615 5.665 43.615 5.885 43.56 6.105Z" fill="#626262"/>
<path d="M44.165 5.72L45.705 7.04L45.375 7.425L44.825 6.93L43.725 8.305L43.285 7.92L44.385 6.545L43.835 6.105L44.165 5.72Z" fill="#626262"/>
<path d="M45.925 8.195L45.595 7.75501C45.76 7.64501 45.98 7.59001 46.145 7.64501C46.365 7.7 46.53 7.81001 46.695 8.03001C46.86 8.14001 46.97 8.36 47.025 8.525C47.08 8.635 47.08 8.80001 47.025 8.91C46.97 9.075 46.86 9.24 46.695 9.35L46.2 9.845C46.09 9.955 45.98 10.065 45.925 10.175C45.87 10.285 45.815 10.34 45.815 10.45L45.375 10.01L45.485 9.845L45.54 9.79C45.43 9.79 45.265 9.79 45.155 9.735C45.045 9.68 44.935 9.625 44.825 9.515C44.66 9.35 44.605 9.185 44.55 8.965C44.55 8.635 44.77 8.36001 45.045 8.30501C45.155 8.25001 45.265 8.25001 45.375 8.30501C45.54 8.36001 45.65 8.47 45.815 8.525C45.98 8.635 46.145 8.745 46.31 8.855L46.365 8.8C46.42 8.745 46.475 8.635 46.475 8.58C46.475 8.47001 46.365 8.36001 46.31 8.30501C46.255 8.25001 46.2 8.195 46.09 8.195C46.035 8.14 45.98 8.14 45.925 8.195ZM46.145 9.13C46.035 9.075 45.925 9.02 45.815 8.91C45.705 8.85501 45.595 8.8 45.485 8.745C45.375 8.745 45.32 8.745 45.265 8.8C45.21 8.855 45.155 8.965 45.155 9.02C45.155 9.13 45.21 9.185 45.265 9.24C45.32 9.295 45.43 9.35 45.54 9.405C45.595 9.405 45.705 9.405 45.76 9.35C45.815 9.295 45.925 9.24 45.98 9.185L46.145 9.13Z" fill="#626262"/>
<path d="M47.85 9.24L48.675 10.285C48.84 10.45 48.895 10.615 48.95 10.835C48.95 11 48.895 11.165 48.73 11.275C48.62 11.33 48.51 11.385 48.4 11.385C48.29 11.385 48.18 11.385 48.07 11.275C48.125 11.385 48.18 11.55 48.125 11.715C48.125 11.825 48.015 11.935 47.96 12.045C47.85 12.155 47.685 12.21 47.52 12.155C47.3 12.1 47.135 11.99 47.025 11.825L46.145 10.725L47.85 9.24ZM46.805 10.89L47.08 11.275C47.135 11.385 47.245 11.44 47.355 11.55C47.465 11.605 47.52 11.55 47.575 11.495C47.63 11.44 47.685 11.33 47.685 11.22C47.63 11.055 47.52 10.89 47.41 10.78L47.245 10.56L46.805 10.89ZM47.52 10.285L47.74 10.56C47.795 10.67 47.905 10.78 48.07 10.835C48.18 10.89 48.235 10.835 48.29 10.78C48.345 10.725 48.4 10.67 48.4 10.56C48.345 10.45 48.29 10.285 48.18 10.175L47.96 9.9L47.52 10.285Z" fill="#626262"/>
<path d="M49.665 11.495L49.94 11.99L48.455 12.98L48.84 13.585L50.325 12.595L50.6 13.09L49.115 14.08L49.5 14.685L50.985 13.695L51.26 14.19L49.775 15.18L49.885 15.4L48.95 16.005L48.73 15.4L49.225 15.07L47.74 12.705L49.665 11.495Z" fill="#626262"/>
<path d="M51.645 14.795L51.865 15.345L50.6 15.95L52.25 16.17L52.47 16.72L50.435 17.71L50.215 17.16L51.48 16.555L49.775 16.335L49.555 15.785L51.645 14.795Z" fill="#626262"/>
<path d="M52.8 17.38L53.02 17.93L52.14 18.26C52.195 18.315 52.25 18.37 52.305 18.425C52.415 18.48 52.525 18.48 52.635 18.425C52.8 18.425 52.965 18.425 53.13 18.535C53.24 18.59 53.295 18.7 53.35 18.865C53.35 18.92 53.405 18.975 53.405 19.085L53.02 19.195C53.02 19.085 52.965 18.975 52.855 18.92C52.745 18.865 52.635 18.865 52.525 18.865C52.36 18.865 52.195 18.81 52.085 18.7C52.085 18.92 51.975 19.195 51.81 19.305L51.755 19.36L51.315 19.91L51.15 19.36L51.645 18.865C51.7 18.81 51.755 18.7 51.81 18.645C51.81 18.59 51.81 18.48 51.81 18.425L50.93 18.755L50.71 18.205L52.8 17.38Z" fill="#626262"/>
<path d="M52.47 19.69C52.69 19.635 52.855 19.635 53.075 19.69C53.295 19.745 53.46 19.855 53.57 19.965C53.735 20.13 53.79 20.295 53.845 20.515C53.955 20.845 53.9 21.175 53.735 21.45C53.57 21.725 53.295 21.945 53.02 22C52.415 22.165 51.81 21.835 51.59 21.23C51.59 21.175 51.59 21.175 51.59 21.12C51.535 20.9 51.535 20.735 51.59 20.515C51.645 20.295 51.755 20.13 51.865 19.965C52.03 19.91 52.25 19.8 52.47 19.69ZM52.58 20.295C52.415 20.35 52.25 20.46 52.14 20.57C52.03 20.68 52.03 20.845 52.085 21.01C52.14 21.175 52.195 21.285 52.36 21.34C52.525 21.395 52.745 21.395 52.91 21.34C53.075 21.285 53.24 21.175 53.35 21.065C53.46 20.955 53.46 20.79 53.405 20.625C53.35 20.46 53.295 20.35 53.13 20.295C52.965 20.24 52.745 20.295 52.58 20.295Z" fill="#626262"/>
<path d="M54.23 22.33L54.45 23.65C54.505 23.87 54.45 24.09 54.395 24.255C54.23 24.53 53.9 24.585 53.68 24.475C53.57 24.42 53.515 24.31 53.46 24.2C53.46 24.365 53.405 24.475 53.295 24.585C53.185 24.695 53.075 24.75 52.965 24.75C52.8 24.75 52.635 24.75 52.525 24.64C52.36 24.475 52.305 24.31 52.305 24.09L52.085 22.66L54.23 22.33ZM52.47 23.21L52.525 23.705C52.525 23.815 52.58 23.98 52.635 24.09C52.69 24.145 52.8 24.2 52.855 24.2C52.965 24.2 53.02 24.145 53.075 24.035C53.13 23.87 53.13 23.65 53.075 23.485L53.02 23.1L52.47 23.21ZM53.405 23.1L53.46 23.485C53.46 23.65 53.515 23.76 53.57 23.87C53.625 23.925 53.735 23.98 53.79 23.98C53.9 23.98 53.955 23.925 53.955 23.815C54.01 23.65 54.01 23.54 53.955 23.375L53.9 22.99L53.405 23.1Z" fill="#626262"/>
<path d="M31.735 10.56C32.23 10.67 32.725 10.615 33.165 10.395C32.945 9.95499 32.56 9.67999 32.12 9.51499C31.68 9.45999 31.24 9.56999 30.855 9.78999C31.02 10.12 31.35 10.395 31.735 10.56Z" fill="#626262"/>
<path d="M45.045 32.45C44.605 32.67 44.22 33 43.945 33.44C44.11 33 44.22 32.56 44.33 32.12C44.385 31.9 44.44 31.68 44.495 31.46C45.155 31.46 45.76 31.295 46.31 31.02C47.245 30.525 47.52 28.875 47.52 28.875C46.86 28.93 46.2 29.095 45.65 29.425C45.155 29.81 44.825 30.305 44.66 30.91L44.715 30.47C44.715 30.415 44.77 30.36 44.77 30.25V30.03L44.825 29.645L44.88 29.26C44.88 29.15 44.88 28.985 44.88 28.875C44.88 28.765 44.88 28.655 44.88 28.49C45.54 28.325 46.09 28.05 46.64 27.665C47.52 26.95 47.52 25.245 47.52 25.245C46.86 25.41 46.255 25.74 45.76 26.18C45.375 26.62 45.1 27.115 45.045 27.72V27.225C45.045 27.115 45.045 26.95 45.045 26.84V26.455V26.07C45.045 25.96 45.045 25.795 45.045 25.685L44.99 25.135C45.54 25.025 46.09 24.75 46.53 24.365C47.3 23.705 47.245 22.165 47.245 22.165C46.64 22.33 46.09 22.605 45.595 23.045C45.21 23.485 44.99 24.035 44.935 24.585V24.475L44.88 24.09L44.715 23.65C44.715 23.54 44.66 23.375 44.66 23.265L44.55 22.825C44.55 22.715 44.495 22.55 44.44 22.44L44.33 22.11C44.825 21.78 45.265 21.395 45.595 20.9C46.145 20.075 45.65 18.59 45.65 18.59C45.1 18.92 44.66 19.36 44.33 19.91C44.11 20.405 44 20.955 44.11 21.505C44.055 21.285 44 21.065 43.89 20.845L43.835 20.68L43.78 20.515L43.615 20.13C43.505 19.855 43.395 19.635 43.285 19.36L43.23 19.305C43.725 18.92 44.055 18.48 44.33 17.93C44.77 17.05 44.055 15.62 44.055 15.62C43.615 16.06 43.23 16.555 42.955 17.105C42.79 17.655 42.79 18.205 43.01 18.755C42.625 18.04 42.24 17.325 41.745 16.665C42.13 16.28 42.405 15.785 42.625 15.235C42.9 14.355 42.075 13.145 42.075 13.145C41.69 13.585 41.415 14.135 41.25 14.685C41.195 15.29 41.305 15.895 41.58 16.39C41.03 15.675 40.48 15.015 39.82 14.41C40.15 13.915 40.315 13.365 40.425 12.815C40.535 11.88 39.49 10.835 39.49 10.835C39.215 11.33 38.995 11.88 38.94 12.485C38.995 13.09 39.215 13.695 39.6 14.135L39.325 13.86L39.05 13.585L38.72 13.31L38.555 13.2L38.5 13.145L38.17 12.925L37.84 12.65L37.675 12.54L37.51 12.43L37.4 12.375C37.62 11.88 37.73 11.275 37.675 10.725C37.62 9.79 36.465 9.02 36.465 9.02C36.245 9.57 36.19 10.12 36.245 10.725C36.41 11.33 36.74 11.825 37.235 12.21H37.18C36.74 11.935 36.3 11.66 35.805 11.44C35.53 11.33 35.035 11.11 34.98 11.055C35.145 10.505 35.145 9.955 35.035 9.405C34.87 8.525 33.605 7.865 33.605 7.865C33.495 8.415 33.495 9.02 33.605 9.57C33.77 10.285 34.705 10.89 34.925 11C34.375 10.78 33.715 10.78 33.165 11C32.67 11.33 32.285 11.825 32.065 12.43C32.56 12.595 33.165 12.595 33.66 12.43C34.265 12.1 34.76 11.605 35.035 11.055L35.805 11.44C36.245 11.715 36.74 11.935 37.18 12.265L37.29 12.32C36.795 12.1 36.19 12.045 35.64 12.265C35.09 12.54 34.65 13.035 34.43 13.585C34.925 13.805 35.475 13.86 36.025 13.695C36.575 13.42 37.07 12.98 37.4 12.43L37.455 12.485L37.62 12.595L37.785 12.705L38.115 12.925L38.445 13.2L38.61 13.31L38.775 13.42L39.105 13.695L39.38 13.97C39.49 14.08 39.6 14.135 39.655 14.245L39.71 14.3C39.27 13.915 38.665 13.695 38.06 13.75C37.4 13.86 36.85 14.245 36.41 14.74C36.85 15.18 37.4 15.4 38.005 15.4C38.72 15.345 39.38 15.015 39.875 14.52C40.48 15.125 41.03 15.785 41.525 16.5C41.14 16.06 40.645 15.84 40.095 15.785C39.435 15.785 38.775 16.06 38.28 16.445C38.665 16.885 39.16 17.215 39.765 17.325C40.48 17.38 41.195 17.16 41.8 16.775C42.295 17.49 42.735 18.26 43.065 19.085C42.79 18.645 42.35 18.315 41.8 18.15C41.14 18.04 40.48 18.15 39.93 18.48C40.205 19.03 40.7 19.415 41.25 19.635C41.91 19.8 42.625 19.745 43.285 19.47C43.395 19.69 43.505 19.91 43.56 20.185L43.67 20.57L43.725 20.735C43.725 20.79 43.78 20.845 43.78 20.9C43.835 21.175 43.945 21.395 44 21.67C43.78 21.23 43.34 20.9 42.9 20.735C42.24 20.57 41.58 20.625 40.975 20.845C41.195 21.395 41.635 21.835 42.13 22.11C42.735 22.33 43.45 22.385 44.11 22.22L44.165 22.44C44.22 22.55 44.22 22.715 44.275 22.825L44.33 23.21C44.33 23.32 44.385 23.485 44.385 23.595L44.44 23.98L44.495 24.365V24.585C44.495 24.64 44.495 24.695 44.495 24.75C44.33 24.255 44 23.815 43.56 23.54C42.955 23.265 42.295 23.155 41.635 23.32C41.745 23.925 42.075 24.42 42.57 24.805C43.175 25.19 43.835 25.355 44.495 25.3L44.55 25.63C44.55 25.74 44.55 25.905 44.55 26.015V26.4V26.785C44.55 26.895 44.55 27.06 44.55 27.17V27.61C44.495 27.17 44.275 26.785 44 26.455C43.45 25.96 42.735 25.685 42.02 25.63C41.965 26.29 42.185 26.95 42.57 27.5C43.065 28.05 43.725 28.435 44.495 28.6C44.495 28.655 44.495 28.71 44.495 28.765C44.495 28.82 44.495 29.04 44.44 29.15V29.7L44.385 30.085V30.25C44.385 30.305 44.385 30.36 44.33 30.47L44.275 30.8C44.275 30.305 44.11 29.81 43.835 29.425C43.34 28.875 42.68 28.49 41.965 28.38C41.855 29.04 41.965 29.7 42.295 30.305C42.735 30.91 43.395 31.405 44.11 31.625L44 32.01C43.89 32.45 43.725 32.89 43.56 33.33C43.615 32.835 43.505 32.395 43.285 31.955C42.845 31.295 42.24 30.855 41.525 30.635C41.305 31.295 41.36 32.01 41.635 32.615C42.02 33.275 42.57 33.825 43.23 34.155C43.12 34.43 43.01 34.65 42.845 34.925C42.625 35.365 42.35 35.805 42.13 36.19C42.295 35.695 42.295 35.2 42.13 34.705C41.855 33.99 41.305 33.44 40.645 33.055C40.315 33.66 40.205 34.375 40.37 35.035C40.59 35.75 41.03 36.41 41.635 36.85C41.47 37.07 41.305 37.29 41.14 37.51C40.865 37.84 40.535 38.17 40.205 38.5C40.48 38.005 40.59 37.455 40.535 36.905C40.37 36.135 39.93 35.475 39.325 35.035C38.885 35.585 38.665 36.245 38.72 36.96C38.83 37.73 39.16 38.445 39.71 38.995C39.435 39.215 39.16 39.435 38.885 39.655C38.61 39.875 38.335 40.095 38.06 40.26C38.39 39.82 38.61 39.325 38.61 38.83C38.555 38.06 38.28 37.345 37.785 36.74C37.29 37.18 36.96 37.84 36.85 38.5C36.795 39.27 37.015 40.04 37.455 40.7C37.07 40.92 36.685 41.14 36.3 41.36C36.08 41.47 35.805 41.58 35.585 41.69C35.97 41.36 36.19 40.92 36.3 40.425C36.41 39.655 36.245 38.885 35.805 38.225C35.2 38.61 34.815 39.16 34.595 39.765C34.43 40.48 34.485 41.305 34.76 41.965C34.155 42.185 33.55 42.405 32.945 42.625C33.275 42.405 33.55 42.075 33.715 41.635C33.99 40.92 33.99 40.095 33.715 39.38C33.055 39.6 32.505 40.04 32.175 40.645C31.845 41.36 31.735 42.13 31.9 42.9C31.405 43.01 30.855 43.175 30.36 43.285H30.25L30.14 43.34L29.865 43.45L29.645 43.505H29.535H29.425L29.04 43.615C28.985 43.615 28.93 43.67 28.875 43.67L28.71 43.725C28.435 43.835 28.215 43.945 27.94 44.055L27.885 44.11L27.83 44.055C27.555 43.945 27.335 43.835 27.06 43.725L26.895 43.67C26.84 43.615 26.785 43.615 26.73 43.615L26.345 43.505H26.235H26.125L25.905 43.45L25.685 43.395L25.575 43.34H25.465C24.915 43.23 24.42 43.12 23.925 42.955C24.09 42.185 23.98 41.415 23.65 40.7C23.32 40.095 22.77 39.655 22.11 39.435C21.835 40.15 21.835 40.975 22.11 41.69C22.275 42.075 22.55 42.405 22.88 42.68C22.275 42.515 21.67 42.24 21.065 42.02C21.34 41.305 21.45 40.535 21.285 39.765C21.065 39.105 20.625 38.555 20.075 38.225C19.69 38.885 19.525 39.655 19.58 40.425C19.69 40.92 19.965 41.36 20.295 41.69C20.02 41.58 19.8 41.47 19.58 41.36C19.195 41.14 18.81 40.92 18.425 40.7C18.865 40.04 19.03 39.27 19.03 38.5C18.92 37.84 18.59 37.18 18.095 36.74C17.6 37.345 17.27 38.06 17.27 38.83C17.27 39.38 17.49 39.875 17.82 40.26C17.545 40.095 17.27 39.875 16.995 39.655C16.72 39.435 16.445 39.215 16.17 38.995C16.72 38.445 17.05 37.73 17.16 36.96C17.16 36.3 16.94 35.64 16.555 35.09C15.95 35.585 15.565 36.245 15.345 36.96C15.29 37.51 15.4 38.06 15.675 38.555C15.345 38.225 15.015 37.895 14.74 37.565C14.575 37.345 14.41 37.125 14.245 36.905C14.85 36.41 15.29 35.805 15.51 35.09C15.62 34.43 15.565 33.715 15.235 33.11C14.575 33.495 14.025 34.045 13.75 34.76C13.585 35.255 13.585 35.75 13.75 36.245C13.475 35.86 13.255 35.42 12.98 34.98C12.87 34.705 12.705 34.485 12.595 34.21C13.255 33.88 13.86 33.33 14.19 32.67C14.465 32.01 14.465 31.35 14.3 30.69C13.585 30.91 12.925 31.405 12.54 32.01C12.32 32.45 12.21 32.89 12.265 33.385C12.1 32.945 11.99 32.505 11.825 32.065L11.715 31.625C12.43 31.405 13.09 30.965 13.53 30.305C13.86 29.7 13.97 29.04 13.86 28.38C13.145 28.49 12.485 28.875 11.99 29.425C11.715 29.81 11.55 30.305 11.55 30.8L11.495 30.47C11.495 30.415 11.495 30.36 11.44 30.25V30.03L11.385 29.645L11.33 29.26C11.33 29.15 11.33 28.985 11.275 28.875V28.71C12.045 28.545 12.705 28.16 13.2 27.61C13.585 27.06 13.805 26.4 13.75 25.74C13.035 25.795 12.32 26.07 11.77 26.565C11.495 26.895 11.275 27.28 11.22 27.72V27.28C11.22 27.17 11.22 27.005 11.22 26.895V26.51V26.125C11.22 26.015 11.22 25.85 11.22 25.74V25.3C11.88 25.355 12.595 25.19 13.145 24.805C13.585 24.42 13.915 23.925 14.08 23.32C13.42 23.155 12.76 23.265 12.155 23.54C11.715 23.815 11.385 24.255 11.275 24.75C11.275 24.695 11.275 24.64 11.275 24.585V24.365L11.33 23.98L11.385 23.595C11.385 23.485 11.44 23.32 11.44 23.21L11.495 22.825C11.495 22.715 11.55 22.55 11.55 22.44L11.605 22.22C12.265 22.385 12.925 22.385 13.585 22.11C14.135 21.835 14.52 21.395 14.795 20.9C14.19 20.625 13.53 20.57 12.87 20.79C12.43 20.955 11.99 21.285 11.77 21.725C11.825 21.45 11.935 21.23 11.99 20.955C11.99 20.9 12.045 20.845 12.045 20.79L12.1 20.625L12.21 20.24C12.265 20.02 12.375 19.8 12.485 19.525C13.145 19.8 13.86 19.855 14.52 19.69C15.07 19.47 15.51 19.085 15.84 18.535C15.29 18.205 14.63 18.095 13.97 18.15C13.475 18.315 13.035 18.645 12.705 19.085C13.09 18.315 13.53 17.545 14.025 16.775C14.63 17.16 15.29 17.325 16.005 17.325C16.61 17.215 17.105 16.885 17.49 16.445C16.995 16.005 16.335 15.785 15.675 15.785C15.125 15.84 14.575 16.115 14.245 16.555C14.74 15.84 15.29 15.18 15.895 14.575C16.445 15.07 17.105 15.345 17.82 15.455C18.425 15.455 18.975 15.235 19.415 14.85C18.975 14.355 18.425 13.97 17.765 13.86C17.16 13.805 16.555 14.025 16.115 14.41L16.17 14.355C16.28 14.245 16.39 14.19 16.445 14.08L16.72 13.805L17.05 13.53L17.215 13.42L17.38 13.31L17.71 13.035L18.04 12.815L18.15 12.65L18.315 12.54L18.37 12.485C18.7 13.035 19.195 13.475 19.8 13.75C20.35 13.915 20.9 13.86 21.395 13.64C21.175 13.09 20.735 12.595 20.185 12.32C19.635 12.155 19.03 12.155 18.535 12.375L18.645 12.32C19.085 12.045 19.525 11.77 20.02 11.495L20.79 11.11C21.065 11.715 21.56 12.21 22.165 12.485C22.66 12.65 23.265 12.65 23.76 12.485C23.54 11.88 23.155 11.385 22.66 11.055C22.11 10.835 21.45 10.835 20.9 11.055C21.12 10.945 22.055 10.34 22.22 9.625C22.33 9.075 22.33 8.47 22.22 7.92C22.22 7.92 20.9 8.525 20.735 9.405C20.625 9.955 20.68 10.505 20.79 11.055C20.735 11.055 20.24 11.275 19.965 11.44C19.47 11.66 19.03 11.935 18.59 12.21H18.535C19.03 11.825 19.36 11.275 19.525 10.725C19.58 10.175 19.47 9.57 19.305 9.02C19.305 9.02 18.15 9.79 18.095 10.725C18.04 11.275 18.15 11.88 18.37 12.375L18.26 12.43L18.095 12.54L17.93 12.65L17.6 12.925L17.27 13.145L17.105 13.255L16.94 13.365L16.61 13.64L16.335 13.915L16.06 14.19C16.445 13.75 16.665 13.145 16.72 12.54C16.665 11.935 16.445 11.385 16.17 10.89C16.17 10.89 15.125 11.935 15.235 12.87C15.29 13.42 15.51 13.97 15.84 14.465C15.235 15.07 14.63 15.73 14.135 16.445C14.41 15.95 14.575 15.345 14.465 14.74C14.3 14.19 14.025 13.64 13.64 13.2C13.64 13.2 12.815 14.41 13.09 15.29C13.255 15.84 13.53 16.335 13.915 16.72C13.42 17.38 12.98 18.04 12.65 18.755C12.815 18.205 12.87 17.655 12.65 17.105C12.375 16.555 11.99 16.005 11.55 15.62C11.55 15.62 10.835 16.995 11.275 17.93C11.55 18.48 11.88 18.92 12.375 19.305L12.32 19.36C12.21 19.635 12.1 19.855 11.99 20.13L11.825 20.515L11.77 20.68L11.715 20.845C11.66 21.065 11.605 21.285 11.495 21.505C11.605 20.955 11.495 20.405 11.275 19.91C10.945 19.36 10.45 18.92 9.955 18.59C9.955 18.59 9.46 20.075 10.01 20.9C10.34 21.395 10.78 21.78 11.33 22.11L11.275 22.44C11.22 22.55 11.22 22.715 11.22 22.825L11.165 23.21C11.165 23.32 11.11 23.485 11.11 23.595L11.055 23.98L11 24.42V24.53C10.945 23.98 10.725 23.43 10.34 22.99C9.845 22.605 9.295 22.275 8.69 22.11C8.69 22.11 8.635 23.65 9.405 24.31C9.845 24.695 10.395 24.915 10.945 25.08L10.89 25.63C10.89 25.74 10.89 25.905 10.89 26.015V26.4V26.785C10.89 26.895 10.89 27.06 10.89 27.17V27.665C10.835 27.115 10.56 26.565 10.175 26.125C9.625 25.685 9.02 25.41 8.36 25.19C8.36 25.19 8.305 26.895 9.13 27.555C9.625 27.94 10.23 28.27 10.835 28.38C10.835 28.49 10.835 28.6 10.835 28.765C10.835 28.93 10.835 29.04 10.835 29.15L11 29.7L11.055 30.085V30.305C11.055 30.36 11.055 30.415 11.11 30.525L11.165 30.965C11 30.36 10.615 29.81 10.12 29.48C9.515 29.15 8.91 28.985 8.25 28.93C8.25 28.93 8.525 30.58 9.46 31.075C10.01 31.35 10.615 31.515 11.275 31.515C11.33 31.735 11.385 31.955 11.44 32.175C11.55 32.615 11.715 33.055 11.825 33.495C11.55 33.055 11.165 32.725 10.725 32.505C10.12 32.285 9.46 32.23 8.8 32.34C8.8 32.34 9.35 33.88 10.395 34.21C11 34.375 11.605 34.43 12.21 34.32C12.32 34.65 12.485 34.925 12.65 35.255C12.815 35.585 13.035 35.97 13.2 36.3C12.87 35.915 12.43 35.64 11.935 35.53C11.22 35.42 10.56 35.475 9.9 35.695C9.9 35.695 10.78 37.18 11.88 37.345C12.54 37.4 13.2 37.345 13.805 37.125C14.025 37.4 14.245 37.675 14.465 37.95C14.575 38.115 14.74 38.28 14.85 38.39C14.52 38.225 14.19 38.115 13.805 38.115C13.09 38.17 12.43 38.335 11.825 38.665C11.825 38.665 12.98 39.985 14.08 39.875C14.685 39.82 15.29 39.655 15.84 39.325C16.17 39.6 16.445 39.875 16.775 40.15L17.105 40.425C16.665 40.26 16.225 40.26 15.84 40.37C15.125 40.59 14.52 40.975 13.97 41.47C13.97 41.47 15.455 42.46 16.555 42.13C17.16 41.91 17.71 41.58 18.15 41.14C18.59 41.415 19.03 41.69 19.47 41.91L19.965 42.13C19.415 42.02 18.81 42.075 18.315 42.295C17.71 42.68 17.16 43.175 16.72 43.78C16.72 43.78 18.37 44.44 19.36 43.89C19.91 43.56 20.405 43.065 20.79 42.515C21.505 42.845 22.22 43.12 22.99 43.34C22.385 43.285 21.78 43.395 21.285 43.725C20.735 44.165 20.24 44.77 19.91 45.43C19.91 45.43 21.67 45.87 22.55 45.155C23.045 44.715 23.485 44.22 23.76 43.615C24.365 43.78 24.915 43.945 25.52 44.055H25.63H25.74L25.905 44.11L26.07 44.165H26.18L26.29 44.22L26.675 44.33L26.84 44.385L27.005 44.44L27.335 44.605C26.895 44.935 26.455 45.265 26.015 45.595L25.685 45.87L25.355 46.145C25.245 46.255 25.135 46.31 25.08 46.42L24.75 46.475V46.53L24.695 46.64L25.245 47.135C25.3 47.025 25.41 46.97 25.52 46.86C25.63 46.75 25.685 46.695 25.795 46.585L26.07 46.31L26.345 46.09C26.73 45.76 27.17 45.485 27.61 45.21C27.72 45.155 27.83 45.1 27.94 45.045C28.05 45.1 28.16 45.155 28.27 45.21C28.71 45.485 29.15 45.76 29.535 46.09L29.81 46.31L30.085 46.585C30.195 46.695 30.25 46.75 30.36 46.86C30.47 46.97 30.525 47.025 30.635 47.135L31.185 46.64L31.13 46.53L31.075 46.475L30.91 46.31C30.8 46.2 30.69 46.145 30.635 46.035L30.25 45.76L29.92 45.485C29.48 45.155 29.04 44.88 28.6 44.605L28.93 44.44L29.095 44.385L29.26 44.33L29.645 44.22L29.755 44.165H29.865L30.03 44.11L30.195 44.055H30.25H30.36C30.965 43.945 31.57 43.78 32.12 43.615C32.395 44.22 32.835 44.715 33.33 45.1C34.265 45.815 35.97 45.375 35.97 45.375C35.64 44.715 35.145 44.165 34.595 43.67C34.1 43.34 33.495 43.23 32.89 43.285C33.605 43.065 34.375 42.79 35.09 42.46C35.475 43.01 35.915 43.45 36.52 43.835C37.51 44.44 39.16 43.725 39.16 43.725C38.72 43.12 38.17 42.625 37.565 42.24C37.07 42.02 36.465 41.965 35.915 42.075L36.41 41.855C36.85 41.635 37.29 41.36 37.73 41.085C38.17 41.525 38.72 41.855 39.325 42.075C40.425 42.46 41.91 41.415 41.91 41.415C41.36 40.92 40.755 40.535 40.04 40.315C39.6 40.205 39.16 40.205 38.775 40.37L39.105 40.095C39.435 39.82 39.765 39.545 40.04 39.27C40.59 39.6 41.195 39.765 41.8 39.82C42.9 39.875 44.055 38.61 44.055 38.61C43.45 38.28 42.79 38.115 42.075 38.06C41.69 38.06 41.36 38.17 41.03 38.335C41.14 38.17 41.305 38.005 41.415 37.895C41.635 37.62 41.855 37.345 42.075 37.07C42.68 37.29 43.34 37.345 44 37.29C45.1 37.125 45.98 35.64 45.98 35.64C45.32 35.42 44.605 35.365 43.945 35.475C43.45 35.585 43.01 35.86 42.68 36.245C42.9 35.915 43.065 35.585 43.23 35.2C43.395 34.815 43.505 34.595 43.67 34.265C44.275 34.375 44.88 34.265 45.485 34.1C46.475 33.77 47.025 32.23 47.025 32.23C46.31 32.175 45.65 32.23 45.045 32.45Z" fill="#626262"/>
<path d="M24.035 10.56C24.42 10.395 24.75 10.175 24.97 9.78999C24.585 9.56999 24.145 9.45999 23.705 9.51499C23.265 9.67999 22.88 9.95499 22.66 10.395C23.045 10.56 23.54 10.615 24.035 10.56Z" fill="#626262"/>
<path d="M25.85 37.455L22.605 32.725L22.495 27.005L17.655 34.265L25.85 37.455ZM18.425 34.045L22.165 28.325V32.89L18.425 34.045Z" fill="#626262"/>
<path d="M17.105 27.94L20.295 23.155L25.52 21.01L17.16 19.03L17.105 27.94ZM17.6 19.635L24.2 21.12L20.02 22.77L17.6 19.635Z" fill="#626262"/>
<path d="M23.045 16.555L28.49 18.205L32.065 22.605L31.35 13.86L23.045 16.555ZM30.965 14.52L31.515 21.395L28.71 17.82L30.965 14.52Z" fill="#626262"/>
<path d="M35.75 18.59L35.805 24.365L32.725 29.15L40.7 25.96L35.75 18.59ZM39.985 25.74L33.715 28.325L36.245 24.585L39.985 25.74Z" fill="#626262"/>
<path d="M37.565 31.405L32.175 33.22L26.785 31.68L32.285 38.445L37.565 31.405ZM32.23 37.73L27.885 32.45L32.175 33.715L32.23 37.73Z" fill="#626262"/>
<path d="M1.76 29.975C2.48902 29.975 3.08 29.384 3.08 28.655C3.08 27.926 2.48902 27.335 1.76 27.335C1.03099 27.335 0.440002 27.926 0.440002 28.655C0.440002 29.384 1.03099 29.975 1.76 29.975Z" fill="#626262"/>
<path d="M53.68 29.975C54.409 29.975 55 29.384 55 28.655C55 27.926 54.409 27.335 53.68 27.335C52.951 27.335 52.36 27.926 52.36 28.655C52.36 29.384 52.951 29.975 53.68 29.975Z" fill="#626262"/>
</g>
<defs>
<clipPath id="clip0">
<rect width="55" height="55" fill="white"/>
</clipPath>
</defs>
</svg>
