<svg width="71" height="75" viewBox="0 0 71 75" fill="none" xmlns="http://www.w3.org/2000/svg">
<path d="M16.0204 65.9355V47.1594H19.1837V65.937H16.0204V65.9355Z" fill="#2C2C3A"/>
<path d="M37.0172 65.9355V47.1594H40.1805V65.937H37.0172V65.9355Z" fill="#2C2C3A"/>
<path d="M67.8202 65.9355V47.1594H70.9835V65.937H67.8202V65.9355Z" fill="#2C2C3A"/>
<path d="M29.4786 0.372025H35.2028V35.9192H28.3128V16.4988L20.125 30.9278H15.0826L6.84537 16.749V35.9207H0.00476074V0.372025H5.77995L17.6795 21.5907L29.4786 0.372025Z" fill="#2C2C3A"/>
<path d="M52.3947 35.9192V6.71214H40.8444V0.372028H71V6.71214H59.4511V35.9192H52.3947Z" fill="#2C2C3A"/>
<path d="M28.1762 52.7203C24.5768 52.7203 21.6577 55.7248 21.6577 59.4306C21.6577 63.1363 24.5768 66.1408 28.1762 66.1408C31.7755 66.1408 34.6946 63.1363 34.6946 59.4306C34.6946 55.7248 31.7755 52.7203 28.1762 52.7203ZM28.1762 63.3221C26.33 63.3221 24.8345 61.5794 24.8345 59.4306C24.8345 57.2817 26.3315 55.539 28.1762 55.539C30.0223 55.539 31.5178 57.2817 31.5178 59.4306C31.5178 61.5794 30.0208 63.3221 28.1762 63.3221Z" fill="#2C2C3A"/>
<path d="M43.5521 52.7203C39.9528 52.7203 37.0337 55.7248 37.0337 59.4306C37.0337 63.1363 39.9528 66.1408 43.5521 66.1408C47.1515 66.1408 50.0706 63.1363 50.0706 59.4306C50.0706 55.7248 47.1515 52.7203 43.5521 52.7203ZM43.5521 63.3221C41.706 63.3221 40.2105 61.5794 40.2105 59.4306C40.2105 57.2817 41.7075 55.539 43.5521 55.539C45.3983 55.539 46.8938 57.2817 46.8938 59.4306C46.8938 61.5794 45.3968 63.3221 43.5521 63.3221Z" fill="#2C2C3A"/>
<path d="M65.0045 59.4306C65.0045 59.4021 65.003 59.3736 65.003 59.3451V59.2912H65.0015C64.9296 55.6499 62.0405 52.7203 58.4861 52.7203C54.8852 52.7203 51.9677 55.7248 51.9677 59.4306C51.9677 63.1363 54.8852 66.1408 58.4861 66.1408C59.7119 66.1408 60.8597 65.7917 61.8382 65.1848V65.9355H65.0015V59.516C65.003 59.4875 65.0045 59.459 65.0045 59.4306ZM58.4861 63.3221C56.6399 63.3221 55.1445 61.5794 55.1445 59.4306C55.1445 57.2817 56.6399 55.539 58.4861 55.539C60.3322 55.539 61.8277 57.2817 61.8277 59.4306C61.8292 61.5794 60.3322 63.3221 58.4861 63.3221Z" fill="#2C2C3A"/>
<path d="M6.51844 52.7203C2.91906 52.7203 0 55.7248 0 59.4306C0 60.46 0.232266 61.431 0.633861 62.3032C1.1883 63.5035 2.07541 64.5045 3.1768 65.1848C3.1768 65.1848 3.1768 65.1788 3.1768 65.1758C3.1768 65.1788 3.1768 65.1818 3.1768 65.1818C4.15532 65.7887 5.29567 66.1408 6.51844 66.1408C7.74121 66.1408 8.88156 65.7872 9.86007 65.1848V65.1818C10.9615 64.506 11.8486 63.5035 12.403 62.3032C12.8046 61.431 13.0369 60.46 13.0369 59.4306C13.0369 55.7248 10.1178 52.7203 6.51844 52.7203ZM8.76767 62.3032C8.17427 62.934 7.38606 63.3221 6.51844 63.3221C5.65081 63.3221 4.86261 62.934 4.2692 62.3032C3.59938 61.5914 3.1768 60.5694 3.1768 59.4306C3.1768 59.4306 3.1768 59.4246 3.1768 59.4216C3.1813 57.2772 4.67529 55.539 6.51844 55.539C8.36158 55.539 9.85558 57.2757 9.86007 59.4216C9.86007 59.4246 9.86007 59.4276 9.86007 59.4276C9.86007 60.5694 9.4375 61.5914 8.76767 62.3032Z" fill="#2C2C3A"/>
<path d="M9.80614 69.2352C9.39855 70.87 8.10685 72.0658 6.5724 72.0658C5.03794 72.0658 3.74475 70.87 3.33865 69.2352H0.0944214C0.60241 72.4509 3.30569 74.907 6.5739 74.907C9.8421 74.907 12.5439 72.4494 13.0534 69.2352H9.80614Z" fill="#2C2C3A"/>
</svg>
