<svg width="48" height="23" viewBox="0 0 48 23" fill="none" xmlns="http://www.w3.org/2000/svg">
<g clip-path="url(#clip0)">
<path d="M24.9071 19.9402C23.9794 19.8794 22.9097 19.7197 22.066 19.4796C21.908 19.4346 21.2536 19.1983 21.0872 19.1233C18.15 17.7865 16.1039 14.8685 16.1039 11.4831C16.1039 6.8398 19.9489 3.05756 24.678 3.05756C29.3652 3.05756 33.1842 6.77526 33.2499 11.3661H36.3474C36.2818 5.09795 31.0739 0.0180018 24.678 0.0180018C18.2439 0.0180018 13.007 5.1602 13.007 11.4831C13.007 15.8422 15.5022 19.6334 19.1556 21.5702C19.8152 21.913 20.762 22.2664 21.0834 22.3631C22.1248 22.6677 23.4029 22.8703 24.5405 22.955C24.9269 22.9835 26.276 22.9985 26.6692 23H48V19.9687H26.7051C26.4218 19.9687 25.1842 19.9582 24.9071 19.9402ZM26.7051 15.1805C26.4799 15.1805 25.3018 15.173 25.0842 15.155C24.7154 15.1243 24.181 15.0703 23.8373 14.993C23.4495 14.891 23.0853 14.756 22.9212 14.6674C21.7705 14.0561 20.9864 12.8604 20.9864 11.4831C20.9864 9.47952 22.6379 7.85471 24.678 7.85471C26.6753 7.85471 28.2993 9.41573 28.3642 11.3661H31.3403C31.2777 7.80295 28.3214 4.93141 24.678 4.93141C20.9941 4.93141 18.008 7.86445 18.008 11.4831C18.008 14.0351 19.4968 16.239 21.6652 17.3185C21.9989 17.5105 22.6264 17.7116 22.8051 17.7573C23.4174 17.9156 24.2397 18.0236 24.9071 18.0716C25.1536 18.0919 26.3615 18.1009 26.6165 18.1024V18.1068H47.9992V15.1805H26.7051ZM11.0983 22.9888H7.98014V3.06432H3.42355V0H11.0983V22.9888ZM0 4.59535V7.54191H3.42355V22.9888H6.41955V4.59535H0Z" fill="#A0ACE3"/>
<path d="M42.4903 0.21405C41.3672 0.21405 40.4357 1.09396 40.4357 2.19817C40.4357 3.30237 41.3672 4.21754 42.4903 4.21754C43.6478 4.21754 44.5434 3.30237 44.5434 2.19817C44.5434 1.09396 43.6478 0.21405 42.4903 0.21405ZM42.4903 3.89198C41.5626 3.89198 40.7632 3.1756 40.7632 2.19817C40.7632 1.27025 41.5626 0.53586 42.4903 0.53586C43.4171 0.53586 44.2128 1.27025 44.2128 2.19817C44.2128 3.1756 43.4171 3.89198 42.4903 3.89198Z" fill="#A0ACE3"/>
<path d="M43.2731 2.74178C43.2731 2.51899 43.2395 2.31195 42.98 2.23019C43.3052 2.11917 43.3373 1.90988 43.3373 1.78311C43.3373 1.27076 42.8639 1.20551 42.6692 1.20551H41.7736V3.18962H42.147V2.37572H42.441C42.8639 2.37572 42.899 2.567 42.899 2.74178C42.899 3.0801 42.899 3.14386 42.98 3.18962H43.3541C43.2731 3.10936 43.3052 3.0471 43.2731 2.74178ZM42.5876 2.08617H42.147V1.4613H42.5241C42.7853 1.4613 42.9624 1.54231 42.9624 1.78311C42.9624 1.90988 42.899 2.08617 42.5876 2.08617Z" fill="#A0ACE3"/>
</g>
<defs>
<clipPath id="clip0">
<rect width="48" height="23" fill="white"/>
</clipPath>
</defs>
</svg>
