<svg width="90" height="27" viewBox="0 0 90 27" fill="none" xmlns="http://www.w3.org/2000/svg">
<g clip-path="url(#clip0)">
<path d="M26.3576 15.0361C28.2663 15.0361 28.6365 16.0448 28.6365 18.3997C28.6365 21.7252 27.1598 21.7252 26.2371 21.7252H24.8845V15.0361H26.3576ZM26.511 4.57138C27.857 4.57138 28.3956 5.82038 28.3956 7.54377C28.3956 9.73755 27.7126 10.5151 26.7522 10.5151H24.8845V4.57138H26.511ZM18.7814 0.0483398V26.25H27.2101C33.0701 26.25 34.3007 22.4004 34.3007 19.179C34.3007 16.4295 33.832 13.5752 30.7894 12.6305C32.8024 11.8038 34.3792 9.79577 34.3792 6.97665C34.3792 0.768521 30.1164 0.0485514 27.239 0.0485514H18.7812V0.0483398H18.7814Z" fill="#A0ACE3"/>
<path d="M43.5917 15.0361C45.4963 15.0361 45.8713 16.0448 45.8713 18.3997C45.8713 21.7248 44.3943 21.7248 43.4715 21.7248H42.1191V15.0361H43.5917ZM43.745 4.57138C45.0916 4.57138 45.6296 5.82038 45.6296 7.54377C45.6296 9.73755 44.9465 10.5145 43.9866 10.5145H42.119V4.57128L43.745 4.57138ZM36.0117 0.0483398V26.25H44.4447C50.3082 26.25 51.5381 22.4004 51.5381 19.179C51.5381 16.4286 51.0659 13.5742 48.0282 12.6301C50.0367 11.8033 51.6138 9.79577 51.6138 6.97612C51.6138 0.767992 47.3453 0.0485514 44.4726 0.0485514H36.0117V0.0483398Z" fill="#A0ACE3"/>
<path d="M62.5668 0.0483398C62.5668 0.0483398 60.278 8.93735 59.7603 10.5497C59.274 8.92994 57.1542 0.0483398 57.1542 0.0483398H51.4609C51.4609 0.0483398 56.6147 17.0485 56.6469 17.133V26.25H62.7499V17.1359C62.787 17.0455 67.9223 0.0486574 67.9223 0.0486574H62.5668V0.0483398Z" fill="#A0ACE3"/>
<path d="M79.6774 0.0483398C79.6774 0.0483398 77.3919 8.93735 76.8704 10.5497C76.3836 8.92994 74.2644 0.0483398 74.2644 0.0483398H68.5801C68.5801 0.0483398 73.7254 17.0485 73.7579 17.133V26.25H79.8599V17.1359C79.8974 17.0455 85.0328 0.0486574 85.0328 0.0486574H79.6772L79.6774 0.0483398Z" fill="#A0ACE3"/>
<path d="M7.25644 16.1423L8.83567 8.31911L10.4143 16.1423H7.25644ZM12.4567 26.2533H17.6719L12.382 0.0507812H5.2902L0 26.2528H5.21471L6.34362 20.6711H11.3282L12.4567 26.2533Z" fill="#A0ACE3"/>
<path d="M88.0561 0C89.1489 0 90.0003 0.877046 90.0003 1.94631C90.0003 3.02108 89.1489 3.89379 88.0561 3.89379C86.9658 3.89379 86.1055 3.02129 86.1055 1.94631C86.1055 0.876729 86.9656 0 88.0561 0ZM88.0561 3.60091C88.9375 3.60091 89.6332 2.85913 89.6332 1.9462C89.6332 1.02904 88.9333 0.296371 88.0561 0.296371C87.1743 0.296371 86.4765 1.02894 86.4765 1.9462C86.4765 2.85903 87.1702 3.60091 88.0561 3.60091ZM87.3443 0.959078H88.202C88.4101 0.959078 88.8441 1.01285 88.8441 1.52028C88.8441 1.6528 88.8104 1.84618 88.5181 1.96526V1.97679C88.7656 2.02284 88.7832 2.24565 88.7993 2.44305C88.8153 2.74238 88.7993 2.79901 88.8759 2.90168H88.4982C88.4361 2.82494 88.4407 2.78007 88.4294 2.4603C88.4244 2.28364 88.4103 2.09852 88.0036 2.09852H87.7042V2.90158H87.3446L87.3443 0.959078ZM87.704 1.83168H88.1171C88.4242 1.83168 88.4759 1.65904 88.4759 1.51996C88.4759 1.28445 88.3164 1.22571 88.0877 1.22571H87.7041L87.704 1.83168Z" fill="#A0ACE3"/>
</g>
<defs>
<clipPath id="clip0">
<rect width="90" height="26.25" fill="white"/>
</clipPath>
</defs>
</svg>
