<svg width="44" height="42" viewBox="0 0 44 42" fill="none" xmlns="http://www.w3.org/2000/svg">
<path d="M26.8782 1.02147C26.6106 0.340491 26.0756 0 25.3216 0H15.2285C15.7393 0.389132 16.0068 0.972831 16.1284 1.289L32.4476 39.9104H43.319L26.8782 1.02147Z" fill="#A0ACE3"/>
<path d="M2.99145 29.8174H10.1174L18.2649 10.5553L14.4222 1.45937C14.1304 0.754073 13.7169 0.0974121 12.7441 0.0974121C11.9658 0.0974121 11.4551 0.389261 11.1389 1.0216L0.535057 25.6829C0.218887 26.4611 0 26.8503 0 27.5799C0 28.6986 0.851227 29.8174 2.99145 29.8174Z" fill="#A0ACE3"/>
<path d="M2.74797 31.5467H2.4318C1.55626 31.5467 0.899595 31.3522 0.4375 31.0603L5.35029 40.2049C5.93399 41.202 6.51769 41.6398 7.66077 41.6398C9.43618 41.6398 11.9899 40.2049 12.6465 39.7914L25.9986 31.5224L2.74797 31.5467Z" fill="#A0ACE3"/>
</svg>
