<svg width="77" height="23" viewBox="0 0 77 23" fill="none" xmlns="http://www.w3.org/2000/svg">
<g clip-path="url(#clip0)">
<path d="M22.5504 12.8085C24.1834 12.8085 24.5001 13.6678 24.5001 15.6738C24.5001 18.5066 23.2367 18.5066 22.4473 18.5066H21.2901V12.8085H22.5504ZM22.6816 3.89413C23.8332 3.89413 24.294 4.95809 24.294 6.42616C24.294 8.29494 23.7097 8.9573 22.888 8.9573H21.2901V3.89413H22.6816ZM16.0685 0.0411682V22.3611H23.2798C28.2933 22.3611 29.3462 19.0818 29.3462 16.3377C29.3462 13.9955 28.9452 11.564 26.342 10.7593C28.0643 10.0551 29.4133 8.34454 29.4133 5.94306C29.4133 0.654656 25.7663 0.0413485 23.3045 0.0413485H16.0684V0.0411682H16.0685Z" fill="#A0ACE3"/>
<path d="M37.2951 12.8085C38.9246 12.8085 39.2454 13.6678 39.2454 15.6738C39.2454 18.5063 37.9818 18.5063 37.1923 18.5063H36.0352V12.8085H37.2951ZM37.4263 3.89413C38.5784 3.89413 39.0386 4.95809 39.0386 6.42616C39.0386 8.29494 38.4542 8.95679 37.633 8.95679H36.0351V3.89404L37.4263 3.89413ZM30.81 0.0411682V22.3611H38.0249C43.0414 22.3611 44.0937 19.0818 44.0937 16.3377C44.0937 13.9947 43.6897 11.5632 41.0908 10.759C42.8092 10.0547 44.1585 8.34453 44.1585 5.94261C44.1585 0.654205 40.5065 0.0413485 38.0488 0.0413485H30.81V0.0411682Z" fill="#A0ACE3"/>
<path d="M53.5294 0.0411682C53.5294 0.0411682 51.5712 7.61329 51.1282 8.98677C50.7122 7.60698 48.8986 0.0411682 48.8986 0.0411682H44.0276C44.0276 0.0411682 48.437 14.5228 48.4646 14.5948V22.3611H53.686V14.5972C53.7178 14.5202 58.1113 0.0414388 58.1113 0.0414388H53.5294V0.0411682Z" fill="#A0ACE3"/>
<path d="M68.1684 0.0411682C68.1684 0.0411682 66.2131 7.61329 65.7669 8.98677C65.3504 7.60698 63.5373 0.0411682 63.5373 0.0411682H58.6741C58.6741 0.0411682 63.0762 14.5228 63.104 14.5948V22.3611H68.3246V14.5972C68.3566 14.5202 72.7503 0.0414388 72.7503 0.0414388H68.1683L68.1684 0.0411682Z" fill="#A0ACE3"/>
<path d="M6.20829 13.7508L7.55941 7.08663L8.91001 13.7508H6.20829ZM10.6574 22.3639H15.1193L10.5935 0.0432434H4.52606L0 22.3635H4.46147L5.42732 17.6087H9.69191L10.6574 22.3639Z" fill="#A0ACE3"/>
<path d="M75.3369 0C76.2718 0 77.0002 0.747113 77.0002 1.65797C77.0002 2.57351 76.2718 3.31693 75.3369 3.31693C74.4041 3.31693 73.668 2.57369 73.668 1.65797C73.668 0.746843 74.4039 0 75.3369 0ZM75.3369 3.06744C76.091 3.06744 76.6862 2.43556 76.6862 1.65787C76.6862 0.87659 76.0874 0.252464 75.3369 0.252464C74.5824 0.252464 73.9854 0.876504 73.9854 1.65787C73.9854 2.43547 74.5789 3.06744 75.3369 3.06744ZM74.7279 0.816992H75.4617C75.6397 0.816992 76.0111 0.862798 76.0111 1.29505C76.0111 1.40794 75.9822 1.57267 75.7321 1.67411V1.68393C75.9439 1.72316 75.959 1.91296 75.9727 2.08112C75.9864 2.3361 75.9727 2.38434 76.0383 2.4718H75.7151C75.662 2.40643 75.6659 2.36821 75.6563 2.09581C75.652 1.94532 75.6399 1.78763 75.292 1.78763H75.0358V2.47172H74.7281L74.7279 0.816992ZM75.0356 1.56032H75.3891C75.6518 1.56032 75.696 1.41326 75.696 1.29478C75.696 1.09416 75.5596 1.04412 75.3639 1.04412H75.0357L75.0356 1.56032Z" fill="#A0ACE3"/>
</g>
<defs>
<clipPath id="clip0">
<rect width="77" height="23" fill="white"/>
</clipPath>
</defs>
</svg>
