<svg width="96" height="38" viewBox="0 0 96 38" fill="none" xmlns="http://www.w3.org/2000/svg">
<path fill-rule="evenodd" clip-rule="evenodd" d="M12.35 36.6135L6.7 34.5081V26.0351L12.35 27.9865V36.6135ZM13.4 36.6135L19.05 34.5595V26.0351L13.4 27.9865V36.6135ZM7.3 25.3676L13 23.7243L18.3 25.4703L13 27.3189L7.3 25.3676ZM5.65 24.7L0 22.646V14.1216L5.65 16.073V24.7ZM6.7 24.7L12.35 22.646V14.1216L6.7 16.073V24.7V24.7ZM0.6 13.5054L6.3 11.8622L11.6 13.6081L6.3 15.4568L0.6 13.5054ZM18.8 24.7L13.15 22.646V14.1216L18.8 16.073V24.7ZM19.85 24.7L25.5 22.646V14.1216L19.85 16.073V24.7ZM13.75 13.5054L19.45 11.8622L24.75 13.6081L19.45 15.4568L13.75 13.5054ZM25.55 12.8378L19.9 10.7838V2.25946L25.55 4.21081V12.8378V12.8378ZM26.55 12.8378L32.2 10.7838V2.25946L26.55 4.21081V12.8378ZM20.45 1.64324L26.15 0L31.45 1.74595L26.15 3.5946L20.45 1.64324ZM38.7 12.8378L33.05 10.7838V2.25946L38.7 4.21081V12.8378ZM39.75 12.8378L45.4 10.7838V2.25946L39.75 4.21081V12.8378ZM33.65 1.64324L39.35 0L44.65 1.74595L39.35 3.5946L33.65 1.64324Z" fill="#A0ACE3"/>
<path fill-rule="evenodd" clip-rule="evenodd" d="M35.85 31.0676L33.95 37.8459H33.15L31.65 32.8135L30.3 37.8459H29.45L27.45 31.0676H28.45L29.9 36.1L31.25 31.0676H32L33.5 36.1L35 31.0676H35.85Z" fill="#A0ACE3"/>
<path fill-rule="evenodd" clip-rule="evenodd" d="M35.85 31.0676L33.95 37.8459H33.15L31.65 32.8135L30.3 37.8459H29.45L27.45 31.0676H28.45L29.9 36.1L31.25 31.0676H32L33.5 36.1L35 31.0676H35.85Z" fill="#A0ACE3"/>
<path fill-rule="evenodd" clip-rule="evenodd" d="M41.05 35.7919L42 35.9973C41.85 36.5622 41.5 37.0757 41 37.4351C40.5 37.7946 39.9 38 39.2 38C38.3 38 37.6 37.6919 37 37.0243C36.45 36.3567 36.15 35.5351 36.15 34.4567C36.15 33.3784 36.45 32.5054 37 31.8378C37.6 31.1703 38.3 30.8622 39.15 30.8622C40 30.8622 40.7 31.1703 41.2 31.7865C41.7 32.4027 42 33.327 42 34.5081H37.2C37.2 35.5351 37.4 36.2027 37.8 36.5622C38.2 36.9216 38.65 37.0757 39.1 37.0757C40.15 37.127 40.75 36.6649 41.05 35.7919ZM41 33.7378C41 33.3784 40.95 33.0189 40.8 32.7108C40.7 32.4027 40.5 32.1459 40.25 31.9405C40 31.7351 39.65 31.6324 39.3 31.6324C38.8 31.6324 38.35 31.8378 38 32.1973C37.65 32.5567 37.45 33.0703 37.4 33.6865L41 33.7378Z" fill="#A0ACE3"/>
<path fill-rule="evenodd" clip-rule="evenodd" d="M41.05 35.7919L42 35.9973C41.85 36.5622 41.5 37.0757 41 37.4351C40.5 37.7946 39.9 38 39.2 38C38.3 38 37.6 37.6919 37 37.0243C36.45 36.3567 36.15 35.5351 36.15 34.4567C36.15 33.3784 36.45 32.5054 37 31.8378C37.6 31.1703 38.3 30.8622 39.15 30.8622C40 30.8622 40.7 31.1703 41.2 31.7865C41.7 32.4027 42 33.327 42 34.5081H37.2C37.2 35.5351 37.4 36.2027 37.8 36.5622C38.2 36.9216 38.65 37.0757 39.1 37.0757C40.15 37.127 40.75 36.6649 41.05 35.7919ZM41 33.7378C41 33.3784 40.95 33.0189 40.8 32.7108C40.7 32.4027 40.5 32.1459 40.25 31.9405C40 31.7351 39.65 31.6324 39.3 31.6324C38.8 31.6324 38.35 31.8378 38 32.1973C37.65 32.5567 37.45 33.0703 37.4 33.6865L41 33.7378Z" fill="#A0ACE3"/>
<path fill-rule="evenodd" clip-rule="evenodd" d="M44 37.7946H43.5V28.6541H44.5V32.1459C44.95 31.273 45.6 30.8108 46.45 30.8108C47.2 30.8108 47.85 31.1189 48.35 31.7351C48.85 32.3513 49.1 33.2243 49.1 34.4054C49.1 35.4324 48.85 36.2541 48.35 36.9216C47.85 37.5892 47.2 37.9486 46.4 37.9486C45.5 37.9486 44.8 37.5378 44.35 36.6649L44 37.7946ZM44.5 35.1757C44.55 35.8946 44.75 36.3568 45.1 36.6649C45.45 36.973 45.85 37.127 46.25 37.127C46.75 37.127 47.2 36.8703 47.5 36.4081C47.8 35.9459 48 35.3297 48 34.5081C48 33.6351 47.85 32.9676 47.55 32.454C47.25 31.9405 46.8 31.6838 46.25 31.6838C45.8 31.6838 45.45 31.8378 45.1 32.1973C44.75 32.5568 44.55 33.0189 44.5 33.5838V35.1757Z" fill="#A0ACE3"/>
<path fill-rule="evenodd" clip-rule="evenodd" d="M44 37.7946H43.5V28.6541H44.5V32.1459C44.95 31.273 45.6 30.8108 46.45 30.8108C47.2 30.8108 47.85 31.1189 48.35 31.7351C48.85 32.3513 49.1 33.2243 49.1 34.4054C49.1 35.4324 48.85 36.2541 48.35 36.9216C47.85 37.5892 47.2 37.9486 46.4 37.9486C45.5 37.9486 44.8 37.5378 44.35 36.6649L44 37.7946ZM44.5 35.1757C44.55 35.8946 44.75 36.3568 45.1 36.6649C45.45 36.973 45.85 37.127 46.25 37.127C46.75 37.127 47.2 36.8703 47.5 36.4081C47.8 35.9459 48 35.3297 48 34.5081C48 33.6351 47.85 32.9676 47.55 32.454C47.25 31.9405 46.8 31.6838 46.25 31.6838C45.8 31.6838 45.45 31.8378 45.1 32.1973C44.75 32.5568 44.55 33.0189 44.5 33.5838V35.1757Z" fill="#A0ACE3"/>
<path fill-rule="evenodd" clip-rule="evenodd" d="M51.7 36.0486L52.7 35.8432C52.9 36.7162 53.6 37.127 54.75 37.127C55.2 37.127 55.55 37.0243 55.85 36.8189C56.15 36.6135 56.3 36.3568 56.3 35.9973C56.3 35.4838 55.9 35.1243 55.15 34.9703L53.75 34.7135C53.2 34.6108 52.75 34.4054 52.45 34.0973C52.15 33.7892 51.95 33.3784 51.95 32.8649C51.95 32.3 52.15 31.8378 52.6 31.427C53.05 31.0676 53.65 30.8622 54.35 30.8622C55.8 30.8622 56.65 31.427 57 32.6081L56.05 32.8135C55.8 32.0946 55.25 31.7351 54.4 31.7351C54 31.7351 53.65 31.8378 53.35 31.9919C53.1 32.1459 52.95 32.4027 52.95 32.7108C52.95 33.2243 53.3 33.5324 53.95 33.6351L55.25 33.8919C56.6 34.1486 57.25 34.8162 57.25 35.8946C57.25 36.5108 57 37.0243 56.5 37.3838C56 37.7432 55.35 37.9486 54.5 37.9486C53.05 38 52.1 37.3838 51.7 36.0486Z" fill="#A0ACE3"/>
<path fill-rule="evenodd" clip-rule="evenodd" d="M51.7 36.0486L52.7 35.8432C52.9 36.7162 53.6 37.127 54.75 37.127C55.2 37.127 55.55 37.0243 55.85 36.8189C56.15 36.6135 56.3 36.3568 56.3 35.9973C56.3 35.4838 55.9 35.1243 55.15 34.9703L53.75 34.7135C53.2 34.6108 52.75 34.4054 52.45 34.0973C52.15 33.7892 51.95 33.3784 51.95 32.8649C51.95 32.3 52.15 31.8378 52.6 31.427C53.05 31.0676 53.65 30.8622 54.35 30.8622C55.8 30.8622 56.65 31.427 57 32.6081L56.05 32.8135C55.8 32.0946 55.25 31.7351 54.4 31.7351C54 31.7351 53.65 31.8378 53.35 31.9919C53.1 32.1459 52.95 32.4027 52.95 32.7108C52.95 33.2243 53.3 33.5324 53.95 33.6351L55.25 33.8919C56.6 34.1486 57.25 34.8162 57.25 35.8946C57.25 36.5108 57 37.0243 56.5 37.3838C56 37.7432 55.35 37.9486 54.5 37.9486C53.05 38 52.1 37.3838 51.7 36.0486Z" fill="#A0ACE3"/>
<path fill-rule="evenodd" clip-rule="evenodd" d="M62.8 35.7919L63.75 35.9973C63.6 36.5622 63.25 37.0757 62.75 37.4351C62.25 37.7946 61.65 38 60.95 38C60.05 38 59.3 37.6919 58.75 37.0243C58.2 36.3567 57.9 35.5351 57.9 34.4567C57.9 33.3784 58.2 32.5054 58.75 31.8378C59.35 31.1703 60.05 30.8622 60.9 30.8622C61.75 30.8622 62.45 31.1703 62.95 31.7865C63.45 32.4027 63.75 33.327 63.75 34.5081H58.95C58.95 35.5351 59.15 36.2027 59.55 36.5622C59.95 36.9216 60.4 37.0757 60.85 37.0757C61.9 37.127 62.5 36.6649 62.8 35.7919ZM62.75 33.7378C62.75 33.3784 62.7 33.0189 62.55 32.7108C62.45 32.4027 62.25 32.1459 62 31.9405C61.75 31.7351 61.4 31.6324 61.05 31.6324C60.55 31.6324 60.1 31.8378 59.75 32.1973C59.4 32.5567 59.2 33.0703 59.15 33.6865L62.75 33.7378Z" fill="#A0ACE3"/>
<path fill-rule="evenodd" clip-rule="evenodd" d="M62.8 35.7919L63.75 35.9973C63.6 36.5622 63.25 37.0757 62.75 37.4351C62.25 37.7946 61.65 38 60.95 38C60.05 38 59.3 37.6919 58.75 37.0243C58.2 36.3567 57.9 35.5351 57.9 34.4567C57.9 33.3784 58.2 32.5054 58.75 31.8378C59.35 31.1703 60.05 30.8622 60.9 30.8622C61.75 30.8622 62.45 31.1703 62.95 31.7865C63.45 32.4027 63.75 33.327 63.75 34.5081H58.95C58.95 35.5351 59.15 36.2027 59.55 36.5622C59.95 36.9216 60.4 37.0757 60.85 37.0757C61.9 37.127 62.5 36.6649 62.8 35.7919ZM62.75 33.7378C62.75 33.3784 62.7 33.0189 62.55 32.7108C62.45 32.4027 62.25 32.1459 62 31.9405C61.75 31.7351 61.4 31.6324 61.05 31.6324C60.55 31.6324 60.1 31.8378 59.75 32.1973C59.4 32.5567 59.2 33.0703 59.15 33.6865L62.75 33.7378Z" fill="#A0ACE3"/>
<path fill-rule="evenodd" clip-rule="evenodd" d="M66 37.7946H65V31.0676H65.9V32.6595C66.2 31.9405 66.55 31.427 66.85 31.2216C67.15 31.0162 67.5 30.9135 67.85 30.9135C67.95 30.9135 68.1 30.9135 68.25 30.9135V31.9405H68C67.45 31.9405 66.95 32.1459 66.6 32.6081C66.25 33.0189 66.05 33.5838 66 34.3027V37.7946Z" fill="#A0ACE3"/>
<path fill-rule="evenodd" clip-rule="evenodd" d="M66 37.7946H65V31.0676H65.9V32.6595C66.2 31.9405 66.55 31.427 66.85 31.2216C67.15 31.0162 67.5 30.9135 67.85 30.9135C67.95 30.9135 68.1 30.9135 68.25 30.9135V31.9405H68C67.45 31.9405 66.95 32.1459 66.6 32.6081C66.25 33.0189 66.05 33.5838 66 34.3027V37.7946Z" fill="#A0ACE3"/>
<path fill-rule="evenodd" clip-rule="evenodd" d="M74.6 31.0676L72.35 37.8459H71.3L68.95 31.0676H70.1L71.95 36.5622L73.75 31.0676H74.6Z" fill="#A0ACE3"/>
<path fill-rule="evenodd" clip-rule="evenodd" d="M74.6 31.0676L72.35 37.8459H71.3L68.95 31.0676H70.1L71.95 36.5622L73.75 31.0676H74.6Z" fill="#A0ACE3"/>
<path fill-rule="evenodd" clip-rule="evenodd" d="M75.4 28.7054H76.5V29.8865H75.4V28.7054ZM75.45 31.0676H76.5V37.846H75.45V31.0676Z" fill="#A0ACE3"/>
<path fill-rule="evenodd" clip-rule="evenodd" d="M75.4 28.7054H76.5V29.8865H75.4V28.7054ZM75.45 31.0676H76.5V37.846H75.45V31.0676Z" fill="#A0ACE3"/>
<path fill-rule="evenodd" clip-rule="evenodd" d="M81.85 35.4324L82.75 35.5865C82.6 36.3568 82.35 36.9216 81.9 37.3324C81.45 37.7433 80.9 37.9487 80.25 37.9487C79.35 37.9487 78.65 37.5892 78.2 36.9216C77.7 36.2541 77.5 35.3811 77.5 34.4054C77.5 33.3784 77.75 32.5054 78.25 31.8378C78.75 31.1703 79.45 30.8108 80.3 30.8108C81 30.8108 81.6 31.0162 82 31.4784C82.45 31.9406 82.7 32.5054 82.8 33.173L81.9 33.3784C81.75 32.2487 81.2 31.6838 80.3 31.6838C79.75 31.6838 79.3 31.9406 79 32.4027C78.7 32.9162 78.55 33.5324 78.55 34.3027C78.55 35.1757 78.7 35.8433 79 36.3054C79.3 36.7676 79.75 37.0243 80.25 37.0243C81.1 37.127 81.65 36.5622 81.85 35.4324Z" fill="#A0ACE3"/>
<path fill-rule="evenodd" clip-rule="evenodd" d="M81.85 35.4324L82.75 35.5865C82.6 36.3568 82.35 36.9216 81.9 37.3324C81.45 37.7433 80.9 37.9487 80.25 37.9487C79.35 37.9487 78.65 37.5892 78.2 36.9216C77.7 36.2541 77.5 35.3811 77.5 34.4054C77.5 33.3784 77.75 32.5054 78.25 31.8378C78.75 31.1703 79.45 30.8108 80.3 30.8108C81 30.8108 81.6 31.0162 82 31.4784C82.45 31.9406 82.7 32.5054 82.8 33.173L81.9 33.3784C81.75 32.2487 81.2 31.6838 80.3 31.6838C79.75 31.6838 79.3 31.9406 79 32.4027C78.7 32.9162 78.55 33.5324 78.55 34.3027C78.55 35.1757 78.7 35.8433 79 36.3054C79.3 36.7676 79.75 37.0243 80.25 37.0243C81.1 37.127 81.65 36.5622 81.85 35.4324Z" fill="#A0ACE3"/>
<path fill-rule="evenodd" clip-rule="evenodd" d="M88.55 35.7919L89.5 35.9973C89.35 36.5622 89 37.0757 88.5 37.4351C88 37.7946 87.4 38 86.7 38C85.8 38 85.05 37.6919 84.5 37.0243C83.95 36.3567 83.65 35.5351 83.65 34.4567C83.65 33.3784 83.95 32.5054 84.5 31.8378C85.1 31.1703 85.8 30.8622 86.65 30.8622C87.5 30.8622 88.2 31.1703 88.7 31.7865C89.2 32.4027 89.5 33.327 89.5 34.5081H84.7C84.7 35.5351 84.9 36.2027 85.3 36.5622C85.7 36.9216 86.15 37.0757 86.6 37.0757C87.65 37.127 88.2 36.6649 88.55 35.7919ZM88.5 33.7378C88.5 33.3784 88.45 33.0189 88.3 32.7108C88.2 32.4027 88 32.1459 87.75 31.9405C87.5 31.7351 87.15 31.6324 86.8 31.6324C86.3 31.6324 85.85 31.8378 85.5 32.1973C85.15 32.5567 84.95 33.0703 84.9 33.6865L88.5 33.7378Z" fill="#A0ACE3"/>
<path fill-rule="evenodd" clip-rule="evenodd" d="M88.55 35.7919L89.5 35.9973C89.35 36.5622 89 37.0757 88.5 37.4351C88 37.7946 87.4 38 86.7 38C85.8 38 85.05 37.6919 84.5 37.0243C83.95 36.3567 83.65 35.5351 83.65 34.4567C83.65 33.3784 83.95 32.5054 84.5 31.8378C85.1 31.1703 85.8 30.8622 86.65 30.8622C87.5 30.8622 88.2 31.1703 88.7 31.7865C89.2 32.4027 89.5 33.327 89.5 34.5081H84.7C84.7 35.5351 84.9 36.2027 85.3 36.5622C85.7 36.9216 86.15 37.0757 86.6 37.0757C87.65 37.127 88.2 36.6649 88.55 35.7919ZM88.5 33.7378C88.5 33.3784 88.45 33.0189 88.3 32.7108C88.2 32.4027 88 32.1459 87.75 31.9405C87.5 31.7351 87.15 31.6324 86.8 31.6324C86.3 31.6324 85.85 31.8378 85.5 32.1973C85.15 32.5567 84.95 33.0703 84.9 33.6865L88.5 33.7378Z" fill="#A0ACE3"/>
<path fill-rule="evenodd" clip-rule="evenodd" d="M90.2 36.0486L91.2 35.8432C91.4 36.7162 92.1 37.127 93.25 37.127C93.7 37.127 94.05 37.0243 94.35 36.8189C94.65 36.6135 94.8 36.3568 94.8 35.9973C94.8 35.4838 94.4 35.1243 93.65 34.9703L92.25 34.7135C91.7 34.6108 91.25 34.4054 90.95 34.0973C90.65 33.7892 90.45 33.3784 90.45 32.8649C90.45 32.3 90.65 31.8378 91.1 31.427C91.55 31.0676 92.15 30.8622 92.85 30.8622C94.3 30.8622 95.15 31.427 95.5 32.6081L94.55 32.8135C94.3 32.0946 93.75 31.7351 92.9 31.7351C92.5 31.7351 92.15 31.8378 91.85 31.9919C91.6 32.1459 91.45 32.4027 91.45 32.7108C91.45 33.2243 91.8 33.5324 92.45 33.6351L93.75 33.8919C95.1 34.1486 95.75 34.8162 95.75 35.8946C95.75 36.5108 95.5 37.0243 95 37.3838C94.5 37.7432 93.85 37.9486 93 37.9486C91.55 38 90.6 37.3838 90.2 36.0486Z" fill="#A0ACE3"/>
<path fill-rule="evenodd" clip-rule="evenodd" d="M90.2 36.0486L91.2 35.8432C91.4 36.7162 92.1 37.127 93.25 37.127C93.7 37.127 94.05 37.0243 94.35 36.8189C94.65 36.6135 94.8 36.3568 94.8 35.9973C94.8 35.4838 94.4 35.1243 93.65 34.9703L92.25 34.7135C91.7 34.6108 91.25 34.4054 90.95 34.0973C90.65 33.7892 90.45 33.3784 90.45 32.8649C90.45 32.3 90.65 31.8378 91.1 31.427C91.55 31.0676 92.15 30.8622 92.85 30.8622C94.3 30.8622 95.15 31.427 95.5 32.6081L94.55 32.8135C94.3 32.0946 93.75 31.7351 92.9 31.7351C92.5 31.7351 92.15 31.8378 91.85 31.9919C91.6 32.1459 91.45 32.4027 91.45 32.7108C91.45 33.2243 91.8 33.5324 92.45 33.6351L93.75 33.8919C95.1 34.1486 95.75 34.8162 95.75 35.8946C95.75 36.5108 95.5 37.0243 95 37.3838C94.5 37.7432 93.85 37.9486 93 37.9486C91.55 38 90.6 37.3838 90.2 36.0486Z" fill="#A0ACE3"/>
<path fill-rule="evenodd" clip-rule="evenodd" d="M67.1 16.5865V14.9432C67.1 14.7378 67.3 14.5324 67.5 14.5324H74.6C74.85 14.5324 75 14.6865 75 14.9432V16.3297C75 16.5865 74.8 16.8432 74.45 17.3568L70.8 22.7487C72.15 22.6973 73.6 22.9027 74.85 23.6216C75.15 23.7757 75.2 24.0324 75.25 24.2378V25.9838C75.25 26.2405 75 26.4973 74.75 26.3432C72.55 25.1622 69.65 25.0595 67.25 26.3432C67 26.4973 66.75 26.1892 66.75 25.9838V24.3919C66.75 24.1351 66.75 23.673 67 23.2622L71.25 16.9973H67.55C67.25 16.9973 67.1 16.8432 67.1 16.5865ZM41.7 26.7541H39.55C39.35 26.7541 39.2 26.6 39.15 26.3946V15.0459C39.15 14.8405 39.35 14.6351 39.55 14.6351H41.55C41.75 14.6351 41.95 14.7892 41.95 14.9946V16.4838H42C42.5 15.0459 43.5 14.3784 44.85 14.3784C46.2 14.3784 47.05 15.0459 47.65 16.4838C48.15 15.0459 49.35 14.3784 50.65 14.3784C51.55 14.3784 52.55 14.7378 53.15 15.6108C53.85 16.5865 53.7 17.973 53.7 19.1541V26.3432C53.7 26.5487 53.5 26.7541 53.3 26.7541H51.15C50.95 26.7541 50.75 26.5487 50.75 26.3432V20.3351C50.75 19.873 50.8 18.6405 50.7 18.2297C50.5 17.4081 50 17.2027 49.4 17.2027C48.9 17.2027 48.35 17.5622 48.1 18.127C47.9 18.6919 47.9 19.6676 47.9 20.2838V26.2919C47.9 26.4973 47.7 26.7027 47.5 26.7027H45.35C45.15 26.7027 44.95 26.4973 44.95 26.2919V20.2838C44.95 19 45.15 17.1514 43.6 17.1514C42.05 17.1514 42.1 18.9487 42.1 20.2838V26.2919C42.1 26.5487 41.95 26.7541 41.7 26.7541ZM80.2 14.3784C83.4 14.3784 85.1 17.2027 85.1 20.7973C85.1 24.2892 83.2 27.0108 80.2 27.0108C77.1 27.0108 75.4 24.1865 75.4 20.6946C75.4 17.1 77.1 14.3784 80.2 14.3784ZM80.2 16.9459C78.6 16.9459 78.5 19.1541 78.5 20.5405C78.5 21.927 78.5 24.5973 80.15 24.5973C81.8 24.5973 81.9 22.4919 81.9 21.0541C81.9 20.0784 81.85 18.9487 81.6 18.0243C81.35 17.2541 80.9 16.9459 80.2 16.9459ZM89.7 26.7541H87.55C87.35 26.7541 87.15 26.5487 87.15 26.3432V14.9432C87.15 14.7378 87.35 14.5838 87.55 14.5838H89.55C89.75 14.5838 89.9 14.7378 89.95 14.8919V16.6378H90C90.6 15.0973 91.45 14.327 92.95 14.327C93.9 14.327 94.85 14.6865 95.45 15.6622C96 16.5865 96 18.127 96 19.2054V26.3432C96 26.5487 95.8 26.7027 95.6 26.7027H93.45C93.25 26.7027 93.1 26.5487 93.05 26.3432V20.1811C93.05 18.9487 93.2 17.1 91.7 17.1C91.2 17.1 90.7 17.4595 90.45 18.0243C90.15 18.7432 90.1 19.4108 90.1 20.1811V26.2919C90.1 26.5487 89.9 26.7541 89.7 26.7541ZM61.65 21.3108C61.65 22.1838 61.65 22.9027 61.25 23.673C60.9 24.2892 60.35 24.7 59.75 24.7C58.9 24.7 58.45 24.0324 58.45 23.1081C58.45 21.2081 60.1 20.9 61.65 20.9V21.3108ZM63.85 26.7027C63.7 26.8568 63.5 26.8568 63.35 26.7541C62.65 26.1378 62.5 25.8811 62.1 25.2649C60.9 26.4973 60.1 26.8568 58.55 26.8568C56.75 26.8568 55.3 25.727 55.3 23.4162C55.3 21.6189 56.25 20.3865 57.6 19.7703C58.75 19.2568 60.4 19.1541 61.65 19V18.6919C61.65 18.1784 61.7 17.5622 61.4 17.1C61.15 16.6892 60.65 16.5351 60.2 16.5351C59.4 16.5351 58.65 16.9459 58.45 17.8703C58.4 18.0757 58.25 18.2811 58.1 18.2811L56 18.0243C55.8 17.973 55.65 17.8189 55.7 17.5622C56.2 14.9432 58.45 14.173 60.5 14.173C61.55 14.173 62.9 14.4811 63.75 15.2514C64.8 16.2784 64.7 17.6135 64.7 19.0514V22.4919C64.7 23.5189 65.1 23.9811 65.5 24.546C65.65 24.7514 65.65 25.0081 65.5 25.1108C65.05 25.6243 64.3 26.3432 63.85 26.7027ZM33.65 21.3108C33.65 22.1838 33.65 22.9027 33.25 23.673C32.9 24.2892 32.35 24.7 31.75 24.7C30.9 24.7 30.45 24.0324 30.45 23.1081C30.45 21.2081 32.1 20.9 33.65 20.9V21.3108ZM35.8 26.7027C35.65 26.8568 35.45 26.8568 35.3 26.7541C34.6 26.1378 34.45 25.8811 34.05 25.2649C32.85 26.4973 32.05 26.8568 30.5 26.8568C28.7 26.8568 27.25 25.727 27.25 23.4162C27.25 21.6189 28.2 20.3865 29.55 19.7703C30.7 19.2568 32.35 19.1541 33.6 19V18.6919C33.6 18.1784 33.65 17.5622 33.35 17.1C33.1 16.6892 32.6 16.5351 32.15 16.5351C31.35 16.5351 30.6 16.9459 30.4 17.8703C30.35 18.0757 30.2 18.2811 30.05 18.2811L27.95 18.0243C27.75 17.973 27.6 17.8189 27.65 17.5622C28.15 14.9432 30.4 14.173 32.45 14.173C33.5 14.173 34.85 14.4811 35.7 15.2514C36.75 16.2784 36.65 17.6135 36.65 19.0514V22.4919C36.65 23.5189 37.05 23.9811 37.45 24.546C37.6 24.7514 37.6 25.0081 37.45 25.1108C37.05 25.6243 36.25 26.3432 35.8 26.7027Z" fill="#A0ACE3"/>
</svg>
