<svg width="111" height="22" viewBox="0 0 111 22" fill="none" xmlns="http://www.w3.org/2000/svg">
<path d="M50.0078 11.03C50.0078 15.406 47.4641 17.4441 44.2266 17.4441H42.2609V14.8665H44.0531C46.0187 14.8665 47.2906 13.7875 47.2906 11.03C47.2906 8.33242 46.0766 7.01363 43.9953 7.01363C42.0297 7.01363 40.5844 8.27248 40.5844 11.03V22H37.925V4.73569H40.5844V6.23433H40.9891C41.8563 4.97548 43.1859 4.43597 44.5734 4.43597C47.5219 4.37602 50.0078 6.59401 50.0078 11.03ZM32.4328 9.89101L30.6406 9.71117C29.2531 9.59128 28.5016 9.17166 28.5016 8.33242C28.5016 7.31335 29.4266 6.77384 30.8141 6.77384C32.2016 6.77384 33.1266 7.43324 33.1844 8.45232H35.7859C35.6703 5.99455 33.8203 4.43597 30.8719 4.43597C27.8656 4.43597 25.9 6.0545 25.9 8.45232C25.9 10.4905 27.1141 11.7493 29.8891 12.049L31.6812 12.2289C32.7797 12.3488 33.5312 12.5886 33.5312 13.6676C33.5312 14.6267 32.8375 15.3461 31.0453 15.3461C29.3688 15.3461 28.5594 14.5668 28.2703 13.4877H25.4953C25.7844 15.8856 27.6922 17.7439 31.0453 17.7439C34.1672 17.7439 36.2484 16.0054 36.2484 13.4877C36.1328 11.2698 34.6875 10.1308 32.4328 9.89101ZM60.3563 13.4877C59.9516 14.5068 58.9109 15.2262 57.5234 15.2262C55.5578 15.2262 54.1125 13.9074 54.1125 11.03C54.1125 8.33242 55.4422 6.77384 57.5812 6.77384C59.4312 6.77384 60.5297 7.91281 60.5875 9.71117H55.7891V11.7493H63.2469V10.4305C63.2469 6.77384 60.8766 4.37602 57.5812 4.37602C54.4594 4.37602 51.5109 6.594 51.5109 11.0899C51.5109 15.5858 54.5172 17.8038 57.5812 17.8038C60.4141 17.8038 62.4375 16.0055 63.0734 13.5477H60.3563V13.4877ZM18.1531 4.37602C15.2047 4.37602 13.0078 5.9346 12.7766 8.39237H15.6672C15.8984 7.49319 16.65 6.83379 18.1531 6.83379C20.1187 6.83379 20.7547 7.91281 20.7547 9.17166V13.5477C19.6563 14.8665 18.3844 15.4659 17.1125 15.4659C15.7828 15.4659 14.8578 14.8065 14.8578 13.6076C14.8578 12.4687 15.5516 11.7493 16.9391 11.7493H19.0781V9.71117H16.8813C13.8172 9.71117 12.1406 11.2698 12.1406 13.7275C12.1406 16.0054 13.8172 17.7439 16.5344 17.7439C18.0375 17.7439 19.425 17.0845 20.4078 16.3651H20.8125V17.4441H23.4719V8.93188C23.4141 5.81471 21.3328 4.37602 18.1531 4.37602ZM0 17.4441H2.65937V0H0V17.4441ZM11.2734 4.73569H8.03594L4.1625 10.0708V11.7493L8.15156 17.5041H11.4469L6.76406 10.9101L11.2734 4.73569ZM108.052 4.73569L105.855 9.77112C105.334 10.97 104.814 12.1689 104.641 12.9482H104.236C104.063 12.1689 103.542 10.97 103.022 9.77112L100.825 4.67575H97.8766L103.022 16.1253L100.478 21.8801H103.311L111 4.73569H108.052ZM97.2984 4.73569H94.0609L90.1875 10.0708V11.7493L94.1766 17.5041H97.4719L92.7891 10.9101L97.2984 4.73569ZM80.5328 9.89101L78.7406 9.71117C77.3531 9.59128 76.6016 9.17166 76.6016 8.33242C76.6016 7.31335 77.5266 6.77384 78.9141 6.77384C80.3016 6.77384 81.2266 7.43324 81.2844 8.45232H83.8859C83.7703 5.99455 81.9203 4.43597 78.9719 4.43597C75.9656 4.43597 74 6.0545 74 8.45232C74 10.4905 75.2141 11.7493 77.9891 12.049L79.7812 12.2289C80.8797 12.3488 81.6312 12.5886 81.6312 13.6676C81.6312 14.6267 80.9375 15.3461 79.1453 15.3461C77.4687 15.3461 76.6594 14.5668 76.3703 13.4877H73.5953C73.8844 15.8856 75.7922 17.7439 79.1453 17.7439C82.2672 17.7439 84.3484 16.0054 84.3484 13.4877C84.2328 11.2698 82.8453 10.1308 80.5328 9.89101ZM86.0828 17.4441H88.7422V0H86.0828V17.4441ZM68.3922 6.17439H67.9875V4.67575H65.3281V17.4441H67.9875V10.7902C67.9875 8.51226 69.0281 7.19346 70.9938 7.19346H72.6703V4.37602H71.6875C69.8953 4.37602 69.0859 5.09537 68.3922 6.17439Z" fill="#A0ACE3"/>
</svg>
