<svg width="125" height="26" viewBox="0 0 125 26" fill="none" xmlns="http://www.w3.org/2000/svg">
<path fill-rule="evenodd" clip-rule="evenodd" d="M0 0H12.6878V12.3659H0V0Z" fill="#A0ACE3"/>
<path fill-rule="evenodd" clip-rule="evenodd" d="M13.9891 0H26.6768C26.6768 4.12195 26.6768 8.2439 26.6768 12.3659C22.4476 12.3659 18.2183 12.3659 13.9891 12.3659C13.9891 8.2439 13.9891 4.12195 13.9891 0Z" fill="#A0ACE3"/>
<path fill-rule="evenodd" clip-rule="evenodd" d="M114.45 4.69265C115.621 3.93167 117.118 3.86826 118.419 4.24875C118.419 5.00972 118.419 5.7707 118.419 6.53168C117.768 6.27802 117.053 6.08777 116.402 6.34143C115.882 6.53167 115.556 7.03899 115.491 7.60972C115.361 8.24387 115.426 8.94143 115.426 9.63899C116.792 9.63899 118.094 9.63899 119.46 9.63899C119.46 8.8146 119.46 7.92679 119.46 7.1024C120.371 6.84875 121.282 6.59509 122.193 6.27802C122.193 7.41948 122.193 8.49753 122.193 9.63899C123.104 9.63899 124.015 9.63899 124.926 9.63899V11.7951C124.015 11.7317 123.104 11.7951 122.193 11.7951C122.193 13.0634 122.193 14.2683 122.193 15.5366C122.193 16.2341 122.128 16.9317 122.258 17.6292C122.323 18.0097 122.453 18.517 122.844 18.7073C123.494 19.0878 124.34 18.8975 124.926 18.517V20.7365C124.145 21.0536 123.234 21.1805 122.388 21.117C121.607 21.0536 120.761 20.8 120.241 20.1658C119.655 19.4683 119.46 18.517 119.46 17.6292C119.46 15.7268 119.46 13.8244 119.46 11.8585C118.094 11.8585 116.792 11.8585 115.426 11.8585C115.426 14.839 115.426 17.8829 115.426 20.8634H112.693C112.693 17.8829 112.693 14.839 112.693 11.8585C112.043 11.8585 111.392 11.8585 110.806 11.8585C110.806 11.1609 110.806 10.4 110.806 9.70241C111.457 9.70241 112.043 9.70241 112.693 9.70241C112.758 8.75119 112.563 7.79997 112.889 6.84875C113.149 5.96094 113.669 5.19997 114.45 4.69265ZM55.696 4.88289C56.2816 4.81948 56.8672 5.00972 57.1925 5.39021C57.648 5.83411 57.713 6.59509 57.3877 7.1024C57.0624 7.73655 56.2165 7.99021 55.5659 7.86338C54.8502 7.73655 54.2646 7.10241 54.2646 6.34143C54.2646 5.64387 54.9152 4.94631 55.696 4.88289ZM34.6148 5.19996H38.5838C39.82 8.24387 41.0563 11.3512 42.2925 14.3951C42.6179 15.1561 42.8781 15.917 43.2685 16.678C44.8951 12.8097 46.4567 9.00484 48.0833 5.13655C49.3847 5.13655 50.6209 5.13655 51.9222 5.13655C51.9222 10.3366 51.9222 15.5365 51.9222 20.7365C51.0113 20.7365 50.1004 20.7365 49.1244 20.7365C49.1244 16.8683 49.1244 13.0634 49.1244 9.19509C49.1244 9.00484 49.1244 8.87801 49.1244 8.68777C49.0593 8.75118 48.9943 8.87801 48.9943 8.94143C47.4327 12.8731 45.8061 16.8048 44.2445 20.7365C43.5938 20.7365 42.9432 20.7365 42.2925 20.7365C40.6659 16.8048 39.0393 12.8731 37.4126 8.94143C37.3476 8.87801 37.3476 8.75118 37.2825 8.68777C37.2174 10.4 37.2825 12.0487 37.2825 13.7609C37.2825 16.1073 37.2825 18.3902 37.2825 20.7365C36.4366 20.7365 35.5257 20.7365 34.6799 20.7365C34.6148 15.6 34.6148 10.4 34.6148 5.19996ZM63.2436 9.63899C64.5449 9.2585 65.9763 9.2585 67.3427 9.63899C67.603 9.7024 67.8632 9.82923 68.1235 9.95606C68.1235 10.7805 68.1235 11.6683 68.1235 12.4926C67.2126 11.8585 66.1065 11.4146 65.0004 11.5414C64.0894 11.6048 63.2436 12.0487 62.7231 12.7463C62.0073 13.6341 61.8772 14.7756 62.0074 15.8536C62.0724 16.678 62.4628 17.5024 63.1135 18.0731C63.8292 18.6439 64.8052 18.8975 65.651 18.8341C66.5619 18.7073 67.4078 18.3902 68.1235 17.8195C68.1235 18.6439 68.1235 19.4048 68.1235 20.2292C67.0174 20.8634 65.651 21.0536 64.3497 20.9902C63.0484 20.9268 61.7471 20.4195 60.7711 19.5317C59.7301 18.5805 59.1445 17.1853 59.0794 15.7902C59.0143 14.3317 59.3397 12.8731 60.1855 11.6683C60.9012 10.6536 62.0073 9.95606 63.2436 9.63899ZM93.2388 9.44875C94.5401 9.2585 95.8414 9.38533 97.0126 9.82923C97.0126 10.6536 97.0126 11.478 97.0126 12.3024C96.1667 11.7317 95.1256 11.4146 94.1497 11.478C93.6291 11.478 93.0436 11.7317 92.8484 12.1756C92.6532 12.6195 92.7833 13.2536 93.2388 13.5707C94.0195 14.078 94.9305 14.2683 95.7763 14.7756C96.427 15.0927 97.0126 15.6 97.3379 16.2341C97.9235 17.439 97.6632 19.0878 96.6222 19.9756C95.5811 20.9268 94.1497 21.1805 92.7833 21.117C91.8073 21.0536 90.8964 20.8634 89.9855 20.4829C89.9855 19.5951 89.9855 18.7707 89.9855 17.8829C90.7012 18.3902 91.5471 18.7707 92.458 18.9609C93.1086 19.0878 93.7593 19.0878 94.3449 18.7707C94.9305 18.517 94.9955 17.7561 94.6702 17.2487C94.3449 16.8683 93.8894 16.678 93.499 16.4878C92.7182 16.1073 91.8724 15.8536 91.1567 15.2829C90.6361 14.9024 90.3108 14.3951 90.1156 13.7609C89.9204 12.8731 89.9855 11.8585 90.506 11.0975C91.0916 10.1463 92.1326 9.63899 93.2388 9.44875ZM74.2396 9.76582C75.0204 9.32192 75.9314 9.2585 76.7772 9.57558C76.7772 10.4634 76.7772 11.3512 76.7772 12.239C76.2567 11.9219 75.541 11.7317 74.8903 11.7951C74.1095 11.8585 73.5239 12.4926 73.1986 13.1268C72.8733 13.8244 72.8082 14.6487 72.8082 15.4097C72.8082 17.1853 72.8082 18.9609 72.8082 20.7365H70.0755C70.0755 16.9951 70.0755 13.317 70.0755 9.57558C70.9864 9.57558 71.8973 9.57558 72.8082 9.57558C72.8082 10.2097 72.8082 10.8439 72.8082 11.478C73.1335 10.8439 73.5239 10.1463 74.2396 9.76582ZM54.5248 9.63899C55.4357 9.63899 56.3467 9.63899 57.2576 9.63899C57.2576 13.3805 57.2576 17.0585 57.2576 20.8H54.5248C54.5248 17.0585 54.5248 13.3805 54.5248 9.63899ZM81.8523 9.38533C83.1536 9.19509 84.5851 9.32192 85.7562 9.82923C86.7973 10.2731 87.7082 11.1609 88.1636 12.1756C88.6842 13.2536 88.8143 14.5219 88.6842 15.7268C88.6191 16.8683 88.2287 18.0731 87.4479 18.9609C86.6671 19.9122 85.561 20.6097 84.3248 20.8634C83.2837 21.0536 82.1776 21.0536 81.1366 20.8634C79.9003 20.6097 78.7292 19.9122 77.9484 18.8341C77.1025 17.6292 76.8423 16.1073 76.9724 14.6487C77.0375 13.4439 77.4279 12.1756 78.2086 11.2244C79.1196 10.2097 80.4209 9.57558 81.8523 9.38533ZM82.6331 11.5414C81.9824 11.6048 81.3318 11.7951 80.8113 12.239C80.1606 12.8097 79.8353 13.6975 79.7702 14.5853C79.7051 15.5366 79.7702 16.5512 80.1606 17.3756C80.4859 18.0731 81.1366 18.5805 81.8523 18.7707C82.568 18.9609 83.3488 18.9609 84.0645 18.6439C84.6501 18.3902 85.1706 17.9463 85.4309 17.3756C85.8213 16.5512 85.8864 15.5366 85.8213 14.6487C85.7562 13.8244 85.496 12.9366 84.8453 12.3024C84.3248 11.7317 83.4789 11.478 82.6331 11.5414ZM103.714 9.38533C105.081 9.19509 106.512 9.32192 107.813 9.95606C108.92 10.4634 109.765 11.478 110.156 12.5561C110.481 13.3805 110.611 14.3317 110.611 15.2195C110.611 16.5512 110.221 17.9463 109.375 19.0244C108.529 20.039 107.293 20.7366 105.992 20.9268C104.69 21.117 103.324 21.0536 102.153 20.6097C100.916 20.1658 99.8754 19.1512 99.3549 17.9463C98.8344 16.7414 98.7693 15.3463 98.8994 14.078C99.0946 12.8097 99.6802 11.478 100.721 10.6536C101.502 9.95607 102.608 9.57558 103.714 9.38533ZM104.43 11.5414C103.649 11.6048 102.933 11.9219 102.413 12.4926C101.892 13.1268 101.632 13.9512 101.567 14.7122C101.502 15.5365 101.567 16.3609 101.892 17.1219C102.153 17.7561 102.673 18.3268 103.324 18.5805C103.909 18.8341 104.625 18.8975 105.276 18.7707C105.861 18.7073 106.512 18.3902 106.902 17.9463C107.293 17.5024 107.488 16.8683 107.618 16.2975C107.748 15.5365 107.748 14.7122 107.618 13.8878C107.488 13.1902 107.163 12.5561 106.642 12.1122C106.057 11.6683 105.211 11.478 104.43 11.5414Z" fill="#A0ACE3"/>
<path fill-rule="evenodd" clip-rule="evenodd" d="M0 13.6342C4.22925 13.6342 8.45851 13.6342 12.6878 13.6342C12.6878 17.7561 12.6878 21.8781 12.6878 26H0V13.6342Z" fill="#A0ACE3"/>
<path fill-rule="evenodd" clip-rule="evenodd" d="M13.9891 13.6342C18.2183 13.6342 22.4476 13.6342 26.6768 13.6342V26H13.9891C13.9891 21.8781 13.9891 17.7561 13.9891 13.6342Z" fill="#A0ACE3"/>
</svg>
