<svg width="98" height="20" viewBox="0 0 98 20" fill="none" xmlns="http://www.w3.org/2000/svg">
<path d="M96.2133 0.470587C95.1924 0.176469 94.0693 0.705879 93.6099 1.82353L87.1779 16.2941C86.9738 16.7059 86.6164 16.9412 86.2591 16.9412C85.8507 16.9412 85.4934 16.7059 85.3402 16.2941L78.8572 1.82353C78.3468 0.705879 77.2748 0.176469 76.2538 0.470587C75.1818 0.764705 74.4672 1.88235 74.4672 3.11765V18.3529C74.4672 19.0588 74.9776 19.6471 75.5902 19.6471C76.2028 19.6471 76.7132 19.0588 76.7132 18.3529V2.82353C76.7132 2.7647 76.7132 2.70588 76.7643 2.64706C76.8664 2.58823 76.8664 2.70588 76.8664 2.7647L83.2984 17.2941C84.1151 19.1765 86.106 19.8823 87.7395 18.9412C88.352 18.5882 88.8625 18 89.1688 17.2941L95.6008 2.7647C95.6008 2.70588 95.6518 2.64706 95.7028 2.64706C95.7539 2.64706 95.7539 2.7647 95.7539 2.82353V18.2941C95.7539 19 96.2644 19.5882 96.8769 19.5882C97.4895 19.5882 98 19 98 18.2941V3.11765C98 1.82353 97.2853 0.764705 96.2133 0.470587Z" fill="#A0ACE3"/>
<path d="M18.8256 0.529421C18.2641 0.176479 17.6005 0.411774 17.3452 1.05883L10.3007 16.7647C10.1475 17.0588 9.94336 17.2353 9.73917 17.2353C9.53498 17.2353 9.33079 17.1177 9.22869 16.7647L2.13312 1.11766C1.87788 0.470597 1.16322 0.235303 0.652743 0.529421C0.652743 0.529421 0.652743 0.529421 0.601696 0.529421C0.0401752 0.882362 -0.164014 1.64707 0.14227 2.29413L7.1868 17.7647C7.69727 18.9412 8.66717 19.6471 9.73917 19.6471C10.8112 19.6471 11.73 18.9412 12.2915 17.7647L19.3871 2.29413C19.5913 1.64707 19.3871 0.882362 18.8256 0.529421Z" fill="#A0ACE3"/>
<path d="M27.3504 0C22.7051 0 18.8766 4.47059 18.8766 10C18.8766 15.5294 22.7051 20 27.3504 20C30.056 20 32.5573 18.4706 34.1397 16C34.4971 15.4118 34.395 14.5882 33.9355 14.1765C33.4251 13.7647 32.7615 13.8824 32.4041 14.4118C31.179 16.2941 29.3923 17.4706 27.4015 17.4706C24.3386 17.4706 21.7863 14.7647 21.2248 11.2941H34.7523C35.3649 11.2941 35.8753 10.7059 35.8753 10C35.8243 4.52941 32.0468 0 27.3504 0ZM21.2248 8.94118C21.7352 5.52941 24.2876 2.52941 27.4015 2.52941C30.5154 2.52941 33.0677 5.52941 33.5782 8.94118H21.2248Z" fill="#A0ACE3"/>
<path d="M45.7785 0C41.1332 0 37.3047 4.47059 37.3047 10C37.3047 15.5294 41.1332 20 45.7785 20C48.4841 20 50.9854 18.4706 52.5678 16C52.9252 15.4118 52.8231 14.5882 52.3637 14.1765C51.8532 13.7647 51.1896 13.8824 50.8322 14.4118C49.6071 16.2941 47.8204 17.4706 45.8296 17.4706C42.7668 17.4706 40.2144 14.7647 39.6529 11.2941H53.1804C53.793 11.2941 54.3035 10.7059 54.3035 10C54.2524 4.52941 50.4749 0 45.7785 0ZM39.6018 8.94118C40.1123 5.52941 42.6647 2.52941 45.7785 2.52941C48.8924 2.52941 51.4448 5.52941 51.9553 8.94118H39.6018Z" fill="#A0ACE3"/>
<path d="M65.6871 2.23531C65.1766 1.11766 64.2578 0.411774 63.2368 0.411774C62.2159 0.411774 61.297 1.11766 60.7865 2.23531L53.742 17.7647C53.4357 18.4118 53.6399 19.1765 54.2014 19.5294C54.3546 19.6471 54.5588 19.7059 54.7119 19.7059C55.1203 19.7059 55.5287 19.4706 55.7328 19L57.7237 14.6471H65.8402C66.4528 14.6471 66.9633 14.0588 66.9633 13.353C66.9633 12.6471 66.4017 12.1177 65.7892 12.1177H58.8467L62.7263 3.17648C62.8795 2.94119 63.0326 2.76471 63.2368 2.76471C63.441 2.76471 63.5941 2.94119 63.7473 3.17648L70.7918 19C71.0471 19.6471 71.7617 19.8824 72.2722 19.5882C72.2722 19.5882 72.2722 19.5882 72.3232 19.5882C72.8848 19.2353 73.0379 18.353 72.7316 17.7059L65.6871 2.23531Z" fill="#A0ACE3"/>
</svg>
