<svg width="109" height="17" viewBox="0 0 109 17" fill="none" xmlns="http://www.w3.org/2000/svg">
<path d="M46.663 15.2378L41.9077 2.08043C41.8511 1.91175 41.7379 1.63061 41.7379 1.46192C41.7379 0.899645 42.1908 0.337366 42.9267 0.337366C43.5494 0.337366 43.9457 0.73096 44.1155 1.29324L48.0783 12.6513L52.041 1.23701C52.2108 0.674733 52.6071 0.337366 53.1732 0.337366H53.2864C53.9091 0.337366 54.3054 0.730961 54.5319 1.23701L58.4946 12.595L62.514 1.18078C62.6838 0.730962 62.9668 0.281139 63.6462 0.281139C64.3255 0.281139 64.7784 0.787187 64.7784 1.34947C64.7784 1.57438 64.6652 1.79929 64.6085 1.96798L59.7966 15.1253C59.5702 15.8 59.0607 16.1936 58.4946 16.1936H58.3814C57.7587 16.1936 57.3058 15.8 57.0793 15.1253L53.2864 4.04841L49.3237 15.2378C49.0972 15.9125 48.6444 16.3061 48.0783 16.3061H48.0216C47.3989 16.3061 46.8894 15.9687 46.663 15.2378ZM81.3653 1.46192C81.3653 0.843417 81.8748 0.281139 82.4975 0.281139C83.1768 0.281139 83.6863 0.787189 83.6863 1.46192V4.16086C84.8185 1.57438 87.366 0.337366 89.0643 0.337366C89.7436 0.337366 90.1965 0.843416 90.1965 1.51815C90.1965 2.13666 89.7436 2.58648 89.1775 2.69894C86.1206 3.09253 83.6297 5.34165 83.6297 9.83988V15.1253C83.6297 15.7438 83.1768 16.3061 82.4975 16.3061C81.8182 16.3061 81.3087 15.8 81.3087 15.1253L81.3653 1.46192ZM97.7257 16.4185C93.4799 16.4185 90.0267 13.1573 90.0267 8.37795V8.32172C90.0267 3.87972 93.1403 0.281139 97.3861 0.281139C101.915 0.281139 104.519 3.99218 104.519 8.09681C104.519 8.71532 104.01 9.16514 103.443 9.16514H92.2911C92.6308 12.4826 94.9518 14.3943 97.7257 14.3943C99.6505 14.3943 101.009 13.6634 102.141 12.595C102.311 12.4264 102.538 12.3139 102.821 12.3139C103.387 12.3139 103.84 12.7637 103.84 13.326C103.84 13.6071 103.726 13.8883 103.5 14.057C102.085 15.4627 100.386 16.4185 97.7257 16.4185ZM102.311 7.47831C102.085 4.66691 100.443 2.24912 97.3861 2.24912C94.7254 2.24912 92.6874 4.49823 92.4043 7.47831H102.311ZM64.7784 11.5829V11.5267C64.7784 8.2655 67.4957 6.52243 71.4584 6.52243C73.4398 6.52243 74.8551 6.80357 76.2703 7.19717V6.63489C76.2703 3.82349 74.5154 2.4178 71.6283 2.4178C70.0432 2.4178 69.1374 2.64271 68.0052 3.14876C67.8353 3.20499 67.7221 3.26121 67.6089 3.26121C67.0428 3.26121 66.5899 2.81139 66.5899 2.24912C66.5899 1.79929 66.8164 1.46192 67.2126 1.29324C68.7411 0.618504 69.9299 0.393593 71.9113 0.393593C74.1191 0.393593 75.8174 0.955871 76.9496 2.13666C78.0253 3.20499 78.5347 4.72314 78.5347 6.69111V15.294C78.5347 15.9687 78.0819 16.4185 77.4025 16.4185C76.7232 16.4185 76.2703 15.9687 76.2703 15.3502V13.8883C75.1947 15.294 73.3266 16.5872 70.6093 16.5872C67.7221 16.4185 64.7784 14.7879 64.7784 11.5829ZM76.3269 10.3459V8.82778C75.1947 8.49041 73.6096 8.15304 71.7415 8.15304C68.7977 8.15304 67.156 9.39005 67.156 11.358V11.4143C67.156 13.3822 68.9676 14.5068 71.1188 14.5068C73.9493 14.563 76.3269 12.82 76.3269 10.3459ZM4.26168 1.34947C3.75218 0.224908 2.50675 -0.281143 1.31793 0.224908C0.129104 0.730959 -0.323781 2.08043 0.242325 3.14876L5.22406 13.8883C6.0166 15.5751 6.80915 16.4748 8.39425 16.4748C10.036 16.4748 10.7719 15.5189 11.5644 13.8883C11.5644 13.8883 15.8668 4.49823 15.9235 4.442C15.9801 4.32954 16.0933 4.04841 16.5462 4.04841C16.9424 4.04841 17.2255 4.32954 17.2255 4.72314V13.8883C17.2255 15.294 18.018 16.4748 19.5465 16.4748C21.075 16.4748 21.8676 15.294 21.8676 13.8883V6.40997C21.8676 4.94805 22.8866 4.04841 24.3584 4.04841C25.7737 4.04841 26.7361 5.00428 26.7361 6.40997V13.8883C26.7361 15.294 27.5286 16.4748 29.0571 16.4748C30.5856 16.4748 31.3781 15.294 31.3781 13.8883V6.40997C31.3781 4.94805 32.3971 4.04841 33.869 4.04841C35.2843 4.04841 36.2466 5.00428 36.2466 6.40997V13.8883C36.2466 15.294 37.0392 16.4748 38.5677 16.4748C40.0962 16.4748 40.8887 15.294 40.8887 13.8883V5.39788C40.8887 2.24911 38.3412 0.056227 35.2843 0.056227C32.2273 0.056227 30.3025 2.13666 30.3025 2.13666C29.2835 0.787188 27.8683 0 25.4906 0C22.9998 0 20.792 2.08043 20.792 2.08043C19.773 0.787189 18.0747 0 16.6028 0C14.395 0 12.64 1.0121 11.5644 3.4299L8.39425 10.852L4.26168 1.34947ZM104.745 2.19288C104.745 1.12455 105.595 0.224908 106.67 0.224908C107.746 0.224908 108.595 1.06833 108.595 2.13666C108.595 3.20499 107.746 4.10463 106.67 4.10463C105.595 4.10463 104.745 3.26121 104.745 2.19288ZM108.255 2.19288C108.255 1.29324 107.576 0.618506 106.67 0.618506C105.764 0.618506 105.085 1.34947 105.085 2.19288C105.085 3.0363 105.764 3.76727 106.67 3.76727C107.576 3.76727 108.255 3.0363 108.255 2.19288Z" fill="#A0ACE3"/>
<path d="M105.991 1.46194C105.991 1.34949 106.104 1.23703 106.217 1.23703H106.84C107.066 1.23703 107.293 1.29326 107.406 1.40572C107.519 1.51817 107.576 1.68685 107.576 1.85554C107.576 2.13668 107.406 2.30536 107.18 2.41781L107.463 2.75518C107.519 2.81141 107.519 2.86764 107.519 2.92387C107.519 3.03632 107.406 3.09255 107.349 3.09255C107.236 3.09255 107.18 3.03632 107.123 2.98009L106.727 2.47404H106.387V2.92387C106.387 3.03632 106.274 3.14878 106.161 3.14878C106.047 3.14878 105.934 3.03632 105.934 2.92387L105.991 1.46194ZM106.783 2.13668C107.01 2.13668 107.066 2.02422 107.066 1.85554C107.066 1.68685 106.953 1.5744 106.727 1.5744H106.387V2.13668H106.783Z" fill="#A0ACE3"/>
</svg>
