<svg width="129" height="23" viewBox="0 0 129 23" fill="none" xmlns="http://www.w3.org/2000/svg">
<path d="M40.6484 2.32452C46.9641 2.32452 48.5094 6.70789 48.5094 10.095C48.5094 13.1501 47.1656 17.7327 40.6484 17.7327H32.1156V2.32452H40.6484ZM38.0281 13.8807H39.2375C40.5813 13.8807 42.1937 13.4822 42.1937 10.0286C42.1937 6.44223 40.7156 5.97733 39.2375 5.97733H38.0281V13.8807ZM54.9594 6.17657V8.76674H55.0938C55.5641 7.30562 56.7734 5.91091 58.5875 5.91091C58.8562 5.91091 59.1922 5.97732 59.5281 6.04374V10.6928C59.125 10.5599 58.7891 10.5599 58.3859 10.4935C56.7063 10.4935 55.3625 11.5562 55.3625 13.5486V17.7327H49.7188V6.17657H54.9594ZM59.5281 13.4822H64.3656V17.7327H59.5281V13.4822ZM71.0172 12.1539H71.0844L73.5703 2.32452H79.2812L81.7 12.1539H81.7672L83.6484 2.32452H88.9562L85.1938 17.6663H78.8109L76.2578 7.63769H76.1906L73.7719 17.6663H67.1875L63.5594 2.32452H69.1359L71.0172 12.1539ZM103.536 2.32452V5.97733H95.8766V8.16901H103.2V11.689H95.8766V14.0799H103.67V17.7327H89.8969V2.32452H103.536ZM114.42 2.32452C119.325 2.32452 120.198 4.91469 120.198 6.3094C120.198 8.03618 118.989 9.49731 117.041 9.82938V9.96221C118.586 10.1615 120.534 11.2241 120.534 13.615C120.534 17.5335 116.1 17.7327 114.084 17.7327H105.014V2.32452H114.42ZM110.725 8.43467H112.136C114.152 8.43467 114.353 7.37204 114.353 6.90713C114.353 6.24299 113.883 5.44601 112.27 5.44601H110.725V8.43467ZM110.725 14.6112H112.203C114.152 14.6112 114.42 13.5486 114.42 13.0173C114.42 11.4233 112.539 11.4233 112.069 11.4233H110.658L110.725 14.6112ZM121.341 6.17657C121.341 4.0513 123.088 2.39093 125.17 2.39093C127.253 2.39093 129 4.0513 129 6.17657C129 8.30184 127.253 9.96221 125.17 9.96221C123.088 9.96221 121.341 8.23543 121.341 6.17657ZM125.17 8.70033C126.514 8.70033 127.656 7.50486 127.656 6.11015C127.656 4.71544 126.514 3.51998 125.17 3.51998C123.827 3.51998 122.684 4.71544 122.684 6.11015C122.684 7.57128 123.827 8.70033 125.17 8.70033ZM125.506 4.44978C125.977 4.44978 126.783 4.5162 126.783 5.31318C126.783 5.71167 126.514 6.11016 126.111 6.17657C126.38 6.17657 126.648 6.44223 126.716 6.7743L126.917 7.70411H125.641L125.506 6.90713C125.439 6.64147 125.237 6.57506 125.103 6.57506H124.834V7.70411H123.625V4.44978H125.506ZM124.767 5.8445H125.036C125.17 5.8445 125.506 5.8445 125.506 5.51242C125.506 5.18035 125.17 5.18035 125.036 5.18035H124.7L124.767 5.8445ZM14.8484 4.25054L19.4172 6.7743C19.5516 6.44223 19.6188 6.11016 19.6188 5.8445C19.6188 3.85206 17.4688 2.2581 14.9156 2.2581C12.2953 2.2581 10.2125 3.85206 10.2125 5.8445C10.2125 6.17657 10.2797 6.50864 10.3469 6.7743L14.8484 4.25054ZM22.7766 11.5562L26.4719 13.7478L19.6188 21.9833L22.7766 11.5562ZM22.9781 9.43089L22.575 7.63769L29.6297 9.69655L25.2625 12.0211L25.8672 10.1615L22.9781 9.43089ZM22.1719 6.50865L21.2313 5.24676L27.4797 3.25432L25.9344 8.1026L25.2625 5.8445L22.1719 6.50865ZM20.425 4.25054L19.0812 2.85584L20.8281 1.12905L18.9469 0H23.9187L20.425 4.25054ZM6.85312 11.5562L3.15781 13.7478L10.0109 21.9833L6.85312 11.5562ZM6.65156 9.43089L7.05469 7.63769L0 9.69655L4.36719 12.0211L3.7625 10.1615L6.65156 9.43089ZM7.45781 6.50865L8.39844 5.24676L2.15 3.25432L3.69531 8.1026L4.36719 5.8445L7.45781 6.50865ZM9.20469 4.25054L10.5484 2.85584L8.80156 1.12905L10.6828 0H5.64375L9.20469 4.25054Z" fill="#A0ACE3"/>
<path d="M13.0344 9.29807L13.9078 6.84073H15.8562L16.7297 9.29807L17.2672 7.03997L14.7812 5.64526L12.3625 7.03997L13.0344 9.29807Z" fill="#A0ACE3"/>
<path d="M21.4328 9.43088L18.8797 7.96976L17.9391 10.7592H15.6547L14.7812 8.23542L13.9078 10.7592H11.6234L10.75 7.96976L8.19687 9.43088C8.19687 9.43088 7.25625 12.6852 10.8172 15.3418C12.0266 16.2716 12.9672 16.8693 13.8406 17.2014L13.7062 16.7365H16.0578L15.9234 17.2014C16.7297 16.9357 17.6703 16.338 18.9469 15.3418C22.3062 12.6188 21.4328 9.43088 21.4328 9.43088ZM16.2594 15.8731H13.3703L13.0344 14.9433H16.5281L16.2594 15.8731ZM16.7969 14.1463H12.7656L12.4297 13.2165H17.0656L16.7969 14.1463ZM17.4016 12.4195H12.2281L11.8922 11.4897H17.6703L17.4016 12.4195Z" fill="#A0ACE3"/>
</svg>
